<svg width="251" height="23" viewBox="0 0 251 23" fill="none" xmlns="http://www.w3.org/2000/svg">
<path fill-rule="evenodd" clip-rule="evenodd" d="M4.19536 12.8561L2.29436 17.5085H0.143555L7.39712 0H8.49768L15.7263 17.5085H13.5747L11.6745 12.8561H4.19536ZM7.9474 3.60198L4.89588 11.0302H10.9989L7.9474 3.60198ZM24.2552 4.82708C26.256 4.82708 27.8987 5.60268 29.1828 7.15311L28.0822 8.32914C27.0149 7.16197 25.739 6.57802 24.2552 6.57802C22.9878 6.57802 21.9081 7.02435 21.016 7.91643C20.1239 8.80851 19.6781 9.92139 19.6781 11.255C19.6781 12.5893 20.1239 13.698 21.016 14.5819C21.9081 15.4656 22.9878 15.9078 24.2552 15.9078C25.756 15.9078 27.0314 15.3323 28.0822 14.1817L29.1828 15.3575C27.8987 16.8914 26.256 17.6584 24.2552 17.6584C22.4711 17.6584 20.9582 17.033 19.7156 15.7825C18.4733 14.5318 17.8521 13.0227 17.8521 11.255C17.8521 9.47089 18.4775 7.95377 19.7285 6.70328C20.9789 5.4528 22.4876 4.82708 24.2552 4.82708ZM40.4378 6.57802H39.7377C38.0368 6.57802 36.7861 7.08641 35.9856 8.10361C35.1855 9.12081 34.7859 10.4716 34.7859 12.1559V17.5085H32.9594V5.00248H34.2599L34.4354 8.37875C34.902 7.21158 35.6273 6.32783 36.6109 5.7278C37.5949 5.12748 38.7625 4.82708 40.1131 4.82708H40.4378V6.57802ZM49.318 4.82708C51.1021 4.82708 52.6189 5.45678 53.8694 6.71559C55.1202 7.97441 55.7458 9.48785 55.7458 11.255C55.7458 13.0227 55.1202 14.5318 53.8694 15.7825C52.6189 17.033 51.1021 17.6584 49.318 17.6584C47.5338 17.6584 46.0206 17.033 44.778 15.7825C43.5358 14.5318 42.9145 13.0227 42.9145 11.255C42.9145 9.47089 43.5399 7.95377 44.7908 6.70328C46.0413 5.4528 47.5505 4.82708 49.318 4.82708ZM49.293 6.57802C48.0425 6.57802 46.9667 7.02435 46.0662 7.91643C45.1658 8.80851 44.7159 9.92139 44.7159 11.255C44.7159 12.5893 45.162 13.698 46.0541 14.5819C46.9462 15.4656 48.026 15.9078 49.293 15.9078C50.5604 15.9078 51.6443 15.4656 52.5447 14.5819C53.445 13.698 53.8951 12.5893 53.8951 11.255C53.8951 9.92139 53.445 8.80851 52.5447 7.91643C51.6443 7.02435 50.5604 6.57802 49.293 6.57802ZM76.0062 4.82708C77.707 4.82708 79.0365 5.35243 79.9952 6.40281C80.9541 7.45348 81.4341 8.91251 81.4341 10.7804V17.5085H79.6326V10.8554C79.6326 9.42129 79.2868 8.34993 78.5949 7.64129C77.903 6.93237 76.9565 6.57802 75.7557 6.57802C74.422 6.57802 73.367 7.01155 72.5918 7.87878C71.8162 8.74601 71.4291 9.97162 71.4291 11.5555V17.5085H69.6277V10.8554C69.6277 9.42129 69.2819 8.34993 68.5899 7.64129C67.8979 6.93237 66.9518 6.57802 65.7514 6.57802C64.4339 6.57802 63.3876 7.01155 62.6125 7.87878C61.8368 8.74601 61.4491 9.97162 61.4491 11.5555V17.5085H59.6234V5.00248H60.9238L61.0244 7.8538C61.4909 6.8366 62.175 6.07787 63.0757 5.57739C63.9761 5.07734 64.9516 4.82708 66.002 4.82708C67.2194 4.82708 68.2525 5.11512 69.1031 5.69015C69.9533 6.26533 70.546 7.10337 70.8795 8.20388C71.2963 7.08641 71.9797 6.24451 72.9301 5.67766C73.8806 5.11081 74.9064 4.82708 76.0069 4.82708H76.0062ZM105.32 17.5085H94.4145V0H96.3659V15.6823H105.32V17.5085ZM110.872 3.15144C110.656 3.35155 110.389 3.45156 110.072 3.45156C109.756 3.45156 109.489 3.35213 109.272 3.15144C109.055 2.95133 108.947 2.70937 108.947 2.42594C108.947 2.14252 109.055 1.90091 109.272 1.7008C109.489 1.50069 109.756 1.4005 110.072 1.4005C110.389 1.4005 110.656 1.50128 110.872 1.7008C111.089 1.90091 111.198 2.14252 111.198 2.42594C111.198 2.70937 111.089 2.95133 110.872 3.15144ZM109.147 17.5085V5.00248H110.973V17.5085H109.147ZM121.203 4.82708C122.287 4.82708 123.278 5.09801 124.179 5.64001C125.079 6.18201 125.772 6.89497 126.255 7.77886L126.354 5.00248H127.655V15.9328C127.655 17.8503 127.125 19.384 126.067 20.5347C125.008 21.6853 123.512 22.2693 121.577 22.2858C119.543 22.2858 117.75 21.6523 116.199 20.3848L117.25 19.2341C118.617 20.168 120.06 20.635 121.577 20.635C122.945 20.635 123.991 20.2597 124.716 19.5093C125.442 18.759 125.804 17.6919 125.804 16.3077V14.8069C125.354 15.6073 124.721 16.2537 123.903 16.7455C123.086 17.2374 122.186 17.4835 121.202 17.4835C119.434 17.4835 117.95 16.8666 116.75 15.6327C115.549 14.3984 114.949 12.9063 114.949 11.1553C114.949 9.42129 115.549 7.93295 116.75 6.69079C117.95 5.44864 119.434 4.82708 121.202 4.82708H121.203ZM121.328 6.57802C120.077 6.57802 119.002 7.02013 118.102 7.90359C117.201 8.78733 116.751 9.87135 116.751 11.1553C116.751 12.4559 117.201 13.5439 118.102 14.4193C119.002 15.2949 120.077 15.7324 121.328 15.7324C122.595 15.7324 123.679 15.2949 124.579 14.4193C125.48 13.5439 125.93 12.4559 125.93 11.1553C125.93 9.87135 125.48 8.78733 124.579 7.90359C123.679 7.02013 122.595 6.57802 121.328 6.57802ZM138.787 4.82708C140.488 4.82708 141.818 5.35243 142.776 6.40281C143.735 7.45348 144.215 8.91251 144.215 10.7804V17.5085H142.413V10.8554C142.413 9.42129 142.067 8.34993 141.375 7.64129C140.684 6.93237 139.737 6.57802 138.537 6.57802C137.219 6.57802 136.173 7.01155 135.398 7.87878C134.622 8.74601 134.235 9.97162 134.235 11.5555V17.5085H132.409V0H134.235V7.52852C134.668 6.6116 135.306 5.93212 136.148 5.48995C136.99 5.04823 137.87 4.82708 138.787 4.82708ZM151.643 6.72808V17.5085H149.817V6.72808H147.991V5.00248H149.817V0.80044H151.643V5.00248H153.469V6.72808H151.643ZM170.026 6.72808V17.5085H168.201V6.72808H163.624V5.00248H174.604V6.72808H170.026ZM183.033 4.82708C184.817 4.82708 186.334 5.45678 187.585 6.71559C188.836 7.97441 189.461 9.48785 189.461 11.255C189.461 13.0227 188.836 14.5318 187.585 15.7825C186.334 17.033 184.817 17.6584 183.033 17.6584C181.249 17.6584 179.736 17.033 178.493 15.7825C177.251 14.5318 176.63 13.0227 176.63 11.255C176.63 9.47089 177.255 7.95377 178.505 6.70328C179.756 5.4528 181.266 4.82708 183.033 4.82708ZM183.008 6.57802C181.758 6.57802 180.682 7.02435 179.781 7.91643C178.881 8.80851 178.431 9.92139 178.431 11.255C178.431 12.5893 178.877 13.698 179.769 14.5819C180.661 15.4656 181.741 15.9078 183.008 15.9078C184.276 15.9078 185.36 15.4656 186.26 14.5819C187.16 13.698 187.61 12.5893 187.61 11.255C187.61 9.92139 187.16 8.80851 186.26 7.91643C185.36 7.02435 184.276 6.57802 183.008 6.57802ZM204.669 17.5085H202.843V12.081H195.164V17.5085H193.339V5.00248H195.164V10.3299H202.843V5.00248H204.669V17.5085ZM218.626 17.5085L216.575 14.3569C215.941 13.3729 215.428 12.7228 215.037 12.4057C214.644 12.0891 214.024 11.9306 213.173 11.9306H211.272V17.5085H209.446V5.00248H211.272V10.1798H212.897C213.748 10.1798 214.37 10.0213 214.762 9.70466C215.153 9.38777 215.666 8.73755 216.3 7.75353L218.101 5.00248H220.152L217.8 8.55397C217.317 9.28774 216.912 9.83821 216.587 10.2048C216.262 10.5715 215.916 10.8383 215.549 11.0052C215.999 11.1383 216.404 11.3973 216.762 11.7805C217.121 12.1641 217.559 12.7559 218.076 13.5564L220.651 17.5085H218.626ZM235.034 17.5085H233.233V8.054L224.904 17.5085H223.803V5.00248H225.63V14.4568L233.958 5.00248H235.034V17.5085ZM247.827 2.61365C247.135 3.23882 246.289 3.55184 245.288 3.55184C244.288 3.55184 243.442 3.23882 242.75 2.61365C242.058 1.98834 241.712 1.21731 241.712 0.299942H243.037C243.037 0.850273 243.254 1.30905 243.688 1.67564C244.122 2.04282 244.655 2.22592 245.288 2.22592C245.922 2.22592 246.46 2.04282 246.902 1.67564C247.344 1.30905 247.564 0.850273 247.564 0.299942H248.865C248.865 1.21731 248.519 1.98834 247.827 2.61365ZM250.916 17.5085H249.115V8.054L240.786 17.5085H239.686V5.00248H241.511V14.4568L249.84 5.00248H250.916V17.5085Z" fill="black"/>
</svg>
