<svg width="24" height="23" viewBox="0 0 24 23" fill="none" xmlns="http://www.w3.org/2000/svg">
<path fill-rule="evenodd" clip-rule="evenodd" d="M2.20212 13.1646L4.08992 13.1747C4.11472 13.0979 4.1229 13.1007 4.13185 12.9763L3.87812 11.4431L1.81021 11.4248L2.20212 13.1646ZM19.3454 13.1499L21.232 13.1784L21.6609 11.4618L19.5344 11.4109C19.4336 12.2156 19.2583 12.7352 19.3295 13.0967C19.3323 13.1089 19.3384 13.1329 19.3454 13.1499ZM5.53785 21.403L5.09346 18.7065C5.03084 18.53 5.0678 18.6133 4.98323 18.5153L3.54348 18.4792C3.60975 18.9943 3.8578 19.9165 4.01678 20.4259C4.25098 21.1757 4.65595 21.4831 5.53785 21.403ZM17.9279 21.4074C18.8216 21.4526 19.1953 21.1716 19.4112 20.4304C19.5441 19.973 19.8544 18.9341 19.8857 18.4909C18.093 18.4629 18.4244 18.2413 18.191 19.6331C18.1089 20.1222 17.9218 20.9439 17.9279 21.4074ZM3.3085 17.5981C3.75859 17.6062 4.51932 17.6505 4.89786 17.5363C4.81736 16.9678 4.47746 14.4238 4.29083 14.1018L2.46195 14.0794L3.3085 17.5981ZM18.6135 17.5729L20.1081 17.5981C20.3269 17.0618 20.8896 14.7356 20.9819 14.0863L19.1034 14.0879C19.0139 14.6616 18.4708 17.2012 18.6135 17.5729ZM8.87597 13.1849L8.77797 11.4451L4.94376 11.4276C4.89578 11.8533 5.0296 12.2774 5.09099 12.675C5.19468 13.3455 5.23288 13.163 5.97938 13.165C6.93976 13.1682 7.91681 13.1609 8.87597 13.1849ZM9.87371 13.1666L13.5664 13.1821L13.6734 11.4158L9.75538 11.4166L9.87371 13.1666ZM14.5532 13.1792L18.2236 13.1609C18.4143 12.8019 18.55 11.9041 18.4935 11.45C17.8194 11.4207 15.1631 11.3292 14.6675 11.461L14.5532 13.1792ZM14.1072 21.4209L16.8944 21.4213L17.3669 18.5454C16.8237 18.41 14.95 18.471 14.2979 18.4906L14.1072 21.4209ZM10.3149 21.379C10.6386 21.4701 12.7541 21.4587 13.1245 21.3892L13.281 18.484L10.1527 18.4808L10.3149 21.379ZM6.53726 21.4209L9.31186 21.4213C9.32487 20.9801 9.27239 18.7768 9.11667 18.5658C8.79993 18.3279 6.62829 18.4722 6.06475 18.4832L6.53726 21.4209ZM5.90863 17.5993L9.11627 17.5826L8.92758 14.0843L5.35933 14.0802L5.90863 17.5993ZM10.1059 17.5066C10.434 17.6562 12.8475 17.6375 13.3232 17.5786L13.5164 14.068L9.94081 14.066L10.1059 17.5066ZM14.3255 17.5684L17.5047 17.6005C17.63 17.2427 18.1016 14.3811 18.0605 14.0664C17.623 14.0652 14.687 14.0014 14.5679 14.1111C14.4345 14.2343 14.3267 17.1394 14.3255 17.5684ZM0 9.93013C0.548088 8.9783 0.461061 8.8246 2.00652 8.80386L21.3856 8.79492C22.0268 8.79492 22.2566 8.70872 22.7534 9.00634C23.2751 9.31901 23.1201 9.3922 23.4259 9.92606V10.5063C23.2726 10.7925 21.1958 19.7485 20.6798 21.2769C20.5119 21.7742 20.0076 22.2389 19.6421 22.4906C18.8806 23.0155 18.5776 22.6959 17.8942 22.8976H5.46908C4.76445 22.6723 4.46525 23.0106 3.70167 22.4308C3.3215 22.1422 2.89091 21.7323 2.72624 21.1562L0 10.4014V9.93013Z" fill="white"/>
<path fill-rule="evenodd" clip-rule="evenodd" d="M14.9571 0.386414C15.7467 0.909293 15.3564 0.646621 15.7125 1.19756C16.5969 1.22439 17.4662 1.18212 18.1557 1.57733C18.6859 1.88146 19.2043 2.4214 19.4373 3.10692C19.5967 3.57531 20.2818 7.53595 20.207 7.87464L19.3032 7.88236C18.9897 6.92158 18.8376 5.02075 18.6233 3.91766C18.2631 2.06441 16.9945 2.21039 15.6828 2.2299C15.3885 3.03902 15.0327 3.01138 14.0691 3.02155C13.2726 3.03009 12.4736 3.02723 11.6767 3.0252C11.1664 3.02398 8.53211 3.1305 8.19992 2.8772C7.98077 2.71049 7.83272 2.48686 7.7514 2.1998C6.00508 2.20265 5.12523 2.2848 4.80971 3.9315C4.65399 4.74428 4.36206 7.34402 4.12827 7.89211L3.22932 7.84292C3.1785 7.42168 3.84525 3.49318 4.00423 3.05365C4.23355 2.41977 4.81542 1.85665 5.33423 1.56837C6.06326 1.16341 6.84631 1.22073 7.73838 1.21951C7.92866 0.687689 8.11327 0.587271 8.58817 0.386414H14.9571Z" fill="white"/>
</svg>
