<svg width="52" height="84" viewBox="0 0 52 84" fill="none" xmlns="http://www.w3.org/2000/svg">
<path d="M51.2648 57.1297H7.38477L13.3894 65.9057H22.6273V83.9196L31.4033 80.6864V65.9723H42.4888V81.6101L51.2648 80.6864V57.1297Z" fill="white"/>
<path d="M42.4894 57.1297H34.1753H33.9443V33.1111V22.2566C33.9443 15.2358 32.2507 13.7885 31.4039 13.9425V57.1297H22.166V25.4899C22.166 18.8386 22.1875 18.7924 22.397 9.78541C22.4739 6.47516 25.1221 -0.0529555 35.0991 0.316561C45.076 0.686077 50.0337 8.16878 51.2654 11.8639V57.1297H42.4894Z" fill="white"/>
<path d="M7.38546 57.1297H0.457031L6.46167 65.9057H13.3901L7.38546 57.1297Z" fill="#1A1A1A"/>
<path d="M22.628 65.9057H15.2377V82.9959L22.628 83.9197V65.9057Z" fill="#1A1A1A"/>
<path d="M42.4895 65.9057H34.1754V80.6864L42.4895 81.6102V65.9057Z" fill="#1A1A1A"/>
<path d="M15.2377 11.864V57.1297H22.1661V11.864C22.3971 4.01179 27.093 1.7793 28.8636 1.24042C19.1638 3.54989 16.8543 4.24274 15.2377 11.864Z" fill="#1A1A1A"/>
<path d="M42.4895 57.1297H34.1754C34.0984 48.0458 33.9444 28.7694 33.9444 22.4876C33.9444 16.2058 32.4048 14.1735 31.635 13.9425C32.0045 10.8016 33.4825 10.2474 35.3301 10.2474C40.5033 10.6169 42.2585 14.1735 42.4895 17.6377V57.1297Z" fill="#1A1A1A"/>
</svg>
