<svg width="52" height="84" viewBox="0 0 52 84" fill="none" xmlns="http://www.w3.org/2000/svg">
<path d="M51.2648 57.1447H7.38477L13.3894 65.9208H22.6273V83.9347L31.4033 80.7014V65.9873H42.4888V81.6252L51.2648 80.7014V57.1447Z" fill="#7C787D"/>
<path d="M42.4894 57.1447H34.1753H33.9443V33.1262V22.2716C33.9443 15.2508 32.2507 13.8036 31.4039 13.9575V57.1447H22.166V25.5049C22.166 18.8536 22.1875 18.8074 22.397 9.80046C22.4739 6.49021 25.1221 -0.0379103 35.0991 0.331606C45.076 0.701122 50.0337 8.18383 51.2654 11.879V57.1447H42.4894Z" fill="#7C787D"/>
<path d="M7.38546 57.1447H0.457031L6.46167 65.9207H13.3901L7.38546 57.1447Z" fill="#1A1A1A"/>
<path d="M22.628 65.9207H15.2377V83.0109L22.628 83.9346V65.9207Z" fill="#1A1A1A"/>
<path d="M42.4895 65.9207H34.1754V80.7014L42.4895 81.6252V65.9207Z" fill="#1A1A1A"/>
<path d="M15.2377 11.879V57.1447H22.1661V11.879C22.3971 4.02677 27.093 1.79428 28.8636 1.2554C19.1638 3.56488 16.8543 4.25772 15.2377 11.879Z" fill="#1A1A1A"/>
<path d="M42.4895 57.1447H34.1754C34.0984 48.0608 33.9444 28.7844 33.9444 22.5026C33.9444 16.2208 32.4048 14.1885 31.635 13.9575C32.0045 10.8166 33.4825 10.2624 35.3301 10.2624C40.5033 10.6319 42.2585 14.1885 42.4895 17.6527V57.1447Z" fill="#1A1A1A"/>
</svg>
