<svg width="38" height="36" viewBox="0 0 38 36" fill="none" xmlns="http://www.w3.org/2000/svg">
<path d="M18.5209 24.6399C25.1778 24.6399 30.5746 19.2435 30.5746 12.5867C30.5746 5.92966 25.1778 0.533264 18.5209 0.533264C11.8641 0.533264 6.46795 5.92966 6.46795 12.5867C6.46795 19.2435 11.8641 24.6399 18.5209 24.6399ZM12.61 34.9274C19.2668 34.9274 24.6633 29.531 24.6633 22.874C24.6633 16.2172 19.2668 10.8208 12.61 10.8208C5.95297 10.8208 0.556641 16.2172 0.556641 22.874C0.556641 29.531 5.95297 34.9274 12.61 34.9274ZM24.6633 34.9274C31.3202 34.9274 36.7166 29.531 36.7166 22.874C36.7166 16.2172 31.3202 10.8208 24.6633 10.8208C18.0064 10.8208 12.61 16.2172 12.61 22.874C12.61 29.531 18.0064 34.9274 24.6633 34.9274Z" stroke="black" stroke-width="0.685042"/>
</svg>
