<svg width="35" height="34" viewBox="0 0 35 34" fill="none" xmlns="http://www.w3.org/2000/svg">
<path fill-rule="evenodd" clip-rule="evenodd" d="M6.56134 11.35L6.50977 12.2409C6.86792 12.1584 7.85104 11.56 9.09008 11.2187C10.0649 10.9501 11.1035 10.7766 12.1841 10.8018C13.9604 10.8432 16.6514 11.435 17.7183 12.3219L17.8096 12.3162C19.4948 11.4341 21.1534 10.838 23.4414 10.8412C25.4365 10.844 27.704 11.4938 29.0673 12.3704C28.9389 10.4295 28.7928 9.45852 28.1149 7.82035C26.6302 4.23284 22.7213 1.24698 18.3421 1.08368C14.6678 0.946785 12.2264 2.28991 10.2272 3.97118C8.68487 5.26832 6.70295 8.28356 6.56134 11.3505V11.35Z" fill="#FD1511"/>
<path fill-rule="evenodd" clip-rule="evenodd" d="M17.7217 31.8787V31.8659C17.3037 31.5768 16.9295 31.3754 16.5333 31.0708C13.7942 28.9651 12.1915 25.82 12.1177 22.1006V22.0677C11.3716 21.6974 10.4119 20.8858 9.91171 20.3946C9.2959 19.7898 8.74776 19.145 8.21032 18.2848C7.73326 17.521 7.27838 16.5778 7.00345 15.6199C6.56936 14.1067 6.53369 12.4698 6.48802 12.3317C5.64681 12.6119 3.89138 14.3099 3.43687 14.8876C0.43947 18.6979 -0.0306154 23.4731 2.33142 27.6825C4.8646 32.1968 10.6598 34.5524 15.7728 32.7344C16.5317 32.4646 17.0529 32.1655 17.7217 31.878V31.8787Z" fill="#00FB48"/>
<path fill-rule="evenodd" clip-rule="evenodd" d="M17.7211 31.8666C20.4247 30.3049 23.4446 26.821 23.3864 22.1472C22.9751 22.3009 22.5907 22.5477 22.1342 22.7387C19.8083 23.7124 17.0442 23.8827 14.6118 23.1525C13.1381 22.71 12.8533 22.3697 12.1172 22.1013C12.1914 25.8208 13.7937 28.9659 16.5327 31.0716C16.929 31.3762 17.3032 31.5776 17.7211 31.8666Z" fill="#00FEFD"/>
<path fill-rule="evenodd" clip-rule="evenodd" d="M23.3889 22.1143V22.1471C23.4474 26.821 20.4273 30.3048 17.7236 31.8666V31.8795C17.9934 31.9704 18.3673 32.2122 18.6639 32.3466C21.2657 33.5242 24.2545 33.7426 26.9377 32.8186C34.7804 30.1177 36.9424 20.7357 32.0893 14.931C31.0701 13.7119 30.3389 13.2223 29.0692 12.3707C28.9592 14.9494 28.4348 16.4911 27.3085 18.3558C26.8219 19.1617 26.1565 19.9414 25.5688 20.4856C25.0393 20.9761 24.1459 21.758 23.3903 22.115L23.3889 22.1143Z" fill="#0023F6"/>
<path fill-rule="evenodd" clip-rule="evenodd" d="M17.8096 12.3157L19.9515 13.9909C22.0204 15.9318 23.4465 19.006 23.3884 22.1143C24.144 21.7573 25.0375 20.9753 25.5669 20.4848C26.1546 19.9407 26.82 19.161 27.3066 18.355C28.4329 16.4903 28.9581 14.9487 29.0673 12.37C27.7039 11.4934 25.4364 10.8434 23.4414 10.8407C21.1533 10.8379 19.4947 11.4337 17.8096 12.3157Z" fill="#FE2BF9"/>
<path fill-rule="evenodd" clip-rule="evenodd" d="M6.56014 11.35L6.4873 12.3324C6.53298 12.4706 6.5685 14.1075 7.00274 15.6206C7.27767 16.5785 7.73255 17.5217 8.20961 18.2855C8.74705 19.1457 9.29554 19.7905 9.91135 20.3953C10.4115 20.8865 11.3712 21.6982 12.1174 22.0685C12.2159 18.0536 14.1907 14.5259 17.4063 12.5581L17.7178 12.3218C16.6509 11.4349 13.9599 10.8431 12.1836 10.8017C11.103 10.7766 10.0644 10.95 9.08958 11.2187C7.85053 11.56 6.86776 12.1584 6.50961 12.2409L6.56014 11.35Z" fill="#FEFD4B"/>
<path fill-rule="evenodd" clip-rule="evenodd" d="M12.117 22.0685V22.1013C12.8531 22.3697 13.1378 22.71 14.6116 23.1525C17.044 23.8827 19.8081 23.7124 22.134 22.7387C22.5905 22.5477 22.9749 22.3009 23.3862 22.1472V22.1143C23.4447 19.006 22.0182 15.9318 19.9492 13.9909L17.8073 12.3157L17.716 12.3215L17.4045 12.5577C14.189 14.5255 12.2142 18.0532 12.1152 22.0681L12.117 22.0685Z" fill="#FEFEFE"/>
<path d="M17.5612 1.02005C20.5899 1.02005 23.4948 2.22319 25.6364 4.36481C27.778 6.50643 28.981 9.4111 28.981 12.4398C28.981 14.6984 28.3113 16.9063 27.0565 18.7843C25.8017 20.6622 24.0181 22.1259 21.9314 22.9903C19.8447 23.8546 17.5484 24.0808 15.3332 23.6401C13.118 23.1995 11.0835 22.1119 9.48638 20.5148C7.8893 18.9177 6.80164 16.8829 6.36101 14.6677C5.92037 12.4525 6.14663 10.1563 7.01096 8.06964C7.8753 5.98295 9.33873 4.19943 11.2167 2.94462C13.0947 1.6898 15.3026 1.02005 17.5612 1.02005Z" stroke="#1B1918" stroke-width="0.809232"/>
</svg>
