<svg width="43" height="43" viewBox="0 0 43 43" fill="none" xmlns="http://www.w3.org/2000/svg">
<path fill-rule="evenodd" clip-rule="evenodd" d="M20.9054 10.0124C19.9508 10.0567 18.7692 10.3432 17.8987 10.7051L16.2429 11.5559C16.1011 11.6448 16.0097 11.7014 15.8765 11.8026C15.1913 12.3203 14.7846 12.6682 14.2158 13.2547C14.1055 13.367 14.0453 13.481 13.9441 13.597C13.2846 14.3425 12.6956 15.3896 12.3301 16.327C11.2919 18.984 11.4534 22.0116 12.7625 24.5305C13.3355 25.6305 14.2084 26.7232 14.9293 27.3208C15.9527 28.1691 16.5417 28.6679 17.9901 29.2163C20.914 30.3237 23.4747 30.0532 26.2071 28.7716C27.4641 28.1815 28.8286 26.9134 29.5597 25.9453C29.7101 25.7453 29.9028 25.476 30.0585 25.217C31.1512 23.4042 31.6848 21.4251 31.5352 19.1926C31.4438 17.8147 31.0106 16.4171 30.4376 15.338C29.3175 13.2301 27.4519 11.5063 25.2022 10.6571C23.7997 10.1284 22.5095 9.9358 20.9054 10.0124ZM11.9055 27.7445C11.2682 27.9072 10.1239 29.2421 9.63491 29.7274L6.4553 32.8832C6.19586 33.1377 5.63439 33.6021 5.49463 34.071C5.02413 35.6542 7.05038 36.8579 8.14304 35.7985C8.23936 35.7058 8.34312 35.6169 8.40992 35.5542C8.53575 35.4329 8.54184 35.3616 8.67176 35.2542C9.38777 34.6587 9.39888 34.5415 9.87553 34.0562L12.949 31.0471C13.2306 30.7659 13.7306 30.3409 13.8957 29.852C14.3007 28.6581 13.0932 27.438 11.9055 27.7445ZM22.7046 31.5844C22.139 31.625 21.714 31.8967 21.5128 32.2041C21.1685 32.7316 21.2017 32.9783 21.2587 33.6611L21.8353 40.3425C21.934 41.4646 22.4108 42.2179 23.6563 42.1118C24.2416 42.061 24.5567 41.8118 24.8206 41.4917C25.18 41.056 25.1317 40.629 25.08 40.0015L24.5035 33.3329C24.4604 32.7771 24.3378 32.2893 24.044 32.0004C23.7575 31.7176 23.2722 31.5422 22.7046 31.5844ZM32.2143 25.9687C31.0524 26.2588 30.5413 27.6482 31.2241 28.5483C31.4561 28.8532 32.05 29.1913 32.4107 29.4606L37.3407 32.909C37.7173 33.1758 38.2486 33.5427 38.9301 33.3722C39.8609 33.1402 40.6761 31.8537 39.8744 30.7844C39.6572 30.4954 36.878 28.5679 36.2271 28.1507L33.7603 26.4232C33.3353 26.133 32.9426 25.7875 32.2143 25.9687ZM41.1994 13.0818C40.7572 13.1363 40.1117 13.3597 39.6732 13.4757L35.1505 14.6786C34.0738 14.9712 33.0762 15.0724 32.9008 16.202C32.7242 17.3331 33.5775 18.343 34.7058 18.1627L40.7277 16.5712C41.6589 16.3208 42.7786 16.213 42.9552 15.0302C43.1208 13.924 42.2896 12.9474 41.1994 13.0818ZM10.0079 2.09169C9.08405 2.30645 8.24803 3.37451 8.86076 4.46839L12.0957 9.10377C12.5588 9.74559 13.1178 11.0112 14.3822 10.7223C15.3134 10.51 16.1564 9.45175 15.5503 8.35664L11.4932 2.55113C11.1931 2.21014 10.5993 1.95316 10.0079 2.09169ZM1.61668 16.6208C0.790421 16.811 0.148597 17.6282 0.448607 18.7086C0.57566 19.1668 0.847358 19.4705 1.18425 19.6557C1.58304 19.8766 2.17325 19.8705 2.67204 19.9148C3.70691 20.0062 4.70811 20.1172 5.73806 20.2123C6.39751 20.2717 8.34065 20.5152 8.86444 20.4189C9.70873 20.2631 10.3497 19.3434 10.0472 18.3061C9.75952 17.3208 8.96438 17.2098 7.80123 17.1172C6.72948 17.0319 2.30809 16.4626 1.61668 16.6208ZM29.6745 0.580152C28.6015 0.770322 28.4519 1.67692 27.9732 2.64253C27.5727 3.44624 27.1408 4.3893 26.7789 5.22786C26.5346 5.79591 25.6985 7.31439 25.6567 7.84433C25.5727 8.88739 26.5986 9.78414 27.688 9.55545C28.6695 9.34929 28.9113 8.37876 29.3249 7.4689C29.7474 6.54264 31.6033 2.76466 31.6315 2.27202C31.6996 1.10518 30.5672 0.42359 29.6745 0.580152ZM20.0943 1.53347C19.4398 1.64823 18.9311 2.14333 18.8299 2.7954C18.7372 3.39665 18.8078 4.62538 18.8078 5.29097C18.8078 6.01559 18.6877 7.00208 19.0373 7.57997C19.3434 8.08613 19.9734 8.45663 20.8464 8.28367C22.4796 7.95907 22.0685 5.95737 22.0685 4.52413C22.0685 3.43393 22.3029 2.16095 21.1832 1.647C20.8844 1.51011 20.4447 1.47322 20.0943 1.53347ZM8.94721 22.8907C8.37055 23.0202 7.48159 23.4104 6.90125 23.6215C6.46148 23.7821 5.23192 24.1649 4.9106 24.3883C3.51424 25.3564 4.46386 27.7372 6.18113 27.3417C6.59508 27.2466 9.89639 26.0318 10.1952 25.8441C11.5325 25.0047 10.7079 22.4932 8.94721 22.8907ZM34.4701 20.6545C32.8972 20.9177 32.6664 23.1723 34.0701 23.7637C34.5259 23.9563 38.151 24.5858 38.6137 24.5129C40.0957 24.2809 40.4277 22.0251 38.9867 21.4017C38.6203 21.2423 34.8419 20.5927 34.4701 20.6545ZM6.77501 9.92839C6.07991 10.0903 5.49836 10.7051 5.45901 11.5235C5.41311 12.4781 6.0627 12.8387 6.68239 13.1883C7.28159 13.5252 7.9025 13.8822 8.50006 14.2314C9.03737 14.5462 9.80257 15.149 10.5932 14.9527C11.2375 14.7921 11.8251 14.1327 11.8559 13.3597C11.8956 12.3596 11.2596 12.0854 10.6608 11.7137C10.0829 11.3559 9.46197 11.0075 8.84843 10.6657C8.27669 10.3481 7.57913 9.74191 6.77501 9.92839ZM28.1027 29.8348C27.3703 29.9704 26.7469 30.5397 26.6777 31.2979C26.6199 31.9475 27.1408 32.698 27.5223 33.3279C27.8867 33.9267 28.2138 34.512 28.5732 35.1366C28.9433 35.7825 29.4126 36.3518 30.3462 36.1862C31.0708 36.0591 31.6971 35.4727 31.7733 34.7255C31.8438 34.0341 31.213 33.1869 30.9229 32.6857C30.5794 32.0931 30.2003 31.4697 29.8708 30.8746C29.5462 30.2844 29.0855 29.6532 28.1027 29.8348ZM34.3382 7.507C33.718 7.607 33.2192 8.22221 32.5934 8.69108L31.0106 10.0235C30.534 10.4174 29.9224 11.0297 30.329 12.0239C30.6106 12.7141 31.3315 13.2031 32.1266 13.0769C32.7365 12.9793 33.3492 12.2965 33.8578 11.8977L35.221 10.7559C35.7173 10.3272 36.6308 9.67798 36.1357 8.56893C35.8751 7.98243 35.2517 7.35905 34.3382 7.507ZM16.8109 30.8373C15.9355 31.0139 15.7651 31.4856 15.4737 32.2955C15.222 32.9931 14.9859 33.6697 14.7244 34.3575C14.3834 35.2489 13.8244 36.5493 15.1478 37.2186C15.4802 37.3862 15.9294 37.4973 16.338 37.4076C17.152 37.2297 17.3446 36.6739 17.6196 35.928C17.8717 35.2489 18.1237 34.5587 18.3741 33.8697C18.6299 33.1685 19.0348 32.4316 18.6385 31.6844C18.2901 31.0262 17.4778 30.7028 16.8109 30.8373Z" fill="white"/>
</svg>
