<svg width="43" height="42" viewBox="0 0 43 42" fill="none" xmlns="http://www.w3.org/2000/svg">
<path fill-rule="evenodd" clip-rule="evenodd" d="M20.8023 9.85009C19.8478 9.89435 18.6662 10.1808 17.7957 10.5427L16.1399 11.3935C15.9981 11.4825 15.9067 11.5391 15.7735 11.6403C15.0882 12.1579 14.6817 12.5059 14.1128 13.0924C14.0026 13.2047 13.9423 13.3186 13.8411 13.4346C13.1816 14.1801 12.5927 15.2273 12.2271 16.1646C11.189 18.8217 11.3504 21.8492 12.6595 24.3682C13.2324 25.4682 14.1055 26.5608 14.8264 27.1584C15.8498 28.0068 16.4387 28.5056 17.8871 29.054C20.811 30.1614 23.3717 29.8909 26.1042 28.6093C27.3612 28.0191 28.7255 26.751 29.4567 25.783C29.6071 25.583 29.7997 25.3137 29.9555 25.0546C31.0481 23.2419 31.5818 21.2627 31.4322 19.0303C31.3408 17.6524 30.9076 16.2548 30.3346 15.1756C29.2145 13.0678 27.3488 11.344 25.0992 10.4948C23.6967 9.96606 22.4065 9.77345 20.8023 9.85009ZM11.8025 27.5822C11.1651 27.7449 10.0208 29.0798 9.53188 29.565L6.35227 32.7209C6.09283 32.9754 5.53136 33.4398 5.3916 33.9086C4.9211 35.4919 6.94744 36.6956 8.04009 35.6361C8.13641 35.5435 8.24009 35.4546 8.3069 35.3918C8.43272 35.2705 8.43881 35.1992 8.56873 35.0919C9.28474 34.4964 9.29585 34.3791 9.77251 33.8939L12.846 30.8847C13.1275 30.6036 13.6275 30.1786 13.7927 29.6896C14.1976 28.4957 12.9902 27.2756 11.8025 27.5822ZM22.6016 31.4221C22.036 31.4627 21.611 31.7344 21.4097 32.0418C21.0655 32.5692 21.0987 32.816 21.1557 33.4988L21.7323 40.1801C21.8311 41.3023 22.3077 42.0556 23.5533 41.9494C24.1385 41.8986 24.4537 41.6494 24.7177 41.3293C25.0771 40.8937 25.0287 40.4666 24.9771 39.8391L24.4004 33.1705C24.3574 32.6147 24.2348 32.127 23.941 31.838C23.6545 31.5553 23.1692 31.3799 22.6016 31.4221ZM32.1113 25.8063C30.9494 26.0965 30.4383 27.4859 31.1212 28.3859C31.3531 28.6908 31.947 29.029 32.3076 29.2982L37.2377 32.7467C37.6143 33.0135 38.1455 33.3803 38.8271 33.2098C39.7579 32.9779 40.573 31.6913 39.7714 30.622C39.5541 30.3331 36.775 28.4056 36.1241 27.9883L33.6573 26.2608C33.2322 25.9706 32.8396 25.6252 32.1113 25.8063ZM41.0964 12.9194C40.6542 12.9739 40.0087 13.1973 39.5701 13.3133L35.0475 14.5162C33.9708 14.8088 32.9732 14.9101 32.7978 16.0396C32.6211 17.1708 33.4745 18.1807 34.6028 18.0003L40.6247 16.4089C41.5559 16.1585 42.6756 16.0507 42.8522 14.8679C43.0178 13.7617 42.1866 12.785 41.0964 12.9194ZM9.90491 1.92932C8.98111 2.14408 8.14501 3.21215 8.75773 4.30604L11.9927 8.94142C12.4558 9.58324 13.0148 10.8489 14.2792 10.5599C15.2103 10.3476 16.0534 9.2894 15.4472 8.19428L11.3901 2.38876C11.0901 2.04776 10.4963 1.79079 9.90491 1.92932ZM1.51365 16.4585C0.687393 16.6486 0.04557 17.4659 0.345579 18.5463C0.472633 19.0045 0.74433 19.3082 1.08123 19.4934C1.48001 19.7143 2.07022 19.7082 2.56901 19.7524C3.60388 19.8438 4.60508 19.9549 5.63503 20.05C6.29448 20.1094 8.23762 20.3528 8.76141 20.2565C9.6057 20.1008 10.2467 19.1811 9.94421 18.1438C9.6565 17.1585 8.86144 17.0474 7.69829 16.9548C6.62653 16.8696 2.20506 16.3003 1.51365 16.4585ZM29.5715 0.417799C28.4985 0.607969 28.3489 1.51457 27.8702 2.48017C27.4698 3.28389 27.0378 4.22695 26.6759 5.0655C26.4316 5.63355 25.5955 7.15204 25.5537 7.68197C25.4697 8.72504 26.4955 9.62179 27.5849 9.39309C28.5665 9.18694 28.8083 8.21641 29.2218 7.30654C29.6444 6.38029 31.5002 2.60231 31.5285 2.10967C31.5966 0.942827 30.4641 0.261237 29.5715 0.417799ZM19.9913 1.3711C19.3367 1.48586 18.8281 1.98096 18.7269 2.63302C18.6343 3.23427 18.7047 4.46303 18.7047 5.12862C18.7047 5.85323 18.5846 6.83972 18.9342 7.41761C19.2404 7.92378 19.8704 8.29428 20.7433 8.12132C22.3766 7.79672 21.9655 5.79504 21.9655 4.36179C21.9655 3.2716 22.2 1.9986 21.0803 1.48465C20.7815 1.34776 20.3417 1.31085 19.9913 1.3711ZM8.84418 22.7284C8.26752 22.8579 7.37857 23.248 6.79822 23.4591C6.35845 23.6198 5.12889 24.0026 4.80757 24.2259C3.41121 25.194 4.36083 27.5748 6.0781 27.1793C6.49205 27.0842 9.79336 25.8694 10.0921 25.6817C11.4295 24.8423 10.6049 22.3308 8.84418 22.7284ZM34.3671 20.4922C32.7941 20.7553 32.5634 23.0099 33.9671 23.6013C34.4229 23.794 38.048 24.4235 38.5107 24.3505C39.9927 24.1186 40.3247 21.8627 38.8836 21.2394C38.5172 21.0799 34.7389 20.4303 34.3671 20.4922ZM6.67198 9.76604C5.97688 9.92793 5.39533 10.5427 5.35598 11.3612C5.31008 12.3157 5.95967 12.6764 6.57937 13.026C7.17857 13.3629 7.79947 13.7199 8.39703 14.0691C8.93434 14.3838 9.69954 14.9867 10.4901 14.7904C11.1344 14.6297 11.7222 13.9703 11.7529 13.1973C11.7927 12.1973 11.1566 11.9231 10.5578 11.5514C9.9799 11.1936 9.35895 10.8452 8.7454 10.5034C8.17366 10.1857 7.47611 9.57956 6.67198 9.76604ZM27.9997 29.6724C27.2673 29.8081 26.6439 30.3774 26.5746 31.1356C26.5168 31.7852 27.0378 32.5356 27.4194 33.1656C27.7837 33.7644 28.1107 34.3496 28.4702 34.9742C28.8403 35.6202 29.3095 36.1894 30.2432 36.0238C30.9678 35.8968 31.5941 35.3103 31.6703 34.5631C31.7408 33.8717 31.11 33.0246 30.8198 32.5233C30.4764 31.9307 30.0973 31.3073 29.7678 30.7122C29.4432 30.122 28.9826 29.4908 27.9997 29.6724ZM34.2351 7.34465C33.615 7.44465 33.1162 8.05986 32.4904 8.52873L30.9076 9.86114C30.4309 10.255 29.8194 10.8673 30.226 11.8616C30.5075 12.5518 31.2285 13.0407 32.0236 12.9145C32.6335 12.817 33.2462 12.1342 33.7548 11.7354L35.118 10.5935C35.6143 10.1648 36.5279 9.51562 36.0328 8.40657C35.7721 7.82008 35.1487 7.19669 34.2351 7.34465ZM16.7079 30.6749C15.8325 30.8515 15.662 31.3233 15.3706 32.1331C15.119 32.8307 14.8829 33.5074 14.6215 34.1951C14.2805 35.0865 13.7214 36.387 15.0448 37.0563C15.3772 37.2239 15.8264 37.335 16.235 37.2452C17.049 37.0673 17.2416 36.5116 17.5166 35.7656C17.7686 35.0865 18.0207 34.3963 18.2711 33.7074C18.5269 33.0061 18.9318 32.2692 18.5355 31.5221C18.1871 30.8638 17.3747 30.5405 16.7079 30.6749Z" fill="#7C787D"/>
</svg>
