<svg width="24" height="24" viewBox="0 0 24 24" fill="none" xmlns="http://www.w3.org/2000/svg">
<path fill-rule="evenodd" clip-rule="evenodd" d="M10.4082 5.64496L11.5222 5.72226L14.0393 11.3498L12.9256 11.2724L10.4082 5.64496Z" fill="#7C787D"/>
<path fill-rule="evenodd" clip-rule="evenodd" d="M16.2534 1.40948L17.367 1.48678L18.097 3.58892L16.9834 3.51164L16.2534 1.40948Z" fill="#7C787D"/>
<path fill-rule="evenodd" clip-rule="evenodd" d="M16.9833 3.5116L18.097 3.58887L17.7144 3.8663L17.6115 3.94501L17.517 4.02316L17.4329 4.10159L17.3572 4.18017L17.2913 4.2583L17.2355 4.33673L17.1884 4.41459L17.1514 4.49189L17.1228 4.57603L17.1012 4.67416L17.0869 4.78645V4.9136L17.0862 5.05531L17.1005 5.2113L17.1148 5.38202L17.1361 5.56687L17.2062 6.14359L17.2634 6.67701L17.3077 7.16616L17.3377 7.61216L17.3548 8.01501V8.37403L17.3405 8.69002L17.3161 8.96273L17.2791 9.20731L17.2275 9.44016L17.1633 9.66244L17.0862 9.87288L16.9976 10.073L16.8947 10.2612L16.7789 10.4389L16.6506 10.6049L15.5366 10.5275L15.6653 10.3616L15.7808 10.1839L15.8836 9.99573L15.9722 9.79558L16.0493 9.58501L16.1138 9.36273L16.1651 9.13001L16.2024 8.88544L16.2265 8.61259L16.2408 8.29673V7.93774L16.2237 7.53488L16.1937 7.08887L16.1494 6.59974L16.0936 6.06631L16.0239 5.48959L16.0022 5.30472L15.9879 5.13402L15.9736 4.97801L15.9747 4.83617V4.70917L15.989 4.59687L16.0103 4.49873L16.0389 4.41459L16.0762 4.33732L16.1233 4.2593L16.1791 4.18102L16.2446 4.10287L16.3203 4.02431L16.4047 3.94588L16.4989 3.86758L16.6018 3.78887L16.9833 3.5116Z" fill="#7C787D"/>
<path fill-rule="evenodd" clip-rule="evenodd" d="M16.2646 10.4088L17.3783 10.4862L17.7553 10.5143L18.1379 10.6013L18.5257 10.747L18.9192 10.9503L19.3185 11.2125L19.7238 11.5327L19.7464 11.5519L19.7695 11.571L19.7907 11.5907L19.8124 11.6103L19.8322 11.631L19.8521 11.6517L19.8723 11.6725L19.8908 11.6942L23.5509 14.5576L22.4369 14.4803L18.7772 11.6169L18.7584 11.595L18.7385 11.5745L18.7186 11.5538L18.6984 11.5329L18.6771 11.5133L18.6558 11.4937L18.6328 11.4746L18.6101 11.4555L18.2049 11.1352L17.8055 10.873L17.4121 10.6697L17.0243 10.524L16.6417 10.437L16.2646 10.4088Z" fill="#7C787D"/>
<path fill-rule="evenodd" clip-rule="evenodd" d="M22.4358 14.4803L23.5494 14.5576L21.117 16.3199L20.0034 16.2426L22.4358 14.4803Z" fill="#7C787D"/>
<path fill-rule="evenodd" clip-rule="evenodd" d="M14.9931 12.6685L16.1067 12.7458L15.8765 12.7667L15.638 12.8248L15.3914 12.92L15.1371 13.051L14.8749 13.2193L13.7612 13.142L14.0235 12.9737L14.2778 12.8426L14.5243 12.7475L14.7626 12.6893L14.9931 12.6685Z" fill="#7C787D"/>
<path fill-rule="evenodd" clip-rule="evenodd" d="M13.7612 13.142L14.8749 13.2193L17.4498 18.9769L16.3359 18.8996L13.7612 13.142Z" fill="#7C787D"/>
<path fill-rule="evenodd" clip-rule="evenodd" d="M16.3362 18.8995L17.4502 18.9768L15.1141 20.6697L14.0005 20.5924L16.3362 18.8995Z" fill="#7C787D"/>
<path fill-rule="evenodd" clip-rule="evenodd" d="M6.15527 5.14948L7.2689 5.2269L13.2231 18.47L12.1095 18.3926L6.15527 5.14948Z" fill="#7C787D"/>
<path fill-rule="evenodd" clip-rule="evenodd" d="M12.1097 18.3926L13.2234 18.47L8.56097 21.8624L8.2537 22.0787L7.95654 22.2734L7.66881 22.4474L7.39083 22.6001L7.12367 22.7317L6.86523 22.8426L6.61691 22.9323L6.37835 23.0007L6.14397 23.0497L5.90995 23.0806L5.67732 23.092L5.44468 23.0834L4.33105 23.0061L4.56369 23.0147L4.79632 23.0033L5.03034 22.9724L5.26437 22.9234L5.50328 22.855L5.7516 22.7653L6.0097 22.6544L6.2772 22.5227L6.55518 22.37L6.84291 22.1961L7.13972 22.0014L7.44734 21.785L12.1097 18.3926Z" fill="#7C787D"/>
<path fill-rule="evenodd" clip-rule="evenodd" d="M7.06362 14.1348L8.17725 14.2122L7.44971 14.7418L7.00467 15.0712L6.60324 15.38L6.24609 15.6675L5.93324 15.9338L5.66469 16.1797L5.44008 16.404L5.25942 16.6079L5.12374 16.7902L5.01667 16.9641L4.92529 17.1402L4.84821 17.3193L4.78544 17.5007L4.73661 17.6852L4.70382 17.8725L4.68534 18.0622V18.2555L4.69964 18.4465L4.7237 18.6319L4.76102 18.8136L4.81229 18.9896L4.87681 19.1605L4.95529 19.327L5.04667 19.4886L5.15095 19.6445L5.22663 19.743L5.30511 19.8335L5.38672 19.9139L5.46938 19.9863L5.55518 20.0499L5.64376 20.1042L5.73375 20.1496L5.82652 20.1865L5.92243 20.2152L6.018 20.2362L6.1153 20.249L5.00133 20.1718L4.90437 20.1589L4.80845 20.1377L4.71429 20.1092L4.62151 20.0723L4.53153 20.0269L4.44294 19.9726L4.35714 19.9089L4.27414 19.8366L4.19287 19.7562L4.1144 19.6656L4.03871 19.567L3.93443 19.4113L3.8427 19.2498L3.76423 19.0832L3.70006 18.9122L3.64844 18.7363L3.61147 18.5546L3.58705 18.3692L3.57275 18.178V17.9849L3.59124 17.7952L3.62437 17.6078L3.67285 17.4233L3.73563 17.242L3.81271 17.0628L3.90444 16.8866L4.01151 16.7128L4.14718 16.5306L4.3275 16.3268L4.55246 16.1025L4.82101 15.8565L5.13351 15.5902L5.49065 15.3028L5.89209 14.9937L6.33712 14.6643L7.06362 14.1348Z" fill="#7C787D"/>
<path fill-rule="evenodd" clip-rule="evenodd" d="M8.07264 6.64203L10.4084 4.94987L12.9258 10.5773C13.3761 10.2513 13.6564 9.90501 13.7712 9.53987C13.8812 9.17387 13.8771 8.35587 13.75 7.07959C13.6185 5.7303 13.5749 4.76888 13.6143 4.19188C13.6571 3.6136 13.8071 3.10489 14.0705 2.66803C14.3329 2.22974 14.8502 1.73144 15.6194 1.17459L16.2541 0.714294L16.9845 2.81645L16.6015 3.09373C16.3121 3.3033 16.1248 3.51259 16.0376 3.71945C15.9533 3.92345 15.9418 4.28174 16.0076 4.79445C16.2127 6.39074 16.2758 7.52072 16.1924 8.19029C16.1081 8.85629 15.8879 9.40417 15.528 9.83231C16.4973 9.51789 17.5231 9.82802 18.6108 10.7603C18.6722 10.8102 18.7278 10.8639 18.7765 10.9217L22.4365 13.7852L20.0041 15.5475L16.4519 12.6919C16.4105 12.6567 16.1364 12.471 15.6368 12.1306C15.0977 11.8432 14.4719 11.9496 13.7622 12.4469L16.3368 18.2044L14.0011 19.8973L8.07264 6.64203ZM3.7939 6.17245L6.15544 4.45431L12.1097 17.6975L7.44729 21.0899C6.61515 21.6947 5.88761 22.0727 5.26433 22.2283C4.63819 22.3847 4.02011 22.34 3.41025 22.0922C2.8004 21.8444 2.26525 21.4073 1.80939 20.7816C1.38739 20.2009 1.08928 19.5544 0.915138 18.843C0.738709 18.1286 0.695113 17.4892 0.782255 16.923C0.869398 16.3562 1.03819 15.8525 1.29077 15.4067C1.54319 14.9656 1.95472 14.4695 2.52786 13.9135C2.86 13.5943 3.53612 13.0612 4.55283 12.322L6.06441 11.2222L3.7939 6.17245ZM7.06399 13.4396L6.33611 13.9692C5.09011 14.8759 4.31471 15.5593 4.01014 16.0176C3.706 16.4773 3.55816 16.9643 3.56616 17.4829C3.58044 17.9982 3.73147 18.4625 4.02933 18.8719C4.22933 19.1475 4.45466 19.3276 4.70594 19.414C4.95766 19.5012 5.2226 19.5052 5.50289 19.424C5.7826 19.3424 6.30738 19.023 7.07481 18.4646L8.7681 17.2326L7.06399 13.4396Z" fill="white"/>
</svg>
