<svg width="52" height="84" viewBox="0 0 52 84" fill="none" xmlns="http://www.w3.org/2000/svg">
<path d="M51.2648 57.1749H7.38477L13.3894 65.9509H22.6273V83.9648L31.4033 80.7315V66.0174H42.4888V81.6553L51.2648 80.7315V57.1749Z" fill="#1A1A1A"/>
<path d="M42.4894 57.1749H34.1753H33.9443V33.1564V22.3018C33.9443 15.281 32.2507 13.8337 31.4039 13.9877V57.1749H22.166V25.5351C22.166 18.8838 22.1875 18.8376 22.397 9.83064C22.4739 6.52039 25.1221 -0.00772846 35.0991 0.361788C45.076 0.731304 50.0337 8.21401 51.2654 11.9092V57.1749H42.4894Z" fill="#1A1A1A"/>
<path d="M7.38546 57.1749H0.457031L6.46167 65.9509H13.3901L7.38546 57.1749Z" fill="white"/>
<path d="M22.628 65.9509H15.2377V83.041L22.628 83.9648V65.9509Z" fill="white"/>
<path d="M42.4895 65.9509H34.1754V80.7316L42.4895 81.6553V65.9509Z" fill="white"/>
<path d="M15.2377 11.9092V57.1749H22.1661V11.9092C22.3971 4.05695 27.093 1.82446 28.8636 1.28558C19.1638 3.59506 16.8543 4.2879 15.2377 11.9092Z" fill="white"/>
<path d="M42.4895 57.1749H34.1754C34.0984 48.091 33.9444 28.8145 33.9444 22.5328C33.9444 16.251 32.4048 14.2186 31.635 13.9877C32.0045 10.8468 33.4825 10.2925 35.3301 10.2925C40.5033 10.6621 42.2585 14.2186 42.4895 17.6829V57.1749Z" fill="white"/>
</svg>
