<svg width="52" height="84" viewBox="0 0 52 84" fill="none" xmlns="http://www.w3.org/2000/svg">
<path d="M51.2648 57.1598H7.38477L13.3894 65.9358H22.6273V83.9498L31.4033 80.7165V66.0024H42.4888V81.6403L51.2648 80.7165V57.1598Z" fill="#1A1A1A"/>
<path d="M42.4894 57.1599H34.1753H33.9443V33.1413V22.2868C33.9443 15.266 32.2507 13.8187 31.4039 13.9727V57.1599H22.166V25.52C22.166 18.8688 22.1875 18.8226 22.397 9.8156C22.4739 6.50535 25.1221 -0.022766 35.0991 0.34675C45.076 0.716266 50.0337 8.19897 51.2654 11.8941V57.1599H42.4894Z" fill="#1A1A1A"/>
<path d="M7.38546 57.1599H0.457031L6.46167 65.9359H13.3901L7.38546 57.1599Z" fill="#7C787D"/>
<path d="M22.628 65.9359H15.2377V83.026L22.628 83.9498V65.9359Z" fill="#7C787D"/>
<path d="M42.4895 65.9359H34.1754V80.7165L42.4895 81.6403V65.9359Z" fill="#7C787D"/>
<path d="M15.2377 11.8941V57.1599H22.1661V11.8941C22.3971 4.0419 27.093 1.8094 28.8636 1.27053C19.1638 3.58 16.8543 4.27284 15.2377 11.8941Z" fill="#7C787D"/>
<path d="M42.4895 57.1599H34.1754C34.0984 48.0759 33.9444 28.7995 33.9444 22.5177C33.9444 16.2359 32.4048 14.2036 31.635 13.9726C32.0045 10.8318 33.4825 10.2775 35.3301 10.2775C40.5033 10.647 42.2585 14.2036 42.4895 17.6678V57.1599Z" fill="#7C787D"/>
</svg>
