<svg width="33" height="23" viewBox="0 0 33 23" fill="none" xmlns="http://www.w3.org/2000/svg">
<path fill-rule="evenodd" clip-rule="evenodd" d="M1.08904 4.51776C1.03333 4.90933 0.933161 5.32148 0.872018 5.7319C0.743304 6.59633 0.678564 7.42162 0.631278 8.29648C0.618421 8.53062 0.618432 9.51633 0.571289 9.63819V14.0788C0.631718 14.2352 0.540993 14.5825 0.61785 14.7209C0.647564 14.6132 0.620774 14.515 0.61506 14.4019C0.66106 14.4902 0.62963 14.6742 0.635202 14.7866C0.642344 14.9242 0.662006 14.8426 0.684291 14.928L0.706264 15.266C0.723121 15.3883 0.683628 15.3366 0.751343 15.363C0.751771 15.2849 0.759849 15.1772 0.752563 15.1033C0.743992 15.0158 0.719486 14.9663 0.769915 14.8948C0.785486 14.5798 0.759851 14.192 0.750994 13.8692C0.742423 13.5298 0.741034 13.1948 0.738177 12.8542C0.736748 12.5502 0.69949 10.9532 0.748204 10.8029L0.739572 10.775C0.760143 10.1675 0.748199 9.55476 0.771484 8.93362L0.787005 8.47505C0.788433 8.44919 0.791264 8.42305 0.79555 8.39748C0.809835 8.32647 0.801283 8.36719 0.811855 8.34633C0.764712 8.2219 0.839882 7.58405 0.853882 7.40105C0.86531 7.24976 0.878455 7.09833 0.891026 6.94733C0.901026 6.8199 0.895313 6.59776 0.953456 6.50476C0.925456 6.35833 0.989447 6.07562 1.01188 5.9149L1.10587 5.38462C1.10687 5.37648 1.11016 5.37462 1.11302 5.37005C1.08945 5.20348 1.21012 4.82162 1.23526 4.62619L1.15862 4.52162L1.10788 4.62348L1.08904 4.51776Z" fill="#670304"/>
<path fill-rule="evenodd" clip-rule="evenodd" d="M32.0925 13.7658C32.1232 14.1794 32.061 14.6841 32.057 15.1085C32.0556 15.3228 32.0338 15.5445 32.0205 15.7588C32.0133 15.8705 31.9687 16.3008 31.9784 16.38L31.8696 17.4602C31.8985 17.4954 31.9018 17.5565 31.938 17.6077C31.9548 17.571 31.9609 17.4682 31.9997 17.3638C32.0379 17.2612 31.9527 17.3174 32.0559 17.2825C32.1382 16.8084 32.1622 16.2085 32.1943 15.7205C32.2109 15.47 32.236 14.1784 32.2745 14.0781V9.46024L32.1773 7.54053C32.117 7.60181 32.133 7.6801 32.136 7.77938C32.1389 7.85953 32.1446 7.93796 32.1489 8.0181C32.1432 8.02024 32.1136 8.03024 32.1131 8.03038C32.0794 8.0461 32.0905 8.04067 32.0683 8.05796C32.0692 8.18196 32.0726 8.31296 32.0755 8.43681C32.0798 8.62324 32.1092 8.68281 32.108 8.72024C32.1052 8.8301 32.1194 8.99396 32.1123 9.05824C32.0836 9.36353 32.1166 10.508 32.1194 10.864C32.1237 11.3555 32.1183 11.8455 32.1166 12.3367C32.1161 12.5835 32.1109 12.8287 32.1066 13.073C32.1023 13.2811 32.1123 13.5702 32.0914 13.7658H32.0925Z" fill="#670304"/>
<path fill-rule="evenodd" clip-rule="evenodd" d="M0.954354 6.5047C0.896783 6.5977 0.902495 6.81985 0.891924 6.94727C0.879067 7.09827 0.866351 7.2497 0.854779 7.40099C0.840494 7.58399 0.76561 8.22185 0.812752 8.34627C0.835895 8.44813 0.814241 8.45185 0.802812 8.55542L0.8206 8.55299C0.8216 8.5527 0.827803 8.55127 0.829232 8.55085L10.4491 8.52299L10.4562 8.37042C10.5122 8.35585 10.5172 8.3537 10.5898 8.39627C10.5927 8.51356 10.5744 8.62156 10.6267 8.68342C10.6281 8.57899 10.6673 8.09756 10.6223 8.05627C10.6223 8.16327 10.5872 9.07413 10.6567 9.17228C10.6624 8.68928 10.657 8.20285 10.6555 7.71956L10.6598 6.64427C10.6655 6.53299 10.698 6.42456 10.693 6.32456C10.6916 6.3007 10.6651 6.30556 10.7017 6.30656C10.671 6.44256 10.6745 6.55827 10.6169 6.61185C10.5901 6.52899 10.5712 6.46327 10.5705 6.36142C10.5634 6.37256 10.5455 6.37027 10.5381 6.42742C10.5252 6.52642 10.5547 6.70213 10.5104 6.79042C10.4018 6.75199 10.4336 6.76842 10.4335 6.61585L1.22003 6.61656C1.19632 6.7107 1.2036 6.71256 1.15917 6.75556C1.15917 6.65542 1.18709 6.46742 1.11052 6.43627C1.09766 6.47185 1.10049 6.55242 1.10049 6.60485L1.07137 6.77242C1.00894 6.73856 1.02476 6.79656 1.02219 6.6877C1.01933 6.56899 1.03738 6.70927 1.03867 6.58513C1.03981 6.46499 0.986339 6.46627 0.985482 6.4627C0.984196 6.4567 0.976917 6.45727 0.97406 6.45327C1.00177 6.49842 0.990539 6.49713 0.990539 6.56527L0.96691 6.53013C0.964053 6.51742 0.95974 6.51356 0.956883 6.5047H0.954354Z" fill="#E19697"/>
<path fill-rule="evenodd" clip-rule="evenodd" d="M16.4614 7.76114C16.5161 7.80985 16.7571 7.93557 16.8439 7.98457C16.9077 8.02042 16.9808 8.06185 17.0461 8.10157C17.1222 8.14757 17.1873 8.16942 17.241 8.23142C17.2793 8.138 17.4611 8.025 17.5475 7.959C17.6776 7.85985 18.463 7.34042 18.4977 7.29071L18.245 7.402C18.2408 7.40614 18.2308 7.41857 18.2285 7.42185L18.2041 7.44885C18.1941 7.44228 18.1983 7.43414 18.1574 7.42628C18.1531 7.42557 18.146 7.425 18.1424 7.42457C18.1381 7.42414 18.1296 7.42528 18.1263 7.42514L18.0918 7.43028C18.0803 7.49414 18.1349 7.49771 18.0974 7.48542C18.062 7.51985 18.062 7.51885 18.0106 7.54185C17.9072 7.588 17.8612 7.61214 17.7772 7.68785C17.7757 7.68971 17.7714 7.69414 17.77 7.69571C17.7686 7.69714 17.7643 7.701 17.7629 7.70228C17.7197 7.73257 17.747 7.69757 17.6852 7.73671C17.5488 7.82314 17.7099 7.761 17.6377 7.779C17.6263 7.78171 17.4944 7.76243 17.4128 7.764L17.435 7.87714C17.4355 7.87871 17.4379 7.88328 17.4379 7.88485C17.4383 7.88628 17.4393 7.891 17.4408 7.89228C17.4436 7.91985 17.4174 7.93128 17.4093 7.99828C17.2377 7.99885 17.3367 8.03071 17.3006 8.04185L17.2291 8.05928C17.1822 8.09728 17.2774 8.068 17.1721 8.03228C17.1326 8.01885 17.07 8.01842 17.0286 8.02342C17.1016 8.04128 17.07 8.05957 17.0663 7.96042C17.062 7.84214 16.8809 7.82271 16.8006 7.86557L16.7227 7.847C16.723 7.84557 16.7256 7.83971 16.7256 7.83828L16.7474 7.79928C16.631 7.70828 16.7034 7.862 16.648 7.701C16.6394 7.70214 16.6316 7.70471 16.624 7.70671L16.4909 7.74285C16.4216 7.77 16.5252 7.67757 16.462 7.76114H16.4614Z" fill="#E19697"/>
<path fill-rule="evenodd" clip-rule="evenodd" d="M22.0912 12.2352C22.0315 12.2907 22.0284 12.3329 21.9792 12.4105C21.8942 12.5447 21.7004 12.7385 21.5652 12.8322C21.2709 13.0365 19.7983 13.871 19.4531 14.064C19.4043 14.0915 16.7043 15.6346 16.6365 15.7007C16.6662 15.7702 16.6976 15.6596 16.583 15.7829C16.6333 15.8166 16.6315 15.8446 16.6922 15.8452C16.8076 15.846 16.6979 15.8416 16.7909 15.788C16.903 15.8387 30.4145 15.8083 31.7655 15.8083L31.8069 15.7087C31.8069 15.8136 31.7955 15.9313 31.8275 16.0066C31.8318 16.0019 31.8375 15.987 31.8389 15.9902L31.885 15.7089C31.8908 15.7785 31.8764 15.7976 31.924 15.8482C31.9297 15.6306 31.9849 15.7749 31.9907 15.501C31.9912 15.4807 31.9913 15.4406 31.995 15.422L32.015 15.3725C32.0165 15.3683 32.0207 15.3619 32.0236 15.3573C32.0279 15.5347 31.9919 15.678 31.9793 15.8392C31.9664 15.9966 31.9779 16.1803 31.9565 16.3147C31.9783 16.3455 31.9843 16.2652 31.9773 16.38C31.9673 16.3009 32.0125 15.8706 32.0193 15.7589C32.0322 15.5446 32.0537 15.3229 32.0559 15.1086C32.0601 14.6842 32.1221 14.1795 32.0913 13.7659C32.0681 13.4355 32.0919 12.9777 32.097 12.6353C32.1013 12.2637 32.0956 11.8916 32.0985 11.5207C32.1014 11.2065 32.13 9.4556 32.0693 9.30518L32.0722 10.9039C32.0764 11.4317 32.0636 11.9642 32.0593 12.4933L32.0582 12.1743H31.8135C31.8135 12.557 31.8798 12.4903 31.4983 12.4902L22.2852 12.4903C22.1519 12.472 22.1706 12.3737 22.1742 12.3115C22.0842 12.3375 22.1523 12.3549 22.0933 12.3157L22.0912 12.2352Z" fill="#B50303"/>
<path fill-rule="evenodd" clip-rule="evenodd" d="M0.770234 14.8947L0.780262 15.0356C0.781262 15.0399 0.783159 15.0469 0.786016 15.0521C0.825874 15.1206 0.820298 15.5381 0.827869 15.6603C0.887155 15.7237 0.869243 15.7934 0.871814 15.8881C0.874672 15.8837 0.879018 15.87 0.880447 15.8734C0.884732 15.8839 0.887532 15.8304 0.939389 15.8123L10.432 15.8083C10.432 15.7196 10.422 15.7431 10.4542 15.689C10.4973 15.7811 10.4763 16.444 10.4748 16.6363C10.474 16.752 10.4777 16.7449 10.5073 16.7801L10.532 15.7597C10.5326 15.5869 10.5098 14.8261 10.5545 14.7379C10.5342 14.8159 10.5534 15.6997 10.556 15.8593C10.5574 15.9529 10.5564 16.0449 10.5564 16.1383C10.5564 16.1827 10.5536 16.231 10.5636 16.2739C10.5842 16.3664 10.588 16.2761 10.5968 16.3963C10.6111 16.5803 10.5954 16.8117 10.5963 17.0007C10.6479 16.9337 10.6226 16.5837 10.6229 16.4563L10.641 14.7447C10.6482 14.2814 10.6324 12.7969 10.6614 12.4699C10.6196 12.5121 10.6417 12.9274 10.6417 12.9934C10.6417 13.7076 10.6136 16.4803 10.6806 16.934L10.6706 12.2597C10.4961 12.2677 10.2108 12.3434 10.0241 12.3749C9.37512 12.4841 8.62043 12.5397 7.95486 12.5359C6.256 12.5264 4.4518 12.1859 2.87595 11.643C2.49938 11.5133 2.14796 11.3846 1.78525 11.2434L0.748959 10.8029C0.700531 10.9531 0.737591 12.5501 0.739019 12.8541C0.740448 13.1947 0.743265 13.5297 0.751837 13.8691C0.760408 14.192 0.786242 14.5797 0.77067 14.8947H0.770234Z" fill="#B50303"/>
<path fill-rule="evenodd" clip-rule="evenodd" d="M0.827637 15.6603C0.84378 16.1818 1.00508 17.6788 1.11293 18.1878C1.32622 19.1927 1.29089 19.4134 1.76932 20.2964C1.85446 20.4536 1.95707 20.5873 2.05122 20.7091C2.17579 20.8701 2.18549 20.8993 2.32335 21.0144L2.38203 21.0737C2.41974 21.1108 2.43581 21.1193 2.47166 21.1643C2.53695 21.2463 2.65722 21.339 2.74536 21.4061C3.61422 22.068 4.20904 22.144 5.3479 22.273C7.06119 22.4673 8.85308 22.5279 10.5824 22.5848C12.4062 22.645 14.2488 22.6371 16.0751 22.6383C19.4015 22.6406 23.6107 22.652 26.8815 22.3293C27.6927 22.2491 28.54 22.2288 29.2514 21.9101C29.8652 21.6353 30.3988 21.2263 30.8032 20.6977C31.0028 20.4367 31.1769 20.1223 31.3137 19.8181C31.6059 19.1694 31.9711 16.9673 31.9579 16.3147C31.9788 16.1803 31.9679 15.9966 31.9808 15.8391C31.9936 15.678 32.0299 15.5347 32.0251 15.3573C32.0208 15.3618 32.0179 15.3683 32.0165 15.3724L31.9965 15.422C31.9922 15.4406 31.9922 15.4807 31.9922 15.501C31.9865 15.7748 31.9318 15.6306 31.9255 15.8481C31.8776 15.7976 31.8922 15.7784 31.8865 15.7088L31.8404 15.9901C31.839 15.987 31.8332 16.0018 31.8289 16.0066C31.7964 15.9313 31.8084 15.8136 31.8084 15.7087L31.7669 15.8083C30.4159 15.8083 16.9045 15.8387 16.7923 15.788C16.6991 15.8416 16.8091 15.846 16.6936 15.8451C16.6329 15.8446 16.6348 15.8166 16.5845 15.7828C16.699 15.6596 16.6676 15.7701 16.6379 15.7007C16.5448 15.7281 15.2157 16.5134 15.0906 16.5853L12.7808 17.9177C12.5216 18.0647 12.2264 18.2056 11.8565 18.202C11.1442 18.1953 10.7295 17.6277 10.6818 16.934C10.6148 16.4803 10.6429 13.7076 10.6429 12.9934C10.6429 12.9274 10.6208 12.5121 10.6627 12.4698C10.6342 12.7968 10.6483 14.2814 10.6422 14.7447L10.624 16.4563C10.6238 16.5837 10.649 16.9337 10.5974 17.0007C10.5966 16.8117 10.6118 16.5803 10.5981 16.3963C10.5895 16.2761 10.5852 16.3664 10.5647 16.2738C10.5547 16.231 10.5576 16.1827 10.5576 16.1383C10.5576 16.0448 10.5589 15.9528 10.5572 15.8593C10.5543 15.6997 10.5353 14.8158 10.5558 14.7378C10.5111 14.8261 10.5338 15.5868 10.5332 15.7597L10.5085 16.7801C10.4794 16.7448 10.4752 16.752 10.4761 16.6363C10.4775 16.444 10.4985 15.7811 10.4553 15.689C10.4228 15.7431 10.4332 15.7196 10.4332 15.8083L0.940639 15.8123C0.888639 15.8304 0.886324 15.8838 0.881609 15.8734C0.880181 15.87 0.875921 15.8837 0.873064 15.8881C0.870207 15.7934 0.888318 15.7237 0.829032 15.6603H0.827637Z" fill="#9C0202"/>
<path fill-rule="evenodd" clip-rule="evenodd" d="M10.6919 6.32455C10.6962 6.42455 10.6649 6.53298 10.6587 6.64427L10.6543 7.71955C10.6557 8.20284 10.6615 8.68927 10.6555 9.17227L10.6669 12.2293L10.6697 12.2597L10.6798 16.934C10.7275 17.6277 11.1422 18.1953 11.8545 18.202C12.2244 18.2056 12.5196 18.0647 12.7788 17.9177L15.0886 16.5853C15.2137 16.5134 16.5428 15.7281 16.6359 15.7007C16.7038 15.6346 19.4037 14.0914 19.4526 14.064C19.7977 13.871 21.2703 13.0364 21.5646 12.8321C21.6997 12.7384 21.8936 12.5447 21.9786 12.4104C22.0277 12.3328 22.0309 12.2907 22.0906 12.2351C22.0935 12.0978 22.1783 11.9643 22.1699 11.7388C22.1526 11.2793 21.8645 10.9306 21.5173 10.6944C21.1762 10.4626 17.2865 8.2407 17.2403 8.23141C17.1866 8.16941 17.1215 8.14755 17.0454 8.10155C16.9801 8.06184 16.907 8.02041 16.8432 7.98456C16.7565 7.93556 16.5155 7.80984 16.4607 7.76113C16.3406 7.71555 16.1903 7.61527 16.0823 7.55298C15.9548 7.47941 15.8444 7.41313 15.7183 7.33827C15.0182 6.92198 14.2443 6.4997 13.5492 6.08384C13.1289 5.83241 12.4814 5.3997 11.9908 5.35684C11.3556 5.30127 10.9249 5.66084 10.737 6.22455L10.6919 6.32455Z" fill="#F5F4F5"/>
<path fill-rule="evenodd" clip-rule="evenodd" d="M18.4979 7.29069C18.4632 7.3404 17.6778 7.85983 17.5477 7.95897C17.4613 8.02497 17.2795 8.13797 17.2412 8.2314C17.2874 8.24069 21.1771 10.4625 21.5182 10.6944C21.8653 10.9305 22.1535 11.2793 22.1708 11.7388C22.1793 11.9643 22.0951 12.0978 22.0915 12.2351L22.0929 12.3157C22.1519 12.3548 22.0844 12.3374 22.1738 12.3114C22.171 12.3737 22.1515 12.472 22.2848 12.4903L31.498 12.4901C31.8794 12.4903 31.8131 12.557 31.8131 12.1743H32.0578L32.059 12.4933C32.0647 11.9641 32.0762 11.4317 32.0718 10.9038L32.0689 9.30512C32.1132 9.06954 31.9719 6.60454 31.8883 6.48797C31.2871 6.29497 30.9553 6.16369 30.306 5.98726C26.7975 5.0344 23.1669 5.08783 19.8368 6.58726C19.4866 6.74497 19.148 6.92826 18.8145 7.11712C18.7161 7.17297 18.5979 7.27354 18.4968 7.29069H18.4979Z" fill="#D40202"/>
<path fill-rule="evenodd" clip-rule="evenodd" d="M1.73383 3.30187C1.74383 3.31587 1.78188 3.37402 1.78702 3.38444L1.81074 3.45544C1.81202 3.45987 1.81358 3.46616 1.81501 3.47016C1.81615 3.47402 1.81928 3.4813 1.81928 3.48444C1.82028 3.48759 1.82209 3.4943 1.82495 3.49859L31.1395 3.4983L31.1727 3.3973C31.1585 3.27373 30.82 2.81459 30.7506 2.73516C30.2041 2.11016 29.6455 1.6883 28.8158 1.44616C28.1013 1.23773 25.7601 1.08602 24.9201 1.04459C22.093 0.905158 19.3251 0.88173 16.4921 0.88173C15.0659 0.88173 13.6391 0.878729 12.2134 0.900729C10.8168 0.922444 9.45289 0.977015 8.05961 1.03659C7.39489 1.06502 6.71826 1.12516 6.05626 1.17916C5.44969 1.22873 4.7043 1.27802 4.14001 1.41787C3.43044 1.59373 2.74403 2.02744 2.28132 2.52344C2.16032 2.65316 1.75211 3.15716 1.7334 3.30187H1.73383Z" fill="#F9CFD0"/>
<path fill-rule="evenodd" clip-rule="evenodd" d="M1.2371 4.6261C1.21195 4.82153 1.09128 5.20339 1.11485 5.36996C1.15628 5.48639 1.14542 5.31839 1.15513 5.25182C1.20185 5.22596 1.12295 5.22053 1.17266 5.25725C1.17337 5.25768 1.18785 5.27582 1.20885 5.29139C1.20756 5.17339 1.18051 5.19853 1.24808 5.17296C1.39465 5.1461 9.25429 5.20453 11.1019 5.16168C11.1429 5.16068 11.1751 5.17339 11.2374 5.17339V5.25182H11.3192C11.3428 5.19268 11.2783 5.22282 11.3966 5.21239C11.725 5.18368 11.4411 5.15039 11.7151 5.15239C11.8419 5.15339 11.9532 5.13468 12.0485 5.1781L12.0879 5.19868C12.1284 5.21353 12.0936 5.21139 12.1551 5.21268C12.1875 5.12982 12.3971 5.1491 12.4665 5.15882C12.7579 5.19925 22.1513 5.17653 23.319 5.17268C23.3786 5.17239 23.4604 5.1821 23.5039 5.18239C23.5755 5.18282 23.5512 5.15939 23.6561 5.15282C23.7627 5.1461 23.9491 5.14668 24.0568 5.1511C24.2765 5.16025 24.0012 5.22796 24.3932 5.21168C24.6048 5.20296 24.2418 5.14739 24.6707 5.1571C24.675 5.1571 24.6807 5.15653 24.685 5.15668C24.6893 5.15682 24.695 5.15639 24.6993 5.15668C24.741 5.1611 24.7121 5.15439 24.7384 5.16568C24.8059 5.19453 24.7284 5.2181 24.9304 5.21139C25.0214 5.20839 25.3165 5.22553 25.3787 5.20153C25.4735 5.16496 25.3789 5.1501 25.5669 5.15153C25.7264 5.15296 25.8858 5.15268 26.0454 5.15268C26.0596 5.27382 26.1884 5.14496 26.423 5.1531C26.5136 5.15625 26.4969 5.17425 26.6021 5.17668C27.0165 5.18582 26.8473 5.10525 27.0231 5.20925C27.0464 5.22296 27.0617 5.23939 27.0865 5.21439C27.0894 5.21125 27.0951 5.19496 27.098 5.19196C27.1065 5.18025 27.0894 5.18096 27.132 5.1651C27.2072 5.13682 27.3143 5.15653 27.3814 5.17082C27.6994 5.2381 27.5191 5.21296 27.6821 5.1771L31.4194 5.17296C31.4621 5.11239 31.5018 5.11868 31.5016 5.01768C31.576 5.08339 31.493 5.0891 31.5751 5.17568C31.6377 5.15182 31.622 5.20539 31.622 5.07453C31.6705 5.14953 31.632 5.10682 31.6741 5.10925C31.6921 5.11025 31.6563 5.18225 31.6911 5.09582C31.7183 4.7871 31.4427 3.93396 31.2769 3.56368C31.2368 3.47382 31.2321 3.44425 31.174 3.39725L31.1408 3.49825L1.82626 3.49853C1.8234 3.49425 1.82193 3.48753 1.82051 3.48439C1.81951 3.48125 1.81623 3.47396 1.81623 3.4701C1.81495 3.4661 1.81339 3.45982 1.81196 3.45539L1.78824 3.38439C1.78253 3.37396 1.74457 3.31582 1.73514 3.30182C1.62943 3.37953 1.48826 3.76696 1.43197 3.92239C1.34797 4.15425 1.31272 4.41796 1.23858 4.6261H1.2371Z" fill="#EFBCBC"/>
<path fill-rule="evenodd" clip-rule="evenodd" d="M1.11477 5.36999C1.11191 5.37456 1.10762 5.37641 1.10762 5.38456L1.01363 5.91484C0.991197 6.07556 0.927206 6.35827 0.955206 6.5047C0.958064 6.51356 0.962289 6.51741 0.965146 6.53013L0.98834 6.56527C0.98834 6.49713 0.999717 6.49841 0.97186 6.45327C0.974717 6.45727 0.981854 6.4567 0.983283 6.4627C0.98414 6.46627 1.03761 6.46499 1.03647 6.58513C1.03518 6.70927 1.01713 6.56899 1.01999 6.6877C1.02285 6.79656 1.00717 6.73856 1.06917 6.77241L1.09829 6.60484C1.09872 6.55241 1.09546 6.47184 1.10832 6.43627C1.18489 6.46741 1.15706 6.65541 1.15706 6.75556C1.20149 6.71256 1.1942 6.7107 1.21792 6.61656L10.4314 6.61584C10.4315 6.76841 10.3996 6.75199 10.5082 6.79041C10.5525 6.70213 10.5229 6.52641 10.5359 6.42741C10.543 6.37027 10.5616 6.37256 10.5683 6.36141C10.569 6.46327 10.5879 6.52899 10.6147 6.61184C10.6723 6.55827 10.6688 6.44256 10.6995 6.30656C10.6633 6.30556 10.6895 6.3007 10.6909 6.32456L10.7367 6.22456C10.9246 5.66084 11.3553 5.30127 11.9905 5.35684C12.481 5.3997 13.1286 5.83241 13.5489 6.08384C14.244 6.4997 15.0179 6.92199 15.718 7.33827C15.8442 7.41313 15.9544 7.47941 16.082 7.55299C16.19 7.61527 16.3403 7.71556 16.4605 7.76113C16.5236 7.67756 16.4201 7.76999 16.4894 7.74284L16.6225 7.7067C16.6296 7.7047 16.6383 7.70213 16.6465 7.70099C16.7019 7.86199 16.6294 7.70827 16.7459 7.79927L16.724 7.83827C16.7234 7.8397 16.7212 7.84556 16.7212 7.84699L16.7991 7.86556C16.8793 7.8227 17.0603 7.84213 17.0647 7.96041C17.069 8.05956 17.1 8.04127 17.027 8.02341C17.0684 8.01841 17.131 8.01884 17.1706 8.03227C17.2759 8.06799 17.1806 8.09727 17.2274 8.05927L17.299 8.04184C17.3352 8.0307 17.2362 7.99884 17.4078 7.99827C17.4163 7.93127 17.4423 7.91984 17.4391 7.89227C17.439 7.89099 17.4377 7.88627 17.4363 7.88484C17.4358 7.88327 17.4335 7.8787 17.4335 7.87713L17.4113 7.76399C17.4929 7.76242 17.6254 7.7817 17.6363 7.77899C17.7084 7.76099 17.5473 7.82313 17.6837 7.7367C17.7456 7.69756 17.7183 7.73256 17.7614 7.70227C17.7628 7.70099 17.7671 7.69713 17.7686 7.6957C17.77 7.69413 17.7743 7.6897 17.7757 7.68784C17.8597 7.61213 17.9057 7.58799 18.0091 7.54184C18.0606 7.51884 18.0606 7.51984 18.0961 7.48541C18.1333 7.4977 18.0783 7.49413 18.0903 7.43027L18.1249 7.42513C18.1292 7.42527 18.1363 7.42413 18.1411 7.42456C18.1453 7.42499 18.1525 7.42556 18.156 7.42627C18.1973 7.43413 18.193 7.44227 18.2026 7.44884L18.227 7.42184C18.2299 7.41856 18.2399 7.40613 18.2436 7.40199L18.4963 7.2907C18.5974 7.27356 18.7156 7.17299 18.814 7.11713C19.1474 6.92827 19.4862 6.74499 19.8363 6.58727C23.1665 5.08784 26.797 5.03441 30.3056 5.98727C30.9549 6.1637 31.2866 6.29499 31.8879 6.48799L31.8633 6.11899C31.8379 5.92084 31.7563 5.18727 31.6888 5.09584C31.6539 5.18227 31.6898 5.11027 31.6718 5.10927C31.6302 5.10684 31.6689 5.14956 31.6196 5.07456C31.6196 5.20541 31.6353 5.15184 31.5727 5.1757C31.4903 5.08913 31.5736 5.08341 31.4992 5.0177C31.4995 5.1187 31.4598 5.11241 31.4171 5.17299L27.6797 5.17713C27.5167 5.21299 27.697 5.23813 27.379 5.17084C27.3118 5.15656 27.2049 5.13684 27.1296 5.16513C27.0872 5.18099 27.1046 5.18027 27.0956 5.19199C27.0927 5.19499 27.087 5.21127 27.0842 5.21441C27.0593 5.23941 27.044 5.22299 27.0207 5.20927C26.8449 5.10527 27.0136 5.18584 26.5997 5.1767C26.4946 5.17427 26.5111 5.15627 26.4206 5.15313C26.186 5.14499 26.0567 5.27384 26.043 5.1527C25.8834 5.1527 25.724 5.15299 25.5646 5.15156C25.3766 5.15013 25.4712 5.16499 25.3763 5.20156C25.3142 5.22556 25.019 5.20841 24.928 5.21141C24.7258 5.21813 24.8034 5.19456 24.736 5.1657C24.7098 5.15441 24.7389 5.16113 24.6969 5.1567C24.6926 5.15641 24.6869 5.15684 24.6826 5.1567C24.6783 5.15656 24.6726 5.15713 24.6683 5.15713C24.2395 5.14741 24.6024 5.20299 24.3909 5.2117C23.9989 5.22799 24.2742 5.16027 24.0545 5.15113C23.9468 5.1467 23.7603 5.14613 23.6537 5.15284C23.5489 5.15941 23.5732 5.18284 23.5016 5.18241C23.458 5.18213 23.3761 5.17241 23.3166 5.1727C22.1489 5.17656 12.7556 5.19927 12.4642 5.15884C12.3947 5.14913 12.1851 5.12984 12.1527 5.2127C12.0911 5.21141 12.126 5.21356 12.0856 5.1987L12.0484 5.17813C11.9531 5.1347 11.8419 5.15341 11.715 5.15241C11.441 5.15041 11.7251 5.1837 11.3965 5.21241C11.2782 5.22284 11.3427 5.1927 11.3192 5.25184H11.2373V5.17341C11.175 5.17341 11.1428 5.1607 11.1018 5.1617C9.25421 5.20456 1.39457 5.14613 1.248 5.17299C1.18043 5.19856 1.20748 5.17341 1.20876 5.29141C1.18776 5.27584 1.17329 5.2577 1.17258 5.25727C1.12286 5.22056 1.20177 5.22599 1.15505 5.25184C1.14505 5.31841 1.1562 5.48641 1.11477 5.36999Z" fill="#E8A9AA"/>
<path fill-rule="evenodd" clip-rule="evenodd" d="M0.813006 8.34627C0.803006 8.36713 0.810216 8.32642 0.796788 8.39742C0.791074 8.42299 0.789584 8.44913 0.788156 8.47499L0.772635 8.93356C0.749492 9.5547 0.761151 10.1674 0.740723 10.775L0.79548 10.5654C0.837194 10.5861 0.80688 10.5443 0.888166 10.6061C0.929166 10.6376 0.849173 10.6604 1.0486 10.6197C1.27446 10.5734 0.962765 10.5863 1.42719 10.5847H10.4823C10.4909 10.3364 10.4495 10.2833 10.5382 10.2721C10.541 10.6168 10.5204 10.5357 10.6245 10.5906L10.6273 10.2701C10.5999 10.4248 10.6302 12.1661 10.6673 12.2293L10.6559 9.17228C10.5865 9.07413 10.6216 8.16327 10.6216 8.05627C10.6668 8.09756 10.6273 8.57899 10.6259 8.68342C10.5736 8.62156 10.5916 8.51356 10.589 8.39627C10.5164 8.3537 10.5114 8.35585 10.4554 8.37042L10.4484 8.52299L0.828439 8.55085C0.827153 8.55127 0.821323 8.5527 0.819894 8.55299L0.802019 8.55542C0.813448 8.45185 0.835047 8.44813 0.812047 8.34627H0.813006Z" fill="#D88586"/>
<path fill-rule="evenodd" clip-rule="evenodd" d="M0.740723 10.775L0.749268 10.8029L1.78556 11.2434C2.14827 11.3846 2.49968 11.5133 2.87626 11.643C4.45211 12.1859 6.25631 12.5264 7.95517 12.5359C8.62074 12.5397 9.37543 12.4841 10.0244 12.3749C10.2111 12.3434 10.4965 12.2677 10.6709 12.2597L10.668 12.2293C10.6309 12.1661 10.6006 10.4249 10.628 10.2701L10.6251 10.5906C10.521 10.5357 10.5414 10.6169 10.5389 10.2721C10.4502 10.2833 10.4913 10.3364 10.483 10.5847H1.4278C0.963376 10.5863 1.27516 10.5734 1.0493 10.6197C0.84987 10.6604 0.929864 10.6376 0.888864 10.6061C0.808292 10.5443 0.837805 10.5861 0.79609 10.5654L0.740723 10.775Z" fill="#D17476"/>
<path fill-rule="evenodd" clip-rule="evenodd" d="M0.618135 14.7209C0.550849 15.0281 0.727337 16.7774 0.774908 17.1916C0.858908 17.921 0.979418 18.7637 1.16885 19.4427C1.26613 19.7916 1.38627 20.0763 1.54927 20.3746C1.66127 20.5796 1.79601 20.7733 1.94016 20.9587C2.24944 21.3569 2.75917 21.7874 3.19617 22.0113C3.25532 22.0416 3.61827 22.2087 3.63641 22.2254L4.24563 22.4053L4.60713 22.4627L5.31261 22.5446L5.68684 22.5824L6.18803 22.6251L6.93283 22.6857L8.65088 22.7827C9.59217 22.8004 10.6995 22.8844 11.6168 22.8821C12.4336 22.8803 13.236 22.9023 14.0447 22.9009C16.4896 22.8964 18.9046 22.9237 21.3486 22.8724C22.1537 22.8556 22.939 22.8314 23.737 22.802C24.105 22.7883 24.51 22.7561 24.8902 22.7441C25.295 22.7314 25.657 22.6629 26.0497 22.6717L26.6176 22.6264L27.0939 22.5849L27.299 22.5676L27.9241 22.4989L28.2671 22.4607C28.5806 22.4321 28.817 22.32 29.09 22.2681C29.1241 22.2403 29.3619 22.1536 29.4254 22.1247C29.5461 22.07 29.636 22.0191 29.751 21.953C30.1504 21.7227 30.3055 21.5817 30.5895 21.2991C31.6692 20.2243 31.8661 18.9331 32.0559 17.2826C31.9527 17.3174 32.0379 17.2613 31.9997 17.3639C31.9609 17.4683 31.9548 17.571 31.938 17.6077C31.9018 17.5566 31.8985 17.4954 31.8696 17.4603C31.8336 18.0477 31.609 19.2149 31.4023 19.7596C31.2577 20.14 30.9097 20.7556 30.617 21.0483C30.4056 21.2597 30.3103 21.3563 30.0748 21.5416C30.0118 21.5911 29.947 21.6341 29.8756 21.6807C28.9496 22.2863 28.2431 22.3084 27.1601 22.4084C23.3071 22.7643 19.0028 22.7504 15.1195 22.7386C13.3105 22.733 11.5115 22.7196 9.70662 22.6596C8.2779 22.6121 5.94388 22.4799 4.55203 22.2907C4.16703 22.2384 3.7973 22.1197 3.47972 21.9683C3.09401 21.7846 2.95484 21.6803 2.6377 21.4354C2.40942 21.2593 2.35645 21.1633 2.18988 21.0069C1.94973 20.7813 1.59117 20.1539 1.47289 19.8501C1.00517 18.6491 0.814173 16.3794 0.785458 15.0521C0.782601 15.0469 0.781132 15.0399 0.779704 15.0356L0.769764 14.8947C0.719335 14.9663 0.743698 15.0157 0.752412 15.1033C0.759555 15.1771 0.75162 15.2849 0.751192 15.363C0.683477 15.3366 0.723057 15.3883 0.7062 15.266L0.68414 14.928C0.661854 14.8426 0.641765 14.9241 0.63505 14.7866C0.629336 14.6741 0.660909 14.4901 0.614909 14.4019C0.619194 14.515 0.646985 14.6131 0.617699 14.7209H0.618135Z" fill="#3B0102"/>
<path fill-rule="evenodd" clip-rule="evenodd" d="M1.08887 4.51772L1.10944 4.62344L1.1601 4.52158L1.23683 4.62615C1.31098 4.41801 1.34632 4.15429 1.43032 3.92244C1.4866 3.76701 1.62768 3.37958 1.7334 3.30187C1.75211 3.15715 2.16023 2.65315 2.28123 2.52344C2.74395 2.02744 3.43044 1.59372 4.14001 1.41787C4.7043 1.27801 5.44969 1.22872 6.05626 1.17915C6.71826 1.12515 7.3948 1.06501 8.05952 1.03658C9.4528 0.977009 10.8168 0.922437 12.2134 0.900723C13.6391 0.878723 15.0659 0.881723 16.4921 0.881723C19.3251 0.881723 22.093 0.905152 24.9201 1.04458C25.7601 1.08601 28.1013 1.23772 28.8158 1.44615C29.6455 1.68829 30.2041 2.11015 30.7506 2.73515C30.82 2.81458 31.1591 3.27372 31.1727 3.39729C31.2308 3.44429 31.2356 3.47387 31.2757 3.56372C31.4414 3.93401 31.7169 4.78715 31.6898 5.09587C31.7574 5.18729 31.839 5.92087 31.8645 6.11901L31.889 6.48801C31.9725 6.60458 32.1138 9.06958 32.0695 9.30515C32.1302 9.45558 32.1017 11.2064 32.0987 11.5207C32.0945 11.8916 32.1015 12.2637 32.0973 12.6353C32.093 12.9777 32.0689 13.4354 32.0916 13.7659C32.112 13.5703 32.103 13.2812 32.1067 13.073C32.111 12.8287 32.1167 12.5836 32.1167 12.3367C32.1177 11.8456 32.1224 11.3556 32.1196 10.864C32.1167 10.508 32.0834 9.36358 32.1124 9.05829C32.1181 8.99401 32.1053 8.83015 32.1082 8.72029C32.1093 8.68286 32.0801 8.62329 32.0755 8.43687C32.0727 8.31301 32.0684 8.18201 32.0684 8.05801C32.0905 8.04072 32.0798 8.04615 32.1131 8.03044C32.1137 8.03029 32.1437 8.02029 32.149 8.01815C32.1461 7.93801 32.139 7.85958 32.1361 7.77944C32.1333 7.68015 32.1171 7.60186 32.1774 7.54058C32.1348 7.19872 32.119 6.82972 32.0807 6.48201C31.9831 5.59758 31.799 4.34872 31.4693 3.58972C31.0304 2.57929 30.1504 1.71987 29.04 1.34201C27.9269 0.963152 23.9386 0.824009 22.5826 0.777437C22.2646 0.76658 20.4305 0.76358 20.3047 0.714294H13.1449L11.219 0.752009C9.3211 0.795294 7.43388 0.876866 5.54731 1.05944C4.12574 1.19715 3.50452 1.29944 2.56967 2.03544C2.01895 2.46915 1.58357 3.07401 1.314 3.76472C1.26629 3.88701 1.22624 4.00344 1.18652 4.13544C1.15124 4.25301 1.12668 4.40787 1.08939 4.51772H1.08887Z" fill="#850202"/>
<path fill-rule="evenodd" clip-rule="evenodd" d="M31.8698 17.4603L31.9786 16.38C31.9858 16.2651 31.9796 16.3454 31.9578 16.3147C31.9706 16.9673 31.6057 19.1694 31.3136 19.8181C31.1767 20.1223 31.0027 20.4367 30.8031 20.6977C30.3987 21.2263 29.865 21.6353 29.2513 21.9101C28.5399 22.2288 27.6926 22.2491 26.8813 22.3293C23.6106 22.652 19.4014 22.6406 16.075 22.6383C14.2487 22.6371 12.4061 22.645 10.5822 22.5848C8.85294 22.5278 7.06105 22.4673 5.34776 22.273C4.2089 22.144 3.61408 22.068 2.74522 21.4061C2.65708 21.339 2.53681 21.2463 2.47152 21.1643C2.43567 21.1193 2.4196 21.1108 2.38189 21.0737L2.32321 21.0144C2.18535 20.8993 2.17565 20.8701 2.05108 20.7091C1.95693 20.5873 1.85433 20.4536 1.76918 20.2964C1.29075 19.4134 1.32608 19.1927 1.11279 18.1878C1.00494 17.6788 0.84364 16.1818 0.827497 15.6603C0.820354 15.5381 0.826073 15.1206 0.785645 15.0521C0.814359 16.3794 1.00536 18.6491 1.47307 19.8501C1.59136 20.1538 1.94992 20.7813 2.19006 21.0068C2.35663 21.1633 2.4096 21.2593 2.63789 21.4354C2.95503 21.6803 3.0942 21.7846 3.47991 21.9683C3.79748 22.1197 4.16721 22.2384 4.55221 22.2907C5.94407 22.4798 8.27809 22.6121 9.70681 22.6596C11.5117 22.7196 13.3107 22.733 15.1197 22.7386C19.003 22.7504 23.3072 22.7643 27.1602 22.4084C28.2432 22.3084 28.9498 22.2863 29.8758 21.6807C29.9472 21.6341 30.012 21.5911 30.075 21.5416C30.3104 21.3563 30.4058 21.2597 30.6172 21.0483C30.9099 20.7556 31.2579 20.14 31.4024 19.7596C31.6092 19.2148 31.8338 18.0477 31.8698 17.4603Z" fill="#B84D4D"/>
</svg>
