<svg width="32" height="23" viewBox="0 0 32 23" fill="none" xmlns="http://www.w3.org/2000/svg">
<path fill-rule="evenodd" clip-rule="evenodd" d="M0.517753 4.51774C0.462038 4.90932 0.361872 5.32146 0.300729 5.73189C0.172015 6.59631 0.107275 7.4216 0.0599888 8.29646C0.0471317 8.5306 0.0471429 9.51631 0 9.63817V14.0787C0.0604286 14.2352 -0.030296 14.5825 0.0465611 14.7209C0.0762754 14.6132 0.0494852 14.515 0.0437709 14.4019C0.0897709 14.4902 0.0583411 14.6742 0.0639125 14.7866C0.0710554 14.9242 0.0907165 14.8426 0.113002 14.928L0.134975 15.266C0.151832 15.3883 0.112339 15.3366 0.180054 15.363C0.180482 15.2849 0.18856 15.1772 0.181274 15.1033C0.172703 15.0157 0.148197 14.9663 0.198626 14.8947C0.214197 14.5797 0.188562 14.192 0.179705 13.8692C0.171134 13.5297 0.169745 13.1947 0.166888 12.8542C0.165459 12.5502 0.1282 10.9532 0.176915 10.8029L0.168283 10.775C0.188854 10.1675 0.17691 9.55474 0.200195 8.9336L0.215716 8.47503C0.217144 8.44917 0.219975 8.42303 0.224261 8.39746C0.238546 8.32646 0.229994 8.36717 0.240566 8.34631C0.193423 8.22189 0.268593 7.58403 0.282593 7.40103C0.294021 7.24974 0.307166 7.09831 0.319737 6.94731C0.329737 6.81989 0.324024 6.59774 0.382167 6.50474C0.354167 6.35832 0.418158 6.0756 0.440587 5.91489L0.534581 5.3846C0.535581 5.37646 0.538873 5.3746 0.541731 5.37003C0.518159 5.20346 0.638832 4.8216 0.663975 4.62617L0.587333 4.5216L0.536586 4.62346L0.517753 4.51774Z" fill="#670304"/>
<path fill-rule="evenodd" clip-rule="evenodd" d="M31.521 13.7658C31.5517 14.1794 31.4895 14.6841 31.4855 15.1086C31.4841 15.3228 31.4623 15.5446 31.449 15.7588C31.4418 15.8706 31.3972 16.3008 31.4069 16.38L31.2981 17.4603C31.327 17.4954 31.3303 17.5566 31.3665 17.6077C31.3833 17.571 31.3894 17.4683 31.4282 17.3638C31.4664 17.2613 31.3812 17.3174 31.4844 17.2826C31.5667 16.8084 31.5907 16.2086 31.6228 15.7206C31.6394 15.47 31.6645 14.1784 31.703 14.0781V9.46027L31.6058 7.54055C31.5455 7.60184 31.5615 7.68013 31.5645 7.77941C31.5674 7.85955 31.5731 7.93798 31.5774 8.01813C31.5717 8.02027 31.5421 8.03027 31.5416 8.03041C31.5079 8.04613 31.519 8.0407 31.4968 8.05798C31.4977 8.18198 31.5011 8.31298 31.504 8.43684C31.5083 8.62327 31.5377 8.68284 31.5365 8.72027C31.5337 8.83013 31.5479 8.99398 31.5408 9.05827C31.5121 9.36355 31.5451 10.508 31.5479 10.864C31.5522 11.3556 31.5468 11.8456 31.5451 12.3367C31.5446 12.5836 31.5394 12.8287 31.5351 13.073C31.5308 13.2811 31.5408 13.5703 31.5199 13.7658H31.521Z" fill="#670304"/>
<path fill-rule="evenodd" clip-rule="evenodd" d="M0.382167 6.50474C0.324024 6.59774 0.329737 6.81989 0.319737 6.94731C0.307166 7.09831 0.294021 7.24974 0.282593 7.40103C0.268593 7.58403 0.193423 8.22189 0.240566 8.34631C0.263709 8.44817 0.242882 8.45183 0.231454 8.5554L0.249241 8.55297C0.250241 8.55269 0.256444 8.55126 0.257873 8.55083L9.87771 8.52297L9.88486 8.3704C9.94086 8.35583 9.94587 8.35369 10.0184 8.39626C10.0213 8.51354 10.003 8.62154 10.0553 8.6834C10.0568 8.57897 10.096 8.09754 10.051 8.05626C10.051 8.16326 10.0159 9.07411 10.0853 9.17226C10.091 8.68926 10.0857 8.20283 10.0841 7.71954L10.0885 6.64426C10.0942 6.53297 10.1267 6.42454 10.1217 6.32454C10.1202 6.30069 10.0937 6.30554 10.1303 6.30654C10.0996 6.44254 10.1031 6.55826 10.0456 6.61183C10.0187 6.52897 9.99988 6.46326 9.99917 6.3614C9.99203 6.37254 9.97416 6.37026 9.96673 6.4274C9.95388 6.5264 9.98329 6.70211 9.93901 6.7904C9.83044 6.75197 9.86225 6.7684 9.8621 6.61583L0.648672 6.61654C0.624958 6.71069 0.63224 6.71254 0.587812 6.75554C0.587812 6.6554 0.615729 6.4674 0.539158 6.43626C0.526301 6.47183 0.529131 6.5524 0.529131 6.60483L0.500008 6.7724C0.43758 6.73854 0.453403 6.79654 0.450831 6.68769C0.447974 6.56897 0.466025 6.70926 0.467311 6.58511C0.468454 6.46497 0.41498 6.46626 0.414123 6.46269C0.412837 6.45669 0.405558 6.45726 0.402701 6.45326C0.430415 6.4984 0.41918 6.49711 0.41918 6.56526L0.395551 6.53011C0.392694 6.5174 0.388381 6.51354 0.385524 6.50469L0.382167 6.50474Z" fill="#E19697"/>
<path fill-rule="evenodd" clip-rule="evenodd" d="M15.8901 7.76117C15.9448 7.80989 16.1858 7.9356 16.2725 7.9846C16.3364 8.02046 16.4094 8.06189 16.4747 8.1016C16.5508 8.1476 16.6159 8.16946 16.6697 8.23146C16.7079 8.13803 16.8897 8.02503 16.9761 7.95903C17.1063 7.85989 17.8917 7.34046 17.9264 7.29075L17.6737 7.40203C17.6694 7.40617 17.6594 7.4186 17.6571 7.42189L17.6327 7.44889C17.6227 7.44232 17.6269 7.43417 17.5861 7.42632C17.5818 7.4256 17.5746 7.42503 17.5711 7.4246C17.5668 7.42417 17.5582 7.42532 17.5549 7.42517L17.5204 7.43032C17.509 7.49417 17.5635 7.49775 17.5261 7.48546C17.4906 7.51989 17.4907 7.51889 17.4392 7.54189C17.3358 7.58803 17.2898 7.61217 17.2058 7.68789C17.2044 7.68974 17.2001 7.69417 17.1987 7.69575C17.1972 7.69717 17.1929 7.70103 17.1915 7.70232C17.1484 7.7326 17.1757 7.6976 17.1138 7.73675C16.9774 7.82317 17.1385 7.76103 17.0664 7.77903C17.055 7.78175 16.923 7.76246 16.8414 7.76403L16.8637 7.87717C16.8641 7.87875 16.8665 7.88332 16.8665 7.88489C16.867 7.88632 16.868 7.89103 16.8694 7.89232C16.8723 7.91989 16.8461 7.93132 16.8379 7.99832C16.6664 7.99889 16.7654 8.03075 16.7292 8.04189L16.6577 8.05932C16.6109 8.09732 16.7061 8.06803 16.6008 8.03232C16.5612 8.01889 16.4987 8.01846 16.4573 8.02346C16.5303 8.04132 16.4986 8.0596 16.4949 7.96046C16.4906 7.84217 16.3095 7.82274 16.2292 7.8656L16.1514 7.84703C16.1517 7.8456 16.1543 7.83974 16.1543 7.83832L16.1761 7.79932C16.0596 7.70832 16.1321 7.86203 16.0767 7.70103C16.0681 7.70217 16.0603 7.70475 16.0527 7.70675L15.9195 7.74289C15.8503 7.77003 15.9532 7.6776 15.8901 7.76117Z" fill="#E19697"/>
<path fill-rule="evenodd" clip-rule="evenodd" d="M21.5196 12.2352C21.4599 12.2907 21.4568 12.3329 21.4076 12.4105C21.3226 12.5447 21.1288 12.7385 20.9937 12.8322C20.6994 13.0365 19.2267 13.871 18.8816 14.064C18.8327 14.0915 16.1327 15.6346 16.0649 15.7007C16.0946 15.7702 16.126 15.6596 16.0114 15.7829C16.0617 15.8166 16.0599 15.8446 16.1206 15.8452C16.236 15.846 16.1263 15.8416 16.2193 15.788C16.3315 15.8387 29.8429 15.8083 31.1939 15.8083L31.2354 15.7087C31.2354 15.8136 31.2239 15.9313 31.2559 16.0066C31.2602 16.0019 31.2659 15.987 31.2674 15.9902L31.3135 15.7089C31.3192 15.7785 31.3049 15.7976 31.3525 15.8482C31.3582 15.6306 31.4133 15.7749 31.4192 15.501C31.4196 15.4807 31.4197 15.4406 31.4234 15.422L31.4435 15.3725C31.4449 15.3683 31.4492 15.3619 31.452 15.3573C31.4563 15.5347 31.4203 15.678 31.4077 15.8392C31.3949 15.9966 31.4063 16.1803 31.3849 16.3147C31.4067 16.3455 31.4127 16.2652 31.4057 16.38C31.3957 16.3009 31.4409 15.8706 31.4478 15.7589C31.4606 15.5446 31.4821 15.3229 31.4843 15.1086C31.4886 14.6842 31.5507 14.1794 31.5199 13.7658C31.4967 13.4354 31.5203 12.9777 31.5254 12.6353C31.5297 12.2637 31.5241 11.8916 31.5269 11.5207C31.5298 11.2065 31.5584 9.4556 31.4977 9.30517L31.5006 10.9039C31.5049 11.4317 31.4921 11.9642 31.4878 12.4933L31.4866 12.1743H31.2419C31.2419 12.557 31.3082 12.4903 30.9268 12.4902L21.7136 12.4903C21.5803 12.472 21.599 12.3737 21.6026 12.3115C21.5126 12.3375 21.5808 12.3549 21.5218 12.3157L21.5196 12.2352Z" fill="#B50303"/>
<path fill-rule="evenodd" clip-rule="evenodd" d="M0.198626 14.8947L0.208903 15.0356C0.209903 15.0399 0.2118 15.0469 0.214658 15.0522C0.254515 15.1206 0.248939 15.5382 0.25651 15.6603C0.315796 15.7237 0.297884 15.7935 0.300456 15.8882C0.303313 15.8837 0.307659 15.87 0.309088 15.8735C0.313373 15.8839 0.316173 15.8305 0.36803 15.8123L9.86065 15.8083C9.86065 15.7196 9.85066 15.7432 9.8828 15.689C9.92594 15.7812 9.90489 16.444 9.90347 16.6363C9.90261 16.752 9.90633 16.7449 9.9359 16.7802L9.96066 15.7597C9.96124 15.5869 9.93845 14.8262 9.98316 14.7379C9.96287 14.8159 9.98207 15.6997 9.98464 15.8593C9.98607 15.9529 9.98508 16.0449 9.98508 16.1383C9.98508 16.1827 9.98223 16.231 9.99223 16.2739C10.0128 16.3665 10.0166 16.2762 10.0254 16.3963C10.0397 16.5803 10.0241 16.8117 10.0249 17.0007C10.0765 16.9337 10.0512 16.5837 10.0515 16.4563L10.0697 14.7447C10.0768 14.2815 10.0611 12.7969 10.0901 12.4699C10.0482 12.5122 10.0704 12.9275 10.0704 12.9935C10.0704 13.7076 10.0422 16.4803 10.1092 16.934L10.0992 12.2597C9.92479 12.2677 9.63948 12.3435 9.45277 12.3749C8.80377 12.4842 8.04907 12.5397 7.3835 12.5359C5.68464 12.5265 3.88045 12.1859 2.30459 11.643C1.92802 11.5133 1.5766 11.3846 1.21389 11.2435L0.176915 10.8029C0.1282 10.9532 0.165459 12.5502 0.166888 12.8542C0.168316 13.1947 0.171134 13.5297 0.179705 13.8692C0.188562 14.192 0.214197 14.5797 0.198626 14.8947Z" fill="#B50303"/>
<path fill-rule="evenodd" clip-rule="evenodd" d="M0.25651 15.6603C0.272653 16.1819 0.433438 17.6788 0.541295 18.1878C0.75458 19.1927 0.719256 19.4134 1.19768 20.2964C1.28283 20.4536 1.38544 20.5873 1.47958 20.7091C1.60415 20.8701 1.61385 20.8993 1.75171 21.0144L1.81039 21.0737C1.8481 21.1108 1.86417 21.1193 1.90002 21.1643C1.96531 21.2463 2.08558 21.339 2.17372 21.4061C3.04258 22.068 3.63741 22.144 4.77626 22.273C6.48955 22.4673 8.28144 22.5278 10.0107 22.5848C11.8346 22.645 13.6772 22.6371 15.5035 22.6383C18.8299 22.6406 23.0391 22.652 26.3098 22.3293C27.1211 22.2491 27.9684 22.2288 28.6798 21.9101C29.2935 21.6353 29.8272 21.2263 30.2316 20.6977C30.4312 20.4367 30.6052 20.1223 30.7421 19.8181C31.0342 19.1694 31.3994 16.9673 31.3863 16.3147C31.4071 16.1803 31.3963 15.9966 31.4091 15.8391C31.422 15.678 31.4583 15.5347 31.4534 15.3573C31.4491 15.3618 31.4463 15.3683 31.4449 15.3724L31.4248 15.422C31.4205 15.4406 31.4205 15.4807 31.4205 15.501C31.4148 15.7748 31.3601 15.6306 31.3538 15.8481C31.306 15.7976 31.3206 15.7784 31.3149 15.7088L31.2687 15.9901C31.2673 15.987 31.2615 16.0018 31.2572 16.0066C31.2248 15.9313 31.2367 15.8136 31.2367 15.7087L31.1952 15.8083C29.8442 15.8083 16.3328 15.8387 16.2207 15.788C16.1274 15.8416 16.2374 15.846 16.122 15.8451C16.0613 15.8446 16.0631 15.8166 16.0128 15.7828C16.1274 15.6596 16.096 15.7701 16.0663 15.7007C15.9731 15.7281 14.6441 16.5134 14.519 16.5853L12.2091 17.9177C11.95 18.0647 11.6547 18.2056 11.2849 18.202C10.5726 18.1953 10.157 17.6277 10.1092 16.934C10.0422 16.4803 10.0704 13.7076 10.0704 12.9935C10.0704 12.9275 10.0482 12.5122 10.0901 12.4699C10.0616 12.7969 10.0758 14.2815 10.0697 14.7447L10.0515 16.4563C10.0512 16.5837 10.0765 16.9337 10.0249 17.0007C10.0241 16.8117 10.0397 16.5803 10.0254 16.3963C10.0166 16.2762 10.0128 16.3665 9.99223 16.2739C9.98223 16.231 9.98508 16.1827 9.98508 16.1383C9.98508 16.0449 9.98607 15.9529 9.98464 15.8593C9.98207 15.6997 9.96287 14.8159 9.98316 14.7379C9.93845 14.8262 9.96124 15.5869 9.96066 15.7597L9.9359 16.7802C9.90633 16.7449 9.90261 16.752 9.90347 16.6363C9.90489 16.444 9.92594 15.7812 9.8828 15.689C9.85066 15.7432 9.86065 15.7196 9.86065 15.8083L0.36803 15.8123C0.316173 15.8305 0.313373 15.8839 0.309088 15.8735C0.307659 15.87 0.303313 15.8837 0.300456 15.8882C0.297884 15.7935 0.315796 15.7237 0.25651 15.6603Z" fill="#9C0202"/>
<path fill-rule="evenodd" clip-rule="evenodd" d="M10.1206 6.32458C10.1249 6.42458 10.0937 6.53301 10.0874 6.6443L10.083 7.71958C10.0844 8.20287 10.0902 8.6893 10.0842 9.1723L10.0957 12.2293L10.0992 12.2597L10.1092 16.934C10.157 17.6277 10.5709 18.1953 11.2832 18.202C11.6531 18.2056 11.9483 18.0647 12.2075 17.9177L14.5173 16.5853C14.6424 16.5134 15.9717 15.7282 16.0649 15.7007C16.1327 15.6346 18.8327 14.0915 18.8816 14.064C19.2267 13.871 20.6994 13.0365 20.9937 12.8322C21.1288 12.7385 21.3226 12.5447 21.4076 12.4105C21.4568 12.3329 21.4599 12.2907 21.5196 12.2352C21.5225 12.0979 21.607 11.9643 21.5986 11.7389C21.5813 11.2793 21.2932 10.9306 20.946 10.6944C20.6049 10.4626 16.7158 8.24075 16.6697 8.23146C16.6159 8.16946 16.5508 8.1476 16.4747 8.1016C16.4094 8.06189 16.3364 8.02046 16.2725 7.9846C16.1858 7.9356 15.9448 7.80989 15.8901 7.76117C15.7699 7.7156 15.619 7.6153 15.511 7.55301C15.3835 7.47944 15.2731 7.41315 15.147 7.3383C14.4469 6.92201 13.673 6.49972 12.9779 6.08387C12.5576 5.83244 11.9101 5.39972 11.4195 5.35687C10.7844 5.3013 10.3536 5.66087 10.1658 6.22458L10.1206 6.32458Z" fill="#F5F4F5"/>
<path fill-rule="evenodd" clip-rule="evenodd" d="M17.9264 7.29075C17.8917 7.34046 17.1063 7.85989 16.9761 7.95903C16.8897 8.02503 16.7079 8.13803 16.6697 8.23146C16.7158 8.24075 20.6049 10.4626 20.946 10.6944C21.2932 10.9306 21.5813 11.2793 21.5986 11.7389C21.607 11.9643 21.5225 12.0979 21.5196 12.2352L21.5218 12.3157C21.5808 12.3549 21.5126 12.3375 21.6026 12.3115C21.599 12.3737 21.5803 12.472 21.7136 12.4903L30.9268 12.4902C31.3082 12.4903 31.2419 12.557 31.2419 12.1743H31.4866L31.4878 12.4933C31.4935 11.9642 31.505 11.4317 31.5006 10.9039L31.4977 9.30517C31.542 9.0696 31.4006 6.60457 31.3171 6.488C30.7158 6.295 30.384 6.16371 29.7348 5.98729C26.2262 5.03443 22.5956 5.08786 19.2655 6.58729C18.9153 6.745 18.5767 6.92829 18.2432 7.11714C18.1448 7.173 18.0275 7.2736 17.9264 7.29075Z" fill="#D40202"/>
<path fill-rule="evenodd" clip-rule="evenodd" d="M1.16255 3.3019C1.17255 3.3159 1.21059 3.37404 1.21573 3.38447L1.23945 3.45547C1.24074 3.4599 1.24229 3.46618 1.24372 3.47018C1.24486 3.47404 1.24799 3.48133 1.24799 3.48447C1.24899 3.48761 1.2508 3.49433 1.25366 3.49861L30.5682 3.49833L30.6015 3.39733C30.5872 3.27376 30.2487 2.81461 30.1793 2.73518C29.6328 2.11018 29.0743 1.68833 28.2445 1.44618C27.53 1.23776 25.1888 1.08604 24.3488 1.04461C21.5217 0.905184 18.7538 0.881756 15.9208 0.881756C14.4946 0.881756 13.0678 0.878756 11.6421 0.900756C10.2455 0.92247 8.8816 0.977042 7.48832 1.03661C6.8236 1.06504 6.14697 1.12518 5.48497 1.17918C4.8784 1.22876 4.13301 1.27804 3.56873 1.4179C2.85915 1.59376 2.17274 2.02747 1.71003 2.52347C1.58903 2.65318 1.18126 3.15718 1.16255 3.3019Z" fill="#F9CFD0"/>
<path fill-rule="evenodd" clip-rule="evenodd" d="M0.665877 4.62612C0.640734 4.82155 0.520061 5.20341 0.543632 5.36998C0.585061 5.48641 0.574201 5.31841 0.583915 5.25184C0.63063 5.22598 0.551727 5.22055 0.601441 5.25726C0.602156 5.25769 0.616626 5.27584 0.637626 5.29141C0.636341 5.17341 0.609292 5.19855 0.676863 5.17298C0.823435 5.14612 8.68307 5.20455 10.5306 5.16169C10.5716 5.16069 10.6039 5.17341 10.6661 5.17341V5.25184H10.748C10.7716 5.19269 10.7071 5.22284 10.8254 5.21241C11.1538 5.18369 10.8699 5.15041 11.1439 5.15241C11.2707 5.15341 11.382 5.13469 11.4773 5.17812L11.5167 5.19869C11.5571 5.21355 11.5224 5.21141 11.5838 5.21269C11.6163 5.12984 11.8259 5.14912 11.8953 5.15884C12.1867 5.19927 21.5801 5.17655 22.7478 5.17269C22.8074 5.17241 22.8892 5.18212 22.9327 5.18241C23.0043 5.18284 22.98 5.15941 23.0849 5.15284C23.1914 5.14612 23.3779 5.14669 23.4856 5.15112C23.7053 5.16026 23.43 5.22798 23.822 5.21169C24.0336 5.20298 23.6706 5.14741 24.0995 5.15712C24.1037 5.15712 24.1095 5.15655 24.1138 5.15669C24.118 5.15684 24.1238 5.15641 24.1281 5.15669C24.1698 5.16112 24.1409 5.15441 24.1672 5.16569C24.2346 5.19455 24.1572 5.21812 24.3592 5.21141C24.4502 5.20841 24.7453 5.22555 24.8075 5.20155C24.9023 5.16498 24.8077 5.15012 24.9957 5.15155C25.1551 5.15298 25.3146 5.15269 25.4741 5.15269C25.4884 5.27384 25.6172 5.14498 25.8518 5.15312C25.9423 5.15626 25.9257 5.17426 26.0309 5.17669C26.4453 5.18584 26.2761 5.10526 26.4519 5.20926C26.4752 5.22298 26.4905 5.23941 26.5153 5.21441C26.5182 5.21127 26.5239 5.19498 26.5267 5.19198C26.5353 5.18027 26.5182 5.18098 26.5607 5.16512C26.636 5.13684 26.7431 5.15655 26.8102 5.17084C27.1282 5.23812 26.9479 5.21298 27.1109 5.17712L30.8482 5.17298C30.8909 5.11241 30.9306 5.11869 30.9303 5.01769C31.0048 5.08341 30.9218 5.08912 31.0039 5.17569C31.0665 5.15184 31.0507 5.20541 31.0507 5.07455C31.0993 5.14955 31.0607 5.10684 31.1029 5.10926C31.1209 5.11026 31.085 5.18226 31.1199 5.09584C31.147 4.78712 30.8714 3.93398 30.7057 3.56369C30.6656 3.47384 30.6609 3.44427 30.6028 3.39727L30.5696 3.49826L1.25504 3.49855C1.25218 3.49427 1.25071 3.48755 1.24929 3.48441C1.24829 3.48127 1.24501 3.47398 1.24501 3.47012C1.24373 3.46612 1.24217 3.45984 1.24074 3.45541L1.21702 3.38441C1.21131 3.37398 1.17335 3.31584 1.16392 3.30184C1.05821 3.37955 0.917039 3.76698 0.860754 3.92241C0.776754 4.15427 0.741502 4.41798 0.667359 4.62612H0.665877Z" fill="#EFBCBC"/>
<path fill-rule="evenodd" clip-rule="evenodd" d="M0.543632 5.36998C0.540775 5.37455 0.536052 5.37642 0.536052 5.38457L0.442058 5.91485C0.419629 6.07557 0.355638 6.35828 0.383638 6.50471C0.386495 6.51357 0.390721 6.51742 0.393578 6.53014L0.416772 6.56528C0.416772 6.49714 0.428149 6.49842 0.400292 6.45328C0.403149 6.45728 0.410286 6.45671 0.411715 6.46271C0.412572 6.46628 0.466045 6.46499 0.464902 6.58514C0.463617 6.70928 0.445566 6.569 0.448423 6.68771C0.45128 6.79657 0.4356 6.73857 0.4976 6.77242L0.526722 6.60485C0.527151 6.55242 0.523892 6.47185 0.536749 6.43628C0.613321 6.46742 0.58549 6.65542 0.58549 6.75557C0.629919 6.71257 0.622637 6.71071 0.646351 6.61657L9.85978 6.61585C9.85993 6.76842 9.82803 6.75199 9.9366 6.79042C9.98089 6.70214 9.95133 6.52642 9.96433 6.42742C9.97147 6.37028 9.99005 6.37257 9.99676 6.36142C9.99748 6.46328 10.0163 6.52899 10.0431 6.61185C10.1007 6.55828 10.0972 6.44257 10.1279 6.30657C10.0918 6.30557 10.1179 6.30071 10.1194 6.32457L10.1658 6.22458C10.3536 5.66087 10.7844 5.3013 11.4195 5.35687C11.9101 5.39972 12.5576 5.83244 12.9779 6.08387C13.673 6.49972 14.4469 6.92201 15.147 7.3383C15.2731 7.41315 15.3835 7.47944 15.511 7.55301C15.619 7.6153 15.7688 7.71557 15.8889 7.76114C15.9521 7.67757 15.8485 7.77 15.9178 7.74285L16.0509 7.70671C16.0581 7.70471 16.0668 7.70214 16.0749 7.70099C16.1303 7.86199 16.0579 7.70828 16.1743 7.79928L16.1524 7.83828C16.1518 7.83971 16.1496 7.84557 16.1496 7.84699L16.2275 7.86557C16.3078 7.82271 16.4887 7.84214 16.4932 7.96042C16.4975 8.05957 16.5284 8.04128 16.4554 8.02342C16.4968 8.01842 16.5595 8.01885 16.599 8.03228C16.7043 8.06799 16.609 8.09728 16.6559 8.05928L16.7275 8.04185C16.7636 8.03071 16.6646 7.99885 16.8362 7.99828C16.8448 7.93128 16.8707 7.91985 16.8676 7.89228C16.8674 7.891 16.8661 7.88628 16.8647 7.88485C16.8643 7.88328 16.8619 7.87871 16.8619 7.87714L16.8398 7.764C16.9213 7.76242 17.0539 7.78171 17.0647 7.779C17.1369 7.761 16.9757 7.82314 17.1122 7.73671C17.174 7.69757 17.1467 7.73257 17.1898 7.70228C17.1913 7.70099 17.1956 7.69714 17.197 7.69571C17.1984 7.69414 17.2027 7.68971 17.2041 7.68785C17.2881 7.61214 17.3341 7.58799 17.4376 7.54185C17.489 7.51885 17.4891 7.51985 17.5245 7.48542C17.5618 7.49771 17.5067 7.49414 17.5187 7.43028L17.5534 7.42514C17.5576 7.42528 17.5648 7.42414 17.5695 7.42457C17.5738 7.42499 17.5809 7.42557 17.5845 7.42628C17.6258 7.43414 17.6215 7.44228 17.631 7.44885L17.6555 7.42185C17.6583 7.41857 17.6683 7.40614 17.672 7.40199L17.9247 7.29071C18.0259 7.27357 18.1448 7.173 18.2432 7.11714C18.5767 6.92829 18.9153 6.745 19.2655 6.58729C22.5956 5.08786 26.2262 5.03443 29.7348 5.98729C30.384 6.16371 30.7158 6.295 31.3171 6.488L31.2918 6.119C31.2663 5.92085 31.1848 5.18728 31.1172 5.09585C31.0823 5.18228 31.1182 5.11028 31.1002 5.10928C31.0586 5.10685 31.0973 5.14957 31.0481 5.07457C31.0481 5.20542 31.0637 5.15185 31.0011 5.17571C30.9187 5.08914 31.0021 5.08342 30.9276 5.01771C30.9279 5.11871 30.8882 5.11242 30.8455 5.17299L27.1081 5.17714C26.9451 5.21299 27.1254 5.23814 26.8074 5.17085C26.7403 5.15657 26.6333 5.13685 26.558 5.16514C26.5156 5.18099 26.533 5.18028 26.524 5.192C26.5212 5.195 26.5155 5.21128 26.5126 5.21442C26.4878 5.23942 26.4724 5.22299 26.4491 5.20928C26.2733 5.10528 26.442 5.18585 26.0282 5.17671C25.923 5.17428 25.9396 5.15628 25.849 5.15314C25.6144 5.14499 25.4852 5.27385 25.4714 5.15271C25.3119 5.15271 25.1524 5.15299 24.993 5.15157C24.805 5.15014 24.8996 5.16499 24.8048 5.20157C24.7426 5.22557 24.4474 5.20842 24.3564 5.21142C24.1543 5.21814 24.2318 5.19457 24.1644 5.16571C24.1383 5.15442 24.1674 5.16114 24.1254 5.15671C24.1211 5.15642 24.1153 5.15685 24.1111 5.15671C24.1068 5.15657 24.101 5.15714 24.0968 5.15714C23.6679 5.14742 24.0309 5.20299 23.8193 5.21171C23.4273 5.22799 23.7026 5.16028 23.4829 5.15114C23.3752 5.14671 23.1887 5.14614 23.0822 5.15285C22.9773 5.15942 23.0016 5.18285 22.93 5.18242C22.8865 5.18214 22.8046 5.17242 22.745 5.17271C21.5773 5.17657 12.184 5.19928 11.8926 5.15885C11.8232 5.14914 11.6136 5.12985 11.5811 5.21271C11.5196 5.21142 11.5544 5.21357 11.514 5.19871L11.4773 5.17812C11.382 5.13469 11.2707 5.15341 11.1439 5.15241C10.8699 5.15041 11.1538 5.18369 10.8254 5.21241C10.7071 5.22284 10.7716 5.19269 10.748 5.25184H10.6661V5.17341C10.6039 5.17341 10.5716 5.16069 10.5306 5.16169C8.68307 5.20455 0.823435 5.14612 0.676863 5.17298C0.609292 5.19855 0.636341 5.17341 0.637626 5.29141C0.616626 5.27584 0.602156 5.25769 0.601441 5.25726C0.551727 5.22055 0.63063 5.22598 0.583915 5.25184C0.574201 5.31841 0.585061 5.48641 0.543632 5.36998Z" fill="#E8A9AA"/>
<path fill-rule="evenodd" clip-rule="evenodd" d="M0.241786 8.3463C0.231786 8.36716 0.238997 8.32644 0.225568 8.39744C0.219854 8.42302 0.218365 8.44916 0.216936 8.47502L0.201416 8.93359C0.178273 9.55473 0.189932 10.1674 0.169503 10.775L0.224261 10.5654C0.265975 10.5862 0.235661 10.5443 0.316947 10.6062C0.357947 10.6376 0.277954 10.6604 0.477382 10.6197C0.703239 10.5734 0.391546 10.5863 0.855974 10.5847H9.91106C9.91963 10.3364 9.87824 10.2833 9.96695 10.2722C9.96981 10.6169 9.94913 10.5357 10.0533 10.5906L10.0561 10.2702C10.0286 10.4249 10.0585 12.1662 10.0957 12.2293L10.0853 9.17226C10.0159 9.07411 10.051 8.16326 10.051 8.05626C10.096 8.09754 10.0568 8.57897 10.0553 8.6834C10.003 8.62154 10.0213 8.51354 10.0184 8.39626C9.94587 8.35369 9.94086 8.35583 9.88486 8.3704L9.87771 8.52297L0.257873 8.55083C0.256444 8.55126 0.250241 8.55269 0.249241 8.55297L0.231454 8.5554C0.242882 8.45183 0.264786 8.44816 0.241786 8.3463Z" fill="#D88586"/>
<path fill-rule="evenodd" clip-rule="evenodd" d="M0.169503 10.775L0.178048 10.8028L1.21389 11.2435C1.5766 11.3846 1.92802 11.5133 2.30459 11.643C3.88045 12.1859 5.68464 12.5265 7.3835 12.5359C8.04907 12.5397 8.80377 12.4842 9.45277 12.3749C9.63948 12.3435 9.92479 12.2677 10.0992 12.2597L10.0968 12.2293C10.0596 12.1661 10.0286 10.4249 10.0561 10.2702L10.0533 10.5906C9.94913 10.5357 9.96981 10.6169 9.96695 10.2722C9.87824 10.2833 9.91963 10.3364 9.91106 10.5847H0.855974C0.391546 10.5863 0.703239 10.5734 0.477382 10.6197C0.277954 10.6604 0.357947 10.6376 0.316947 10.6062C0.235661 10.5443 0.265975 10.5862 0.224261 10.5654L0.169503 10.775Z" fill="#D17476"/>
<path fill-rule="evenodd" clip-rule="evenodd" d="M0.0465611 14.7209C-0.0207246 15.0282 0.155699 16.7774 0.20327 17.1916C0.28727 17.921 0.40778 18.7637 0.597209 19.4427C0.694494 19.7916 0.814632 20.0763 0.977632 20.3746C1.08963 20.5796 1.22438 20.7733 1.36852 20.9587C1.6778 21.3569 2.18753 21.7874 2.62453 22.0113C2.68368 22.0416 3.04663 22.2087 3.06477 22.2254L3.67399 22.4053L4.03549 22.4627L4.74097 22.5446L5.11521 22.5824L5.61639 22.6251L6.36119 22.6857L8.07925 22.7827C9.02053 22.8004 10.1278 22.8844 11.0451 22.8822C11.862 22.8803 12.6644 22.9023 13.4731 22.9009C15.918 22.8964 18.3329 22.9237 20.7769 22.8724C21.5821 22.8556 22.3674 22.8314 23.1654 22.802C23.5334 22.7883 23.9384 22.7562 24.3185 22.7442C24.7234 22.7314 25.0854 22.6629 25.4781 22.6717L26.046 22.6264L26.5222 22.5849L26.7274 22.5676L27.3525 22.4989L27.6955 22.4607C28.0089 22.4322 28.2454 22.32 28.5184 22.2682C28.5525 22.2403 28.7902 22.1536 28.8538 22.1247C28.9745 22.07 29.0644 22.0191 29.1794 21.953C29.5788 21.7227 29.7338 21.5817 30.0178 21.2991C31.0975 20.2243 31.2947 18.9331 31.4844 17.2826C31.3812 17.3174 31.4664 17.2613 31.4282 17.3638C31.3894 17.4683 31.3833 17.571 31.3665 17.6077C31.3303 17.5566 31.327 17.4954 31.2981 17.4603C31.2621 18.0477 31.0373 19.2149 30.8306 19.7596C30.6861 20.14 30.3381 20.7556 30.0454 21.0483C29.8339 21.2597 29.7386 21.3563 29.5032 21.5416C29.4402 21.5911 29.3754 21.6342 29.304 21.6807C28.378 22.2863 27.6714 22.3084 26.5884 22.4084C22.7354 22.7643 18.4311 22.7504 14.5478 22.7386C12.7388 22.733 10.9398 22.7196 9.13498 22.6596C7.70627 22.6122 5.37224 22.4799 3.98039 22.2907C3.59539 22.2384 3.22566 22.1197 2.90809 21.9683C2.52237 21.7846 2.38321 21.6803 2.06606 21.4354C1.83778 21.2593 1.78481 21.1633 1.61824 21.0069C1.3781 20.7813 1.01954 20.1539 0.901251 19.8501C0.433537 18.6491 0.243372 16.3795 0.214658 15.0522C0.2118 15.0469 0.209903 15.0399 0.208903 15.0356L0.198626 14.8947C0.148197 14.9663 0.172703 15.0157 0.181274 15.1033C0.18856 15.1772 0.180482 15.2849 0.180054 15.363C0.112339 15.3366 0.151832 15.3883 0.134975 15.266L0.113002 14.928C0.0907165 14.8426 0.0710554 14.9242 0.0639125 14.7866C0.0583411 14.6742 0.0897709 14.4902 0.0437709 14.4019C0.0480566 14.515 0.0758468 14.6132 0.0465611 14.7209Z" fill="#3B0102"/>
<path fill-rule="evenodd" clip-rule="evenodd" d="M0.517753 4.51774L0.538156 4.62344L0.588815 4.52158L0.665877 4.62612C0.74002 4.41798 0.775026 4.15429 0.859026 3.92244C0.915312 3.76701 1.05683 3.37961 1.16255 3.3019C1.18126 3.15718 1.58903 2.65318 1.71003 2.52347C2.17274 2.02747 2.85915 1.59376 3.56873 1.4179C4.13301 1.27804 4.8784 1.22876 5.48497 1.17918C6.14697 1.12518 6.8236 1.06504 7.48832 1.03661C8.8816 0.977042 10.2455 0.92247 11.6421 0.900756C13.0678 0.878756 14.4946 0.881756 15.9208 0.881756C18.7538 0.881756 21.5217 0.905184 24.3488 1.04461C25.1888 1.08604 27.53 1.23776 28.2445 1.44618C29.0743 1.68833 29.6328 2.11018 30.1793 2.73518C30.2487 2.81461 30.5872 3.27376 30.6015 3.39733C30.6596 3.44433 30.6643 3.47387 30.7044 3.56372C30.8701 3.93401 31.1457 4.78715 31.1185 5.09587C31.1861 5.18729 31.2677 5.92087 31.2932 6.11901L31.3171 6.488C31.4006 6.60457 31.542 9.0696 31.4977 9.30517C31.5584 9.4556 31.5298 11.2065 31.5269 11.5207C31.5226 11.8916 31.5297 12.2637 31.5254 12.6353C31.5212 12.9777 31.4983 13.4354 31.521 13.7658C31.5414 13.5703 31.5314 13.2811 31.5351 13.073C31.5394 12.8287 31.5446 12.5836 31.5451 12.3367C31.5461 11.8456 31.5508 11.3556 31.5479 10.864C31.5451 10.508 31.5121 9.36355 31.5408 9.05827C31.5465 8.99398 31.5337 8.83013 31.5365 8.72027C31.5377 8.68284 31.5083 8.62327 31.504 8.43684C31.5011 8.31298 31.4977 8.18198 31.4968 8.05798C31.519 8.0407 31.5079 8.04613 31.5416 8.03041C31.5421 8.03027 31.5717 8.02027 31.5774 8.01813C31.5746 7.93798 31.5674 7.85955 31.5645 7.77941C31.5615 7.68013 31.5455 7.60184 31.6058 7.54055C31.5633 7.1987 31.5477 6.82972 31.5094 6.48201C31.4118 5.59758 31.2277 4.34872 30.898 3.58972C30.4591 2.57929 29.5791 1.71987 28.4687 1.34201C27.3556 0.963152 23.3673 0.824009 22.0113 0.777437C21.6933 0.76658 19.8592 0.76358 19.7335 0.714294H12.5736L10.6477 0.752009C8.74981 0.795294 6.86259 0.876866 4.97602 1.05944C3.55445 1.19715 2.93324 1.29944 1.99838 2.03544C1.44766 2.46915 1.01228 3.07401 0.742711 3.76472C0.694996 3.88701 0.654949 4.00344 0.615234 4.13544C0.579949 4.25301 0.555038 4.40789 0.517753 4.51774Z" fill="#850202"/>
<path fill-rule="evenodd" clip-rule="evenodd" d="M31.2981 17.4603L31.4069 16.38C31.4141 16.2651 31.4081 16.3454 31.3863 16.3147C31.3994 16.9673 31.0342 19.1694 30.7421 19.8181C30.6052 20.1223 30.4312 20.4367 30.2316 20.6977C29.8272 21.2263 29.2935 21.6353 28.6798 21.9101C27.9684 22.2288 27.1211 22.2491 26.3098 22.3293C23.0391 22.652 18.8299 22.6406 15.5035 22.6383C13.6772 22.6371 11.8346 22.645 10.0107 22.5848C8.28144 22.5278 6.48955 22.4673 4.77626 22.273C3.63741 22.144 3.04258 22.068 2.17372 21.4061C2.08558 21.339 1.96531 21.2463 1.90002 21.1643C1.86417 21.1193 1.8481 21.1108 1.81039 21.0737L1.75171 21.0144C1.61385 20.8993 1.60415 20.8701 1.47958 20.7091C1.38544 20.5873 1.28283 20.4536 1.19768 20.2964C0.719256 19.4134 0.75458 19.1927 0.541295 18.1878C0.433438 17.6788 0.272653 16.1819 0.25651 15.6603C0.248939 15.5382 0.254515 15.1206 0.214658 15.0522C0.243372 16.3795 0.433537 18.6491 0.901251 19.8501C1.01954 20.1539 1.3781 20.7813 1.61824 21.0069C1.78481 21.1633 1.83778 21.2593 2.06606 21.4354C2.38321 21.6803 2.52237 21.7846 2.90809 21.9683C3.22566 22.1197 3.59539 22.2384 3.98039 22.2907C5.37224 22.4799 7.70627 22.6122 9.13498 22.6596C10.9398 22.7196 12.7388 22.733 14.5478 22.7386C18.4311 22.7504 22.7354 22.7643 26.5884 22.4084C27.6714 22.3084 28.378 22.2863 29.304 21.6807C29.3754 21.6342 29.4402 21.5911 29.5032 21.5416C29.7386 21.3563 29.8339 21.2597 30.0454 21.0483C30.3381 20.7556 30.6861 20.14 30.8306 19.7596C31.0373 19.2149 31.2621 18.0477 31.2981 17.4603Z" fill="#B84D4D"/>
</svg>
