<svg width="249" height="19" viewBox="0 0 249 19" fill="none" xmlns="http://www.w3.org/2000/svg">
<path fill-rule="evenodd" clip-rule="evenodd" d="M9.99463 5.33162C10.1525 6.4032 10.2316 7.91917 10.2316 9.87946C10.2316 11.8398 10.1528 13.3639 9.99463 14.4523C9.83677 15.5404 9.4755 16.4084 8.91084 17.0559C7.91396 18.2025 6.61806 18.7753 5.0232 18.7753H0.0146484V1.03358H5.0232C6.61806 1.03358 7.91396 1.60661 8.91084 2.75258C9.4755 3.4007 9.83677 4.26019 9.99463 5.33162ZM6.69295 9.87946C6.69295 7.17136 6.55147 5.54339 6.26936 4.9951C6.00377 4.48014 5.56311 4.22285 4.94861 4.22285H3.55329V15.586H4.94861C5.56311 15.586 6.00377 15.3281 6.26936 14.8134C6.5519 14.2648 6.69295 12.6203 6.69295 9.87946ZM15.9878 18.7753H12.4491V1.03358H15.9878V18.7753ZM29.0453 18.7753H26.0298L22.2674 10.1039V18.7753H18.7288V1.03358H21.8185L25.5067 9.70531V1.03358H29.0453V18.7753ZM44.8935 2.46638C45.6409 3.42146 46.0148 4.82909 46.0148 6.68983C46.0148 8.55029 45.6409 9.95827 44.8935 10.9136C44.146 11.8687 42.8581 12.3464 41.0309 12.3464H39.5613V18.7753H36.0227V1.03358H41.0309C42.8581 1.03358 44.146 1.51086 44.8935 2.46638ZM42.439 7.57449C42.4639 7.34998 42.4769 7.05526 42.4769 6.68983C42.4769 6.32441 42.4624 6.0294 42.439 5.80517C42.4142 5.58066 42.3559 5.33177 42.2649 5.05755C42.1743 4.78363 42.0155 4.57617 41.791 4.43483C41.5667 4.29304 41.2806 4.22285 40.9317 4.22285H39.5613V9.15717H40.9317C41.2806 9.15717 41.5667 9.08692 41.791 8.94484C42.0155 8.80452 42.1737 8.59589 42.2649 8.32212C42.357 8.04776 42.4142 7.79872 42.439 7.57449ZM54.5623 8.45915H53.3411C52.7598 8.45915 52.2695 8.65449 51.8709 9.04476C51.4723 9.43518 51.2728 9.95399 51.2728 10.6021V18.7753H47.934V5.36909H51.1236V6.81402C51.5221 6.29906 52.0126 5.90065 52.5939 5.61854C53.2249 5.31933 53.8812 5.16961 54.5623 5.16961V8.45915ZM63.5331 6.76442C64.1476 7.69465 64.4552 9.46411 64.4552 12.0724C64.4552 14.6806 64.1476 16.4497 63.5331 17.38C62.8188 18.4432 61.639 18.9748 59.9945 18.9748C58.3496 18.9748 57.1709 18.4432 56.4565 17.38C55.8418 16.4497 55.5337 14.6806 55.5337 12.0724C55.5337 9.46411 55.8418 7.69465 56.4565 6.76442C57.1709 5.70132 58.3496 5.16961 59.9945 5.16961C61.639 5.16961 62.8188 5.70132 63.5331 6.76442ZM60.8666 15.4611C61.0324 15.0957 61.1157 13.9663 61.1157 12.0724C61.1157 10.1784 61.0324 9.04869 60.8666 8.68326C60.7006 8.33435 60.4097 8.1601 59.9945 8.1601C59.5789 8.1601 59.2885 8.33435 59.1223 8.68326C58.9562 9.04869 58.8732 10.1784 58.8732 12.0724C58.8732 13.9663 58.9562 15.0957 59.1223 15.4611C59.2885 15.8099 59.5789 15.9846 59.9945 15.9846C60.4097 15.9846 60.7006 15.8099 60.8666 15.4611ZM80.5276 13.7168C80.4442 15.4445 79.913 16.7738 78.9331 17.704C78.036 18.5512 76.8976 18.9748 75.5186 18.9748C73.8907 18.9748 72.5956 18.3767 71.6317 17.1805C71.0671 16.4828 70.7054 15.5983 70.5476 14.5269C70.3897 13.4553 70.3113 11.9144 70.3113 9.90444C70.3113 7.89416 70.3899 6.35345 70.5476 5.28202C70.7054 4.21059 71.0671 3.32586 71.6317 2.62804C72.5956 1.43178 73.8907 0.83374 75.5186 0.83374C76.8976 0.83374 78.036 1.25753 78.9331 2.10488C79.913 3.03511 80.4442 4.35554 80.5276 6.06675H76.9896C76.956 5.43574 76.8648 4.9786 76.7149 4.69605C76.499 4.24775 76.1004 4.02372 75.5186 4.02372C74.9538 4.02372 74.5553 4.25606 74.3224 4.72103C74.0072 5.33582 73.8493 7.06377 73.8493 9.90444C73.8493 12.7453 74.0072 14.473 74.3224 15.0875C74.5553 15.5528 74.9538 15.7852 75.5186 15.7852C76.1004 15.7852 76.499 15.5528 76.7149 15.0875C76.8644 14.8052 76.9562 14.3482 76.9896 13.7168H80.5276ZM90.0472 6.76442C90.6617 7.69465 90.9686 9.46411 90.9686 12.0724C90.9686 14.6806 90.6617 16.4497 90.0472 17.38C89.3329 18.4432 88.1531 18.9748 86.5086 18.9748C84.8637 18.9748 83.6842 18.4432 82.9699 17.38C82.3551 16.4497 82.0478 14.6806 82.0478 12.0724C82.0478 9.46411 82.3551 7.69465 82.9699 6.76442C83.6842 5.70132 84.8637 5.16961 86.5086 5.16961C88.1531 5.16961 89.3329 5.70132 90.0472 6.76442ZM87.3807 15.4611C87.5465 15.0957 87.6298 13.9663 87.6298 12.0724C87.6298 10.1784 87.5465 9.04869 87.3807 8.68326C87.2147 8.33435 86.9238 8.1601 86.5086 8.1601C86.093 8.1601 85.8026 8.33435 85.6364 8.68326C85.4703 9.04869 85.3866 10.1784 85.3866 12.0724C85.3866 13.9663 85.4703 15.0957 85.6364 15.4611C85.8026 15.8099 86.093 15.9846 86.5086 15.9846C86.9238 15.9846 87.2147 15.8099 87.3807 15.4611ZM101.659 18.7753H98.3199V9.38093C98.3199 8.98232 98.2251 8.6792 98.0337 8.47164C97.8427 8.26408 97.5886 8.1601 97.2729 8.1601C96.9576 8.1601 96.7044 8.26379 96.5135 8.47164C96.3225 8.6792 96.2266 8.98232 96.2266 9.38093V18.7753H92.8871V5.36909H96.0774V6.34118C96.4092 5.94228 96.7331 5.65983 97.0488 5.49364C97.4474 5.27789 97.8716 5.16961 98.3199 5.16961C99.4162 5.16961 100.28 5.54349 100.911 6.29086C101.41 6.9058 101.659 7.91917 101.659 9.33132V18.7753ZM112.374 18.7753H109.184V17.8039C109.018 18.086 108.695 18.3685 108.213 18.6508C107.814 18.8669 107.39 18.9748 106.942 18.9748C105.862 18.9748 105.031 18.6094 104.45 17.8785C104.168 17.5131 103.956 17.0104 103.814 16.3708C103.672 15.7314 103.59 15.1371 103.565 14.589C103.54 14.0408 103.527 13.2018 103.527 12.0724C103.527 10.9429 103.542 10.1039 103.565 9.55579C103.59 9.0075 103.673 8.41318 103.814 7.77398C103.956 7.13419 104.168 6.63131 104.45 6.26588C105.031 5.53503 105.862 5.16961 106.942 5.16961C107.39 5.16961 107.814 5.27789 108.213 5.49364C108.512 5.67649 108.786 5.90065 109.035 6.16668V1.03358H112.374V18.7753ZM109.035 14.7635V9.38093C109.035 8.96536 108.936 8.65838 108.736 8.45915C108.553 8.25948 108.312 8.1601 108.013 8.1601C107.648 8.1601 107.365 8.31793 107.166 8.63366C106.967 8.94909 106.867 10.0956 106.867 12.0724C106.867 14.0492 106.966 15.1957 107.166 15.5114C107.365 15.8267 107.648 15.9846 108.013 15.9846C108.329 15.9846 108.57 15.885 108.736 15.6856C108.935 15.4859 109.035 15.179 109.035 14.7635ZM129.144 13.5676C129.144 14.5972 129.057 15.4114 128.883 16.0093C128.708 16.6075 128.397 17.1393 127.949 17.6041C127.201 18.3852 125.971 18.7753 124.26 18.7753H119.127V1.03358H124.26C125.938 1.03358 127.175 1.41543 127.973 2.17946C128.405 2.59459 128.708 3.07246 128.883 3.61226C129.057 4.15222 129.144 4.90401 129.144 5.86727C129.144 7.21306 128.821 8.20979 128.173 8.85777C127.924 9.10684 127.649 9.30598 127.35 9.45551C127.699 9.63822 127.974 9.8461 128.173 10.0789C128.821 10.7434 129.144 11.9061 129.144 13.5676ZM125.219 15.0625C125.477 14.7136 125.606 14.1239 125.606 13.2932C125.606 12.4624 125.473 11.8731 125.207 11.5242C124.942 11.1753 124.468 11.0007 123.787 11.0007H122.666V15.586H123.787C124.485 15.586 124.962 15.4114 125.219 15.0625ZM125.606 6.11636C125.606 5.43564 125.482 4.94982 125.232 4.65894C124.983 4.36806 124.518 4.22285 123.836 4.22285H122.666V8.01058H123.836C124.501 8.01058 124.962 7.86078 125.219 7.562C125.477 7.26279 125.606 6.78099 125.606 6.11636ZM136.371 18.7753C134.843 18.7753 133.696 18.5014 132.932 17.9531C131.902 17.2222 131.387 16.0596 131.387 14.4648V1.03358H134.726V14.2399C134.726 15.27 135.274 15.7852 136.371 15.7852V18.7753ZM146.314 18.7753H143.199V17.679C142.817 18.1273 142.526 18.4183 142.327 18.5512C141.911 18.8334 141.421 18.9748 140.856 18.9748C139.71 18.9748 138.805 18.5597 138.14 17.729C137.625 17.098 137.368 16.1093 137.368 14.7635C137.368 13.501 137.8 12.5046 138.663 11.7733C139.411 11.1422 140.507 10.8262 141.953 10.8262H142.975V9.28136C142.975 8.50067 142.642 8.11014 141.978 8.11014C141.678 8.11014 141.437 8.21836 141.255 8.43382C141.055 8.68333 140.956 8.99088 140.956 9.3563H137.617C137.617 8.19322 138.024 7.1962 138.838 6.3658C139.187 6.01704 139.647 5.7302 140.22 5.50613C140.793 5.2819 141.371 5.16961 141.953 5.16961C143.282 5.16961 144.312 5.53503 145.043 6.26588C145.89 7.11323 146.314 8.22642 146.314 9.60539V18.7753ZM142.975 14.6139V13.1437H142.402C141.787 13.1437 141.363 13.252 141.13 13.4677C140.848 13.7168 140.706 14.0993 140.706 14.6139C140.706 15.5776 141.089 16.0596 141.853 16.0596C142.168 16.0596 142.435 15.9307 142.651 15.6727C142.867 15.4155 142.975 15.0627 142.975 14.6139ZM157.004 14.6386C156.92 16.0672 156.497 17.1637 155.732 17.9278C155.035 18.6256 154.005 18.9744 152.643 18.9744C150.998 18.9744 149.819 18.4429 149.105 17.3796C148.49 16.4494 148.183 14.6799 148.183 12.0717C148.183 9.4634 148.49 7.69429 149.105 6.76406C149.819 5.70096 150.998 5.16925 152.643 5.16925C153.922 5.16925 154.936 5.51825 155.683 6.21592C156.48 6.96344 156.921 8.05984 157.004 9.50547H153.69C153.656 9.10657 153.573 8.79932 153.44 8.58298C153.274 8.30087 153.008 8.15939 152.643 8.15939C152.227 8.15939 151.937 8.334 151.771 8.6829C151.605 9.04833 151.522 10.1777 151.522 12.0717C151.522 13.9656 151.605 15.0953 151.771 15.4608C151.937 15.8095 152.227 15.9839 152.643 15.9839C153.008 15.9839 153.282 15.8345 153.465 15.5357C153.582 15.3363 153.656 15.0372 153.69 14.6386H157.004ZM168.517 18.7749H164.828L162.91 13.841L162.087 15.1367V18.7749H158.748V1.03287H162.087V10.4023L165.028 5.36873H168.492L165.053 10.8009L168.517 18.7749ZM181.275 8.35887H178.933V18.7749H175.593V8.35887H173.252V5.36873H181.275V8.35887ZM190.371 6.76406C190.985 7.69429 191.292 9.4634 191.292 12.0717C191.292 14.6799 190.985 16.4494 190.371 17.3796C189.657 18.4429 188.477 18.9744 186.832 18.9744C185.187 18.9744 184.008 18.4429 183.294 17.3796C182.679 16.4494 182.371 14.6799 182.371 12.0717C182.371 9.4634 182.679 7.69429 183.294 6.76406C184.008 5.70096 185.187 5.16925 186.832 5.16925C188.477 5.16925 189.657 5.70096 190.371 6.76406ZM187.704 15.4608C187.87 15.0953 187.954 13.9656 187.954 12.0717C187.954 10.1777 187.87 9.04833 187.704 8.6829C187.538 8.334 187.248 8.15939 186.832 8.15939C186.417 8.15939 186.126 8.334 185.96 8.6829C185.794 9.04833 185.71 10.1777 185.71 12.0717C185.71 13.9656 185.794 15.0953 185.96 15.4608C186.126 15.8095 186.417 15.9839 186.832 15.9839C187.248 15.9839 187.538 15.8095 187.704 15.4608ZM202.331 18.7749H198.992V8.35887H197.273V13.0687C197.273 15.2614 196.958 16.7609 196.326 17.5663C195.695 18.3722 194.615 18.7749 193.087 18.7749H191.99V15.7848H192.489C192.837 15.7848 193.108 15.7351 193.299 15.6353C193.49 15.5359 193.664 15.245 193.822 14.7631C193.98 14.2816 194.058 13.5754 194.058 12.6448V5.36873H202.331V18.7749ZM213.072 14.6386C212.988 16.0672 212.564 17.1637 211.8 17.9278C211.103 18.6256 210.073 18.9744 208.711 18.9744C207.066 18.9744 205.887 18.4429 205.173 17.3796C204.558 16.4494 204.25 14.6799 204.25 12.0717C204.25 9.4634 204.558 7.69429 205.173 6.76406C205.887 5.70096 207.066 5.16925 208.711 5.16925C209.99 5.16925 211.004 5.51825 211.751 6.21592C212.548 6.96344 212.989 8.05984 213.072 9.50547H209.758C209.724 9.10657 209.64 8.79932 209.508 8.58298C209.342 8.30087 209.076 8.15939 208.711 8.15939C208.295 8.15939 208.005 8.334 207.839 8.6829C207.672 9.04833 207.589 10.1777 207.589 12.0717C207.589 13.9656 207.672 15.0953 207.839 15.4608C208.005 15.8095 208.295 15.9839 208.711 15.9839C209.076 15.9839 209.35 15.8345 209.533 15.5357C209.65 15.3363 209.724 15.0372 209.758 14.6386H213.072ZM222.017 8.35887H219.675V18.7749H216.336V8.35887H213.994V5.36873H222.017V8.35887ZM237.118 18.7749H233.779V5.36873H237.118V18.7749ZM231.386 10.7884C232.034 11.5111 232.358 12.6614 232.358 14.2396C232.358 15.8178 232.034 16.9685 231.386 17.6912C230.739 18.4137 229.626 18.7749 228.048 18.7749H223.612V5.36873H226.951V9.7046H228.048C229.626 9.7046 230.739 10.0659 231.386 10.7884ZM228.746 15.4233C228.911 15.1826 228.995 14.7877 228.995 14.2396C228.995 13.6915 228.911 13.297 228.746 13.0562C228.579 12.8151 228.297 12.6947 227.898 12.6947H226.951V15.7848H227.898C228.297 15.7848 228.579 15.6646 228.746 15.4233ZM248.182 18.7749H244.843V12.5702L242.351 18.7749H239.411V5.36873H242.75V11.5735L245.241 5.36873H248.182V18.7749ZM247.21 1.03287C247.194 2.14566 246.857 2.93467 246.201 3.39993C245.545 3.86519 244.743 4.09759 243.796 4.09759C242.849 4.09759 242.048 3.86519 241.392 3.39993C240.736 2.93467 240.399 2.14566 240.382 1.03287H242.65C242.666 1.66389 243.049 1.97962 243.796 1.97962C244.544 1.97962 244.926 1.66389 244.943 1.03287H247.21Z" fill="black"/>
</svg>
