<svg width="250" height="19" viewBox="0 0 250 19" fill="none" xmlns="http://www.w3.org/2000/svg">
<path fill-rule="evenodd" clip-rule="evenodd" d="M8.48469 4.52263C8.63554 5.51922 8.71058 7.28987 8.71058 9.83558C8.71058 12.3808 8.63597 14.1524 8.48469 15.1485C8.33384 16.145 7.98212 16.9361 7.42945 17.5224C6.67623 18.3598 5.65445 18.7785 4.36508 18.7785H0.245117V0.892991H4.36508C5.65445 0.892991 6.67623 1.31138 7.42945 2.14879C7.98212 2.73507 8.33384 3.52618 8.48469 4.52263ZM6.42453 14.3574C6.50784 13.5534 6.5505 12.0461 6.5505 9.83558C6.5505 7.62504 6.50784 6.11794 6.42453 5.31415C6.34121 4.51021 6.14 3.90718 5.82179 3.50522C5.45344 3.05282 4.94237 2.82718 4.28943 2.82718H2.40556V16.8443H4.28943C4.94237 16.8443 5.45344 16.6179 5.82179 16.1659C6.14 15.764 6.34077 15.1612 6.42453 14.3574ZM13.6595 18.7785H11.4991V0.892991H13.6595V18.7785ZM25.6419 18.7785H23.6823L19.0603 6.54496V18.7785H16.8998V0.892991H18.9097L23.4814 13.1266V0.892991H25.6419V18.7785ZM41.8444 6.1178C41.8444 7.99346 41.4886 9.32903 40.7767 10.1246C40.0649 10.9201 39.0063 11.318 37.5992 11.318H35.74V18.7785H33.5795V0.892991H37.5992C39.0229 0.892991 40.0863 1.28621 40.7896 2.07349C41.4931 2.86076 41.8444 4.20852 41.8444 6.1178ZM39.684 6.1178C39.684 4.92855 39.5084 4.08311 39.1566 3.58087C38.8053 3.07834 38.2603 2.82718 37.5236 2.82718H35.74V9.38379H37.5236C38.2603 9.38379 38.8053 9.13234 39.1566 8.6301C39.5084 8.12757 39.684 7.28994 39.684 6.1178ZM49.3307 7.52454H48.7276C48.0245 7.52454 47.4551 7.73785 47.0196 8.16511C46.5841 8.59222 46.3666 9.1741 46.3666 9.91123V18.7785H44.3318V5.76593H46.2909V7.14806C46.475 6.81274 46.7767 6.50303 47.1952 6.21843C47.8151 5.78284 48.5264 5.56502 49.3307 5.56502V7.52454ZM57.7076 8.78034C57.8333 9.6347 57.8961 10.7987 57.8961 12.2726C57.8961 13.746 57.8333 14.9097 57.7076 15.7641C57.5819 16.618 57.3351 17.288 56.9668 17.7736C56.3638 18.5774 55.4426 18.9794 54.2033 18.9794C52.9805 18.9794 52.0684 18.5774 51.4654 17.7736C51.0966 17.288 50.8455 16.614 50.7117 15.7513C50.5773 14.889 50.5112 13.7293 50.5112 12.2726C50.5112 10.8153 50.578 9.65545 50.7117 8.79319C50.8447 7.93049 51.0966 7.25643 51.4654 6.77085C52.0684 5.96706 52.9805 5.56502 54.2033 5.56502C55.4426 5.56502 56.3638 5.96706 56.9668 6.77085C57.3351 7.25643 57.5821 7.92641 57.7076 8.78034ZM55.7734 15.2113C55.8319 14.5919 55.8612 13.6121 55.8612 12.2726C55.8612 10.9325 55.8319 9.95288 55.7734 9.33312C55.715 8.71365 55.577 8.25296 55.3595 7.95171C55.0914 7.58336 54.7055 7.39893 54.2033 7.39893C53.7177 7.39893 53.3411 7.58336 53.0734 7.95171C52.8555 8.25296 52.713 8.72203 52.6459 9.35845C52.5787 9.99488 52.5453 10.9661 52.5453 12.2726C52.5453 13.5785 52.5787 14.5496 52.6459 15.186C52.7132 15.8224 52.8555 16.2916 53.0734 16.5927C53.3411 16.9615 53.7177 17.1455 54.2033 17.1455C54.7055 17.1455 55.0914 16.9615 55.3595 16.5927C55.577 16.2916 55.715 15.8308 55.7734 15.2113ZM73.2946 14.3574C73.261 15.9815 72.809 17.1956 71.9386 17.9999C71.2014 18.6528 70.2808 18.9794 69.1757 18.9794C67.8858 18.9794 66.8639 18.544 66.1103 17.673C65.541 17.02 65.1813 16.1994 65.0304 15.2113C64.8796 14.2231 64.8042 12.4314 64.8042 9.83558C64.8042 7.23974 64.8802 5.448 65.0304 4.46018C65.1813 3.47206 65.541 2.65113 66.1103 1.99819C66.8639 1.12716 67.8858 0.692078 69.1757 0.692078C70.3309 0.692078 71.2768 1.04344 72.0135 1.74696C72.8342 2.55075 73.2614 3.73122 73.2946 5.28881H71.1599C71.1263 4.36764 70.9332 3.68934 70.5818 3.25434C70.2466 2.83542 69.7785 2.62627 69.1757 2.62627C68.5222 2.62627 68.0281 2.85212 67.6933 3.30466C67.3916 3.72315 67.195 4.36746 67.1031 5.23849C67.011 6.10937 66.9639 7.64171 66.9639 9.83558C66.9639 12.0294 67.011 13.5618 67.1031 14.4327C67.1952 15.3033 67.3916 15.9483 67.6933 16.3672C68.0281 16.8192 68.5222 17.0452 69.1757 17.0452C69.7785 17.0452 70.2466 16.8359 70.5818 16.4172C70.9332 15.9481 71.1263 15.2614 71.1599 14.3574H73.2946ZM82.476 8.78034C82.6017 9.6347 82.6644 10.7987 82.6644 12.2726C82.6644 13.746 82.6017 14.9097 82.476 15.7641C82.3503 16.618 82.1035 17.288 81.7351 17.7736C81.1323 18.5774 80.2115 18.9794 78.9723 18.9794C77.7496 18.9794 76.8373 18.5774 76.2345 17.7736C75.8657 17.288 75.6139 16.614 75.48 15.7513C75.3456 14.889 75.2795 13.7293 75.2795 12.2726C75.2795 10.8153 75.3464 9.65545 75.48 8.79319C75.6145 7.93049 75.8657 7.25643 76.2345 6.77085C76.8373 5.96706 77.7496 5.56502 78.9723 5.56502C80.2115 5.56502 81.1323 5.96706 81.7351 6.77085C82.1035 7.25643 82.3505 7.92641 82.476 8.78034ZM80.5418 15.2113C80.6002 14.5919 80.6296 13.6121 80.6296 12.2726C80.6296 10.9325 80.6002 9.95288 80.5418 9.33312C80.4833 8.71365 80.3453 8.25296 80.1278 7.95171C79.8597 7.58336 79.4744 7.39893 78.9723 7.39893C78.4867 7.39893 78.1094 7.58336 77.8418 7.95171C77.6238 8.25296 77.4815 8.72203 77.4142 9.35845C77.347 9.99488 77.3136 10.9661 77.3136 12.2726C77.3136 13.5785 77.347 14.5496 77.4142 15.186C77.4815 15.8224 77.6238 16.2916 77.8418 16.5927C78.1094 16.9615 78.4867 17.1455 78.9723 17.1455C79.4744 17.1455 79.8597 16.9615 80.1278 16.5927C80.3453 16.2916 80.4834 15.8308 80.5418 15.2113ZM92.2861 18.7785H90.2513V9.2075C90.2513 8.63817 90.1045 8.19878 89.8116 7.8889C89.5182 7.57902 89.146 7.42427 88.6939 7.42427C88.2415 7.42427 87.8731 7.57902 87.5883 7.8889C87.3038 8.19878 87.1615 8.63817 87.1615 9.2075V18.7785H85.1267V5.76593H87.0859V6.77085C87.2698 6.45264 87.5384 6.18514 87.8903 5.9672C88.3257 5.69956 88.7943 5.56502 89.297 5.56502C90.218 5.56502 90.9547 5.8832 91.5074 6.51962C92.0266 7.08896 92.2861 7.98523 92.2861 9.2075V18.7785ZM101.907 18.7785H99.9222V17.7736C99.7548 18.1085 99.4959 18.3768 99.1442 18.5776C98.6921 18.8457 98.2231 18.9794 97.7375 18.9794C96.8499 18.9794 96.1299 18.6528 95.577 17.9999C95.1917 17.5473 94.9361 16.8946 94.8105 16.0407C94.6848 15.1863 94.6221 13.9303 94.6221 12.2726C94.6221 10.6143 94.6848 9.35434 94.8105 8.49164C94.9362 7.62953 95.1917 6.97173 95.577 6.51962C96.1129 5.8832 96.833 5.56502 97.7375 5.56502C98.2397 5.56502 98.7088 5.69081 99.1442 5.94222C99.3787 6.07524 99.6211 6.31889 99.8722 6.67058V0.892991H101.907V18.7785ZM99.8722 15.2367V9.28316C99.8722 8.63007 99.7052 8.13549 99.3705 7.80076C99.1023 7.53268 98.7503 7.39893 98.3149 7.39893C97.8463 7.39893 97.4777 7.57454 97.21 7.92637C96.9921 8.19445 96.8496 8.63419 96.7825 9.24533C96.7153 9.85647 96.6819 10.8654 96.6819 12.2726C96.6819 13.6792 96.7153 14.688 96.7825 15.2991C96.8498 15.9103 96.9921 16.35 97.21 16.6181C97.4777 16.9699 97.8463 17.1455 98.3149 17.1455C98.7503 17.1455 99.1023 17.0112 99.3705 16.7437C99.7052 16.409 99.8722 15.9061 99.8722 15.2367ZM120.923 18.7785H118.763V6.0425L115.925 14.4077H114.593L111.804 6.24341V18.7785H109.644V0.892991H111.679L115.296 10.8405L118.889 0.892991H120.923V18.7785ZM130.971 12.7497H125.62C125.62 14.8595 125.796 16.1408 126.148 16.5927C126.399 16.9615 126.784 17.1455 127.303 17.1455C127.789 17.1455 128.174 16.9783 128.459 16.6434C128.744 16.3083 128.886 15.8059 128.886 15.136H130.921C130.903 16.3418 130.553 17.3046 129.866 18.0248C129.246 18.6613 128.392 18.9794 127.303 18.9794C126.198 18.9794 125.336 18.6446 124.716 17.9745C124.264 17.4889 123.958 16.7938 123.799 15.8897C123.64 14.9852 123.561 13.7795 123.561 12.2726C123.561 10.7486 123.637 9.53811 123.787 8.64223C123.937 7.7465 124.239 7.05566 124.691 6.56994C125.311 5.90048 126.165 5.56502 127.253 5.56502C128.342 5.56502 129.196 5.90048 129.816 6.56994C130.285 7.05566 130.595 7.76728 130.745 8.7054C130.896 9.64308 130.971 10.9913 130.971 12.7497ZM128.911 11.2173C128.911 9.42573 128.744 8.32834 128.409 7.92637C128.141 7.57454 127.756 7.39893 127.253 7.39893C126.768 7.39893 126.391 7.57454 126.123 7.92637C125.788 8.32834 125.62 9.42573 125.62 11.2173H128.911ZM140.19 18.7785H138.206V17.7736C138.038 18.1085 137.779 18.3768 137.427 18.5776C136.975 18.8457 136.506 18.9794 136.02 18.9794C135.133 18.9794 134.413 18.6528 133.86 17.9999C133.474 17.5473 133.219 16.8946 133.094 16.0407C132.968 15.1863 132.905 13.9303 132.905 12.2726C132.905 10.6143 132.968 9.35434 133.094 8.49164C133.22 7.62953 133.474 6.97173 133.86 6.51962C134.396 5.8832 135.116 5.56502 136.02 5.56502C136.522 5.56502 136.991 5.69081 137.427 5.94222C137.661 6.07524 137.904 6.31889 138.156 6.67058V0.892991H140.19V18.7785ZM138.156 15.2367V9.28316C138.156 8.63007 137.988 8.13549 137.653 7.80076C137.385 7.53268 137.033 7.39893 136.598 7.39893C136.129 7.39893 135.76 7.57454 135.493 7.92637C135.275 8.19445 135.133 8.63419 135.066 9.24533C134.999 9.85647 134.965 10.8654 134.965 12.2726C134.965 13.6792 134.999 14.688 135.066 15.2991C135.133 15.9103 135.275 16.35 135.493 16.6181C135.76 16.9699 136.129 17.1455 136.598 17.1455C137.033 17.1455 137.385 17.0112 137.653 16.7437C137.988 16.409 138.156 15.9061 138.156 15.2367ZM145.089 18.7785H143.054V5.76593H145.089V18.7785ZM145.264 3.45525H142.878V1.0939H145.264V3.45525ZM155.011 18.7785H153.052V17.7736C152.867 18.0918 152.6 18.3601 152.248 18.5776C151.813 18.8457 151.343 18.9794 150.841 18.9794C149.92 18.9794 149.183 18.6613 148.631 18.0248C148.112 17.4555 147.852 16.5597 147.852 15.337V5.76593H149.886V15.337C149.886 15.9232 150.033 16.371 150.326 16.6809C150.619 16.9905 150.992 17.1455 151.444 17.1455C151.896 17.1455 152.265 16.9905 152.549 16.6809C152.834 16.371 152.976 15.9232 152.976 15.337V5.76593H155.011V18.7785ZM170.134 18.7785H168.099V9.2075C168.099 8.63817 167.957 8.19878 167.672 7.8889C167.387 7.57902 167.019 7.42427 166.567 7.42427C166.114 7.42427 165.746 7.57902 165.461 7.8889C165.177 8.19878 165.034 8.63817 165.034 9.2075V18.7785H163V9.2075C163 8.63817 162.853 8.19878 162.56 7.8889C162.267 7.57902 161.894 7.42427 161.442 7.42427C160.99 7.42427 160.621 7.57902 160.337 7.8889C160.052 8.19878 159.91 8.63817 159.91 9.2075V18.7785H157.875V5.76593H159.835V6.77085C160.019 6.45264 160.287 6.18514 160.639 5.9672C161.074 5.69956 161.543 5.56502 162.045 5.56502C162.548 5.56502 163.02 5.69081 163.464 5.94222C163.908 6.19334 164.264 6.51984 164.532 6.92181C164.867 6.50332 165.21 6.18514 165.562 5.9672C165.997 5.69956 166.492 5.56502 167.044 5.56502C168.049 5.56502 168.828 5.8832 169.38 6.51962C169.882 7.07244 170.134 7.96812 170.134 9.2075V18.7785ZM179.717 8.78034C179.843 9.6347 179.906 10.7987 179.906 12.2726C179.906 13.746 179.843 14.9097 179.717 15.7641C179.591 16.618 179.345 17.288 178.976 17.7736C178.373 18.5774 177.452 18.9794 176.213 18.9794C174.99 18.9794 174.078 18.5774 173.475 17.7736C173.106 17.288 172.855 16.614 172.721 15.7513C172.587 14.889 172.521 13.7293 172.521 12.2726C172.521 10.8153 172.587 9.65545 172.721 8.79319C172.854 7.93049 173.106 7.25643 173.475 6.77085C174.078 5.96706 174.99 5.56502 176.213 5.56502C177.452 5.56502 178.373 5.96706 178.976 6.77085C179.345 7.25643 179.592 7.92641 179.717 8.78034ZM177.871 12.2726C177.871 10.916 177.841 9.92782 177.783 9.30849C177.724 8.68859 177.586 8.22807 177.369 7.92637C177.101 7.55802 176.716 7.37395 176.213 7.37395C175.728 7.37395 175.351 7.55802 175.083 7.92637C174.865 8.22807 174.722 8.70091 174.655 9.34596C174.588 9.99072 174.555 10.9661 174.555 12.2726C174.555 13.5785 174.588 14.5496 174.655 15.186C174.723 15.8224 174.865 16.2916 175.083 16.5927C175.351 16.9615 175.728 17.1455 176.213 17.1455C176.716 17.1455 177.101 16.9615 177.369 16.5927C177.586 16.2916 177.724 15.8308 177.783 15.2113C177.841 14.5919 177.871 13.6121 177.871 12.2726ZM194.174 12.2726C194.174 15.1194 193.856 16.9529 193.219 17.7736C192.616 18.5774 191.695 18.9794 190.456 18.9794C189.233 18.9794 188.321 18.5774 187.718 17.7736C187.081 16.9529 186.764 15.1194 186.764 12.2726C186.764 9.0067 186.826 6.82984 186.952 5.74131C187.078 4.65248 187.358 3.75659 187.794 3.05307C188.263 2.28275 188.966 1.7218 189.904 1.37011C190.842 1.01872 192.072 0.825975 193.596 0.792356V2.62627C192.541 2.64234 191.695 2.7357 191.059 2.90248C190.423 3.06984 189.945 3.37132 189.627 3.80676C189.208 4.37654 188.932 5.37249 188.798 6.79619C189.301 6.05949 190.029 5.69063 190.984 5.69063C191.871 5.69063 192.6 6.01719 193.169 6.67058C193.571 7.12268 193.839 7.76735 193.973 8.60476C194.107 9.44217 194.174 10.6644 194.174 12.2726ZM192.026 15.2367C192.084 14.6168 192.114 13.6286 192.114 12.2726C192.114 10.916 192.084 9.92782 192.026 9.30849C191.967 8.68859 191.829 8.2363 191.611 7.95171C191.344 7.58336 190.958 7.39893 190.456 7.39893C189.97 7.39893 189.594 7.58336 189.326 7.95171C189.108 8.2363 188.97 8.68859 188.911 9.30849C188.853 9.92782 188.823 10.916 188.823 12.2726C188.823 13.6286 188.853 14.6168 188.911 15.2367C188.97 15.856 189.108 16.3082 189.326 16.5927C189.594 16.9615 189.97 17.1455 190.456 17.1455C190.958 17.1455 191.344 16.9615 191.611 16.5927C191.829 16.3082 191.967 15.856 192.026 15.2367ZM207.211 18.7785H205.176V5.76593H207.211V18.7785ZM202.916 11.7823C203.469 12.427 203.745 13.4364 203.745 14.8095C203.745 16.1826 203.469 17.1875 202.916 17.8239C202.363 18.4603 201.442 18.7785 200.152 18.7785H196.611V5.76593H198.646V10.8152H200.152C201.442 10.8152 202.363 11.1375 202.916 11.7823ZM201.71 14.8095C201.71 14.0393 201.579 13.4825 201.32 13.139C201.061 12.796 200.638 12.6237 200.052 12.6237H198.646V16.9699H200.052C200.638 16.9699 201.061 16.7981 201.32 16.4546C201.58 16.1113 201.71 15.5632 201.71 14.8095ZM216.28 18.7785H214.245V14.3823C213.776 14.4657 213.223 14.508 212.587 14.508C211.582 14.508 210.812 14.2694 210.276 13.7925C209.74 13.3152 209.472 12.524 209.472 11.4186V5.76629H211.532V11.1171C211.532 11.7199 211.644 12.1345 211.871 12.3607C212.097 12.5864 212.437 12.6994 212.889 12.6994C213.391 12.6994 213.843 12.6571 214.245 12.5738V5.76629H216.28V18.7785ZM226.202 18.7785H224.167V13.0259H221.178V18.7785H219.143V5.76593H221.178V11.1924H224.167V5.76593H226.202V18.7785ZM239.666 18.7785H237.632V5.76593H239.666V18.7785ZM235.371 11.7823C235.924 12.427 236.2 13.4364 236.2 14.8095C236.2 16.1826 235.924 17.1875 235.371 17.8239C234.818 18.4603 233.897 18.7785 232.607 18.7785H229.066V5.76593H231.101V10.8152H232.607C233.897 10.8152 234.818 11.1375 235.371 11.7823ZM234.166 14.8095C234.166 14.0393 234.035 13.4825 233.776 13.139C233.517 12.796 233.094 12.6237 232.508 12.6237H231.101V16.9699H232.508C233.094 16.9699 233.517 16.7981 233.776 16.4546C234.036 16.1113 234.166 15.5632 234.166 14.8095ZM249.915 18.7785H247.856V10.1621L244.389 18.7785H242.53V5.76593H244.565V14.3823L248.057 5.76593H249.915V18.7785ZM249.237 1.39509C249.12 3.22076 248.107 4.13329 246.197 4.13329C244.289 4.13329 243.276 3.22076 243.158 1.39509H244.716C244.817 2.28264 245.31 2.72654 246.197 2.72654C247.085 2.72654 247.58 2.28264 247.68 1.39509H249.237Z" fill="black"/>
</svg>
