<svg width="254" height="24" viewBox="0 0 254 24" fill="none" xmlns="http://www.w3.org/2000/svg">
<path fill-rule="evenodd" clip-rule="evenodd" d="M9.92688 2.42305V5.88531H5.00469V8.50004H9.47937V11.9619H5.00469V18.1335H0.929688V2.42305H9.92688ZM11.9999 7.60503H15.7683V13.4929C15.7683 14.1683 15.9569 14.6791 16.3336 15.0242C16.6319 15.2915 17.0716 15.4249 17.6529 15.4249C18.2338 15.4249 18.6811 15.2758 18.9951 14.9774C19.356 14.6161 19.5368 14.1211 19.5368 13.4929V7.60503H23.3056V14.1763C23.3056 15.3696 22.9681 16.312 22.2928 17.0026C21.3348 17.992 19.8193 18.4868 17.7468 18.4868C15.5171 18.4868 13.9313 17.9842 12.9891 16.9794C12.3296 16.2883 11.9999 15.3538 11.9999 14.1763V7.60503ZM32.2086 10.6905H30.0653V18.1335H26.2968V10.6905H25.0956V7.60503H26.2968V4.1424H30.0653V7.60503H32.2086V10.6905ZM33.6218 7.60503H37.3902V13.4929C37.3902 14.1683 37.5788 14.6791 37.9555 15.0242C38.2538 15.2915 38.6931 15.4249 39.2744 15.4249C39.8555 15.4249 40.3035 15.2758 40.6177 14.9774C40.9786 14.6161 41.1587 14.1211 41.1587 13.4929V7.60503H44.9278V14.1763C44.9278 15.3696 44.5897 16.312 43.9143 17.0026C42.9563 17.992 41.4412 18.4868 39.3686 18.4868C37.1391 18.4868 35.5532 17.9842 34.611 16.9794C33.9513 16.2883 33.6218 15.3538 33.6218 14.1763V7.60503ZM47.5186 18.1335V7.60503H51.2871V9.32439C51.6327 8.66472 52.1271 8.17787 52.7709 7.86375C53.2894 7.5812 53.941 7.44016 54.7258 7.44016C54.758 7.44016 54.7961 7.44017 54.8443 7.45479C54.8911 7.45479 54.974 7.47068 55.0912 7.47799C55.2096 7.47799 55.3383 7.49262 55.4795 7.49262V11.0491C54.9774 10.798 54.4352 10.6723 53.8544 10.6723C53.1165 10.6723 52.5436 10.8608 52.135 11.2375C51.5699 11.7558 51.2871 12.5563 51.2871 13.6399V18.1389L47.5186 18.1335ZM65.301 8.61744V7.60503H69.0702V18.1335H65.301V16.9794C64.5788 17.9842 63.4874 18.4868 62.0272 18.4868C60.5509 18.4868 59.2876 17.9291 58.2352 16.8145C57.2304 15.7468 56.7278 14.4588 56.7278 12.9515C56.7278 11.2241 57.2694 9.81877 58.353 8.73521C59.3419 7.74622 60.6061 7.25138 62.145 7.25138C63.4324 7.25138 64.4848 7.7068 65.301 8.61744ZM62.9929 10.4549C62.3648 10.4549 61.8153 10.6826 61.3442 11.138C60.8415 11.6248 60.5905 12.1977 60.5905 12.857C60.5905 13.548 60.8339 14.1213 61.3206 14.5767C61.8233 15.0478 62.3882 15.2836 63.0164 15.2836C63.6603 15.2836 64.2253 15.0397 64.7122 14.5528C65.1833 14.0817 65.4188 13.5166 65.4188 12.857C65.4188 12.1821 65.1756 11.6091 64.6887 11.138C64.2018 10.6826 63.6367 10.4549 62.9929 10.4549ZM84.144 12.928H81.5768V18.1335H77.5021V2.42305H84.0027C85.683 2.42305 87.0101 2.89408 87.9839 3.83586C88.9571 4.77807 89.4434 6.0504 89.4434 7.65213C89.4434 9.34771 88.9802 10.6513 88.0538 11.5619C87.1272 12.4727 85.8241 12.928 84.144 12.928ZM81.5768 5.72044V9.63057H82.9428C83.7281 9.63057 84.3013 9.46587 84.6622 9.13596C85.0078 8.83763 85.1804 8.35855 85.1804 7.69888C85.1804 7.07064 85.0234 6.59969 84.7093 6.28571C84.3481 5.90903 83.7673 5.72044 82.9664 5.72044H81.5768ZM101.244 5.88531H97.8989V18.1335H93.8243V5.88531H90.4798V2.42305H101.244V5.88531ZM115.093 18.1335H108.546V2.42305H114.622C116.177 2.42305 117.323 2.83114 118.061 3.64779C118.705 4.35423 119.027 5.336 119.027 6.5919C119.027 7.28299 118.877 7.92692 118.579 8.52359C118.265 9.10447 117.841 9.51256 117.307 9.74834C118.186 9.84189 118.901 10.1563 119.45 10.6905C120.157 11.3655 120.51 12.3233 120.51 13.5639C120.51 14.8512 120.126 15.8802 119.356 16.6497C118.398 17.6387 116.978 18.1335 115.093 18.1335ZM112.62 5.55557V8.61744H113.374C114.096 8.61744 114.615 8.45259 114.928 8.12283C115.18 7.87171 115.305 7.52619 115.305 7.08651C115.305 6.66261 115.18 6.30918 114.928 6.02663C114.615 5.71251 114.096 5.55557 113.374 5.55557H112.62ZM112.62 11.6561V14.9539H113.539C114.858 14.9539 115.698 14.7415 116.059 14.3176C116.279 14.0666 116.389 13.7289 116.389 13.3052C116.389 12.8183 116.255 12.441 115.988 12.1743C115.643 11.8287 114.803 11.6561 113.468 11.6561H112.62ZM128.66 10.4549C128.016 10.4549 127.451 10.6826 126.965 11.138C126.478 11.5934 126.234 12.1663 126.234 12.857C126.234 13.4852 126.478 14.043 126.965 14.5299C127.436 15.0006 128.001 15.2361 128.66 15.2361C129.304 15.2361 129.861 15.0006 130.333 14.5299C130.819 14.0745 131.063 13.5166 131.063 12.857C131.063 12.1977 130.819 11.6248 130.333 11.138C129.846 10.6826 129.288 10.4549 128.66 10.4549ZM133.347 8.99465C134.431 10.0466 134.973 11.3339 134.973 12.857C134.973 14.3805 134.431 15.6758 133.347 16.7435C132.17 17.9054 130.6 18.4868 128.637 18.4868C126.69 18.4868 125.127 17.9054 123.95 16.7435C122.866 15.6758 122.324 14.3805 122.324 12.857C122.324 11.3339 122.866 10.0466 123.95 8.99465C125.143 7.83245 126.706 7.25138 128.637 7.25138C130.553 7.25138 132.123 7.83245 133.347 8.99465ZM137.14 0.962769H140.909V18.1335H137.14V0.962769ZM155.394 0.962769V18.1335H151.625V16.9794C150.84 17.9842 149.78 18.4868 148.445 18.4868C146.985 18.4868 145.753 18 144.748 17.0262C143.617 15.927 143.052 14.53 143.052 12.8341C143.052 11.1381 143.625 9.74847 144.771 8.66491C145.761 7.72269 147 7.25138 148.493 7.25138C149.733 7.25138 150.777 7.7068 151.625 8.61744V0.962769H155.394ZM149.317 15.2836C149.914 15.2836 150.455 15.0716 150.942 14.6477C151.476 14.1608 151.743 13.5638 151.743 12.857C151.743 12.2293 151.507 11.6636 151.036 11.1615C150.597 10.6904 150.024 10.4549 149.317 10.4549C148.658 10.4549 148.1 10.6826 147.645 11.138C147.158 11.6248 146.915 12.2215 146.915 12.928C146.915 13.5404 147.158 14.0898 147.645 14.5767C148.116 15.0478 148.673 15.2836 149.317 15.2836ZM169.95 18.1335V13.5639L166.817 18.1335H162.201L166.488 12.6453L162.837 7.60503H167.124L169.95 12.0094V7.60503H173.671V12.0094L176.498 7.60503H180.784L177.134 12.6453L181.42 18.1335H176.804L173.671 13.5639V18.1335H169.95ZM182.74 7.60503H186.508V13.0218L190.677 7.60503H193.951V18.1335H190.183V12.5747L186.061 18.1335H182.74V7.60503ZM200.311 17.1207V23.5271H196.542V7.60503H200.311V8.75876C201.112 7.75399 202.187 7.25138 203.538 7.25138C205.014 7.25138 206.262 7.7619 207.283 8.78231C208.35 9.85009 208.884 11.2083 208.884 12.857C208.884 14.5376 208.319 15.927 207.188 17.0262C206.199 18 204.997 18.4868 203.584 18.4868C202.281 18.4868 201.19 18.0314 200.311 17.1207ZM202.619 10.4549C201.96 10.4549 201.394 10.6904 200.923 11.1615C200.436 11.648 200.193 12.2295 200.193 12.9044C200.193 13.5327 200.436 14.0898 200.923 14.5767C201.394 15.0478 201.96 15.2836 202.619 15.2836C203.294 15.2836 203.852 15.0478 204.291 14.5767C204.778 14.0898 205.022 13.5327 205.022 12.9044C205.022 12.2295 204.778 11.648 204.291 11.1615C203.852 10.6904 203.294 10.4549 202.619 10.4549ZM211.051 18.1335V7.60503H214.82V11.1615H218.329V7.60503H222.097V18.1335H218.329V14.1292H214.82V18.1335H211.051ZM235.806 18.1335V7.60503H239.574V18.1335H235.806ZM228.457 11.1144H231.025C232.249 11.1144 233.191 11.4283 233.851 12.0565C234.479 12.6688 234.793 13.5089 234.793 14.5767C234.793 15.6602 234.495 16.5005 233.898 17.0972C233.207 17.788 232.249 18.1335 231.025 18.1335H224.689V7.60503H228.457V11.1144ZM228.457 15.6837H229.871C230.326 15.6837 230.663 15.574 230.883 15.3539C231.056 15.1811 231.142 14.93 231.142 14.6002C231.142 14.2547 231.049 14.0037 230.86 13.8465C230.624 13.6581 230.279 13.5639 229.823 13.5639H228.457V15.6837ZM242.166 7.60503H245.934V13.0218L250.103 7.60503H253.377V18.1335H249.609V12.5747L245.487 18.1335H242.166V7.60503ZM249.585 2.21107L252.105 3.10608C251.854 4.04829 251.32 4.77026 250.504 5.27294C249.813 5.71247 248.902 5.93278 247.771 5.93278C246.641 5.93278 245.73 5.71247 245.039 5.27294C244.223 4.77026 243.689 4.04829 243.438 3.10608L245.958 2.21107C246.084 2.63496 246.264 2.96487 246.5 3.20065C246.798 3.51477 247.221 3.6717 247.771 3.6717C248.321 3.6717 248.745 3.51477 249.043 3.20065C249.279 2.96487 249.459 2.63496 249.585 2.21107Z" fill="black"/>
</svg>
