<svg width="250" height="19" viewBox="0 0 250 19" fill="none" xmlns="http://www.w3.org/2000/svg">
<path fill-rule="evenodd" clip-rule="evenodd" d="M0.346539 10.6649C0.317305 8.58737 1.07816 6.80607 2.62902 5.32054C4.17989 3.83559 6.03053 3.11518 8.18143 3.15903C9.62998 3.15903 10.9324 3.49923 12.088 4.17965C13.2441 4.85993 14.1513 5.81446 14.8098 7.04347L11.9345 8.99692C10.9982 7.41668 9.73991 6.62665 8.15966 6.62665C7.0036 6.62665 6.05644 6.99942 5.31726 7.74577C4.57852 8.49197 4.20921 9.47228 4.20921 10.6867C4.20921 11.8721 4.57483 12.8451 5.30655 13.6058C6.06737 14.3375 7.01851 14.7035 8.15966 14.7035C9.73991 14.7035 10.9982 13.9131 11.9345 12.3329L14.8098 14.286C14.1513 15.515 13.2441 16.4702 12.088 17.1505C10.9324 17.8309 9.62268 18.1711 8.15966 18.1711C6.02323 18.2003 4.17593 17.4758 2.6176 15.9982C1.05972 14.5203 0.302541 12.7427 0.346539 10.6649ZM26.8367 13.7375H19.8137C20.223 14.5717 21.0427 14.9886 22.2717 14.9886C23.2375 14.9886 24.1958 14.7035 25.1466 14.1325L26.5073 16.7005C25.22 17.6809 23.7639 18.1711 22.1397 18.1711C20.3548 18.1711 18.8806 17.6221 17.7175 16.5249C16.5544 15.4278 15.9728 14.0597 15.9728 12.421C15.9728 10.8112 16.5394 9.4505 17.6736 8.33887C18.8076 7.22681 20.1941 6.67055 21.8328 6.67055C23.3837 6.67055 24.6458 7.17532 25.6187 8.18506C26.5917 9.19452 27.078 10.4236 27.078 11.8722C27.078 12.5011 26.9975 13.1231 26.8367 13.7375ZM19.682 11.2794H23.5004C23.4858 10.7968 23.3033 10.4018 22.9519 10.0943C22.601 9.78688 22.1767 9.63356 21.679 9.63356C21.1963 9.63356 20.7792 9.7767 20.4282 10.0614C20.0769 10.3466 19.8283 10.7529 19.682 11.2794ZM36.2739 6.93391V10.2698H35.3739C34.4959 10.2698 33.8411 10.4823 33.4097 10.9065C32.978 11.3308 32.7624 11.9965 32.7624 12.9035V17.9074H28.9872V6.93391H32.433V8.09728C33.1352 7.20491 34.0572 6.75833 35.1983 6.75833C35.5642 6.75833 35.9225 6.81712 36.2739 6.93391ZM47.4672 11.5428V17.9074H44.0214V17.0074C43.2022 17.7831 42.1483 18.1711 40.861 18.1711C39.7051 18.1711 38.7872 17.8453 38.1068 17.1944C37.4265 16.543 37.0861 15.7345 37.0861 14.7688C37.0861 13.7449 37.4698 12.9437 38.2381 12.3657C39.0062 11.7877 40.0564 11.4989 41.3877 11.4989H43.6923V11.3233C43.6923 10.3869 43.1364 9.9187 42.0244 9.9187C41.5417 9.9187 41.0988 10.0207 40.6961 10.226C40.2939 10.4306 39.8224 10.7746 39.2808 11.2573L37.5251 8.86524C38.9736 7.40222 40.6269 6.67055 42.4847 6.67055C44.036 6.67055 45.2542 7.09126 46.1397 7.93276C47.0248 8.77383 47.4672 9.97743 47.4672 11.5428ZM43.6923 13.8913V13.8035H41.9145C41.2415 13.8035 40.9053 14.0818 40.9053 14.6378C40.9053 14.9009 41.0032 15.1093 41.2015 15.2631C41.3988 15.4167 41.6734 15.4932 42.0244 15.4932C42.5219 15.4932 42.9243 15.3471 43.2313 15.0546C43.5388 14.7622 43.6923 14.3739 43.6923 13.8913ZM56.2018 17.9074V3.42204H61.8866C63.5108 3.42204 64.8494 3.87973 65.9027 4.79417C66.9563 5.70861 67.4829 6.91207 67.4829 8.40418C67.4829 9.86764 66.9488 11.0671 65.8806 12.0035C64.8125 12.94 63.4814 13.4081 61.8866 13.4081H59.9774V17.9074H56.2018ZM59.9774 10.1164H61.9087C62.4353 10.1164 62.8557 9.95868 63.1705 9.64427C63.4851 9.32971 63.6423 8.91621 63.6423 8.40418C63.6423 7.892 63.4851 7.48269 63.1705 7.17515C62.8557 6.86819 62.4353 6.71444 61.9087 6.71444H59.9774V10.1164ZM76.5907 6.93391V10.2698H75.6907C74.8128 10.2698 74.1586 10.4823 73.7272 10.9065C73.2954 11.3308 73.0792 11.9965 73.0792 12.9035V17.9074H69.3043V6.93391H72.7501V8.09728C73.4525 7.20491 74.3741 6.75833 75.5151 6.75833C75.881 6.75833 76.2393 6.81712 76.5907 6.93391ZM77.425 12.421C77.3958 10.8552 77.9732 9.49804 79.1587 8.34958C80.3437 7.20097 81.7559 6.64102 83.3946 6.67055C85.0333 6.64131 86.4488 7.20097 87.6412 8.34958C88.8337 9.49804 89.4157 10.8552 89.3863 12.421C89.4155 13.9863 88.8337 15.3433 87.6412 16.4917C86.4488 17.6408 85.0333 18.2002 83.3946 18.1711C81.7559 18.2003 80.3437 17.6408 79.1587 16.4917C77.9732 15.3433 77.3956 13.9863 77.425 12.421ZM84.9305 14.0558C85.3258 13.6241 85.5236 13.0794 85.5236 12.421C85.5236 11.7627 85.3222 11.2172 84.9198 10.7859C84.5176 10.3542 84.0163 10.1382 83.4167 10.1382C82.7873 10.1382 82.275 10.3505 81.8801 10.7748C81.4848 11.1991 81.2877 11.7477 81.2877 12.421C81.2877 13.1084 81.4848 13.6606 81.8801 14.0779C82.275 14.4946 82.7873 14.7035 83.4167 14.7035C84.0312 14.7035 84.5357 14.4876 84.9305 14.0558ZM109.314 13.6058C109.314 14.8497 108.849 15.8774 107.92 16.6894C106.991 17.5015 105.824 17.9074 104.419 17.9074H97.6605V3.42204H102.883C104.288 3.42204 105.455 3.82102 106.384 4.61824C107.313 5.41574 107.778 6.44393 107.778 7.70187C107.778 8.68224 107.485 9.49429 106.9 10.1382C108.51 10.7965 109.314 11.9526 109.314 13.6058ZM102.642 6.60488H101.282V9.15037H102.642C103.096 9.15037 103.45 9.0336 103.706 8.79958C103.963 8.56556 104.091 8.25779 104.091 7.87745C104.091 7.49712 103.962 7.18984 103.706 6.95568C103.45 6.72151 103.096 6.60488 102.642 6.60488ZM104.179 14.7249C105.144 14.7249 105.627 14.3006 105.627 13.452C105.627 12.6035 105.144 12.1791 104.179 12.1791H101.282V14.7249H104.179ZM111.136 17.9074V1.44681H114.911V17.9074H111.136ZM127.179 11.5428V17.9074H123.733V17.0074C122.914 17.7831 121.86 18.1711 120.573 18.1711C119.417 18.1711 118.499 17.8453 117.819 17.1944C117.139 16.543 116.798 15.7345 116.798 14.7688C116.798 13.7449 117.183 12.9437 117.951 12.3657C118.719 11.7877 119.769 11.4989 121.1 11.4989H123.404V11.3233C123.404 10.3869 122.849 9.9187 121.736 9.9187C121.254 9.9187 120.811 10.0207 120.408 10.226C120.006 10.4306 119.534 10.7746 118.993 11.2573L117.237 8.86524C118.686 7.40222 120.339 6.67055 122.197 6.67055C123.748 6.67055 124.966 7.09126 125.852 7.93276C126.737 8.77383 127.179 9.97743 127.179 11.5428ZM123.404 13.8913V13.8035H121.627C120.954 13.8035 120.617 14.0818 120.617 14.6378C120.617 14.9009 120.715 15.1093 120.914 15.2631C121.111 15.4167 121.386 15.4932 121.736 15.4932C122.234 15.4932 122.636 15.3471 122.943 15.0546C123.251 14.7622 123.404 14.3739 123.404 13.8913ZM129.001 12.421C128.972 10.8408 129.553 9.48002 130.746 8.33887C131.938 7.19743 133.354 6.64102 134.992 6.67055C136.104 6.67055 137.088 6.93038 137.944 7.44957C138.801 7.96906 139.455 8.68954 139.909 9.61144L137.297 11.6088C136.683 10.6284 135.929 10.1382 135.037 10.1382C134.378 10.1382 133.851 10.3505 133.457 10.7748C133.061 11.1991 132.864 11.7477 132.864 12.421C132.864 13.0938 133.061 13.6422 133.457 14.0665C133.851 14.4908 134.378 14.7035 135.037 14.7035C135.914 14.7035 136.668 14.2204 137.297 13.255L139.909 15.2302C139.455 16.1517 138.801 16.8725 137.944 17.3917C137.088 17.9114 136.104 18.1711 134.992 18.1711C133.354 18.2003 131.938 17.6438 130.746 16.5028C129.553 15.3616 128.971 14.0013 129.001 12.421ZM153.516 17.9074H149.368L145.461 12.1134V17.9074H141.686V1.44681H145.461V11.3672L148.885 6.93391H153.253L149.477 11.8283L153.516 17.9074ZM163.063 17.9074V10.0943H159.881V6.93391H170.043V10.0943H166.838V17.9074H163.063ZM170.942 12.421C170.913 10.8552 171.491 9.49804 172.676 8.34958C173.861 7.20097 175.274 6.64102 176.912 6.67055C178.551 6.64131 179.966 7.20097 181.159 8.34958C182.351 9.49804 182.933 10.8552 182.903 12.421C182.932 13.9863 182.351 15.3433 181.159 16.4917C179.966 17.6408 178.551 18.2002 176.912 18.1711C175.274 18.2003 173.861 17.6408 172.676 16.4917C171.491 15.3433 170.912 13.9863 170.942 12.421ZM178.448 14.0558C178.844 13.6241 179.041 13.0794 179.041 12.421C179.041 11.7627 178.84 11.2172 178.437 10.7859C178.035 10.3542 177.534 10.1382 176.934 10.1382C176.305 10.1382 175.793 10.3505 175.398 10.7748C175.002 11.1991 174.805 11.7477 174.805 12.421C174.805 13.1084 175.002 13.6606 175.398 14.0779C175.793 14.4946 176.305 14.7035 176.934 14.7035C177.549 14.7035 178.053 14.4876 178.448 14.0558ZM185.867 6.93391H195.391V17.9074H191.638V10.0943H189.378V10.5771C189.334 13.3424 189.012 15.2996 188.412 16.4482C187.812 17.5966 186.803 18.1711 185.383 18.1711C184.959 18.1711 184.469 18.0832 183.913 17.9074V14.8127C184.03 14.8419 184.169 14.8566 184.33 14.8566C184.9 14.8566 185.299 14.4692 185.526 13.6936C185.753 12.9178 185.867 11.4844 185.867 9.39197V6.93391ZM197.388 12.421C197.359 10.8408 197.941 9.48002 199.133 8.33887C200.326 7.19743 201.741 6.64102 203.38 6.67055C204.492 6.67055 205.476 6.93038 206.332 7.44957C207.188 7.96906 207.843 8.68954 208.297 9.61144L205.685 11.6088C205.07 10.6284 204.317 10.1382 203.424 10.1382C202.765 10.1382 202.239 10.3505 201.844 10.7748C201.449 11.1991 201.252 11.7477 201.252 12.421C201.252 13.0938 201.449 13.6422 201.844 14.0665C202.239 14.4908 202.765 14.7035 203.424 14.7035C204.302 14.7035 205.056 14.2204 205.685 13.255L208.297 15.2302C207.843 16.1517 207.188 16.8725 206.332 17.3917C205.476 17.9114 204.492 18.1711 203.38 18.1711C201.741 18.2003 200.326 17.6438 199.133 16.5028C197.941 15.3616 197.359 14.0013 197.388 12.421ZM212.247 17.9074V10.0943H209.065V6.93391H219.226V10.0943H216.021V17.9074H212.247ZM220.762 17.9074V6.93391H224.538V9.69958H226.118C227.522 9.69958 228.685 10.0648 229.607 10.7966C230.529 11.5283 230.99 12.5306 230.99 13.8035C230.99 15.0763 230.529 16.0787 229.607 16.8104C228.685 17.5417 227.522 17.9074 226.118 17.9074H220.762ZM232.021 17.9074V6.93391H235.797V17.9074H232.021ZM224.538 14.747H226.052C226.783 14.747 227.149 14.4473 227.149 13.8474C227.149 13.1889 226.783 12.8596 226.052 12.8596H224.538V14.747ZM247.977 6.67055H249.184V17.9074H245.409V12.9695L239.636 18.1711H238.429V6.93391H242.205V11.8722L247.977 6.67055ZM239.944 1.33725V0.788757H242.907V1.33725C242.907 2.28853 243.28 2.76363 244.026 2.76363C244.773 2.76363 245.146 2.28853 245.146 1.33725V0.788757H248.108V1.33725C248.108 2.53717 247.728 3.51748 246.967 4.27815C246.206 5.0394 245.226 5.41975 244.026 5.41975C242.827 5.41975 241.846 5.0394 241.085 4.27815C240.325 3.51748 239.944 2.53717 239.944 1.33725Z" fill="black"/>
</svg>
