<svg width="302" height="21" viewBox="0 0 302 21" fill="none" xmlns="http://www.w3.org/2000/svg">
<path fill-rule="evenodd" clip-rule="evenodd" d="M5.86852 15.4629H0.882812V1.72092H10.0509V5.63569H5.86852V7.03637H9.53563V10.6624H5.86852V15.4629ZM11.6575 11.5278V5.84124H16.3342V11.0539C16.3342 11.4112 16.4101 11.6649 16.5608 11.8162C16.6836 11.9536 16.8702 12.0221 17.1175 12.0221C17.3644 12.0221 17.5566 11.9534 17.6942 11.8162C17.8591 11.6513 17.9415 11.3974 17.9415 11.0539V5.84124H22.6182V11.3837C22.6182 12.4411 22.2475 13.3546 21.5058 14.1236C20.4758 15.1952 19.0126 15.7306 17.1175 15.7306C15.2629 15.7306 13.821 15.2154 12.7909 14.1854C12.0352 13.4301 11.6575 12.5442 11.6575 11.5278ZM29.623 15.4629H24.9463V9.44697L23.7723 9.52869V5.84124L24.9463 5.92296V2.42073H29.623V5.92296L31.2096 5.84124V9.52869L29.623 9.44697V15.4629ZM32.1578 11.5278V5.84124H36.8341V11.0539C36.8341 11.4112 36.9104 11.6649 37.0611 11.8162C37.1838 11.9536 37.3699 12.0221 37.6174 12.0221C37.8643 12.0221 38.0564 11.9534 38.1941 11.8162C38.359 11.6513 38.4414 11.3974 38.4414 11.0539V5.84124H43.1181V11.3837C43.1181 12.4411 42.7474 13.3546 42.0057 14.1236C40.9758 15.1952 39.5125 15.7306 37.6174 15.7306C35.7628 15.7306 34.3209 15.2154 33.2908 14.1854C32.5351 13.4301 32.1578 12.5442 32.1578 11.5278ZM49.7728 15.4629H45.0961V5.84124H49.8142V6.43899C49.8142 6.65853 49.7733 6.87146 49.69 7.07741H49.7717C50.0601 6.56947 50.4518 6.17799 50.9462 5.90334C51.4683 5.61494 52.1826 5.47046 53.0891 5.47046V10.3534C52.5261 9.9966 52.0382 9.81775 51.626 9.81775C51.1179 9.81775 50.6921 9.96875 50.3488 10.2713C49.9642 10.6006 49.7717 11.0745 49.7717 11.6927L49.7728 15.4629ZM61.0428 6.99498L61.1463 6.9336C61.0367 6.6452 60.9815 6.37052 60.9815 6.1096V5.8416H65.6171V15.4633H61.0022L61.0229 15.1332C61.0506 14.8448 61.1121 14.5499 61.2084 14.2475H61.0635C60.2668 15.2365 59.3053 15.7309 58.179 15.7309C57.1076 15.7309 56.2011 15.3533 55.4594 14.5979C54.4977 13.6089 54.017 12.311 54.017 10.7042C54.017 9.05597 54.5184 7.73042 55.5211 6.72769C56.2901 5.95868 57.2382 5.5736 58.3642 5.5736C59.4494 5.5736 60.3427 6.04771 61.0428 6.99533V6.99498ZM58.6733 10.6421C58.6733 11.0403 58.8107 11.3765 59.0851 11.6513C59.3052 11.8709 59.5726 11.981 59.8888 11.981C60.2045 11.981 60.4724 11.8772 60.6924 11.672C60.9944 11.3694 61.1456 11.013 61.1456 10.6007C61.1456 10.1752 61.0086 9.83802 60.7338 9.59114C60.5005 9.38475 60.2323 9.2821 59.9302 9.2821C59.5867 9.2821 59.3052 9.39164 59.0851 9.61148C58.8105 9.88614 58.6733 10.2298 58.6733 10.6421ZM77.6483 15.4629H72.7864V1.72092H79.3791C81.0546 1.72092 82.3939 2.20134 83.3966 3.163C84.331 4.08329 84.7977 5.28489 84.7977 6.76837C84.7977 8.23797 84.3446 9.38476 83.438 10.2089C82.6139 10.9505 81.4879 11.3216 80.0593 11.3216H77.6483V15.4629ZM77.6483 5.49116V7.86072H78.4934C78.9877 7.86072 79.3587 7.73764 79.6061 7.48959C79.826 7.29723 79.9358 7.01573 79.9358 6.6449C79.9358 6.27406 79.8112 5.99286 79.5647 5.8002C79.3173 5.59425 78.9807 5.49116 78.5547 5.49116H77.6483ZM93.5129 15.4629H88.6097V6.06821L85.8076 6.19097V1.72021H96.3143V6.19097L93.5129 6.06821V15.4629ZM112.035 15.4629H102.64V1.72092H111.911V5.49116H107.625V6.76837H111.519V10.3741H107.625V11.6927H112.035V15.4629ZM116.814 10.4565L113.147 5.84124H118.545L119.245 7.20124C119.342 7.37972 119.41 7.58568 119.452 7.81897H119.575C119.615 7.66812 119.691 7.4623 119.801 7.20124L120.502 5.84124H125.879L122.232 10.4565L126.146 15.4629H120.625L119.76 13.897C119.664 13.7457 119.595 13.5607 119.554 13.3407H119.451C119.41 13.5469 119.347 13.732 119.265 13.897L118.421 15.4629H112.756L116.814 10.4565ZM132.328 15.4629H127.651V9.44697L126.477 9.52869V5.84124L127.651 5.92296V2.42073H132.328V5.92296L133.915 5.84124V9.52869L132.328 9.44697V15.4629ZM139.745 15.4629H135.068V5.84124H139.786V6.43899C139.786 6.65853 139.746 6.87146 139.662 7.07741H139.744C140.033 6.56947 140.424 6.17799 140.918 5.90334C141.441 5.61494 142.154 5.47046 143.061 5.47046V10.3534C142.498 9.9966 142.01 9.81775 141.598 9.81775C141.09 9.81775 140.665 9.96875 140.321 10.2713C139.936 10.6006 139.744 11.0745 139.744 11.6927L139.745 15.4629ZM151.015 6.99498L151.118 6.9336C151.009 6.6452 150.953 6.37052 150.953 6.1096V5.8416H155.589V15.4633H150.974L150.995 15.1332C151.023 14.8448 151.084 14.5499 151.18 14.2475H151.035C150.239 15.2365 149.278 15.7309 148.151 15.7309C147.08 15.7309 146.174 15.3533 145.432 14.5979C144.47 13.6089 143.99 12.311 143.99 10.7042C143.99 9.05597 144.491 7.73042 145.493 6.72769C146.262 5.95868 147.211 5.5736 148.337 5.5736C149.422 5.5736 150.315 6.04771 151.015 6.99533V6.99498ZM148.645 10.6421C148.645 11.0403 148.783 11.3765 149.058 11.6513C149.278 11.8709 149.545 11.981 149.861 11.981C150.177 11.981 150.444 11.8772 150.664 11.672C150.966 11.3694 151.117 11.013 151.117 10.6007C151.117 10.1752 150.98 9.83802 150.706 9.59114C150.472 9.38475 150.204 9.2821 149.902 9.2821C149.559 9.2821 149.278 9.39164 149.058 9.61148C148.783 9.88614 148.645 10.2298 148.645 10.6421ZM162.759 15.4629V1.72092H168.754C170.677 1.72092 172.043 2.10521 172.854 2.87466C173.555 3.53388 173.905 4.4268 173.905 5.5529C173.905 6.33564 173.712 6.96758 173.328 7.44819C173.026 7.8332 172.627 8.11462 172.133 8.29324L172.112 8.416C172.634 8.5534 173.115 8.82808 173.555 9.23999C174.228 9.89966 174.564 10.696 174.564 11.6299C174.564 12.7839 174.132 13.7107 173.266 14.4113C172.401 15.1119 171.227 15.4622 169.744 15.4622L162.759 15.4629ZM167.374 5.01725V6.99498H168.156C168.582 6.99498 168.898 6.89268 169.104 6.68629C169.283 6.50782 169.372 6.2675 169.372 5.96507C169.372 5.66309 169.27 5.42248 169.063 5.24386C168.871 5.09257 168.568 5.01725 168.156 5.01725H167.374ZM167.374 9.87949V12.1456H168.383C168.836 12.1456 169.186 12.0696 169.434 11.9189C169.75 11.713 169.908 11.4041 169.908 10.9922C169.908 10.6487 169.784 10.3741 169.537 10.1682C169.304 9.97583 168.939 9.87949 168.445 9.87949H167.374ZM186.266 7.20124C187.186 8.13512 187.647 9.28213 187.647 10.6421C187.647 12.0015 187.186 13.1555 186.266 14.1029C185.209 15.1881 183.711 15.7306 181.775 15.7306C179.838 15.7306 178.341 15.1881 177.283 14.1029C176.363 13.1555 175.903 12.0015 175.903 10.6421C175.903 9.28213 176.363 8.13512 177.283 7.20124C178.341 6.11607 179.838 5.57324 181.775 5.57324C183.711 5.57324 185.209 6.11607 186.266 7.20124ZM182.681 9.61148C182.462 9.39179 182.159 9.2821 181.775 9.2821C181.39 9.2821 181.088 9.39164 180.868 9.61148C180.594 9.8588 180.456 10.2024 180.456 10.6421C180.456 11.0954 180.594 11.4454 180.868 11.6927C181.088 11.9124 181.39 12.0221 181.775 12.0221C182.159 12.0221 182.462 11.9125 182.681 11.6927C182.956 11.4454 183.094 11.0954 183.094 10.6421C183.094 10.2024 182.956 9.8588 182.681 9.61148ZM193.889 15.4629H189.212V0.443359H193.889V15.4629ZM202.336 5.71813V0.443359H207.013V15.4629H202.481V15.0304C202.481 14.7831 202.529 14.4191 202.625 13.9381L202.481 13.9177C202.206 14.4536 201.848 14.8721 201.409 15.1742C200.86 15.5451 200.194 15.7306 199.411 15.7306C198.408 15.7306 197.563 15.3736 196.876 14.6593C195.929 13.7114 195.455 12.3861 195.455 10.6828C195.455 8.99349 195.95 7.65458 196.938 6.66559C197.667 5.93752 198.532 5.57324 199.534 5.57324C200.207 5.57324 200.812 5.75165 201.347 6.10889C201.677 6.32888 202.021 6.66553 202.378 7.11881H202.523C202.398 6.55561 202.337 6.0886 202.337 5.71777L202.336 5.71813ZM202.522 10.5796C202.522 10.0854 202.364 9.68026 202.048 9.36454C201.842 9.15829 201.581 9.05549 201.265 9.05549C200.922 9.05549 200.654 9.15192 200.461 9.34384C200.159 9.61849 200.008 10.0033 200.008 10.4979C200.008 10.9785 200.166 11.3765 200.482 11.6927C200.702 11.9124 200.97 12.0221 201.286 12.0221C201.602 12.0221 201.862 11.9257 202.069 11.7337C202.371 11.4727 202.522 11.0882 202.522 10.5796ZM219.952 15.4629V11.6513H219.89L217.933 15.4629H212.844L216.182 10.5597L213.112 5.84124H218.139L219.89 9.79705H219.952V5.84124H224.402V9.79705H224.463L226.215 5.84124H231.241L228.172 10.5597L231.509 15.4629H226.421L224.463 11.6513H224.402V15.4629H219.952ZM232.54 5.84124H237.073V9.05549C237.073 9.481 237.004 10.0239 236.867 10.6831L236.991 10.7035C237.17 10.2638 237.314 9.94795 237.424 9.7553L239.587 5.84124H244.016V15.4626H239.484V12.187C239.484 11.761 239.553 11.2184 239.69 10.5593L239.567 10.539C239.457 10.841 239.312 11.157 239.134 11.4864L236.97 15.4629H232.541L232.54 5.84124ZM250.691 20.181H245.993V5.84124H250.464V6.37725C250.464 6.72031 250.423 7.00189 250.341 7.22158L250.321 7.28439L250.466 7.32543C250.741 6.87216 251.07 6.49438 251.455 6.19239C252.031 5.78049 252.684 5.57395 253.412 5.57395C254.511 5.57395 255.424 5.93823 256.152 6.66631C257.086 7.60019 257.554 8.91213 257.554 10.6014C257.554 12.1809 257.052 13.5061 256.049 14.5776C255.321 15.3466 254.47 15.7313 253.495 15.7313C252.781 15.7313 252.148 15.5461 251.599 15.1753C251.159 14.8732 250.83 14.5295 250.61 14.145H250.466C250.617 14.7492 250.693 15.3744 250.693 16.02L250.691 20.181ZM250.464 10.7038C250.464 11.1982 250.602 11.5824 250.877 11.8572C251.069 12.0635 251.337 12.1663 251.68 12.1663C252.01 12.1663 252.284 12.0639 252.504 11.8572C252.82 11.5688 252.978 11.1844 252.978 10.7038C252.978 10.2506 252.827 9.87258 252.525 9.57044C252.291 9.33672 252.003 9.22036 251.66 9.22036C251.371 9.22036 251.117 9.31678 250.897 9.50871C250.609 9.78336 250.464 10.1817 250.464 10.7038ZM259.117 15.4629V5.84124H263.794V8.91132H265.484V5.84124H270.161V15.4629H265.484V12.1663H263.794V15.4629H259.117ZM283.367 15.4629V5.84124H288.044V15.4629H283.367ZM276.815 8.97306H278.793C280.208 8.97306 281.238 9.28224 281.884 9.90054C282.46 10.4494 282.749 11.2253 282.749 12.228C282.749 13.1896 282.474 13.945 281.925 14.4944C281.28 15.1401 280.311 15.4629 279.02 15.4629H272.138V5.84124H276.815V8.97306ZM276.815 13.1965H277.351C277.749 13.1965 278.045 13.1073 278.237 12.9289C278.416 12.7502 278.505 12.5027 278.505 12.187C278.505 11.9123 278.429 11.6995 278.279 11.5482C278.1 11.3695 277.811 11.2805 277.413 11.2805H276.815V13.1965ZM290.021 5.84124H294.554V9.05549C294.554 9.481 294.485 10.0239 294.348 10.6831L294.471 10.7035C294.649 10.2638 294.794 9.94795 294.903 9.7553L297.067 5.84124H301.497V15.4626H296.964V12.187C296.964 11.761 297.033 11.2184 297.17 10.5593L297.047 10.539C296.938 10.841 296.793 11.157 296.614 11.4864L294.451 15.4629H290.021V5.84124ZM297.192 1.43258L299.932 2.38005C299.616 3.24552 299.087 3.86346 298.345 4.2343C297.741 4.55046 296.896 4.70821 295.811 4.70821C294.726 4.70821 293.881 4.55046 293.277 4.2343C292.535 3.86346 292.006 3.24552 291.69 2.38005L294.431 1.43258C294.5 1.84449 294.65 2.14679 294.884 2.33901C295.09 2.51763 295.399 2.60665 295.811 2.60665C296.223 2.60665 296.533 2.51748 296.738 2.33901C296.972 2.14679 297.123 1.84449 297.192 1.43258Z" fill="black"/>
</svg>
