<svg width="252" height="22" viewBox="0 0 252 22" fill="none" xmlns="http://www.w3.org/2000/svg">
<path fill-rule="evenodd" clip-rule="evenodd" d="M8.86867 2.53822V4.41495H2.70068V9.69828H8.65384V11.5754H2.70068V20.4252H0.71582V2.53822H8.86867ZM13.2399 9.2961V15.7856C13.2399 16.9119 13.4187 17.7073 13.7762 18.1723C14.2229 18.7444 14.8756 19.0306 15.7336 19.0306C16.5921 19.0306 17.2447 18.7444 17.6914 18.1723C18.0489 17.7073 18.2281 16.9119 18.2281 15.7856V9.2961H20.1591V16.0005C20.1591 17.5021 19.819 18.6194 19.1395 19.3525C18.2635 20.2822 17.1284 20.7471 15.7336 20.7471C14.3394 20.7471 13.2041 20.2822 12.3281 19.3525C11.6485 18.6194 11.3089 17.5021 11.3089 16.0005V9.2961H13.2399ZM27.7213 11.0661H25.7907V20.4252H23.8597V11.0661H22.6796V9.2961H23.8597V5.27356H25.7907V9.2961H27.7213V11.0661ZM31.4758 9.2961V15.7856C31.4758 16.9119 31.6549 17.7073 32.0126 18.1723C32.4591 18.7444 33.1114 19.0306 33.9696 19.0306C34.828 19.0306 35.4806 18.7444 35.9273 18.1723C36.285 17.7073 36.464 16.9119 36.464 15.7856V9.2961H38.3947V16.0005C38.3947 17.5021 38.055 18.6194 37.3755 19.3525C36.4996 20.2822 35.3642 20.7471 33.9696 20.7471C32.5753 20.7471 31.4403 20.2822 30.5644 19.3525C29.8849 18.6194 29.5449 17.5021 29.5449 16.0005V9.2961H31.4758ZM42.0418 20.4252V9.2961H43.9731V10.5026C44.5987 9.51936 45.4391 9.02774 46.494 9.02774C47.0304 9.02774 47.6019 9.17978 48.2098 9.48381L47.2984 11.2267C46.9408 10.9763 46.5653 10.8513 46.1721 10.8513C45.4926 10.8513 44.9744 11.0838 44.6169 11.5486C44.1876 12.1204 43.9731 13.122 43.9731 14.5523V20.4252H42.0418ZM57.945 10.8784V9.2961H59.8756V20.4252H57.945V18.8696C56.9795 20.121 55.7099 20.7471 54.1365 20.7471C52.6351 20.7471 51.3566 20.2285 50.3017 19.1919C49.2468 18.1548 48.7194 16.7066 48.7194 14.8474C48.7194 13.0235 49.2427 11.5978 50.2889 10.5697C51.3347 9.54172 52.6172 9.02774 54.1365 9.02774C55.7459 9.02774 57.0152 9.64445 57.945 10.8784ZM54.3514 10.7439C53.3324 10.7439 52.4698 11.106 51.7634 11.8298C51.0573 12.5541 50.7042 13.5596 50.7042 14.8471C50.7042 16.0805 51.0301 17.0862 51.6828 17.864C52.3353 18.6416 53.2251 19.0302 54.3514 19.0302C55.4779 19.0302 56.376 18.6287 57.0464 17.824C57.7169 17.0193 58.052 16.036 58.052 14.8738C58.052 13.5509 57.6766 12.5318 56.9258 11.8166C56.1746 11.1014 55.3167 10.7439 54.3514 10.7439ZM70.2538 2.53786H73.4984C75.5366 2.53786 77.0381 2.95796 78.0034 3.7983C79.094 4.72765 79.64 6.0064 79.64 7.63313C79.64 9.02774 79.1707 10.2117 78.2318 11.1864C77.2932 12.1609 75.8764 12.6477 73.9816 12.6477H72.238V20.4252H70.2538V2.53786ZM72.238 4.41495V10.771H73.8738C75.0538 10.771 75.979 10.4846 76.6495 9.91276C77.3198 9.3405 77.6551 8.5451 77.6551 7.52571C77.6551 5.45199 76.3414 4.41495 73.7132 4.41495H72.238ZM91.2251 4.41495H86.8807V20.4252H84.8958V4.41495H80.5514V2.53786H91.2251V4.41495ZM100.155 2.53786H103.373C105.161 2.53786 106.529 2.91324 107.477 3.66412C108.549 4.48647 109.085 5.72012 109.085 7.36512C109.085 8.90269 108.495 10.0738 107.315 10.8784C108.46 11.1642 109.313 11.741 109.876 12.6078C110.439 13.475 110.721 14.4002 110.721 15.3834C110.721 16.1881 110.546 16.9298 110.198 17.6092C109.85 18.2887 109.416 18.834 108.898 19.245C107.896 20.0319 106.466 20.4252 104.607 20.4252H100.155V2.53786ZM102.139 4.41495V10.3956H103.641C103.909 10.3956 104.169 10.3809 104.419 10.3546C104.669 10.3282 104.968 10.2567 105.317 10.1401C105.666 10.0231 105.97 9.86734 106.229 9.67045C106.488 9.4737 106.707 9.17878 106.886 8.78543C107.065 8.39223 107.155 7.93634 107.155 7.41758C107.155 6.8636 107.048 6.38562 106.833 5.98336C106.618 5.58095 106.376 5.28131 106.108 5.08442C105.84 4.88812 105.519 4.736 105.143 4.62871C104.768 4.52201 104.481 4.45884 104.285 4.441C104.088 4.42346 103.892 4.41459 103.695 4.41459L102.139 4.41495ZM102.139 12.1653V18.5477H104.419C105.867 18.5477 106.913 18.2975 107.557 17.7969C108.343 17.2248 108.737 16.4027 108.737 15.3299C108.737 14.132 108.227 13.2556 107.208 12.7016C106.565 12.3441 105.554 12.1653 104.178 12.1653H102.139ZM123.312 19.0844C122.195 20.1927 120.787 20.7471 119.088 20.7471C117.39 20.7471 115.981 20.1927 114.864 19.0844C113.747 17.976 113.188 16.5813 113.188 14.9006C113.188 13.2023 113.747 11.7988 114.864 10.6904C115.981 9.58166 117.39 9.02774 119.088 9.02774C120.787 9.02774 122.195 9.58166 123.312 10.6904C124.429 11.7988 124.988 13.2023 124.988 14.9006C124.988 16.5813 124.429 17.976 123.312 19.0844ZM121.864 11.8437C121.104 11.1108 120.179 10.7439 119.088 10.7439C117.998 10.7439 117.072 11.1148 116.312 11.8569C115.553 12.599 115.173 13.6133 115.173 14.9006C115.173 16.1881 115.557 17.198 116.326 17.9311C117.095 18.664 118.016 19.0302 119.088 19.0302C120.161 19.0302 121.082 18.664 121.85 17.9311C122.619 17.198 123.004 16.1881 123.004 14.9006C123.004 13.5955 122.624 12.5768 121.864 11.8437ZM137.364 19.0844C136.247 20.1927 134.839 20.7471 133.14 20.7471C131.442 20.7471 130.034 20.1927 128.917 19.0844C127.799 17.976 127.24 16.5813 127.24 14.9006C127.24 13.2023 127.799 11.7988 128.917 10.6904C130.034 9.58166 131.442 9.02774 133.14 9.02774C134.839 9.02774 136.247 9.58166 137.364 10.6904C138.481 11.7988 139.04 13.2023 139.04 14.9006C139.04 16.5813 138.481 17.976 137.364 19.0844ZM135.916 11.8437C135.156 11.1108 134.23 10.7439 133.14 10.7439C132.049 10.7439 131.124 11.1148 130.365 11.8569C129.605 12.599 129.225 13.6133 129.225 14.9006C129.225 16.1881 129.61 17.198 130.379 17.9311C131.147 18.664 132.068 19.0302 133.14 19.0302C134.213 19.0302 135.134 18.664 135.903 17.9311C136.671 17.198 137.055 16.1881 137.055 14.9006C137.055 13.5955 136.676 12.5768 135.916 11.8437ZM141.99 0.875244H143.921V13.4257L147.997 9.29574H150.518L145.744 14.0695L151.376 20.4252H148.855L144.404 15.3563L143.921 15.8392V20.4252H141.99V0.875244ZM168.982 19.0844C167.865 20.1927 166.457 20.7471 164.758 20.7471C163.059 20.7471 161.651 20.1927 160.534 19.0844C159.417 17.976 158.858 16.5813 158.858 14.9006C158.858 13.2023 159.417 11.7988 160.534 10.6904C161.651 9.58166 163.059 9.02774 164.758 9.02774C166.457 9.02774 167.865 9.58166 168.982 10.6904C170.099 11.7988 170.657 13.2023 170.657 14.9006C170.657 16.5813 170.099 17.976 168.982 19.0844ZM167.533 11.8437C166.774 11.1108 165.848 10.7439 164.758 10.7439C163.667 10.7439 162.742 11.1148 161.982 11.8569C161.222 12.599 160.842 13.6133 160.842 14.9006C160.842 16.1881 161.227 17.198 161.996 17.9311C162.764 18.664 163.686 19.0302 164.758 19.0302C165.831 19.0302 166.751 18.664 167.52 17.9311C168.288 17.198 168.673 16.1881 168.673 14.9006C168.673 13.5955 168.293 12.5768 167.533 11.8437ZM182.19 1.65284H184.335C184.138 2.31412 183.803 2.87326 183.329 3.32902C182.855 3.78478 182.426 4.09322 182.042 4.25401C181.658 4.41479 181.206 4.55819 180.687 4.68331C180.598 4.70085 180.384 4.7508 180.044 4.83105C179.704 4.91145 179.445 4.97847 179.266 5.03196C179.087 5.08459 178.855 5.15757 178.569 5.24644C178.283 5.3356 178.024 5.44285 177.791 5.56797C177.559 5.69368 177.344 5.8272 177.148 5.97015C176.469 6.48891 175.919 7.20835 175.499 8.12952C175.078 9.0501 174.851 10.0291 174.815 11.0661H174.868C175.673 9.70704 177.023 9.02774 178.918 9.02774C180.581 9.02774 181.961 9.59088 183.061 10.7171C184.161 11.8437 184.711 13.2379 184.711 14.9006C184.711 16.5813 184.147 17.976 183.021 19.0844C181.895 20.1927 180.429 20.7471 178.623 20.7471C177.068 20.7471 175.79 20.2822 174.788 19.3525C173.537 18.2084 172.911 16.2955 172.911 13.6134C172.911 8.9475 173.965 5.88983 176.075 4.44172C176.236 4.33501 176.406 4.23161 176.585 4.13339C176.764 4.03545 176.956 3.94578 177.162 3.86539C177.367 3.78499 177.542 3.71347 177.685 3.65091C177.828 3.58806 178.029 3.52518 178.288 3.4632C178.547 3.40035 178.726 3.35644 178.825 3.32867C178.923 3.30235 179.119 3.25698 179.414 3.19413C179.709 3.13128 179.893 3.09176 179.964 3.07422C180.679 2.91344 181.198 2.72124 181.52 2.49789C181.842 2.27411 182.064 1.99305 182.19 1.6532V1.65284ZM181.586 11.8437C180.826 11.1108 179.901 10.7439 178.81 10.7439C177.72 10.7439 176.794 11.1148 176.035 11.8569C175.275 12.599 174.895 13.6133 174.895 14.9006C174.895 16.1881 175.28 17.198 176.048 17.9311C176.817 18.664 177.738 19.0302 178.81 19.0302C179.883 19.0302 180.804 18.664 181.572 17.9311C182.341 17.198 182.726 16.1881 182.726 14.9006C182.726 13.5955 182.346 12.5768 181.586 11.8437ZM187.66 20.4252V9.29574H189.591V13.5599H191.576C193.114 13.5599 194.24 13.9262 194.955 14.6597C195.527 15.2314 195.813 16.0089 195.813 16.9922C195.813 18.0292 195.482 18.8606 194.821 19.4866C194.159 20.1122 193.069 20.4252 191.549 20.4252H187.66ZM189.591 18.709H191.388C192.192 18.709 192.764 18.6096 193.104 18.4139C193.587 18.092 193.828 17.6182 193.828 16.9922C193.828 16.3486 193.596 15.8838 193.131 15.5979C192.809 15.3833 192.237 15.276 191.415 15.276H189.591V18.709ZM197.154 20.4252V9.29574H199.084V20.4252H197.154ZM208.685 20.4252V16.0536C207.63 16.2144 206.754 16.2952 206.057 16.2952C204.841 16.2952 203.938 16.027 203.348 15.4909C202.722 14.9364 202.41 14.0246 202.41 12.7552V9.29574H204.341V12.4872C204.341 13.0949 204.421 13.533 204.582 13.8011C204.832 14.2839 205.395 14.5252 206.271 14.5252C207.058 14.5252 207.863 14.4447 208.685 14.2836V9.29574H210.616V20.4252H208.685ZM214.263 20.4252V9.29574H216.194V13.855H221.45V9.29574H223.381V20.4252H221.45V15.625H216.194V20.4252H214.263ZM227.028 20.4252V9.29574H228.959V13.5599H230.943C232.481 13.5599 233.607 13.9262 234.322 14.6597C234.894 15.2314 235.181 16.0089 235.181 16.9922C235.181 18.0292 234.85 18.8606 234.188 19.4866C233.527 20.1122 232.436 20.4252 230.916 20.4252H227.028ZM228.959 18.709H230.756C231.56 18.709 232.132 18.6096 232.472 18.4139C232.955 18.092 233.196 17.6182 233.196 16.9922C233.196 16.3486 232.963 15.8838 232.499 15.5979C232.177 15.3833 231.605 15.276 230.782 15.276H228.959V18.709ZM236.521 20.4252V9.29574H238.452V20.4252H236.521ZM242.099 9.29574H244.03V16.6439L251.646 8.43785V20.4252H249.715V12.9968L242.099 21.2028V9.29574ZM243.065 4.4956L244.674 3.87859C244.996 4.95133 245.755 5.48768 246.953 5.48768C248.151 5.48768 248.911 4.95133 249.233 3.87859L250.842 4.4956C250.556 5.29983 250.068 5.93449 249.38 6.39946C248.691 6.86428 247.883 7.09712 246.953 7.09712C246.023 7.09712 245.214 6.86428 244.526 6.39946C243.838 5.93449 243.351 5.29983 243.065 4.4956Z" fill="black"/>
</svg>
