<svg width="250" height="15" viewBox="0 0 250 15" fill="none" xmlns="http://www.w3.org/2000/svg">
<path fill-rule="evenodd" clip-rule="evenodd" d="M4.52771 12.3204L3.8197 14.2286H0.101562L5.72748 0.459595H7.73376L13.2808 14.2286H9.56303L8.85501 12.3204H4.52771ZM6.69136 6.4786L5.68823 9.15363H7.6945L6.69136 6.4786ZM19.5359 4.27551C21.1095 4.27551 22.4013 4.87834 23.411 6.08498L21.5814 8.0718C20.9391 7.52103 20.2574 7.24549 19.5359 7.24549C19.0114 7.24549 18.5527 7.43236 18.1591 7.80612C17.7659 8.17988 17.5692 8.68159 17.5692 9.311C17.5692 9.94041 17.7659 10.4418 18.1591 10.8155C18.5527 11.1893 19.0114 11.3762 19.5359 11.3762C20.2574 11.3762 20.9391 11.101 21.5814 10.5504L23.411 12.5367C22.4013 13.7432 21.1095 14.3467 19.5359 14.3467C18.1329 14.3467 16.9428 13.8548 15.9658 12.8711C14.9888 11.8879 14.5006 10.7011 14.5006 9.311C14.5006 7.92092 14.9888 6.73418 15.9658 5.7506C16.9428 4.76702 18.1329 4.27551 19.5359 4.27551ZM32.4004 7.22604H31.161C30.4923 7.22604 29.9646 7.43906 29.5779 7.865C29.1909 8.29138 28.9977 8.8913 28.9977 9.66483V14.2286H25.9287V4.39328H27.9549L28.3093 6.24253C29.1223 4.91779 30.3157 4.25571 31.8893 4.25571H32.4004V7.22604ZM39.0287 4.25571C40.4321 4.25571 41.6255 4.75074 42.6087 5.74061C43.5923 6.73091 44.0847 7.92092 44.0847 9.311C44.0847 10.7011 43.5923 11.8879 42.6087 12.8711C41.6255 13.8548 40.4321 14.3467 39.0287 14.3467C37.6258 14.3467 36.4364 13.8548 35.4594 12.8711C34.4824 11.8879 33.9934 10.7011 33.9934 9.311C33.9934 7.90762 34.4856 6.71429 35.4694 5.73115C36.4527 4.74742 37.6386 4.25571 39.0287 4.25571ZM40.4062 7.79631C40.013 7.41626 39.5533 7.22604 39.0287 7.22604C38.5042 7.22604 38.0456 7.41626 37.6519 7.79631C37.2587 8.17664 37.0624 8.68159 37.0624 9.311C37.0624 9.94041 37.2587 10.4418 37.6519 10.8155C38.0456 11.1893 38.5042 11.3762 39.0287 11.3762C39.5533 11.3762 40.013 11.1893 40.4062 10.8155C40.7998 10.4418 40.9964 9.94041 40.9964 9.311C40.9964 8.68159 40.7998 8.17664 40.4062 7.79631ZM58.6011 4.25571C60.0041 4.25571 61.0729 4.69485 61.8072 5.57377C62.5414 6.45211 62.9084 7.62603 62.9084 9.09475V14.2286H59.8401V9.27175C59.8401 8.5371 59.6926 8.01284 59.3976 7.69799C59.1025 7.38314 58.666 7.22604 58.0894 7.22604C56.9089 7.22604 56.3194 7.92751 56.3194 9.33045V14.2286H53.2503V9.27175C53.2503 7.90769 52.6736 7.22604 51.5196 7.22604C50.3392 7.22604 49.7495 7.92751 49.7495 9.33045V14.2286H46.6805V4.39328H48.7068L48.923 5.57377C49.6051 4.69485 50.6345 4.25571 52.0113 4.25571C53.4802 4.25571 54.5943 4.76066 55.3551 5.7704C56.0105 4.76066 57.0928 4.25571 58.6011 4.25571ZM69.7338 5.7506H75.2808V8.91739H69.7338V11.0618H75.8118V14.2286H66.39V0.459595H75.8118V3.60693H69.7338V5.7506ZM82.8142 11.6715L80.9656 14.2286H77.4248L81.1226 9.09475L77.6604 4.39328H81.1819L82.8927 6.61617L84.5057 4.39328H88.0465L84.5849 9.21251L88.2627 14.2286H84.7419L82.8142 11.6715ZM94.1638 7.36361V14.2286H91.0755V7.36361H89.8757V4.39328H91.0755V1.08874H94.1638V4.39328H95.3635V7.36361H94.1638ZM104.254 7.22622H103.015C102.347 7.22622 101.819 7.43924 101.432 7.86518C101.045 8.29156 100.851 8.89148 100.851 9.66501V14.2286H97.7831V4.39346H99.8093L100.163 6.24253C100.976 4.91779 102.17 4.25589 103.743 4.25589H104.254V7.22622ZM115.663 14.2286H113.657L113.46 13.2648C112.673 13.9859 111.709 14.3467 110.569 14.3467C109.192 14.3467 108.061 13.8615 107.176 12.891C106.29 11.9208 105.847 10.7274 105.847 9.31118C105.847 7.89494 106.29 6.69834 107.176 5.72134C108.061 4.74433 109.192 4.25589 110.569 4.25589C111.709 4.25589 112.68 4.62286 113.48 5.35752L113.657 4.39346H115.663V14.2286ZM109.507 10.8157C109.9 11.1895 110.359 11.3763 110.883 11.3763C111.408 11.3763 111.867 11.1895 112.26 10.8157C112.654 10.442 112.85 9.94059 112.85 9.31118C112.85 8.68177 112.654 8.17682 112.26 7.79648C111.867 7.41644 111.408 7.22622 110.883 7.22622C110.359 7.22622 109.9 7.41644 109.507 7.79648C109.113 8.17682 108.916 8.68177 108.916 9.31118C108.916 9.94059 109.113 10.442 109.507 10.8157ZM119.263 0.459595H124.731C125.505 0.459595 126.187 0.551826 126.777 0.73527C127.367 0.918714 127.829 1.14147 128.163 1.40385C128.498 1.66608 128.766 1.9774 128.97 2.33829C129.173 2.69875 129.308 3.0265 129.373 3.32162C129.439 3.61659 129.471 3.90817 129.471 4.197C129.471 5.56063 128.908 6.52437 127.78 7.08829C128.409 7.24572 128.917 7.60946 129.304 8.18011C129.691 8.75061 129.884 9.42266 129.884 10.1962C129.884 11.4027 129.478 12.3765 128.665 13.1173C127.852 13.8582 126.508 14.2286 124.633 14.2286H119.263L119.263 0.459595ZM122.606 3.60693V5.73133H125.104C125.537 5.73133 125.846 5.6203 126.029 5.39695C126.213 5.17404 126.305 4.93118 126.305 4.66895C126.305 4.40658 126.216 4.16422 126.039 3.94131C125.862 3.7184 125.55 3.60693 125.104 3.60693H122.606ZM122.606 8.60317V11.0618H125.341C125.826 11.0618 126.18 10.9404 126.403 10.6979C126.626 10.4552 126.737 10.1634 126.737 9.82239C126.737 9.49467 126.622 9.20934 126.393 8.96699C126.164 8.72405 125.813 8.60317 125.341 8.60317H122.606ZM136.926 4.25589C138.33 4.25589 139.523 4.75092 140.507 5.74079C141.49 6.73109 141.982 7.9211 141.982 9.31118C141.982 10.7013 141.49 11.8881 140.507 12.8712C139.523 13.855 138.33 14.3467 136.926 14.3467C135.524 14.3467 134.333 13.855 133.356 12.8712C132.379 11.8881 131.891 10.7013 131.891 9.31118C131.891 7.9078 132.383 6.71447 133.366 5.73133C134.35 4.7476 135.536 4.25589 136.926 4.25589ZM138.303 7.79648C137.91 7.41644 137.451 7.22622 136.926 7.22622C136.402 7.22622 135.943 7.41644 135.55 7.79648C135.156 8.17682 134.959 8.68177 134.959 9.31118C134.959 9.94059 135.156 10.442 135.55 10.8157C135.943 11.1895 136.402 11.3763 136.926 11.3763C137.451 11.3763 137.91 11.1895 138.303 10.8157C138.697 10.442 138.893 9.94059 138.893 9.31118C138.893 8.68177 138.697 8.17682 138.303 7.79648ZM144.677 14.2286V0.459595H147.764V14.2286H144.677ZM160.097 14.2286H158.091L157.894 13.2648C157.107 13.9859 156.143 14.3467 155.003 14.3467C153.626 14.3467 152.495 13.8615 151.61 12.891C150.724 11.9208 150.282 10.7274 150.282 9.31118C150.282 7.89494 150.724 6.69834 151.61 5.72134C152.495 4.74433 153.626 4.25589 155.003 4.25589C155.75 4.25589 156.426 4.43934 157.029 4.80652V0.459595H160.097V14.2286ZM153.941 10.8157C154.334 11.1895 154.793 11.3763 155.318 11.3763C155.842 11.3763 156.301 11.1895 156.694 10.8157C157.088 10.442 157.285 9.94059 157.285 9.31118C157.285 8.68177 157.088 8.17682 156.694 7.79648C156.301 7.41644 155.842 7.22622 155.318 7.22622C154.793 7.22622 154.334 7.41644 153.941 7.79648C153.548 8.17682 153.351 8.68177 153.351 9.31118C153.351 9.94059 153.548 10.442 153.941 10.8157ZM174.988 7.36379V14.2286H171.919V7.36379H169.146V4.39346H177.741V7.36379H174.988ZM184.331 4.25589C185.735 4.25589 186.928 4.75092 187.911 5.74079C188.895 6.73109 189.387 7.9211 189.387 9.31118C189.387 10.7013 188.895 11.8881 187.911 12.8712C186.928 13.855 185.735 14.3467 184.331 14.3467C182.928 14.3467 181.738 13.855 180.761 12.8712C179.784 11.8881 179.296 10.7013 179.296 9.31118C179.296 7.9078 179.788 6.71447 180.771 5.73133C181.754 4.7476 182.941 4.25589 184.331 4.25589ZM185.708 7.79648C185.315 7.41644 184.856 7.22622 184.331 7.22622C183.807 7.22622 183.348 7.41644 182.954 7.79648C182.561 8.17682 182.364 8.68177 182.364 9.31118C182.364 9.94059 182.561 10.442 182.954 10.8157C183.348 11.1895 183.807 11.3763 184.331 11.3763C184.856 11.3763 185.315 11.1895 185.708 10.8157C186.102 10.442 186.298 9.94059 186.298 9.31118C186.298 8.68177 186.102 8.17682 185.708 7.79648ZM195.996 8.83888L193.675 14.2286H190.429L194.992 4.39346H196.999L201.543 14.2286H198.297L195.996 8.83888ZM207.621 4.27569C209.194 4.27569 210.486 4.87852 211.495 6.08516L209.666 8.07198C209.024 7.52121 208.342 7.24567 207.621 7.24567C207.096 7.24567 206.638 7.43254 206.244 7.8063C205.851 8.18006 205.654 8.68177 205.654 9.31118C205.654 9.94059 205.851 10.442 206.244 10.8157C206.638 11.1895 207.096 11.3763 207.621 11.3763C208.342 11.3763 209.024 11.1012 209.666 10.5506L211.495 12.5369C210.486 13.7433 209.194 14.3467 207.621 14.3467C206.218 14.3467 205.028 13.855 204.051 12.8712C203.074 11.8881 202.585 10.7013 202.585 9.31118C202.585 7.9211 203.074 6.73436 204.051 5.75078C205.028 4.7672 206.218 4.27569 207.621 4.27569ZM218.872 7.36379V14.2286H215.804V7.36379H213.03V4.39346H221.625V7.36379H218.872ZM226.878 7.02941H228.569C229.421 7.02941 230.149 7.14776 230.752 7.38324C231.356 7.6193 231.795 7.93447 232.071 8.32767C232.346 8.72131 232.536 9.10109 232.641 9.46856C232.746 9.83574 232.798 10.2224 232.798 10.6287C232.798 11.0357 232.745 11.4224 232.641 11.7894C232.536 12.1569 232.346 12.5368 232.071 12.9305C231.795 13.3237 231.356 13.6386 230.752 13.8744C230.149 14.1106 229.421 14.2286 228.569 14.2286H223.809V4.39346H226.878V7.02941ZM236.693 14.2286H233.624V4.39346H236.693V14.2286ZM226.878 11.3569H228.904C229.468 11.3569 229.75 11.114 229.75 10.6287C229.75 10.1569 229.468 9.9207 228.904 9.9207H226.878V11.3569ZM246.873 2.77081C246.25 3.38078 245.485 3.68526 244.58 3.68526C243.676 3.68526 242.908 3.38078 242.279 2.77081C241.65 2.16098 241.335 1.39714 241.335 0.479044H243.42C243.42 0.793895 243.531 1.05958 243.754 1.27591C243.978 1.49225 244.252 1.6003 244.58 1.6003C244.895 1.6003 245.164 1.4921 245.387 1.27591C245.61 1.05958 245.721 0.793895 245.721 0.479044H247.807C247.807 1.39714 247.495 2.16098 246.873 2.77081ZM249.184 14.2286H246.115V9.2912L241.886 14.2286H239.88V4.39346H242.948V9.33063L247.177 4.39346H249.184V14.2286Z" fill="black"/>
</svg>
