<svg width="254" height="21" viewBox="0 0 254 21" fill="none" xmlns="http://www.w3.org/2000/svg">
<path fill-rule="evenodd" clip-rule="evenodd" d="M7.05869 4.35852H3.10395V9.92163H6.6897V11.9254H3.10395V19.9409H0.730469V2.35403H7.05869V4.35852ZM15.6016 8.15481V16.1178C15.6016 17.4889 15.3377 18.504 14.8108 19.1633C14.2833 19.8225 13.3427 20.1518 11.9894 20.1518C10.759 20.1518 9.84472 19.7566 9.24732 18.9656C8.80764 18.3856 8.5882 17.4363 8.5882 16.1178V8.15481H10.7501V15.221C10.7501 15.3087 10.7501 15.4452 10.7647 15.63C10.7793 15.8145 10.7793 15.9507 10.7793 16.0386C10.7969 16.4783 10.819 16.8125 10.8453 17.0407C10.8717 17.2694 10.9899 17.4974 11.2011 17.7262C11.4121 17.9545 11.7107 18.0688 12.0972 18.0688C12.3612 18.0688 12.5806 18.0207 12.7563 17.9242C12.932 17.8278 13.0687 17.7174 13.1657 17.5945C13.2621 17.4717 13.3326 17.2868 13.3766 17.0407C13.4204 16.7947 13.4422 16.6017 13.4422 16.4608C13.4422 16.3204 13.4422 16.1008 13.4276 15.8016C13.413 15.5029 13.413 15.3092 13.413 15.2214V8.15517L15.6016 8.15481ZM21.6661 9.84276H20.4792V19.9409H18.3173V9.84276H17.1043V8.15481H18.3173V4.80674H20.4792V8.15481H21.6661V9.84276ZM30.2351 8.15481V16.1178C30.2351 17.4889 29.9708 18.504 29.4439 19.1633C28.9164 19.8225 27.9761 20.1518 26.6229 20.1518C25.3923 20.1518 24.4782 19.7566 23.8808 18.9656C23.4411 18.3856 23.2213 17.4363 23.2213 16.1178V8.15481H25.3835V15.221C25.3835 15.3087 25.3835 15.4452 25.3982 15.63C25.4128 15.8145 25.4128 15.9507 25.4128 16.0386C25.4303 16.4783 25.4521 16.8125 25.4784 17.0407C25.5048 17.2694 25.623 17.4974 25.8342 17.7262C26.0452 17.9545 26.3441 18.0688 26.7307 18.0688C26.9945 18.0688 27.2141 18.0207 27.3898 17.9242C27.5653 17.8278 27.7018 17.7174 27.7988 17.5945C27.8952 17.4717 27.9658 17.2868 28.0097 17.0407C28.0535 16.7947 28.0753 16.6017 28.0753 16.4608C28.0753 16.3204 28.0753 16.1008 28.0607 15.8016C28.0461 15.5029 28.0461 15.3092 28.0461 15.2214V8.15517L30.2351 8.15481ZM37.4069 7.89145V10.1589C37.3192 10.1414 37.1872 10.1325 37.0115 10.1325C36.1678 10.1325 35.5959 10.3566 35.2971 10.8045C34.9984 11.2528 34.8493 11.9167 34.8493 12.7954V19.9409H32.687V8.15481H34.8493V9.6315C35.2005 9.03366 35.556 8.60321 35.9166 8.33966C36.2771 8.07568 36.7738 7.92667 37.4069 7.89145ZM45.6333 19.9409H43.4443V18.4381C43.1983 19.0003 42.9168 19.4226 42.6007 19.7036C42.284 19.9848 41.8452 20.1254 41.2824 20.1254C40.8429 20.1254 40.4518 20.0244 40.109 19.8224C39.7664 19.6202 39.4982 19.3216 39.3047 18.926C39.1116 18.5307 38.9538 18.1436 38.8308 17.7658C38.708 17.3879 38.6193 16.922 38.5667 16.368C38.5141 15.8144 38.4834 15.3795 38.4746 15.0633C38.46 14.7468 38.4603 14.3602 38.4603 13.9031C38.4603 13.4462 38.4751 13.0637 38.4868 12.7558C38.5043 12.4484 38.535 12.0311 38.5788 11.5036C38.6227 10.9762 38.7099 10.5326 38.8422 10.1721C38.9737 9.81198 39.1368 9.45131 39.3304 9.09086C39.5239 8.73084 39.7921 8.45389 40.1347 8.2608C40.4774 8.06741 40.8684 7.97067 41.3081 7.97067C42.2043 7.97067 42.9162 8.48049 43.4436 9.50018V8.15481H45.6318L45.6333 19.9409ZM43.5235 14.6943V13.4285C43.5235 11.1082 43.0579 9.94804 42.126 9.94804C41.1767 9.94804 40.7029 11.0466 40.7029 13.244V14.852C40.7029 17.0671 41.1767 18.174 42.126 18.174C43.0579 18.174 43.5235 17.0146 43.5235 14.6943ZM54.3607 2.35403H57.4718C58.5793 2.35403 59.4409 2.53915 60.0562 2.90823C61.2159 3.61146 61.7955 5.0615 61.7955 7.25873C61.7955 9.19213 61.286 10.5546 60.2667 11.3455C59.581 11.873 58.4036 12.1363 56.7338 12.1363V19.9409H54.3607V2.35403ZM56.7338 10.1061H56.945C57.8591 10.1061 58.4824 9.87803 58.8164 9.42095C59.1503 8.96403 59.3175 8.26078 59.3175 7.31155C59.3175 5.34263 58.5618 4.35852 57.05 4.35852H56.7338V10.1061ZM70.4701 4.43739H67.7808V19.9409H65.4605V4.43739H62.7712V2.35403H70.4701V4.43739ZM84.8138 17.5153V19.6775C84.251 20.0115 83.6098 20.1782 82.8889 20.1782C79.3384 20.1782 77.5631 17.2693 77.5631 11.4511C77.5631 5.22852 79.3211 2.11707 82.8368 2.11707C83.5225 2.11707 84.181 2.29276 84.8138 2.64416V4.78033C84.2689 4.48156 83.7595 4.33175 83.285 4.33175C82.7753 4.33175 82.3268 4.44573 81.9403 4.67434C81.5533 4.9031 81.2499 5.23717 81.0303 5.67641C80.8106 6.11594 80.6305 6.54632 80.49 6.9686C80.3497 7.39045 80.2529 7.91336 80.2003 8.53736C80.1477 9.16137 80.1122 9.64902 80.0946 10.0009C80.0771 10.3522 80.0682 10.792 80.0682 11.3191C80.0682 15.6783 81.1846 17.8579 83.417 17.8579C83.8919 17.8579 84.3574 17.7439 84.8145 17.5153H84.8138ZM92.9217 11.9914C93.0006 12.598 93.0401 13.2878 93.0401 14.0609C93.0401 14.8345 93.0006 15.5203 92.9217 16.1178C92.8427 16.7152 92.684 17.3485 92.447 18.0163C92.2095 18.6842 91.8272 19.2028 91.3001 19.5719C90.7727 19.9411 90.1133 20.1254 89.3224 20.1254C88.6896 20.1254 88.1401 19.9937 87.6744 19.73C87.2087 19.4664 86.8486 19.1367 86.5938 18.7415C86.3389 18.3458 86.1367 17.858 85.9871 17.278C85.8379 16.6978 85.7407 16.1663 85.6967 15.6828C85.6528 15.1993 85.631 14.6588 85.631 14.0609C85.631 13.4635 85.6487 12.9227 85.6838 12.4396C85.7189 11.956 85.8112 11.42 85.9607 10.8313C86.1104 10.2425 86.3126 9.75484 86.5674 9.36778C86.8222 8.98131 87.1872 8.65188 87.6615 8.37928C88.136 8.10667 88.6896 7.97067 89.3224 7.97067C90.1133 7.97067 90.7727 8.15493 91.3001 8.52416C91.8272 8.89339 92.2095 9.41179 92.447 10.0801C92.684 10.7481 92.8426 11.385 92.9217 11.9914ZM90.7727 14.7468V13.3232C90.7727 11.0729 90.307 9.94804 89.3752 9.94804C88.4436 9.94804 87.9777 11.0639 87.9777 13.2965V14.7203C87.9777 16.9703 88.4436 18.0955 89.3752 18.0955C90.307 18.0955 90.7727 16.9792 90.7727 14.7468ZM102.031 19.9409H99.869V12.2948C99.8515 11.9083 99.8345 11.6133 99.8169 11.4112C99.7994 11.209 99.7551 10.9674 99.6849 10.686C99.6147 10.4048 99.4871 10.1986 99.3023 10.0669C99.1179 9.93532 98.8856 9.86881 98.6043 9.86881C98.2877 9.86881 98.0285 9.93902 97.8264 10.0801C97.6242 10.2204 97.4833 10.4402 97.4046 10.7388C97.3256 11.0381 97.2772 11.2882 97.2597 11.4904C97.2421 11.6927 97.2333 11.9694 97.2333 12.3208V19.9409H95.0714V8.15481H97.2333V9.52587C97.5671 8.99849 97.9146 8.60808 98.2746 8.35287C98.635 8.09795 99.0969 7.97067 99.6592 7.97067C100.151 7.97067 100.56 8.05819 100.885 8.23403C101.21 8.40973 101.452 8.66479 101.61 8.99879C101.768 9.33308 101.878 9.67566 101.94 10.0269C102.001 10.3787 102.032 10.7829 102.032 11.2399L102.031 19.9409ZM111.233 19.9409H109.045V18.4381C108.799 19.0003 108.517 19.4226 108.201 19.7036C107.885 19.9848 107.445 20.1254 106.883 20.1254C106.443 20.1254 106.052 20.0244 105.709 19.8224C105.367 19.6202 105.099 19.3216 104.905 18.926C104.712 18.5307 104.554 18.1436 104.43 17.7658C104.308 17.3879 104.22 16.922 104.167 16.368C104.114 15.8144 104.084 15.3795 104.075 15.0633C104.06 14.7468 104.061 14.3602 104.061 13.9031C104.061 13.5162 104.06 13.191 104.075 12.9275C104.09 12.6639 104.106 12.308 104.141 11.8597C104.176 11.4114 104.229 11.029 104.299 10.7128C104.369 10.3962 104.475 10.0535 104.615 9.68432C104.756 9.31509 104.927 9.01664 105.129 8.78788C105.331 8.55956 105.586 8.36593 105.894 8.20763C106.202 8.04976 106.549 7.97067 106.936 7.97067C107.463 7.97067 107.881 8.09358 108.188 8.34002C108.496 8.58603 108.781 8.97265 109.045 9.50018V0.719604H111.234L111.233 19.9409ZM109.124 14.6943V13.4285C109.124 11.1082 108.658 9.94804 107.726 9.94804C106.777 9.94804 106.303 11.0466 106.303 13.244V14.852C106.303 17.0671 106.777 18.174 107.726 18.174C108.658 18.174 109.124 17.0146 109.124 14.6943ZM131.325 19.9409H129.031C128.767 15.9329 128.618 13.4987 128.583 12.6373C128.583 12.3738 128.565 11.9827 128.53 11.464C128.495 10.9457 128.477 10.5545 128.477 10.291C128.46 9.99177 128.456 9.71956 128.463 9.47341C128.478 9.22741 128.478 8.95447 128.463 8.65584C128.448 8.35707 128.432 8.0847 128.397 7.83899C128.239 8.87607 127.492 12.9099 126.156 19.9409H124.574C124.469 19.4133 124.262 18.4424 123.954 17.0275C123.647 15.6124 123.418 14.5399 123.268 13.8107C123.119 13.0812 122.943 12.1409 122.741 10.9894C122.539 9.83797 122.377 8.78778 122.254 7.83899L121.568 19.9409H119.353L120.803 2.35403H122.834L124.363 9.52587C124.38 9.66619 124.429 9.878 124.507 10.1589C124.586 10.4403 124.635 10.6511 124.652 10.792C124.881 12.0574 125.1 13.481 125.311 15.0633C125.311 15.0282 125.443 14.202 125.707 12.5849C125.742 12.374 125.79 12.053 125.851 11.6221C125.913 11.1916 125.961 10.871 125.996 10.6596C126.031 10.5193 126.08 10.3127 126.141 10.0401C126.203 9.7675 126.242 9.56142 126.26 9.42095L127.631 2.35403H129.687L131.325 19.9409ZM139.788 14.4834H134.831C134.831 16.9968 135.333 18.2533 136.335 18.2533C137.231 18.2533 137.679 17.4891 137.679 15.9597H139.709C139.674 16.9968 139.525 17.7876 139.261 18.3325C138.699 19.5279 137.714 20.1254 136.308 20.1254C135.675 20.1254 135.126 19.9937 134.66 19.73C134.194 19.4664 133.839 19.1412 133.592 18.7543C133.346 18.3677 133.153 17.8799 133.012 17.2912C132.872 16.7024 132.783 16.1749 132.748 15.7092C132.713 15.2431 132.696 14.7029 132.696 14.0876C132.696 13.3319 132.731 12.6594 132.801 12.0706C132.871 11.4819 133.016 10.8446 133.236 10.1589C133.456 9.47355 133.82 8.9374 134.33 8.55093C134.84 8.16387 135.482 7.97067 136.255 7.97067C136.888 7.97067 137.433 8.12434 137.89 8.43173C138.347 8.73957 138.694 9.10896 138.931 9.53943C139.168 9.9699 139.357 10.5104 139.498 11.161C139.638 11.811 139.722 12.3739 139.748 12.8482C139.775 13.3232 139.788 13.8682 139.788 14.4834H139.788ZM134.831 12.9007H137.574C137.503 11.6002 137.345 10.7568 137.099 10.3698C136.888 10.0011 136.589 9.816 136.203 9.816C135.394 9.816 134.937 10.7829 134.831 12.7166C134.831 12.7516 134.831 12.7868 134.831 12.8218C134.831 12.8569 134.831 12.8832 134.831 12.9007ZM148.463 19.9409H146.275V18.4381C146.028 19.0003 145.747 19.4226 145.431 19.7036C145.114 19.9848 144.675 20.1254 144.113 20.1254C143.673 20.1254 143.282 20.0244 142.939 19.8224C142.597 19.6202 142.329 19.3216 142.135 18.926C141.942 18.5307 141.783 18.1436 141.66 17.7658C141.538 17.3879 141.45 16.922 141.397 16.368C141.344 15.8144 141.314 15.3795 141.305 15.0633C141.29 14.7468 141.29 14.3602 141.29 13.9031C141.29 13.5162 141.29 13.191 141.305 12.9275C141.32 12.6639 141.336 12.308 141.371 11.8597C141.406 11.4114 141.458 11.029 141.529 10.7128C141.599 10.3962 141.705 10.0535 141.845 9.68432C141.986 9.31509 142.157 9.01664 142.359 8.78788C142.561 8.55956 142.816 8.36593 143.124 8.20763C143.432 8.04976 143.779 7.97067 144.166 7.97067C144.693 7.97067 145.111 8.09358 145.418 8.34002C145.726 8.58603 146.011 8.97265 146.275 9.50018V0.719604H148.464L148.463 19.9409ZM146.354 14.6943V13.4285C146.354 11.1082 145.888 9.94804 144.956 9.94804C144.007 9.94804 143.532 11.0466 143.532 13.244V14.852C143.532 17.0671 144.007 18.174 144.956 18.174C145.888 18.174 146.354 17.0146 146.354 14.6943ZM152.959 3.5802C153.249 3.87021 153.394 4.21758 153.394 4.62188C153.394 5.02634 153.249 5.37341 152.959 5.66356C152.668 5.95356 152.33 6.09858 151.944 6.09858C151.539 6.09858 151.192 5.95386 150.902 5.66356C150.612 5.37341 150.467 5.02634 150.467 4.62188C150.467 4.21758 150.612 3.87021 150.902 3.5802C151.192 3.2902 151.539 3.14555 151.944 3.14555C152.33 3.14555 152.668 3.29035 152.959 3.5802ZM153.103 19.9409H150.942V8.15481H153.103V19.9409ZM162.596 8.15481V16.1178C162.596 17.4889 162.332 18.504 161.804 19.1633C161.277 19.8225 160.336 20.1518 158.983 20.1518C157.753 20.1518 156.838 19.7566 156.241 18.9656C155.801 18.3856 155.582 17.4363 155.582 16.1178V8.15481H157.744V15.221C157.744 15.3087 157.744 15.4452 157.758 15.63C157.773 15.8145 157.773 15.9507 157.773 16.0386C157.791 16.4783 157.813 16.8125 157.839 17.0407C157.865 17.2694 157.984 17.4974 158.195 17.7262C158.406 17.9545 158.704 18.0688 159.091 18.0688C159.355 18.0688 159.575 18.0207 159.75 17.9242C159.926 17.8278 160.062 17.7174 160.159 17.5945C160.256 17.4717 160.327 17.2868 160.371 17.0407C160.414 16.7947 160.436 16.6017 160.436 16.4608C160.436 16.3204 160.436 16.1008 160.421 15.8016C160.407 15.5029 160.407 15.3092 160.407 15.2214V8.15517L162.596 8.15481ZM176.596 19.9409H174.434V12.1891C174.434 11.2224 174.329 10.607 174.118 10.3434C173.925 10.0799 173.625 9.94804 173.221 9.94804C172.957 9.94804 172.738 10.0004 172.562 10.1061C172.387 10.2114 172.254 10.3171 172.166 10.4227C172.079 10.5279 172.013 10.7126 171.969 10.9762C171.925 11.2396 171.903 11.429 171.903 11.5429C171.903 11.6569 171.903 11.873 171.903 12.1891V19.9409H169.741V12.1891C169.741 11.8199 169.741 11.5563 169.726 11.398C169.711 11.2397 169.678 11.0202 169.608 10.7388C169.538 10.4579 169.41 10.2556 169.226 10.1325C169.041 10.0098 168.799 9.94804 168.501 9.94804C168.237 9.94804 168.017 10.0004 167.841 10.1061C167.665 10.2114 167.538 10.3171 167.459 10.4227C167.38 10.5279 167.318 10.7126 167.274 10.9762C167.231 11.2396 167.209 11.429 167.209 11.5429C167.209 11.6569 167.209 11.873 167.209 12.1891V19.9409H165.047V8.15481H167.209V9.60509C167.525 9.06017 167.85 8.65188 168.184 8.37928C168.518 8.10667 168.958 7.97067 169.503 7.97067C170.083 7.97067 170.527 8.09795 170.834 8.35287C171.142 8.60808 171.401 9.02494 171.612 9.60509C171.911 9.04278 172.245 8.6297 172.614 8.36571C172.983 8.10217 173.467 7.97067 174.064 7.97067C174.89 7.97067 175.519 8.19477 175.949 8.64264C176.38 9.09094 176.595 9.72819 176.595 10.5543L176.596 19.9409ZM190.122 14.8784V13.3232C190.122 11.7234 189.903 10.7041 189.463 10.2646C189.252 10.0536 189.006 9.94804 188.725 9.94804C188.443 9.94804 188.198 10.0532 187.987 10.2646C187.547 10.7041 187.328 11.7234 187.328 13.3232V14.8784C187.328 16.3726 187.547 17.3393 187.987 17.779C188.198 17.9899 188.443 18.0955 188.725 18.0955C189.006 18.0955 189.252 17.9902 189.463 17.779C189.903 17.3393 190.122 16.3726 190.122 14.8784ZM192.39 14.0609C192.39 16.6273 191.907 18.3677 190.94 19.2817C190.36 19.8444 189.613 20.1254 188.699 20.1254C187.767 20.1254 187.011 19.8444 186.431 19.2817C185.464 18.3677 184.98 16.6273 184.98 14.0609C184.98 11.4772 185.464 9.72844 186.431 8.81429C187.011 8.25168 187.767 7.97067 188.699 7.97067C189.613 7.97067 190.36 8.25168 190.94 8.81429C191.907 9.72844 192.39 11.4772 192.39 14.0609ZM199.377 14.8784V13.4285C199.377 11.8291 199.158 10.8094 198.718 10.3698C198.507 10.1589 198.261 10.0537 197.98 10.0537C197.699 10.0537 197.452 10.1589 197.242 10.3698C196.802 10.8094 196.582 11.8291 196.582 13.4285V14.8784C196.582 16.3726 196.802 17.3393 197.242 17.779C197.452 17.9899 197.699 18.0955 197.98 18.0955C198.261 18.0955 198.507 17.9902 198.718 17.779C199.158 17.3393 199.377 16.3726 199.377 14.8784ZM198.955 5.04369L198.323 5.36023C197.549 5.72931 196.987 6.29177 196.635 7.04747C196.319 7.7333 196.178 8.60344 196.213 9.65791C196.353 9.20083 196.582 8.83172 196.899 8.55093C197.303 8.16387 197.822 7.97067 198.454 7.97067C199.21 7.97067 199.852 8.24296 200.379 8.78788C201.223 9.70189 201.644 11.4421 201.644 14.0084C201.644 16.5396 201.152 18.2886 200.168 19.2553C199.57 19.8353 198.823 20.1254 197.927 20.1254C196.995 20.1254 196.24 19.8444 195.66 19.2817C195.238 18.8599 194.912 18.2665 194.684 17.5021C194.455 16.7372 194.324 16.0473 194.289 15.4319C194.254 14.8171 194.236 14.0262 194.236 13.0592C194.236 11.319 194.315 9.71079 194.474 8.23403C194.667 6.47633 195.185 5.18467 196.029 4.35852C196.416 3.97146 197.031 3.58484 197.875 3.19836C197.98 3.14574 198.134 3.08003 198.336 3.00066C198.539 2.92173 198.683 2.86024 198.771 2.81581C198.859 2.77196 198.964 2.71919 199.087 2.65736C199.21 2.59597 199.311 2.53905 199.391 2.48642C199.469 2.4338 199.535 2.37246 199.588 2.30157C199.799 2.0734 199.905 1.80052 199.905 1.48436H201.829C201.759 2.52114 201.426 3.33015 200.828 3.9103C200.688 4.05063 200.529 4.17819 200.353 4.2925C200.177 4.40651 200.028 4.49876 199.905 4.56907C199.782 4.63923 199.615 4.72297 199.404 4.81958C199.193 4.91606 199.044 4.99107 198.956 5.04369H198.955ZM213.378 19.9409H211.215V8.15481H213.378V19.9409ZM205.89 8.15481V12.6638H206.259C207.7 12.6638 208.763 13.0152 209.449 13.7183C210.064 14.3337 210.372 15.2304 210.372 16.4079C210.372 17.6033 210.055 18.4993 209.423 19.0972C208.825 19.6594 207.902 19.9409 206.654 19.9409H203.728V8.15481H205.89ZM205.89 18.0955H206.417C207.032 18.0955 207.472 17.9725 207.735 17.7262C208.017 17.4448 208.157 17.0053 208.157 16.4079C208.157 15.7752 207.999 15.3002 207.683 14.9841C207.366 14.6675 206.856 14.5094 206.153 14.5094H205.89V18.0955ZM219.89 19.9409V14.7996C219.345 14.9931 218.765 15.0893 218.15 15.0893C217.201 15.0893 216.48 14.8519 215.988 14.3774C215.461 13.8852 215.197 13.0416 215.197 11.8462V8.15481H217.306V11.6089C217.306 12.189 217.42 12.5934 217.649 12.8222C217.86 13.0331 218.203 13.1384 218.677 13.1384C219.152 13.1384 219.556 13.0593 219.89 12.9007V8.15481H222.053V19.9409H219.89ZM226.693 8.15481V12.6638H229.33V8.15481H231.492V19.9409H229.33V14.6151H226.693V19.9409H224.531V8.15481H226.693ZM243.62 19.9409H241.458V8.15481H243.62V19.9409ZM236.132 8.15481V12.6638H236.501C237.943 12.6638 239.006 13.0152 239.692 13.7183C240.307 14.3337 240.614 15.2304 240.614 16.4079C240.614 17.6033 240.298 18.4993 239.665 19.0972C239.068 19.6594 238.145 19.9409 236.897 19.9409H233.97V8.15481H236.132ZM236.132 18.0955H236.66C237.274 18.0955 237.714 17.9725 237.978 17.7262C238.259 17.4448 238.4 17.0053 238.4 16.4079C238.4 15.7752 238.242 15.3002 237.925 14.9841C237.609 14.6675 237.099 14.5094 236.396 14.5094H236.132V18.0955ZM246.099 8.15481H248.261V14.0348C248.261 14.4567 248.235 15.1686 248.182 16.1706C248.287 15.7314 248.507 15.072 248.841 14.1933L251.267 8.15481H253.376V19.9409H251.214V14.0876C251.214 13.3845 251.241 12.69 251.293 12.0046C251.135 12.6552 250.897 13.3756 250.581 14.1665L248.208 19.9409H246.099V8.15481ZM251.24 3.67263L253.059 4.30535C252.813 5.04365 252.427 5.61525 251.9 6.01971C251.354 6.42358 250.634 6.62566 249.737 6.62566C248.841 6.62566 248.12 6.42358 247.575 6.01971C247.048 5.61525 246.661 5.04365 246.415 4.30535L248.234 3.67263C248.322 4.04186 248.489 4.33174 248.735 4.54266C248.981 4.75358 249.315 4.85955 249.737 4.85955C250.159 4.85955 250.493 4.75402 250.739 4.54266C250.985 4.33174 251.152 4.04186 251.24 3.67263Z" fill="black"/>
</svg>
