<svg width="252" height="22" viewBox="0 0 252 22" fill="none" xmlns="http://www.w3.org/2000/svg">
<path fill-rule="evenodd" clip-rule="evenodd" d="M3.49488 12.0339L1.79229 16.0957H0.951172L7.22836 1.57161H8.06948L14.1829 16.0957H13.3418L11.6595 12.0339H3.49488ZM7.61841 2.2691L3.78251 11.3567H11.3722L7.61841 2.2691ZM23.1886 6.61799L19.4958 16.0957H18.6137L14.8391 6.61799H15.6599L19.0448 15.3365H19.0858L22.3882 6.61799H23.1886ZM25.6503 10.7824H33.1786C33.1508 9.64722 32.7994 8.72773 32.1223 8.02349C31.4457 7.31909 30.5596 6.96682 29.4658 6.96682C28.6724 6.96682 27.9748 7.18893 27.3732 7.63344C26.7715 8.07809 26.3374 8.58061 26.0706 9.14118C25.8037 9.70189 25.6639 10.2492 25.6503 10.7824ZM29.65 16.3624C28.2553 16.3624 27.1099 15.8836 26.2145 14.9264C25.3187 13.9689 24.8709 12.7519 24.8709 11.2747C24.8709 9.85229 25.3116 8.67302 26.1938 7.73621C27.0759 6.79941 28.1664 6.33089 29.4658 6.33089C30.8746 6.33089 31.9685 6.78211 32.7479 7.685C33.5277 8.58746 33.9173 9.67456 33.9173 10.9465C33.9173 10.9875 33.9173 11.0635 33.9027 11.1724C33.9027 11.2821 33.888 11.3567 33.888 11.3978H25.6206C25.6353 12.5604 26.0002 13.5723 26.7183 14.4341C27.4363 15.2955 28.4108 15.7263 29.6414 15.7263C30.9818 15.7263 32.1101 15.1658 33.0266 14.0443L33.5394 14.4752C32.5549 15.7331 31.2553 16.3624 29.6414 16.3624H29.65ZM37.1176 6.61799H37.8356C37.8897 7.30206 37.917 8.04041 37.917 8.83338H37.9584C38.2319 8.06774 38.6963 7.45909 39.353 7.00786C40.0093 6.55663 40.7277 6.33089 41.507 6.33089C42.7107 6.33089 43.5992 6.7104 44.1735 7.46946C44.7482 8.22852 45.0357 9.18226 45.0357 10.3313V16.0957H44.297V10.5365C44.297 9.52427 44.0778 8.67643 43.6404 7.9928C43.2029 7.30872 42.4712 6.96682 41.4457 6.96682C40.4608 6.96682 39.6332 7.35687 38.9633 8.13625C38.2933 8.91593 37.9584 9.9758 37.9584 11.3159V16.0957H37.199V8.91582C37.199 7.87625 37.1717 7.11073 37.1176 6.61799ZM49.7127 6.61799V16.0957H48.974V6.61799H49.7127ZM49.9589 2.63827C49.9589 2.83005 49.8976 2.99048 49.7741 3.12057C49.6513 3.25066 49.5079 3.31524 49.3437 3.31524C49.166 3.31524 49.0154 3.25095 48.8919 3.12057C48.7691 2.99048 48.7078 2.83005 48.7078 2.63827C48.7078 2.46053 48.7722 2.30676 48.9026 2.17667C49.0327 2.04658 49.1797 1.982 49.3437 1.982C49.5079 1.982 49.651 2.04629 49.7741 2.17667C49.8969 2.30676 49.9589 2.46053 49.9589 2.63827ZM53.7745 8.91582C53.7745 7.87625 53.7472 7.11073 53.6931 6.61799H54.4111C54.4652 7.30206 54.4932 8.04041 54.4932 8.83338H54.5339C54.7936 8.02667 55.2144 7.40808 55.7958 6.97717C56.3771 6.54626 57.0225 6.33089 57.7335 6.33089C57.98 6.33089 58.165 6.34544 58.2881 6.37175L58.2267 7.04872C58.0627 7.02095 57.898 7.00768 57.7335 7.00768C56.7217 7.00768 55.9352 7.42497 55.3747 8.25901C54.8141 9.0935 54.5339 10.1464 54.5339 11.4185V16.0955H53.7745V8.91582ZM66.7393 1.57161L76.5658 15.0287H76.6065V1.57161H77.3859V16.0957H76.3603L66.5337 2.59723H66.493V16.0957H65.7137V1.57161H66.7393ZM81.4891 10.7824H89.0174C88.9896 9.64722 88.6382 8.72773 87.9611 8.02349C87.2845 7.31909 86.3984 6.96682 85.3046 6.96682C84.5112 6.96682 83.8136 7.18893 83.212 7.63344C82.6104 8.07809 82.1762 8.58061 81.9094 9.14118C81.6425 9.70189 81.5027 10.2492 81.4891 10.7824ZM85.4888 16.3624C84.0942 16.3624 82.9483 15.8836 82.0529 14.9264C81.1572 13.9689 80.7097 12.7519 80.7097 11.2747C80.7097 9.85229 81.1501 8.67302 82.0322 7.73621C82.9143 6.79941 84.0053 6.33089 85.3046 6.33089C86.7134 6.33089 87.8069 6.78211 88.5863 7.685C89.3661 8.58746 89.7561 9.67456 89.7561 10.9465C89.7561 10.9875 89.7565 11.0635 89.7418 11.1724C89.7418 11.2821 89.7269 11.3567 89.7269 11.3978H81.4598C81.4744 12.5604 81.8388 13.5723 82.5568 14.4341C83.2748 15.2955 84.2496 15.7263 85.4802 15.7263C86.8206 15.7263 87.9489 15.1658 88.8654 14.0443L89.3778 14.4752C88.3934 15.7331 87.0941 16.3624 85.4802 16.3624H85.4888ZM91.3563 16.0957L95.1105 11.1107L91.766 6.61799H92.7102L95.5815 10.5977L98.4543 6.61799H99.3771L96.0333 11.0904L99.8489 16.0957H98.8639L95.5615 11.6237L92.2791 16.0957H91.3563ZM106.167 6.61799V7.23375H103.418V13.8801C103.418 15.0561 103.966 15.6444 105.06 15.6444C105.456 15.6444 105.819 15.5684 106.147 15.4185L106.208 16.0545C105.784 16.2186 105.346 16.3007 104.895 16.3007C104.211 16.3007 103.671 16.1027 103.275 15.7058C102.878 15.3093 102.679 14.7417 102.679 14.0032V7.23375H100.649V6.61799H102.66V3.84892H103.417V6.61799H106.167ZM125.307 13.6953L125.881 14.147C125.321 14.8718 124.572 15.4426 123.635 15.8598C122.698 16.2767 121.696 16.4856 120.63 16.4856C118.455 16.4856 116.667 15.7642 115.265 14.321C113.864 12.8783 113.163 11.0493 113.163 8.83338C113.163 6.61788 113.866 4.78898 115.275 3.34628C116.684 1.90314 118.469 1.18192 120.63 1.18192C121.6 1.18192 122.523 1.35617 123.399 1.70508C124.274 2.05355 124.985 2.54255 125.532 3.17196L124.978 3.68441C124.5 3.12385 123.864 2.68292 123.071 2.36135C122.278 2.03977 121.464 1.87958 120.63 1.87958C118.66 1.87958 117.057 2.54958 115.819 3.88996C114.581 5.22991 113.962 6.87821 113.962 8.83338C113.962 10.7891 114.578 12.4374 115.808 13.7773C117.039 15.1177 118.647 15.7877 120.63 15.7877C121.546 15.7877 122.424 15.6101 123.265 15.2546C124.106 14.8991 124.787 14.3793 125.307 13.6953ZM127.748 21.0395C127.379 21.0395 127.058 20.9986 126.784 20.9167L126.907 20.2397C127.167 20.3348 127.447 20.3828 127.748 20.3828C128.24 20.3828 128.633 20.2222 128.927 19.9007C129.222 19.5791 129.471 19.1448 129.676 18.5978L130.538 16.28L126.701 6.61763H127.522L130.927 15.4594L134.169 6.61763H134.969L130.251 19.0082C129.731 20.3622 128.896 21.0393 127.748 21.0393L127.748 21.0395ZM137.471 8.91582C137.471 7.87625 137.444 7.11073 137.39 6.61799H138.108C138.164 7.30206 138.189 8.04041 138.189 8.83338H138.231C138.491 8.02667 138.911 7.40808 139.493 6.97717C140.074 6.54626 140.719 6.33089 141.43 6.33089C141.677 6.33089 141.861 6.34544 141.984 6.37175L141.923 7.04872C141.759 7.02095 141.595 7.00768 141.43 7.00768C140.419 7.00768 139.632 7.42497 139.072 8.25901C138.511 9.0935 138.231 10.1464 138.231 11.4185V16.0955H137.471V8.91582ZM148.2 2.2691V16.0957H147.441V2.2691H142.518V1.57161H153.124V2.2691H148.2ZM155.853 8.81304H155.893C156.167 8.0474 156.632 7.44216 157.289 6.99751C157.945 6.5533 158.669 6.33089 159.463 6.33089C160.666 6.33089 161.545 6.70706 162.099 7.45911C162.653 8.21145 162.929 9.16867 162.929 10.3313V16.0957H162.19V10.5365C162.19 10.0715 162.147 9.64393 162.058 9.25394C161.968 8.86455 161.825 8.48823 161.627 8.12573C161.428 7.76352 161.134 7.47984 160.744 7.27461C160.355 7.06954 159.887 6.96682 159.34 6.96682C158.341 6.96682 157.51 7.3704 156.847 8.17711C156.183 8.98427 155.852 10.1262 155.852 11.603V16.0957H155.113V0.586853H155.852L155.853 8.81304ZM167.607 6.61799V16.0957H166.868V6.61799H167.607ZM167.853 2.63827C167.853 2.83005 167.792 2.99048 167.668 3.12057C167.545 3.25066 167.402 3.31524 167.238 3.31524C167.06 3.31524 166.909 3.25095 166.786 3.12057C166.663 2.99048 166.601 2.83005 166.601 2.63827C166.601 2.46053 166.666 2.30676 166.796 2.17667C166.926 2.04658 167.074 1.982 167.238 1.982C167.402 1.982 167.545 2.04629 167.668 2.17667C167.791 2.30676 167.853 2.46053 167.853 2.63827ZM171.587 6.61799H172.305C172.359 7.30206 172.387 8.04041 172.387 8.83338H172.427C172.701 8.06774 173.166 7.45909 173.823 7.00786C174.479 6.55663 175.197 6.33089 175.976 6.33089C177.18 6.33089 178.069 6.7104 178.643 7.46946C179.218 8.22852 179.505 9.18226 179.505 10.3313V16.0957H178.766V10.5365C178.766 9.52427 178.547 8.67643 178.109 7.9928C177.672 7.30872 176.94 6.96682 175.915 6.96682C174.93 6.96682 174.102 7.35687 173.432 8.13625C172.762 8.91593 172.427 9.9758 172.427 11.3159V16.0957H171.668V8.91582C171.668 7.87625 171.641 7.11073 171.587 6.61799ZM190.623 16.0957V7.25409H187.013V6.61799H194.972V7.25409H191.362V16.0957H190.623ZM201.414 16.3624C199.964 16.3624 198.771 15.8906 197.834 14.9468C196.897 14.0032 196.429 12.7996 196.429 11.3364C196.429 9.87295 196.897 8.67302 197.834 7.73621C198.771 6.79941 199.964 6.33089 201.414 6.33089C202.877 6.33089 204.077 6.79941 205.014 7.73621C205.95 8.67302 206.419 9.87295 206.419 11.3364C206.419 12.7996 205.95 14.0032 205.014 14.9468C204.077 15.8906 202.877 16.3624 201.414 16.3624ZM198.357 14.4648C199.123 15.3059 200.142 15.7263 201.414 15.7263C202.685 15.7263 203.708 15.3059 204.481 14.4648C205.253 13.6238 205.64 12.5808 205.64 11.3364C205.64 10.0918 205.253 9.05264 204.481 8.21815C203.708 7.38411 202.685 6.96682 201.414 6.96682C200.142 6.96682 199.123 7.38411 198.357 8.21815C197.591 9.05264 197.208 10.0918 197.208 11.3364C197.208 12.5808 197.591 13.6238 198.357 14.4648ZM209.701 16.0957V6.61799H210.46V10.8438H216.779V6.61799H217.517V16.0957H216.779V11.4799H210.46V16.0957H209.701ZM221.661 16.0957V6.61799H222.399V11.0697H222.441L227.385 6.61799H228.451L223.302 11.1107L229.005 16.0957H227.897L222.441 11.2133H222.399V16.0957H221.661ZM231.446 16.0957V6.61799H232.205V15.0083L238.626 6.61799H239.447V16.0957H238.709V7.62309H238.668L232.247 16.0957H231.446ZM249.458 3.63338C248.979 4.10492 248.364 4.34121 247.612 4.34121C246.86 4.34121 246.244 4.10492 245.765 3.63338C245.287 3.16154 245.006 2.56326 244.924 1.83854L245.437 1.7363C245.724 3.04935 246.449 3.70564 247.612 3.70564C248.774 3.70564 249.499 3.04935 249.786 1.7363L250.299 1.83854C250.217 2.56326 249.937 3.16154 249.458 3.63338ZM243.55 16.0957V6.61799H244.308V15.0083L250.729 6.61799H251.55V16.0957H250.812V7.62309H250.771L244.35 16.0957H243.55Z" fill="black"/>
</svg>
