<svg width="302" height="21" viewBox="0 0 302 21" fill="none" xmlns="http://www.w3.org/2000/svg">
<path fill-rule="evenodd" clip-rule="evenodd" d="M7.68289 5.00366H4.63779V7.14376H7.46199V10.4751H4.63779V16.2555H0.666992V1.53961H7.68289V5.00366ZM18.2067 5.9522V12.284C18.2067 13.0195 18.1001 13.6446 17.887 14.1593C17.6736 14.6743 17.2872 15.1301 16.7283 15.5275C15.8312 16.1597 14.787 16.476 13.5957 16.476C12.4046 16.476 11.3599 16.1597 10.4628 15.5275C9.90388 15.1301 9.51383 14.6743 9.2934 14.1593C9.07254 13.6446 8.96223 13.0195 8.96223 12.284V5.9522H12.7792V11.9974C12.7792 12.2621 12.7941 12.4717 12.8131 12.6262C12.835 12.7804 12.9122 12.9276 13.0444 13.0677C13.1774 13.208 13.3607 13.2771 13.5961 13.2771C13.846 13.2771 14.0337 13.1923 14.1588 13.0231C14.2846 12.8541 14.3534 12.6921 14.3683 12.5381C14.3829 12.3834 14.3905 12.1665 14.3905 11.8872C14.3905 11.8287 14.3905 11.7833 14.3905 11.7541V5.95149L18.2067 5.9522ZM25.5759 9.04084H24.3183V16.2555H20.5013V9.04084H19.3979V5.9522H20.5013V2.92959H24.3183V5.9522H25.5759V9.04084ZM35.8574 5.9522V12.284C35.8574 13.0195 35.7505 13.6446 35.5373 14.1593C35.3239 14.6743 34.9379 15.1301 34.379 15.5275C33.4819 16.1597 32.4374 16.476 31.2461 16.476C30.0549 16.476 29.0102 16.1597 28.1132 15.5275C27.5542 15.1301 27.1645 14.6743 26.9441 14.1593C26.7233 13.6446 26.613 13.0195 26.613 12.284V5.9522H30.4299V11.9974C30.4299 12.2621 30.4445 12.4717 30.4635 12.6262C30.4854 12.7804 30.563 12.9276 30.6951 13.0677C30.8281 13.208 31.0111 13.2771 31.2464 13.2771C31.4964 13.2771 31.6841 13.1923 31.8092 13.0231C31.9349 12.8541 32.0041 12.6921 32.019 12.5381C32.0337 12.3834 32.0408 12.1665 32.0408 11.8872C32.0408 11.8287 32.0408 11.7833 32.0408 11.7541V5.95149L35.8574 5.9522ZM44.1088 5.70918V9.98973C43.7409 9.76887 43.3881 9.65892 43.05 9.65892C42.5498 9.65892 42.1455 9.85723 41.8363 10.2545C41.5716 10.5926 41.4395 11.1224 41.4395 11.8429V16.2555H37.6225V5.9522H41.4395L41.2411 7.9599C41.8294 6.50346 42.7849 5.75347 44.1088 5.70918ZM54.4117 16.2555H50.573C50.5876 16.0645 50.6094 15.7734 50.6386 15.384C50.6679 14.9941 50.69 14.7036 50.7047 14.5122C50.0425 15.8215 49.1598 16.476 48.0568 16.476C47.439 16.476 46.9133 16.2922 46.4794 15.9243C46.0452 15.5569 45.7217 15.0751 45.5088 14.4798C45.2953 13.884 45.1444 13.3065 45.0563 12.7476C44.9686 12.1886 44.9231 11.6224 44.9231 11.0485C44.9231 10.4606 44.9716 9.88671 45.0666 9.32775C45.1631 8.7688 45.32 8.20613 45.5409 7.64016C45.7613 7.07375 46.0961 6.61425 46.5444 6.26124C46.9931 5.90824 47.5263 5.73166 48.1442 5.73166C49.2177 5.73166 50.0416 6.34926 50.6154 7.58484C50.6008 7.46791 50.5862 7.2171 50.5716 6.83472C50.5569 6.45219 50.5351 6.15816 50.5059 5.9522H54.411L54.4117 16.2555ZM50.5291 10.6517C50.5291 9.47489 50.2643 8.88632 49.7347 8.88632C49.0875 8.88632 48.764 9.74713 48.764 11.4679C48.764 12.7034 49.0509 13.321 49.6248 13.321C49.7271 13.321 49.8268 13.2992 49.9221 13.2554C50.0185 13.2115 50.0948 13.1458 50.1537 13.057C50.2121 12.9693 50.2648 12.8803 50.3082 12.7922C50.352 12.7045 50.3889 12.5823 50.4181 12.4278C50.4473 12.2736 50.4691 12.1487 50.4838 12.0531C50.4984 11.9581 50.5085 11.8214 50.5173 11.6449C50.5319 11.4684 50.5319 11.3432 50.5319 11.2698C50.5319 11.1952 50.5319 11.0784 50.5319 10.9169C50.5319 10.7549 50.5319 10.667 50.5319 10.6521L50.5291 10.6517ZM61.4726 1.53961H65.311C66.6493 1.53961 67.7383 1.72341 68.577 2.09132C69.4445 2.4737 70.1024 3.06576 70.5511 3.86706C70.9999 4.66881 71.2235 5.56218 71.2235 6.5478C71.2235 8.28358 70.6977 9.57055 69.6461 10.4087C68.5945 11.2474 67.1936 11.5856 65.443 11.424V16.2555H61.4726V1.53961ZM65.443 8.13655H65.6422C66.1124 8.13655 66.4918 7.98206 66.7784 7.67334C67.0652 7.36419 67.2088 6.96736 67.2088 6.48178C67.2088 5.9965 67.0767 5.58811 66.8112 5.25704C66.5465 4.92596 66.1786 4.76064 65.7078 4.76064H65.443V8.13655ZM80.6225 5.06968H78.4385V16.2555H74.4673V5.06968H72.2826V1.53961H80.6225V5.06968ZM95.0739 11.7326L94.8313 15.9907C94.0225 16.3437 93.2352 16.5203 92.4703 16.5203C91.4556 16.5203 90.551 16.3032 89.7567 15.8694C88.9624 15.4355 88.3303 14.8548 87.8596 14.1268C87.389 13.3983 87.0318 12.5967 86.7891 11.7216C86.5463 10.8462 86.425 9.92341 86.425 8.95269C86.425 7.55545 86.6538 6.29065 87.1095 5.15783C87.5657 4.02545 88.297 3.09518 89.3042 2.36682C90.3118 1.63874 91.5222 1.27518 92.9342 1.27518C93.6548 1.27518 94.3093 1.3992 94.8977 1.64988V5.84193C94.3388 5.2536 93.7284 4.95941 93.0662 4.95941C92.4191 4.95941 91.8894 5.18018 91.4775 5.62103C91.0657 6.06232 90.7971 6.55547 90.6724 7.09951C90.5467 7.644 90.4847 8.23907 90.4847 8.88632C90.4847 9.51894 90.5476 10.0964 90.6724 10.6185C90.7967 11.1405 91.0584 11.6149 91.4554 12.0417C91.8524 12.4681 92.3675 12.6815 92.9999 12.6815C93.6765 12.6815 94.3679 12.3654 95.0739 11.7326ZM105.752 11.2031C105.752 12.7623 105.329 14.0311 104.484 15.009C103.638 15.9872 102.443 16.476 100.899 16.476C99.3833 16.476 98.2178 15.9724 97.4014 14.9647C96.5852 13.957 96.1774 12.6814 96.1774 11.1367C96.1774 9.59239 96.5928 8.30542 97.4235 7.2758C98.2548 6.24618 99.4205 5.73166 100.921 5.73166C102.48 5.73166 103.675 6.24257 104.506 7.26474C105.337 8.28735 105.752 9.60001 105.752 11.2031ZM102.046 11.1153C102.046 10.5563 101.964 10.0009 101.803 9.44944C101.641 8.89809 101.354 8.62224 100.942 8.62224C100.545 8.62224 100.27 8.89809 100.115 9.44944C99.9609 10.0009 99.8837 10.5563 99.8837 11.1153C99.8837 11.6742 99.9609 12.2257 100.115 12.77C100.27 13.3141 100.553 13.5865 100.965 13.5865C101.362 13.5865 101.641 13.3105 101.803 12.759C101.964 12.2075 102.046 11.6596 102.046 11.1153ZM116.277 16.2559H112.437V10.8066C112.437 9.96801 112.238 9.54901 111.841 9.54901C111.298 9.54901 111.026 10.0562 111.026 11.0714V16.2559H107.209V5.95256H111.026C110.996 6.80576 110.967 7.46025 110.938 7.91601C111.556 6.46001 112.46 5.73202 113.651 5.73202C114.563 5.73202 115.229 6.07392 115.648 6.758C116.068 7.44163 116.277 8.26925 116.277 9.23997L116.277 16.2559ZM127.241 16.2559H123.337V15.8148C123.337 15.8002 123.358 15.4836 123.402 14.8659C123.064 15.3955 122.722 15.7964 122.376 16.0682C122.03 16.3403 121.593 16.4764 121.063 16.4764C120.416 16.4764 119.865 16.3074 119.408 15.9693C118.953 15.6308 118.611 15.1825 118.383 14.6236C118.155 14.0646 117.993 13.5056 117.897 12.9467C117.802 12.3877 117.755 11.8068 117.755 11.2034C117.755 10.5857 117.798 9.99365 117.886 9.42767C117.974 8.86126 118.125 8.28395 118.338 7.69547C118.551 7.10713 118.89 6.63291 119.353 6.27231C119.817 5.91229 120.371 5.73202 121.018 5.73202C122.048 5.73202 122.865 6.30551 123.468 7.4528L123.402 5.79804V0.172119H127.241L127.241 16.2559ZM123.535 11.005C123.535 9.60776 123.241 8.9088 122.653 8.9088C122.02 8.9088 121.704 9.63729 121.704 11.0931C121.704 12.4904 122.02 13.1894 122.653 13.1894C123.241 13.1894 123.535 12.461 123.535 11.005ZM141.671 16.2559H134.302V1.54033H141.671V5.00402H138.273V7.14412H141.318V10.4754H138.273V12.7258H141.671V16.2559ZM152.967 16.2559H148.532C148.076 15.0941 147.797 14.285 147.694 13.8292C147.444 14.5497 147.083 15.3588 146.613 16.2559H142.332L145.466 10.9608L142.509 5.95256H146.856C147.033 6.43814 147.282 7.18056 147.605 8.1808C147.724 7.81318 148.003 7.07047 148.444 5.95256H152.68L149.635 10.8726L152.967 16.2559ZM159.454 9.04155H158.196V16.2559H154.379V9.04155H153.276V5.95256H154.379V2.92994H158.196V5.95256H159.454V9.04155ZM166.977 5.70989V9.99045C166.609 9.76958 166.256 9.65928 165.918 9.65928C165.418 9.65928 165.014 9.85759 164.705 10.2549C164.44 10.593 164.308 11.1228 164.308 11.8433V16.2559H160.491V5.95256H164.308L164.109 7.96062C164.698 6.50418 165.653 5.75418 166.977 5.70989ZM177.281 16.2559H173.441C173.456 16.0648 173.478 15.7742 173.507 15.3848C173.536 14.9948 173.558 14.7043 173.573 14.5129C172.911 15.8222 172.029 16.4764 170.926 16.4764C170.308 16.4764 169.782 16.2926 169.348 15.9247C168.914 15.5572 168.59 15.0755 168.377 14.4801C168.163 13.8843 168.012 13.3072 167.924 12.7483C167.837 12.1893 167.793 11.6228 167.793 11.0489C167.793 10.461 167.841 9.88707 167.936 9.32811C168.031 8.76915 168.19 8.20648 168.411 7.64051C168.632 7.0741 168.966 6.6146 169.415 6.2616C169.863 5.9086 170.396 5.73202 171.014 5.73202C172.088 5.73202 172.911 6.34998 173.485 7.58556C173.47 7.46862 173.456 7.21746 173.441 6.83508C173.427 6.45255 173.405 6.15851 173.376 5.95256H177.281V16.2559ZM173.398 10.6521C173.398 9.47525 173.133 8.88703 172.604 8.88703C171.956 8.88703 171.632 9.74749 171.632 11.4682C171.632 12.7038 171.919 13.3214 172.493 13.3214C172.595 13.3214 172.695 13.2996 172.79 13.2557C172.887 13.2119 172.964 13.1462 173.022 13.0573C173.081 12.9696 173.133 12.8807 173.177 12.7925C173.22 12.7048 173.257 12.5827 173.287 12.4282C173.316 12.274 173.338 12.1491 173.352 12.0535C173.367 11.9584 173.377 11.8218 173.386 11.6452C173.4 11.4688 173.4 11.3435 173.4 11.2701C173.4 11.1956 173.4 11.0787 173.4 10.9172C173.4 10.7553 173.4 10.6673 173.4 10.6524L173.398 10.6521ZM184.341 1.54033H188.951C190.29 1.54033 191.342 1.76066 192.107 2.20195C192.724 2.55495 193.202 3.04383 193.541 3.669C193.879 4.29432 194.048 4.9748 194.048 5.70989C194.048 7.54872 193.136 8.54887 191.312 8.71038C193.327 8.96077 194.335 10.0709 194.335 12.042C194.335 13.3215 193.919 14.3436 193.088 15.1086C192.257 15.8735 191.195 16.2559 189.901 16.2559H184.341V1.54033ZM188.312 4.73923V7.25439C188.37 7.26901 188.452 7.27616 188.554 7.27616C188.996 7.27616 189.367 7.16967 189.669 6.95641C189.97 6.74315 190.121 6.42319 190.121 5.99681C190.121 5.57014 189.993 5.2499 189.735 5.0365C189.478 4.82353 189.136 4.71675 188.709 4.71675C188.533 4.71675 188.4 4.73156 188.312 4.73887V4.73923ZM188.312 10.2549V13.057C188.385 13.0716 188.496 13.0787 188.643 13.0787C189.114 13.0787 189.503 12.9576 189.812 12.7151C190.121 12.4723 190.275 12.1157 190.275 11.6449C190.275 11.1742 190.121 10.821 189.812 10.5857C189.503 10.3504 189.106 10.2328 188.621 10.2328C188.577 10.2328 188.524 10.2328 188.466 10.2474C188.408 10.262 188.357 10.262 188.312 10.262V10.2549ZM205.168 11.2034C205.168 12.7626 204.745 14.0315 203.9 15.0093C203.053 15.9875 201.858 16.4764 200.314 16.4764C198.799 16.4764 197.633 15.9728 196.817 14.9651C196.001 13.9574 195.592 12.6818 195.592 11.137C195.592 9.59275 196.008 8.30614 196.839 7.27651C197.67 6.24689 198.836 5.73202 200.336 5.73202C201.895 5.73202 203.09 6.24293 203.921 7.26509C204.752 8.2877 205.168 9.60037 205.168 11.2034ZM201.461 11.1156C201.461 10.5567 201.38 10.0013 201.218 9.4498C201.056 8.89845 200.77 8.6226 200.358 8.6226C199.961 8.6226 199.685 8.89845 199.53 9.4498C199.376 10.0013 199.299 10.5567 199.299 11.1156C199.299 11.6746 199.376 12.2261 199.53 12.7704C199.685 13.3144 199.968 13.5869 200.38 13.5869C200.777 13.5869 201.056 13.3108 201.218 12.7593C201.38 12.2078 201.461 11.66 201.461 11.1156ZM210.441 16.2562H206.624V0.172476H210.441V16.2562ZM221.406 16.2562H217.501V15.8151C217.501 15.8005 217.523 15.484 217.567 14.8662C217.229 15.3958 216.886 15.7971 216.54 16.0689C216.195 16.341 215.757 16.4768 215.228 16.4768C214.58 16.4768 214.029 16.3077 213.573 15.9697C213.117 15.6311 212.775 15.1829 212.547 14.6239C212.319 14.065 212.158 13.506 212.062 12.947C211.966 12.3881 211.919 11.8072 211.919 11.2038C211.919 10.5861 211.963 9.994 212.05 9.42803C212.138 8.86162 212.289 8.28467 212.503 7.69618C212.716 7.10785 213.054 6.63327 213.518 6.27266C213.981 5.91265 214.536 5.73238 215.183 5.73238C216.213 5.73238 217.029 6.30587 217.632 7.45316L217.567 5.79839V0.172476H221.406V16.2562ZM217.7 11.0054C217.7 9.60812 217.406 8.90915 216.817 8.90915C216.185 8.90915 215.869 9.63765 215.869 11.0935C215.869 12.4907 216.185 13.1897 216.817 13.1897C217.406 13.1897 217.7 12.4614 217.7 11.0054ZM243.094 16.2562H238.858L238.02 14.1382C237.696 13.3589 237.402 12.4765 237.137 11.4907V16.2562H233.43V11.4907C233.165 12.4765 232.872 13.3589 232.548 14.1382L231.71 16.2562H227.473L230.032 10.9836L227.628 5.95292H231.599L232.526 8.24753C232.893 9.13011 233.194 9.99779 233.43 10.8508V5.95292H237.137V10.8508C237.372 9.99779 237.674 9.13011 238.041 8.24753L238.968 5.95292H242.939L240.534 10.9836L243.094 16.2562ZM244.021 5.95292H247.683V8.84349C247.683 9.62273 247.632 10.5274 247.529 11.5571C247.764 10.8364 248.022 10.1743 248.301 9.57149L249.933 5.95292H253.42V16.2562H249.757V13.4987C249.757 12.7194 249.801 11.7702 249.89 10.6524C249.698 11.2995 249.441 11.9906 249.117 12.7261L247.507 16.2562H244.021L244.021 5.95292ZM259.001 5.95292L258.913 7.40927C259.207 6.86478 259.535 6.44954 259.895 6.16275C260.256 5.87611 260.715 5.73238 261.274 5.73238C261.892 5.73238 262.433 5.91265 262.896 6.27266C263.359 6.63327 263.708 7.09659 263.944 7.663C264.179 8.22941 264.352 8.8029 264.462 9.38378C264.572 9.96466 264.627 10.5422 264.627 11.1156C264.627 11.704 264.58 12.2778 264.485 12.8368C264.39 13.3957 264.227 13.9655 263.999 14.5465C263.771 15.1274 263.429 15.5945 262.973 15.9475C262.517 16.3002 261.98 16.4768 261.362 16.4768C260.818 16.4768 260.358 16.341 259.983 16.0689C259.608 15.7971 259.252 15.3958 258.914 14.8662C258.972 15.6312 259.001 16.1978 259.001 16.5653V20.9996H255.185V5.95292H259.001ZM260.678 10.9611C260.678 9.57892 260.376 8.88739 259.773 8.88739C259.185 8.88739 258.891 9.60816 258.891 11.0493C258.891 12.5202 259.178 13.2557 259.751 13.2557C260.369 13.2557 260.678 12.4909 260.678 10.9611ZM269.922 5.95292V9.46122H271.334V5.95292H275.151V16.2562H271.334V12.5495H269.922V16.2562H266.105V5.95292H269.922ZM290.662 16.2562H286.823V5.95292H290.662V16.2562ZM280.755 9.61538H282.168C283.535 9.61538 284.535 9.91714 285.168 10.5204C285.757 11.0789 286.05 11.8438 286.05 12.8146C286.05 13.8737 285.742 14.6971 285.124 15.2856C284.462 15.9326 283.484 16.2562 282.189 16.2562H276.917V5.95292H280.755V9.61538ZM280.755 13.8296H280.889C281.462 13.8296 281.859 13.7187 282.08 13.4987C282.227 13.3516 282.3 13.153 282.3 12.9028C282.3 12.6235 282.227 12.4176 282.08 12.2851C281.874 12.094 281.477 11.9981 280.889 11.9981H280.755V13.8296ZM292.096 5.95292H295.758V8.84349C295.758 9.62273 295.707 10.5274 295.604 11.5571C295.839 10.8364 296.097 10.1743 296.376 9.57149L298.009 5.95292H301.495V16.2562H297.832V13.4987C297.832 12.7194 297.876 11.7702 297.965 10.6524C297.774 11.2995 297.517 11.9906 297.193 12.7261L295.582 16.2562H292.096L292.096 5.95292ZM297.987 1.31979L300.524 1.95964C300.333 2.91588 299.848 3.64394 299.068 4.14399C298.48 4.51146 297.73 4.69534 296.818 4.69534C295.906 4.69534 295.156 4.51146 294.567 4.14399C293.787 3.64394 293.302 2.91588 293.111 1.95964L295.648 1.31979C295.692 1.73169 295.817 2.0406 296.023 2.24655C296.2 2.4376 296.465 2.53347 296.818 2.53347C297.171 2.53347 297.435 2.43833 297.611 2.24655C297.817 2.0406 297.943 1.73169 297.987 1.31979Z" fill="black"/>
</svg>
