<svg width="249" height="32" viewBox="0 0 249 32" fill="none" xmlns="http://www.w3.org/2000/svg">
<path fill-rule="evenodd" clip-rule="evenodd" d="M8.64981 2.8687V4.12414H1.55683V11.7196H8.46174V12.975H1.55683V23.8033H0.175781V2.8687H8.64981ZM11.3805 10.9976H12.636V18.7187C12.636 20.2041 12.9077 21.2713 13.4517 21.9197C14.0377 22.6105 14.8847 22.9557 15.994 22.9557C17.1027 22.9557 17.9501 22.6105 18.5359 21.9197C19.08 21.2713 19.3524 20.2041 19.3524 18.7187V10.9976H20.6079V19.0638C20.6079 20.5704 20.2835 21.7423 19.6351 22.5792C18.8189 23.6255 17.605 24.1483 15.994 24.1483C14.3826 24.1483 13.1691 23.6255 12.3533 22.5792C11.7049 21.7423 11.3805 20.5704 11.3805 19.0638V10.9976ZM28.7054 12.1903H26.4768V23.8033H25.2214V12.1903H23.8089V10.9976H25.2214V6.41555H26.4768V10.9976H28.7054V12.1903ZM31.2163 10.9976H32.4714V18.7187C32.4714 20.2041 32.7431 21.2713 33.2872 21.9197C33.8732 22.6105 34.7209 22.9557 35.8302 22.9557C36.9389 22.9557 37.7859 22.6105 38.3717 21.9197C38.9158 21.2713 39.1882 20.2041 39.1882 18.7187V10.9976H40.4437V19.0638C40.4437 20.5704 40.1193 21.7423 39.4708 22.5792C38.6546 23.6255 37.4411 24.1483 35.8302 24.1483C34.2188 24.1483 33.0052 23.6255 32.1895 22.5792C31.541 21.7423 31.2163 20.5704 31.2163 19.0638V10.9976ZM44.9629 23.8033V10.9976H46.2184V12.661C46.783 11.3642 47.7253 10.7154 49.0433 10.7154C49.5454 10.7154 49.9957 10.8207 50.3929 11.0294L49.7649 12.1589C49.5348 11.9918 49.2209 11.908 48.8235 11.908C48.2164 11.908 47.7196 12.0803 47.3325 12.4254C46.9456 12.771 46.6841 13.2522 46.5481 13.8697C46.4122 14.4867 46.323 15.0046 46.2812 15.4231C46.2388 15.8416 46.2184 16.3435 46.2184 16.9294V23.8033H44.9629ZM63.1978 13.2262V10.9976H64.4533V23.8033H63.1978V21.5119C62.0472 23.2696 60.3837 24.1483 58.2075 24.1483C56.471 24.1483 54.9961 23.5313 53.7824 22.2966C52.5689 21.0622 51.9617 19.43 51.9617 17.4001C51.9617 15.4125 52.5371 13.8018 53.6882 12.5671C54.8389 11.3327 56.3454 10.7154 58.2075 10.7154C60.3419 10.7154 62.0054 11.5523 63.1978 13.2262ZM58.2703 11.908C56.91 11.908 55.7385 12.3948 54.7552 13.3676C53.7719 14.3405 53.2807 15.6535 53.2807 17.3062C53.2807 18.834 53.7301 20.1572 54.6296 21.2763C55.5291 22.3958 56.754 22.9557 58.3024 22.9557C59.8296 22.9557 61.0375 22.4062 61.9267 21.3077C62.8163 20.2094 63.2607 18.8758 63.2607 17.3062C63.2607 15.5697 62.7477 14.2355 61.7226 13.3044C60.6976 12.3734 59.5465 11.908 58.2703 11.908ZM80.931 13.854H78.2317V23.8033H76.8506V2.8687H80.8996C82.6779 2.8687 84.1422 3.34507 85.2933 4.29722C86.4439 5.24893 87.0198 6.59325 87.0198 8.32975C87.0198 10.0455 86.4648 11.395 85.3561 12.3787C84.2472 13.3618 82.7719 13.854 80.931 13.854ZM78.2317 4.12414V12.5985H80.9938C82.3748 12.5985 83.4835 12.2164 84.3205 11.4526C85.1574 10.6891 85.5759 9.65878 85.5759 8.36151C85.5759 7.04349 85.1524 6.00754 84.3048 5.25432C83.4574 4.50111 82.2804 4.12414 80.774 4.12414H78.2317ZM100.704 4.12414H95.274V23.8033H93.8929V4.12414H88.4629V2.8687H100.704V4.12414ZM111.281 2.8687H112.662V22.5475H118.499V23.8033H111.281V2.8687ZM121.199 10.9976H122.454V23.8033H121.199V10.9976ZM122.627 7.56107C122.407 7.78106 122.14 7.89081 121.827 7.89081C121.513 7.89081 121.245 7.78121 121.026 7.56107C120.806 7.34138 120.697 7.06411 120.697 6.72923C120.697 6.3945 120.806 6.11744 121.026 5.89774C121.245 5.67819 121.513 5.568 121.827 5.568C122.14 5.568 122.407 5.67761 122.627 5.89774C122.847 6.11744 122.956 6.3945 122.956 6.72923C122.956 7.06411 122.847 7.34138 122.627 7.56107ZM137.519 10.9976H138.775V23.4264C138.775 25.8325 138.204 27.6999 137.064 29.0288C135.924 30.3576 134.349 31.0218 132.34 31.0218C130.604 31.0218 129.145 30.5352 127.962 29.5623C126.78 28.5894 126.147 27.2448 126.063 25.529H127.381C127.487 26.8475 127.994 27.8932 128.904 28.6676C129.814 29.4416 130.96 29.8292 132.34 29.8292C133.282 29.8292 134.103 29.6406 134.804 29.264C135.505 28.8874 136.023 28.4586 136.358 27.9771C136.692 27.4961 136.954 26.9103 137.142 26.2199C137.331 25.5293 137.441 24.9954 137.472 24.6187C137.503 24.242 137.519 23.8449 137.519 23.4264V21.6061C136.306 23.3008 134.621 24.1483 132.466 24.1483C130.771 24.1483 129.296 23.5519 128.041 22.3594C126.786 21.1665 126.157 19.5136 126.157 17.4001C126.157 15.4962 126.744 13.906 127.915 12.6299C129.087 11.3533 130.657 10.7154 132.623 10.7154C134.715 10.7154 136.347 11.5523 137.519 13.2262V10.9976ZM136.185 13.4771C135.254 12.431 134.025 11.908 132.497 11.908C130.97 11.908 129.751 12.4469 128.841 13.5246C127.931 14.6019 127.476 15.9149 127.476 17.4633C127.476 19.0324 127.931 20.3401 128.841 21.3862C129.751 22.4325 130.949 22.9557 132.435 22.9557C133.983 22.9557 135.228 22.4221 136.17 21.3552C137.111 20.2879 137.582 18.9486 137.582 17.3376C137.582 15.8103 137.116 14.5234 136.185 13.4771ZM143.294 23.8033V0.923096H144.549V13.0064C145.407 11.4788 146.715 10.7154 148.473 10.7154C150.063 10.7154 151.245 11.3114 152.019 12.5043C152.438 13.1738 152.647 14.2513 152.647 15.7371V23.8033H151.392V15.7371C151.392 14.5442 151.224 13.6864 150.889 13.1631C150.387 12.3261 149.55 11.908 148.378 11.908C146.956 11.908 145.91 12.5045 145.24 13.6969C144.78 14.5132 144.549 15.6638 144.549 17.1492V23.8033H143.294ZM160.117 12.1903H157.889V23.8033H156.633V12.1903H155.221V10.9976H156.633V6.41555H157.889V10.9976H160.117V12.1903ZM172.388 23.8033V12.1903H167.932V10.9976H178.101V12.1903H173.644V23.8033H172.388ZM181.067 12.6456C182.354 11.3587 183.949 10.7154 185.853 10.7154C187.758 10.7154 189.352 11.3587 190.639 12.6456C191.926 13.9322 192.57 15.5276 192.57 17.4315C192.57 19.3358 191.926 20.9312 190.639 22.2181C189.352 23.5047 187.758 24.1483 185.853 24.1483C183.949 24.1483 182.354 23.5047 181.067 22.2181C179.78 20.9312 179.136 19.3358 179.136 17.4315C179.136 15.5276 179.78 13.9322 181.067 12.6456ZM182.008 21.3552C183.044 22.4221 184.326 22.9557 185.853 22.9557C187.381 22.9557 188.662 22.4221 189.698 21.3552C190.734 20.2879 191.251 18.9799 191.251 17.4315C191.251 15.8831 190.734 14.5758 189.698 13.5089C188.662 12.4415 187.381 11.908 185.853 11.908C184.326 11.908 183.044 12.4415 182.008 13.5089C180.973 14.5758 180.455 15.8831 180.455 17.4315C180.455 18.9799 180.973 20.2879 182.008 21.3552ZM196.273 23.8033V10.9976H197.528V16.6468H204.748V10.9976H206.003V23.8033H204.748V17.8397H197.528V23.8033H196.273ZM210.522 10.9976H211.778V17.0864L218.243 10.9976H219.938L213.41 17.0864L220.44 23.8033H218.62L212.468 17.934L211.778 18.5931V23.8033H210.522V10.9976ZM222.951 10.9976H224.207V21.2606L233.309 10.2761V23.8033H232.053V13.6027L222.951 24.5876V10.9976ZM237.828 10.9976H239.083V21.2606L248.185 10.2761V23.8033H246.93V13.6027L237.828 24.5876V10.9976ZM239.272 5.81888L240.339 5.28573C240.506 5.93414 240.857 6.47812 241.39 6.91765C241.924 7.35689 242.578 7.57642 243.352 7.57642C244.126 7.57642 244.78 7.35689 245.313 6.91765C245.847 6.47812 246.197 5.93414 246.365 5.28573L247.432 5.81888C246.804 7.78574 245.444 8.76941 243.352 8.76941C241.26 8.76941 239.899 7.78574 239.272 5.81888Z" fill="black"/>
</svg>
