<svg width="251" height="24" viewBox="0 0 251 24" fill="none" xmlns="http://www.w3.org/2000/svg">
<path fill-rule="evenodd" clip-rule="evenodd" d="M0.880859 22.6782L7.78434 0.824769H10.3277L17.638 22.6782H14.9262L12.8664 16.0553H5.31201L3.37389 22.6782H0.880859ZM6.00396 13.705H12.1388L10.2617 7.65135C9.68152 5.79469 9.25465 4.28372 8.98482 3.11903C8.7508 4.52285 8.42538 5.9117 8.0031 7.2952L6.00396 13.705ZM19.22 22.6782V6.83717H21.2038V9.26418C21.7126 8.14993 22.1754 7.41241 22.5977 7.04611C23.0198 6.68478 23.4929 6.50154 24.0219 6.50154C24.7545 6.50154 25.5077 6.78663 26.2708 7.3564L25.5382 9.85907C24.9889 9.4726 24.4596 9.27953 23.9409 9.27953C23.4727 9.27953 23.0453 9.44189 22.6587 9.77253C22.2668 10.0982 21.9921 10.556 21.8347 11.1411C21.5546 12.1637 21.4175 13.2472 21.4175 14.4019V22.6782H19.22ZM27.5523 3.90734V0.824769H29.7499V3.90734H27.5523ZM27.5523 22.6782V6.83717H29.7499V22.6782H27.5523ZM41.567 20.7301C40.8294 21.4983 40.0659 22.073 39.2724 22.4597C38.474 22.8511 37.6498 23.0446 36.795 23.0446C35.4418 23.0446 34.3634 22.6379 33.5601 21.8187C32.7513 21.0049 32.3496 19.906 32.3496 18.5221C32.3496 17.6064 32.5375 16.7976 32.9192 16.0908C33.2954 15.3836 33.8141 14.8291 34.4704 14.4321C35.1267 14.0357 36.1237 13.7406 37.4566 13.5522C39.2474 13.2982 40.5648 12.9928 41.3993 12.6369L41.4135 11.9499C41.4135 10.8614 41.2206 10.0981 40.834 9.65566C40.2899 9.01953 39.4504 8.69927 38.321 8.69927C37.2984 8.69927 36.5352 8.91306 36.0263 9.3352C35.5229 9.75748 35.1514 10.5559 34.9122 11.721L32.715 11.3242C33.0249 9.64028 33.6461 8.41962 34.5875 7.65135C35.5284 6.88322 36.8762 6.50154 38.6264 6.50154C39.9896 6.50154 41.0575 6.75607 41.836 7.26986C42.6091 7.77868 43.1028 8.41434 43.3063 9.16712C43.5098 9.92545 43.6118 11.0241 43.6118 12.474V16.0503C43.6118 18.5528 43.6566 20.1298 43.7531 20.7812C43.8452 21.4271 44.033 22.0626 44.3127 22.6782H42.0238C41.7896 22.1339 41.6374 21.4829 41.5663 20.7301H41.567ZM41.3993 14.7424C40.5953 15.1394 39.395 15.4749 37.8028 15.7496C36.8767 15.9075 36.2306 16.0907 35.8643 16.2942C35.4932 16.4976 35.2078 16.7876 35.0043 17.1588C34.801 17.5301 34.6995 17.9627 34.6995 18.4512C34.6995 19.2041 34.9337 19.8094 35.4018 20.2619C35.87 20.7148 36.5153 20.9385 37.3396 20.9385C38.128 20.9385 38.8398 20.7351 39.4808 20.3281C40.1217 19.9213 40.6058 19.3769 40.9211 18.6953C41.2415 18.0187 41.3993 17.0269 41.3993 15.7246V14.7424ZM46.9699 22.6782V0.824769H49.1674V22.6782H46.9699ZM59.794 22.6782V0.824769H62.23L71.6361 18.0237V0.824769H73.8943V22.6782H71.4734L62.0822 5.50964V22.6782H59.794ZM86.0683 20.7301C85.3309 21.4983 84.5671 22.073 83.7737 22.4597C82.9751 22.8511 82.1511 23.0446 81.2963 23.0446C79.9431 23.0446 78.8644 22.6379 78.061 21.8187C77.2521 21.0049 76.8506 19.906 76.8506 18.5221C76.8506 17.6064 77.0386 16.7976 77.4201 16.0908C77.7964 15.3836 78.3154 14.8291 78.9717 14.4321C79.6281 14.0357 80.6249 13.7406 81.958 13.5522C83.7487 13.2982 85.0654 12.9928 85.8999 12.6369L85.9163 11.9499C85.9163 10.8614 85.7225 10.0981 85.336 9.65566C84.792 9.01953 83.9526 8.69927 82.823 8.69927C81.8005 8.69927 81.0379 8.91306 80.5291 9.3352C80.0257 9.75748 79.654 10.5559 79.415 11.721L77.2174 11.3242C77.5273 9.64028 78.1482 8.41962 79.0895 7.65135C80.0306 6.88322 81.3782 6.50154 83.1285 6.50154C84.4917 6.50154 85.5601 6.75607 86.3388 7.26986C87.1119 7.77868 87.6049 8.41434 87.8083 9.16712C88.0118 9.92545 88.1138 11.0241 88.1138 12.474V16.0503C88.1138 18.5528 88.1594 20.1298 88.2559 20.7812C88.3479 21.4271 88.5358 22.0626 88.8154 22.6782H86.5265C86.2925 22.1339 86.1396 21.4829 86.0683 20.7301ZM85.8999 14.7424C85.0961 15.1394 83.8958 15.4749 82.3034 15.7496C81.3774 15.9075 80.7319 16.0907 80.3656 16.2942C79.9944 16.4976 79.7091 16.7876 79.5056 17.1588C79.3021 17.5301 79.2009 17.9627 79.2009 18.4512C79.2009 19.2041 79.4343 19.8094 79.9024 20.2619C80.3706 20.7148 81.0168 20.9385 81.8409 20.9385C82.6294 20.9385 83.341 20.7351 83.9821 20.3281C84.623 19.9213 85.1064 19.3769 85.4217 18.6953C85.7419 18.0187 85.8999 17.0269 85.8999 15.7246V14.7424ZM91.5318 22.6782V6.83717H93.5153V9.26418C94.0241 8.14993 94.4869 7.41241 94.9092 7.04611C95.3313 6.68478 95.8048 6.50154 96.3338 6.50154C97.0664 6.50154 97.8188 6.78663 98.582 7.3564L97.8497 9.85907C97.3004 9.4726 96.7712 9.27953 96.2524 9.27953C95.7842 9.27953 95.3572 9.44189 94.9706 9.77253C94.5787 10.0982 94.3036 10.556 94.1462 11.1411C93.8661 12.1637 93.7294 13.2472 93.7294 14.4019V22.6782H91.5318ZM99.8638 22.6782V6.83717H101.848V9.26418C102.357 8.14993 102.82 7.41241 103.242 7.04611C103.664 6.68478 104.137 6.50154 104.666 6.50154C105.398 6.50154 106.151 6.78663 106.915 7.3564L106.182 9.85907C105.633 9.4726 105.104 9.27953 104.585 9.27953C104.117 9.27953 103.689 9.44189 103.303 9.77253C102.911 10.0982 102.636 10.556 102.479 11.1411C102.199 12.1637 102.061 13.2472 102.061 14.4019V22.6782H99.8638ZM107.372 14.7731C107.372 12.0413 107.947 9.98128 109.092 8.58739C110.236 7.19848 111.691 6.50154 113.446 6.50154C115.176 6.50154 116.615 7.19848 117.78 8.58739C118.94 9.98128 119.52 11.9855 119.52 14.6103C119.52 17.4489 118.95 19.565 117.805 20.9589C116.666 22.3476 115.212 23.0446 113.446 23.0446C111.712 23.0446 110.262 22.3476 109.107 20.9489C107.953 19.555 107.372 17.4944 107.372 14.7731ZM109.63 14.7584C109.63 16.814 110.002 18.3401 110.745 19.3419C111.488 20.3442 112.408 20.8427 113.507 20.8427C114.535 20.8427 115.42 20.3394 116.157 19.3271C116.895 18.3145 117.262 16.7933 117.262 14.7584C117.262 12.7186 116.89 11.1976 116.147 10.1958C115.405 9.19348 114.484 8.69499 113.385 8.69499C112.347 8.69499 111.462 9.1985 110.73 10.2058C109.997 11.2081 109.63 12.729 109.63 14.7584ZM124.531 22.6741L120.528 6.83306H122.791L124.872 15.9746L125.64 19.3776L126.317 16.1118L128.351 6.83306H130.681L132.614 16.0153L133.27 19.042L134.018 15.9846L136.236 6.83306H138.383L134.344 22.6741H132.039L129.949 13.192L129.455 10.4959L126.85 22.6741H124.531ZM146.313 14.7689C146.313 12.0372 146.889 9.97717 148.033 8.58329C149.177 7.19438 150.633 6.49744 152.387 6.49744C154.117 6.49744 155.556 7.19438 156.721 8.58329C157.881 9.97717 158.461 11.9813 158.461 14.606C158.461 17.4447 157.891 19.5607 156.747 20.9546C155.607 22.3434 154.153 23.0405 152.387 23.0405C150.653 23.0405 149.203 22.3435 148.048 20.9448C146.893 19.5509 146.313 17.4903 146.313 14.7689ZM148.572 14.7543C148.572 16.8099 148.943 18.3358 149.686 19.3377C150.429 20.34 151.349 20.8384 152.448 20.8384C153.476 20.8384 154.361 20.3351 155.099 19.3229C155.836 18.3102 156.202 16.7892 156.202 14.7543C156.202 12.7145 155.831 11.1933 155.089 10.1915C154.346 9.1892 153.425 8.69088 152.326 8.69088C151.288 8.69088 150.403 9.19422 149.671 10.2015C148.938 11.2038 148.572 12.7249 148.572 14.7543ZM170.609 0.29715H172.562C172.47 1.39094 172.272 2.14382 171.967 2.55572C171.657 2.96793 171.27 3.22739 170.802 3.33921C170.334 3.44592 169.424 3.50212 168.071 3.50212C166.29 3.50212 165.065 3.7105 164.393 4.1227C163.722 4.53461 163.233 5.22162 162.938 6.17787C162.637 7.13908 162.469 8.3601 162.429 9.84051C163.533 7.83096 165.018 6.82878 166.88 6.82878C168.62 6.82878 170.044 7.55149 171.148 8.99083C172.252 10.4357 172.806 12.3586 172.806 14.7697C172.806 17.0639 172.293 19.0175 171.27 20.625C170.248 22.2323 168.762 23.0362 166.814 23.0362C165.364 23.0362 164.205 22.6393 163.334 21.8507C162.465 21.0622 161.783 19.9688 161.3 18.5751C160.811 17.1861 160.567 14.8562 160.567 11.5854C160.567 7.30683 161.147 4.44295 162.302 2.99324C163.461 1.54352 165.253 0.816383 167.674 0.816383C169.175 0.816383 170.024 0.781305 170.228 0.709681C170.431 0.638058 170.558 0.500976 170.609 0.297507V0.29715ZM170.517 14.6781C170.517 12.903 170.175 11.519 169.494 10.5221C168.812 9.5248 167.927 9.02651 166.844 9.02651C165.623 9.02651 164.682 9.57095 164.026 10.6545C163.37 11.7429 163.039 13.2486 163.039 15.1717C163.039 17.0744 163.411 18.5037 164.158 19.4497C164.906 20.396 165.811 20.8691 166.875 20.8691C167.908 20.8691 168.777 20.3093 169.474 19.1956C170.171 18.0766 170.517 16.5704 170.517 14.6781ZM175.391 6.82878H177.588V13.025H180.386C182.39 13.025 183.835 13.4981 184.72 14.439C185.6 15.3855 186.043 16.5299 186.043 17.8678C186.043 19.1397 185.641 20.2589 184.842 21.2251C184.043 22.1868 182.726 22.6699 180.889 22.6699H175.391V6.82878ZM177.588 20.4721H179.898C181.576 20.4721 182.645 20.2026 183.097 19.6635C183.555 19.1244 183.784 18.529 183.784 17.8781C183.784 17.0283 183.519 16.3724 182.995 15.9145C182.466 15.4513 181.535 15.2225 180.193 15.2225H177.588V20.4721ZM188.241 22.6699V6.82878H190.438V22.6699H188.241ZM193.21 6.82878H195.408V9.81999C195.408 11.1326 195.48 12.0888 195.617 12.6892C195.754 13.2896 196.064 13.7881 196.553 14.1901C197.036 14.5919 197.616 14.7954 198.293 14.7954C199.132 14.7954 200.215 14.5256 201.543 13.9915V6.82878H203.74V22.6699H201.543V16.2808C200.185 16.7946 198.918 17.0539 197.748 17.0539C196.472 17.0539 195.393 16.5501 194.518 15.5428C193.648 14.5306 193.21 13.0096 193.21 10.9748V6.82878ZM207.042 6.82878H209.24V13.4218H215.374V6.82878H217.572V22.6699H215.374V15.6497H209.24V22.6699H207.042V6.82878ZM220.858 6.82878H223.056V13.025H225.854C227.858 13.025 229.303 13.4981 230.188 14.439C231.068 15.3855 231.511 16.5299 231.511 17.8678C231.511 19.1397 231.108 20.2589 230.309 21.2251C229.511 22.1868 228.194 22.6699 226.358 22.6699H220.858V6.82878ZM223.056 20.4721H225.366C227.044 20.4721 228.113 20.2026 228.565 19.6635C229.023 19.1244 229.252 18.529 229.252 17.8781C229.252 17.0283 228.987 16.3724 228.463 15.9145C227.934 15.4513 227.003 15.2225 225.66 15.2225H223.056V20.4721ZM233.708 22.6699V6.82878H235.906V22.6699H233.708ZM239.472 6.82878H241.669V18.875L247.809 6.82878H250.185V22.6699H247.987V10.6238L241.848 22.6699H239.472V6.82878ZM246.919 0.846538H248.414C248.287 2.13342 247.896 3.10005 247.25 3.75139C246.604 4.39746 245.784 4.72312 244.792 4.72312C243.795 4.72312 242.977 4.39746 242.336 3.75139C241.695 3.10005 241.308 2.13342 241.181 0.846538H242.676C242.905 2.1894 243.592 2.86102 244.732 2.86102C245.368 2.86102 245.866 2.70326 246.212 2.383C246.563 2.06757 246.797 1.55371 246.919 0.846538Z" fill="black"/>
</svg>
