<svg width="251" height="22" viewBox="0 0 251 22" fill="none" xmlns="http://www.w3.org/2000/svg">
<path fill-rule="evenodd" clip-rule="evenodd" d="M3.38338 12.5612L1.72469 16.5687H0.0224609L6.61547 1.31467H8.12357L14.673 16.5687H12.9494L11.2689 12.5612H3.38338ZM7.32634 3.03831L3.96542 11.1391H10.6873L7.32634 3.03831ZM24.9289 6.48524L20.8353 16.5687H19.2195L15.1041 6.48524H16.7418L20.0167 15.0174H20.0588L23.3555 6.48524H24.9289ZM28.0314 10.7513H34.9046C34.8622 9.77477 34.5492 8.98138 33.9675 8.37053C33.3857 7.76027 32.5848 7.45483 31.5651 7.45483C30.617 7.45483 29.8089 7.7816 29.1409 8.43513C28.4731 9.08895 28.1031 9.86101 28.0314 10.7513ZM36.3906 11.2252C36.3906 11.5128 36.3911 11.7424 36.3691 11.9147H28.0097C28.0374 12.9348 28.4045 13.8001 29.1084 14.511C29.812 15.222 30.6738 15.5775 31.6939 15.5775C32.3976 15.5775 33.0366 15.4088 33.6113 15.0711C34.1856 14.7335 34.6243 14.321 34.926 13.8325L36.0244 14.6943C34.904 16.1162 33.4607 16.8271 31.6939 16.8271C30.1999 16.8271 28.9575 16.3246 27.9665 15.319C26.9753 14.3135 26.4798 13.0496 26.4798 11.527C26.4798 10.0188 26.9682 8.75834 27.9447 7.74567C28.9214 6.733 30.1282 6.22669 31.5647 6.22669C33.0869 6.22669 34.2716 6.69729 35.1194 7.6379C35.9668 8.5788 36.3906 9.77465 36.3906 11.2252ZM39.4503 6.48524H40.8506C40.9076 7.20366 40.937 7.77797 40.937 8.20888H40.9791C41.2517 7.63457 41.7156 7.16054 42.3694 6.78678C43.0228 6.41346 43.7079 6.22669 44.4264 6.22669C45.676 6.22669 46.6273 6.60042 47.2812 7.34706C47.9346 8.09413 48.2619 9.1069 48.2619 10.385V16.5687H46.7966V10.9883C46.7966 9.85371 46.5923 8.98138 46.1828 8.37053C45.7734 7.76027 45.0654 7.45483 44.0602 7.45483C43.2124 7.45483 42.4906 7.79624 41.8948 8.47813C41.2986 9.1606 41.0012 10.134 41.0012 11.3976V16.5687H39.5359V8.70438C39.5359 7.84256 39.5066 7.10295 39.4496 6.48524H39.4503ZM53.5406 6.48524V16.5687H52.076V6.48524H53.5406ZM53.5263 1.87494C53.7343 2.07578 53.8389 2.31989 53.8389 2.6074C53.8389 2.89463 53.7349 3.13862 53.5263 3.34004C53.3179 3.54102 53.0778 3.64176 52.8047 3.64176C52.5317 3.64176 52.2909 3.54088 52.0825 3.34004C51.874 3.13862 51.7706 2.89463 51.7706 2.6074C51.7706 2.31989 51.8739 2.07578 52.0825 1.87494C52.2909 1.67352 52.5317 1.57322 52.8047 1.57322C53.0778 1.57322 53.3179 1.67411 53.5263 1.87494ZM57.4368 8.70438C57.4368 7.84256 57.4075 7.10295 57.3504 6.48524H58.7508C58.8078 7.20366 58.8371 7.77797 58.8371 8.20888H58.88C59.1672 7.6201 59.6015 7.14223 60.1832 6.77608C60.765 6.40977 61.4077 6.22669 62.1117 6.22669C62.4995 6.22669 62.8223 6.2632 63.0809 6.33482L62.8875 7.71391C62.6576 7.62767 62.3127 7.58383 61.8533 7.58383C61.0055 7.58383 60.3015 7.90381 59.7414 8.54272C59.1811 9.18192 58.9014 10.1336 58.9014 11.3973V16.5684H57.4361L57.4368 8.70438ZM72.6048 1.31467L81.4814 14.3062H81.5257V1.31467H83.0766V16.5687H81.1374L72.2608 3.44763H72.2187V16.5687H70.6671V1.31467H72.6048ZM87.8592 10.7513H94.7324C94.6885 9.77477 94.3763 8.98138 93.7945 8.37053C93.2128 7.76027 92.4126 7.45483 91.3929 7.45483C90.4448 7.45483 89.6362 7.7816 88.9684 8.43513C88.3004 9.08895 87.9309 9.86101 87.8592 10.7513ZM96.2184 11.2252C96.2184 11.5128 96.2181 11.7424 96.1962 11.9147H87.8371C87.8663 12.9348 88.2323 13.8001 88.9362 14.511C89.6398 15.222 90.5012 15.5775 91.5213 15.5775C92.2249 15.5775 92.8644 15.4088 93.4391 15.0711C94.0134 14.7335 94.4515 14.321 94.7531 13.8325L95.8522 14.6943C94.7318 16.1162 93.2881 16.8271 91.5213 16.8271C90.0272 16.8271 88.7853 16.3246 87.7943 15.319C86.8031 14.3135 86.3076 13.0496 86.3076 11.527C86.3076 10.0188 86.7963 8.75834 87.7729 7.74567C88.7494 6.733 89.9556 6.22669 91.3922 6.22669C92.9144 6.22669 94.0994 6.69729 94.9472 7.6379C95.7946 8.5788 96.2184 9.77465 96.2184 11.2252ZM97.6401 16.5687L101.605 11.3544L97.8778 6.48524H99.752L102.51 10.3204L105.268 6.48524H107.034L103.371 11.2898L107.379 16.5687H105.483L102.488 12.3672L99.4073 16.5687H97.6401ZM114.209 6.48524V7.71337H111.365V13.5953C111.365 14.2993 111.493 14.7841 111.753 15.0497C112.011 15.3153 112.385 15.4483 112.873 15.4483C113.29 15.4483 113.713 15.3402 114.144 15.1252L114.208 16.3962C113.677 16.5972 113.102 16.6979 112.485 16.6979C111.795 16.6979 111.193 16.4969 110.676 16.0946C110.159 15.6922 109.9 14.9957 109.9 14.0047V7.71337H107.81V6.48524H109.9V3.64176H111.365V6.48524H114.209ZM133.6 13.3368L134.806 14.1124C134.261 14.9456 133.496 15.6276 132.512 16.1592C131.528 16.6908 130.39 16.9564 129.097 16.9564C126.799 16.9564 124.899 16.1986 123.398 14.6834C121.897 13.1682 121.147 11.2542 121.147 8.94133C121.147 6.62892 121.901 4.71517 123.409 3.19997C124.917 1.68433 126.813 0.926942 129.097 0.926942C130.218 0.926942 131.27 1.14574 132.253 1.5841C133.238 2.02203 133.995 2.60743 134.526 3.34004L133.233 4.28804C132.875 3.74195 132.325 3.27164 131.585 2.87683C130.846 2.48159 130.024 2.28426 129.119 2.28426C127.208 2.28426 125.675 2.93054 124.519 4.22327C123.362 5.516 122.785 7.08848 122.785 8.94133C122.785 10.7943 123.366 12.3672 124.53 13.6599C125.693 14.9528 127.223 15.5991 129.119 15.5991C131.101 15.5991 132.594 14.8451 133.6 13.3368ZM137.047 6.48524L140.473 14.9958H140.517L143.641 6.48524H145.235L140.215 19.1756C139.884 20.0229 139.479 20.6623 138.997 21.0932C138.516 21.5241 137.866 21.7396 137.048 21.7396C136.602 21.7396 136.165 21.6958 135.734 21.611L135.884 20.2751C136.229 20.3905 136.589 20.4474 136.962 20.4474C137.436 20.4474 137.82 20.3001 138.115 20.0058C138.409 19.7113 138.67 19.2624 138.9 18.6592L139.72 16.5477L135.41 6.48595L137.047 6.48524ZM147.519 8.70438C147.519 7.84256 147.489 7.10295 147.432 6.48524H148.833C148.89 7.20366 148.919 7.77797 148.919 8.20888H148.962C149.25 7.6201 149.685 7.14223 150.266 6.77608C150.848 6.40977 151.491 6.22669 152.195 6.22669C152.583 6.22669 152.906 6.2632 153.164 6.33482L152.97 7.71391C152.74 7.62767 152.395 7.58383 151.936 7.58383C151.088 7.58383 150.385 7.90381 149.825 8.54272C149.264 9.18192 148.985 10.1336 148.985 11.3973V16.5684H147.519L147.519 8.70438ZM165.294 16.8271C163.743 16.8271 162.46 16.3246 161.448 15.319C160.435 14.3135 159.929 13.0496 159.929 11.527C159.929 10.0046 160.435 8.74062 161.448 7.73496C162.46 6.72975 163.743 6.22669 165.294 6.22669C166.859 6.22669 168.148 6.72975 169.161 7.73496C170.173 8.74062 170.68 10.0046 170.68 11.527C170.68 13.0496 170.173 14.3135 169.161 15.319C168.148 16.3246 166.859 16.8271 165.294 16.8271ZM165.294 15.5775C166.443 15.5775 167.369 15.1934 168.073 14.4249C168.777 13.6563 169.129 12.6903 169.129 11.527C169.129 10.3635 168.777 9.39392 168.073 8.6182C167.369 7.84262 166.443 7.45483 165.294 7.45483C164.159 7.45483 163.24 7.84262 162.536 8.6182C161.832 9.39392 161.48 10.3635 161.48 11.527C161.48 12.6763 161.832 13.6384 162.536 14.414C163.24 15.1897 164.159 15.5775 165.294 15.5775ZM178.63 16.8271C176.619 16.8271 175.154 16.1232 174.235 14.7157C173.603 13.7532 173.287 12.1664 173.287 9.95411C173.287 8.60422 173.341 7.48717 173.448 6.60371C173.556 5.72084 173.765 4.8769 174.073 4.07267C174.382 3.26801 174.853 2.64686 175.484 2.20879C176.116 1.77042 176.92 1.49415 177.897 1.37926L180.957 1.01312C181.474 0.956118 181.879 0.854791 182.174 0.711398C182.468 0.568151 182.666 0.33767 182.766 0.0219421L183.822 0.34508C183.664 0.919383 183.402 1.34704 183.036 1.6271C182.669 1.90731 182.128 2.09737 181.41 2.19808L178.543 2.56422C177.049 2.75074 176.008 3.26464 175.419 4.10497C174.831 4.94516 174.522 6.50683 174.493 8.79074H174.557C175.405 7.08157 176.884 6.22669 178.996 6.22669C180.475 6.22669 181.682 6.72603 182.616 7.72408C183.549 8.72272 184.016 9.99014 184.016 11.527C184.016 13.0496 183.51 14.3135 182.497 15.319C181.485 16.3246 180.195 16.8271 178.63 16.8271ZM178.63 15.5775C179.779 15.5775 180.706 15.1934 181.41 14.4249C182.113 13.6563 182.465 12.6903 182.465 11.527C182.465 10.3635 182.113 9.39392 181.41 8.6182C180.706 7.84262 179.779 7.45483 178.63 7.45483C177.495 7.45483 176.575 7.84262 175.872 8.6182C175.168 9.39392 174.816 10.3635 174.816 11.527C174.816 12.6763 175.168 13.6384 175.872 14.414C176.575 15.1897 177.495 15.5775 178.63 15.5775ZM187.162 16.5687V6.48524H188.627V10.2772H191.061C192.311 10.2772 193.284 10.5503 193.981 11.0961C194.678 11.6422 195.026 12.4247 195.026 13.4444C195.026 14.45 194.685 15.222 194.003 15.7606C193.32 16.2992 192.347 16.5687 191.083 16.5687H187.162ZM188.627 15.2974H191.234C192.756 15.2974 193.518 14.6797 193.518 13.4444C193.518 12.1517 192.756 11.5054 191.234 11.5054H188.627V15.2974ZM197.007 16.5687V6.48524H198.473V16.5687H197.007ZM208.362 16.5687V12.432C207.471 12.6904 206.488 12.8197 205.411 12.8197C203.141 12.8197 202.006 11.7425 202.006 9.58797V6.48524H203.472V9.41542C203.472 10.2632 203.659 10.8375 204.032 11.1391C204.405 11.4408 204.98 11.5916 205.755 11.5916C206.56 11.5916 207.428 11.4702 208.362 11.2252V6.48524H209.827V16.5687H208.362ZM213.705 16.5687V6.48524H215.17V10.7082H220.966V6.48524H222.431V16.5687H220.966V11.9363H215.17V16.5687H213.705ZM226.309 16.5687V6.48524H227.775V10.2772H230.209C231.459 10.2772 232.431 10.5503 233.128 11.0961C233.825 11.6422 234.173 12.4247 234.173 13.4444C234.173 14.45 233.832 15.222 233.15 15.7606C232.467 16.2992 231.494 16.5687 230.23 16.5687H226.309ZM227.775 15.2974H230.381C231.903 15.2974 232.665 14.6797 232.665 13.4444C232.665 12.1517 231.903 11.5054 230.381 11.5054H227.775V15.2974ZM236.155 16.5687V6.48524H237.62V16.5687H236.155ZM241.499 16.5687V6.48524H242.963V14.5433H242.985L248.954 6.48524H250.548V16.5687H249.104V8.42442H249.062L243.094 16.5687H241.499ZM248.102 3.41534C247.535 3.91085 246.813 4.15868 245.937 4.15868C245.06 4.15868 244.338 3.91085 243.771 3.41534C243.203 2.91982 242.877 2.2482 242.791 1.40085L243.782 1.2069C243.883 1.75255 244.13 2.18733 244.526 2.51051C244.92 2.8337 245.391 2.99513 245.937 2.99513C246.482 2.99513 246.953 2.8337 247.348 2.51051C247.743 2.18733 247.991 1.75255 248.091 1.2069L249.083 1.40085C248.997 2.2482 248.669 2.91982 248.102 3.41534Z" fill="black"/>
</svg>
