<svg width="253" height="22" viewBox="0 0 253 22" fill="none" xmlns="http://www.w3.org/2000/svg">
<path fill-rule="evenodd" clip-rule="evenodd" d="M17.3145 20.9561H13.6332L12.1943 16.3094H5.42464L4.03324 20.9561H0.418945L6.96378 0.417873H10.5877L17.3145 20.9561ZM11.0848 12.8384L8.75201 5.21302L6.46667 12.8384H11.0848ZM22.1864 20.9561H18.9447V6.06859H21.957V8.18157C22.4732 7.19214 22.9323 6.53725 23.3384 6.21187C23.7449 5.88708 24.2133 5.72422 24.744 5.72422C25.485 5.72422 26.1875 5.97283 26.8617 6.46542L25.8535 9.89789C25.3177 9.46786 24.8157 9.25287 24.3376 9.25287C23.888 9.25287 23.4917 9.42025 23.1474 9.75015C22.808 10.0844 22.5592 10.6822 22.4109 11.5523C22.2627 12.4225 22.1864 14.0239 22.1864 16.3521V20.9561ZM28.2341 4.06071V0.417873H31.4755V4.06071H28.2341ZM28.2341 20.9561V6.06859H31.4755V20.9561H28.2341ZM37.2128 10.6011L34.2869 9.99853C34.6407 8.47836 35.2233 7.38825 36.0408 6.72361C36.8537 6.05898 38.0254 5.72422 39.5552 5.72422C40.918 5.72422 41.9548 5.91567 42.672 6.29806C43.3892 6.68044 43.9015 7.2018 44.2123 7.86146C44.518 8.52113 44.6705 9.7215 44.6705 11.4617L44.6412 16.0609C44.6412 17.3516 44.6944 18.3123 44.7947 18.9434C44.8955 19.5745 45.0814 20.244 45.3585 20.9561H42.1746L41.7542 19.3308C41.2043 19.9859 40.6109 20.4781 39.9799 20.808C39.3489 21.1378 38.6799 21.3007 37.9672 21.3007C36.7817 21.3007 35.8062 20.8991 35.0509 20.1007C34.2905 19.2972 33.9132 18.2361 33.9132 16.9068C33.9132 16.0608 34.0664 15.3291 34.3772 14.698C34.6879 14.072 35.1224 13.5698 35.6818 13.1969C36.2458 12.824 37.1452 12.4891 38.3833 12.2025C39.8799 11.8536 40.9272 11.5333 41.5151 11.232C41.5151 10.4095 41.458 9.86929 41.3381 9.61116C41.2226 9.35799 41.0078 9.14759 40.6972 8.98022C40.3864 8.81783 39.9464 8.73649 39.3775 8.73649C38.7991 8.73649 38.3448 8.8651 38.015 9.1285C37.6851 9.39117 37.4176 9.87886 37.2121 10.6011H37.2128ZM41.5151 13.7848C41.1041 13.9522 40.4589 14.1531 39.5888 14.3778C38.5849 14.6409 37.9296 14.9321 37.6189 15.2478C37.3081 15.5682 37.155 15.9843 37.155 16.4909C37.155 17.0598 37.3274 17.5431 37.6667 17.9349C38.0111 18.322 38.4416 18.5179 38.9578 18.5179C39.417 18.5179 39.8713 18.3604 40.3203 18.0447C40.7699 17.7294 41.0806 17.3566 41.2574 16.9261C41.4295 16.4959 41.5151 15.7115 41.5151 14.5737V13.7848ZM47.8551 20.9561V0.417873H51.0961V20.9561H47.8551ZM61.0211 20.9561V0.417873H64.3157L71.2338 14.1342V0.417873H74.3892V20.9561H70.9804L64.1772 7.56509V20.9561H61.0211ZM80.3502 10.6011L77.4246 9.99853C77.7784 8.47836 78.3614 7.38825 79.179 6.72361C79.9918 6.05898 81.1637 5.72422 82.6933 5.72422C84.0561 5.72422 85.0929 5.91567 85.8102 6.29806C86.5274 6.68044 87.0389 7.2018 87.3497 7.86146C87.6554 8.52113 87.8086 9.7215 87.8086 11.4617L87.7793 16.0609C87.7793 17.3516 87.8318 18.3123 87.9321 18.9434C88.0329 19.5745 88.2195 20.244 88.4966 20.9561H85.3127L84.8916 19.3308C84.3418 19.9859 83.7492 20.4781 83.118 20.808C82.487 21.1378 81.8179 21.3007 81.1053 21.3007C79.9199 21.3007 78.9444 20.8991 78.189 20.1007C77.4288 19.2972 77.0513 18.2361 77.0513 16.9068C77.0513 16.0608 77.2038 15.3291 77.5146 14.698C77.8253 14.072 78.2606 13.5698 78.82 13.1969C79.3839 12.824 80.2833 12.4891 81.5214 12.2025C83.0179 11.8536 84.0646 11.5333 84.6525 11.232C84.6525 10.4095 84.5955 9.86929 84.4755 9.61116C84.3615 9.35799 84.146 9.14759 83.8353 8.98022C83.5245 8.81783 83.0845 8.73649 82.5156 8.73649C81.9372 8.73649 81.483 8.8651 81.1531 9.1285C80.8233 9.39117 80.555 9.87886 80.3495 10.6011H80.3502ZM84.6532 13.7848C84.2422 13.9522 83.597 14.1531 82.7269 14.3778C81.7228 14.6409 81.0678 14.9321 80.757 15.2478C80.4462 15.5682 80.2931 15.9843 80.2931 16.4909C80.2931 17.0598 80.4654 17.5431 80.8048 17.9349C81.149 18.322 81.5797 18.5179 82.0959 18.5179C82.5549 18.5179 83.0085 18.3604 83.4577 18.0447C83.9073 17.7294 84.2187 17.3566 84.3956 16.9261C84.5675 16.4959 84.6532 15.7115 84.6532 14.5737V13.7848ZM94.0908 20.9561H90.849V6.06859H93.8609V8.18157C94.3772 7.19214 94.8366 6.53725 95.2427 6.21187C95.6492 5.88708 96.118 5.72422 96.6487 5.72422C97.3895 5.72422 98.0922 5.97283 98.7664 6.46542L97.7579 9.89789C97.2222 9.46786 96.72 9.25287 96.2419 9.25287C95.7924 9.25287 95.3958 9.42025 95.0514 9.75015C94.7122 10.0844 94.464 10.6822 94.3156 11.5523C94.1672 12.4225 94.0908 14.0239 94.0908 16.3521V20.9561ZM103.236 20.9561H99.9947V6.06859H103.007V8.18157C103.524 7.19214 103.982 6.53725 104.388 6.21187C104.795 5.88708 105.264 5.72422 105.794 5.72422C106.535 5.72422 107.238 5.97283 107.912 6.46542L106.904 9.89789C106.368 9.46786 105.866 9.25287 105.388 9.25287C104.938 9.25287 104.541 9.42025 104.197 9.75015C103.858 10.0844 103.61 10.6822 103.461 11.5523C103.313 12.4225 103.236 14.0239 103.236 16.3521V20.9561ZM108.509 13.3022C108.509 11.8441 108.801 10.5149 109.379 9.31496C109.958 8.11958 110.714 7.22088 111.646 6.62333C112.583 6.0255 113.63 5.72422 114.802 5.72422C116.762 5.72422 118.301 6.49415 119.419 8.03347C120.543 9.57308 121.102 11.3705 121.102 13.4264C121.102 14.9611 120.811 16.3476 120.227 17.5809C119.644 18.8145 118.879 19.7469 117.928 20.3684C116.981 20.9899 115.944 21.3007 114.816 21.3007C113.004 21.3007 111.498 20.6074 110.302 19.2255C109.107 17.8391 108.509 15.8644 108.509 13.3022ZM111.808 13.5127C111.808 15.0184 112.105 16.1561 112.693 16.9309C113.286 17.7004 113.999 18.0879 114.835 18.0879C115.653 18.0879 116.35 17.7004 116.933 16.9215C117.512 16.1466 117.803 14.9994 117.803 13.4836C117.803 12.0066 117.507 10.8782 116.919 10.1038C116.326 9.32442 115.619 8.93705 114.792 8.93705C113.974 8.93705 113.276 9.32442 112.688 10.1038C112.1 10.8782 111.808 12.0161 111.808 13.5127ZM125.931 20.9561L122.078 6.06859H125.214L127.485 15.8264L129.608 6.06859H132.691L134.714 15.8264L137.056 6.06859H140.236L136.33 20.9561H133.198L131.128 11.3799L129.044 20.9561H125.931ZM153.608 9.16651V6.06859H164.652V9.16651H160.751V20.9561H157.509V9.16651H153.608ZM165.794 13.3022C165.794 11.8441 166.086 10.5149 166.664 9.31496C167.243 8.11958 167.999 7.22088 168.931 6.62333C169.868 6.0255 170.914 5.72422 172.086 5.72422C174.046 5.72422 175.586 6.49415 176.704 8.03347C177.828 9.57308 178.387 11.3705 178.387 13.4264C178.387 14.9611 178.095 16.3476 177.512 17.5809C176.929 18.8145 176.164 19.7469 175.212 20.3684C174.266 20.9899 173.229 21.3007 172.101 21.3007C170.289 21.3007 168.782 20.6074 167.587 19.2255C166.392 17.8391 165.794 15.8644 165.794 13.3022ZM169.093 13.5127C169.093 15.0184 169.39 16.1561 169.978 16.9309C170.57 17.7004 171.283 18.0879 172.119 18.0879C172.937 18.0879 173.635 17.7004 174.218 16.9215C174.797 16.1466 175.088 14.9994 175.088 13.4836C175.088 12.0066 174.792 10.8782 174.204 10.1038C173.611 9.32442 172.903 8.93705 172.076 8.93705C171.259 8.93705 170.561 9.32442 169.973 10.1038C169.385 10.8782 169.093 12.0161 169.093 13.5127ZM189.403 20.9561V9.16651H185.043V15.9651C185.043 17.0597 184.967 17.9539 184.818 18.6517C184.67 19.3498 184.416 19.9047 184.058 20.3252C183.699 20.7412 183.345 20.9944 182.996 21.0807C182.647 21.1713 182.164 21.2136 181.547 21.2136C181.174 21.2136 180.506 21.1273 179.535 20.9604V18.0584C179.798 18.0774 180.237 18.0877 180.864 18.0877C181.246 18.0877 181.5 17.9531 181.619 17.686C181.739 17.4184 181.801 16.8207 181.801 15.8839V6.06842H192.644V20.9561H189.403ZM206.527 10.4864L203.343 11.1746C203.109 9.60674 202.373 8.82231 201.13 8.82231C200.331 8.82231 199.686 9.15702 199.199 9.83116C198.711 10.5053 198.467 11.6431 198.467 13.2445C198.467 15.0138 198.711 16.2615 199.199 16.9932C199.681 17.7245 200.331 18.0879 201.144 18.0879C201.751 18.0879 202.253 17.8772 202.645 17.4612C203.037 17.0457 203.319 16.3044 203.487 15.2478L206.671 15.9074C206.016 19.5026 204.137 21.3007 201.029 21.3007C199.045 21.3007 197.573 20.5403 196.612 19.0246C195.651 17.5094 195.168 15.688 195.168 13.5554C195.168 11.0026 195.713 9.05674 196.803 7.72265C197.893 6.38884 199.318 5.72422 201.087 5.72422C202.516 5.72422 203.683 6.10669 204.586 6.86707C205.485 7.62745 206.135 8.83186 206.527 10.4864ZM207.531 9.16651V6.06859H218.575V9.16651H214.674V20.9561H211.432V9.16651H207.531ZM220.55 20.9561V6.06859H223.791V12.236H227.314C229.432 12.236 230.799 12.7046 231.416 13.6465C232.033 14.5883 232.339 15.5778 232.339 16.6153C232.339 19.5077 230.8 20.9561 227.721 20.9561H220.55ZM223.791 14.6454V18.4606H227.066C228.362 18.4606 229.011 17.8247 229.011 16.5582C229.011 15.903 228.811 15.4199 228.409 15.1091C228.008 14.7984 227.262 14.6454 226.172 14.6454H223.791ZM234.95 20.9561V6.06859H238.191V20.9561H234.95ZM241.404 20.9561V6.06859H244.501V15.4153L249.44 6.06859H252.648V20.9561H249.55V11.4137L244.511 20.9561H241.404ZM249.292 0.188232H250.87C250.784 1.49353 250.415 2.50188 249.756 3.20496C249.096 3.90775 248.274 4.26163 247.293 4.26163C246.309 4.26163 245.487 3.90775 244.827 3.20496C244.167 2.50188 243.794 1.49353 243.698 0.188232H245.276C245.396 1.52701 246.07 2.19611 247.293 2.19611C248.513 2.19611 249.182 1.52701 249.292 0.188232Z" fill="black"/>
</svg>
