<svg width="250" height="17" viewBox="0 0 250 17" fill="none" xmlns="http://www.w3.org/2000/svg">
<path fill-rule="evenodd" clip-rule="evenodd" d="M0.233118 9.36796C0.193652 7.49961 0.86245 5.89706 2.24011 4.55872C3.61776 3.22082 5.24733 2.56542 7.12839 2.59188C8.32085 2.59188 9.41357 2.86325 10.4072 3.40642C11.4008 3.94959 12.1825 4.68469 12.7518 5.612L11.1624 6.78464C10.1953 5.27427 8.85711 4.51929 7.14838 4.51929C5.79718 4.51929 4.67082 4.97962 3.76997 5.90034C2.86927 6.82092 2.41889 7.97657 2.41889 9.36796C2.41889 10.7589 2.86927 11.9145 3.76997 12.8352C4.67082 13.756 5.79718 14.2166 7.14838 14.2166C8.85711 14.2166 10.1953 13.4612 11.1624 11.9509L12.7518 13.1236C12.1825 14.0642 11.4042 14.8024 10.4172 15.339C9.43014 15.8756 8.33415 16.1442 7.12839 16.1442C5.24733 16.1705 3.61776 15.5147 2.24011 14.1768C0.86245 12.8385 0.193359 11.2357 0.233118 9.36796ZM23.721 11.7325H16.4482C16.5797 12.5273 16.9349 13.1534 17.5113 13.6105C18.0873 14.0674 18.793 14.2957 19.6275 14.2957C20.6609 14.2957 21.6082 13.9115 22.4691 13.1434L23.4626 14.5742C22.3634 15.6208 21.0648 16.1442 19.5679 16.1442C18.0841 16.1442 16.8391 15.6572 15.8322 14.6834C14.8253 13.7098 14.3216 12.5007 14.3216 11.0568C14.2953 9.65255 14.7854 8.44367 15.7923 7.43056C16.7992 6.41702 17.9918 5.92352 19.3694 5.95012C20.6543 5.95012 21.7274 6.37725 22.5883 7.23161C23.4494 8.08598 23.8798 9.1492 23.8798 10.4209C23.8798 10.8053 23.8271 11.2424 23.721 11.7325ZM16.4881 10.1029H21.7936C21.779 9.37455 21.5351 8.79476 21.0581 8.36429C20.5812 7.93338 19.9918 7.71837 19.2899 7.71837C18.6008 7.71837 18.0014 7.93338 17.4913 8.36429C16.9813 8.79476 16.6467 9.37455 16.4881 10.1029ZM31.8485 6.16852V8.01635H31.2126C30.3645 8.01635 29.676 8.25508 29.146 8.73204C28.6162 9.20884 28.3513 9.87099 28.3513 10.7192V15.9253H26.2647V6.16852H28.2121V7.44038C28.9405 6.52594 29.8878 6.06896 31.0538 6.06896C31.3185 6.06896 31.5837 6.10257 31.8485 6.16835V6.16852ZM41.2675 10.0233V15.9253H39.3205V14.8322C38.5917 15.7065 37.5517 16.1442 36.2001 16.1442C35.18 16.1442 34.3592 15.8857 33.7363 15.3689C33.1141 14.8522 32.8021 14.1701 32.8021 13.322C32.8021 12.4742 33.1274 11.7989 33.7763 11.2954C34.4254 10.792 35.2996 10.5401 36.3992 10.5401H39.1613V9.90415C39.1613 9.22869 38.9792 8.71201 38.6146 8.35448C38.2504 7.99651 37.7373 7.81776 37.0751 7.81776C36.0816 7.81776 35.1801 8.30134 34.3723 9.2684L33.1604 8.03616C34.1143 6.6452 35.4851 5.95012 37.2735 5.95012C38.4925 5.95012 39.463 6.30764 40.1848 7.02285C40.907 7.73835 41.2675 8.7385 41.2675 10.0233ZM39.1613 12.2295V12.0503H36.6576C35.5053 12.0503 34.929 12.4477 34.929 13.2428C34.929 13.6402 35.0845 13.9547 35.3957 14.1868C35.7069 14.4184 36.1213 14.5344 36.6376 14.5344C37.3531 14.5344 37.9527 14.3156 38.4362 13.8785C38.9197 13.4413 39.1613 12.8916 39.1613 12.2295ZM49.8722 15.9253V2.81028H54.6612C55.9858 2.81028 57.059 3.18431 57.8801 3.93314C58.7013 4.68139 59.1127 5.64495 59.1127 6.82426C59.1127 8.00297 58.6981 8.97013 57.8701 9.72554C57.0422 10.4805 55.9725 10.8579 54.6612 10.8579H51.9784V15.9253H49.8722ZM51.9784 8.99005H54.6213C55.3496 8.99005 55.9193 8.79814 56.3299 8.41372C56.7405 8.02958 56.9466 7.50639 56.9466 6.84424C56.9466 6.18165 56.7405 5.65495 56.3299 5.26424C55.9193 4.87352 55.3496 4.67791 54.6213 4.67791H51.9784V8.99005ZM66.8816 6.16852V8.01635H66.2464C65.3983 8.01635 64.7095 8.25508 64.1795 8.73204C63.6496 9.20884 63.3844 9.87099 63.3844 10.7192V15.9253H61.2982V6.16852H63.2459V7.44038C63.9743 6.52594 64.9212 6.06896 66.0872 6.06896C66.3519 6.06896 66.6167 6.10257 66.8816 6.16835V6.16852ZM67.9351 11.037C67.9088 9.64605 68.4085 8.44367 69.4353 7.43056C70.462 6.41702 71.6772 5.92352 73.0817 5.95012C74.4993 5.92381 75.7248 6.42025 76.7581 7.44038C77.7915 8.46006 78.2948 9.6592 78.2683 11.037C78.2946 12.428 77.7915 13.6335 76.7581 14.6536C75.7248 15.6737 74.4993 16.1702 73.0817 16.1442C71.6772 16.1705 70.462 15.6705 69.4353 14.6436C68.4085 13.6169 67.9086 12.4147 67.9351 11.037ZM76.1222 11.0573C76.1222 10.1565 75.8308 9.39802 75.2479 8.78235C74.6649 8.16625 73.9498 7.85826 73.1017 7.85826C72.2406 7.85826 71.5185 8.16625 70.9355 8.78235C70.3526 9.39802 70.0612 10.1565 70.0612 11.0573C70.0612 11.958 70.3492 12.7102 70.9256 13.3127C71.5019 13.9155 72.2203 14.2172 73.0817 14.2172C73.9428 14.2172 74.6649 13.9121 75.2479 13.3027C75.8308 12.6936 76.1222 11.9449 76.1222 11.0573ZM98.0998 2.59242H98.8157V15.926H96.7088V7.6991L92.9532 12.6274H92.238L88.4624 7.6793V15.926H86.3562V2.59242H87.0914L92.5956 9.92467L98.0998 2.59242ZM110.659 11.7332H103.386C103.518 12.528 103.873 13.154 104.449 13.611C105.025 14.068 105.731 14.2962 106.565 14.2962C107.599 14.2962 108.546 13.912 109.407 13.1439L110.4 14.5747C109.301 15.6213 108.003 16.1448 106.506 16.1448C105.022 16.1448 103.777 15.6579 102.77 14.6841C101.763 13.7105 101.259 12.5012 101.259 11.0573C101.233 9.65309 101.724 8.44421 102.73 7.4311C103.737 6.41755 104.929 5.92406 106.307 5.95066C107.592 5.95066 108.665 6.37778 109.526 7.23215C110.387 8.08651 110.818 9.14974 110.818 10.4214C110.818 10.8058 110.765 11.2431 110.659 11.7332ZM103.426 10.1035H108.731C108.717 9.37509 108.473 8.79548 107.996 8.36501C107.519 7.93409 106.93 7.71909 106.228 7.71909C105.539 7.71909 104.939 7.93409 104.429 8.36501C103.919 8.79548 103.584 9.37509 103.426 10.1035ZM120.615 1.02241H122.721V15.926H120.773V14.535C120.018 15.6081 118.879 16.1448 117.355 16.1448C115.991 16.1448 114.855 15.6579 113.947 14.6841C113.04 13.7105 112.586 12.5012 112.586 11.0573C112.56 9.62663 113.011 8.41136 113.938 7.41111C114.865 6.41087 116.004 5.92406 117.355 5.95066C118.759 5.95066 119.846 6.4209 120.615 7.36151V1.02241ZM119.8 13.4021C120.37 12.8456 120.655 12.0642 120.655 11.0573C120.655 10.0505 120.366 9.26579 119.79 8.7026C119.214 8.13955 118.522 7.85826 117.714 7.85826C116.865 7.85826 116.154 8.15615 115.577 8.75238C115.001 9.34861 114.713 10.1102 114.713 11.0375C114.713 11.9648 114.998 12.73 115.567 13.3325C116.137 13.9353 116.852 14.2366 117.714 14.2366C118.535 14.2366 119.23 13.9586 119.8 13.4021ZM125.742 15.926V6.16906H127.828V15.926H125.742ZM125.781 3.50634C125.502 3.24119 125.364 2.91681 125.364 2.53282C125.364 2.14825 125.503 1.82039 125.781 1.54895C126.059 1.27722 126.397 1.14178 126.794 1.14178C127.178 1.14178 127.509 1.27766 127.788 1.54895C128.066 1.82039 128.205 2.14825 128.205 2.53282C128.205 2.91681 128.066 3.24119 127.788 3.50634C127.509 3.77105 127.178 3.90388 126.794 3.90388C126.397 3.90388 126.059 3.77076 125.781 3.50634ZM130.748 11.8323V6.16906H132.815V11.9913C132.815 12.6538 133.02 13.1903 133.431 13.6011C133.842 14.0116 134.372 14.2172 135.021 14.2172C135.643 14.2172 136.157 14.0116 136.561 13.6011C136.965 13.1903 137.167 12.6538 137.167 11.9913V6.16906H139.254V11.8323C139.254 13.1175 138.852 14.1575 138.051 14.9521C137.25 15.7469 136.24 16.1448 135.021 16.1448C133.776 16.1448 132.752 15.7503 131.951 14.9621C131.149 14.1741 130.748 13.1307 130.748 11.8323ZM156.82 9.82546V15.926H154.714V10.1234C154.714 9.43439 154.531 8.88506 154.167 8.47403C153.803 8.06343 153.309 7.85826 152.687 7.85826C152.051 7.85826 151.534 8.06002 151.137 8.46403C150.739 8.86834 150.541 9.38807 150.541 10.0241V15.926H148.454V10.1234C148.454 9.44769 148.269 8.90119 147.898 8.48402C147.527 8.0667 147.03 7.85826 146.407 7.85826C145.771 7.85826 145.255 8.0667 144.857 8.48402C144.46 8.90119 144.261 9.44769 144.261 10.1234V15.926H142.175V6.16906H144.122V7.08298C144.85 6.32801 145.791 5.95066 146.944 5.95066C148.295 5.95066 149.282 6.46066 149.905 7.48035C150.686 6.46066 151.786 5.95066 153.204 5.95066C154.316 5.95066 155.197 6.30476 155.846 7.01339C156.495 7.72232 156.82 8.65961 156.82 9.82546ZM164.669 11.0375C164.643 9.64658 165.143 8.44421 166.17 7.4311C167.196 6.41755 168.411 5.92406 169.816 5.95066C171.234 5.92435 172.459 6.42097 173.492 7.44109C174.526 8.46078 175.029 9.65974 175.003 11.0375C175.029 12.4285 174.526 13.634 173.492 14.6542C172.459 15.6743 171.234 16.1708 169.816 16.1448C168.411 16.1711 167.196 15.6712 166.17 14.6443C165.143 13.6176 164.643 12.4152 164.669 11.0375ZM172.857 11.0581C172.857 10.1572 172.565 9.39856 171.982 8.78289C171.399 8.16678 170.684 7.8588 169.836 7.8588C168.975 7.8588 168.253 8.16678 167.67 8.78289C167.087 9.39856 166.796 10.1572 166.796 11.0581C166.796 11.9588 167.084 12.7107 167.66 13.3132C168.236 13.9161 168.955 14.2177 169.816 14.2177C170.677 14.2177 171.399 13.9126 171.982 13.3033C172.565 12.6942 172.857 11.9456 172.857 11.0581ZM187.244 11.217C187.244 12.5947 186.75 13.757 185.763 14.7045C184.776 15.6517 183.56 16.1253 182.116 16.1253C180.58 16.1253 179.338 15.6053 178.391 14.5653C177.444 13.5253 176.97 12.1643 176.97 10.4817V8.91172C176.97 7.40192 177.135 6.16961 177.467 5.2157C178.142 3.17546 180.083 1.92375 183.289 1.4601C184.813 1.248 185.846 1.02976 186.389 0.804363V2.75176C185.78 3.00361 184.779 3.2087 183.388 3.36788C182.421 3.51405 181.646 3.7021 181.063 3.93422C180.48 4.16575 180.033 4.49074 179.722 4.90791C179.411 5.32523 179.205 5.76881 179.106 6.23918C179.007 6.70941 178.951 7.33556 178.937 8.11699C179.785 6.91167 180.977 6.30877 182.514 6.30877C183.812 6.28246 184.932 6.75906 185.872 7.73943C186.813 8.71979 187.27 9.8787 187.244 11.217ZM185.098 11.217C185.098 10.3954 184.806 9.69342 184.223 9.11049C183.64 8.52756 182.931 8.23636 182.096 8.23636C181.275 8.23636 180.573 8.52756 179.99 9.11049C179.407 9.69342 179.116 10.3954 179.116 11.217C179.116 12.0515 179.407 12.7604 179.99 13.343C180.573 13.926 181.275 14.2177 182.096 14.2177C182.931 14.2177 183.64 13.926 184.223 13.343C184.806 12.7604 185.098 12.0515 185.098 11.217ZM189.648 15.9265V6.16959H191.754V9.26965H193.801C194.953 9.26965 195.881 9.56771 196.584 10.1639C197.285 10.7602 197.636 11.568 197.636 12.5881C197.636 13.6082 197.285 14.4195 196.584 15.0224C195.881 15.6252 194.953 15.9265 193.801 15.9265H189.648ZM198.888 15.9265V6.16959H200.974V15.9265H198.888ZM191.754 14.1181H193.722C194.291 14.1181 194.732 13.9897 195.043 13.731C195.355 13.4724 195.51 13.0982 195.51 12.6079C195.51 12.1178 195.351 11.7404 195.033 11.4752C194.715 11.2105 194.271 11.0779 193.702 11.0779H191.754V14.1181ZM209.638 6.16959H211.725V15.9265H209.638V12.2903C209.082 12.5419 208.32 12.6677 207.353 12.6677C206.121 12.6677 205.157 12.3163 204.462 11.6144C203.766 10.9121 203.419 9.92521 203.419 8.65353V6.16959H205.505V8.53416C205.505 10.0444 206.26 10.7999 207.77 10.7999C208.459 10.7999 209.082 10.6873 209.638 10.4617V6.16959ZM214.805 15.9265V6.16959H216.911V9.90522H221.104V6.16959H223.191V15.9265H221.104V11.7138H216.911V15.9265H214.805ZM226.251 15.9265V6.16959H228.357V9.26965H230.404C231.557 9.26965 232.484 9.56771 233.186 10.1639C233.888 10.7602 234.239 11.568 234.239 12.5881C234.239 13.6082 233.888 14.4195 233.186 15.0224C232.484 15.6252 231.557 15.9265 230.404 15.9265H226.251ZM235.491 15.9265V6.16959H237.577V15.9265H235.491ZM228.357 14.1181H230.324C230.894 14.1181 231.334 13.9897 231.646 13.731C231.957 13.4724 232.113 13.0982 232.113 12.6079C232.113 12.1178 231.954 11.7404 231.636 11.4752C231.318 11.2105 230.874 11.0779 230.304 11.0779H228.357V14.1181ZM248.467 5.9512H249.182V15.9265H247.076V9.86579L241.392 16.1453H240.657V6.16959H242.764V12.2703L248.467 5.9512ZM241.949 1.26115V0.684814H243.658V1.24134C243.658 2.4471 244.155 3.05009 245.149 3.05009C246.156 3.05009 246.658 2.4471 246.658 1.24134V0.684814H248.388V1.26115C248.388 2.24151 248.09 3.03678 247.493 3.64587C246.897 4.2554 246.116 4.55979 245.149 4.55979C244.195 4.55979 243.422 4.2554 242.833 3.64587C242.244 3.03678 241.949 2.24151 241.949 1.26115Z" fill="black"/>
</svg>
