<svg width="250" height="21" viewBox="0 0 250 21" fill="none" xmlns="http://www.w3.org/2000/svg">
<path fill-rule="evenodd" clip-rule="evenodd" d="M7.46343 5.58827H3.87341V9.39277H7.11549V12.7954H3.87341V20.1636H0.336914V2.29266H7.46343V5.58827ZM17.4306 8.18729V16.2788C17.4306 17.2072 17.2432 17.9667 16.8678 18.5559C16.4929 19.1454 15.9704 19.6009 15.3008 19.9223C14.6309 20.2439 13.9297 20.4048 13.1971 20.4048C12.465 20.4048 11.7596 20.2393 11.0809 19.9091C10.4021 19.5785 9.88426 19.1188 9.52716 18.5291C9.20559 17.9934 9.04469 17.306 9.04469 16.4661V8.18729H12.3938V15.5554C12.3938 16.7164 12.6707 17.2969 13.2242 17.2969C13.3675 17.2969 13.4879 17.2703 13.5861 17.2162C13.684 17.1636 13.7644 17.0776 13.827 16.9622C13.8898 16.8452 13.9398 16.7296 13.9747 16.6135C14.0098 16.498 14.033 16.3544 14.0418 16.1846C14.0564 16.0151 14.0609 15.8768 14.0682 15.7695C14.0828 15.6628 14.0828 15.5285 14.0682 15.3677C14.0536 15.2069 14.0536 15.1001 14.0536 15.0462V8.18729H17.4306ZM24.611 10.9737H23.2449V20.1636H19.8961V10.9737H18.7435V8.18729H19.8961V4.78462H23.2449V8.18729H24.611V10.9737ZM34.1228 8.18729V16.2788C34.1228 17.2072 33.9357 17.9667 33.5603 18.5559C33.1853 19.1454 32.6626 19.6009 31.993 19.9223C31.323 20.2439 30.6219 20.4048 29.8893 20.4048C29.1573 20.4048 28.4518 20.2393 27.7731 19.9091C27.0945 19.5785 26.5762 19.1188 26.219 18.5291C25.8974 17.9934 25.7369 17.306 25.7369 16.4661V8.18729H29.086V15.5554C29.086 16.7164 29.3629 17.2969 29.9164 17.2969C30.0597 17.2969 30.1799 17.2703 30.2779 17.2162C30.3759 17.1636 30.4566 17.0776 30.5192 16.9622C30.582 16.8452 30.6302 16.7296 30.6666 16.6135C30.7016 16.498 30.7252 16.3544 30.734 16.1846C30.7486 16.0151 30.7516 15.8768 30.7604 15.7695C30.775 15.6628 30.775 15.5285 30.7604 15.3677C30.7458 15.2069 30.7458 15.1001 30.7458 15.0462V8.18729H34.1228ZM42.3755 7.7587V11.0004C42.1612 10.9654 42.0003 10.9465 41.8931 10.9465C40.9641 10.9465 40.352 11.1784 40.0574 11.6428C39.7624 12.1073 39.6156 12.8308 39.6156 13.8132V20.1628H36.2668V8.18658H39.6156V9.66042C40.0262 9.07077 40.4283 8.63293 40.821 8.34717C41.2142 8.06126 41.7324 7.86484 42.3755 7.75799V7.7587ZM52.1814 20.1636H48.8326V18.7971C48.2434 19.869 47.502 20.4048 46.6086 20.4048C45.9656 20.4048 45.4116 20.1813 44.9471 19.7346C44.4825 19.2884 44.1484 18.7122 43.9429 18.007C43.7374 17.3013 43.5898 16.6315 43.5004 15.9976C43.4112 15.3632 43.3662 14.7425 43.3662 14.1355C43.3662 13.4925 43.4072 12.8669 43.4861 12.2594C43.5665 11.6521 43.7095 11.0003 43.915 10.3038C44.1201 9.6069 44.4504 9.04431 44.9057 8.61589C45.361 8.18702 45.9199 7.97282 46.5808 7.97282C47.5632 7.97282 48.3131 8.53577 48.8312 9.66113V8.18729H52.1799L52.1814 20.1636ZM47.9483 17.404C48.6986 17.404 49.0738 16.3323 49.0738 14.189C49.0738 12.0455 48.6901 10.9737 47.9219 10.9737C47.1359 10.9737 46.7428 12.0455 46.7428 14.189C46.7428 16.3323 47.1448 17.404 47.9483 17.404ZM60.8895 2.29266H65.1761C66.4801 2.29266 67.4808 2.489 68.1773 2.88219C68.9633 3.32845 69.5661 3.9805 69.9859 4.83779C70.4055 5.69508 70.6154 6.61535 70.6154 7.59776C70.6154 9.41963 70.0435 10.7818 68.9003 11.6838C67.7571 12.5858 66.2655 12.9652 64.426 12.8222V20.1636H60.8895V2.29266ZM64.426 9.84813H64.6401C65.48 9.84813 66.101 9.67415 66.5029 9.32568C66.9049 8.97765 67.1053 8.39262 67.1053 7.571C67.1053 5.96327 66.4175 5.15933 65.0419 5.15933H64.426V9.84813ZM80.2071 5.56151H77.4472V20.1636H73.9107V5.56151H71.1514V2.29266H80.2071V5.56151ZM96.5242 16.0911V19.7885C95.8456 20.1634 95.0322 20.3513 94.0854 20.3513C92.3354 20.3513 90.9242 19.815 89.8524 18.7436C88.2446 17.1359 87.4414 14.7245 87.4414 11.5097C87.4414 8.16924 88.2985 5.63317 90.0129 3.90032C91.2101 2.70377 92.6389 2.10495 94.3003 2.10495C95.0503 2.10495 95.7916 2.27478 96.5242 2.61419V6.2581C95.9524 5.74007 95.3004 5.48122 94.5679 5.48122C93.7997 5.48122 93.148 5.74915 92.6123 6.28487C91.6299 7.26728 91.1385 8.97291 91.1385 11.4023C91.1385 13.5991 91.558 15.1621 92.3975 16.0911C92.8975 16.6629 93.5679 16.9482 94.4073 16.9482C95.1933 16.9482 95.8991 16.6629 96.5242 16.0911ZM106.973 11.9515C107.116 12.6393 107.188 13.3851 107.188 14.189C107.188 14.9928 107.116 15.7384 106.973 16.4258C106.83 17.1135 106.599 17.77 106.277 18.3953C105.956 19.0205 105.487 19.5119 104.871 19.8692C104.254 20.2262 103.526 20.4048 102.687 20.4048C101.865 20.4048 101.146 20.2215 100.53 19.8552C99.9134 19.4894 99.44 18.9934 99.1093 18.3685C98.7791 17.7434 98.5336 17.0828 98.3728 16.3858C98.212 15.6893 98.1315 14.9571 98.1315 14.189C98.1315 13.4207 98.212 12.6884 98.3728 11.9914C98.5336 11.2949 98.7791 10.6342 99.1093 10.0091C99.44 9.38419 99.9134 8.88833 100.53 8.52203C101.146 8.15617 101.865 7.97282 102.687 7.97282C103.544 7.97282 104.276 8.15138 104.883 8.50847C105.491 8.86571 105.956 9.35714 106.277 9.98231C106.599 10.6076 106.83 11.2642 106.973 11.9515ZM102.687 17.404C103.436 17.404 103.812 16.3323 103.812 14.189C103.812 12.0455 103.436 10.9737 102.687 10.9737C101.9 10.9737 101.508 12.0455 101.508 14.189C101.508 16.3323 101.9 17.404 102.687 17.404ZM117.396 20.1636H114.047V12.8222C114.047 11.822 113.779 11.322 113.243 11.322C113.011 11.322 112.828 11.3806 112.694 11.4961C112.559 11.6116 112.471 11.7999 112.426 12.0589C112.381 12.3178 112.354 12.5052 112.345 12.6213C112.331 12.7368 112.331 12.9385 112.331 13.2244V20.1636H108.982V8.18729H112.331V10.063C113.045 8.66952 113.992 7.97282 115.171 7.97282C115.653 7.97282 116.055 8.0752 116.376 8.28115C116.698 8.48623 116.925 8.7814 117.059 9.16509C117.194 9.54908 117.283 9.91069 117.327 10.25C117.372 10.5894 117.394 11.0092 117.394 11.5097L117.396 20.1636ZM128.006 20.1636H124.657V18.7971C124.068 19.869 123.326 20.4048 122.433 20.4048C121.79 20.4048 121.236 20.1813 120.772 19.7346C120.307 19.2884 119.973 18.7122 119.767 18.007C119.562 17.3013 119.414 16.6315 119.325 15.9976C119.236 15.3632 119.191 14.7425 119.191 14.1355C119.191 13.4925 119.23 12.8669 119.311 12.2594C119.391 11.6521 119.534 11.0003 119.739 10.3038C119.945 9.6069 120.275 9.04431 120.73 8.61589C121.186 8.18702 121.744 7.97282 122.405 7.97282C123.388 7.97282 124.138 8.53577 124.656 9.66113V0.63147H128.004L128.006 20.1636ZM123.773 17.404C124.523 17.404 124.898 16.3323 124.898 14.189C124.898 12.0455 124.514 10.9737 123.746 10.9737C122.96 10.9737 122.567 12.0455 122.567 14.189C122.567 16.3323 122.969 17.404 123.773 17.404ZM136.714 2.29266H140.492C142.135 2.29266 143.386 2.71257 144.243 3.55202C145.225 4.49877 145.716 5.78449 145.716 7.41005C145.716 8.44581 145.439 9.29471 144.885 9.95554C144.475 10.4379 144.001 10.7861 143.466 11.0004C144.287 11.3042 144.93 11.831 145.395 12.5813C145.806 13.2778 146.011 14.1172 146.011 15.1001C146.011 16.5644 145.564 17.7436 144.671 18.6366C143.653 19.6545 142.251 20.1636 140.465 20.1636H136.714V2.29266ZM140.25 5.21286V9.63401C140.911 9.59893 141.429 9.39278 141.805 9.01771C142.18 8.64235 142.367 8.08905 142.367 7.35688C142.367 6.65994 142.18 6.12415 141.805 5.74922C141.448 5.39198 140.929 5.21286 140.25 5.21286ZM140.25 12.3669V17.1092C140.929 17.1092 141.465 16.9218 141.858 16.5464C142.304 16.1358 142.528 15.5552 142.528 14.8049C142.528 13.9833 142.296 13.3581 141.831 12.9296C141.403 12.5543 140.876 12.3669 140.25 12.3669ZM156.54 11.9515C156.684 12.6393 156.755 13.3851 156.755 14.189C156.755 14.9928 156.683 15.7384 156.54 16.4258C156.397 17.1135 156.166 17.77 155.845 18.3953C155.523 19.0205 155.054 19.5119 154.438 19.8692C153.822 20.2262 153.093 20.4048 152.254 20.4048C151.432 20.4048 150.714 20.2215 150.097 19.8552C149.481 19.4894 149.007 18.9934 148.677 18.3685C148.346 17.7434 148.101 17.0828 147.94 16.3858C147.779 15.6893 147.699 14.9571 147.699 14.189C147.699 13.4207 147.779 12.6884 147.94 11.9914C148.101 11.2949 148.346 10.6342 148.677 10.0091C149.007 9.38419 149.481 8.88833 150.097 8.52203C150.714 8.15617 151.432 7.97282 152.254 7.97282C153.111 7.97282 153.844 8.15138 154.451 8.50847C155.058 8.86571 155.523 9.35714 155.845 9.98231C156.166 10.6076 156.398 11.2642 156.54 11.9515ZM152.254 17.404C153.004 17.404 153.379 16.3323 153.379 14.189C153.379 12.0455 153.004 10.9737 152.254 10.9737C151.468 10.9737 151.075 12.0455 151.075 14.189C151.075 16.3323 151.468 17.404 152.254 17.404ZM161.899 20.1636H158.55V0.63147H161.899V20.1636ZM172.509 20.1636H169.16V18.7971C168.571 19.869 167.829 20.4048 166.936 20.4048C166.293 20.4048 165.74 20.1813 165.275 19.7346C164.81 19.2884 164.476 18.7122 164.27 18.007C164.065 17.3013 163.918 16.6315 163.828 15.9976C163.739 15.3632 163.695 14.7425 163.695 14.1355C163.695 13.4925 163.734 12.8669 163.815 12.2594C163.895 11.6521 164.038 11.0003 164.244 10.3038C164.449 9.6069 164.78 9.04431 165.235 8.61589C165.69 8.18702 166.248 7.97282 166.909 7.97282C167.892 7.97282 168.642 8.53577 169.16 9.66113V0.63147H172.509V20.1636ZM168.275 17.404C169.026 17.404 169.401 16.3323 169.401 14.189C169.401 12.0455 169.017 10.9737 168.249 10.9737C167.463 10.9737 167.071 12.0455 167.071 14.189C167.071 16.3323 167.472 17.404 168.275 17.404ZM187.674 10.9737H185.53V20.1636H182.182V10.9737H180.038V8.18729H187.674V10.9737ZM196.034 9.01771C197.123 10.0715 197.668 11.7953 197.668 14.189C197.668 16.5825 197.123 18.3062 196.034 19.3599C195.301 20.0564 194.337 20.4048 193.14 20.4048C191.943 20.4048 190.978 20.0564 190.246 19.3599C189.157 18.3062 188.612 16.5825 188.612 14.189C188.612 11.7953 189.157 10.0715 190.246 9.01771C190.978 8.32121 191.943 7.97282 193.14 7.97282C194.337 7.97282 195.301 8.32121 196.034 9.01771ZM193.756 11.322C193.595 11.0894 193.39 10.9737 193.14 10.9737C192.89 10.9737 192.684 11.089 192.523 11.322C192.166 11.8398 191.988 12.7955 191.988 14.189C191.988 15.582 192.166 16.5378 192.523 17.0557C192.684 17.2878 192.89 17.404 193.14 17.404C193.39 17.404 193.595 17.2872 193.756 17.0557C194.114 16.5378 194.292 15.582 194.292 14.189C194.292 12.7955 194.114 11.8398 193.756 11.322ZM208.519 8.18729V20.1636H205.17V10.9737H203.509V14.5637C203.509 17.1003 203.107 18.7702 202.303 19.574C201.749 20.128 200.936 20.4048 199.865 20.4048C199.382 20.4048 198.927 20.333 198.499 20.1903V17.3504C198.677 17.4761 198.901 17.5378 199.168 17.5378C199.472 17.5378 199.722 17.44 199.918 17.2434C200.275 16.8857 200.454 16.0375 200.454 14.6979V8.18729H208.519ZM216.584 16.9218V19.9759C215.941 20.2618 215.307 20.4048 214.682 20.4048C213.914 20.4048 213.235 20.2171 212.645 19.842C212.056 19.4671 211.6 18.9756 211.279 18.3685C210.957 17.7612 210.716 17.1135 210.556 16.4258C210.395 15.7384 210.314 15.0372 210.314 14.3225C210.314 13.251 210.443 12.2597 210.703 11.3491C210.962 10.438 211.453 9.64329 212.177 8.96418C212.9 8.28551 213.806 7.94606 214.896 7.94606C215.45 7.94606 216.012 8.06136 216.584 8.29435V11.2417C216.316 10.9736 216.003 10.8398 215.646 10.8398C215.146 10.8398 214.739 11.0362 214.427 11.4294C214.114 11.8221 213.913 12.2372 213.824 12.6748C213.735 13.1128 213.691 13.5815 213.691 14.0816C213.691 16.2072 214.325 17.2698 215.593 17.2698C215.933 17.2698 216.263 17.1544 216.585 16.9218H216.584ZM225.265 10.9737H223.122V20.1636H219.772V10.9737H217.629V8.18729H225.265V10.9737ZM239.063 20.1636H235.714V8.18729H239.063V20.1636ZM226.551 8.18729H229.9V12.5813H230.65C232.043 12.5813 233.107 12.9476 233.839 13.6797C234.535 14.3406 234.884 15.2602 234.884 16.4394C234.884 17.6182 234.535 18.5381 233.839 19.199C233.16 19.842 232.142 20.1636 230.784 20.1636H226.551V8.18729ZM229.9 17.8061H230.061C230.579 17.8061 230.963 17.708 231.213 17.511C231.517 17.2789 231.668 16.9041 231.668 16.3858C231.668 15.9396 231.544 15.5908 231.294 15.3406C231.026 15.0729 230.579 14.9391 229.954 14.9391H229.9L229.9 17.8061ZM241.207 8.18729H244.368V12.4475C244.368 13.376 244.288 14.4208 244.127 15.5818C244.359 14.7424 244.645 13.9029 244.984 13.0634L246.941 8.18729H249.914V20.1636H246.753V15.716C246.753 14.93 246.824 13.9121 246.967 12.6616C246.717 13.7157 246.404 14.7068 246.029 15.6357L244.181 20.1636H241.207V8.18729ZM247.101 2.96284L249.486 3.73973C249.289 4.61471 248.833 5.31148 248.119 5.82951C247.494 6.27577 246.673 6.49898 245.654 6.49898C244.637 6.49898 243.815 6.27577 243.189 5.82951C242.474 5.31148 242.019 4.61471 241.823 3.73973L244.208 2.96284C244.243 3.44506 244.395 3.80217 244.663 4.03414C244.878 4.24872 245.208 4.35567 245.654 4.35567C246.101 4.35567 246.431 4.24901 246.645 4.03414C246.913 3.80217 247.065 3.44506 247.101 2.96284Z" fill="black"/>
</svg>
