<svg width="253" height="21" viewBox="0 0 253 21" fill="none" xmlns="http://www.w3.org/2000/svg">
<path fill-rule="evenodd" clip-rule="evenodd" d="M0.161133 19.7716L7.23734 1.3254H9.92058L17.4307 19.7716H14.6522L12.5185 14.1813H4.75144L2.75052 19.7716H0.161133ZM5.46802 12.1974H11.7541L9.83065 7.08353C9.25094 5.52901 8.81318 4.24529 8.50812 3.23175C8.25495 4.43415 7.91556 5.61509 7.49035 6.7827L5.46802 12.1974ZM19.058 19.7716V6.40086H21.0928V8.44888C21.6125 7.50009 22.0936 6.87306 22.5356 6.57268C22.9782 6.26777 23.4634 6.11733 23.9913 6.11733C24.7557 6.11733 25.5329 6.35807 26.3226 6.83444L25.5158 8.92529C24.9663 8.61614 24.4165 8.46173 23.8671 8.46173C23.3732 8.46173 22.9311 8.61205 22.5403 8.90834C22.1495 9.20463 21.8701 9.61678 21.7027 10.145C21.4495 10.9477 21.3248 11.8283 21.3248 12.7858V19.7716H19.058ZM27.6627 3.90193V1.3254H29.9298V3.90193H27.6627ZM27.6627 19.7716V6.40086H29.9298V19.7716H27.6627ZM42.1202 18.0968C41.2787 18.8141 40.4664 19.3166 39.6892 19.6129C38.9123 19.9092 38.079 20.0551 37.1862 20.0551C35.7178 20.0551 34.5883 19.6987 33.7985 18.9815C33.0085 18.2687 32.6134 17.3543 32.6134 16.2422C32.6134 15.5897 32.7637 14.9926 33.0598 14.4515C33.3606 13.9108 33.7514 13.4809 34.2321 13.1548C34.7173 12.8283 35.2584 12.5794 35.8637 12.412C36.3104 12.2965 36.9846 12.1845 37.8821 12.0726C39.711 11.8581 41.0636 11.5961 41.9268 11.2957C41.9414 10.9866 41.941 10.789 41.941 10.7075C41.941 9.78848 41.7264 9.14041 41.2973 8.76256C40.7175 8.2517 39.854 7.99799 38.7122 7.99799C37.6428 7.99799 36.8532 8.187 36.3469 8.56076C35.8356 8.93408 35.4619 9.59533 35.217 10.5487L33.0017 10.2396C33.2035 9.29024 33.534 8.52166 33.9977 7.93786C34.4613 7.35405 35.1311 6.90741 36.0071 6.58963C36.8789 6.27639 37.8969 6.11733 39.0476 6.11733C40.1895 6.11733 41.121 6.25038 41.8383 6.52094C42.5508 6.7915 43.0794 7.12632 43.4142 7.53443C43.7489 7.94224 43.9846 8.45748 44.1222 9.08017C44.1953 9.46635 44.2335 10.1623 44.2335 11.1628V14.1685C44.2335 16.2679 44.2805 17.5945 44.3755 18.1573C44.4662 18.7195 44.6547 19.256 44.9294 19.7716H42.5591C42.3312 19.295 42.1858 18.737 42.1216 18.0968H42.1202ZM41.9396 13.0733C41.1155 13.408 39.8783 13.6915 38.2297 13.9235C37.2937 14.0565 36.6321 14.2069 36.2455 14.3744C35.8593 14.5418 35.5631 14.7866 35.3527 15.1043C35.1422 15.4264 35.035 15.7828 35.035 16.1776C35.035 16.7747 35.2628 17.2768 35.7224 17.6762C36.1819 18.0756 36.851 18.2774 37.7315 18.2774C38.6033 18.2774 39.3805 18.0884 40.0632 17.706C40.7416 17.3286 41.2443 16.8091 41.562 16.1519C41.8066 15.641 41.9268 14.8893 41.9268 13.8978L41.9396 13.0733ZM47.6629 19.7716V1.3254H49.9304V19.7716H47.6629ZM59.7463 13.0861C59.7463 10.617 60.433 8.7882 61.8111 7.59866C62.9576 6.61128 64.3616 6.11733 66.0149 6.11733C67.8483 6.11733 69.3504 6.71851 70.5185 7.92091C71.6824 9.11877 72.2664 10.7803 72.2664 12.8972C72.2664 14.6147 72.0092 15.963 71.4941 16.9461C70.9787 17.9294 70.2273 18.6939 69.2395 19.2391C68.2562 19.7845 67.1783 20.0551 66.0149 20.0551C64.1425 20.0551 62.6315 19.4584 61.4763 18.2601C60.3211 17.0622 59.7463 15.336 59.7463 13.0861ZM62.0644 13.0861C62.0644 14.7953 62.4379 16.0748 63.185 16.9206C63.9366 17.7707 64.8767 18.1958 66.0149 18.1958C67.1398 18.1958 68.0758 17.7707 68.827 16.9163C69.574 16.0619 69.9482 14.7611 69.9482 13.0133C69.9482 11.3647 69.5703 10.115 68.8191 9.26931C68.0675 8.41918 67.1311 7.99388 66.0149 7.99388C64.8767 7.99388 63.9366 8.41482 63.185 9.26056C62.4379 10.1066 62.0644 11.3815 62.0644 13.0861ZM84.663 0.883423L86.6722 0.909831C86.583 1.80717 86.3804 2.43412 86.0755 2.78639C85.7706 3.13851 85.3799 3.36184 84.8993 3.4646C84.4181 3.564 83.4735 3.61502 82.0694 3.61502C80.206 3.61502 78.9348 3.79512 78.256 4.15602C77.5818 4.51648 77.0927 5.09196 76.7964 5.88216C76.5001 6.67645 76.3368 7.69417 76.3025 8.94349C76.8734 8.09322 77.5397 7.45792 78.3038 7.03286C79.0636 6.60779 79.9263 6.39729 80.8796 6.39729C82.6314 6.39729 84.0834 6.99847 85.234 8.20086C86.3804 9.40282 86.9555 11.0305 86.9555 13.0868C86.9555 14.6456 86.6681 15.925 86.0883 16.9211C85.5086 17.9176 84.8214 18.6903 84.0271 19.2355C83.2371 19.7809 82.1553 20.0515 80.7897 20.0515C79.2011 20.0515 77.9684 19.6906 77.0883 18.965C76.2079 18.2396 75.5338 17.3118 75.0613 16.1826C74.5936 15.0536 74.3576 13.0827 74.3576 10.2789C74.3576 6.75353 74.9545 4.37941 76.1441 3.15538C77.3333 1.93193 79.1665 1.32201 81.6397 1.32201C83.1811 1.32201 84.0529 1.29573 84.2634 1.24457C84.4693 1.19341 84.603 1.07245 84.663 0.883601V0.883423ZM84.5852 13.0221C84.5852 11.6352 84.2549 10.4974 83.5982 9.60868C82.941 8.71953 82.0137 8.27741 80.8154 8.27741C79.5662 8.27741 78.6043 8.7456 77.9255 9.68576C77.2473 10.6218 76.9077 11.8714 76.9077 13.4383C76.9077 14.9842 77.282 16.1694 78.0333 16.9893C78.7806 17.8097 79.7078 18.2215 80.8025 18.2215C81.9274 18.2215 82.8379 17.7452 83.5382 16.7962C84.2379 15.8474 84.5852 14.589 84.5852 13.0221ZM102.408 6.39675H104.676V19.7675H102.408V6.39675ZM89.759 6.39675H92.0265V11.6266H94.8857C96.7536 11.6266 98.188 11.9873 99.1973 12.7128C100.206 13.4383 100.708 14.439 100.708 15.7139C100.708 16.8306 100.288 17.7836 99.4464 18.5779C98.6049 19.3726 97.2607 19.7675 95.4103 19.7675H89.759V6.39675ZM92.0265 17.9125H94.4054C95.8352 17.9125 96.861 17.7364 97.4708 17.3847C98.0849 17.0324 98.3901 16.4825 98.3901 15.7355C98.3901 15.1557 98.1623 14.6409 97.7113 14.1854C97.2564 13.7346 96.2558 13.5072 94.7058 13.5072H92.0265V17.9125ZM107.351 6.39675H109.618V8.92119C109.618 10.0122 109.682 10.802 109.815 11.2916C109.944 11.781 110.257 12.2103 110.756 12.5753C111.249 12.9403 111.872 13.1206 112.623 13.1206C113.482 13.1206 114.59 12.8931 115.955 12.4423V6.39675H118.223V19.7675H115.955V14.3703C114.56 14.8082 113.255 15.0269 112.044 15.0269C111.026 15.0269 110.129 14.7697 109.351 14.2543C108.574 13.7392 108.046 13.1077 107.767 12.3608C107.488 11.6137 107.351 10.7936 107.351 9.89613V6.39675ZM121.623 6.39675H123.89V11.9613H130.176V6.39675H132.443V19.7675H130.176V13.8419H123.89V19.7675H121.623V6.39675ZM148.575 6.39675H150.842V19.7675H148.575V6.39675ZM135.925 6.39675H138.193V11.6266H141.052C142.92 11.6266 144.354 11.9873 145.364 12.7128C146.373 13.4383 146.875 14.439 146.875 15.7139C146.875 16.8306 146.454 17.7836 145.612 18.5779C144.771 19.3726 143.427 19.7675 141.577 19.7675H135.925V6.39675ZM138.193 17.9125H140.572C142.002 17.9125 143.027 17.7364 143.637 17.3847C144.251 17.0324 144.557 16.4825 144.557 15.7355C144.557 15.1557 144.329 14.6409 143.878 14.1854C143.423 13.7346 142.422 13.5072 140.872 13.5072H138.193V17.9125ZM154.367 6.39675H156.634V16.5944L162.933 6.39675H165.368V19.7675H163.101V9.63438L156.81 19.7675H154.367V6.39675ZM162.199 1.4503H163.745C163.621 2.51091 163.234 3.32688 162.59 3.89373C161.946 4.46467 161.091 4.74805 160.022 4.74805C158.949 4.74805 158.09 4.46469 157.45 3.90193C156.81 3.33509 156.424 2.51924 156.299 1.4503H157.845C157.961 2.02986 158.197 2.46371 158.545 2.74713C158.893 3.03465 159.365 3.17644 159.954 3.17644C160.636 3.17644 161.151 3.03902 161.499 2.75998C161.847 2.48532 162.083 2.04726 162.199 1.4503ZM174.733 6.39675H185.553V8.27741H181.276V19.7675H179.009V8.27741H174.733V6.39675ZM186.579 13.0822C186.579 10.6131 187.266 8.78409 188.645 7.59456C189.791 6.60718 191.195 6.11323 192.848 6.11323C194.682 6.11323 196.184 6.7144 197.352 7.9168C198.516 9.11467 199.1 10.7762 199.1 12.8931C199.1 14.6106 198.842 15.9589 198.327 16.942C197.812 17.9253 197.06 18.6898 196.072 19.235C195.089 19.7804 194.012 20.051 192.848 20.051C190.976 20.051 189.465 19.4543 188.31 18.256C187.155 17.0581 186.579 15.332 186.579 13.0822ZM188.898 13.0822C188.898 14.7914 189.271 16.0707 190.018 16.9165C190.77 17.7666 191.71 18.1917 192.848 18.1917C193.973 18.1917 194.909 17.7666 195.66 16.9122C196.408 16.0578 196.781 14.757 196.781 13.0092C196.781 11.3606 196.403 10.1109 195.652 9.2652C194.9 8.41508 193.965 7.98978 192.848 7.98978C191.71 7.98978 190.77 8.41072 190.018 9.25646C189.271 10.1025 188.898 11.3776 188.898 13.0822ZM201.758 6.39265H204.025V11.9572H210.31V6.39265H212.578V19.7633H210.31V13.8378H204.025V19.7633H201.758V6.39265ZM215.957 6.39265H218.224V12.1636C218.946 12.1636 219.452 12.0262 219.744 11.7472C220.032 11.4721 220.457 10.6695 221.024 9.33408C221.47 8.27741 221.831 7.58214 222.105 7.24697C222.385 6.9121 222.703 6.68464 223.063 6.56858C223.428 6.45311 224.008 6.39265 224.802 6.39265H225.257V8.26046L224.626 8.24583C224.03 8.24583 223.647 8.33646 223.479 8.51187C223.303 8.69663 223.033 9.24604 222.673 10.1609C222.329 11.0369 222.015 11.6423 221.728 11.977C221.444 12.3119 221.002 12.6168 220.405 12.8961C221.38 13.1579 222.342 14.064 223.287 15.6182L225.772 19.7617H223.282L220.83 15.6311C220.336 14.7937 219.907 14.2442 219.542 13.9779C219.173 13.7119 218.735 13.5788 218.224 13.5788V19.7617H215.957V6.39265ZM227.254 6.39265H229.521V16.5903L235.82 6.39265H238.254V19.7633H235.987V9.63027L229.696 19.7633H227.254V6.39265ZM241.646 6.39265H243.913V16.5903L250.212 6.39265H252.647V19.7633H250.38V9.63027L244.089 19.7633H241.646V6.39265ZM249.478 1.44619H251.024C250.9 2.50681 250.513 3.32277 249.869 3.88962C249.225 4.46056 248.37 4.74395 247.301 4.74395C246.228 4.74395 245.369 4.46059 244.729 3.89783C244.089 3.33098 243.703 2.51514 243.578 1.44619H245.124C245.24 2.02576 245.476 2.4596 245.824 2.74303C246.172 3.03054 246.644 3.17233 247.233 3.17233C247.915 3.17233 248.43 3.03491 248.778 2.75587C249.126 2.48122 249.362 2.04315 249.478 1.44619Z" fill="black"/>
</svg>
