<svg width="252" height="25" viewBox="0 0 252 25" fill="none" xmlns="http://www.w3.org/2000/svg">
<path fill-rule="evenodd" clip-rule="evenodd" d="M7.55729 4.03608H2.55088V11.8799H7.29036V13.7827H2.55088V24.3964H0.481445V2.134H7.55729V4.03608ZM17.6044 9.47678V20.7586C17.6044 21.9598 17.2537 22.9057 16.5527 23.5956C15.8517 24.2851 14.9112 24.6302 13.7321 24.6302C12.5528 24.6302 11.613 24.2851 10.9118 23.5956C10.2112 22.9057 9.86047 21.9598 9.86047 20.7586V9.47678H11.7297V19.5899C11.7297 20.0797 11.7457 20.4745 11.7793 20.775C11.8129 21.0754 11.8904 21.409 12.0131 21.776C12.1358 22.1435 12.3468 22.4158 12.6472 22.5939C12.9476 22.7721 13.3311 22.8609 13.7984 22.8609C14.2659 22.8609 14.6388 22.7614 14.9168 22.5604C15.1949 22.3603 15.3895 22.0545 15.501 21.6425C15.6121 21.2312 15.6789 20.8807 15.7012 20.5916C15.7232 20.3023 15.7348 19.9018 15.7348 19.39V9.47678H17.6044ZM25.8814 11.2126H23.378V24.3964H21.5088V11.2126H19.9072V9.47678H21.5088V5.23763H23.378V9.47678H25.8814V11.2126ZM35.3275 9.47678V20.7586C35.3275 21.9598 34.9767 22.9057 34.2755 23.5956C33.5745 24.2851 32.6344 24.6302 31.4552 24.6302C30.2759 24.6302 29.3358 24.2851 28.6346 23.5956C27.934 22.9057 27.5836 21.9598 27.5836 20.7586V9.47678H29.4529V19.5899C29.4529 20.0797 29.4689 20.4745 29.5025 20.775C29.5361 21.0754 29.6136 21.409 29.7362 21.776C29.859 22.1435 30.0696 22.4158 30.37 22.5939C30.6704 22.7721 31.0543 22.8609 31.5216 22.8609C31.9891 22.8609 32.3616 22.7614 32.6396 22.5604C32.9177 22.3603 33.1127 22.0545 33.2242 21.6425C33.3353 21.2312 33.4017 20.8807 33.424 20.5916C33.446 20.3023 33.4579 19.9018 33.4579 19.39V9.47678H35.3275ZM43.0707 9.24304V11.4128C42.5813 11.4128 42.1693 11.496 41.8353 11.6629C41.5018 11.8298 41.2513 12.0191 41.0844 12.2303C40.9175 12.4417 40.7899 12.7475 40.7011 13.1482C40.612 13.5488 40.5621 13.8883 40.5505 14.1663C40.5359 14.4443 40.5341 14.8393 40.5341 15.3514V24.3964H38.6649V9.47678H40.5341V11.4128C41.1573 10.011 42.0025 9.28733 43.0707 9.24304ZM52.6503 24.3964H50.7475V23.1949C50.0357 24.1516 49.19 24.6302 48.2109 24.6302C47.5659 24.6302 47.009 24.4466 46.5415 24.0795C46.0742 23.7124 45.7245 23.2894 45.4909 22.8113C45.2572 22.3327 45.0786 21.7094 44.9564 20.942C44.8336 20.1742 44.7619 19.5397 44.7394 19.0392C44.7175 18.5388 44.7058 17.9322 44.7058 17.2203C44.7058 16.419 44.7204 15.7461 44.7394 15.2008C44.7613 14.6556 44.8399 13.9716 44.9728 13.1482C45.1058 12.3249 45.2959 11.6576 45.5409 11.1458C45.7853 10.6338 46.1472 10.1887 46.6258 9.81045C47.1039 9.4326 47.6882 9.24304 48.3779 9.24304C49.2903 9.24304 50.0799 9.65512 50.7475 10.4785V9.47678H52.6503V24.3964ZM50.9473 16.8535C50.9473 15.963 50.9256 15.2123 50.8803 14.6002C50.8364 13.9882 50.753 13.3598 50.6297 12.7146C50.507 12.0691 50.2965 11.5796 49.996 11.2457C49.6956 10.9122 49.3115 10.7451 48.844 10.7451C47.3756 10.7451 46.6415 12.5139 46.6415 16.052C46.6415 17.6543 46.6749 18.856 46.7407 19.657C46.786 20.1466 46.8359 20.5249 46.8913 20.7918C46.9468 21.059 47.0414 21.4037 47.1753 21.8263C47.3083 22.2493 47.5147 22.5661 47.7927 22.7774C48.0707 22.9887 48.4098 23.0946 48.8105 23.0946C49.2998 23.0946 49.7007 22.9278 50.0124 22.5939C50.6355 21.9707 50.9466 20.0575 50.9466 16.8535H50.9473ZM63.9314 2.134H66.6014C68.7598 2.134 70.2395 2.61218 71.0408 3.5693C71.8418 4.52599 72.242 6.10578 72.242 8.30842C72.242 10.2665 71.8305 11.6628 71.0072 12.4973C70.1839 13.3317 68.7929 13.7491 66.8348 13.7491H66.0005V24.3964H63.9314V2.134ZM66.0005 11.8463H67.3687C67.9915 11.8463 68.4981 11.7472 68.8875 11.5462C69.277 11.3461 69.5608 11.0403 69.739 10.6284C69.9171 10.2169 70.0281 9.81601 70.073 9.42647C70.1168 9.03707 70.1401 8.53129 70.1401 7.90802C70.1401 6.59497 69.9286 5.62185 69.5056 4.98747C69.083 4.35353 68.2485 4.03608 67.0025 4.03608H66.0012L66.0005 11.8463ZM81.8551 4.03608H78.517V24.3964H76.4479V4.03608H73.1099V2.134H81.8551V4.03608ZM99.7788 21.6929V23.7623C98.8217 24.3854 97.8537 24.6969 96.8747 24.6969C95.2728 24.6969 93.937 23.9737 92.8693 22.5272C91.601 20.7916 90.9665 17.8992 90.9665 13.8494C90.9665 5.83854 93.014 1.83353 97.1081 1.83353C98.132 1.83353 99.0222 2.06703 99.7788 2.53405V4.80368C98.7996 4.15863 97.9422 3.83588 97.208 3.83588C94.4489 3.83588 93.0691 6.9512 93.0691 13.1817C93.0691 17.2092 93.5593 19.9239 94.538 21.3257C95.1611 22.238 95.9951 22.6942 97.041 22.6942C97.8642 22.6942 98.7773 22.3604 99.7788 21.6929ZM109.224 17.0198C109.224 22.0933 107.833 24.6302 105.052 24.6302C104.139 24.6302 103.371 24.3742 102.749 23.8626C102.126 23.3508 101.675 22.6721 101.397 21.8263C101.119 20.981 100.929 20.1687 100.829 19.39C100.729 18.6111 100.68 17.7879 100.68 16.9202C100.68 16.2526 100.707 15.613 100.762 15.001C100.818 14.389 100.935 13.7157 101.113 12.9815C101.291 12.2473 101.536 11.6185 101.847 11.0955C102.159 10.5727 102.587 10.1332 103.132 9.77726C103.677 9.42134 104.317 9.24304 105.051 9.24304C107.833 9.24304 109.224 11.8351 109.224 17.0198ZM105.018 22.8609C106.531 22.8609 107.288 20.8808 107.288 16.9202C107.288 12.9591 106.531 10.9788 105.018 10.9788C103.439 10.9788 102.649 13.015 102.649 17.0869C102.649 20.9364 103.439 22.8609 105.018 22.8609ZM119.704 24.3964H117.835V13.5489C117.835 13.1483 117.821 12.8255 117.802 12.5811C117.78 12.3361 117.718 12.0525 117.618 11.7296C117.517 11.4073 117.345 11.1678 117.1 11.012C116.855 10.8566 116.544 10.7786 116.166 10.7786C115.387 10.7786 114.797 11.1011 114.397 11.7468C114.063 12.236 113.896 13.1041 113.896 14.3501V24.3964H112.027V9.47678H113.896V10.6783C114.742 9.72165 115.71 9.24304 116.8 9.24304C117.935 9.24304 118.703 9.61612 119.103 10.3614C119.504 11.1069 119.704 12.1026 119.704 13.3484V24.3964ZM130.418 24.3964H128.549V23.1949C127.837 24.1516 126.981 24.6302 125.98 24.6302C125.423 24.6302 124.939 24.5133 124.527 24.2797C124.116 24.046 123.788 23.6954 123.543 23.2284C123.298 22.7611 123.098 22.2989 122.942 21.8431C122.786 21.3869 122.675 20.8252 122.608 20.1576C122.541 19.4896 122.502 18.9504 122.492 18.5389C122.477 18.127 122.474 17.6321 122.474 17.0537C122.474 16.3637 122.474 15.824 122.492 15.4346C122.506 15.045 122.541 14.4889 122.608 13.7655C122.675 13.0424 122.786 12.4643 122.942 12.0301C123.098 11.5963 123.304 11.14 123.559 10.6619C123.815 10.1834 124.166 9.82756 124.611 9.59383C125.056 9.36011 125.579 9.24304 126.179 9.24304C127.092 9.24304 127.881 9.65512 128.549 10.4785V0.064209H130.418V24.3964ZM128.716 16.9534C128.716 14.9951 128.583 13.471 128.316 12.3806C128.049 11.2904 127.481 10.7451 126.613 10.7451C125.167 10.7451 124.444 12.5139 124.444 16.052C124.444 17.6543 124.477 18.856 124.544 19.657C124.588 20.1019 124.634 20.4745 124.678 20.775C124.722 21.0754 124.811 21.4313 124.945 21.8431C125.078 22.2546 125.284 22.5661 125.562 22.7774C125.84 22.9887 126.18 23.0946 126.581 23.0946C127.092 23.0946 127.504 22.9278 127.815 22.5939C128.416 21.993 128.716 20.1132 128.716 16.9534ZM141.7 2.134H144.937C146.428 2.134 147.519 2.38958 148.208 2.90161C149.343 3.74692 149.911 5.38263 149.911 7.80774C149.911 9.05414 149.71 10.1055 149.31 10.9624C148.909 11.8188 148.197 12.4921 147.174 12.9815C148.486 13.3374 149.36 13.9551 149.794 14.834C150.227 15.7128 150.445 16.92 150.445 18.4551C150.445 20.8359 149.833 22.5048 148.609 23.4615C147.808 24.0847 146.639 24.3964 145.104 24.3964H141.7V2.134ZM143.769 11.9802H144.87C146.094 11.9802 146.89 11.6352 147.257 10.9453C147.624 10.2559 147.807 9.24314 147.807 7.90802C147.807 7.26253 147.786 6.75074 147.74 6.37245C147.696 5.99416 147.595 5.59391 147.44 5.17089C147.284 4.74817 147.006 4.43674 146.605 4.23663C146.205 4.03609 145.693 3.93615 145.07 3.93615H143.768L143.769 11.9802ZM143.769 22.6275H144.87C146.183 22.6275 147.085 22.2711 147.574 21.5594C148.064 20.8471 148.308 19.7901 148.308 18.3883C148.308 15.3401 147.195 13.8159 144.97 13.8159H143.769V22.6275ZM161.225 17.0198C161.225 22.0933 159.835 24.6302 157.054 24.6302C156.141 24.6302 155.373 24.3742 154.75 23.8626C154.127 23.3508 153.677 22.6721 153.399 21.8263C153.121 20.981 152.931 20.1687 152.831 19.39C152.73 18.6111 152.681 17.7879 152.681 16.9202C152.681 16.2526 152.709 15.613 152.764 15.001C152.82 14.389 152.936 13.7157 153.115 12.9815C153.292 12.2473 153.538 11.6185 153.849 11.0955C154.161 10.5727 154.589 10.1332 155.134 9.77726C155.679 9.42134 156.319 9.24304 157.053 9.24304C159.834 9.24304 161.225 11.8351 161.225 17.0198ZM157.019 22.8609C158.533 22.8609 159.29 20.8808 159.29 16.9202C159.29 12.9591 158.533 10.9788 157.019 10.9788C155.44 10.9788 154.65 13.015 154.65 17.0869C154.65 20.9364 155.44 22.8609 157.019 22.8609ZM172.006 17.0198C172.006 22.0933 170.615 24.6302 167.834 24.6302C166.921 24.6302 166.154 24.3742 165.531 23.8626C164.908 23.3508 164.458 22.6721 164.179 21.8263C163.901 20.981 163.712 20.1687 163.612 19.39C163.511 18.6111 163.461 17.7879 163.461 16.9202C163.461 16.2526 163.489 15.613 163.545 15.001C163.6 14.389 163.717 13.7157 163.895 12.9815C164.073 12.2473 164.318 11.6185 164.63 11.0955C164.941 10.5727 165.369 10.1332 165.915 9.77726C166.46 9.42134 167.099 9.24304 167.834 9.24304C170.615 9.24304 172.005 11.8351 172.005 17.0198H172.006ZM167.8 22.8609C169.313 22.8609 170.071 20.8808 170.071 16.9202C170.071 12.9591 169.313 10.9788 167.8 10.9788C166.221 10.9788 165.431 13.015 165.431 17.0869C165.431 20.9364 166.221 22.8609 167.8 22.8609ZM183.688 24.3964H181.318L176.679 17.2535V24.3964H174.81V0.064209H176.679V15.5516L180.417 9.47678H182.52L178.248 16.1522L183.688 24.3964ZM198.841 11.2126H195.971V24.3964H194.068V11.2126H191.197V9.47678H198.841V11.2126ZM208.52 17.0198C208.52 22.0933 207.13 24.6302 204.348 24.6302C203.436 24.6302 202.668 24.3742 202.045 23.8626C201.422 23.3508 200.972 22.6721 200.693 21.8263C200.415 20.981 200.226 20.1687 200.126 19.39C200.025 18.6111 199.975 17.7879 199.975 16.9202C199.975 16.2526 200.003 15.613 200.059 15.001C200.115 14.389 200.231 13.7157 200.409 12.9815C200.587 12.2473 200.832 11.6185 201.144 11.0955C201.455 10.5727 201.883 10.1332 202.429 9.77726C202.974 9.42134 203.614 9.24304 204.348 9.24304C207.129 9.24304 208.519 11.8351 208.519 17.0198H208.52ZM204.315 22.8609C205.828 22.8609 206.585 20.8808 206.585 16.9202C206.585 12.9591 205.828 10.9788 204.315 10.9788C202.735 10.9788 201.945 13.015 201.945 17.0869C201.945 20.9364 202.735 22.8609 204.315 22.8609ZM219 24.3964H217.131V17.4205H213.193V24.3964H211.324V9.47678H213.193V15.6847H217.131V9.47678H219V24.3964ZM224.208 9.47678V15.9852L228.18 9.47678H230.349L225.843 16.6529L230.816 24.3964H228.513L224.208 17.554V24.3964H222.339V9.47678H224.208ZM240.429 24.3964H238.56V15.1177C238.56 14.6947 238.582 13.9829 238.627 12.9815C238.471 13.6714 238.238 14.4167 237.926 15.2176L234.422 24.3964H232.553V9.47678H234.422V18.6888C234.422 19.5122 234.4 20.2798 234.355 20.9916C234.555 20.2574 234.788 19.5233 235.055 18.7891L238.56 9.47678H240.429V24.3964ZM251.644 24.3964H249.775V15.1177C249.775 14.6947 249.797 13.9829 249.842 12.9815C249.686 13.6714 249.452 14.4167 249.141 15.2176L245.636 24.3964H243.767V9.47678H245.636V18.6888C245.636 19.5122 245.614 20.2798 245.569 20.9916C245.769 20.2574 246.003 19.5233 246.27 18.7891L249.775 9.47678H251.644V24.3964ZM249.708 4.47038L251.276 5.23763C251.009 6.03893 250.553 6.66184 249.908 7.10722C249.352 7.50744 248.617 7.70782 247.705 7.70782C246.793 7.70782 246.058 7.50744 245.502 7.10722C244.857 6.66184 244.4 6.03893 244.134 5.23763L245.702 4.47038C245.791 4.95975 246.025 5.36029 246.403 5.67193C246.692 5.91633 247.138 6.03914 247.739 6.03914C248.295 6.03914 248.718 5.91618 249.007 5.67193C249.363 5.40473 249.596 5.00448 249.708 4.47038Z" fill="black"/>
</svg>
