<svg width="252" height="23" viewBox="0 0 252 23" fill="none" xmlns="http://www.w3.org/2000/svg">
<path fill-rule="evenodd" clip-rule="evenodd" d="M12.4294 6.21143C12.4616 6.8192 12.4776 7.69931 12.4776 8.85113C12.4776 10.0027 12.4616 10.8827 12.4294 11.4905C12.3973 12.0983 12.2611 12.8066 12.0212 13.6145C11.7812 14.4221 11.4297 15.0821 10.9656 15.5937C9.86172 16.7937 8.36607 17.3937 6.47843 17.3937H0.623047V0.308228H6.47843C8.36607 0.308228 9.86172 0.908323 10.9656 2.10824C11.4297 2.61998 11.7812 3.27986 12.0212 4.08775C12.2611 4.89534 12.3974 5.60351 12.4294 6.21143ZM10.6055 11.1786C10.6377 10.6348 10.6537 9.85883 10.6537 8.85113C10.6537 7.84314 10.6377 7.06737 10.6055 6.52332C10.5734 5.97928 10.4739 5.37954 10.3054 4.72367C10.1376 4.06766 9.87794 3.5558 9.52567 3.18774C8.77406 2.35574 7.65404 1.9398 6.16617 1.9398H2.44697V15.7618H6.16617C7.65404 15.7618 8.77406 15.3458 9.52567 14.5138C9.87794 14.1459 10.1376 13.6341 10.3054 12.9782C10.4737 12.3224 10.5735 11.7225 10.6055 11.1786ZM18.5967 17.3937H16.7724V0.308228H18.5967V17.3937ZM36.1618 17.3937H34.4339L25.3635 3.69163V17.3937H23.5396V0.308228H25.2672L34.3375 13.9621V0.308228H36.1618V17.3937ZM58.7183 5.32356C58.7183 6.84344 58.2259 8.06296 57.2423 8.98281C56.2581 9.90266 54.9905 10.3628 53.4389 10.3628H48.9039V17.3937H47.0796V0.308228H53.4389C55.0067 0.308228 56.2786 0.76836 57.2544 1.68821C58.2303 2.60806 58.7183 3.8199 58.7183 5.32356ZM55.9226 7.85513C56.5706 7.27133 56.8947 6.42744 56.8947 5.32356C56.8947 4.21982 56.5706 3.37967 55.9226 2.80376C55.275 2.2277 54.3993 1.9398 53.2954 1.9398H48.9039V8.73087H53.2954C54.3993 8.73087 55.275 8.43894 55.9226 7.85513ZM69.7567 6.54759L68.4849 7.843C68.1646 7.52303 67.8564 7.29943 67.5606 7.17138C67.2647 7.04275 66.8929 6.97904 66.445 6.97904C65.5974 6.97904 64.9132 7.27916 64.3931 7.87904C63.8732 8.47907 63.6137 9.23494 63.6137 10.1469V17.3937H61.8858V5.58728H63.6137V7.02721C63.9337 6.53126 64.3933 6.14355 64.9933 5.86349C65.5932 5.58372 66.2368 5.44346 66.9247 5.44346C68.0765 5.44346 69.0208 5.81162 69.7567 6.54759ZM80.2906 11.4905C80.2906 13.65 79.811 15.2177 78.851 16.1936C77.9871 17.0894 76.8589 17.5375 75.4672 17.5375C74.0754 17.5375 72.9473 17.0894 72.0835 16.1936C71.1238 15.2177 70.6439 13.65 70.6439 11.4905C70.6439 9.31473 71.1238 7.74745 72.0835 6.7874C72.9473 5.89152 74.0754 5.44346 75.4672 5.44346C76.8589 5.44346 77.9871 5.89152 78.851 6.7874C79.811 7.74745 80.2906 9.31473 80.2906 11.4905ZM78.5626 11.4905C78.5626 9.68264 78.2509 8.467 77.6269 7.843C77.0513 7.26694 76.3311 6.97904 75.4672 6.97904C74.6194 6.97904 73.9077 7.26694 73.3318 7.843C72.6915 8.48308 72.3718 9.69887 72.3718 11.4905C72.3718 13.2821 72.6915 14.4983 73.3318 15.138C73.9077 15.714 74.6194 16.0019 75.4672 16.0019C76.3311 16.0019 77.0513 15.714 77.6269 15.138C78.2509 14.4983 78.5626 13.2821 78.5626 11.4905ZM102.223 17.3937H100.087L96.2001 9.81073H92.097V17.3937H90.2727V0.308228H96.8239C98.3276 0.308228 99.5473 0.736241 100.483 1.59221C101.419 2.4479 101.887 3.60391 101.887 5.05948C101.887 6.27562 101.551 7.28347 100.879 8.08317C100.208 8.8833 99.3036 9.40314 98.1679 9.64301L102.223 17.3937ZM99.1393 7.39942C99.7554 6.86327 100.064 6.09188 100.064 5.08375C100.064 4.07605 99.7511 3.29999 99.1271 2.75594C98.5036 2.21233 97.68 1.9398 96.6562 1.9398H92.097V8.20307H96.6562C97.6962 8.20307 98.5234 7.93513 99.1393 7.39942ZM114.029 11.9469H106.062C106.062 13.2583 106.359 14.2663 106.95 14.9702C107.542 15.6739 108.406 16.0258 109.542 16.0258C110.214 16.0258 110.778 15.9221 111.234 15.7139C111.69 15.5059 112.157 15.1621 112.637 14.6822L113.813 15.7139C113.173 16.3536 112.534 16.8177 111.893 17.1057C111.254 17.3936 110.454 17.5375 109.494 17.5375C107.862 17.5375 106.594 17.0378 105.691 16.038C104.786 15.0382 104.335 13.5224 104.335 11.4905C104.335 9.58705 104.767 8.10347 105.631 7.03935C106.494 5.97581 107.678 5.44346 109.182 5.44346C110.702 5.44346 111.889 5.95167 112.745 6.96726C113.601 7.98329 114.029 9.38697 114.029 11.1786V11.9469ZM112.325 10.6508C112.261 9.73883 112.134 9.08297 111.941 8.68305C111.381 7.49936 110.462 6.90766 109.182 6.90766C107.902 6.90766 106.982 7.49936 106.422 8.68305C106.23 9.09905 106.11 9.75505 106.062 10.6508H112.325ZM126.411 17.7537C126.411 19.2412 125.971 20.4574 125.092 21.4012C124.212 22.3451 123.012 22.8169 121.492 22.8169C120.628 22.8169 119.904 22.697 119.32 22.4568C118.736 22.2168 118.124 21.8087 117.485 21.2328L118.612 20.1294C119.092 20.5615 119.524 20.865 119.908 21.0412C120.292 21.2171 120.804 21.3049 121.444 21.3049C122.531 21.3049 123.343 20.9691 123.879 20.2975C124.415 19.6255 124.683 18.7537 124.683 17.6817V15.8342C123.884 16.858 122.78 17.3698 121.372 17.3698C120.172 17.3698 119.22 17.0178 118.516 16.3138C117.557 15.3538 117.077 13.7144 117.077 11.3948C117.077 9.07497 117.557 7.4352 118.516 6.47515C119.204 5.78742 120.164 5.44346 121.396 5.44346C122.82 5.44346 123.923 5.95526 124.707 6.97904V5.58728H126.411V17.7537ZM124.576 13.0264C124.647 12.5623 124.683 12.0184 124.683 11.3948C124.683 10.7708 124.647 10.2269 124.576 9.76291C124.504 9.29926 124.371 8.83913 124.18 8.38293C123.988 7.92717 123.688 7.57933 123.279 7.33947C122.872 7.09945 122.363 6.97904 121.756 6.97904C121.148 6.97904 120.636 7.09916 120.22 7.33947C119.804 7.57933 119.5 7.92717 119.308 8.38293C119.116 8.83913 118.984 9.29926 118.912 9.76291C118.841 10.2269 118.804 10.7708 118.804 11.3948C118.804 12.0184 118.841 12.5623 118.912 13.0264C118.984 13.4901 119.116 13.9498 119.308 14.406C119.5 14.8619 119.804 15.21 120.22 15.4499C120.636 15.6897 121.148 15.8099 121.756 15.8099C122.363 15.8099 122.872 15.69 123.279 15.4499C123.688 15.21 123.988 14.8619 124.18 14.406C124.371 13.9498 124.503 13.4901 124.576 13.0264ZM139.896 17.3937H138.193V16.074C137.345 17.0497 136.234 17.5375 134.858 17.5375C133.562 17.5375 132.546 17.1697 131.81 16.4337C131.01 15.6502 130.61 14.5465 130.61 13.1224V5.58728H132.338V12.8583C132.338 13.8823 132.59 14.6618 133.094 15.1979C133.598 15.7338 134.305 16.0019 135.217 16.0019C136.129 16.0019 136.849 15.7302 137.377 15.1861C137.905 14.6421 138.169 13.8665 138.169 12.8583V5.58728H139.896V17.3937ZM148.415 17.3937H147.168C146.176 17.3937 145.428 17.1056 144.924 16.5297C144.42 15.9538 144.168 15.1939 144.168 14.2501V0.308228H145.896V14.1784C145.896 14.7701 146.015 15.2058 146.256 15.4859C146.496 15.7661 146.904 15.9059 147.48 15.9059H148.415V17.3937ZM159.694 17.3937H157.966V16.2656C157.502 16.7297 157.014 17.0575 156.503 17.2499C155.991 17.4416 155.342 17.5375 154.558 17.5375C153.071 17.5375 151.959 17.1777 151.223 16.4576C150.631 15.8817 150.335 15.082 150.335 14.0581C150.335 13.0025 150.691 12.1705 151.403 11.5626C152.115 10.9548 153.127 10.6508 154.438 10.6508H157.966V9.52274C157.966 8.64309 157.73 7.99104 157.258 7.56714C156.786 7.14325 156.014 6.93122 154.942 6.93122C154.207 6.93122 153.619 7.03497 153.179 7.24311C152.739 7.45111 152.335 7.80332 151.967 8.29942L150.791 7.2192C151.287 6.54755 151.855 6.08354 152.495 5.82745C153.135 5.57179 153.959 5.44346 154.967 5.44346C158.118 5.44346 159.694 6.75532 159.694 9.37893V17.3937ZM157.966 13.2184V11.9469H154.678C152.902 11.9469 152.015 12.6424 152.015 14.0342C152.015 15.3779 152.926 16.0497 154.75 16.0497C155.918 16.0497 156.79 15.7862 157.366 15.2582C157.766 14.8742 157.966 14.1942 157.966 13.2184ZM171.764 6.54759L170.492 7.843C170.172 7.52303 169.865 7.29943 169.569 7.17138C169.273 7.04275 168.9 6.97904 168.452 6.97904C167.605 6.97904 166.921 7.27916 166.4 7.87904C165.881 8.47907 165.621 9.23494 165.621 10.1469V17.3937H163.893V5.58728H165.621V7.02721C165.941 6.53126 166.401 6.14355 167.001 5.86349C167.601 5.58372 168.244 5.44346 168.932 5.44346C170.084 5.44346 171.028 5.81162 171.764 6.54759ZM187.722 7.07539H183.858V17.3937H182.131V7.07539H178.075V5.58728H187.722V7.07539ZM199.144 11.4905C199.144 13.65 198.664 15.2177 197.704 16.1936C196.84 17.0894 195.712 17.5375 194.321 17.5375C192.929 17.5375 191.801 17.0894 190.937 16.1936C189.977 15.2177 189.497 13.65 189.497 11.4905C189.497 9.31473 189.977 7.74745 190.937 6.7874C191.801 5.89152 192.929 5.44346 194.321 5.44346C195.712 5.44346 196.84 5.89152 197.704 6.7874C198.664 7.74745 199.144 9.31473 199.144 11.4905ZM197.416 11.4905C197.416 9.68264 197.104 8.467 196.48 7.843C195.905 7.26694 195.184 6.97904 194.321 6.97904C193.473 6.97904 192.761 7.26694 192.185 7.843C191.545 8.48308 191.225 9.69887 191.225 11.4905C191.225 13.2821 191.545 14.4983 192.185 15.138C192.761 15.714 193.473 16.0019 194.321 16.0019C195.184 16.0019 195.905 15.714 196.48 15.138C197.104 14.4983 197.416 13.2821 197.416 11.4905ZM211.982 17.3937H210.254V12.0425H204.543V17.3937H202.839V5.58728H204.543V10.5548H210.254V5.58728H211.982V17.3937ZM218.125 17.3937H216.397V5.58728H218.125V17.3937ZM225.972 17.3937H223.74L218.149 11.2746L223.356 5.58728H225.492L220.189 11.1543L225.972 17.3937ZM237.802 17.3937H236.074V8.25125L230.003 17.3937H228.299V5.58728H230.003V14.6822L236.074 5.58728H237.802V17.3937ZM250.4 0.500576C250.271 2.51597 249.104 3.52391 246.896 3.52391C244.689 3.52391 243.521 2.51597 243.393 0.500576H244.929C245.025 1.70005 245.681 2.30023 246.896 2.30023C248.112 2.30023 248.768 1.70005 248.864 0.500576H250.4ZM251.648 17.3937H249.92V8.25125L243.849 17.3937H242.145V5.58728H243.849V14.6822L249.92 5.58728H251.648V17.3937Z" fill="black"/>
</svg>
