<svg width="250" height="19" viewBox="0 0 250 19" fill="none" xmlns="http://www.w3.org/2000/svg">
<path fill-rule="evenodd" clip-rule="evenodd" d="M13.0004 6.20017C13.0896 6.93438 13.1332 8.15713 13.1332 9.86835C13.1332 11.5797 13.0896 12.8023 13.0004 13.5365C12.9112 14.271 12.6733 14.953 12.286 15.5824C11.0915 17.5195 9.22733 18.4883 6.69288 18.4883H0.300781V1.24836H6.69288C9.22733 1.24836 11.0915 2.21723 12.286 4.15428C12.6733 4.78369 12.9117 5.46552 13.0004 6.20017ZM8.79908 12.6526C8.86339 12.1848 8.89579 11.2568 8.89579 9.86835C8.89579 8.48031 8.86339 7.5523 8.79908 7.08411C8.73476 6.61578 8.61345 6.2524 8.43615 5.99426C8.00027 5.34877 7.32269 5.02538 6.4024 5.02538H4.5378V14.711H6.4024C7.32269 14.711 8.00027 14.3881 8.43615 13.7424C8.61345 13.4843 8.73447 13.1208 8.79908 12.6526ZM20.3004 18.4883H16.0633V1.24836H20.3004V18.4883ZM37.2502 18.4883H33.5453L28.0246 9.81981V18.4883H23.7876V1.24836H27.4922L33.0121 9.91688V1.24836H37.2502V18.4883ZM57.2501 2.88278C58.2992 3.97205 58.8239 5.27552 58.8239 6.79291C58.8239 8.3106 58.2992 9.6137 57.2501 10.7034C56.2009 11.7931 54.7639 12.3382 52.94 12.3382H50.3492V18.4883H46.1125V1.24836H52.94C54.7639 1.24836 56.2009 1.79308 57.2501 2.88278ZM54.0784 8.01623C54.4173 7.66893 54.5865 7.2611 54.5865 6.79291C54.5865 6.32502 54.4173 5.91746 54.0784 5.57031C53.7395 5.22345 53.2951 5.05 52.7466 5.05H50.3492V8.53654H52.7466C53.2951 8.53654 53.7395 8.36295 54.0784 8.01623ZM71.0521 6.52705L68.0495 9.57786C67.5974 9.1259 67.1218 8.89982 66.6213 8.89982C66.25 8.89982 65.8908 9.03722 65.5436 9.31129C65.1967 9.5855 65.0226 10.046 65.0226 10.6916V18.4883H61.0514V5.46146H64.9255V6.52705C65.7327 5.7199 66.7579 5.31622 68.0009 5.31622C69.2279 5.31622 70.245 5.7199 71.0521 6.52705ZM82.6016 11.9749C82.6016 13.2663 82.5005 14.2711 82.299 14.9897C82.0972 15.7077 81.7223 16.3656 81.1734 16.9627C80.1242 18.077 78.7274 18.6336 76.9839 18.6336C75.2408 18.6336 73.8448 18.077 72.7957 16.9627C72.2467 16.3656 71.8713 15.7077 71.6695 14.9897C71.4678 14.2711 71.3669 13.2663 71.3669 11.9749C71.3669 10.6996 71.472 9.6947 71.6816 8.96049C71.8914 8.22584 72.2628 7.56793 72.7957 6.98705C73.8448 5.87337 75.2408 5.31622 76.9839 5.31622C78.7274 5.31622 80.1242 5.87337 81.1734 6.98705C81.7062 7.56793 82.0772 8.22584 82.2868 8.96049C82.4969 9.6947 82.6016 10.6996 82.6016 11.9749ZM78.0494 14.6867C78.4368 14.2992 78.6304 13.3957 78.6304 11.9749C78.6304 10.5546 78.4368 9.6501 78.0494 9.26275C77.8071 9.02084 77.452 8.89982 76.9839 8.89982C76.5161 8.89982 76.1615 9.02113 75.919 9.26275C75.5316 9.6501 75.338 10.5546 75.338 11.9749C75.338 13.3957 75.5316 14.2992 75.919 14.6867C76.1615 14.929 76.5161 15.05 76.9839 15.05C77.452 15.05 77.8071 14.9286 78.0494 14.6867ZM103.643 13.4034C103.643 15.0015 103.143 16.2481 102.142 17.1444C101.141 18.0401 99.8496 18.4883 98.2678 18.4883H90.7616V1.24836H97.9045C99.6638 1.24836 101.02 1.70037 101.972 2.60443C102.925 3.5082 103.401 4.71882 103.401 6.23621C103.401 7.65699 102.771 8.79477 101.512 9.6503C101.771 9.81197 101.988 9.96091 102.166 10.0982C102.343 10.2356 102.561 10.4532 102.82 10.7519C103.078 11.0506 103.28 11.4263 103.425 11.8778C103.57 12.3299 103.643 12.8382 103.643 13.4034ZM99.03 14.2388C99.2803 13.9401 99.4055 13.5813 99.4055 13.1615C99.4055 12.7418 99.2797 12.3864 99.03 12.0955C98.7798 11.8051 98.3888 11.6598 97.856 11.6598H94.9989V14.6867H97.856C98.3888 14.6867 98.7798 14.5376 99.03 14.2388ZM98.8002 7.44704C99.0421 7.17268 99.1635 6.8416 99.1635 6.45425C99.1635 6.0669 99.0423 5.73612 98.8002 5.46146C98.5582 5.18725 98.1711 5.05 97.6383 5.05H94.9989V7.8585H97.6383C98.1711 7.8585 98.5582 7.7214 98.8002 7.44704ZM112.36 18.4883H110.253C108.914 18.4883 107.905 18.1009 107.226 17.326C106.549 16.5512 106.209 15.6554 106.209 14.6382V1.24836H110.181V14.3477C110.181 14.8805 110.447 15.147 110.979 15.147H112.36V18.4883ZM124.781 18.4883H120.907V17.4231C120.488 17.8428 120.063 18.145 119.635 18.3306C119.208 18.5162 118.663 18.6093 118.002 18.6093C116.694 18.6093 115.652 18.2219 114.878 17.447C114.119 16.6884 113.74 15.6715 113.74 14.3962C113.74 13.3311 114.119 12.4351 114.878 11.7083C115.636 10.982 116.758 10.6192 118.243 10.6192H120.81V10.2802C120.81 9.69884 120.657 9.28318 120.35 9.03293C120.043 8.78269 119.543 8.65752 118.849 8.65752C118.09 8.65752 117.404 8.96424 116.79 9.57786L114.321 7.10802C114.983 6.44631 115.661 5.98223 116.355 5.71591C117.049 5.44944 117.945 5.31622 119.043 5.31622C122.868 5.31622 124.781 6.89007 124.781 10.0379V18.4883ZM120.81 13.5972V13.2582H118.921C118.001 13.2582 117.541 13.6132 117.541 14.3238C117.541 14.6466 117.663 14.9047 117.904 15.0985C118.147 15.292 118.502 15.389 118.97 15.389C119.567 15.389 120.043 15.2355 120.398 14.929C120.673 14.6704 120.81 14.2266 120.81 13.5972ZM137.13 16.9627C136.016 18.077 134.587 18.6336 132.844 18.6336C132.327 18.6336 131.831 18.5882 131.355 18.5005C130.879 18.4113 130.366 18.2221 129.818 17.9316C129.269 17.6412 128.793 17.2618 128.389 16.7936C127.985 16.3259 127.65 15.6755 127.384 14.8444C127.118 14.0131 126.984 13.0566 126.984 11.9753C126.984 10.8937 127.118 9.9373 127.384 9.10573C127.65 8.27461 127.985 7.6251 128.389 7.15691C128.793 6.68873 129.269 6.3094 129.818 6.01853C130.366 5.72808 130.879 5.53841 131.355 5.44969C131.831 5.36052 132.327 5.31658 132.844 5.31658C134.587 5.31658 136.016 5.87337 137.13 6.98705L134.442 9.67528C133.925 9.15857 133.393 8.90018 132.844 8.90018C132.36 8.90018 131.948 9.06974 131.609 9.40871C131.173 9.86081 130.956 10.716 130.956 11.9753C130.956 13.2344 131.173 14.0898 131.609 14.5418C131.948 14.8808 132.36 15.0503 132.844 15.0503C133.393 15.0503 133.925 14.7919 134.442 14.2756L137.13 16.9627ZM151.44 18.4883H146.525L143.813 13.7182L143.038 14.5657V18.4883H139.067V1.24836H143.038V10.0136L146.549 5.46146H151.319L146.525 10.8611L151.44 18.4883ZM167.759 8.99653H164.394V18.4883H160.423V8.99653H157.057V5.46146H167.759V8.99653ZM180.399 11.9749C180.399 13.2663 180.299 14.2711 180.097 14.9897C179.895 15.7077 179.52 16.3656 178.971 16.9627C177.921 18.077 176.525 18.6336 174.782 18.6336C173.038 18.6336 171.642 18.077 170.593 16.9627C170.044 16.3656 169.668 15.7077 169.467 14.9897C169.265 14.2711 169.164 13.2663 169.164 11.9749C169.164 10.6996 169.27 9.6947 169.479 8.96049C169.689 8.22584 170.06 7.56793 170.593 6.98705C171.642 5.87337 173.038 5.31622 174.782 5.31622C176.525 5.31622 177.921 5.87337 178.971 6.98705C179.503 7.56793 179.874 8.22584 180.084 8.96049C180.294 9.6947 180.399 10.6996 180.399 11.9749ZM175.847 14.6867C176.235 14.2992 176.428 13.3957 176.428 11.9749C176.428 10.5546 176.235 9.6501 175.847 9.26275C175.605 9.02084 175.25 8.89982 174.782 8.89982C174.314 8.89982 173.958 9.02113 173.716 9.26275C173.329 9.6501 173.135 10.5546 173.135 11.9749C173.135 13.3957 173.329 14.2992 173.716 14.6867C173.958 14.929 174.314 15.05 174.782 15.05C175.25 15.05 175.605 14.9286 175.847 14.6867ZM193.45 18.4883H189.479V8.99653H187.227V11.3693C187.227 13.2257 187.066 14.6824 186.743 15.7398C186.42 16.7972 185.968 17.5197 185.387 17.907C184.806 18.2945 184.023 18.4883 183.039 18.4883H181.125V15.147H181.513C181.771 15.147 181.973 15.131 182.118 15.0989C182.263 15.0667 182.433 14.9729 182.627 14.8202C182.821 14.6668 182.962 14.4409 183.051 14.1421C183.14 13.8438 183.22 13.4114 183.292 12.8467C183.365 12.2815 183.401 11.5877 183.401 10.7644V5.46146H193.449L193.45 18.4883ZM206.016 16.9627C205.371 17.5441 204.773 17.9474 204.225 18.1732C203.499 18.4803 202.667 18.6336 201.731 18.6336C199.842 18.6336 198.393 18.0522 197.385 16.8899C196.376 15.7277 195.871 14.0491 195.871 11.8539C195.871 9.78766 196.384 8.1817 197.409 7.03558C198.434 5.88946 199.874 5.31622 201.731 5.31622C202.667 5.31622 203.499 5.4697 204.225 5.77622C204.773 6.00205 205.371 6.40573 206.016 6.98705L203.329 9.67493C202.764 9.15821 202.231 8.89982 201.731 8.89982C200.472 8.89982 199.842 9.92471 199.842 11.9749C199.842 14.0251 200.472 15.05 201.731 15.05C202.264 15.05 202.796 14.7915 203.329 14.2752L206.016 16.9627ZM217.639 8.99653H214.273V18.4883H210.302V8.99653H206.936V5.46146H217.639V8.99653ZM230.326 14.2024C230.326 15.4455 229.911 16.4703 229.08 17.2775C228.248 18.0845 227.179 18.4883 225.871 18.4883H219.382V5.46146H223.353V9.91688H225.871C227.179 9.91688 228.248 10.3163 229.08 11.1156C229.911 11.9144 230.326 12.9436 230.326 14.2024ZM226.041 15.0739C226.282 14.848 226.404 14.5579 226.404 14.2024C226.404 13.8474 226.282 13.5567 226.041 13.331C225.798 13.1047 225.492 12.992 225.121 12.992H223.232V15.4129H225.121C225.492 15.4129 225.798 15.3003 226.041 15.0739ZM231.513 5.46146H235.484V18.4883H231.513V5.46146ZM242.458 18.4883H238.486V5.46146H242.458V12.0231L245.944 5.46146H249.915V18.4883H245.944V11.6844L242.458 18.4883ZM248.366 0.764099C248.35 1.44233 248.216 2.03158 247.966 2.53163C247.716 3.03227 247.381 3.41547 246.961 3.6818C246.542 3.94827 246.101 4.1418 245.642 4.26312C245.181 4.38445 244.701 4.44441 244.201 4.44441C243.507 4.44441 242.869 4.3438 242.288 4.14179C241.706 3.94037 241.19 3.54868 240.738 2.96736C240.286 2.38648 240.052 1.65194 240.036 0.764099H242.917C242.965 1.61963 243.394 2.04737 244.201 2.04737C245.008 2.04737 245.436 1.61963 245.484 0.764099H248.366Z" fill="black"/>
</svg>
