<svg width="252" height="21" viewBox="0 0 252 21" fill="none" xmlns="http://www.w3.org/2000/svg">
<path fill-rule="evenodd" clip-rule="evenodd" d="M14.8567 3.74877L12.8111 5.69081C11.4202 4.22531 9.85884 3.49273 8.11912 3.49273C6.65362 3.49273 5.41557 3.99406 4.4124 4.99386C3.40602 5.99323 2.90431 7.22419 2.90431 8.6897C2.90431 9.7107 3.12856 10.6178 3.57306 11.4076C4.01771 12.201 4.64741 12.8233 5.45836 13.2748C6.27297 13.7269 7.17665 13.9511 8.17265 13.9511C9.01927 13.9511 9.79472 13.7945 10.4955 13.4779C11.1997 13.1614 11.9717 12.5851 12.8111 11.7526L14.7928 13.8231C13.6616 14.9294 12.5907 15.6975 11.5839 16.1242C10.5775 16.5547 9.42488 16.7681 8.13375 16.7681C5.75001 16.7681 3.79737 16.0141 2.27837 14.5023C0.759369 12.9939 0.00195312 11.0553 0.00195312 8.69684C0.00195312 7.16716 0.346484 5.81173 1.04006 4.6238C1.73028 3.43543 2.7196 2.48243 4.01058 1.76034C5.29848 1.03812 6.68578 0.675307 8.17658 0.675307C9.43905 0.675307 10.656 0.9419 11.8298 1.47557C12.9999 2.00924 14.0102 2.7668 14.8567 3.74877ZM28.4384 11.5176H19.3142C19.4458 12.3251 19.798 12.969 20.3673 13.4493C20.9362 13.9261 21.6652 14.1645 22.5477 14.1645C23.6076 14.1645 24.5148 13.7908 25.2763 13.0438L27.6598 14.1716C27.0656 15.0181 26.3501 15.6441 25.5215 16.0535C24.689 16.4587 23.7039 16.6618 22.562 16.6618C20.7903 16.6618 19.3462 16.1032 18.2329 14.9824C17.1191 13.8658 16.561 12.464 16.561 10.7813C16.561 9.05601 17.1191 7.62235 18.2329 6.48412C19.3462 5.34223 20.7406 4.77297 22.4232 4.77297C24.2053 4.77297 25.6567 5.34229 26.7737 6.47716C27.8907 7.61539 28.4495 9.11327 28.4495 10.9807L28.4384 11.5176ZM25.6107 9.29797C25.4223 8.67894 25.052 8.17391 24.5005 7.78613C23.9458 7.39833 23.3052 7.2064 22.5727 7.2064C21.7792 7.2064 21.0856 7.42358 20.4844 7.86107C20.111 8.13119 19.7622 8.61141 19.4423 9.29797H25.6107ZM30.7577 5.0506H33.5962V6.21736C34.24 5.67668 34.8275 5.30345 35.3505 5.09004C35.8733 4.87999 36.4104 4.77297 36.9585 4.77297C38.0826 4.77297 39.0392 5.16448 39.822 5.94722C40.4799 6.61595 40.8105 7.60131 40.8105 8.9031V16.3842H37.9934V11.429C37.9934 10.077 37.933 9.18077 37.8114 8.73948C37.6901 8.29498 37.4771 7.95688 37.1783 7.72564C36.8759 7.4944 36.5027 7.37716 36.0614 7.37716C35.485 7.37716 34.9909 7.56936 34.5782 7.95349C34.1655 8.33763 33.881 8.87131 33.7211 9.54706C33.6392 9.90298 33.5969 10.6675 33.5969 11.8451V16.3842H30.758L30.7577 5.0506ZM43.9087 0.867477H46.7479V5.0506H48.4337V7.5051H46.7479V16.3842H43.9087V7.5051H42.4577V5.0506H43.9087V0.867477ZM49.9668 5.0506H52.8481V10.5006C52.8481 11.5605 52.9223 12.2966 53.0687 12.7092C53.2148 13.1218 53.4492 13.4423 53.7731 13.6734C54.0967 13.901 54.499 14.015 54.9722 14.015C55.4453 14.015 55.8501 13.9008 56.1812 13.6772C56.5118 13.453 56.7579 13.1219 56.9178 12.6844C57.0347 12.3571 57.0955 11.6602 57.0955 10.5928V5.0506H59.9347V9.84575C59.9347 11.8237 59.7783 13.1754 59.465 13.9047C59.0847 14.7938 58.5184 15.4734 57.7749 15.9504C57.0317 16.4231 56.0853 16.6618 54.94 16.6618C53.695 16.6618 52.6917 16.3841 51.9231 15.8292C51.1549 15.2741 50.6148 14.5022 50.3016 13.5098C50.0773 12.8233 49.9668 11.5748 49.9668 9.76403V5.0506ZM62.1151 5.0506H64.5696V6.49143C64.8331 5.92955 65.1815 5.50227 65.6152 5.21066C66.0528 4.9189 66.5295 4.77297 67.0455 4.77297C67.4117 4.77297 67.7962 4.86942 68.1982 5.0647L67.316 7.51919C66.9854 7.35227 66.7115 7.27028 66.4981 7.27028C66.0639 7.27028 65.6934 7.54092 65.3947 8.08161C65.0922 8.62229 64.9436 9.68208 64.9436 11.2616L64.9579 11.8131V16.3842H62.1187L62.1151 5.0506ZM68.3366 5.0506H71.2536L74.1884 12.1473L77.4401 5.0506H80.35L73.2599 20.5246H70.35L72.6553 15.5479L68.3366 5.0506ZM102.443 3.56356L100.391 5.595C99.0928 4.22187 97.5775 3.53537 95.8485 3.53537C94.3439 3.53537 93.0811 4.03343 92.0636 5.03294C91.0463 6.03275 90.5377 7.2455 90.5377 8.67578C90.5377 10.1517 91.064 11.4041 92.1207 12.4321C93.1772 13.46 94.4791 13.9721 96.0262 13.9721C97.033 13.9721 97.8833 13.7588 98.5735 13.3353C99.2634 12.9123 99.8223 12.2507 100.246 11.3471H95.8099V8.61529H103.515L103.535 9.25907C103.535 10.5999 103.187 11.8699 102.493 13.0723C101.796 14.2711 100.896 15.1888 99.7932 15.8223C98.6869 16.4517 97.3883 16.7681 95.9013 16.7681C94.311 16.7681 92.8921 16.423 91.6432 15.7331C90.3948 15.0395 89.4091 14.0575 88.6799 12.7806C87.954 11.4998 87.5921 10.1235 87.5921 8.64348C87.5921 6.6161 88.2637 4.85128 89.6048 3.35391C91.1952 1.568 93.269 0.675307 95.8192 0.675307C97.1535 0.675307 98.4022 0.920878 99.5656 1.41508C100.544 1.83108 101.504 2.55002 102.443 3.56356ZM111.212 4.77297C112.283 4.77297 113.29 5.03992 114.233 5.57359C115.179 6.10725 115.912 6.82948 116.442 7.74348C116.971 8.66128 117.234 9.64636 117.234 10.7067C117.234 11.7736 116.968 12.7698 116.438 13.6982C115.904 14.6269 115.178 15.3523 114.26 15.8753C113.339 16.3981 112.329 16.6618 111.223 16.6618C109.594 16.6618 108.203 16.0853 107.053 14.9326C105.901 13.7766 105.325 12.375 105.325 10.7279C105.325 8.95983 105.976 7.48734 107.278 6.30979C108.42 5.28557 109.729 4.77297 111.212 4.77297ZM111.255 7.44104C110.369 7.44104 109.632 7.74713 109.045 8.35871C108.458 8.97452 108.163 9.75713 108.163 10.7138C108.163 11.6959 108.455 12.4926 109.035 13.1009C109.615 13.7091 110.351 14.015 111.244 14.015C112.133 14.015 112.873 13.7054 113.467 13.09C114.058 12.4747 114.353 11.6813 114.353 10.7138C114.353 9.74266 114.062 8.95672 113.482 8.34836C112.902 7.74351 112.158 7.44104 111.255 7.44104ZM119.885 0.867477H122.723V5.0506H124.41V7.5051H122.723V16.3842H119.885V7.5051H118.434V5.0506H119.885V0.867477ZM125.964 0.675307H128.802V6.2104C129.357 5.73009 129.913 5.37094 130.475 5.13268C131.033 4.89399 131.602 4.77297 132.175 4.77297C133.295 4.77297 134.241 5.16096 135.01 5.9399C135.668 6.61229 135.995 7.60131 135.995 8.9031V16.3842H133.199V11.4215C133.199 10.1125 133.139 9.22341 133.014 8.76107C132.89 8.29493 132.676 7.94992 132.374 7.71868C132.075 7.49124 131.702 7.37716 131.261 7.37716C130.688 7.37716 130.194 7.56944 129.781 7.94992C129.372 8.3307 129.087 8.84966 128.927 9.50816C128.845 9.84947 128.802 10.6247 128.802 11.8379V16.3842H125.964V0.675307ZM139.88 0.398025C140.378 0.398025 140.805 0.579027 141.161 0.938313C141.52 1.29789 141.697 1.73171 141.697 2.24389C141.697 2.74891 141.52 3.17945 141.168 3.53537C140.816 3.89086 140.392 4.06906 139.898 4.06906C139.393 4.06906 138.962 3.88757 138.606 3.52449C138.247 3.16155 138.069 2.72074 138.069 2.20125C138.069 1.7031 138.247 1.28009 138.599 0.927965C138.951 0.575694 139.378 0.398025 139.88 0.398025ZM138.453 5.0506H141.292V16.3842H138.453V5.0506ZM154.966 7.35557L152.601 8.65794C152.156 8.1918 151.718 7.87149 151.285 7.68995C150.85 7.50885 150.342 7.41981 149.759 7.41981C148.695 7.41981 147.834 7.7365 147.179 8.3662C146.521 8.99941 146.194 9.80684 146.194 10.7955C146.194 11.756 146.51 12.5385 147.14 13.1467C147.773 13.7551 148.602 14.0576 149.63 14.0576C150.9 14.0576 151.889 13.6237 152.601 12.7558L154.838 14.2924C153.622 15.8719 151.907 16.6618 149.691 16.6618C147.695 16.6618 146.134 16.071 145.006 14.8937C143.878 13.7162 143.312 12.3393 143.312 10.7602C143.312 9.66422 143.587 8.6578 144.135 7.73634C144.686 6.81474 145.45 6.08935 146.436 5.5627C147.417 5.03649 148.517 4.77297 149.734 4.77297C150.861 4.77297 151.871 4.99717 152.768 5.44547C153.664 5.89378 154.397 6.53059 154.966 7.35557ZM162.5 5.0506H173.065V7.76132H169.288V16.3842H166.449V7.76132H162.5V5.0506ZM180.259 4.77297C181.33 4.77297 182.336 5.03992 183.279 5.57359C184.225 6.10725 184.958 6.82948 185.488 7.74348C186.018 8.66128 186.281 9.64636 186.281 10.7067C186.281 11.7736 186.014 12.7698 185.484 13.6982C184.951 14.6269 184.224 15.3523 183.307 15.8753C182.386 16.3981 181.376 16.6618 180.269 16.6618C178.64 16.6618 177.25 16.0853 176.1 14.9326C174.948 13.7766 174.372 12.375 174.372 10.7279C174.372 8.95983 175.022 7.48734 176.324 6.30979C177.466 5.28557 178.776 4.77297 180.259 4.77297ZM180.301 7.44104C179.415 7.44104 178.679 7.74713 178.091 8.35871C177.505 8.97452 177.209 9.75713 177.209 10.7138C177.209 11.6959 177.501 12.4926 178.081 13.1009C178.661 13.7091 179.397 14.015 180.29 14.015C181.18 14.015 181.92 13.7054 182.514 13.09C183.104 12.4747 183.399 11.6813 183.399 10.7138C183.399 9.74266 183.108 8.95672 182.528 8.34836C181.948 7.74351 181.204 7.44104 180.301 7.44104ZM198.734 16.3842H195.857L192.997 9.22338L190.094 16.3842H187.22L192.043 5.0506H193.879L198.734 16.3842ZM211.32 7.35557L208.954 8.65794C208.51 8.1918 208.072 7.87149 207.638 7.68995C207.204 7.50885 206.696 7.41981 206.112 7.41981C205.049 7.41981 204.188 7.7365 203.533 8.3662C202.875 8.99941 202.548 9.80684 202.548 10.7955C202.548 11.756 202.864 12.5385 203.494 13.1467C204.127 13.7551 204.956 14.0576 205.984 14.0576C207.254 14.0576 208.243 13.6237 208.954 12.7558L211.192 14.2924C209.975 15.8719 208.261 16.6618 206.044 16.6618C204.049 16.6618 202.488 16.071 201.36 14.8937C200.232 13.7162 199.667 12.3393 199.667 10.7602C199.667 9.66422 199.94 8.6578 200.488 7.73634C201.04 6.81474 201.805 6.08935 202.79 5.5627C203.771 5.03649 204.871 4.77297 206.088 4.77297C207.215 4.77297 208.225 4.99717 209.122 5.44547C210.018 5.89378 210.751 6.53059 211.32 7.35557ZM212.882 5.0506H223.447V7.76132H219.669V16.3842H216.83V7.76132H212.882V5.0506ZM228.146 9.14844H228.993C230.188 9.14844 231.102 9.24059 231.739 9.42287C232.379 9.60763 232.916 9.9916 233.357 10.5716C233.795 11.155 234.015 11.8877 234.015 12.7665C234.015 13.6379 233.816 14.3671 233.421 14.9433C233.023 15.523 232.518 15.9076 231.903 16.0994C231.287 16.2879 230.426 16.3842 229.312 16.3842H225.307V5.0506H228.146V9.14844ZM228.146 14.1855H229.014C229.534 14.1855 229.907 14.1505 230.138 14.076C230.366 14.0044 230.568 13.8665 230.743 13.6601C230.917 13.45 231.006 13.2009 231.006 12.9021C231.006 11.9379 230.447 11.4545 229.33 11.4545H228.146V14.1855ZM236.001 5.0506H238.839V16.3842H236.001V5.0506ZM243.211 16.3842H241.699V5.0506H244.474V11.7061L250.28 5.0506H251.646V16.3842H248.871V9.86359L243.211 16.3842ZM242.468 0.0561523H244.772C244.954 0.340746 245.203 0.554202 245.527 0.696718C245.847 0.838504 246.242 0.910121 246.704 0.910121C247.174 0.910121 247.601 0.828251 247.981 0.661032C248.23 0.551404 248.447 0.347762 248.636 0.0561523H250.941C250.81 0.938291 250.386 1.64634 249.674 2.18001C248.963 2.71368 247.971 2.98027 246.694 2.98027C245.833 2.98027 245.114 2.86034 244.534 2.62091C243.954 2.38266 243.488 2.04123 243.132 1.59672C242.78 1.15207 242.557 0.639518 242.468 0.0561523Z" fill="black"/>
</svg>
