<svg width="250" height="27" viewBox="0 0 250 27" fill="none" xmlns="http://www.w3.org/2000/svg">
<path fill-rule="evenodd" clip-rule="evenodd" d="M5.14241 4.78388C6.85787 4.78388 8.10869 5.18242 8.89552 5.97919C9.68236 6.7764 10.076 8.00206 10.076 9.657V10.4135C10.076 12.5925 9.35968 14.0153 7.92736 14.6813C9.58186 15.3267 10.4093 16.8404 10.4093 19.2212V20.9465C10.4093 22.5811 9.98022 23.827 9.12249 24.6843C8.26476 25.5418 7.00918 25.9707 5.35439 25.9707H0.118164V4.78388H5.14241ZM4.9308 16.4368H3.44732V22.944H5.35439C5.9398 22.944 6.37332 22.7877 6.65586 22.4749C6.93812 22.1621 7.07946 21.6224 7.07946 20.8558V19.0094C7.07946 18.0408 6.91289 17.3699 6.58021 16.9966C6.24709 16.6232 5.69731 16.4368 4.9308 16.4368ZM5.05213 7.81078H3.44768V13.4101H4.74915C5.41554 13.4101 5.91478 13.2384 6.24761 12.8953C6.58074 12.5523 6.74722 11.9772 6.74722 11.1701V9.9896C6.74722 8.53696 6.18203 7.81078 5.05213 7.81078ZM15.7362 7.81078V13.7126H20.3069V16.7393H15.7362V22.944H21.4874V25.9707H12.407V4.78388H21.4874V7.81078H15.7362ZM28.5696 4.78388C30.2851 4.78388 31.5359 5.18242 32.3228 5.97919C33.1096 6.7764 33.5033 8.00206 33.5033 9.657V10.4135C33.5033 12.5925 32.7869 14.0153 31.3546 14.6813C33.0091 15.3267 33.8366 16.8404 33.8366 19.2212V20.9465C33.8366 22.5811 33.4074 23.827 32.5497 24.6843C31.692 25.5418 30.4361 25.9707 28.7813 25.9707H23.5454V4.78388H28.5696ZM28.358 16.4368H26.8746V22.944H28.7813C29.3667 22.944 29.8005 22.7877 30.0831 22.4749C30.3653 22.1621 30.5067 21.6224 30.5067 20.8558V19.0094C30.5067 18.0408 30.3403 17.3699 30.0074 16.9966C29.6743 16.6232 29.1245 16.4368 28.358 16.4368ZM28.4794 7.81078H26.8749V13.4101H28.1764C28.8426 13.4101 29.3418 13.2384 29.6745 12.8953C30.0076 12.5523 30.1744 11.9772 30.1744 11.1701V9.9896C30.1744 8.53696 29.6094 7.81078 28.4794 7.81078ZM43.2192 4.78388L46.6093 25.9707H43.2498L42.6746 22.127H38.5885L38.0133 25.9707H34.9564L38.3466 4.78388H43.2192ZM40.6169 8.53699L39.0125 19.2514H42.2207L40.6169 8.53699ZM47.7292 9.86862C47.7292 8.15331 48.1433 6.83698 48.9703 5.91888C49.7978 5.00064 51.0183 4.5414 52.6324 4.5414C54.2468 4.5414 55.4671 5.00064 56.2946 5.91888C57.122 6.83698 57.5357 8.15331 57.5357 9.86862V10.5343H54.3882V9.657C54.3882 8.26429 53.8331 7.56811 52.7231 7.56811C51.6135 7.56811 51.0587 8.26429 51.0587 9.657C51.0587 10.242 51.1802 10.7968 51.422 11.3212C51.6643 11.8458 51.9768 12.3203 52.3605 12.7442C52.7438 13.1677 53.1676 13.5865 53.6317 14C54.0957 14.4135 54.5543 14.8473 55.0084 15.3015C55.4621 15.7556 55.8813 16.2401 56.2646 16.7546C56.6478 17.2688 56.9608 17.8795 57.2031 18.5855C57.4452 19.2921 57.5664 20.0587 57.5664 20.886C57.5664 22.601 57.1423 23.9178 56.2946 24.8359C55.4472 25.7537 54.2166 26.2129 52.6025 26.2129C50.9882 26.2129 49.7575 25.7537 48.9097 24.8359C48.0623 23.9178 47.6385 22.601 47.6385 20.886V19.5845H50.786V21.0978C50.786 22.47 51.3616 23.1558 52.5118 23.1558C53.662 23.1558 54.2369 22.47 54.2369 21.0978C54.2369 20.311 54.0148 19.5692 53.571 18.8731C53.1268 18.1771 52.5871 17.5463 51.9516 16.9812C51.316 16.4164 50.6751 15.826 50.0295 15.2107C49.384 14.5954 48.8391 13.8286 48.3951 12.9103C47.9513 11.9927 47.7292 10.9782 47.7292 9.86862ZM71.277 25.9707L67.131 10.6252V25.9707H64.1341V4.78388H68.3108L71.7309 17.4655V4.78388H74.6972V25.9707H71.277ZM80.4177 7.81078V13.7126H84.9883V16.7393H80.4177V22.944H86.1688V25.9707H77.0889V4.78388H86.1688V7.81078H80.4177ZM88.0759 4.78388H91.4047V21.128C91.4047 22.5002 91.9803 23.1861 93.1305 23.1861C94.2807 23.1861 94.8556 22.5002 94.8556 21.128V4.78388H98.0031V20.9162C98.0031 22.6312 97.5793 23.9478 96.7319 24.8661C95.8843 25.7843 94.6542 26.243 93.0398 26.243C91.4255 26.243 90.1943 25.7843 89.3471 24.8661C88.4993 23.9478 88.0759 22.6312 88.0759 20.9162V4.78388ZM103.603 7.81078V13.7126H108.173V16.7393H103.603V22.944H109.353V25.9707H100.273V4.78388H109.353V7.81078H103.603ZM116.436 4.78388C118.152 4.78388 119.402 5.18242 120.189 5.97919C120.976 6.7764 121.37 8.00206 121.37 9.657V10.4135C121.37 12.5925 120.653 14.0153 119.221 14.6813C120.875 15.3267 121.703 16.8404 121.703 19.2212V20.9465C121.703 22.5811 121.274 23.827 120.416 24.6843C119.559 25.5418 118.303 25.9707 116.648 25.9707H111.412V4.78388H116.436ZM116.224 16.4368H114.741V22.944H116.648C117.233 22.944 117.667 22.7877 117.949 22.4749C118.232 22.1621 118.373 21.6224 118.373 20.8558V19.0094C118.373 18.0408 118.207 17.3699 117.874 16.9966C117.541 16.6232 116.991 16.4368 116.224 16.4368ZM116.346 7.81078H114.741V13.4101H116.042C116.709 13.4101 117.209 13.2384 117.541 12.8953C117.874 12.5523 118.041 11.9772 118.041 11.1701V9.9896C118.041 8.53696 117.476 7.81078 116.346 7.81078ZM126.758 9.657V21.0978C126.758 22.4899 127.332 23.1861 128.483 23.1861C129.633 23.1861 130.208 22.4899 130.208 21.0978V9.657C130.208 8.26429 129.633 7.56811 128.483 7.56811C127.332 7.56811 126.758 8.26429 126.758 9.657ZM123.429 20.886V9.86862C123.429 8.17363 123.862 6.86223 124.73 5.93405C125.598 5.00557 126.848 4.5414 128.483 4.5414C130.117 4.5414 131.368 5.00557 132.236 5.93405C133.104 6.86223 133.537 8.17363 133.537 9.86862V20.886C133.537 22.5811 133.104 23.8925 132.236 24.8206C131.368 25.7488 130.117 26.2129 128.483 26.2129C126.848 26.2129 125.598 25.7488 124.73 24.8206C123.862 23.8925 123.429 22.5811 123.429 20.886ZM135.686 25.9707V4.78388H139.016V22.944H144.494V25.9707H135.686ZM145.947 25.9707V4.78388H151.213C154.523 4.78388 156.177 6.52909 156.177 10.0199V20.7349C156.177 24.2257 154.523 25.9707 151.213 25.9707H145.947ZM151.153 7.81078H149.276V22.944H151.153C152.283 22.944 152.848 22.258 152.848 20.886V9.86862C152.848 8.49637 152.283 7.81078 151.153 7.81078ZM162.019 7.81078V4.78388H172.31V7.81078H168.829V25.9707H165.5V7.81078H162.019ZM176.819 9.657V21.0978C176.819 22.4899 177.395 23.1861 178.545 23.1861C179.695 23.1861 180.27 22.4899 180.27 21.0978V9.657C180.27 8.26429 179.695 7.56811 178.545 7.56811C177.395 7.56811 176.819 8.26429 176.819 9.657ZM173.491 20.886V9.86862C173.491 8.17363 173.924 6.86223 174.792 5.93405C175.659 5.00557 176.911 4.5414 178.545 4.5414C180.179 4.5414 181.43 5.00557 182.298 5.93405C183.166 6.86223 183.6 8.17363 183.6 9.86862V20.886C183.6 22.5811 183.166 23.8925 182.298 24.8206C181.43 25.7488 180.179 26.2129 178.545 26.2129C176.911 26.2129 175.659 25.7488 174.792 24.8206C173.924 23.8925 173.491 22.5811 173.491 20.886ZM184.81 26.0011V22.9742C185.617 22.9742 186.156 22.8485 186.429 22.5959C186.701 22.3436 186.848 21.7433 186.868 20.7954L187.413 4.78388H196.826V25.9707H193.436V7.81078H190.531L190.168 20.6134C190.108 22.5504 189.703 23.9328 188.956 24.7601C188.21 25.5876 186.999 26.0011 185.324 26.0011H184.81ZM205.876 18.0709H209.024V20.886C209.024 22.601 208.6 23.9178 207.753 24.8359C206.905 25.7537 205.674 26.2129 204.06 26.2129C202.446 26.2129 201.215 25.7537 200.367 24.8359C199.52 23.9178 199.096 22.601 199.096 20.886V9.86862C199.096 8.15331 199.52 6.83698 200.367 5.91888C201.215 5.00064 202.446 4.5414 204.06 4.5414C205.674 4.5414 206.905 5.00064 207.753 5.91888C208.6 6.83698 209.024 8.15331 209.024 9.86862V11.9266H205.876V9.657C205.876 8.26429 205.301 7.56811 204.151 7.56811C203.001 7.56811 202.426 8.26429 202.426 9.657V21.0978C202.426 22.47 203.001 23.1558 204.151 23.1558C205.301 23.1558 205.876 22.47 205.876 21.0978V18.0709ZM210.083 7.81078V4.78388H220.374V7.81078H216.893V25.9707H213.564V7.81078H210.083ZM226.73 25.9707H221.827V4.78388H225.156V12.7442H226.73C230.04 12.7442 231.693 14.4894 231.693 17.9803V20.7349C231.693 24.2257 230.04 25.9707 226.73 25.9707ZM225.156 22.944H226.73C227.275 22.944 227.683 22.7928 227.956 22.4899C228.228 22.1875 228.365 21.6728 228.365 20.9465V17.7686C228.365 17.0422 228.229 16.5275 227.956 16.2247C227.683 15.9221 227.275 15.7706 226.73 15.7706H225.156V22.944ZM236.93 25.9707H233.6V4.78388H236.93V25.9707ZM242.771 25.9707L245.556 16.255L246.918 11.0491V25.9707H249.915V4.78388H246.252L243.528 13.5311L242.318 18.1921V4.78388H239.351V25.9707H242.771ZM246.192 0.0620728H248.22C248.22 1.11114 247.917 1.9337 247.312 2.52905C246.706 3.12411 245.828 3.42157 244.678 3.42157C243.548 3.42157 242.696 3.12898 242.121 2.54386C241.546 1.95889 241.237 1.13146 241.197 0.0620728H243.256C243.297 0.60685 243.427 0.975254 243.649 1.16674C243.871 1.35851 244.214 1.45419 244.678 1.45419C245.162 1.45419 245.526 1.35332 245.768 1.15175C246.01 0.949887 246.152 0.586532 246.192 0.0620728Z" fill="black"/>
</svg>
