<svg width="249" height="24" viewBox="0 0 249 24" fill="none" xmlns="http://www.w3.org/2000/svg">
<path fill-rule="evenodd" clip-rule="evenodd" d="M8.92271 1.37993V4.14739H3.38887V7.82878H8.57727V10.5955H3.38887V17.8594H0.176758V1.37993H8.92271ZM10.7263 7.1618H13.7407V13.2145C13.7407 14.0709 13.955 14.697 14.3834 15.0927C14.7947 15.4548 15.3057 15.6358 15.9151 15.6358C16.5241 15.6358 17.0352 15.4548 17.4471 15.0927C17.875 14.697 18.0894 14.0709 18.0894 13.2145V7.1618H21.1038V13.7088C21.1038 15.142 20.6669 16.2369 19.7938 16.9948C18.8716 17.8018 17.5786 18.2052 15.9151 18.2052C14.2515 18.2052 12.9583 17.8018 12.036 16.9948C11.163 16.2369 10.7263 15.142 10.7263 13.7088V7.1618ZM29.059 9.73085H26.9835V17.8594H23.9691V9.73085H22.7832V7.1618H23.9691V3.50504H26.9835V7.1618H29.059V9.73085ZM30.6402 7.1618H33.6543V13.2145C33.6543 14.0709 33.8689 14.697 34.2973 15.0927C34.7087 15.4548 35.2195 15.6358 35.829 15.6358C36.4381 15.6358 36.9487 15.4548 37.3606 15.0927C37.7886 14.697 38.003 14.0709 38.003 13.2145V7.1618H41.017V13.7088C41.017 15.142 40.5804 16.2369 39.7074 16.9948C38.785 17.8018 37.4925 18.2052 35.829 18.2052C34.1654 18.2052 32.8722 17.8018 31.9499 16.9948C31.077 16.2369 30.6402 15.142 30.6402 13.7088V7.1618ZM43.8826 17.8594V7.1618H46.8974V8.76768C47.2599 8.07571 47.7043 7.58121 48.2313 7.28492C48.7255 6.97168 49.3184 6.81565 50.0099 6.81565C50.4056 6.81565 50.8342 6.89757 51.2954 7.06259L50.9 9.8793C50.5212 9.61576 50.0512 9.4839 49.4911 9.4839C48.618 9.4839 47.9515 9.77178 47.4905 10.3486C47.0951 10.8425 46.8974 11.6331 46.8974 12.7203V17.8594H43.8826ZM60.7329 8.545V7.1618H63.747V17.8594H60.7329V16.4759C59.9258 17.6286 58.8304 18.2052 57.4469 18.2052C55.8326 18.2052 54.5194 17.6535 53.5065 16.5501C52.4934 15.4462 51.987 14.0959 51.987 12.4983C51.987 10.884 52.4805 9.53336 53.4686 8.44615C54.4573 7.35937 55.7336 6.81565 57.2985 6.81565C58.8469 6.81565 59.9915 7.39186 60.7329 8.545ZM60.1891 10.3486C59.6292 9.77178 58.9212 9.4839 58.0643 9.4839C57.2077 9.4839 56.4998 9.77178 55.9395 10.3486C55.3799 10.9249 55.1002 11.6415 55.1002 12.4983C55.1002 13.3547 55.3799 14.0753 55.9395 14.6598C56.4998 15.2445 57.2077 15.537 58.0643 15.537C58.9212 15.537 59.6292 15.2445 60.1891 14.6598C60.7492 14.0753 61.0298 13.3547 61.0298 12.4983C61.0298 11.6415 60.7492 10.9249 60.1891 10.3486ZM72.8148 1.37993H77.6082C78.6292 1.37993 79.465 1.46623 80.1155 1.63973C80.7661 1.8125 81.3801 2.14602 81.9569 2.64037C83.0768 3.62863 83.6363 4.95438 83.6363 6.61795C83.6363 8.16633 83.1837 9.39322 82.2781 10.2993C81.3059 11.2711 79.914 11.7571 78.1021 11.7571H76.0273V17.8594H72.8148V1.37993ZM76.0273 4.14739V8.98965H77.3362C78.2751 8.98965 78.9748 8.81675 79.436 8.47077C80.0289 8.0096 80.326 7.36753 80.326 6.54372C80.326 5.73657 80.0213 5.11042 79.4117 4.66591C78.9175 4.31993 78.16 4.14739 77.1385 4.14739H76.0273ZM95.6932 4.14739H91.9875V17.8594H88.7758V4.14739H85.0694V1.37993H95.6932V4.14739ZM103.476 1.37993H107.775C109.077 1.37993 110.213 1.49113 111.185 1.7136C112.156 1.93607 113.062 2.3602 113.902 2.98581C114.907 3.7437 115.685 4.69906 116.237 5.85176C116.789 7.0049 117.065 8.26493 117.065 9.63235C117.065 12.5144 115.961 14.7298 113.754 16.2782C112.865 16.9039 111.959 17.324 111.037 17.5383C110.114 17.7524 109.011 17.8594 107.726 17.8594H103.476V1.37993ZM106.688 4.14739V15.0927H107.677C109.357 15.0927 110.699 14.7299 111.703 14.0053C112.346 13.5442 112.848 12.9223 113.211 12.14C113.573 11.3577 113.754 10.5215 113.754 9.63235C113.754 8.75928 113.577 7.93147 113.223 7.14931C112.869 6.36701 112.371 5.7283 111.728 5.23439C110.756 4.50924 109.406 4.14739 107.677 4.14739H106.688ZM127.318 14.4254L130.085 14.87C129.97 15.1663 129.818 15.4588 129.629 15.7472C129.439 16.0351 129.147 16.3895 128.751 16.8095C128.356 17.2293 127.821 17.567 127.146 17.8227C126.47 18.0779 125.696 18.2052 124.823 18.2052C123.143 18.2052 121.776 17.703 120.721 16.6982C119.601 15.6442 119.041 14.2521 119.041 12.5226C119.041 10.8097 119.585 9.40989 120.672 8.32267C121.693 7.3179 123.036 6.81565 124.7 6.81565C126.511 6.81565 127.903 7.40026 128.875 8.56962C129.731 9.59091 130.16 10.991 130.16 12.7699V13.0172H122.154C122.154 13.7419 122.327 14.3431 122.673 14.8208C123.168 15.4958 123.884 15.8332 124.823 15.8332C125.943 15.8332 126.775 15.3638 127.318 14.4254ZM122.253 11.0901H127.318C127.203 10.3982 126.902 9.86678 126.416 9.49639C125.93 9.12555 125.382 8.9404 124.773 8.9404C124.18 8.9404 123.641 9.12979 123.155 9.50852C122.669 9.88769 122.369 10.4147 122.253 11.0901ZM132.481 17.8594V7.1618H135.496V8.37192C136.32 7.3344 137.382 6.81565 138.683 6.81565C140.28 6.81565 141.409 7.46618 142.068 8.76768C142.875 7.46618 144.02 6.81565 145.502 6.81565C146.754 6.81565 147.718 7.25204 148.393 8.12497C148.706 8.53688 148.908 8.96517 148.998 9.40967C149.089 9.85432 149.134 10.4313 149.134 11.1394V17.8594H146.12V12.0287C146.12 11.0239 145.955 10.3239 145.626 9.92855C145.33 9.56648 144.917 9.38505 144.39 9.38505C143.633 9.38505 143.081 9.69819 142.735 10.3239C142.455 10.7851 142.315 11.4769 142.315 12.3991V17.8594H139.301V12.0287C139.301 11.0239 139.136 10.3239 138.807 9.92855C138.51 9.56648 138.098 9.38505 137.571 9.38505C136.813 9.38505 136.262 9.69819 135.916 10.3239C135.636 10.7851 135.496 11.4769 135.496 12.3991V17.8594H132.481ZM151.999 7.1618H155.014V17.8594H151.999V7.1618ZM152.235 3.91222C151.881 3.55849 151.703 3.13428 151.703 2.64037C151.703 2.14602 151.881 1.72168 152.235 1.3678C152.589 1.01348 153.013 0.836792 153.507 0.836792C154.001 0.836792 154.425 1.01348 154.779 1.3678C155.133 1.72168 155.311 2.14602 155.311 2.64037C155.311 3.13428 155.133 3.55849 154.779 3.91222C154.425 4.26654 154.001 4.44359 153.507 4.44359C153.013 4.44359 152.589 4.26654 152.235 3.91222ZM169.097 7.1618H171.815V11.3121L175.027 7.1618H178.536L174.459 12.0287L178.758 17.8594H175.101L172.211 13.6592L171.815 14.1038V17.8594H169.097V14.1038L168.702 13.6592L165.811 17.8594H162.155L166.454 12.0287L162.377 7.1618H165.886L169.097 11.3121V7.1618ZM180.141 7.1618H183.156V13.7584L188.097 7.1618H191.111V17.8594H188.097V11.2629L183.156 17.8594H180.141V7.1618ZM196.991 16.4759V23.5171H193.977V7.1618H196.991V8.545C197.798 7.39186 198.959 6.81565 200.475 6.81565C201.957 6.81565 203.176 7.29337 204.131 8.24844C205.202 9.31914 205.738 10.7356 205.738 12.4983C205.738 14.3098 205.177 15.7515 204.057 16.822C203.069 17.7444 201.858 18.2052 200.426 18.2052C198.992 18.2052 197.848 17.6286 196.991 16.4759ZM199.66 9.4839C198.886 9.4839 198.235 9.72279 197.708 10.2005C197.033 10.7768 196.695 11.5428 196.695 12.4983C196.695 13.4699 197.024 14.244 197.683 14.8208C198.226 15.2982 198.886 15.537 199.66 15.537C200.467 15.537 201.142 15.2817 201.685 14.7708C202.311 14.1944 202.625 13.4367 202.625 12.4983C202.625 11.5755 202.32 10.8265 201.71 10.2497C201.15 9.7393 200.467 9.4839 199.66 9.4839ZM208.06 17.8594V7.1618H211.074V10.9417H215.275V7.1618H218.289V17.8594H215.275V13.5111H211.074V17.8594H208.06ZM221.154 7.1618H224.168V10.9663H226.516C227.767 10.9663 228.723 11.3286 229.382 12.0533C229.926 12.6299 230.197 13.3958 230.197 14.3511C230.197 15.5205 229.818 16.4267 229.061 17.069C228.451 17.5961 227.652 17.8594 226.664 17.8594H221.154V7.1618ZM224.168 15.4877H225.577C226.088 15.4877 226.458 15.3971 226.688 15.2158C226.952 15.0182 227.084 14.7299 227.084 14.3511C227.084 14.0053 226.952 13.7498 226.688 13.5849C226.458 13.4205 226.112 13.3384 225.651 13.3384H224.168V15.4877ZM231.334 7.1618H234.347V17.8594H231.334V7.1618ZM237.214 7.1618H240.228V13.7584L245.17 7.1618H248.184V17.8594H245.17V11.2629L240.228 17.8594H237.214V7.1618ZM244.774 1.79996L246.75 2.73886C246.421 3.6612 245.87 4.31589 245.095 4.70338C244.321 5.0903 243.522 5.28364 242.699 5.28364C241.875 5.28364 241.076 5.0903 240.302 4.70338C239.528 4.31589 238.976 3.6612 238.647 2.73886L240.623 1.79996C240.723 2.24461 240.965 2.6153 241.352 2.91158C241.739 3.20816 242.188 3.35659 242.699 3.35659C243.176 3.35659 243.613 3.22524 244.008 2.96154C244.404 2.698 244.659 2.31053 244.774 1.79996Z" fill="black"/>
</svg>
