<svg width="250" height="28" viewBox="0 0 250 28" fill="none" xmlns="http://www.w3.org/2000/svg">
<path fill-rule="evenodd" clip-rule="evenodd" d="M0.850586 4.48457H5.71603C7.41482 4.48457 8.6283 4.89266 9.35637 5.70931C10.0847 6.52553 10.4487 7.76109 10.4487 9.41603V10.7398C10.4487 12.0641 10.2227 13.0953 9.77033 13.8345C9.31779 14.5737 8.529 15.0647 7.40363 15.3075C9.72058 15.7708 10.8791 17.4256 10.8791 20.2721V22.2907C10.8791 25.8653 9.19134 27.6529 5.81524 27.6529H0.850586V4.48457ZM2.37331 14.7117H4.95449C6.36708 14.7117 7.38187 14.4524 7.99959 13.9341C8.61745 13.4153 8.92636 12.4498 8.92636 11.0376V9.54861C8.92636 8.29066 8.6835 7.36409 8.19836 6.7683C7.71278 6.17251 6.87399 5.87454 5.68284 5.87454H2.37331V14.7117ZM2.37331 26.2626H5.81524C8.17618 26.2626 9.35637 24.9276 9.35637 22.258V20.1727C9.35637 18.6944 9.02574 17.6465 8.36359 17.0286C7.70144 16.4104 6.66448 16.1017 5.25247 16.1017H2.37331V26.2626ZM14.8842 15.2081H21.206V16.598H14.8842V26.2626H22.4964V27.6529H13.3614V4.48457H22.4964V5.87454H14.8842V15.2081ZM24.9787 4.48457H29.8445C31.5434 4.48457 32.7568 4.89266 33.4848 5.70931C34.2132 6.52553 34.5768 7.76109 34.5768 9.41603V10.7398C34.5768 12.0641 34.3513 13.0953 33.8988 13.8345C33.4464 14.5737 32.6575 15.0647 31.5321 15.3075C33.849 15.7708 35.0072 17.4256 35.0072 20.2721V22.2907C35.0072 25.8653 33.3194 27.6529 29.9433 27.6529H24.9787V4.48457ZM26.5014 14.7117H29.083C30.4955 14.7117 31.51 14.4524 32.1277 13.9341C32.7456 13.4153 33.0545 12.4498 33.0545 11.0376V9.54861C33.0545 8.29066 32.812 7.36409 32.3268 6.7683C31.8412 6.17251 31.0025 5.87454 29.8113 5.87454H26.5014V14.7117ZM26.5014 26.2626H29.9433C32.3043 26.2626 33.4848 24.9276 33.4848 22.258V20.1727C33.4848 18.6944 33.1542 17.6465 32.4921 17.0286C31.8299 16.4104 30.7927 16.1017 29.3806 16.1017H26.5014V26.2626ZM46.9228 22.5228H39.7071L38.5487 27.6529H37.1584L42.2229 4.45138H44.4405L49.6035 27.6529H48.0812L46.9228 22.5228ZM43.2821 6.20571L39.939 21.1985H46.6908L43.2821 6.20571ZM56.7529 4.28597C58.4298 4.28597 59.6709 4.80976 60.4764 5.85795C61.2819 6.90628 61.6847 8.31256 61.6847 10.078V10.5744H60.228V9.97862C60.228 7.11018 59.081 5.67613 56.7865 5.67613C54.4914 5.67613 53.3435 7.09935 53.3435 9.94544C53.3435 10.6959 53.4987 11.3907 53.8074 12.0309C54.1164 12.6707 54.5186 13.2278 55.015 13.7023C55.5114 14.1768 56.0519 14.6288 56.6366 15.0593C57.2213 15.4894 57.8122 15.9306 58.408 16.383C59.004 16.8356 59.5496 17.3153 60.046 17.823C60.5424 18.33 60.9456 18.9483 61.2544 19.6763C61.5634 20.4043 61.7176 21.1986 61.7176 22.0593C61.7176 23.8247 61.3092 25.231 60.4928 26.2793C59.6766 27.3275 58.4189 27.8511 56.7201 27.8511C55.0208 27.8511 53.7633 27.3275 52.9466 26.2793C52.1304 25.231 51.7219 23.8247 51.7219 22.0593V20.8679H53.1786V22.1587C53.1786 25.0052 54.3477 26.428 56.6865 26.428C59.0256 26.428 60.1952 25.0052 60.1952 22.1587C60.1952 21.4084 60.0407 20.7187 59.732 20.0898C59.4228 19.4612 59.0201 18.9152 58.5237 18.4516C58.0273 17.9884 57.486 17.5357 56.9014 17.0944C56.3168 16.6532 55.7267 16.2066 55.1313 15.7541C54.5355 15.3017 53.9895 14.8218 53.4926 14.3143C52.9962 13.8071 52.5937 13.189 52.285 12.461C51.9759 11.733 51.8218 10.9274 51.8218 10.045C51.8218 8.25748 52.2296 6.85651 53.0458 5.84135C53.8622 4.8262 55.098 4.3079 56.7529 4.28597ZM70.6869 6.9999V27.6529H69.2966V4.48457H71.2829L78.2331 24.045V4.48457H79.6234V27.6529H77.9355L70.6869 6.9999ZM83.7609 15.2081H90.0823V16.598H83.7609V26.2626H91.3727V27.6529H82.2378V4.48457H91.3727V5.87454H83.7609V15.2081ZM95.3118 4.48457V22.0593C95.3118 24.9941 96.4704 26.4612 98.7869 26.4612C101.104 26.4612 102.262 24.9941 102.262 22.0593V4.48457H103.685V21.9933C103.685 23.7584 103.282 25.1759 102.477 26.2461C101.671 27.3164 100.431 27.8511 98.7533 27.8511C97.0766 27.8511 95.8297 27.3164 95.0134 26.2461C94.1972 25.1759 93.7887 23.7584 93.7887 21.9933V4.48457H95.3118ZM107.823 15.2081H114.144V16.598H107.823V26.2626H115.435V27.6529H106.3V4.48457H115.435V5.87454H107.823V15.2081ZM117.918 4.48457H122.783C124.482 4.48457 125.695 4.89266 126.423 5.70931C127.151 6.52553 127.516 7.76109 127.516 9.41603V10.7398C127.516 12.0641 127.289 13.0953 126.837 13.8345C126.384 14.5737 125.596 15.0647 124.47 15.3075C126.787 15.7708 127.946 17.4256 127.946 20.2721V22.2907C127.946 25.8653 126.258 27.6529 122.881 27.6529H117.918V4.48457ZM119.44 14.7117H122.021C123.434 14.7117 124.448 14.4524 125.066 13.9341C125.684 13.4153 125.993 12.4498 125.993 11.0376V9.54861C125.993 8.29066 125.751 7.36409 125.265 6.7683C124.78 6.17251 123.941 5.87454 122.749 5.87454H119.44V14.7117ZM119.44 26.2626H122.881C125.242 26.2626 126.423 24.9276 126.423 22.258V20.1727C126.423 18.6944 126.092 17.6465 125.43 17.0286C124.768 16.4104 123.731 16.1017 122.319 16.1017H119.44V26.2626ZM130.329 21.9933V10.144C130.329 8.37888 130.754 6.96139 131.603 5.89114C132.453 4.82088 133.716 4.28597 135.393 4.28597C137.114 4.28597 138.399 4.81539 139.249 5.87454C140.098 6.93355 140.523 8.35695 140.523 10.144V21.9933C140.523 23.7803 140.098 25.2036 139.249 26.2626C138.399 27.3217 137.114 27.8511 135.393 27.8511C133.716 27.8511 132.453 27.3164 131.603 26.2461C130.754 25.1759 130.329 23.7584 130.329 21.9933ZM131.852 10.045V22.0925C131.852 23.4385 132.138 24.5031 132.712 25.2865C133.286 26.0696 134.18 26.4612 135.393 26.4612C136.629 26.4612 137.539 26.0696 138.124 25.2865C138.709 24.5031 139.001 23.4385 139.001 22.0925V10.045C139.001 8.69877 138.709 7.63435 138.124 6.85074C137.539 6.0677 136.629 5.67613 135.393 5.67613C134.18 5.67613 133.286 6.0677 132.712 6.85074C132.138 7.63435 131.852 8.69877 131.852 10.045ZM142.939 21.9933V10.144C142.939 8.37888 143.364 6.96139 144.213 5.89114C145.063 4.82088 146.326 4.28597 148.003 4.28597C149.724 4.28597 151.009 4.81539 151.859 5.87454C152.708 6.93355 153.133 8.35695 153.133 10.144V21.9933C153.133 23.7803 152.708 25.2036 151.859 26.2626C151.009 27.3217 149.724 27.8511 148.003 27.8511C146.326 27.8511 145.063 27.3164 144.213 26.2461C143.364 25.1759 142.939 23.7584 142.939 21.9933ZM144.462 10.045V22.0925C144.462 23.4385 144.748 24.5031 145.322 25.2865C145.896 26.0696 146.789 26.4612 148.003 26.4612C149.239 26.4612 150.149 26.0696 150.733 25.2865C151.318 24.5031 151.61 23.4385 151.61 22.0925V10.045C151.61 8.69877 151.318 7.63435 150.733 6.85074C150.149 6.0677 149.239 5.67613 148.003 5.67613C146.789 5.67613 145.896 6.0677 145.322 6.85074C144.748 7.63435 144.462 8.69877 144.462 10.045ZM165.147 27.6529L158.76 16.7635L157.171 19.279V27.6529H155.648V4.48457H157.171V16.7306L164.717 4.48457H166.306L159.687 15.2744L166.736 27.6529H165.147ZM180.009 27.6529H178.485V5.87454H173.753V4.48457H184.741V5.87454H180.009V27.6529ZM186.892 21.9933V10.144C186.892 8.37888 187.318 6.96139 188.167 5.89114C189.016 4.82088 190.279 4.28597 191.956 4.28597C193.677 4.28597 194.962 4.81539 195.812 5.87454C196.661 6.93355 197.086 8.35695 197.086 10.144V21.9933C197.086 23.7803 196.661 25.2036 195.812 26.2626C194.962 27.3217 193.677 27.8511 191.956 27.8511C190.279 27.8511 189.016 27.3164 188.167 26.2461C187.318 25.1759 186.892 23.7584 186.892 21.9933ZM188.415 10.045V22.0925C188.415 23.4385 188.702 24.5031 189.275 25.2865C189.849 26.0696 190.743 26.4612 191.956 26.4612C193.192 26.4612 194.102 26.0696 194.687 25.2865C195.272 24.5031 195.564 23.4385 195.564 22.0925V10.045C195.564 8.69877 195.272 7.63435 194.687 6.85074C194.102 6.0677 193.192 5.67613 191.956 5.67613C190.743 5.67613 189.849 6.0677 189.275 6.85074C188.702 7.63435 188.415 8.69877 188.415 10.045ZM208.34 16.7635H201.124V27.6529H199.602V4.48457H201.124V15.3738H208.34V4.48457H209.895V27.6529H208.34V16.7635ZM222.042 27.6529L215.654 16.7635L214.065 19.279V27.6529H212.543V4.48457H214.065V16.7306L221.611 4.48457H223.2L216.581 15.2744L223.631 27.6529H222.042ZM234.851 7.16531L231.343 16.896L227.57 27.6529H225.914V4.48457H227.305V24.31L229.986 16.6644L234.421 4.48457H236.241V27.6529H234.851V7.16531ZM246.501 0.182068H247.527C247.505 1.0645 247.185 1.75386 246.567 2.25026C245.95 2.74665 245.155 2.99485 244.184 2.99485C243.214 2.99485 242.425 2.74665 241.818 2.25026C241.211 1.75386 240.897 1.0645 240.875 0.182068H241.934C241.956 0.799784 242.176 1.26289 242.596 1.57204C243.014 1.88075 243.545 2.03525 244.184 2.03525C245.663 2.03525 246.435 1.41765 246.501 0.182068ZM247.792 7.16531L240.51 27.6529H238.856V4.48457H240.246V24.31L243.159 16.0686L247.362 4.48457H249.183V27.6529H247.792V7.16531Z" fill="black"/>
</svg>
