<svg width="251" height="21" viewBox="0 0 251 21" fill="none" xmlns="http://www.w3.org/2000/svg">
<path fill-rule="evenodd" clip-rule="evenodd" d="M15.4227 3.76753L14.2354 4.6786C13.5825 3.82672 12.7969 3.18043 11.8784 2.74031C10.9635 2.30034 9.95726 2.08029 8.85718 2.08029C7.65931 2.08029 6.54901 2.37022 5.52552 2.94657C4.50204 3.52249 3.71278 4.29831 3.15061 5.26903C2.58829 6.23989 2.30521 7.33654 2.30521 8.54858C2.30521 10.3854 2.93415 11.9185 4.19122 13.1444C5.44843 14.3739 7.03414 14.9883 8.95175 14.9883C11.0573 14.9883 12.8176 14.1642 14.2354 12.5158L15.4227 13.4167C14.672 14.37 13.7361 15.1105 12.6149 15.6309C11.4941 16.1512 10.2402 16.4131 8.85718 16.4131C6.22407 16.4131 4.14574 15.5368 2.62674 13.7832C1.35184 12.3062 0.712891 10.5179 0.712891 8.42618C0.712891 6.22573 1.48465 4.37157 3.02821 2.86967C4.57527 1.36441 6.51041 0.613415 8.83612 0.613415C10.2402 0.613415 11.5077 0.889394 12.6392 1.44133C13.7707 1.99649 14.6998 2.77182 15.4227 3.76753ZM27.6045 12.3481L28.8129 12.9837C28.415 13.7556 27.9571 14.3808 27.4372 14.8558C26.9167 15.3272 26.3333 15.6905 25.6835 15.9383C25.0306 16.1862 24.2973 16.3084 23.4764 16.3084C21.6533 16.3084 20.2321 15.7151 19.2054 14.5274C18.1786 13.34 17.6652 11.9988 17.6652 10.5042C17.6652 9.09671 18.1016 7.83949 18.9713 6.73912C20.0714 5.33866 21.5489 4.63685 23.3961 4.63685C25.2996 4.63685 26.8222 5.35636 27.9571 6.79176C28.7638 7.80442 29.176 9.06861 29.1901 10.588H19.1319C19.1597 11.8765 19.5755 12.9314 20.3752 13.7523C21.1786 14.5764 22.1704 14.9883 23.3472 14.9883C23.9165 14.9883 24.4717 14.8904 25.0094 14.695C25.5478 14.4994 26.0053 14.2413 26.3823 13.9163C26.7594 13.5915 27.1682 13.0712 27.6045 12.3481ZM27.6192 9.35152C27.4269 8.58661 27.1475 7.97923 26.7809 7.52172C26.4104 7.06391 25.9255 6.69713 25.3213 6.41794C24.7168 6.13861 24.0812 5.99917 23.4178 5.99917C22.3178 5.99917 21.3747 6.34792 20.5854 7.05012C20.0057 7.56362 19.5728 8.32848 19.2757 9.35152H27.6192ZM31.8276 4.90931H33.2526V6.90363C33.8285 6.14208 34.464 5.57266 35.1593 5.1989C35.8574 4.82515 36.6153 4.63685 37.4361 4.63685C38.271 4.63685 39.0112 4.84645 39.6572 5.26903C40.3031 5.69175 40.7822 6.26088 41.0896 6.97697C41.3971 7.68911 41.55 8.8033 41.55 10.3156V16.0361H40.1254V10.7345C40.1254 9.45628 40.0697 8.60077 39.9612 8.17102C39.7867 7.43769 39.4652 6.88583 38.9941 6.51251C38.5226 6.14212 37.9076 5.95688 37.1499 5.95688C36.2801 5.95688 35.5018 6.24351 34.8174 6.8162C34.1291 7.38553 33.6747 8.09437 33.4585 8.93953C33.3225 9.49103 33.2526 10.4973 33.2526 11.9607V16.0361H31.8276V4.90931ZM45.8423 0.760264H47.2676V4.90931H49.5301V6.14566H47.2676V16.0361H45.8423V6.14566H43.8938V4.90931H45.8423V0.760264ZM51.5178 4.90931H52.9424V10.1022C52.9424 11.3701 53.0124 12.2398 53.1487 12.7183C53.3513 13.3992 53.7457 13.9371 54.322 14.3321C54.8984 14.7264 55.5897 14.9257 56.3897 14.9257C57.1894 14.9257 57.867 14.7334 58.4259 14.3494C58.9811 13.9614 59.3683 13.4588 59.5779 12.8298C59.7211 12.4005 59.7948 11.4924 59.7948 10.1022V4.90931H61.2615V10.3647C61.2615 11.8977 61.0837 13.0499 60.7241 13.8257C60.3678 14.6042 59.8266 15.2118 59.1068 15.6482C58.3875 16.0883 57.4864 16.3084 56.4004 16.3084C55.3145 16.3084 54.4096 16.0883 53.6832 15.6482C52.9568 15.2118 52.4116 14.5971 52.0552 13.8114C51.6957 13.0254 51.5178 11.8416 51.5178 10.2629V4.90931ZM63.8988 4.90931H65.3655V6.53678C65.8018 5.89421 66.2629 5.41902 66.7486 5.10505C67.2338 4.79429 67.7397 4.63685 68.2639 4.63685C68.662 4.63685 69.0842 4.76252 69.535 5.01423L68.7878 6.21542C68.4874 6.08533 68.2357 6.01986 68.0298 6.01986C67.5512 6.01986 67.0904 6.21539 66.6466 6.60654C66.2032 6.99755 65.8643 7.60885 65.6302 8.43296C65.4521 9.06515 65.3655 10.3468 65.3655 12.2748V16.0361H63.8988V4.90931ZM69.5529 4.90931H71.0403L74.8787 13.4412L78.6086 4.90931H80.1345L73.4919 20.1013H71.966L74.145 15.1213L69.5529 4.90931ZM102.556 3.5122L101.389 4.61597C100.548 3.79186 99.6258 3.16669 98.6235 2.74031C97.6212 2.31437 96.6427 2.10135 95.6894 2.10135C94.5056 2.10135 93.3781 2.39145 92.3092 2.97102C91.2373 3.55073 90.4057 4.33645 89.819 5.33201C89.2286 6.32363 88.9354 7.37137 88.9354 8.47846C88.9354 9.61011 89.2391 10.6858 89.8469 11.7091C90.4548 12.7288 91.2961 13.5285 92.3684 14.1119C93.4441 14.6949 94.6174 14.9883 95.8957 14.9883C97.4462 14.9883 98.7595 14.5519 99.8318 13.6822C100.904 12.8125 101.54 11.6808 101.739 10.2945H96.9405V8.82783H103.436C103.422 11.1502 102.73 12.9978 101.361 14.3635C99.9887 15.7287 98.1591 16.4131 95.8607 16.4131C93.0739 16.4131 90.8669 15.4669 89.2395 13.5703C87.9894 12.1107 87.3638 10.4237 87.3638 8.50612C87.3638 7.08505 87.7234 5.75783 88.4394 4.52854C89.1591 3.30246 90.1437 2.34252 91.3942 1.65099C92.648 0.959458 94.0627 0.613415 95.6409 0.613415C96.9191 0.613415 98.124 0.844288 99.2523 1.3018C100.38 1.76253 101.484 2.49588 102.556 3.5122ZM111.333 4.63685C113.047 4.63685 114.473 5.255 115.601 6.49467C116.628 7.62296 117.14 8.96033 117.14 10.5042C117.14 12.0546 116.599 13.4099 115.513 14.5694C114.43 15.7286 113.033 16.3084 111.333 16.3084C109.621 16.3084 108.221 15.7286 107.138 14.5694C106.052 13.4099 105.511 12.0546 105.511 10.5042C105.511 8.96735 106.024 7.63323 107.051 6.50537C108.179 5.25854 109.607 4.63685 111.333 4.63685ZM111.333 6.04092C110.141 6.04092 109.122 6.47726 108.266 7.35399C107.41 8.23072 106.985 9.29229 106.985 10.5358C106.985 11.3353 107.181 12.0829 107.568 12.7777C107.959 13.4693 108.486 14.0034 109.15 14.3808C109.81 14.7579 110.54 14.9464 111.333 14.9464C112.125 14.9464 112.855 14.7579 113.515 14.3808C114.179 14.0034 114.706 13.4693 115.098 12.7777C115.486 12.0829 115.681 11.3353 115.681 10.5358C115.681 9.29229 115.251 8.23072 114.392 7.35399C113.536 6.47726 112.516 6.04092 111.333 6.04092ZM121.02 0.760264H122.445V4.90931H124.709V6.14566H122.445V16.0361H121.02V6.14566H119.072V4.90931H121.02V0.760264ZM126.885 0.613415H128.309V6.91737C128.889 6.15612 129.532 5.5836 130.226 5.20604C130.925 4.82527 131.679 4.63685 132.493 4.63685C133.328 4.63685 134.068 4.84645 134.714 5.26903C135.36 5.69175 135.839 6.26094 136.146 6.97001C136.453 7.68215 136.607 8.79629 136.607 10.3156V16.0361H135.183V10.7345C135.183 9.45628 135.13 8.60077 135.029 8.17102C134.851 7.43769 134.526 6.88583 134.058 6.51251C133.59 6.14212 132.975 5.95688 132.214 5.95688C131.344 5.95688 130.566 6.24351 129.877 6.8162C129.19 7.38553 128.736 8.09437 128.516 8.93953C128.38 9.48445 128.309 10.4902 128.309 11.9607V16.0361H126.885V0.613415ZM140.162 0.341309C140.487 0.341309 140.763 0.456771 140.994 0.690497C141.224 0.921008 141.339 1.20397 141.339 1.52876C141.339 1.8499 141.224 2.12909 140.994 2.35989C140.763 2.59362 140.487 2.70926 140.162 2.70926C139.841 2.70926 139.569 2.59377 139.339 2.35989C139.108 2.12909 138.992 1.8499 138.992 1.52876C138.992 1.20397 139.108 0.921008 139.339 0.690497C139.569 0.456479 139.841 0.341309 140.162 0.341309ZM139.453 4.90931H140.879V16.0361H139.453V4.90931ZM154.67 7.22142L153.535 7.92657C152.55 6.62756 151.205 5.97793 149.501 5.97793C148.139 5.97793 147.008 6.41459 146.107 7.28387C145.209 8.15358 144.759 9.20851 144.759 10.4515C144.759 11.2621 144.964 12.0232 145.38 12.7358C145.792 13.4481 146.361 14.0034 147.085 14.3983C147.804 14.7928 148.614 14.9883 149.512 14.9883C151.153 14.9883 152.494 14.339 153.535 13.0395L154.67 13.7871C154.136 14.5868 153.42 15.2048 152.522 15.6482C151.621 16.0883 150.597 16.3084 149.448 16.3084C147.681 16.3084 146.218 15.7498 145.055 14.6356C143.892 13.5181 143.313 12.1628 143.313 10.5634C143.313 9.49112 143.585 8.49268 144.13 7.57078C144.671 6.64845 145.419 5.9291 146.369 5.41195C147.322 4.89524 148.383 4.63685 149.56 4.63685C150.301 4.63685 151.013 4.74932 151.702 4.97194C152.386 5.19573 152.969 5.48917 153.447 5.84875C153.929 6.20833 154.335 6.66582 154.67 7.22142ZM168.493 4.63685C170.208 4.63685 171.632 5.255 172.761 6.49467C173.787 7.62296 174.301 8.96033 174.301 10.5042C174.301 12.0546 173.76 13.4099 172.674 14.5694C171.591 15.7286 170.194 16.3084 168.493 16.3084C166.782 16.3084 165.381 15.7286 164.298 14.5694C163.212 13.4099 162.672 12.0546 162.672 10.5042C162.672 8.96735 163.184 7.63323 164.211 6.50537C165.339 5.25854 166.768 4.63685 168.493 4.63685ZM168.493 6.04092C167.302 6.04092 166.282 6.47726 165.427 7.35399C164.571 8.23072 164.145 9.29229 164.145 10.5358C164.145 11.3353 164.34 12.0829 164.728 12.7777C165.119 13.4693 165.646 14.0034 166.31 14.3808C166.97 14.7579 167.7 14.9464 168.493 14.9464C169.286 14.9464 170.016 14.7579 170.676 14.3808C171.339 14.0034 171.866 13.4693 172.258 12.7777C172.645 12.0829 172.841 11.3353 172.841 10.5358C172.841 9.29229 172.412 8.23072 171.552 7.35399C170.697 6.47726 169.677 6.04092 168.493 6.04092ZM187.61 0.362007V1.72432C186.926 1.84272 185.756 1.92694 184.093 1.97591C182.892 2.0183 181.963 2.09862 181.31 2.21644C180.657 2.33922 180.088 2.56585 179.602 2.90482C179.121 3.24701 178.712 3.76037 178.38 4.44825C178.048 5.13642 177.842 5.90786 177.758 6.75696L177.615 8.33179C178.006 7.05353 178.645 6.12132 179.539 5.52757C180.43 4.93383 181.422 4.63685 182.508 4.63685C184.163 4.63685 185.546 5.21638 186.657 6.37244C187.768 7.52851 188.323 8.9045 188.323 10.5042C188.323 12.0894 187.768 13.4519 186.66 14.5938C185.553 15.7357 184.167 16.3084 182.504 16.3084C180.8 16.3084 179.358 15.6727 178.174 14.4052C176.99 13.1373 176.4 11.1398 176.4 8.41226C176.4 6.51249 176.616 5.0698 177.049 4.09192C177.486 3.11404 177.982 2.41211 178.544 1.98251C179.103 1.55321 179.829 1.21414 180.717 0.969741C181.607 0.721983 183.273 0.571676 185.714 0.508677C186.465 0.488213 187.097 0.438454 187.61 0.362007ZM186.856 10.5358C186.856 9.30633 186.427 8.24809 185.564 7.36434C184.705 6.48103 183.685 6.04092 182.504 6.04092C181.328 6.04092 180.311 6.48419 179.452 7.3713C178.59 8.25841 178.16 9.31293 178.16 10.5424C178.16 11.7613 178.576 12.8021 179.403 13.661C180.235 14.5167 181.268 14.9464 182.504 14.9464C183.744 14.9464 184.782 14.5167 185.613 13.6578C186.441 12.7984 186.856 11.758 186.856 10.5358ZM192.377 9.30977H193.743C194.829 9.30977 195.678 9.39311 196.293 9.56457C196.907 9.73573 197.438 10.1131 197.882 10.6962C198.325 11.2795 198.549 11.9499 198.549 12.7078C198.549 13.623 198.227 14.4052 197.585 15.0583C196.945 15.7112 195.971 16.0361 194.668 16.0361H190.964V4.90931H192.377V9.30977ZM192.43 10.6298V14.8208H194.082C196.027 14.8208 196.998 14.1396 196.998 12.781C196.998 12.3936 196.893 12.0128 196.684 11.639C196.478 11.2652 196.17 11.0035 195.772 10.8536C195.37 10.7031 194.665 10.6298 193.652 10.6298H192.43ZM200.539 4.90931H201.964V16.0361H200.539V4.90931ZM210.007 11.0279H207.493C206.354 11.0279 205.512 10.7346 204.964 10.1479C204.415 9.55791 204.14 8.74412 204.14 7.69622V4.90931H205.544V6.92094C205.544 8.21659 205.729 9.01632 206.096 9.32708C206.462 9.63784 207.07 9.79153 207.912 9.79153H210.007V4.90931H211.432V16.0361H210.007V11.0279ZM222.538 10.6716H216.042V16.0361H214.617V4.90931H216.042V9.33082H222.538V4.90931H223.962V16.0361H222.538V10.6716ZM228.565 9.30977H229.931C231.017 9.30977 231.866 9.39311 232.481 9.56457C233.095 9.73573 233.626 10.1131 234.069 10.6962C234.513 11.2795 234.737 11.9499 234.737 12.7078C234.737 13.623 234.415 14.4052 233.773 15.0583C233.133 15.7112 232.159 16.0361 230.857 16.0361H227.151V4.90931H228.565V9.30977ZM228.618 10.6298V14.8208H230.27C232.215 14.8208 233.186 14.1396 233.186 12.781C233.186 12.3936 233.081 12.0128 232.872 11.639C232.666 11.2652 232.359 11.0035 231.96 10.8536C231.559 10.7031 230.853 10.6298 229.841 10.6298H228.618ZM236.727 4.90931H238.152V16.0361H236.727V4.90931ZM242.633 4.90931V13.1516L250.819 4.90931H250.93V16.0361H249.506V7.85699L241.382 16.0361H241.208V4.90931H242.633ZM242.444 0.424814H243.785C244.019 0.781178 244.331 1.04636 244.722 1.22454C245.11 1.40272 245.577 1.49361 246.115 1.49361C246.663 1.49361 247.107 1.41311 247.442 1.25612C247.777 1.09899 248.095 0.823128 248.395 0.424814H249.695C249.545 1.03975 249.16 1.55312 248.546 1.96503C247.928 2.37723 247.114 2.58329 246.104 2.58329C245.102 2.58329 244.285 2.38066 243.653 1.97591C243.017 1.57058 242.615 1.05349 242.444 0.424814Z" fill="black"/>
</svg>
