<svg width="252" height="27" viewBox="0 0 252 27" fill="none" xmlns="http://www.w3.org/2000/svg">
<path fill-rule="evenodd" clip-rule="evenodd" d="M26.0122 26.1476H20.5426L18.3771 20.4387H8.31935L6.23528 26.1476H0.865234L10.6018 1.07046H15.9662L26.0122 26.1476ZM16.7309 16.2008L13.2462 6.91959L9.86028 16.2008H16.7309ZM33.2679 26.1476H28.4695V7.97002H32.9178V10.5501C33.6827 9.33033 34.3715 8.53058 34.9844 8.15112C35.5976 7.77152 36.292 7.58514 37.0685 7.58514C38.1656 7.58514 39.2221 7.88841 40.2381 8.48961L38.7493 12.6811C37.938 12.1558 37.1851 11.893 36.4903 11.893C35.8133 11.893 35.2411 12.0799 34.7742 12.4474C34.3072 12.8211 33.9394 13.4866 33.6704 14.4553C33.4019 15.4244 33.2679 17.4558 33.2679 20.5435V26.1476ZM42.31 5.51838V1.07046H47.1084V5.51838H42.31ZM42.31 26.1476V7.97002H47.1084V26.1476H42.31ZM55.6131 13.574L51.2701 12.8032C51.7608 11.029 52.6073 9.71559 53.8038 8.86342C55.0005 8.0111 56.7809 7.58514 59.1389 7.58514C61.2815 7.58514 62.8809 7.83589 63.9315 8.34383C64.9762 8.85177 65.7181 9.49357 66.1441 10.2759C66.5703 11.0582 66.7857 12.4883 66.7857 14.5778L66.7158 20.182C66.7158 21.7755 66.792 22.9547 66.9435 23.7133C67.0952 24.4724 67.3813 25.2838 67.8014 26.1476H63.038C62.9152 25.8323 62.758 25.3654 62.5769 24.7468C62.5009 24.4609 62.4424 24.274 62.4077 24.1862C61.5904 24.992 60.7151 25.5931 59.7812 25.9958C58.8472 26.3986 57.8546 26.603 56.7979 26.603C54.9358 26.603 53.465 26.095 52.3907 25.0794C51.3167 24.0696 50.7798 22.7852 50.7798 21.2326C50.7798 20.2109 51.0248 19.2944 51.5149 18.4889C52.0056 17.6892 52.6883 17.0706 53.5754 16.6442C54.4571 16.2183 55.7301 15.8446 57.3938 15.5239C59.6354 15.1032 61.1934 14.7064 62.0573 14.3446V13.8598C62.0573 12.9258 61.8296 12.2605 61.3743 11.8578C60.9131 11.4608 60.0495 11.2622 58.7828 11.2622C57.9247 11.2622 57.2593 11.4319 56.7808 11.7761C56.2961 12.1147 55.911 12.7158 55.6131 13.574ZM62.0573 17.4616C61.4446 17.666 60.4699 17.9114 59.1332 18.1973C57.8025 18.4832 56.9267 18.7632 56.5181 19.032C55.8932 19.4812 55.5781 20.0418 55.5781 20.7246C55.5781 21.4017 55.8289 21.9797 56.3311 22.47C56.8328 22.9606 57.4696 23.2057 58.246 23.2057C59.11 23.2057 59.9389 22.9195 60.7269 22.3535C61.305 21.9156 61.6899 21.3901 61.871 20.7599C61.9938 20.3509 62.0573 19.5691 62.0573 18.4189V17.4616ZM71.5198 26.1476V1.07046H76.3182V26.1476H71.5198ZM89.8604 16.8369C89.8604 15.2376 90.2522 13.6908 91.0402 12.1963C91.8283 10.6963 92.9433 9.55766 94.3847 8.7701C95.8266 7.98195 97.4315 7.58514 99.2116 7.58514C101.961 7.58514 104.209 8.47793 105.966 10.2643C107.723 12.0562 108.598 14.3095 108.598 17.0413C108.598 19.7966 107.711 22.0791 105.943 23.8885C104.168 25.698 101.938 26.603 99.2473 26.603C97.5837 26.603 95.9957 26.2234 94.4839 25.4705C92.9777 24.7173 91.8283 23.6143 91.0402 22.1549C90.2522 20.7014 89.8604 18.9267 89.8604 16.8369ZM94.7993 17.0937C94.7993 18.8973 95.2253 20.2809 96.0776 21.2385C96.9356 22.2014 97.9865 22.6804 99.2415 22.6804C100.491 22.6804 101.541 22.2014 102.388 21.2385C103.234 20.2809 103.66 18.8858 103.66 17.0589C103.66 15.2784 103.234 13.9068 102.388 12.9497C101.541 11.9862 100.491 11.5076 99.2415 11.5076C97.9865 11.5076 96.9356 11.9862 96.0776 12.9497C95.2253 13.9068 94.7993 15.2901 94.7993 17.0937ZM126.035 0.475037H129.292C129.187 1.91701 128.807 3.00859 128.153 3.75566C127.5 4.49689 125.877 4.87068 123.297 4.87068C122.993 4.87068 122.684 4.87073 122.375 4.85319H121.756C120.227 4.85319 118.983 5.02265 118.025 5.36118C117.068 5.69401 116.28 6.34785 115.673 7.31696C115.06 8.29148 114.745 9.85601 114.722 12.0097C115.428 10.6788 116.344 9.68653 117.471 9.02686C118.592 8.36734 119.935 8.04067 121.482 8.04067C123.869 8.04067 125.889 8.96891 127.546 10.831C129.198 12.6872 130.027 14.8409 130.027 17.2868C130.027 19.8379 129.158 22.0268 127.418 23.8594C125.673 25.6867 123.402 26.6032 120.594 26.6032C118.662 26.6032 116.969 26.1419 115.504 25.2139C114.044 24.2916 113 23.025 112.369 21.4199C111.745 19.8143 111.43 17.1583 111.43 13.4459C111.43 9.07947 112.235 5.94499 113.84 4.03616C115.445 2.12732 118.247 1.17591 122.246 1.17591H124.68C125.357 1.17591 125.807 0.942229 126.035 0.475215V0.475037ZM116.367 17.2049C116.367 18.8684 116.783 20.1877 117.606 21.1569C118.429 22.1256 119.432 22.6103 120.623 22.6103C121.907 22.6103 122.964 22.1082 123.787 21.1043C124.61 20.1003 125.019 18.8101 125.019 17.2224C125.019 15.6056 124.604 14.3037 123.769 13.3113C122.935 12.319 121.901 11.8229 120.675 11.8229C119.484 11.8229 118.469 12.3132 117.628 13.2881C116.788 14.2627 116.367 15.5702 116.367 17.2049ZM134.043 7.97002H138.842V15.5355H143.675C145.572 15.5355 147.02 15.67 148.018 15.9382C149.016 16.2067 149.862 16.7905 150.551 17.6891C151.246 18.5884 151.59 19.6507 151.59 20.8647C151.59 22.6219 150.983 23.9412 149.775 24.8226C148.566 25.7039 146.751 26.1476 144.335 26.1476H134.043V7.97002ZM138.842 23.0652H143.325C144.486 23.0652 145.339 22.8847 145.864 22.5226C146.389 22.1609 146.652 21.5711 146.652 20.754C146.652 19.884 146.314 19.2827 145.631 18.9617C144.947 18.641 143.727 18.4773 141.964 18.4773H138.842V23.0652ZM154.322 7.97002H159.12V26.1476H154.322V7.97002ZM163.359 7.97002H168.226V12.3189C168.226 13.3113 168.314 14.0468 168.489 14.5373C168.67 15.0217 169.044 15.436 169.622 15.7865C170.194 16.1308 170.924 16.3058 171.799 16.3058C172.652 16.3058 173.608 16.113 174.671 15.7223V7.97002H179.47V26.1476H174.671V18.88C172.797 19.3822 171.373 19.6333 170.393 19.6333C168.922 19.6333 167.596 19.318 166.423 18.6816C165.25 18.0514 164.444 17.2397 164.006 16.2535C163.574 15.267 163.359 13.9535 163.359 12.3132V7.97002ZM184.04 7.97002H188.838V14.6248H195.773V7.97002H200.572V26.1476H195.773V18.5126H188.838V26.1476H184.04V7.97002ZM205.44 7.97002H210.238V15.5355H215.072C216.969 15.5355 218.416 15.67 219.415 15.9382C220.413 16.2067 221.259 16.7905 221.948 17.6891C222.642 18.5884 222.987 19.6507 222.987 20.8647C222.987 22.6219 222.379 23.9412 221.171 24.8226C219.963 25.7039 218.148 26.1476 215.731 26.1476H205.44V7.97002ZM210.238 23.0652H214.721C215.882 23.0652 216.735 22.8847 217.26 22.5226C217.785 22.1609 218.049 21.5711 218.049 20.754C218.049 19.884 217.71 19.2827 217.027 18.9617C216.344 18.641 215.124 18.4773 213.361 18.4773H210.238V23.0652ZM225.719 7.97002H230.517V26.1476H225.719V7.97002ZM235.175 7.97002H239.799V19.3939L247.188 7.97002H251.917V26.1476H247.293V14.5605L239.799 26.1476H235.175V7.97002ZM246.628 0.650256H248.974C248.84 2.19703 248.292 3.41719 247.34 4.29845C246.389 5.17986 245.157 5.62365 243.645 5.62365C242.127 5.62365 240.895 5.17986 239.944 4.29845C238.993 3.41719 238.444 2.19703 238.31 0.650256H240.656C240.738 1.4558 241.018 2.06844 241.509 2.48327C241.999 2.89752 242.711 3.10189 243.645 3.10189C244.573 3.10189 245.286 2.89752 245.776 2.48327C246.266 2.06844 246.547 1.4558 246.628 0.650256Z" fill="black"/>
</svg>
