<svg width="252" height="20" viewBox="0 0 252 20" fill="none" xmlns="http://www.w3.org/2000/svg">
<path fill-rule="evenodd" clip-rule="evenodd" d="M8.72307 2.47205V4.77381H3.16103V8.82526H8.53108V11.1267H3.16103V18.4627H0.71582V2.47205H8.72307ZM11.0723 8.36954H13.4219V14.1471C13.4219 14.9945 13.5664 15.6016 13.8533 15.9696C14.2051 16.4328 14.7166 16.6648 15.3878 16.6648C16.059 16.6648 16.5705 16.4328 16.9223 15.9696C17.2098 15.6016 17.3534 14.9945 17.3534 14.1471V8.36954H19.7026V14.2192C19.7026 15.7055 19.3435 16.8085 18.6242 17.5273C17.7931 18.3584 16.6983 18.7742 15.3396 18.7742C14.0291 18.7742 12.9663 18.3584 12.1514 17.5273C11.4321 16.8085 11.0723 15.7055 11.0723 14.2192V8.36954ZM26.8948 10.5275H25.0969V18.4627H22.7477V10.5275H21.7649V8.36954H22.7477V4.67781H25.0969V8.36954H26.8948V10.5275ZM28.4771 8.36954H30.8267V14.1471C30.8267 14.9945 30.9712 15.6016 31.2582 15.9696C31.61 16.4328 32.1214 16.6648 32.7927 16.6648C33.4639 16.6648 33.975 16.4328 34.3268 15.9696C34.6143 15.6016 34.7586 14.9945 34.7586 14.1471V8.36954H37.1075V14.2192C37.1075 15.7055 36.7482 16.8085 36.029 17.5273C35.1978 18.3584 34.1031 18.7742 32.7445 18.7742C31.4339 18.7742 30.3712 18.3584 29.5563 17.5273C28.837 16.8085 28.4771 15.7055 28.4771 14.2192V8.36954ZM40.0808 18.4627V8.36954H42.4297V9.28061C42.7334 8.92878 43.0614 8.64919 43.4132 8.44163C43.7965 8.21784 44.2762 8.10618 44.8514 8.10618C45.5388 8.10618 46.1539 8.26606 46.697 8.58545L45.7385 10.7191C45.3548 10.4793 44.955 10.3594 44.5395 10.3594C43.9163 10.3594 43.429 10.5433 43.0778 10.9108C42.646 11.3744 42.4297 12.1496 42.4297 13.2364V18.4627H40.0808ZM54.9198 9.54433V8.36954H57.2694V18.4627H54.9198V17.4078C54.1367 18.3189 53.13 18.7742 51.8994 18.7742C50.4127 18.7742 49.226 18.2468 48.3393 17.1919C47.4522 16.1374 47.0089 14.8743 47.0089 13.4041C47.0089 11.8056 47.4847 10.5232 48.4357 9.55611C49.3865 8.58948 50.5485 8.10618 51.9229 8.10618C53.1858 8.10618 54.1843 8.58545 54.9198 9.54433ZM52.2113 10.2159C51.38 10.2159 50.7049 10.5273 50.1857 11.1506C49.6661 11.7737 49.4063 12.5413 49.4063 13.452C49.4063 14.3474 49.6661 15.1063 50.1857 15.7295C50.7049 16.3527 51.38 16.6648 52.2113 16.6648C53.0101 16.6648 53.6853 16.3848 54.2368 15.8254C54.7883 15.2656 55.064 14.4827 55.064 13.4759C55.064 12.437 54.7883 11.6341 54.2368 11.0663C53.6853 10.4992 53.0101 10.2159 52.2113 10.2159ZM66.2595 2.47205H69.7831C71.2536 2.47205 72.4202 2.75968 73.2832 3.3353C73.9226 3.7665 74.4138 4.33021 74.7578 5.0254C75.1013 5.72073 75.2731 6.45207 75.2731 7.21902C75.2731 8.65763 74.7537 9.82368 73.715 10.7191C72.7401 11.5498 71.4375 11.9656 69.8074 11.9656H68.7047V18.4627H66.2595V2.47205ZM68.7047 4.72599V9.71206H69.8074C70.8304 9.71206 71.6053 9.48457 72.1327 9.02867C72.6602 8.57335 72.9242 7.96215 72.9242 7.19476C72.9242 6.92346 72.8874 6.66744 72.8157 6.42786C72.7441 6.188 72.6087 5.92825 72.4089 5.64848C72.2088 5.36885 71.885 5.14502 71.4375 4.97722C70.99 4.80942 70.4383 4.72599 69.7831 4.72599H68.7047ZM85.869 4.77417H82.2019V18.4627H79.756V4.77417H76.0881V2.47241H85.869V4.77417ZM95.6263 18.4627H93.1333L96.4899 1.27371L102.051 13.6921L107.661 1.27371L110.682 18.4627H108.189L106.558 8.82561L101.908 19.206L97.305 8.8017L95.6263 18.4627ZM120.679 15.0586L122.644 16.1616C122.197 16.9604 121.63 17.5757 120.943 18.0073C120.16 18.5186 119.169 18.7742 117.97 18.7742C116.563 18.7742 115.429 18.3428 114.566 17.4799C113.575 16.4887 113.079 15.2025 113.079 13.62C113.079 11.9582 113.615 10.5752 114.686 9.4726C115.597 8.56152 116.723 8.10618 118.066 8.10618C119.376 8.10618 120.456 8.54586 121.302 9.42478C122.246 10.3996 122.716 11.8222 122.716 13.6921V13.9798H115.476C115.541 14.8271 115.828 15.5061 116.339 16.0174C116.771 16.4491 117.37 16.6648 118.138 16.6648C118.761 16.6648 119.296 16.4972 119.744 16.1616C120.111 15.8737 120.423 15.5061 120.679 15.0586ZM115.644 12.062H120.319C120.222 11.5026 119.984 11.047 119.6 10.6956C119.185 10.3119 118.657 10.1199 118.018 10.1199C117.347 10.1199 116.795 10.3359 116.364 10.7673C116.012 11.0871 115.772 11.5184 115.644 12.062ZM132.546 9.54469V0.986084H134.895V18.4627H132.546V17.4078C131.763 18.3189 130.756 18.7742 129.525 18.7742C128.039 18.7742 126.852 18.2468 125.965 17.1919C125.078 16.1374 124.634 14.8747 124.634 13.4045C124.634 11.806 125.11 10.5235 126.061 9.55647C127.012 8.58984 128.174 8.10618 129.549 8.10618C130.812 8.10618 131.81 8.58581 132.546 9.54469ZM129.836 10.2163C129.005 10.2163 128.33 10.5277 127.811 11.1509C127.291 11.774 127.032 12.5413 127.032 13.452C127.032 14.3474 127.291 15.1067 127.811 15.7298C128.33 16.3531 129.005 16.6648 129.836 16.6648C130.635 16.6648 131.311 16.3852 131.863 15.8258C132.414 15.266 132.689 14.4831 132.689 13.4762C132.689 12.4374 132.414 11.6344 131.863 11.0667C131.311 10.4996 130.635 10.2163 129.836 10.2163ZM137.867 8.3699H140.217V18.4627H137.867V8.3699ZM137.964 5.2777C137.676 4.9896 137.533 4.6299 137.533 4.19855C137.533 3.76676 137.675 3.40771 137.964 3.11976C138.251 2.83209 138.611 2.68831 139.043 2.68831C139.475 2.68831 139.834 2.83166 140.121 3.11976C140.409 3.40771 140.553 3.76676 140.553 4.19855C140.553 4.6299 140.409 4.9896 140.121 5.2777C139.834 5.56522 139.475 5.70879 139.043 5.70879C138.611 5.70879 138.251 5.56565 137.964 5.2777ZM143.19 8.3699H145.539V14.1475C145.539 14.9948 145.684 15.6016 145.971 15.9696C146.323 16.4328 146.834 16.6648 147.505 16.6648C148.177 16.6648 148.688 16.4328 149.04 15.9696C149.327 15.6016 149.471 14.9948 149.471 14.1475V8.3699H151.821V14.2196C151.821 15.7058 151.461 16.8088 150.741 17.5277C149.91 18.3588 148.816 18.7742 147.458 18.7742C146.147 18.7742 145.084 18.3588 144.269 17.5277C143.55 16.8088 143.19 15.7058 143.19 14.2196V8.3699ZM154.793 18.4627V8.3699H157.143V9.30488C157.798 8.50562 158.629 8.10618 159.636 8.10618C160.803 8.10618 161.674 8.60177 162.249 9.59251C162.936 8.60177 163.935 8.10618 165.246 8.10618C166.556 8.10618 167.515 8.63359 168.123 9.6885C168.474 10.3116 168.65 11.1586 168.65 12.2297V18.4627H166.301V12.901C166.301 12.0218 166.229 11.4226 166.085 11.1027C165.861 10.5115 165.414 10.2163 164.742 10.2163C164.167 10.2163 163.704 10.4634 163.352 10.9589C163.048 11.3907 162.897 12.1577 162.897 13.2607V18.4627H160.547V12.901C160.547 12.0218 160.475 11.4226 160.331 11.1027C160.107 10.5115 159.66 10.2163 158.989 10.2163C158.414 10.2163 157.95 10.4634 157.598 10.9589C157.294 11.3907 157.143 12.1577 157.143 13.2607V18.4627H154.793ZM184.161 10.5278H181.212V18.4627H178.863V10.5278H175.914V8.3699H184.161V10.5278ZM186.594 9.60464C187.625 8.60557 188.908 8.10618 190.442 8.10618C191.977 8.10618 193.258 8.60557 194.289 9.60464C195.32 10.6036 195.836 11.8778 195.836 13.4284C195.836 14.9626 195.32 16.2375 194.289 17.2522C193.258 18.2669 191.977 18.7742 190.442 18.7742C188.908 18.7742 187.625 18.2669 186.594 17.2522C185.563 16.2375 185.048 14.9626 185.048 13.4284C185.048 11.8778 185.563 10.6036 186.594 9.60464ZM188.26 15.7898C188.804 16.3733 189.531 16.6648 190.442 16.6648C191.353 16.6648 192.08 16.3733 192.623 15.7898C193.167 15.2064 193.438 14.4269 193.438 13.452C193.438 12.3814 193.147 11.5743 192.563 11.031C191.98 10.4874 191.273 10.2163 190.442 10.2163C189.611 10.2163 188.904 10.4874 188.32 11.031C187.737 11.5743 187.445 12.3814 187.445 13.452C187.445 14.4269 187.717 15.2064 188.26 15.7898ZM206.575 8.3699V18.4627H204.226V10.5278H201.254V14.5311C201.254 15.7778 200.934 16.7446 200.294 17.432C199.479 18.3431 198.377 18.6863 196.986 18.4627V16.3054C197.673 16.4649 198.225 16.3201 198.641 15.8497C198.881 15.5621 199 15.1224 199 14.5311V8.3699H206.575ZM217.364 8.82561V11.4625C216.517 10.6313 215.566 10.2163 214.511 10.2163C213.616 10.2163 212.873 10.5115 212.281 11.1027C211.706 11.6782 211.419 12.4535 211.419 13.4284C211.419 14.4352 211.722 15.2427 212.329 15.8497C212.905 16.3933 213.616 16.6648 214.463 16.6648C215.63 16.6648 216.597 16.2331 217.364 15.3701V17.9834C216.517 18.5108 215.493 18.7742 214.295 18.7742C212.681 18.7742 211.402 18.279 210.459 17.2882C209.501 16.2972 209.021 15.0345 209.021 13.5001C209.021 11.9178 209.532 10.6154 210.555 9.59251C211.546 8.60177 212.897 8.10618 214.607 8.10618C215.582 8.10618 216.501 8.34617 217.364 8.82561ZM226.809 10.5278H223.861V18.4627H221.511V10.5278H218.562V8.3699H226.809V10.5278ZM228.487 18.4627V8.3699H230.836V11.9417H232.179C232.611 11.9417 232.963 11.9566 233.234 11.9785C233.506 12.0019 233.833 12.094 234.217 12.2543C234.6 12.414 234.936 12.6539 235.224 12.9734C235.752 13.5647 236.015 14.3 236.015 15.1788C236.015 16.1858 235.711 16.9926 235.103 17.6001C234.832 17.872 234.509 18.0759 234.133 18.2114C233.757 18.3474 233.446 18.4235 233.198 18.4391C232.951 18.4552 232.602 18.4641 232.155 18.4641L228.487 18.4627ZM230.836 16.4489H231.915C232.491 16.4489 232.898 16.3773 233.138 16.233C233.49 15.9773 233.665 15.6342 233.665 15.2024C233.665 14.7548 233.498 14.4193 233.162 14.1957C232.906 14.0356 232.499 13.9559 231.939 13.9559H230.836V16.4489ZM237.07 18.4627V8.3699H239.419V18.4627H237.07ZM242.392 8.3699H244.741V14.0997L251.645 7.45919V18.4627H249.297V12.5894L242.392 19.2299V8.3699ZM243.159 4.00691L245.076 3.45521C245.38 4.49389 246.036 5.01362 247.043 5.01362C248.033 5.01362 248.689 4.49389 249.008 3.45521L250.926 4.00691C250.67 4.91799 250.155 5.61692 249.38 6.10455C248.605 6.59188 247.826 6.8354 247.043 6.8354C246.259 6.8354 245.48 6.59188 244.705 6.10455C243.93 5.61692 243.415 4.91799 243.159 4.00691Z" fill="black"/>
</svg>
