<svg width="251" height="15" viewBox="0 0 251 15" fill="none" xmlns="http://www.w3.org/2000/svg">
<path fill-rule="evenodd" clip-rule="evenodd" d="M3.87647 11.2859L2.58606 14.4513H0.186523L6.01371 0.337219H7.28414L13.0507 14.4513H10.6511L9.3807 11.2859H3.87647ZM6.63858 4.30962L4.64265 9.22895H8.63486L6.63858 4.30962ZM19.7853 4.24967C21.3983 4.24967 22.7222 4.86789 23.7572 6.10463L22.5478 7.41503C21.768 6.59516 20.8473 6.18493 19.7853 6.18493C18.9251 6.18493 18.1853 6.48757 17.5671 7.09243C16.9489 7.69742 16.6396 8.47009 16.6396 9.41113C16.6396 10.352 16.9489 11.1253 17.5671 11.7298C18.1853 12.3347 18.9251 12.637 19.7853 12.637C20.8204 12.637 21.741 12.2273 22.5478 11.4072L23.7572 12.7178C22.7222 13.9547 21.3983 14.573 19.7853 14.573C18.3472 14.573 17.1269 14.0687 16.1257 13.0606C15.1243 12.0526 14.6233 10.836 14.6233 9.41113C14.6233 7.98626 15.1243 6.76965 16.1257 5.76151C17.1269 4.75352 18.3472 4.24967 19.7853 4.24967ZM32.8711 6.16512H32.0642C30.9219 6.16512 30.0684 6.51441 29.5038 7.2134C28.9394 7.91239 28.6566 8.84665 28.6566 10.016V14.452H26.6403V4.37047H28.0114L28.2333 6.83013C29.04 5.09611 30.4714 4.22933 32.5282 4.22933H32.8711V6.16512ZM39.9077 4.22933C41.3459 4.22933 42.5691 4.7368 43.5776 5.75152C44.5858 6.76623 45.0893 7.98626 45.0893 9.41113C45.0893 10.836 44.5858 12.0526 43.5776 13.0606C42.5691 14.0687 41.3459 14.573 39.9077 14.573C38.4694 14.573 37.2494 14.0687 36.2484 13.0606C35.247 12.0526 34.746 10.836 34.746 9.41113C34.746 7.97296 35.2503 6.74966 36.2584 5.74153C37.2666 4.7331 38.4827 4.22933 39.9077 4.22933ZM42.1352 7.08243C41.5105 6.47086 40.7678 6.16512 39.9077 6.16512C39.0475 6.16512 38.3076 6.47086 37.6894 7.08243C37.0711 7.69401 36.7623 8.47009 36.7623 9.41113C36.7623 10.352 37.0711 11.1253 37.6894 11.7298C38.3076 12.3347 39.0475 12.637 39.9077 12.637C40.7678 12.637 41.5105 12.3314 42.1352 11.7198C42.7605 11.1083 43.073 10.3389 43.073 9.41113C43.073 8.47009 42.7605 7.69401 42.1352 7.08243ZM60.9582 4.22933C62.3562 4.22933 63.4374 4.66268 64.2035 5.52991C64.9702 6.3967 65.3533 7.58286 65.3533 9.08871V14.452H63.3371V9.18934C63.3371 7.17321 62.4434 6.16512 60.6556 6.16512C59.7415 6.16512 59.022 6.45722 58.498 7.04175C57.9739 7.62687 57.7115 8.47005 57.7115 9.57261V14.452H55.6952V9.18934C55.6952 7.17321 54.801 6.16512 53.0131 6.16512C52.1128 6.16512 51.4003 6.45722 50.8762 7.04175C50.352 7.62687 50.0897 8.47005 50.0897 9.57261V14.452H48.0734V4.37047H49.4445L49.5865 6.3059C49.9494 5.62066 50.4638 5.1032 51.1288 4.75356C51.7942 4.40421 52.5233 4.22933 53.3164 4.22933C54.2304 4.22933 55.0138 4.43063 55.666 4.83421C56.3177 5.23749 56.7916 5.81542 57.087 6.5682C57.423 5.80212 57.9371 5.22045 58.6293 4.82404C59.3218 4.42748 60.0976 4.22933 60.9582 4.22933ZM82.8952 14.452H80.7176V4.41079L75.9792 10.3789L71.2208 4.41079V14.452H69.0433V0.337755H70.313L75.9792 7.4955L81.6448 0.337755H82.8952V14.452ZM91.3835 4.22933C92.4586 4.22933 93.3798 4.47804 94.1463 4.97517C94.9124 5.47288 95.4837 6.17182 95.86 7.07208C96.0481 7.48896 96.1557 7.97633 96.1826 8.53397C96.2089 9.09204 96.1619 9.55894 96.0406 9.93518H88.3587C88.3587 10.7957 88.6512 11.4779 89.2359 11.9821C89.8204 12.486 90.5764 12.7381 91.5041 12.7381C92.6735 12.7381 93.756 12.4423 94.7509 11.8506L95.8393 13.0204C94.4819 14.0553 93.0364 14.573 91.5041 14.573C89.9582 14.573 88.7015 14.089 87.7335 13.1211C86.7656 12.1533 86.2818 10.9168 86.2818 9.41113C86.2818 7.94607 86.7485 6.7162 87.6829 5.72136C88.6172 4.72653 89.8508 4.22933 91.3835 4.22933ZM91.4042 6.06413C90.5706 6.06413 89.8783 6.31585 89.3273 6.82014C88.7762 7.32443 88.4803 7.93266 88.4401 8.64495H94.227C94.227 8.2956 94.1465 7.96631 93.985 7.65716C93.7699 7.17319 93.4372 6.78666 92.9872 6.49754C92.5369 6.2087 92.0088 6.06413 91.4042 6.06413ZM108.664 14.452H107.293L107.172 12.597C106.795 13.2019 106.277 13.6824 105.619 14.0384C104.96 14.3947 104.242 14.573 103.462 14.573C102.037 14.573 100.85 14.0725 99.9025 13.0709C98.9549 12.0695 98.4808 10.8497 98.4808 9.41113C98.4808 7.95966 98.9549 6.73274 99.9025 5.73118C100.85 4.72976 102.037 4.22933 103.462 4.22933C104.121 4.22933 104.735 4.38065 105.306 4.68308C105.877 4.9855 106.324 5.38536 106.647 5.88249V0.337755H108.663L108.664 14.452ZM101.425 11.7298C102.043 12.3347 102.783 12.637 103.643 12.637C104.503 12.637 105.246 12.3314 105.871 11.7198C106.497 11.1083 106.808 10.3389 106.808 9.41113C106.808 8.47009 106.497 7.69401 105.871 7.08243C105.246 6.47086 104.503 6.16512 103.643 6.16512C102.783 6.16512 102.043 6.47086 101.425 7.08243C100.807 7.69401 100.498 8.47009 100.498 9.41113C100.498 10.352 100.807 11.1253 101.425 11.7298ZM114.41 2.98923C114.182 3.19767 113.899 3.30167 113.563 3.30167C113.227 3.30167 112.942 3.19782 112.707 2.98923C112.471 2.7808 112.353 2.52221 112.353 2.21306C112.353 1.90362 112.472 1.64838 112.707 1.44652C112.942 1.24525 113.227 1.14408 113.563 1.14408C113.899 1.14408 114.182 1.24785 114.41 1.45687C114.639 1.66531 114.753 1.91736 114.753 2.21306C114.753 2.52221 114.639 2.7808 114.41 2.98923ZM112.535 14.452V4.37047H114.552V14.452H112.535ZM127.879 14.452H126.508L126.367 12.5162C126.017 13.2019 125.506 13.7195 124.834 14.0687C124.162 14.4185 123.429 14.5933 122.636 14.5933C121.238 14.5933 120.157 14.1595 119.39 13.2927C118.624 12.4255 118.241 11.239 118.241 9.73373V4.37047H120.257V9.6331C120.257 11.6494 121.151 12.6573 122.939 12.6573C123.839 12.6573 124.555 12.3648 125.086 11.7802C125.617 11.1956 125.883 10.352 125.883 9.24983V4.37047H127.879V14.452ZM144.252 4.22933C145.65 4.22933 146.732 4.66268 147.498 5.52991C148.264 6.3967 148.647 7.58286 148.647 9.08871V14.452H146.631V9.18934C146.631 7.17321 145.737 6.16512 143.949 6.16512C143.035 6.16512 142.316 6.45722 141.792 7.04175C141.267 7.62687 141.005 8.47005 141.005 9.57261V14.452H138.989V9.18934C138.989 7.17321 138.094 6.16512 136.307 6.16512C135.406 6.16512 134.694 6.45722 134.17 7.04175C133.646 7.62687 133.383 8.47005 133.383 9.57261V14.452H131.367V4.37047H132.738L132.88 6.3059C133.243 5.62066 133.757 5.1032 134.422 4.75356C135.088 4.40421 135.817 4.22933 136.61 4.22933C137.524 4.22933 138.307 4.43063 138.96 4.83421C139.611 5.23749 140.085 5.81542 140.381 6.5682C140.717 5.80212 141.231 5.22045 141.923 4.82404C142.615 4.42748 143.391 4.22933 144.252 4.22933ZM163.305 4.22933C164.744 4.22933 165.967 4.7368 166.975 5.75152C167.983 6.76623 168.487 7.98626 168.487 9.41113C168.487 10.836 167.983 12.0526 166.975 13.0606C165.967 14.0687 164.744 14.573 163.305 14.573C161.867 14.573 160.647 14.0687 159.646 13.0606C158.645 12.0526 158.144 10.836 158.144 9.41113C158.144 7.97296 158.648 6.74966 159.656 5.74153C160.664 4.7331 161.88 4.22933 163.305 4.22933ZM165.534 7.08243C164.909 6.47086 164.166 6.16512 163.305 6.16512C162.445 6.16512 161.705 6.47086 161.087 7.08243C160.469 7.69401 160.16 8.47009 160.16 9.41113C160.16 10.352 160.469 11.1253 161.087 11.7298C161.705 12.3347 162.445 12.637 163.305 12.637C164.166 12.637 164.909 12.3314 165.534 11.7198C166.159 11.1083 166.471 10.3389 166.471 9.41113C166.471 8.47009 166.159 7.69401 165.534 7.08243ZM178.75 0.337755H180.747C180.747 1.22486 180.467 1.88366 179.909 2.3137C179.352 2.74388 178.427 2.9589 177.137 2.9589H176.613C175.443 2.9589 174.529 3.21784 173.871 3.73543C173.212 4.25287 172.883 5.01567 172.883 6.0238V6.588C173.192 5.98359 173.663 5.49626 174.295 5.1263C174.926 4.75663 175.625 4.57191 176.391 4.57191C177.803 4.57191 178.959 5.03216 179.859 5.95332C180.76 6.87391 181.21 8.02675 181.21 9.41113C181.21 10.8899 180.73 12.1267 179.769 13.1211C178.808 14.1159 177.56 14.6131 176.028 14.6131C174.549 14.6131 173.319 14.1159 172.338 13.1211C171.357 12.1267 170.867 10.8359 170.867 9.24983V6.70916C170.867 4.94868 171.381 3.59736 172.409 2.65646C173.437 1.71542 174.885 1.24525 176.754 1.24525C177.533 1.24525 178.062 1.18087 178.337 1.05326C178.613 0.926093 178.75 0.686956 178.75 0.337755ZM176.049 6.42706C175.188 6.42706 174.445 6.72614 173.82 7.32456C173.195 7.9224 172.883 8.66534 172.883 9.55245C172.883 10.4532 173.189 11.1989 173.801 11.7901C174.412 12.3818 175.161 12.6777 176.049 12.6777C176.922 12.6777 177.665 12.3818 178.276 11.7901C178.888 11.1989 179.194 10.4532 179.194 9.55245C179.194 8.66534 178.882 7.9224 178.256 7.32456C177.632 6.72614 176.895 6.42706 176.049 6.42706ZM186.21 7.45535H189.114C189.907 7.45535 190.586 7.55905 191.151 7.76779C191.715 7.97622 192.142 8.26167 192.431 8.62461C192.72 8.98755 192.924 9.35705 193.045 9.73373C193.167 10.11 193.227 10.5132 193.227 10.9437C193.227 11.3739 193.167 11.7802 193.045 12.1634C192.924 12.5464 192.72 12.9198 192.431 13.2827C192.142 13.6452 191.715 13.9311 191.151 14.1395C190.586 14.348 189.907 14.452 189.114 14.452H184.194V4.37047H186.21V7.45535ZM196.352 14.452H194.336V4.37047H196.352V14.452ZM186.21 12.5767H189.336C190.586 12.5767 191.211 12.0322 191.211 10.9437C191.211 9.86815 190.586 9.33066 189.336 9.33066H186.21V12.5767ZM209.438 14.452H207.422V10.863C206.777 11.777 205.755 12.2339 204.357 12.2339C201.346 12.2339 199.841 10.5538 199.841 7.19306V4.37047H201.857V7.07208C201.857 8.17465 202.072 8.9877 202.502 9.5123C202.932 10.0363 203.652 10.2981 204.66 10.2981C206.502 10.2981 207.422 9.31031 207.422 7.33438V4.37047H209.438V14.452ZM222.363 14.452H220.347V10.3185H215.043V14.452H213.027V4.37047H215.043V8.38266H220.347V4.37047H222.363V14.452ZM227.968 7.45535H230.871C231.664 7.45535 232.344 7.55905 232.908 7.76779C233.473 7.97622 233.899 8.26167 234.189 8.62461C234.477 8.98755 234.682 9.35705 234.803 9.73373C234.925 10.11 234.985 10.5132 234.985 10.9437C234.985 11.3739 234.925 11.7802 234.803 12.1634C234.682 12.5464 234.477 12.9198 234.189 13.2827C233.899 13.6452 233.473 13.9311 232.908 14.1395C232.344 14.348 231.664 14.452 230.871 14.452H225.952V4.37047H227.968V7.45535ZM238.11 14.452H236.094V4.37047H238.11V14.452ZM227.968 12.5767H231.093C232.343 12.5767 232.969 12.0322 232.969 10.9437C232.969 9.86815 232.343 9.33066 231.093 9.33066H227.968V12.5767ZM248.464 2.53548C247.879 3.07325 247.163 3.34217 246.316 3.34217C245.469 3.34217 244.754 3.07325 244.169 2.53548C243.585 1.99758 243.292 1.31893 243.292 0.499056H244.703C244.703 0.902194 244.858 1.24183 245.167 1.51736C245.476 1.79289 245.859 1.93043 246.316 1.93043C246.773 1.93043 247.156 1.79304 247.466 1.51736C247.775 1.24183 247.93 0.902194 247.93 0.499056H249.341C249.341 1.31893 249.049 1.99758 248.464 2.53548ZM250.914 14.452H248.898V7.67696L242.97 14.452H241.699V4.37047H243.715V11.1451L249.644 4.37047H250.914V14.452Z" fill="black"/>
</svg>
