<svg width="250" height="25" viewBox="0 0 250 25" fill="none" xmlns="http://www.w3.org/2000/svg">
<path fill-rule="evenodd" clip-rule="evenodd" d="M0.152626 11.1529C0.101467 8.71773 0.947297 6.63206 2.69169 4.89644C4.43595 3.16022 6.50851 2.30955 8.90965 2.34434C10.3259 2.34434 11.6385 2.65061 12.8476 3.2638C14.0566 3.87698 15.0501 4.7278 15.8274 5.81589L14.8168 6.61918C13.3836 4.59838 11.4226 3.58783 8.93534 3.58783C6.88018 3.55275 5.13139 4.27858 3.68912 5.76397C2.24671 7.24935 1.54322 9.03729 1.57757 11.1272C1.54395 13.2346 2.24671 15.0306 3.68912 16.516C5.13139 18.0015 6.88018 18.7271 8.93534 18.6923C11.4226 18.6923 13.3836 17.6909 14.8168 15.687L15.8274 16.4901C15.0501 17.5785 14.0566 18.4292 12.8476 19.0424C11.6385 19.6553 10.3259 19.9617 8.90965 19.9617C6.50851 20.0129 4.43595 19.163 2.69169 17.41C0.947297 15.6568 0.100882 13.571 0.152626 11.1529ZM30.2321 13.7437H19.765C19.8337 15.1948 20.3569 16.391 21.3327 17.3325C22.3084 18.2734 23.5047 18.7441 24.9209 18.7441C26.5965 18.7441 27.9868 18.0877 29.0923 16.7751L29.9216 17.6303C28.5916 19.1844 26.9159 19.9617 24.8952 19.9617C23.1161 19.9968 21.5833 19.3659 20.2964 18.0707C19.0095 16.775 18.3833 15.2379 18.4182 13.4591C18.3831 11.68 18.9966 10.1382 20.2575 8.83422C21.5182 7.53024 23.0122 6.89566 24.7397 6.93001C26.3113 6.93001 27.6371 7.44833 28.7165 8.48468C29.7958 9.52088 30.336 10.8595 30.336 12.5003C30.336 13.0703 30.3008 13.4847 30.2321 13.7437ZM19.8168 12.5782H28.9884C29.0411 11.2482 28.6474 10.173 27.8097 9.35256C26.9723 8.53226 25.9314 8.12193 24.6879 8.12193C23.4272 8.12193 22.3473 8.54492 21.4494 9.3911C20.5336 10.2202 19.9895 11.2826 19.8168 12.5782ZM40.3884 7.18891V8.32926H39.7403C38.6005 8.32926 37.6074 8.69623 36.7612 9.43C35.9148 10.1642 35.4922 11.1359 35.4922 12.345V19.703H34.1961V7.18891H35.4401V9.31367C36.3553 7.84568 37.7376 7.11147 39.5854 7.11147C39.7068 7.11147 39.8613 7.12606 40.0515 7.15091C40.2412 7.17722 40.3536 7.18891 40.3884 7.18891ZM51.8922 11.8527V19.703H50.6481V17.7338C49.6985 19.2193 48.2042 19.9617 46.166 19.9617C44.9394 19.9617 43.9205 19.6684 43.1084 19.081C42.2793 18.4764 41.8651 17.6389 41.8651 16.5679C41.8651 15.549 42.2627 14.737 43.057 14.1325C43.8517 13.528 44.9055 13.2258 46.2181 13.2258H50.5703V11.801C50.5703 10.6264 50.2637 9.72388 49.6504 9.0933C49.0372 8.46302 48.1955 8.14762 47.1245 8.14762C45.6738 8.14762 44.4042 8.84718 43.3161 10.2463L42.4089 9.52082C43.6181 7.79382 45.216 6.93001 47.2023 6.93001C48.6359 6.93001 49.7758 7.35741 50.6225 8.21221C51.4685 9.06746 51.8922 10.2808 51.8922 11.8527ZM50.5703 15.0395V14.3395H46.3473C45.3283 14.3395 44.5509 14.5257 44.0155 14.8969C43.4802 15.2681 43.2126 15.7993 43.2126 16.4901C43.2126 17.233 43.5063 17.8072 44.0933 18.2133C44.6809 18.6189 45.4143 18.8219 46.2952 18.8219C47.4699 18.8219 48.4763 18.4594 49.3142 17.7338C50.1519 17.0084 50.5703 16.1101 50.5703 15.0395ZM63.8877 19.703V2.60342H69.691C71.2629 2.60342 72.5188 3.04388 73.4601 3.9247C74.4016 4.80567 74.8726 5.92815 74.8726 7.29294C74.8726 8.69179 74.4064 9.83156 73.4737 10.7124C72.541 11.5934 71.28 12.0338 69.691 12.0338H65.2345V19.703H63.8877ZM65.2345 10.8164H69.6389C70.8478 10.8164 71.7894 10.4966 72.4631 9.8577C73.1369 9.21879 73.4737 8.37223 73.4737 7.31863C73.4737 6.26489 73.1369 5.41874 72.4631 4.77939C71.7894 4.14048 70.8478 3.82121 69.6389 3.82121H65.2345V10.8164ZM84.485 7.18891V8.32926H83.837C82.6971 8.32926 81.7041 8.69623 80.8579 9.43C80.0114 10.1642 79.5882 11.1359 79.5882 12.345V19.703H78.2928V7.18891H79.5361V9.31367C80.4512 7.84568 81.8335 7.11147 83.6814 7.11147C83.8027 7.11147 83.958 7.12606 84.1481 7.15091C84.338 7.17722 84.4502 7.18891 84.485 7.18891ZM86.143 13.4331C86.1079 11.637 86.7345 10.0951 88.0215 8.80853C89.3084 7.52164 90.8408 6.89566 92.62 6.93001C94.4162 6.93001 95.9444 7.56473 97.2057 8.83422C98.4666 10.1037 99.0971 11.637 99.0971 13.4331C99.1321 15.2123 98.5009 16.7536 97.2057 18.0575C95.91 19.3619 94.3728 19.9965 92.5936 19.9617C90.8318 19.9968 89.3084 19.3619 88.0215 18.0575C86.7345 16.7536 86.1082 15.2123 86.143 13.4331ZM97.7503 13.4593C97.7503 11.9565 97.2531 10.6957 96.26 9.67642C95.2668 8.65761 94.0537 8.14798 92.62 8.14798C91.169 8.14798 89.9509 8.65761 88.9665 9.67642C87.982 10.6957 87.4898 11.9565 87.4898 13.4593C87.4898 14.9449 87.982 16.197 88.9665 17.2158C89.9509 18.2351 91.16 18.7443 92.5936 18.7443C94.0273 18.7443 95.2453 18.2306 96.2472 17.203C97.249 16.1754 97.7503 14.9273 97.7503 13.4593ZM110.212 19.7031V0.271693H111.507V19.7031H110.212ZM116.326 19.7031V7.18927H117.622V19.7031H116.326ZM116.158 3.17333C115.942 2.94925 115.834 2.68115 115.834 2.37039C115.834 2.05964 115.942 1.79212 116.158 1.56746C116.374 1.34294 116.646 1.23058 116.974 1.23058C117.285 1.23058 117.553 1.34323 117.777 1.56746C118.002 1.79212 118.114 2.05964 118.114 2.37039C118.114 2.68115 118.002 2.94925 117.777 3.17333C117.553 3.398 117.285 3.51021 116.974 3.51021C116.646 3.51021 116.374 3.3977 116.158 3.17333ZM132.96 7.18927H134.203V18.5888C134.203 20.4373 133.65 21.9053 132.545 22.9934C131.439 24.0814 129.998 24.6259 128.218 24.6259C125.869 24.6259 123.952 23.8138 122.466 22.1905L123.269 21.3096C124.669 22.7083 126.31 23.4081 128.193 23.4081C129.626 23.4081 130.77 22.9893 131.625 22.1516C132.48 21.3137 132.908 20.1435 132.908 18.6408V16.9824C132.424 17.7946 131.725 18.4424 130.809 18.9259C129.894 19.4094 128.901 19.6512 127.829 19.6512C126.085 19.6512 124.617 19.0341 123.425 17.7989C122.233 16.5641 121.638 15.0568 121.638 13.278C121.638 11.4989 122.233 9.99607 123.425 8.76999C124.617 7.54347 126.085 6.93019 127.829 6.93019C128.917 6.93019 129.928 7.17638 130.861 7.66854C131.793 8.16084 132.493 8.83038 132.96 9.67642V7.18927ZM132.908 13.278C132.908 11.6542 132.434 10.3977 131.484 9.50815C130.534 8.61856 129.376 8.17421 128.012 8.17421C126.578 8.17421 125.382 8.66626 124.424 9.65072C123.465 10.6352 122.985 11.853 122.985 13.3036C122.985 14.7546 123.465 15.9723 124.424 16.9569C125.382 17.9414 126.578 18.4336 128.012 18.4336C129.376 18.4336 130.534 17.9844 131.484 17.0866C132.434 16.1883 132.908 14.9188 132.908 13.278ZM148.842 11.8012V19.7031H147.547V11.9048C147.547 10.7646 147.231 9.85378 146.601 9.17146C145.97 8.48899 145.12 8.14798 144.049 8.14798C142.962 8.14798 142.067 8.50231 141.368 9.21035C140.669 9.9184 140.318 10.8167 140.318 11.9048V19.7031H139.023V0.271693H140.318V8.89917C141.216 7.58656 142.537 6.93019 144.282 6.93019C145.681 6.93019 146.791 7.37519 147.612 8.26449C148.432 9.15409 148.842 10.3327 148.842 11.8012ZM159.749 18.5632V19.7031C159.128 19.8759 158.48 19.962 157.806 19.962C156.597 19.962 155.656 19.6513 154.982 19.0294C154.309 18.4079 153.972 17.4664 153.972 16.2055V8.38119H151.795V7.18927H153.972V3.63993H155.293V7.18927H159.335V8.38119H155.293V16.1538C155.293 17.8982 156.2 18.7705 158.013 18.7705C158.48 18.7705 159.058 18.7017 159.749 18.5632ZM172.963 19.7031V8.38119H168.377V7.18927H178.818V8.38119H174.258V19.7031H172.963ZM180.839 13.4333C180.804 11.6371 181.43 10.0955 182.718 8.80889C184.004 7.522 185.537 6.89584 187.316 6.93019C189.112 6.93019 190.641 7.56509 191.902 8.83458C193.163 10.1041 193.793 11.6371 193.793 13.4333C193.827 15.2125 193.197 16.7538 191.902 18.0577C190.606 19.3621 189.069 19.9968 187.29 19.962C185.528 19.9971 184.004 19.3621 182.718 18.0577C181.43 16.7538 180.804 15.2125 180.839 13.4333ZM192.446 13.4597C192.446 11.9569 191.949 10.696 190.956 9.67677C189.963 8.65796 188.75 8.14834 187.316 8.14834C185.865 8.14834 184.647 8.65796 183.662 9.67677C182.678 10.696 182.186 11.9569 182.186 13.4597C182.186 14.9452 182.678 16.1972 183.662 17.216C184.647 18.2352 185.856 18.7446 187.29 18.7446C188.723 18.7446 189.941 18.2307 190.943 17.2032C191.945 16.1756 192.446 14.9277 192.446 13.4597ZM197.654 19.7035V7.18945H198.949V12.3456H205.918V7.18945H207.213V19.7035H205.918V13.5633H198.949V19.7035H197.654ZM212.033 19.7035V7.18945H213.328V19.7035H212.033ZM215.427 12.8896L221.697 19.7035H220.012L213.717 12.9153L219.391 7.18945H221.101L215.427 12.8896ZM234.029 6.93055H234.573V19.7035H233.252V9.59933L225.297 19.9624H224.754V7.18945H226.05V17.3457L234.029 6.93055ZM248.641 6.93055H249.185V19.7035H247.864V9.59933L239.91 19.9624H239.366V7.18945H240.662V17.3457L248.641 6.93055ZM240.739 0.945625V0.0909424H241.905V0.894059C241.905 1.79242 242.125 2.49588 242.566 3.00543C243.006 3.51512 243.624 3.76983 244.418 3.76983C245.213 3.76983 245.83 3.51512 246.27 3.00543C246.711 2.49588 246.931 1.79242 246.931 0.894059V0.0909424H248.097V0.945625C248.097 2.1204 247.765 3.06178 247.1 3.76983C246.435 4.47802 245.541 4.83184 244.418 4.83184C243.296 4.83184 242.402 4.47802 241.737 3.76983C241.072 3.06178 240.739 2.1204 240.739 0.945625Z" fill="black"/>
</svg>
