<svg width="252" height="18" viewBox="0 0 252 18" fill="none" xmlns="http://www.w3.org/2000/svg">
<path fill-rule="evenodd" clip-rule="evenodd" d="M12.6838 14.085H6.92691L6.10006 16.7952H0.913086L7.1032 0.351194H12.6649L18.8272 16.7952H13.5067L12.6838 14.085ZM11.6082 10.5255L9.81285 4.61515L8.00999 10.5255H11.6082ZM20.179 4.87548H24.4581V6.82002C24.8716 5.97428 25.2965 5.39256 25.7328 5.07479C26.1732 4.75701 26.7128 4.59981 27.3558 4.59981C28.0333 4.59981 28.7719 4.8103 29.5719 5.23127L28.1559 8.47371C27.6159 8.24788 27.1874 8.13666 26.8733 8.13666C26.2764 8.13666 25.8092 8.38582 25.4798 8.87929C25.0091 9.57623 24.7718 10.8814 24.7718 12.7914V16.7952H20.179V4.87548ZM30.4869 0.351194H35.0569V3.45178H30.4869V0.351194ZM30.4869 4.87548H35.0569V16.7952H30.4869V4.87548ZM42.1541 8.73387L37.7904 8.27476C37.9553 7.50912 38.1922 6.90822 38.5027 6.4719C38.8126 6.03149 39.2562 5.65262 39.8417 5.33119C40.2588 5.09747 40.8336 4.9177 41.5646 4.79126C42.2959 4.66556 43.0878 4.59981 43.9413 4.59981C45.3078 4.59981 46.4023 4.67728 47.233 4.82945C48.0596 4.98278 48.7527 5.30428 49.3042 5.7903C49.6945 6.12722 50.0007 6.60574 50.2228 7.22184C50.4486 7.83839 50.5596 8.42766 50.5596 8.99027V14.2574C50.5596 14.8201 50.5951 15.26 50.6667 15.5778C50.7354 15.8957 50.8922 16.3013 51.1292 16.7952H46.854C46.6819 16.489 46.5702 16.2594 46.5164 16.0988C46.4667 15.938 46.413 15.6889 46.3601 15.3483C45.7627 15.9226 45.1695 16.3318 44.5765 16.5768C43.7686 16.9061 42.8308 17.0709 41.763 17.0709C40.3427 17.0709 39.2635 16.7417 38.5284 16.0791C37.7897 15.4208 37.4221 14.6058 37.4221 13.6412C37.4221 12.7338 37.6866 11.9876 38.2187 11.4018C38.7506 10.8163 39.73 10.38 41.1578 10.0965C42.8687 9.75216 43.9787 9.51122 44.488 9.36944C44.9971 9.23204 45.537 9.05159 46.1039 8.82576C46.1039 8.26315 45.9878 7.8727 45.7548 7.64687C45.5252 7.42118 45.1197 7.31017 44.538 7.31017C43.7916 7.31017 43.2329 7.42852 42.8578 7.66971C42.567 7.86119 42.3333 8.21335 42.1534 8.73387H42.1541ZM46.1046 11.1223C45.4768 11.3482 44.8222 11.5472 44.1368 11.7233C43.2108 11.9722 42.6209 12.2172 42.3761 12.4582C42.1196 12.7073 41.9928 12.9903 41.9928 13.3081C41.9928 13.6719 42.1189 13.9702 42.3682 14.2001C42.621 14.4297 42.9885 14.5445 43.4745 14.5445C43.9838 14.5445 44.458 14.4173 44.8984 14.1694C45.3347 13.9205 45.6448 13.6181 45.8284 13.2583C46.0124 12.8988 46.1046 12.4313 46.1046 11.8575V11.1223ZM53.4531 0.351194H58.0237V16.7952H53.4531V0.351194ZM68.9216 0.351194H78.4412C80.026 0.351194 81.2428 0.745296 82.0926 1.53009C82.9423 2.31473 83.3673 3.28718 83.3673 4.44689C83.3673 5.41907 83.0654 6.25365 82.4566 6.94635C82.0548 7.41336 81.4613 7.77714 80.6844 8.04887C81.867 8.33186 82.732 8.81826 83.2909 9.51111C83.8458 10.2038 84.1253 11.0727 84.1253 12.1176C84.1253 12.9713 83.9263 13.737 83.5322 14.4181C83.134 15.0993 82.5906 15.6353 81.9056 16.0336C81.4768 16.2785 80.8335 16.4584 79.9721 16.5695C78.8278 16.7186 78.0696 16.7952 77.6946 16.7952H68.9216V0.351194ZM74.0425 6.80467H76.2594C77.0519 6.80467 77.6067 6.6672 77.9166 6.39517C78.2269 6.11964 78.3834 5.72518 78.3834 5.20861C78.3834 4.73005 78.2269 4.35489 77.9166 4.08682C77.6067 3.81509 77.0631 3.68125 76.2936 3.68125H74.0425V6.80467ZM74.0425 13.2583H76.6348C77.5111 13.2583 78.1272 13.1014 78.4869 12.7914C78.8465 12.4815 79.0272 12.068 79.0272 11.5434C79.0272 11.0574 78.851 10.667 78.4947 10.372C78.1388 10.0774 77.5144 9.92828 76.6226 9.92828H74.0425V13.2583ZM86.6255 0.351194H91.1954V16.7952H86.6255V0.351194ZM98.292 8.73387L93.9283 8.27476C94.0931 7.50912 94.3302 6.90822 94.6406 6.4719C94.9504 6.03149 95.3948 5.65262 95.9802 5.33119C96.3975 5.09747 96.9716 4.9177 97.7024 4.79126C98.4337 4.66556 99.2264 4.59981 100.08 4.59981C101.446 4.59981 102.541 4.67728 103.372 4.82945C104.198 4.98278 104.891 5.30428 105.443 5.7903C105.833 6.12722 106.139 6.60574 106.361 7.22184C106.587 7.83839 106.698 8.42766 106.698 8.99027V14.2574C106.698 14.8201 106.733 15.26 106.805 15.5778C106.873 15.8957 107.031 16.3013 107.268 16.7952H102.992C102.82 16.489 102.709 16.2594 102.655 16.0988C102.605 15.938 102.553 15.6889 102.499 15.3483C101.901 15.9226 101.307 16.3318 100.714 16.5768C99.9063 16.9061 98.9692 17.0709 97.9016 17.0709C96.4811 17.0709 95.4014 16.7417 94.6663 16.0791C93.9275 15.4208 93.56 14.6058 93.56 13.6412C93.56 12.7338 93.8244 11.9876 94.3565 11.4018C94.8886 10.8163 95.8685 10.38 97.2963 10.0965C99.0071 9.75216 100.117 9.51122 100.627 9.36944C101.136 9.23204 101.675 9.05159 102.242 8.82576C102.242 8.26315 102.126 7.8727 101.893 7.64687C101.664 7.42118 101.258 7.31017 100.676 7.31017C99.9296 7.31017 99.3706 7.42852 98.9957 7.66971C98.7048 7.86119 98.471 8.21335 98.2913 8.73387H98.292ZM102.242 11.1223C101.615 11.3482 100.96 11.5472 100.275 11.7233C99.3486 11.9722 98.7588 12.2172 98.5139 12.4582C98.2574 12.7073 98.1314 12.9903 98.1314 13.3081C98.1314 13.6719 98.2569 13.9702 98.5061 14.2001C98.7588 14.4297 99.1263 14.5445 99.6124 14.5445C100.122 14.5445 100.597 14.4173 101.037 14.1694C101.473 13.9205 101.783 13.6181 101.966 13.2583C102.15 12.8988 102.242 12.4313 102.242 11.8575V11.1223ZM118.319 12.133L122.659 12.6154C122.418 13.5224 122.028 14.3072 121.48 14.9734C120.937 15.6354 120.237 16.1521 119.387 16.5197C118.541 16.8872 117.461 17.0709 116.152 17.0709C114.885 17.0709 113.833 16.9523 112.99 16.7185C112.152 16.4811 111.429 16.0987 110.82 15.5703C110.215 15.0458 109.741 14.426 109.397 13.7137C109.052 13.0018 108.879 12.0601 108.879 10.885C108.879 9.66026 109.09 8.63802 109.507 7.82298C109.814 7.22178 110.234 6.68612 110.766 6.21121C111.298 5.73689 111.842 5.3809 112.405 5.15098C113.297 4.7838 114.438 4.59981 115.827 4.59981C117.776 4.59981 119.257 4.94828 120.279 5.64113C121.301 6.33763 122.017 7.3519 122.43 8.68819L118.135 9.26202C118 8.7532 117.756 8.37043 117.4 8.11025C117.044 7.85372 116.566 7.72359 115.964 7.72359C115.21 7.72359 114.598 7.99511 114.127 8.53492C113.66 9.07852 113.427 9.89763 113.427 10.9998C113.427 11.9797 113.661 12.7226 114.124 13.2314C114.587 13.7406 115.176 13.9935 115.896 13.9935C116.493 13.9935 116.998 13.8402 117.404 13.5378C117.813 13.2315 118.116 12.7644 118.319 12.133ZM124.356 0.351194H129.018V8.81826L132.428 4.87548H138.043L133.772 9.04773L138.296 16.7952H133.155L130.736 12.0182L129.018 13.6983V16.7952H124.356V0.351194ZM157.37 8.20589H154.062V16.7952H149.492V8.20589H146.185V4.87548H157.37V8.20589ZM158.445 10.8697C158.445 9.04781 159.058 7.54757 160.283 6.36841C161.508 5.18955 163.161 4.59981 165.243 4.59981C167.628 4.59981 169.427 5.29271 170.644 6.6787C171.62 7.79617 172.111 9.17045 172.111 10.801C172.111 12.6382 171.506 14.139 170.292 15.314C169.079 16.4853 167.399 17.0709 165.255 17.0709C163.345 17.0709 161.799 16.5847 160.62 15.6084C159.169 14.4027 158.445 12.8221 158.445 10.8697ZM163.016 10.8697C163.016 11.9375 163.23 12.726 163.659 13.2351C164.088 13.7444 164.624 14.001 165.274 14.001C165.929 14.001 166.464 13.7481 166.886 13.2467C167.307 12.7454 167.517 11.9374 167.517 10.8274C167.517 9.79031 167.307 9.0208 166.881 8.51154C166.457 8.00652 165.932 7.75392 165.305 7.75392C164.643 7.75392 164.095 8.01026 163.663 8.52332C163.23 9.04003 163.016 9.82105 163.016 10.8697ZM188.003 16.8027H183.433V8.21338H179.965V13.2123C179.965 14.5481 179.693 15.5355 179.154 16.1823C178.61 16.8254 177.78 17.1469 176.658 17.1469C175.387 17.1469 174.247 17.0315 173.236 16.7989V13.4266C173.776 13.5948 174.189 13.6792 174.473 13.6792C175.089 13.6792 175.395 13.2197 175.395 12.305V4.88298H188.003V16.8027ZM199.644 12.1405L203.984 12.6228C203.743 13.5297 203.353 14.3147 202.805 14.9809C202.262 15.6429 201.561 16.1596 200.711 16.5272C199.866 16.8947 198.786 17.0782 197.477 17.0782C196.21 17.0782 195.158 16.9598 194.315 16.726C193.477 16.4886 192.754 16.1062 192.145 15.5778C191.541 15.0533 191.066 14.4335 190.721 13.7212C190.377 13.0093 190.204 12.0676 190.204 10.8925C190.204 9.66776 190.415 8.64552 190.833 7.83047C191.139 7.22927 191.559 6.69361 192.092 6.21871C192.623 5.74438 193.167 5.3884 193.73 5.15847C194.622 4.79129 195.762 4.6073 197.152 4.6073C199.1 4.6073 200.581 4.95577 201.603 5.64862C202.625 6.34512 203.342 7.35939 203.755 8.69568L199.46 9.26952C199.326 8.7607 199.081 8.37793 198.725 8.11774C198.369 7.86122 197.891 7.73109 197.29 7.73109C196.535 7.73109 195.923 8.0026 195.452 8.54241C194.986 9.08602 194.752 9.90513 194.752 11.0073C194.752 11.9872 194.986 12.7301 195.449 13.2389C195.912 13.7481 196.501 14.001 197.221 14.001C197.818 14.001 198.324 13.8475 198.729 13.5451C199.138 13.2388 199.441 12.7719 199.644 12.1405ZM216.11 8.21338H212.803V16.8027H208.233V8.21338H204.926V4.88298H216.11V8.21338ZM222.468 9.13194H224.554C228.08 9.13194 229.841 10.4182 229.841 12.9903C229.841 15.5319 228.126 16.8027 224.692 16.8027H217.898V4.88298H222.468V9.13194ZM222.468 14.001H223.958C224.333 14.001 224.635 13.9132 224.873 13.7403C225.106 13.5682 225.225 13.3194 225.225 12.9903C225.225 12.2706 224.804 11.911 223.958 11.911H222.468V14.001ZM231.127 4.88298H235.697V16.8027H231.127V4.88298ZM251.915 16.8027H247.598V10.9386L243.127 16.8027H238.779V4.88298H243.096V10.8274L247.628 4.88298H251.915V16.8027ZM249.022 0.0831909C248.998 1.16631 248.62 2.00071 247.889 2.58247C247.158 3.16832 246.285 3.45928 245.278 3.45928C244.096 3.45928 243.173 3.16043 242.507 2.56712C241.841 1.97367 241.462 1.14351 241.373 0.0831909H243.303C243.528 0.879089 244.156 1.27725 245.186 1.27725C245.757 1.27725 246.205 1.19683 246.53 1.03619C246.855 0.879056 247.073 0.55766 247.184 0.0831909H249.022Z" fill="black"/>
</svg>
