<svg width="303" height="20" viewBox="0 0 303 20" fill="none" xmlns="http://www.w3.org/2000/svg">
<path fill-rule="evenodd" clip-rule="evenodd" d="M0 15.0167L5.0867 2.1088H9.69913L14.7316 15.0167H10.0092L9.33478 13.1207H5.23266L4.59423 15.0167H0ZM8.3684 9.8022L7.32922 6.61186L6.27184 9.8022H8.3684ZM17.8306 15.0167L14.1845 5.42672H18.8516L20.2194 10.6048H20.2926L21.6051 5.42672H26.1083L22.4073 15.0167H17.8306ZM30.4107 8.94537H33.3098C33.3098 8.60509 33.1825 8.32557 32.9269 8.10675C32.6715 7.88808 32.3372 7.77862 31.9241 7.77862C31.4986 7.77862 31.1495 7.89696 30.876 8.13405C30.6025 8.37114 30.447 8.64163 30.4107 8.94537ZM36.9376 10.3127C36.9376 10.6167 36.9232 10.9148 36.9012 11.2064H30.4471C30.4836 11.5346 30.6663 11.799 30.9945 11.9996C31.3226 12.2001 31.6872 12.3002 32.0883 12.3002C32.7811 12.3002 33.3036 12.0752 33.6563 11.6258L36.6461 13.1389C36.2206 13.8317 35.6008 14.3786 34.7865 14.7797C33.9723 15.1808 33.0361 15.3814 31.9787 15.3814C31.0182 15.3814 30.1341 15.1928 29.3258 14.8163C28.5178 14.4396 27.8525 13.8499 27.3295 13.0477C26.8071 12.2455 26.5455 11.3035 26.5455 10.2215C26.5455 8.6781 27.0561 7.43202 28.0771 6.4841C29.0981 5.53604 30.3684 5.06201 31.8877 5.06201C33.3827 5.06201 34.5978 5.55738 35.5337 6.54798C36.4698 7.53872 36.9376 8.79368 36.9376 10.3127ZM38.4143 15.0167V5.42672H42.5168V6.4841H42.5532C42.8084 6.10742 43.1823 5.79427 43.6745 5.5452C44.1668 5.29627 44.7043 5.17157 45.2878 5.17157C45.932 5.17157 46.4883 5.2871 46.9562 5.5179C47.4239 5.7487 47.7792 6.06777 48.0225 6.475C48.2657 6.88238 48.442 7.30736 48.5513 7.75114C48.661 8.19491 48.7155 8.6719 48.7155 9.18233V15.0167H44.4856V9.91158C44.4856 9.03645 44.1817 8.59904 43.5742 8.59904C43.2946 8.59904 43.0666 8.71442 42.8904 8.94537C42.714 9.17647 42.6264 9.4985 42.6264 9.91158V15.0167H38.4143ZM50.5751 15.0167V5.42672H54.7868V15.0167H50.5751ZM50.5019 2.65569C50.5019 2.07218 50.7206 1.56757 51.1582 1.14207C51.5957 0.716856 52.1124 0.503998 52.7077 0.503998C53.2791 0.503998 53.7804 0.716856 54.2122 1.14207C54.6436 1.56757 54.8596 2.07218 54.8596 2.65569C54.8596 3.25104 54.6464 3.75527 54.2211 4.16878C53.7956 4.58186 53.2912 4.78865 52.7077 4.78865C52.1004 4.78865 51.5807 4.58186 51.1489 4.16878C50.7177 3.75527 50.5019 3.25104 50.5019 2.65569ZM56.737 15.0167V5.42672H60.7849V6.5205H60.8213C61.0401 6.11941 61.3563 5.79427 61.7698 5.5452C62.1829 5.29627 62.6502 5.17157 63.173 5.17157C63.5012 5.17157 63.7684 5.20228 63.9752 5.26221L63.6476 8.83546C63.3924 8.76237 63.0942 8.7259 62.7541 8.7259C62.2192 8.7259 61.7848 8.88409 61.4508 9.19982C61.1165 9.51598 60.9491 9.90497 60.9491 10.3666V15.0159L56.737 15.0167ZM69.6451 15.0167V2.1088H73.9666L77.6487 8.65364H77.7223L77.5395 2.1088H81.6599V15.0167H77.2298L73.6569 8.8542H73.5834L73.7661 15.0167H69.6451ZM87.3118 8.94537H90.211C90.211 8.60509 90.0842 8.32557 89.8284 8.10675C89.5732 7.88808 89.2387 7.77862 88.8256 7.77862C88.4 7.77862 88.0507 7.89696 87.7772 8.13405C87.5037 8.37114 87.3482 8.64163 87.3118 8.94537ZM93.8388 10.3127C93.8388 10.6167 93.8243 10.9148 93.8024 11.2064H87.3482C87.3848 11.5346 87.5675 11.799 87.8957 11.9996C88.2238 12.2001 88.5887 12.3002 88.9898 12.3002C89.6826 12.3002 90.2046 12.0752 90.5571 11.6258L93.5476 13.1389C93.1221 13.8317 92.5018 14.3786 91.6877 14.7797C90.8735 15.1808 89.9373 15.3814 88.8799 15.3814C87.9194 15.3814 87.0353 15.1928 86.227 14.8163C85.4189 14.4396 84.7537 13.8499 84.2307 13.0477C83.7083 12.2455 83.447 11.3035 83.447 10.2215C83.447 8.6781 83.9577 7.43202 84.9787 6.4841C85.9995 5.53604 87.2698 5.06201 88.7892 5.06201C90.2843 5.06201 91.499 5.55738 92.4349 6.54798C93.3709 7.53872 93.8388 8.79368 93.8388 10.3127ZM101.442 15.0167L99.9647 12.8471L98.3974 15.0167H93.6568L97.3575 10.0939L93.9123 5.42672H98.6886L100.075 7.4321L101.442 5.42672H106.073L102.627 10.0939L106.255 15.0167H101.442ZM111.25 15.272C109.974 15.272 109.023 14.9921 108.397 14.4332C107.771 13.8742 107.458 13.0172 107.458 11.8627V8.43488H106.109V5.42672H107.44V3.27538H111.524V5.42672H113.603V8.43488H111.524V10.9877C111.524 11.4252 111.618 11.7318 111.807 11.9082C111.995 12.0843 112.277 12.1726 112.654 12.1726C112.946 12.1726 113.201 12.1362 113.42 12.0631V14.9437C112.897 15.1623 112.174 15.2718 111.25 15.2718V15.272ZM118.963 8.56246C118.963 6.53259 119.634 4.88894 120.977 3.631C122.32 2.37305 123.988 1.74409 125.981 1.74409C126.966 1.74409 127.905 1.90483 128.798 2.22728C129.692 2.54915 130.436 2.98389 131.032 3.53072L128.369 6.73944C127.896 6.09512 127.185 5.77306 126.237 5.77306C125.495 5.77306 124.876 6.02845 124.378 6.53888C123.879 7.04931 123.63 7.72388 123.63 8.56246C123.63 9.37707 123.881 10.0391 124.386 10.55C124.89 11.0604 125.508 11.3158 126.237 11.3158C127.173 11.3158 127.883 10.9694 128.369 10.2761L131.032 13.467C129.755 14.7432 128.072 15.3814 125.981 15.3814C124 15.3814 122.335 14.7462 120.986 13.4761C119.637 12.2057 118.963 10.5684 118.963 8.56246ZM134.368 14.8527L134.441 14.6521L130.558 5.42672H135.225L136.647 10.4772H136.72L137.978 5.42672H142.481L138.544 15.6001C138.045 16.8762 137.416 17.8276 136.656 18.4532C135.897 19.0793 134.848 19.3921 133.511 19.3921C132.672 19.3921 131.877 19.2955 131.123 19.1004L131.652 15.6365C132.065 15.7827 132.46 15.8553 132.837 15.8553C133.602 15.8553 134.113 15.521 134.368 14.8527H134.368ZM143.301 15.0167V5.42672H147.349V6.5205H147.386C147.605 6.11941 147.92 5.79427 148.334 5.5452C148.747 5.29627 149.215 5.17157 149.738 5.17157C150.066 5.17157 150.333 5.20228 150.54 5.26221L150.211 8.83546C149.956 8.76237 149.658 8.7259 149.318 8.7259C148.783 8.7259 148.348 8.88409 148.015 9.19982C147.68 9.51598 147.513 9.90497 147.513 10.3666V15.0159L143.301 15.0167ZM164.086 15.0167V10.1121H160.549V15.0167H156.21V2.1088H160.53V6.4841H164.067V2.1088H168.424V15.0167H164.086ZM174.077 8.94537H176.976C176.976 8.60509 176.848 8.32557 176.593 8.10675C176.337 7.88808 176.003 7.77862 175.59 7.77862C175.165 7.77862 174.815 7.89696 174.542 8.13405C174.268 8.37114 174.113 8.64163 174.077 8.94537ZM180.604 10.3127C180.604 10.6167 180.589 10.9148 180.568 11.2064H174.113C174.15 11.5346 174.333 11.799 174.661 11.9996C174.989 12.2001 175.353 12.3002 175.754 12.3002C176.447 12.3002 176.97 12.0752 177.322 11.6258L180.312 13.1389C179.887 13.8317 179.266 14.3786 178.452 14.7797C177.638 15.1808 176.702 15.3814 175.645 15.3814C174.685 15.3814 173.8 15.1928 172.992 14.8163C172.184 14.4396 171.519 13.8499 170.996 13.0477C170.473 12.2455 170.211 11.3035 170.211 10.2215C170.211 8.6781 170.722 7.43202 171.743 6.4841C172.764 5.53604 174.034 5.06201 175.554 5.06201C177.049 5.06201 178.264 5.55738 179.2 6.54798C180.136 7.53872 180.604 8.79368 180.604 10.3127ZM187.331 11.0423H187.095C185.721 11.0423 185.034 11.3581 185.034 11.9903C185.034 12.2331 185.138 12.4187 185.344 12.5463C185.551 12.6735 185.769 12.7377 186 12.7377C186.401 12.7377 186.724 12.6107 186.967 12.355C187.21 12.0998 187.331 11.7717 187.331 11.3706V11.0423ZM187.058 8.96357V8.927C187.058 8.35605 186.693 8.07017 185.964 8.07017C185.271 8.07017 184.596 8.34359 183.94 8.89042L181.844 6.81223C182.415 6.26527 183.105 5.83688 183.913 5.527C184.721 5.21697 185.551 5.06201 186.402 5.06201C187.277 5.06201 188.024 5.18613 188.644 5.43564C189.264 5.68472 189.741 6.04366 190.075 6.5114C190.409 6.97915 190.649 7.49284 190.795 8.05179C190.941 8.61119 191.014 9.24936 191.014 9.96618V15.0167H187.204V14.2508H187.167C186.949 14.591 186.617 14.8464 186.174 15.0167C185.73 15.1869 185.277 15.2718 184.815 15.2718C183.94 15.2718 183.165 15.0194 182.49 14.5153C181.816 14.011 181.479 13.2356 181.479 12.1907C181.479 11.5585 181.643 11.0177 181.971 10.5682C182.299 10.1181 182.752 9.78388 183.329 9.56506C183.907 9.34625 184.496 9.19132 185.098 9.10025C185.699 9.00963 186.352 8.96286 187.057 8.96286L187.058 8.96357ZM195.28 15.0167L191.634 5.42672H196.301L197.669 10.6048H197.742L199.054 5.42672H203.557L199.857 15.0167H195.28ZM207.076 14.8527L207.149 14.6521L203.266 5.42672H207.933L209.356 10.4772H209.428L210.687 5.42672H215.19L211.252 15.6001C210.753 16.8762 210.124 17.8276 209.365 18.4532C208.605 19.0793 207.557 19.3921 206.219 19.3921C205.381 19.3921 204.585 19.2955 203.831 19.1004L204.36 15.6365C204.773 15.7827 205.168 15.8553 205.545 15.8553C206.311 15.8553 206.821 15.521 207.076 14.8527ZM222.409 15.0167V8.54426H219.874V5.42672H229.173V8.54426H226.638V15.0167H222.409ZM239.182 13.9775C238.112 14.9135 236.818 15.3814 235.299 15.3814C233.779 15.3814 232.491 14.9135 231.433 13.9775C230.376 13.0415 229.847 11.7773 229.847 10.1851C229.847 8.60515 230.376 7.35641 231.433 6.4386C232.491 5.5208 233.779 5.06201 235.299 5.06201C236.818 5.06201 238.112 5.5208 239.182 6.4386C240.252 7.35641 240.786 8.60515 240.786 10.1851C240.786 11.7773 240.252 13.0415 239.182 13.9775ZM234.196 11.334C234.493 11.6498 234.867 11.8079 235.317 11.8079C235.767 11.8079 236.141 11.6498 236.438 11.334C236.736 11.0179 236.885 10.635 236.885 10.1851C236.885 9.7599 236.733 9.38897 236.429 9.07295C236.125 8.75722 235.748 8.59904 235.299 8.59904C234.849 8.59904 234.478 8.75722 234.187 9.07295C233.895 9.38897 233.749 9.7599 233.749 10.1851C233.749 10.635 233.898 11.0179 234.196 11.334ZM243.576 15.1444C242.543 15.1444 241.819 15.0889 241.406 14.9803L241.607 11.8809C241.753 11.9292 241.941 11.9541 242.172 11.9541C242.366 11.9541 242.527 11.9263 242.655 11.8722C242.782 11.8181 242.913 11.702 243.047 11.5258C243.181 11.3493 243.281 11.0666 243.348 10.6779C243.415 10.2888 243.449 9.79668 243.449 9.20089V5.42708H253.166V15.017H248.936V8.54462H247.46V9.80255C247.46 10.8968 247.372 11.8049 247.196 12.5284C247.019 13.2514 246.749 13.7985 246.384 14.1693C246.019 14.5401 245.618 14.7953 245.181 14.9349C244.743 15.0753 244.209 15.1446 243.576 15.1446L243.576 15.1444ZM260.312 15.3814C258.671 15.3814 257.329 14.9102 256.284 13.9684C255.238 13.0262 254.715 11.7773 254.715 10.2215C254.715 8.69008 255.251 7.4474 256.32 6.4932C257.39 5.539 258.739 5.06201 260.367 5.06201C261.011 5.06201 261.658 5.16288 262.309 5.36284C262.959 5.56339 263.473 5.80961 263.85 6.10137L261.753 9.12773C261.461 8.77546 261.042 8.59904 260.495 8.59904C260.058 8.59904 259.675 8.74227 259.347 9.02745C259.019 9.31336 258.854 9.71108 258.854 10.2215C258.854 10.7324 259.019 11.1244 259.347 11.3979C259.675 11.6714 260.058 11.8079 260.495 11.8079C261.03 11.8079 261.455 11.6378 261.771 11.2976L263.886 14.251C263.473 14.5792 262.944 14.8496 262.299 15.0622C261.655 15.2748 260.993 15.3814 260.312 15.3814ZM266.857 15.0167V8.54426H264.324V5.42672H273.622V8.54426H271.088V15.0167H266.857ZM274.862 15.0167V5.42672H279.091V8.27091H280.714C281.468 8.27091 282.133 8.36582 282.711 8.55336C283.288 8.74192 283.78 9.09447 284.187 9.61074C284.595 10.1275 284.797 10.7928 284.797 11.6074C284.797 12.7497 284.399 13.6037 283.603 14.1689C282.807 14.734 281.845 15.0167 280.714 15.0167H274.862ZM279.001 12.4096H279.93C280.234 12.4096 280.492 12.3366 280.705 12.1908C280.917 12.0447 281.024 11.82 281.024 11.5164C281.024 10.9814 280.659 10.7142 279.93 10.7142H279.001V12.4096ZM285.782 15.0167V5.42672H290.012V15.0167H285.782ZM291.945 15.0167V5.42672H295.919V10.5684H295.974L298.344 5.42672H302.774V15.0167H298.818V10.1667H298.764L296.466 15.0167H291.945ZM300.586 1.92645C300.283 3.55479 299.207 4.36934 297.36 4.36934C295.512 4.36934 294.436 3.55479 294.132 1.92645L296.011 1.56173C296.071 2.19363 296.521 2.50974 297.36 2.50974C298.198 2.50974 298.648 2.19363 298.709 1.56173L300.586 1.92645Z" fill="black"/>
</svg>
