<svg width="250" height="17" viewBox="0 0 250 17" fill="none" xmlns="http://www.w3.org/2000/svg">
<path fill-rule="evenodd" clip-rule="evenodd" d="M10.965 5.13097C11.1009 5.98008 11.1687 7.14686 11.1687 8.63107C11.1687 10.1151 11.1012 11.2814 10.965 12.1308C10.829 12.9798 10.5118 13.7112 10.0125 14.3248C8.97089 15.6093 7.52928 16.2515 5.68841 16.2515H0.336914V1.00994H5.68841C7.52928 1.00994 8.97089 1.65223 10.0125 2.93663C10.5118 3.55026 10.8295 4.28158 10.965 5.13097ZM8.70638 11.5741C8.80578 10.9108 8.85627 9.9295 8.85627 8.63107C8.85627 7.33205 8.80666 6.35079 8.70638 5.68732C8.60699 5.02356 8.38516 4.49929 8.04298 4.11428C7.44339 3.41485 6.57306 3.0651 5.43147 3.0651H2.6483V14.1963H5.43147C6.57306 14.1963 7.44339 13.8465 8.04298 13.1475C8.38516 12.7622 8.60655 12.2379 8.70638 11.5741ZM16.9049 16.2515H14.5935V1.00994H16.9049V16.2515ZM32.3609 16.2515H30.2415L23.1985 5.52673V16.2515H20.8868V1.00994H23.0058L30.0488 11.7133V1.00994H32.3609V16.2515ZM50.8017 2.31605C51.6938 3.1865 52.14 4.29245 52.14 5.63415C52.14 6.97526 51.6938 8.07761 50.8017 8.94118C49.9101 9.80461 48.7296 10.2359 47.2595 10.2359H43.7916V16.2515H41.4798V1.00994H47.2595C48.7296 1.00994 49.9101 1.44546 50.8017 2.31605ZM49.1002 7.5066C49.5854 7.05713 49.8282 6.43297 49.8282 5.63415C49.8282 4.83489 49.5854 4.21025 49.1002 3.76063C48.6151 3.31115 47.959 3.08652 47.1311 3.08652H43.7916V8.18143H47.1311C47.959 8.18143 48.6151 7.95622 49.1002 7.5066ZM62.3084 6.2972L60.6597 7.94554C60.1745 7.4604 59.6323 7.2179 59.0331 7.2179C58.4195 7.2179 57.9061 7.44254 57.4922 7.89201C57.0782 8.34163 56.8712 8.93048 56.8712 9.65812V16.2515H54.6873V5.39826H56.8284V6.57591C57.1139 6.1906 57.5167 5.8765 58.0375 5.63415C58.5584 5.39136 59.1187 5.26979 59.7183 5.26979C60.7599 5.26979 61.6234 5.61224 62.3084 6.2972ZM71.9843 10.814C71.9843 11.8131 71.8923 12.648 71.706 13.3188C71.5203 13.9896 71.1849 14.5818 70.6996 15.0956C69.8719 15.952 68.7873 16.38 67.4458 16.38C66.1185 16.38 65.0413 15.952 64.214 15.0956C63.7287 14.5818 63.3926 13.9896 63.207 13.3188C63.0218 12.648 62.9293 11.8131 62.9293 10.814C62.9293 9.82953 63.0225 8.99848 63.207 8.32024C63.3926 7.64231 63.7287 7.05389 64.214 6.55414C65.0413 5.69816 66.1185 5.26979 67.4458 5.26979C68.7873 5.26979 69.8719 5.69816 70.6996 6.55414C71.1849 7.05389 71.5203 7.64231 71.706 8.32024C71.8916 8.99848 71.9843 9.82953 71.9843 10.814ZM69.0516 13.7899C69.5509 13.2901 69.801 12.2982 69.801 10.814C69.801 9.32992 69.5509 8.33845 69.0516 7.83884C68.6377 7.42488 68.1021 7.2179 67.4458 7.2179C66.8035 7.2179 66.276 7.42488 65.862 7.83884C65.3623 8.33845 65.1126 9.32992 65.1126 10.814C65.1126 12.2982 65.3623 13.2901 65.862 13.7899C66.29 14.2178 66.8175 14.4322 67.4458 14.4322C68.0879 14.4322 68.6232 14.2178 69.0516 13.7899ZM93.7764 16.2515H91.464V6.06203L87.9531 13.4901H86.2409L82.6445 6.06203V16.2515H80.3327V1.00994H82.6445L87.0974 10.4932L91.464 1.00994H93.7764V16.2515ZM106.127 11.4563H99.0851C99.0851 12.4126 99.3235 13.1583 99.8017 13.6931C100.28 14.2286 100.962 14.4964 101.846 14.4964C102.432 14.4964 102.916 14.4102 103.302 14.2395C103.687 14.068 104.08 13.7825 104.479 13.383L105.87 14.6891C105.285 15.2743 104.69 15.7021 104.083 15.9731C103.477 16.2444 102.717 16.38 101.804 16.38C100.32 16.38 99.1347 15.9374 98.25 15.0528C97.3651 14.1677 96.9232 12.7553 96.9232 10.814C96.9232 9.07296 97.3365 7.71402 98.1644 6.73614C98.9921 5.7587 100.112 5.26979 101.525 5.26979C102.967 5.26979 104.094 5.74798 104.908 6.70438C105.721 7.66062 106.127 8.93748 106.127 10.536V11.4563ZM103.966 9.93647C103.923 9.2942 103.822 8.80204 103.666 8.45942C103.252 7.54629 102.539 7.08943 101.525 7.08943C100.498 7.08943 99.7774 7.54629 99.3634 8.45942C99.1924 8.83069 99.0993 9.3227 99.0851 9.93647H103.966ZM117.387 16.2515H115.247V15.0956C114.533 15.952 113.577 16.38 112.378 16.38C111.251 16.38 110.366 16.0589 109.724 15.4168C108.91 14.5889 108.504 13.0548 108.504 10.814C108.504 8.58782 108.91 7.06108 109.724 6.23332C110.366 5.59105 111.244 5.26979 112.357 5.26979C113.57 5.26979 114.519 5.67661 115.205 6.4899V1.00994H117.387V16.2515ZM115.129 12.2058C115.179 11.8204 115.204 11.3564 115.204 10.814C115.204 10.2721 115.179 9.80789 115.129 9.42259C115.079 9.03714 114.979 8.66655 114.83 8.3099C114.68 7.95309 114.448 7.68174 114.134 7.49625C113.82 7.31091 113.427 7.2179 112.956 7.2179C112.471 7.2179 112.072 7.31164 111.758 7.49625C111.444 7.68174 111.212 7.95309 111.062 8.3099C110.912 8.66655 110.812 9.03714 110.762 9.42259C110.713 9.80789 110.687 10.2721 110.687 10.814C110.687 11.3564 110.713 11.8204 110.762 12.2058C110.812 12.5906 110.912 12.9657 111.062 13.3295C111.212 13.6932 111.448 13.9682 111.769 14.1539C112.09 14.3395 112.485 14.4322 112.956 14.4322C113.427 14.4322 113.82 14.3388 114.134 14.1539C114.448 13.9682 114.68 13.6932 114.83 13.3295C114.979 12.9657 115.079 12.5906 115.129 12.2058ZM123.039 16.2515H120.856V5.39826H123.039V16.2515ZM123.103 3.25781H120.792V0.945705H123.103V3.25781ZM135.197 16.2515H133.057V15.1595C132.301 15.9729 131.338 16.38 130.167 16.38C129.068 16.38 128.177 16.0518 127.491 15.395C126.764 14.6816 126.399 13.6614 126.399 12.3339V5.39826H128.583V12.013C128.583 12.8119 128.783 13.4151 129.183 13.8216C129.582 14.2286 130.11 14.4322 130.767 14.4322C131.423 14.4322 131.962 14.2286 132.383 13.8216C132.804 13.4151 133.015 12.8119 133.015 12.013V5.39826H135.197V16.2515ZM154.078 16.2515H151.895V9.63706C151.895 8.82377 151.691 8.21699 151.285 7.81707C150.878 7.41773 150.353 7.2179 149.711 7.2179C149.083 7.2179 148.552 7.41773 148.116 7.81707C147.681 8.21699 147.463 8.78746 147.463 9.53V16.2515H145.28V9.63706C145.28 8.82377 145.08 8.21699 144.681 7.81707C144.281 7.41773 143.754 7.2179 143.097 7.2179C142.44 7.2179 141.902 7.42128 141.481 7.82778C141.06 8.23471 140.849 8.8378 140.849 9.63706V16.2515H138.666V5.39826H140.806V6.4899C141.548 5.67661 142.512 5.26979 143.696 5.26979C145.066 5.26979 146.093 5.79803 146.778 6.85426C147.649 5.79803 148.784 5.26979 150.183 5.26979C151.324 5.26979 152.238 5.59843 152.923 6.25473C153.693 7.01087 154.078 8.03149 154.078 9.31589V16.2515ZM171.118 10.814C171.118 11.8131 171.024 12.648 170.839 13.3188C170.654 13.9896 170.318 14.5818 169.833 15.0956C169.005 15.952 167.921 16.38 166.58 16.38C165.253 16.38 164.175 15.952 163.347 15.0956C162.862 14.5818 162.527 13.9896 162.341 13.3188C162.156 12.648 162.063 11.8131 162.063 10.814C162.063 9.82953 162.156 8.99848 162.341 8.32024C162.527 7.64231 162.862 7.05389 163.347 6.55414C164.175 5.69816 165.253 5.26979 166.58 5.26979C167.921 5.26979 169.005 5.69816 169.833 6.55414C170.318 7.05389 170.654 7.64231 170.839 8.32024C171.025 8.99848 171.118 9.82953 171.118 10.814ZM168.185 13.7899C168.684 13.2901 168.934 12.2982 168.934 10.814C168.934 9.32992 168.684 8.33845 168.185 7.83884C167.771 7.42488 167.236 7.2179 166.58 7.2179C165.937 7.2179 165.409 7.42488 164.995 7.83884C164.495 8.33845 164.247 9.32992 164.247 10.814C164.247 12.2982 164.495 13.2901 164.995 13.7899C165.423 14.2178 165.952 14.4322 166.58 14.4322C167.222 14.4322 167.756 14.2178 168.185 13.7899ZM178.268 14.4104C178.953 14.4104 179.488 14.1962 179.873 13.7681C180.33 13.2258 180.558 12.2625 180.558 10.8782C180.558 9.43713 180.337 8.46692 179.894 7.96731C179.481 7.51067 178.939 7.28213 178.268 7.28213C177.568 7.28213 177.019 7.51067 176.62 7.96731C176.134 8.52363 175.892 9.48003 175.892 10.8358C175.892 12.206 176.148 13.1831 176.662 13.7681C177.076 14.1962 177.611 14.4104 178.268 14.4104ZM178.29 16.38C177.376 16.38 176.576 16.1871 175.892 15.8018C175.207 15.4165 174.7 14.8602 174.372 14.1321C173.944 13.219 173.73 11.6203 173.73 9.3373C173.73 6.96802 173.829 5.34142 174.029 4.45651C174.229 3.57188 174.671 2.83694 175.356 2.25182C175.799 1.86651 176.381 1.57396 177.101 1.3743C177.822 1.17419 178.485 1.05306 179.092 1.00994C179.698 0.96755 180.623 0.925321 181.864 0.88147V2.80781C181.65 2.82242 181.265 2.84317 180.709 2.8724C180.152 2.90017 179.695 2.92917 179.338 2.9584C178.982 2.98764 178.574 3.05786 178.118 3.17216C177.661 3.28618 177.291 3.44355 177.005 3.64322C176.505 3.97137 176.163 4.3818 175.977 4.87439C175.792 5.36655 175.699 6.01955 175.699 6.83285C175.927 6.40486 176.316 6.06241 176.866 5.80544C177.415 5.54862 178.018 5.42003 178.674 5.42003C179.787 5.42003 180.672 5.72711 181.329 6.34073C182.271 7.22536 182.742 8.70949 182.742 10.7933C182.742 12.8053 182.3 14.2608 181.415 15.1598C180.63 15.9733 179.588 16.3803 178.29 16.3803V16.38ZM197.898 16.2511H195.714V5.39826H197.898V16.2511ZM193.242 10.4286C193.891 11.0567 194.216 11.8702 194.216 12.8692C194.216 13.8682 193.891 14.6813 193.242 15.3094C192.592 15.9372 191.74 16.2511 190.684 16.2511H185.653V5.39826H187.837V9.48682H190.684C191.74 9.48682 192.592 9.80093 193.242 10.4286ZM191.594 14.0464C191.9 13.761 192.053 13.3689 192.053 12.8692C192.053 12.3698 191.9 11.9807 191.594 11.7022C191.287 11.4242 190.861 11.285 190.32 11.285H187.837V14.4747H190.32C190.861 14.4747 191.287 14.3312 191.594 14.0464ZM209.414 16.2511H207.23V12.2482C206.089 12.4765 205.055 12.5904 204.127 12.5904C203.199 12.5904 202.454 12.3304 201.89 11.8096C201.326 11.2888 201.044 10.5429 201.044 9.57247V5.39826H203.228V9.03718C203.228 10.1074 203.756 10.6427 204.812 10.6427C205.468 10.6427 206.275 10.5565 207.23 10.3858V5.39826H209.414V16.2511ZM221.573 16.2511H219.39V11.6276H215.066V16.2511H212.882V5.39826H215.066V9.722H219.39V5.39826H221.573V16.2511ZM237.286 16.2511H235.102V5.39826H237.286V16.2511ZM232.63 10.4286C233.279 11.0567 233.603 11.8702 233.603 12.8692C233.603 13.8682 233.279 14.6813 232.63 15.3094C231.98 15.9372 231.128 16.2511 230.072 16.2511H225.041V5.39826H227.225V9.48682H230.072C231.128 9.48682 231.98 9.80093 232.63 10.4286ZM230.982 14.0464C231.288 13.761 231.441 13.3689 231.441 12.8692C231.441 12.3698 231.288 11.9807 230.982 11.7022C230.675 11.4242 230.25 11.285 229.708 11.285H227.225V14.4747H229.708C230.25 14.4747 230.675 14.3312 230.982 14.0464ZM248.716 0.988528C248.674 1.9876 248.349 2.71886 247.743 3.18251C247.137 3.6466 246.362 3.87839 245.42 3.87839C244.479 3.87839 243.707 3.6466 243.108 3.18251C242.509 2.71886 242.18 1.9876 242.124 0.988528H243.857C243.944 1.95895 244.464 2.44417 245.42 2.44417C246.377 2.44417 246.897 1.95895 246.983 0.988528H248.716ZM249.915 16.2511H247.732V8.78024L243.087 16.2511H240.903V5.39826H243.087V12.7621L247.732 5.39826H249.915V16.2511Z" fill="black"/>
</svg>
