<svg width="250" height="21" viewBox="0 0 250 21" fill="none" xmlns="http://www.w3.org/2000/svg">
<path fill-rule="evenodd" clip-rule="evenodd" d="M8.22211 4.65616C8.38583 5.6925 8.46799 7.72921 8.46799 10.7663C8.46799 13.8035 8.38597 15.8406 8.22211 16.8772C8.05855 17.9134 7.68583 18.7406 7.10407 19.3592C6.3947 20.1047 5.4309 20.4776 4.21242 20.4776H0.229492V1.05507H4.21242C5.4309 1.05507 6.3947 1.428 7.10407 2.17347C7.68583 2.79207 8.05855 3.61952 8.22211 4.65616ZM6.69439 16.3451C6.80402 15.4449 6.85819 13.5851 6.85819 10.7663C6.85819 7.94759 6.80402 6.08793 6.69439 5.18752C6.58476 4.28755 6.32163 3.61943 5.90359 3.18268C5.50337 2.72809 4.9125 2.50071 4.13034 2.50071H1.83894V19.032H4.13034C4.9125 19.032 5.50337 18.8046 5.90359 18.35C6.32163 17.9132 6.58549 17.2451 6.69439 16.3451ZM13.4052 20.4776H11.7957V1.05507H13.4052V20.4776ZM25.79 20.4776H24.2081L18.7791 5.33776V20.4776H17.1701V1.05507H18.7791L24.1806 16.1949V1.05507H25.79V20.4776ZM41.7614 2.20059C42.4981 2.96463 42.8662 4.39195 42.8662 6.48364C42.8662 8.57476 42.4981 9.99824 41.7614 10.7528C41.0251 11.5077 39.9928 11.8847 38.6652 11.8847H36.4556V20.4776H34.8468V1.05507H38.6652C39.9928 1.05507 41.0251 1.437 41.7614 2.20059ZM40.5752 9.60689C41.0298 9.05218 41.2568 8.01083 41.2568 6.48364C41.2568 4.95587 41.0298 3.9104 40.5752 3.34648C40.1203 2.78299 39.4562 2.50071 38.5832 2.50071H36.4556V10.4391H38.5832C39.4562 10.4391 40.1203 10.1618 40.5752 9.60689ZM50.3953 7.82045H50.0684C49.25 7.82045 48.5945 8.06117 48.1035 8.54309C47.6125 9.02501 47.3677 9.68428 47.3677 10.5208V20.4776H45.8396V6.59284H47.3398V8.06561C47.486 7.75661 47.7131 7.46577 48.0221 7.19273C48.6222 6.64737 49.4133 6.37444 50.3953 6.37444V7.82045ZM58.9064 9.59333C59.0511 10.5028 59.1248 11.8215 59.1248 13.5488C59.1248 15.2767 59.0516 16.5951 58.9064 17.5046C58.7617 18.4136 58.4884 19.1137 58.0885 19.6047C57.4882 20.3324 56.6338 20.696 55.5241 20.696C54.4149 20.696 53.56 20.3324 52.9597 19.6047C52.5598 19.1137 52.2865 18.4136 52.141 17.5046C51.9949 16.5951 51.9234 15.2767 51.9234 13.5488C51.9234 11.8215 51.9962 10.5028 52.141 9.59333C52.2857 8.68386 52.5598 7.98419 52.9597 7.4932C53.56 6.74744 54.4149 6.37444 55.5241 6.37444C56.6338 6.37444 57.4882 6.74744 58.0885 7.4932C58.4884 7.98419 58.761 8.68386 58.9064 9.59333ZM57.4611 17.0678C57.5518 16.3406 57.5967 15.1676 57.5967 13.5488C57.5967 11.9304 57.5518 10.7528 57.4611 10.0166C57.3705 9.27987 57.1789 8.72955 56.888 8.36573C56.5425 7.94768 56.088 7.73837 55.5241 7.73837C54.9425 7.73837 54.4779 7.94768 54.1323 8.36573C53.8414 8.72955 53.655 9.27516 53.5735 10.0027C53.4916 10.7299 53.4507 11.9121 53.4507 13.5488C53.4507 15.1859 53.4916 16.3634 53.5735 17.0814C53.6553 17.7999 53.8414 18.3409 54.1323 18.7047C54.4779 19.1228 54.9425 19.3321 55.5241 19.3321C56.088 19.3321 56.5425 19.1228 56.888 18.7047C57.1789 18.3409 57.3701 17.7954 57.4611 17.0678ZM75.3827 16.0315C75.3462 17.7225 74.8917 18.968 74.0188 19.7682C73.3458 20.3868 72.4545 20.696 71.3452 20.696C70.1267 20.696 69.1632 20.3141 68.4539 19.5505C67.8723 18.9319 67.499 18.0908 67.3355 17.0271C67.1718 15.9631 67.09 13.876 67.09 10.7663C67.09 7.65671 67.1716 5.56954 67.3355 4.50556C67.499 3.44203 67.8723 2.60106 68.4539 1.98291C69.1632 1.21888 70.1267 0.83667 71.3452 0.83667C72.5091 0.83667 73.4369 1.18211 74.128 1.87335C74.9281 2.67334 75.3463 3.88281 75.3827 5.5012H73.7733C73.7733 4.31942 73.5188 3.4649 73.0096 2.93751C72.6094 2.50076 72.0545 2.28267 71.3452 2.28267C70.6177 2.28267 70.045 2.51904 69.6265 2.99176C69.2263 3.44678 68.9719 4.14231 68.8628 5.07868C68.7532 6.01519 68.6994 7.91104 68.6994 10.7663C68.6994 13.6215 68.7532 15.5176 68.8628 16.454C68.9725 17.3904 69.2263 18.0859 69.6265 18.5409C70.045 19.0136 70.6177 19.25 71.3452 19.25C72.0545 19.25 72.6094 19.0319 73.0096 18.5952C73.5188 18.0678 73.7733 17.2137 73.7733 16.0315H75.3827ZM84.7118 9.59333C84.8579 10.5028 84.9302 11.8215 84.9302 13.5488C84.9302 15.2767 84.8571 16.5951 84.7118 17.5046C84.5671 18.4136 84.2936 19.1137 83.8938 19.6047C83.2934 20.3324 82.439 20.696 81.3294 20.696C80.2203 20.696 79.3655 20.3324 78.765 19.6047C78.3653 19.1137 78.0918 18.4136 77.9464 17.5046C77.8002 16.5951 77.7287 15.2767 77.7287 13.5488C77.7287 11.8215 77.8015 10.5028 77.9464 9.59333C78.0911 8.68386 78.3653 7.98419 78.765 7.4932C79.3655 6.74744 80.2203 6.37444 81.3294 6.37444C82.439 6.37444 83.2934 6.74744 83.8938 7.4932C84.2936 7.98419 84.5663 8.68386 84.7118 9.59333ZM83.2665 17.0678C83.3571 16.3406 83.4021 15.1676 83.4021 13.5488C83.4021 11.9304 83.3571 10.7528 83.2665 10.0166C83.1758 9.27987 82.9842 8.72955 82.6934 8.36573C82.3478 7.94768 81.8934 7.73837 81.3294 7.73837C80.7477 7.73837 80.2832 7.94768 79.9377 8.36573C79.6468 8.72955 79.4605 9.27516 79.3788 10.0027C79.297 10.7299 79.2561 11.9121 79.2561 13.5488C79.2561 15.1859 79.297 16.3634 79.3788 17.0814C79.4607 17.7999 79.6468 18.3409 79.9377 18.7047C80.2832 19.1228 80.7477 19.3321 81.3294 19.3321C81.8934 19.3321 82.3478 19.1228 82.6934 18.7047C82.9842 18.3409 83.1753 17.7954 83.2665 17.0678ZM94.7232 20.4776H93.1958V10.0298C93.1958 9.30258 93.0187 8.74296 92.6641 8.35181C92.3093 7.9611 91.8498 7.76585 91.2859 7.76585C90.7222 7.76585 90.2582 7.9611 89.8948 8.35181C89.531 8.74296 89.3495 9.30258 89.3495 10.0298V20.4776H87.8215V6.59284H89.3217V7.71089C89.5037 7.38361 89.7677 7.10178 90.1132 6.86513C90.5859 6.53785 91.1135 6.37444 91.6955 6.37444C92.5503 6.37444 93.2771 6.69254 93.8774 7.3294C94.4409 7.92943 94.7232 8.83871 94.7232 10.0569V20.4776ZM104.571 20.4776H103.071V19.3592C102.925 19.6866 102.67 19.9683 102.306 20.205C101.834 20.5322 101.307 20.696 100.725 20.696C99.8518 20.696 99.1333 20.3686 98.5694 19.7139C98.1696 19.2589 97.8962 18.5726 97.7508 17.6545C97.6061 16.7358 97.5331 15.3677 97.5331 13.5488C97.5331 11.7303 97.6059 10.366 97.7508 9.45701C97.8969 8.54754 98.1696 7.8473 98.5694 7.35617C99.0968 6.70162 99.8154 6.37444 100.725 6.37444C101.38 6.37444 101.907 6.5203 102.306 6.81089C102.597 7.02883 102.843 7.3021 103.043 7.62953V1.05507H104.571V20.4776ZM103.043 16.904V10.1665C103.043 9.31165 102.834 8.67502 102.416 8.25653C102.034 7.91098 101.588 7.73837 101.079 7.73837C100.552 7.73837 100.115 7.94768 99.7699 8.36573C99.479 8.71128 99.2875 9.24304 99.1968 9.96161C99.1061 10.68 99.0612 11.8757 99.0612 13.5488C99.0612 15.222 99.1061 16.4174 99.1968 17.136C99.2874 17.8544 99.479 18.3863 99.7699 18.7318C100.115 19.1321 100.552 19.3321 101.079 19.3321C101.588 19.3321 102.034 19.1591 102.416 18.8136C102.834 18.3951 103.043 17.7588 103.043 16.904ZM119.766 9.59333C119.912 10.5028 119.984 11.8215 119.984 13.5488C119.984 15.2767 119.911 16.5951 119.766 17.5046C119.621 18.4136 119.347 19.1137 118.947 19.6047C118.346 20.3324 117.492 20.696 116.382 20.696C115.273 20.696 114.419 20.3324 113.818 19.6047C113.418 19.1137 113.146 18.4136 113 17.5046C112.854 16.5951 112.782 15.2767 112.782 13.5488C112.782 11.8215 112.855 10.5028 113 9.59333C113.145 8.68386 113.418 7.98419 113.818 7.4932C114.419 6.74744 115.273 6.37444 116.382 6.37444C117.492 6.37444 118.346 6.74744 118.947 7.4932C119.347 7.98419 119.62 8.68386 119.766 9.59333ZM118.32 17.0678C118.41 16.3406 118.456 15.1676 118.456 13.5488C118.456 11.9304 118.41 10.7528 118.32 10.0166C118.229 9.27987 118.037 8.72955 117.746 8.36573C117.401 7.94768 116.946 7.73837 116.382 7.73837C115.801 7.73837 115.337 7.94768 114.991 8.36573C114.701 8.72955 114.514 9.27516 114.433 10.0027C114.351 10.7299 114.31 11.9121 114.31 13.5488C114.31 15.1859 114.351 16.3634 114.433 17.0814C114.514 17.7999 114.701 18.3409 114.991 18.7047C115.337 19.1228 115.801 19.3321 116.382 19.3321C116.946 19.3321 117.401 19.1228 117.746 18.7047C118.037 18.3409 118.228 17.7954 118.32 17.0678ZM129.749 13.5488C129.749 15.2767 129.676 16.5951 129.531 17.5046C129.386 18.4136 129.113 19.1137 128.713 19.6047C128.095 20.3324 127.24 20.696 126.148 20.696C125.057 20.696 124.203 20.3324 123.585 19.6047C123.184 19.1137 122.911 18.4136 122.766 17.5046C122.62 16.5951 122.548 15.2767 122.548 13.5488C122.548 9.7846 122.607 7.30651 122.725 6.11536C122.844 4.92407 123.12 3.97412 123.557 3.26475C124.048 2.48289 124.748 1.91878 125.657 1.57323C126.567 1.22768 127.749 1.03687 129.204 1.00047V2.39187C128.058 2.42841 127.144 2.54613 126.462 2.74623C125.78 2.94634 125.266 3.31942 124.921 3.86464C124.629 4.33735 124.43 4.86041 124.321 5.4334C124.211 6.00595 124.12 6.81122 124.048 7.84757C124.575 6.90199 125.394 6.42904 126.503 6.42904C127.358 6.42904 128.085 6.76528 128.685 7.43825C129.103 7.89269 129.385 8.57052 129.531 9.47093C129.677 10.3709 129.749 11.7303 129.749 13.5488ZM128.085 17.0814C128.176 16.3451 128.221 15.1676 128.221 13.5488C128.221 11.9304 128.176 10.7528 128.085 10.0166C127.995 9.27987 127.803 8.72955 127.512 8.36573C127.167 7.94768 126.712 7.73837 126.148 7.73837C125.567 7.73837 125.103 7.94768 124.757 8.36573C124.466 8.72955 124.279 9.27516 124.198 10.0027C124.116 10.7299 124.075 11.9121 124.075 13.5488C124.075 15.2042 124.116 16.3903 124.198 17.1088C124.28 17.8273 124.466 18.3592 124.757 18.7047C125.085 19.1228 125.548 19.3321 126.148 19.3321C126.73 19.3321 127.185 19.1228 127.512 18.7047C127.803 18.3592 127.994 17.8181 128.085 17.0814ZM132.668 6.59284H134.196V12.4304H136.051C137.287 12.4304 138.187 12.7578 138.751 13.4125C139.315 14.067 139.596 15.0854 139.596 16.4676C139.596 17.8499 139.315 18.864 138.751 19.5094C138.187 20.1551 137.287 20.4776 136.051 20.4776H132.668V6.59284ZM137.537 18.4863C137.874 18.0678 138.042 17.3949 138.042 16.4676C138.042 15.5402 137.874 14.8629 137.537 14.4352C137.201 14.0081 136.669 13.7943 135.941 13.7943H134.196V19.1137H135.941C136.669 19.1137 137.201 18.9044 137.537 18.4863ZM142.652 20.4776H141.124V6.59284H142.652V20.4776ZM151.763 20.4776H150.236V15.6221C149.618 15.7493 148.954 15.8131 148.244 15.8131C146.281 15.8131 145.298 14.7945 145.298 12.7576V6.59284H146.826V12.5667C146.826 13.2943 146.968 13.7898 147.249 14.0534C147.531 14.3174 147.926 14.4491 148.435 14.4491C149.126 14.4491 149.727 14.395 150.236 14.2853V6.59284H151.763V20.4776ZM161.938 20.4776H160.411V14.0127H156.674V20.4776H155.146V6.59284H156.674V12.6488H160.411V6.59284H161.938V20.4776ZM165.348 6.59284H166.876V12.4304H168.731C169.968 12.4304 170.868 12.7578 171.432 13.4125C171.995 14.067 172.277 15.0854 172.277 16.4676C172.277 17.8499 171.995 18.864 171.432 19.5094C170.868 20.1551 169.968 20.4776 168.731 20.4776H165.348V6.59284ZM170.218 18.4863C170.554 18.0678 170.722 17.3949 170.722 16.4676C170.722 15.5402 170.554 14.8629 170.218 14.4352C169.881 14.0081 169.349 13.7943 168.621 13.7943H166.876V19.1137H168.621C169.349 19.1137 169.881 18.9044 170.218 18.4863ZM175.332 20.4776H173.804V6.59284H175.332V20.4776ZM185.971 20.4776H184.444V9.89345L180.161 20.4776H178.715V6.59284H180.243V17.177L184.525 6.59284H185.971V20.4776ZM185.398 1.81875C185.271 3.69207 184.252 4.62868 182.343 4.62868C180.451 4.62868 179.424 3.69207 179.261 1.81875H180.57C180.679 2.92848 181.27 3.48315 182.343 3.48315C183.398 3.48315 183.98 2.92848 184.089 1.81875H185.398ZM200.429 7.95677H197.673V20.4776H196.146V7.95677H193.418V6.59284H200.429V7.95677ZM208.912 9.59333C209.057 10.5028 209.131 11.8215 209.131 13.5488C209.131 15.2767 209.058 16.5951 208.912 17.5046C208.766 18.4136 208.494 19.1137 208.094 19.6047C207.494 20.3324 206.64 20.696 205.53 20.696C204.421 20.696 203.566 20.3324 202.966 19.6047C202.566 19.1137 202.292 18.4136 202.147 17.5046C202.001 16.5951 201.929 15.2767 201.929 13.5488C201.929 11.8215 202.002 10.5028 202.147 9.59333C202.292 8.68386 202.566 7.98419 202.966 7.4932C203.566 6.74744 204.421 6.37444 205.53 6.37444C206.64 6.37444 207.494 6.74744 208.094 7.4932C208.494 7.98419 208.767 8.68386 208.912 9.59333ZM207.467 17.0678C207.558 16.3406 207.603 15.1676 207.603 13.5488C207.603 11.9304 207.558 10.7528 207.467 10.0166C207.376 9.27987 207.185 8.72955 206.894 8.36573C206.548 7.94768 206.094 7.73837 205.53 7.73837C204.948 7.73837 204.484 7.94768 204.138 8.36573C203.847 8.72955 203.661 9.27516 203.579 10.0027C203.498 10.7299 203.457 11.9121 203.457 13.5488C203.457 15.1859 203.498 16.3634 203.579 17.0814C203.661 17.7999 203.847 18.3409 204.138 18.7047C204.484 19.1228 204.948 19.3321 205.53 19.3321C206.094 19.3321 206.548 19.1228 206.894 18.7047C207.185 18.3409 207.376 17.7954 207.467 17.0678ZM218.815 20.4776H217.286V14.0127H213.55V20.4776H212.022V6.59284H213.55V12.6488H217.286V6.59284H218.815V20.4776ZM229.999 20.4776H228.253L223.806 13.2761L227.981 6.59284H229.672L225.471 13.1944L229.999 20.4776ZM223.779 20.4776H222.252V6.59284H223.779V20.4776ZM239.247 20.4776H237.719V9.89345L233.436 20.4776H231.991V6.59284H233.518V17.177L237.801 6.59284H239.247V20.4776ZM249.913 20.4776H248.385V9.89345L244.102 20.4776H242.656V6.59284H244.184V17.177L248.467 6.59284H249.913V20.4776ZM249.34 1.81875C249.213 3.69207 248.194 4.62868 246.284 4.62868C244.393 4.62868 243.366 3.69207 243.202 1.81875H244.511C244.62 2.92848 245.212 3.48315 246.284 3.48315C247.339 3.48315 247.921 2.92848 248.031 1.81875H249.34Z" fill="black"/>
</svg>
