<svg width="250" height="24" viewBox="0 0 250 24" fill="none" xmlns="http://www.w3.org/2000/svg">
<path fill-rule="evenodd" clip-rule="evenodd" d="M0.119141 4.60503H4.27622C5.68837 4.60503 6.71217 4.94063 7.34772 5.61156C7.98342 6.28189 8.3009 7.31494 8.3009 8.70911V9.58307C8.3009 10.6068 8.13333 11.4144 7.79773 12.0056C7.46256 12.5973 6.90651 13.0161 6.12976 13.2636C7.78908 13.7222 8.61851 15.0465 8.61851 17.2351V18.7976C8.61851 21.6926 7.20672 23.1399 4.38256 23.1399H0.119141V4.60503ZM2.18465 12.4694H3.7734C4.63814 12.4694 5.26926 12.2928 5.66655 11.9398C6.06399 11.5868 6.26251 10.9425 6.26251 10.0068V8.92127C6.26251 8.09131 6.10308 7.47819 5.78574 7.08075C5.46797 6.6839 4.94724 6.48497 4.2234 6.48497H2.18465V12.4694ZM2.18465 21.2601H4.38256C5.84763 21.2601 6.58011 20.4213 6.58011 18.7444V17.103C6.58011 16.0969 6.37701 15.3863 5.97095 14.9715C5.56489 14.5564 4.90282 14.3493 3.98502 14.3493H2.18465V21.2601ZM12.564 12.8134H17.0915V14.6671H12.564V21.2601H18.1246V23.1399H10.4985V4.60503H18.1246V6.48497H12.564V12.8134ZM20.0306 4.60503H24.1877C25.5998 4.60503 26.6236 4.94063 27.2592 5.61156C27.8949 6.28189 28.212 7.31494 28.212 8.70911V9.58307C28.212 10.6068 28.0448 11.4144 27.7092 12.0056C27.3738 12.5973 26.8177 13.0161 26.0408 13.2636C27.7003 13.7222 28.5299 15.0465 28.5299 17.2351V18.7976C28.5299 21.6926 27.1178 23.1399 24.2936 23.1399H20.0306V4.60503ZM22.0961 12.4694H23.6845C24.5492 12.4694 25.1803 12.2928 25.5776 11.9398C25.9751 11.5868 26.1736 10.9425 26.1736 10.0068V8.92127C26.1736 8.09131 26.0145 7.47819 25.6972 7.08075C25.3793 6.6839 24.8583 6.48497 24.1345 6.48497H22.0961V12.4694ZM22.0961 21.2601H24.2936C25.7587 21.2601 26.4912 20.4213 26.4912 18.7444V17.103C26.4912 16.0969 26.2884 15.3863 25.8824 14.9715C25.4763 14.5564 24.8139 14.3493 23.8961 14.3493H22.0961V21.2601ZM37.1885 19.4066H32.5018L31.7863 23.1399H29.8799L33.4279 4.60503H36.4198L39.9684 23.1399H37.9029L37.1885 19.4066ZM34.8053 6.93533L32.7662 17.6324H36.8973L34.8053 6.93533ZM42.4044 5.63761C43.093 4.82592 44.1166 4.41982 45.4755 4.41982C46.8346 4.41982 47.863 4.8301 48.5602 5.65099C49.2576 6.47174 49.6058 7.60625 49.6058 9.05348V9.55648H47.6466V8.94732C47.6466 7.18231 46.9405 6.29976 45.5283 6.29976C44.1163 6.29976 43.4107 7.17351 43.4107 8.92127C43.4107 9.57421 43.5648 10.1788 43.8739 10.7348C44.1826 11.2909 44.5667 11.7586 45.0259 12.1382C45.4845 12.5177 45.9829 12.9413 46.5211 13.4092C47.0597 13.8769 47.5587 14.3271 48.0178 14.7593C48.4769 15.1919 48.86 15.7526 49.169 16.4409C49.4777 17.1295 49.6322 17.8795 49.6322 18.6916C49.6322 20.1393 49.2798 21.2732 48.5738 22.0941C47.8678 22.9148 46.826 23.3249 45.4491 23.3249C44.0723 23.3249 43.0352 22.9148 42.338 22.0941C41.641 21.2732 41.2917 20.1393 41.2917 18.6916V17.6324H43.2251V18.7976C43.2251 20.5627 43.949 21.4453 45.3963 21.4453C46.8439 21.4453 47.5674 20.5627 47.5674 18.7976C47.5674 18.2325 47.4533 17.712 47.2234 17.2351C46.9939 16.7585 46.698 16.3351 46.3362 15.9643C45.9745 15.5934 45.5728 15.2317 45.1315 14.8787C44.6902 14.5257 44.2488 14.1548 43.8075 13.7666C43.3662 13.3783 42.965 12.9723 42.6028 12.5484C42.241 12.1249 41.9451 11.6129 41.7156 11.0128C41.4861 10.4125 41.3716 9.75949 41.3716 9.05348C41.3716 7.58842 41.7162 6.44973 42.4044 5.63761ZM57.364 8.15312V23.1399H55.5104V4.60503H58.1319L62.4214 18.0032V4.60503H64.2485V23.1399H62.1038L57.364 8.15312ZM68.4324 12.8134H72.9595V14.6671H68.4324V21.2601H73.9923V23.1399H66.3669V4.60503H73.9923V6.48497H68.4324V12.8134ZM77.8578 4.60503V18.771C77.8578 20.5538 78.5816 21.4453 80.029 21.4453C81.4588 21.4453 82.1737 20.5538 82.1737 18.771V4.60503H84.1064V18.665C84.1064 20.1302 83.763 21.2775 83.0744 22.1073C82.3861 22.9368 81.3443 23.3517 79.9497 23.3517C78.5728 23.3517 77.5403 22.9322 76.8522 22.0941C76.1636 21.2554 75.8187 20.1127 75.8187 18.665V4.60503H77.8578ZM88.2111 12.8134H92.7389V14.6671H88.2111V21.2601H93.7717V23.1399H86.1456V4.60503H93.7717V6.48497H88.2111V12.8134ZM95.6773 4.60503H99.8083C101.238 4.60503 102.284 4.95804 102.946 5.66419C103.608 6.3702 103.939 7.42968 103.939 8.84169V10.3507C103.939 12.3984 103.171 13.6697 101.635 14.1639C103.189 14.6226 103.965 15.9112 103.965 18.0298V20.9157C103.965 21.9395 104.088 22.6809 104.336 23.1399H102.244C102.015 22.6283 101.9 21.8777 101.9 20.8891V17.9768C101.9 16.9704 101.674 16.2602 101.224 15.8451C100.774 15.4303 100.099 15.2231 99.1988 15.2231H97.7428V23.1399H95.6773V4.60503ZM97.7428 13.3431H99.2788C100.161 13.3431 100.819 13.1575 101.251 12.7871C101.684 12.4163 101.9 11.7541 101.9 10.801V9.02708C101.9 7.33238 101.185 6.48497 99.7548 6.48497H97.7428V13.3431ZM108.175 12.8134H112.703V14.6671H108.175V21.2601H113.736V23.1399H106.11V4.60503H113.736V6.48497H108.175V12.8134ZM119.64 4.41982C121.034 4.41982 122.08 4.83468 122.777 5.66419C123.475 6.494 123.824 7.63266 123.824 9.07989V10.6685H121.865V8.9739C121.865 7.19092 121.14 6.29976 119.693 6.29976C118.245 6.29976 117.522 7.19092 117.522 8.9739V18.771C117.522 20.5538 118.245 21.4453 119.693 21.4453C121.14 21.4453 121.865 20.5538 121.865 18.771V15.0639H119.958V13.2106H123.824V18.665C123.824 20.1127 123.475 21.2512 122.777 22.0807C122.08 22.9102 121.034 23.3249 119.64 23.3249C118.263 23.3249 117.226 22.9102 116.529 22.0807C115.831 21.2512 115.483 20.1127 115.483 18.665V9.07989C115.483 7.63266 115.831 6.494 116.529 5.66419C117.226 4.83468 118.263 4.41982 119.64 4.41982ZM127.742 4.60503V18.771C127.742 20.5538 128.466 21.4453 129.913 21.4453C131.343 21.4453 132.058 20.5538 132.058 18.771V4.60503H133.991V18.665C133.991 20.1302 133.647 21.2775 132.959 22.1073C132.27 22.9368 131.229 23.3517 129.834 23.3517C128.457 23.3517 127.425 22.9322 126.736 22.0941C126.048 21.2554 125.703 20.1127 125.703 18.665V4.60503H127.742ZM143.39 23.1399H136.03V4.60503H138.095V21.2601H143.39V23.1399ZM151.732 19.4066H147.045L146.33 23.1399H144.424L147.972 4.60503H150.964L154.512 23.1399H152.447L151.732 19.4066ZM149.349 6.93533L147.31 17.6324H151.44L149.349 6.93533ZM156.127 4.60503H160.257C161.687 4.60503 162.733 4.95804 163.395 5.66419C164.056 6.3702 164.387 7.42968 164.387 8.84169V10.3507C164.387 12.3984 163.62 13.6697 162.084 14.1639C163.638 14.6226 164.415 15.9112 164.415 18.0298V20.9157C164.415 21.9395 164.537 22.6809 164.785 23.1399H162.693C162.464 22.6283 162.349 21.8777 162.349 20.8891V17.9768C162.349 16.9704 162.124 16.2602 161.674 15.8451C161.224 15.4303 160.549 15.2231 159.648 15.2231H158.192V23.1399H156.127V4.60503ZM158.192 13.3431H159.727C160.61 13.3431 161.268 13.1575 161.7 12.7871C162.133 12.4163 162.349 11.7541 162.349 10.801V9.02708C162.349 7.33238 161.634 6.48497 160.204 6.48497H158.192V13.3431ZM170.504 18.665V9.07989C170.504 7.63266 170.862 6.494 171.577 5.66419C172.291 4.83468 173.346 4.41982 174.741 4.41982C176.135 4.41982 177.194 4.83468 177.918 5.66419C178.642 6.494 179.004 7.63266 179.004 9.07989V18.665C179.004 20.1127 178.642 21.2512 177.918 22.0807C177.194 22.9102 176.135 23.3249 174.741 23.3249C173.364 23.3249 172.313 22.9102 171.59 22.0807C170.866 21.2512 170.504 20.1127 170.504 18.665ZM172.543 8.9739V18.771C172.543 20.5538 173.275 21.4453 174.741 21.4453C176.206 21.4453 176.938 20.5538 176.938 18.771V8.9739C176.938 7.19092 176.206 6.29976 174.741 6.29976C173.275 6.29976 172.543 7.19092 172.543 8.9739ZM183.028 12.257H185.2C188.112 12.257 189.568 13.7049 189.568 16.5999V18.6384C189.568 21.6394 188.147 23.1399 185.305 23.1399H180.989V4.60503H188.801V6.48497H183.028V12.257ZM183.028 21.2601H185.305C186.064 21.2601 186.621 21.0616 186.974 20.6641C187.327 20.2669 187.503 19.6357 187.503 18.771V16.4673C187.503 15.6025 187.318 14.9935 186.947 14.6405C186.576 14.2875 185.994 14.1109 185.2 14.1109H183.028V21.2601ZM193.646 11.9134H195.474C198.351 11.9134 199.789 13.4048 199.789 16.3877V18.6118C199.789 21.6304 198.404 23.1399 195.632 23.1399H191.581V4.60503H193.646V11.9134ZM201.51 4.60503H203.549V23.1399H201.51V4.60503ZM193.646 21.2601H195.632C196.374 21.2601 196.912 21.0522 197.248 20.6376C197.583 20.2227 197.75 19.5832 197.75 18.718V16.2557C197.75 15.3731 197.565 14.7375 197.194 14.3493C196.824 13.9609 196.25 13.7666 195.474 13.7666H193.646V21.2601ZM212.102 23.1399V14.9317C211.431 15.9026 210.469 16.3877 209.216 16.3877C208.015 16.3877 207.102 15.982 206.475 15.1699C205.848 14.3578 205.535 13.2989 205.535 11.9924V4.60503H207.6V11.8336C207.6 12.6279 207.803 13.2722 208.209 13.7666C208.615 14.2609 209.171 14.5079 209.877 14.5079C211.148 14.5079 211.89 13.7845 212.102 12.3368V4.60503H214.14V23.1399H212.102ZM222.905 14.7991H218.351V23.1399H216.285V4.60503H218.351V12.9459H222.905V4.60503H224.97V23.1399H222.905V14.7991ZM229.154 11.9134H230.981C233.858 11.9134 235.296 13.4048 235.296 16.3877V18.6118C235.296 21.6304 233.911 23.1399 231.139 23.1399H227.089V4.60503H229.154V11.9134ZM237.018 4.60503H239.056V23.1399H237.018V4.60503ZM229.154 21.2601H231.139C231.881 21.2601 232.419 21.0522 232.755 20.6376C233.09 20.2227 233.258 19.5832 233.258 18.718V16.2557C233.258 15.3731 233.072 14.7375 232.702 14.3493C232.331 13.9609 231.757 13.7666 230.981 13.7666H229.154V21.2601ZM247.238 0.818909H248.51C248.51 1.63103 248.253 2.26629 247.741 2.72526C247.229 3.18438 246.532 3.414 245.65 3.414C244.767 3.414 244.079 3.18438 243.584 2.72526C243.09 2.26629 242.825 1.63103 242.79 0.818909H244.087C244.158 1.71932 244.679 2.16909 245.65 2.16909C246.638 2.16909 247.168 1.71932 247.238 0.818909ZM248.059 8.39133L246.206 14.2166L243.319 23.1399H241.175V4.60503H243.002V18.4266L244.723 13.078L247.609 4.60503H249.912V23.1399H248.059V8.39133Z" fill="black"/>
</svg>
