<svg width="240" height="381" viewBox="0 0 240 381" fill="none" xmlns="http://www.w3.org/2000/svg">
<g id="path7827" filter="url(#filter0_f_84_4754)">
<path fill-rule="evenodd" clip-rule="evenodd" d="M105.538 40C121.512 40 134.462 54.9736 134.462 73.4444C134.462 76.6777 134.064 79.8031 133.324 82.7606C134.531 86.4446 135.194 90.4384 135.194 94.6118C135.194 97.1048 134.957 99.5335 134.51 101.871C145.655 105.624 154.019 116.922 155.19 130.665C159.611 136.538 162.288 144.212 162.288 152.61C162.288 157.291 161.455 161.746 159.954 165.791C163.863 168.79 167.104 172.858 169.367 177.635C175.778 183.769 179.863 193.039 179.863 203.412C179.863 206.386 179.527 209.269 178.896 212.014C185.99 217.776 190.743 227.13 191.179 237.791C196.617 243.872 200 252.396 200 261.834C200 280.305 187.05 295.278 171.075 295.278C155.567 295.278 142.909 281.165 142.185 263.44C136.746 257.359 133.364 248.835 133.364 239.397C133.364 236.423 133.701 233.541 134.331 230.797C130.706 227.852 127.691 223.969 125.552 219.453C119.142 213.318 115.057 204.048 115.057 193.675C115.057 192.269 115.133 190.883 115.279 189.522C113.204 193.713 110.367 197.335 106.987 200.136C111.984 206.147 115.057 214.313 115.057 223.309C115.057 230.378 113.159 236.934 109.922 242.335C109.928 242.625 109.931 242.915 109.931 243.207C109.931 255.303 104.377 265.898 96.0574 271.772C99.7099 277.371 101.876 284.338 101.876 291.892C101.876 298.133 100.396 303.975 97.8213 308.975C97.1778 326.787 84.4876 341 68.9244 341C52.9499 341 40 326.026 40 307.555C40 301.315 41.4799 295.474 44.0537 290.475C44.4685 278.971 49.9079 268.969 57.9013 263.327C54.2488 257.728 52.0823 250.76 52.0823 243.207C52.0823 236.138 53.9807 229.582 57.2179 224.181C57.2115 223.891 57.2081 223.601 57.2081 223.309C57.2081 212.096 61.9814 202.173 69.3061 196.105C64.3087 190.094 61.2356 181.928 61.2356 172.931C61.2356 166.437 62.838 160.377 65.6081 155.246C65.3815 153.559 65.263 151.831 65.263 150.07C65.263 135.023 73.8573 122.298 85.6793 118.097C80.5268 112.058 77.3454 103.765 77.3454 94.6118C77.3454 91.3785 77.7435 88.2531 78.4839 85.2957C77.2761 81.6117 76.6131 77.6178 76.6131 73.4444C76.6131 54.9736 89.563 40 105.538 40Z" fill="#C0C0C0"/>
</g>
<defs>
<filter id="filter0_f_84_4754" x="0" y="0" width="240" height="381" filterUnits="userSpaceOnUse" color-interpolation-filters="sRGB">
<feFlood flood-opacity="0" result="BackgroundImageFix"/>
<feBlend mode="normal" in="SourceGraphic" in2="BackgroundImageFix" result="shape"/>
<feGaussianBlur stdDeviation="20" result="effect1_foregroundBlur_84_4754"/>
</filter>
</defs>
</svg>
