<svg width="162" height="302" viewBox="0 0 162 302" fill="none" xmlns="http://www.w3.org/2000/svg">
<path d="M54.1133 1.83425L53.9618 1.75008C53.1168 1.28068 52.0947 1.25847 51.2302 1.69073C50.3915 2.11005 49.8044 2.90561 49.651 3.83059L1.54328 293.828L1.12746 297.57C1.04469 298.315 1.20391 299.067 1.58155 299.715C2.36362 301.055 3.93707 301.718 5.44284 301.342L15.8862 298.731C18.0494 298.19 20.0109 297.038 21.536 295.411L21.6615 295.277C22.7242 294.143 23.5289 292.793 24.0203 291.319C24.2469 290.639 24.4051 289.938 24.4924 289.227L29.7996 246.012C29.9742 244.589 30.4916 243.231 31.3072 242.053C32.0981 240.91 33.1469 239.97 34.3686 239.308L90.5136 208.896C90.9584 208.656 91.4367 208.483 91.9327 208.383C93.9455 207.981 96.0022 208.833 97.1408 210.541L97.5403 211.14C97.8293 211.573 98.0619 212.042 98.2326 212.534L113.855 257.579C114.131 258.376 114.566 259.108 115.133 259.732C116.316 261.033 117.993 261.775 119.751 261.775H121.471C122.64 261.775 123.801 261.572 124.901 261.176L154.138 250.65C156.127 249.934 157.851 248.629 159.08 246.909C160.494 244.93 161.169 242.518 160.99 240.093L160.903 238.92C160.785 237.327 160.388 235.767 159.731 234.311L55.5002 3.34158C55.212 2.70306 54.7257 2.17446 54.1133 1.83425Z" fill="white" stroke="black"/>
<path d="M43.4226 187.46H42.9446C41.5788 187.46 40.3391 186.662 39.7739 185.418C39.4933 184.801 39.399 184.115 39.5027 183.445L50.1661 114.523C50.3748 113.174 50.7918 111.866 51.4021 110.645L52.9427 107.564C53.2834 106.882 53.8459 106.337 54.5376 106.018C55.9741 105.355 57.6785 105.786 58.6278 107.051L59.0784 107.652C59.3216 107.976 59.5176 108.334 59.6605 108.713L75.6158 151.094C76.4187 153.227 76.8301 155.487 76.8301 157.766V159.123C76.8301 160.26 76.6469 161.389 76.2875 162.467C75.5809 164.587 74.2208 166.428 72.4025 167.727L45.8783 186.673C45.1618 187.185 44.3032 187.46 43.4226 187.46Z" fill="#F5F5F5" stroke="black"/>
</svg>
