<svg width="183" height="304" viewBox="0 0 183 304" fill="none" xmlns="http://www.w3.org/2000/svg">
<path d="M41.0509 234.901L36.0361 237.913C31.7039 240.514 29.0055 245.153 28.8852 250.205L25.6011 280.921L24.5553 289.907C24.3777 291.433 23.83 292.892 22.9598 294.158C21.8852 295.721 20.364 296.923 18.595 297.608L15.1045 298.959C13.6597 299.518 12.1458 299.88 10.6041 300.033L10.5171 300.041C9.03311 300.188 7.57585 300.536 6.18509 301.074L5.13721 301.48L4.61327 301.683L4.3513 301.784C4.29306 301.807 4.30766 301.893 4.37008 301.895L37.2143 303C38.1397 303.031 39.0616 302.872 39.9231 302.533L41.1997 302.03C45.1839 300.46 48.1768 297.079 49.2515 292.934L49.434 292.23L55.6536 251.938L55.7134 251.439C56.1875 247.489 58.4614 243.979 61.8733 241.932L97.6776 224.52C99.9269 223.427 101.355 221.145 101.355 218.644C101.355 217.773 101.18 216.91 100.842 216.108L99.5118 212.947C99.2988 212.441 99.029 211.961 98.7076 211.516C96.894 209.005 93.6851 207.924 90.7218 208.826L90.1965 208.986C89.704 209.136 89.2272 209.333 88.7725 209.574L41.0509 234.901Z" class="side" id="downSide" fill="#D9D9D9" stroke="#000"/>
<path d="M155.584 249.297L151.89 251.486L138.755 256.979L130.642 259.548L126.586 260.832L124.558 261.475L123.544 261.796L123.036 261.956L122.783 262.037C122.721 262.056 122.728 262.146 122.793 262.155L144.651 265.359C145.498 265.483 146.362 265.394 147.165 265.1L172.475 255.835C174.935 254.934 177.121 253.413 178.819 251.419L179.149 251.032C181.278 248.532 182.447 245.357 182.447 242.073C182.447 240.08 182.016 238.109 181.182 236.298L88.6118 35.1506L80.9481 17.1956C79.7752 14.4478 77.7943 12.1218 75.2682 10.5264C74.431 9.9976 73.5425 9.55461 72.6163 9.20416L64.0036 5.9453L59.0008 4.05236L56.4994 3.10589L55.2487 2.63266L54.6234 2.39604L54.3107 2.27773L54.1544 2.21858C54.0966 2.19673 54.0413 2.25556 54.0666 2.31186L91.2821 85.0344L154.839 223.159L160.127 235.064C161.265 237.627 161.404 240.522 160.517 243.182C159.662 245.747 157.911 247.919 155.584 249.297Z" class="side" id="upSide" fill="#D9D9D9" stroke="#000"/>
<path d="M52.2958 107.504L51.8762 108.023C51.3231 108.706 50.9583 109.522 50.8178 110.389L39.1367 182.553C38.9614 183.636 39.215 184.745 39.8437 185.644C40.9667 187.25 43.048 187.872 44.8677 187.144L45.9624 186.706C46.3797 186.539 46.7758 186.323 47.1425 186.063L65.6174 172.97C66.1762 172.574 66.56 171.977 66.6885 171.304L66.8886 170.255L67.289 168.159L68.0897 163.965L69.6911 155.577L70.908 148.547L71.5165 145.031L71.8207 143.273L71.9728 142.395C72.0724 141.819 72.0179 141.227 71.8147 140.679L59.9753 108.764C59.7838 108.248 59.4988 107.772 59.1346 107.359C57.3011 105.281 54.0395 105.35 52.2958 107.504Z" class="side" id="withinSide" fill="#D9D9D9" stroke="#000"/>
<path fill-rule="evenodd" clip-rule="evenodd" d="M53.9616 1.75009L54.1131 1.83426C54.7255 2.17446 55.2119 2.70306 55.5 3.34159L159.731 234.311C160.388 235.767 160.785 237.327 160.903 238.92L160.99 240.093C161.169 242.518 160.494 244.93 159.08 246.909C157.851 248.629 156.127 249.934 154.138 250.65L124.901 261.176C123.801 261.572 122.64 261.775 121.47 261.775H119.751C117.992 261.775 116.316 261.033 115.133 259.732C114.566 259.108 114.131 258.376 113.855 257.579L98.2325 212.534C98.0618 212.042 97.8291 211.573 97.5402 211.14L97.1407 210.541C96.0021 208.833 93.9454 207.981 91.9326 208.383C91.4366 208.483 90.9582 208.656 90.5134 208.896L34.3685 239.308C33.1467 239.97 32.098 240.91 31.3071 242.053C30.4915 243.231 29.9741 244.589 29.7994 246.012L24.4922 289.227C24.4049 289.938 24.2467 290.639 24.0201 291.319C23.5288 292.793 22.7241 294.143 21.6613 295.277L21.5358 295.411C20.0108 297.038 18.0493 298.19 15.8861 298.731L5.4427 301.342C3.93692 301.718 2.36347 301.055 1.5814 299.715C1.20376 299.067 1.04454 298.315 1.12731 297.57L1.54313 293.828L49.6508 3.8306C49.8043 2.90562 50.3914 2.11005 51.23 1.69073C52.0945 1.25847 53.1167 1.28068 53.9616 1.75009ZM42.9445 187.46H43.4224C44.303 187.46 45.1616 187.185 45.8782 186.673L72.4023 167.727C74.2206 166.428 75.5807 164.587 76.2874 162.467C76.6467 161.389 76.8299 160.26 76.8299 159.123V157.766C76.8299 155.487 76.4186 153.227 75.6157 151.094L59.6603 108.713C59.5175 108.334 59.3215 107.976 59.0782 107.652L58.6276 107.051C57.6784 105.785 55.974 105.355 54.5375 106.018C53.8458 106.337 53.2833 106.882 52.9426 107.564L51.402 110.645C50.7916 111.866 50.3746 113.174 50.1659 114.523L39.5025 183.444C39.3988 184.115 39.4931 184.801 39.7738 185.418C40.3389 186.662 41.5787 187.46 42.9445 187.46Z" fill="#fff"/>
<path d="M54.1131 1.83426L54.3559 1.39718V1.39718L54.1131 1.83426ZM53.9616 1.75009L53.7188 2.18717V2.18717L53.9616 1.75009ZM55.5 3.34159L55.0443 3.54725V3.54725L55.5 3.34159ZM159.731 234.311L160.187 234.106V234.106L159.731 234.311ZM160.903 238.92L160.404 238.957L160.903 238.92ZM160.99 240.093L160.491 240.13L160.99 240.093ZM159.08 246.909L158.673 246.618L159.08 246.909ZM154.138 250.65L153.969 250.18L154.138 250.65ZM124.901 261.176L125.07 261.646V261.646L124.901 261.176ZM115.133 259.732L114.763 260.068L115.133 259.732ZM113.855 257.579L114.327 257.415L113.855 257.579ZM98.2325 212.534L98.7049 212.37V212.37L98.2325 212.534ZM97.5402 211.14L97.9562 210.863V210.863L97.5402 211.14ZM97.1407 210.541L96.7246 210.818V210.818L97.1407 210.541ZM91.9326 208.383L92.0306 208.874H92.0307L91.9326 208.383ZM90.5134 208.896L90.2753 208.457L90.5134 208.896ZM34.3685 239.308L34.1303 238.869H34.1303L34.3685 239.308ZM31.3071 242.053L31.7182 242.337H31.7182L31.3071 242.053ZM29.7994 246.012L29.3032 245.951L29.7994 246.012ZM24.4922 289.227L23.996 289.166L24.4922 289.227ZM24.0201 291.319L23.5458 291.161H23.5458L24.0201 291.319ZM21.6613 295.277L21.2965 294.935L21.2965 294.935L21.6613 295.277ZM21.5358 295.411L21.9006 295.753L21.9006 295.753L21.5358 295.411ZM15.8861 298.731L16.0074 299.216H16.0074L15.8861 298.731ZM5.4427 301.342L5.56396 301.827H5.56396L5.4427 301.342ZM1.5814 299.715L2.01329 299.463L2.01329 299.463L1.5814 299.715ZM1.12731 297.57L0.630366 297.515H0.630366L1.12731 297.57ZM1.54313 293.828L1.04987 293.746L1.04767 293.759L1.04619 293.773L1.54313 293.828ZM49.6508 3.8306L49.1576 3.74877V3.74877L49.6508 3.8306ZM51.23 1.69073L51.4536 2.13795V2.13795L51.23 1.69073ZM45.8782 186.673L46.1688 187.08L45.8782 186.673ZM72.4023 167.727L72.6929 168.134L72.4023 167.727ZM76.2874 162.467L76.7617 162.625L76.2874 162.467ZM75.6157 151.094L75.1477 151.271H75.1477L75.6157 151.094ZM59.6603 108.713L59.1924 108.889L59.6603 108.713ZM59.0782 107.652L58.6782 107.952L59.0782 107.652ZM58.6276 107.051L58.2276 107.351L58.2276 107.351L58.6276 107.051ZM54.5375 106.018L54.747 106.472H54.747L54.5375 106.018ZM52.9426 107.564L52.4953 107.34L52.9426 107.564ZM51.402 110.645L50.9548 110.421L50.9548 110.421L51.402 110.645ZM50.1659 114.523L50.66 114.599L50.1659 114.523ZM39.5025 183.444L39.0084 183.368L39.5025 183.444ZM39.7738 185.418L40.229 185.211L40.229 185.211L39.7738 185.418ZM54.3559 1.39718L54.2044 1.31301L53.7188 2.18717L53.8703 2.27133L54.3559 1.39718ZM55.9558 3.13592C55.6234 2.39936 55.0623 1.78962 54.3559 1.39718L53.8703 2.27133C54.3887 2.55931 54.8004 3.00676 55.0443 3.54725L55.9558 3.13592ZM160.187 234.106L55.9558 3.13592L55.0443 3.54725L159.275 234.517L160.187 234.106ZM161.401 238.883C161.279 237.232 160.868 235.615 160.187 234.106L159.275 234.517C159.908 235.92 160.29 237.422 160.404 238.957L161.401 238.883ZM161.488 240.056L161.401 238.883L160.404 238.957L160.491 240.13L161.488 240.056ZM159.487 247.199C160.968 245.125 161.676 242.598 161.488 240.056L160.491 240.13C160.662 242.439 160.019 244.734 158.673 246.618L159.487 247.199ZM154.307 251.121C156.392 250.37 158.199 249.002 159.487 247.199L158.673 246.618C157.503 248.256 155.862 249.498 153.969 250.18L154.307 251.121ZM125.07 261.646L154.307 251.121L153.969 250.18L124.732 260.705L125.07 261.646ZM121.47 262.275C122.698 262.275 123.916 262.062 125.07 261.646L124.732 260.705C123.686 261.082 122.582 261.275 121.47 261.275V262.275ZM119.751 262.275H121.47V261.275H119.751V262.275ZM114.763 260.068C116.041 261.473 117.852 262.275 119.751 262.275V261.275C118.133 261.275 116.591 260.592 115.503 259.396L114.763 260.068ZM113.383 257.743C113.681 258.603 114.151 259.394 114.763 260.068L115.503 259.396C114.982 258.822 114.582 258.148 114.327 257.415L113.383 257.743ZM97.7601 212.698L113.383 257.743L114.327 257.415L98.7049 212.37L97.7601 212.698ZM97.1241 211.417C97.3896 211.815 97.6033 212.246 97.7601 212.698L98.7049 212.37C98.5203 211.838 98.2687 211.331 97.9562 210.863L97.1241 211.417ZM96.7246 210.818L97.1241 211.417L97.9562 210.863L97.5567 210.263L96.7246 210.818ZM92.0307 208.874C93.8447 208.511 95.6984 209.279 96.7246 210.818L97.5567 210.263C96.3057 208.387 94.046 207.451 91.8345 207.893L92.0307 208.874ZM90.7516 209.336C91.1525 209.119 91.5836 208.963 92.0306 208.874L91.8345 207.893C91.2896 208.002 90.764 208.192 90.2753 208.457L90.7516 209.336ZM34.6066 239.748L90.7516 209.336L90.2753 208.457L34.1303 238.869L34.6066 239.748ZM31.7182 242.337C32.4644 241.259 33.4539 240.372 34.6066 239.748L34.1303 238.869C32.8396 239.568 31.7316 240.561 30.896 241.768L31.7182 242.337ZM30.2957 246.072C30.4605 244.731 30.9486 243.449 31.7182 242.337L30.896 241.768C30.0343 243.013 29.4877 244.448 29.3032 245.951L30.2957 246.072ZM24.9885 289.288L30.2957 246.072L29.3032 245.951L23.996 289.166L24.9885 289.288ZM24.4945 291.477C24.7316 290.766 24.8971 290.032 24.9885 289.288L23.996 289.166C23.9127 289.844 23.7619 290.513 23.5458 291.161L24.4945 291.477ZM22.0261 295.619C23.1382 294.433 23.9803 293.02 24.4945 291.477L23.5458 291.161C23.0773 292.567 22.3099 293.854 21.2965 294.935L22.0261 295.619ZM21.9006 295.753L22.0261 295.619L21.2965 294.935L21.171 295.069L21.9006 295.753ZM16.0074 299.216C18.2638 298.652 20.3098 297.45 21.9006 295.753L21.1711 295.069C19.7118 296.625 17.8348 297.729 15.7648 298.246L16.0074 299.216ZM5.56396 301.827L16.0074 299.216L15.7648 298.246L5.32143 300.857L5.56396 301.827ZM1.14951 299.966C2.04362 301.499 3.84248 302.257 5.56396 301.827L5.32143 300.857C4.03137 301.179 2.68332 300.611 2.01329 299.463L1.14951 299.966ZM0.630366 297.515C0.535743 298.367 0.717768 299.226 1.14952 299.966L2.01329 299.463C1.68975 298.908 1.55334 298.264 1.62425 297.626L0.630366 297.515ZM1.04619 293.773L0.630366 297.515L1.62425 297.626L2.04007 293.883L1.04619 293.773ZM49.1576 3.74877L1.04987 293.746L2.03639 293.91L50.1441 3.91242L49.1576 3.74877ZM51.0064 1.24352C50.0246 1.73444 49.3372 2.66585 49.1576 3.74877L50.1441 3.91242C50.2713 3.14538 50.7582 2.48566 51.4536 2.13795L51.0064 1.24352ZM54.2044 1.31301C53.2152 0.763448 52.0186 0.737446 51.0064 1.24352L51.4536 2.13795C52.1705 1.77949 53.0181 1.79791 53.7188 2.18717L54.2044 1.31301ZM43.4224 186.96H42.9445V187.96H43.4224V186.96ZM45.5876 186.266C44.9558 186.717 44.1988 186.96 43.4224 186.96V187.96C44.4072 187.96 45.3674 187.652 46.1688 187.08L45.5876 186.266ZM72.1117 167.32L45.5876 186.266L46.1688 187.08L72.6929 168.134L72.1117 167.32ZM75.813 162.309C75.1398 164.328 73.844 166.083 72.1117 167.32L72.6929 168.134C74.5973 166.774 76.0217 164.845 76.7617 162.625L75.813 162.309ZM76.3299 159.123C76.3299 160.206 76.1554 161.282 75.813 162.309L76.7617 162.625C77.1381 161.496 77.3299 160.314 77.3299 159.123H76.3299ZM76.3299 157.766V159.123H77.3299V157.766H76.3299ZM75.1477 151.271C75.9295 153.347 76.3299 155.547 76.3299 157.766H77.3299C77.3299 155.427 76.9077 153.107 76.0836 150.918L75.1477 151.271ZM59.1924 108.889L75.1477 151.271L76.0836 150.918L60.1283 108.537L59.1924 108.889ZM58.6782 107.952C58.8931 108.238 59.0662 108.554 59.1924 108.889L60.1283 108.537C59.9688 108.113 59.7499 107.714 59.4782 107.352L58.6782 107.952ZM58.2276 107.351L58.6782 107.952L59.4782 107.352L59.0276 106.751L58.2276 107.351ZM54.747 106.472C55.9694 105.908 57.4198 106.274 58.2276 107.351L59.0276 106.751C57.9369 105.297 55.9785 104.802 54.328 105.564L54.747 106.472ZM53.3898 107.787C53.6797 107.208 54.1584 106.744 54.747 106.472L54.328 105.564C53.5331 105.931 52.8868 106.557 52.4953 107.34L53.3898 107.787ZM51.8492 110.869L53.3898 107.787L52.4953 107.34L50.9548 110.421L51.8492 110.869ZM50.66 114.599C50.8608 113.302 51.262 112.043 51.8492 110.869L50.9548 110.421C50.3212 111.688 49.8884 113.046 49.6718 114.446L50.66 114.599ZM39.9967 183.521L50.66 114.599L49.6718 114.446L39.0084 183.368L39.9967 183.521ZM40.229 185.211C39.9886 184.682 39.9079 184.095 39.9967 183.521L39.0084 183.368C38.8898 184.135 38.9976 184.919 39.3186 185.625L40.229 185.211ZM42.9445 186.96C41.7748 186.96 40.713 186.276 40.229 185.211L39.3186 185.625C39.9649 187.047 41.3826 187.96 42.9445 187.96V186.96Z" fill="black"/>
</svg>
