<svg width="300" height="400" viewBox="0 0 300 400" fill="none" xmlns="http://www.w3.org/2000/svg">
<!-- Back light -->
<g id="backLight" fill="#fff"  filter="url(#filter0_f_84_4754)">
<path fill-rule="evenodd" clip-rule="evenodd" d="M105.538 40C121.512 40 134.462 54.9736 134.462 73.4444C134.462 76.6777 134.064 79.8031 133.324 82.7606C134.531 86.4446 135.194 90.4384 135.194 94.6118C135.194 97.1048 134.957 99.5335 134.51 101.871C145.655 105.624 154.019 116.922 155.19 130.665C159.611 136.538 162.288 144.212 162.288 152.61C162.288 157.291 161.455 161.746 159.954 165.791C163.863 168.79 167.104 172.858 169.367 177.635C175.778 183.769 179.863 193.039 179.863 203.412C179.863 206.386 179.527 209.269 178.896 212.014C185.99 217.776 190.743 227.13 191.179 237.791C196.617 243.872 200 252.396 200 261.834C200 280.305 187.05 295.278 171.075 295.278C155.567 295.278 142.909 281.165 142.185 263.44C136.746 257.359 133.364 248.835 133.364 239.397C133.364 236.423 133.701 233.541 134.331 230.797C130.706 227.852 127.691 223.969 125.552 219.453C119.142 213.318 115.057 204.048 115.057 193.675C115.057 192.269 115.133 190.883 115.279 189.522C113.204 193.713 110.367 197.335 106.987 200.136C111.984 206.147 115.057 214.313 115.057 223.309C115.057 230.378 113.159 236.934 109.922 242.335C109.928 242.625 109.931 242.915 109.931 243.207C109.931 255.303 104.377 265.898 96.0574 271.772C99.7099 277.371 101.876 284.338 101.876 291.892C101.876 298.133 100.396 303.975 97.8213 308.975C97.1778 326.787 84.4876 341 68.9244 341C52.9499 341 40 326.026 40 307.555C40 301.315 41.4799 295.474 44.0537 290.475C44.4685 278.971 49.9079 268.969 57.9013 263.327C54.2488 257.728 52.0823 250.76 52.0823 243.207C52.0823 236.138 53.9807 229.582 57.2179 224.181C57.2115 223.891 57.2081 223.601 57.2081 223.309C57.2081 212.096 61.9814 202.173 69.3061 196.105C64.3087 190.094 61.2356 181.928 61.2356 172.931C61.2356 166.437 62.838 160.377 65.6081 155.246C65.3815 153.559 65.263 151.831 65.263 150.07C65.263 135.023 73.8573 122.298 85.6793 118.097C80.5268 112.058 77.3454 103.765 77.3454 94.6118C77.3454 91.3785 77.7435 88.2531 78.4839 85.2957C77.2761 81.6117 76.6131 77.6178 76.6131 73.4444C76.6131 54.9736 89.563 40 105.538 40Z"/>
</g>
<defs>
<filter id="filter0_f_84_4754" x="0" y="0" width="240" height="381" filterUnits="userSpaceOnUse" color-interpolation-filters="sRGB">
<feFlood flood-opacity="0" result="BackgroundImageFix"/>
<feBlend mode="normal" in="SourceGraphic" in2="BackgroundImageFix" result="shape"/>
<feGaussianBlur stdDeviation="20" result="effect1_foregroundBlur_84_4754"/>
</filter>
</defs>
<!-- Letter -->
<g id="letter" transform="translate(20,25)">
<g id="side" fill="#fff">
<path d="M41.0509 234.901L36.0361 237.913C31.7039 240.514 29.0055 245.153 28.8852 250.205L25.6011 280.921L24.5553 289.907C24.3777 291.433 23.83 292.892 22.9598 294.158C21.8852 295.721 20.364 296.923 18.595 297.608L15.1045 298.959C13.6597 299.518 12.1458 299.88 10.6041 300.033L10.5171 300.041C9.03311 300.188 7.57585 300.536 6.18509 301.074L5.13721 301.48L4.61327 301.683L4.3513 301.784C4.29306 301.807 4.30766 301.893 4.37008 301.895L37.2143 303C38.1397 303.031 39.0616 302.872 39.9231 302.533L41.1997 302.03C45.1839 300.46 48.1768 297.079 49.2515 292.934L49.434 292.23L55.6536 251.938L55.7134 251.439C56.1875 247.489 58.4614 243.979 61.8733 241.932L97.6776 224.52C99.9269 223.427 101.355 221.145 101.355 218.644C101.355 217.773 101.18 216.91 100.842 216.108L99.5118 212.947C99.2988 212.441 99.029 211.961 98.7076 211.516C96.894 209.005 93.6851 207.924 90.7218 208.826L90.1965 208.986C89.704 209.136 89.2272 209.333 88.7725 209.574L41.0509 234.901Z" class="side" id="downSide" stroke="#000"/>
<path d="M155.584 249.297L151.89 251.486L138.755 256.979L130.642 259.548L126.586 260.832L124.558 261.475L123.544 261.796L123.036 261.956L122.783 262.037C122.721 262.056 122.728 262.146 122.793 262.155L144.651 265.359C145.498 265.483 146.362 265.394 147.165 265.1L172.475 255.835C174.935 254.934 177.121 253.413 178.819 251.419L179.149 251.032C181.278 248.532 182.447 245.357 182.447 242.073C182.447 240.08 182.016 238.109 181.182 236.298L88.6118 35.1506L80.9481 17.1956C79.7752 14.4478 77.7943 12.1218 75.2682 10.5264C74.431 9.9976 73.5425 9.55461 72.6163 9.20416L64.0036 5.9453L59.0008 4.05236L56.4994 3.10589L55.2487 2.63266L54.6234 2.39604L54.3107 2.27773L54.1544 2.21858C54.0966 2.19673 54.0413 2.25556 54.0666 2.31186L91.2821 85.0344L154.839 223.159L160.127 235.064C161.265 237.627 161.404 240.522 160.517 243.182C159.662 245.747 157.911 247.919 155.584 249.297Z" class="side" id="upSide" stroke="#000"/>
<path d="M52.2958 107.504L51.8762 108.023C51.3231 108.706 50.9583 109.522 50.8178 110.389L39.1367 182.553C38.9614 183.636 39.215 184.745 39.8437 185.644C40.9667 187.25 43.048 187.872 44.8677 187.144L45.9624 186.706C46.3797 186.539 46.7758 186.323 47.1425 186.063L65.6174 172.97C66.1762 172.574 66.56 171.977 66.6885 171.304L66.8886 170.255L67.289 168.159L68.0897 163.965L69.6911 155.577L70.908 148.547L71.5165 145.031L71.8207 143.273L71.9728 142.395C72.0724 141.819 72.0179 141.227 71.8147 140.679L59.9753 108.764C59.7838 108.248 59.4988 107.772 59.1346 107.359C57.3011 105.281 54.0395 105.35 52.2958 107.504Z" class="side" id="withinSide" stroke="#000"/>
</g>
<g id="shadow" fill="rgba(0, 0, 0, 0.2)">
<path d="M41.0509 234.901L36.0361 237.913C31.7039 240.514 29.0055 245.153 28.8852 250.205L25.6011 280.921L24.5553 289.907C24.3777 291.433 23.83 292.892 22.9598 294.158C21.8852 295.721 20.364 296.923 18.595 297.608L15.1045 298.959C13.6597 299.518 12.1458 299.88 10.6041 300.033L10.5171 300.041C9.03311 300.188 7.57585 300.536 6.18509 301.074L5.13721 301.48L4.61327 301.683L4.3513 301.784C4.29306 301.807 4.30766 301.893 4.37008 301.895L37.2143 303C38.1397 303.031 39.0616 302.872 39.9231 302.533L41.1997 302.03C45.1839 300.46 48.1768 297.079 49.2515 292.934L49.434 292.23L55.6536 251.938L55.7134 251.439C56.1875 247.489 58.4614 243.979 61.8733 241.932L97.6776 224.52C99.9269 223.427 101.355 221.145 101.355 218.644C101.355 217.773 101.18 216.91 100.842 216.108L99.5118 212.947C99.2988 212.441 99.029 211.961 98.7076 211.516C96.894 209.005 93.6851 207.924 90.7218 208.826L90.1965 208.986C89.704 209.136 89.2272 209.333 88.7725 209.574L41.0509 234.901Z" class="shadow" id="downShadow"/>
<path d="M155.584 249.297L151.89 251.486L138.755 256.979L130.642 259.548L126.586 260.832L124.558 261.475L123.544 261.796L123.036 261.956L122.783 262.037C122.721 262.056 122.728 262.146 122.793 262.155L144.651 265.359C145.498 265.483 146.362 265.394 147.165 265.1L172.475 255.835C174.935 254.934 177.121 253.413 178.819 251.419L179.149 251.032C181.278 248.532 182.447 245.357 182.447 242.073C182.447 240.08 182.016 238.109 181.182 236.298L88.6118 35.1506L80.9481 17.1956C79.7752 14.4478 77.7943 12.1218 75.2682 10.5264C74.431 9.9976 73.5425 9.55461 72.6163 9.20416L64.0036 5.9453L59.0008 4.05236L56.4994 3.10589L55.2487 2.63266L54.6234 2.39604L54.3107 2.27773L54.1544 2.21858C54.0966 2.19673 54.0413 2.25556 54.0666 2.31186L91.2821 85.0344L154.839 223.159L160.127 235.064C161.265 237.627 161.404 240.522 160.517 243.182C159.662 245.747 157.911 247.919 155.584 249.297Z" class="shadow" id="upShadow"/>
<path d="M52.2958 107.504L51.8762 108.023C51.3231 108.706 50.9583 109.522 50.8178 110.389L39.1367 182.553C38.9614 183.636 39.215 184.745 39.8437 185.644C40.9667 187.25 43.048 187.872 44.8677 187.144L45.9624 186.706C46.3797 186.539 46.7758 186.323 47.1425 186.063L65.6174 172.97C66.1762 172.574 66.56 171.977 66.6885 171.304L66.8886 170.255L67.289 168.159L68.0897 163.965L69.6911 155.577L70.908 148.547L71.5165 145.031L71.8207 143.273L71.9728 142.395C72.0724 141.819 72.0179 141.227 71.8147 140.679L59.9753 108.764C59.7838 108.248 59.4988 107.772 59.1346 107.359C57.3011 105.281 54.0395 105.35 52.2958 107.504Z" class="shadow" id="withinShadow"/>
</g>
<!-- Side light -->
<g id="sideLight" fill="rgba(255, 255, 255, 0.2)">
<path d="M41.0509 234.901L36.0361 237.913C31.7039 240.514 29.0055 245.153 28.8852 250.205L25.6011 280.921L24.5553 289.907C24.3777 291.433 23.83 292.892 22.9598 294.158C21.8852 295.721 20.364 296.923 18.595 297.608L15.1045 298.959C13.6597 299.518 12.1458 299.88 10.6041 300.033L10.5171 300.041C9.03311 300.188 7.57585 300.536 6.18509 301.074L5.13721 301.48L4.61327 301.683L4.3513 301.784C4.29306 301.807 4.30766 301.893 4.37008 301.895L37.2143 303C38.1397 303.031 39.0616 302.872 39.9231 302.533L41.1997 302.03C45.1839 300.46 48.1768 297.079 49.2515 292.934L49.434 292.23L55.6536 251.938L55.7134 251.439C56.1875 247.489 58.4614 243.979 61.8733 241.932L97.6776 224.52C99.9269 223.427 101.355 221.145 101.355 218.644C101.355 217.773 101.18 216.91 100.842 216.108L99.5118 212.947C99.2988 212.441 99.029 211.961 98.7076 211.516C96.894 209.005 93.6851 207.924 90.7218 208.826L90.1965 208.986C89.704 209.136 89.2272 209.333 88.7725 209.574L41.0509 234.901Z"/>
<path d="M155.584 249.297L151.89 251.486L138.755 256.979L130.642 259.548L126.586 260.832L124.558 261.475L123.544 261.796L123.036 261.956L122.783 262.037C122.721 262.056 122.728 262.146 122.793 262.155L144.651 265.359C145.498 265.483 146.362 265.394 147.165 265.1L172.475 255.835C174.935 254.934 177.121 253.413 178.819 251.419L179.149 251.032C181.278 248.532 182.447 245.357 182.447 242.073C182.447 240.08 182.016 238.109 181.182 236.298L88.6118 35.1506L80.9481 17.1956C79.7752 14.4478 77.7943 12.1218 75.2682 10.5264C74.431 9.9976 73.5425 9.55461 72.6163 9.20416L64.0036 5.9453L59.0008 4.05236L56.4994 3.10589L55.2487 2.63266L54.6234 2.39604L54.3107 2.27773L54.1544 2.21858C54.0966 2.19673 54.0413 2.25556 54.0666 2.31186L91.2821 85.0344L154.839 223.159L160.127 235.064C161.265 237.627 161.404 240.522 160.517 243.182C159.662 245.747 157.911 247.919 155.584 249.297Z"/>
<path d="M52.2958 107.504L51.8762 108.023C51.3231 108.706 50.9583 109.522 50.8178 110.389L39.1367 182.553C38.9614 183.636 39.215 184.745 39.8437 185.644C40.9667 187.25 43.048 187.872 44.8677 187.144L45.9624 186.706C46.3797 186.539 46.7758 186.323 47.1425 186.063L65.6174 172.97C66.1762 172.574 66.56 171.977 66.6885 171.304L66.8886 170.255L67.289 168.159L68.0897 163.965L69.6911 155.577L70.908 148.547L71.5165 145.031L71.8207 143.273L71.9728 142.395C72.0724 141.819 72.0179 141.227 71.8147 140.679L59.9753 108.764C59.7838 108.248 59.4988 107.772 59.1346 107.359C57.3011 105.281 54.0395 105.35 52.2958 107.504Z"/>
</g>
<!-- Face -->
<path fill-rule="evenodd" clip-rule="evenodd" d="M53.9616 1.75009L54.1131 1.83426C54.7255 2.17446 55.2119 2.70306 55.5 3.34159L159.731 234.311C160.388 235.767 160.785 237.327 160.903 238.92L160.99 240.093C161.169 242.518 160.494 244.93 159.08 246.909C157.851 248.629 156.127 249.934 154.138 250.65L124.901 261.176C123.801 261.572 122.64 261.775 121.47 261.775H119.751C117.992 261.775 116.316 261.033 115.133 259.732C114.566 259.108 114.131 258.376 113.855 257.579L98.2325 212.534C98.0618 212.042 97.8291 211.573 97.5402 211.14L97.1407 210.541C96.0021 208.833 93.9454 207.981 91.9326 208.383C91.4366 208.483 90.9582 208.656 90.5134 208.896L34.3685 239.308C33.1467 239.97 32.098 240.91 31.3071 242.053C30.4915 243.231 29.9741 244.589 29.7994 246.012L24.4922 289.227C24.4049 289.938 24.2467 290.639 24.0201 291.319C23.5288 292.793 22.7241 294.143 21.6613 295.277L21.5358 295.411C20.0108 297.038 18.0493 298.19 15.8861 298.731L5.4427 301.342C3.93692 301.718 2.36347 301.055 1.5814 299.715C1.20376 299.067 1.04454 298.315 1.12731 297.57L1.54313 293.828L49.6508 3.8306C49.8043 2.90562 50.3914 2.11005 51.23 1.69073C52.0945 1.25847 53.1167 1.28068 53.9616 1.75009ZM42.9445 187.46H43.4224C44.303 187.46 45.1616 187.185 45.8782 186.673L72.4023 167.727C74.2206 166.428 75.5807 164.587 76.2874 162.467C76.6467 161.389 76.8299 160.26 76.8299 159.123V157.766C76.8299 155.487 76.4186 153.227 75.6157 151.094L59.6603 108.713C59.5175 108.334 59.3215 107.976 59.0782 107.652L58.6276 107.051C57.6784 105.785 55.974 105.355 54.5375 106.018C53.8458 106.337 53.2833 106.882 52.9426 107.564L51.402 110.645C50.7916 111.866 50.3746 113.174 50.1659 114.523L39.5025 183.444C39.3988 184.115 39.4931 184.801 39.7738 185.418C40.3389 186.662 41.5787 187.46 42.9445 187.46Z" id="face" fill="#fff" stroke="#000"/>
<!-- Face light -->
<path fill-rule="evenodd" clip-rule="evenodd" d="M53.9616 1.75009L54.1131 1.83426C54.7255 2.17446 55.2119 2.70306 55.5 3.34159L159.731 234.311C160.388 235.767 160.785 237.327 160.903 238.92L160.99 240.093C161.169 242.518 160.494 244.93 159.08 246.909C157.851 248.629 156.127 249.934 154.138 250.65L124.901 261.176C123.801 261.572 122.64 261.775 121.47 261.775H119.751C117.992 261.775 116.316 261.033 115.133 259.732C114.566 259.108 114.131 258.376 113.855 257.579L98.2325 212.534C98.0618 212.042 97.8291 211.573 97.5402 211.14L97.1407 210.541C96.0021 208.833 93.9454 207.981 91.9326 208.383C91.4366 208.483 90.9582 208.656 90.5134 208.896L34.3685 239.308C33.1467 239.97 32.098 240.91 31.3071 242.053C30.4915 243.231 29.9741 244.589 29.7994 246.012L24.4922 289.227C24.4049 289.938 24.2467 290.639 24.0201 291.319C23.5288 292.793 22.7241 294.143 21.6613 295.277L21.5358 295.411C20.0108 297.038 18.0493 298.19 15.8861 298.731L5.4427 301.342C3.93692 301.718 2.36347 301.055 1.5814 299.715C1.20376 299.067 1.04454 298.315 1.12731 297.57L1.54313 293.828L49.6508 3.8306C49.8043 2.90562 50.3914 2.11005 51.23 1.69073C52.0945 1.25847 53.1167 1.28068 53.9616 1.75009ZM42.9445 187.46H43.4224C44.303 187.46 45.1616 187.185 45.8782 186.673L72.4023 167.727C74.2206 166.428 75.5807 164.587 76.2874 162.467C76.6467 161.389 76.8299 160.26 76.8299 159.123V157.766C76.8299 155.487 76.4186 153.227 75.6157 151.094L59.6603 108.713C59.5175 108.334 59.3215 107.976 59.0782 107.652L58.6276 107.051C57.6784 105.785 55.974 105.355 54.5375 106.018C53.8458 106.337 53.2833 106.882 52.9426 107.564L51.402 110.645C50.7916 111.866 50.3746 113.174 50.1659 114.523L39.5025 183.444C39.3988 184.115 39.4931 184.801 39.7738 185.418C40.3389 186.662 41.5787 187.46 42.9445 187.46Z"  fill="rgba(255, 255, 255, 0.2)" id="faceLight"/>
</g>
</svg>
