<svg width="183" height="304" viewBox="0 0 183 304" fill="none" xmlns="http://www.w3.org/2000/svg">
<path d="M41.0509 234.901L36.0361 237.913C31.7039 240.514 29.0055 245.153 28.8852 250.205L25.6011 280.921L24.5553 289.907C24.3777 291.433 23.83 292.892 22.9598 294.158C21.8852 295.721 20.364 296.923 18.595 297.608L15.1045 298.959C13.6597 299.518 12.1458 299.88 10.6041 300.033L10.5171 300.041C9.03311 300.188 7.57585 300.536 6.18509 301.074L5.13721 301.48L4.61327 301.683L4.3513 301.784C4.29306 301.807 4.30766 301.893 4.37008 301.895L37.2143 303C38.1397 303.031 39.0616 302.872 39.9231 302.533L41.1997 302.03C45.1839 300.46 48.1768 297.079 49.2515 292.934L49.434 292.23L55.6536 251.938L55.7134 251.439C56.1875 247.489 58.4614 243.979 61.8733 241.932L97.6776 224.52C99.9269 223.427 101.355 221.145 101.355 218.644C101.355 217.773 101.18 216.91 100.842 216.108L99.5118 212.947C99.2988 212.441 99.029 211.961 98.7076 211.516C96.894 209.005 93.6851 207.924 90.7218 208.826L90.1965 208.986C89.704 209.136 89.2272 209.333 88.7725 209.574L41.0509 234.901Z" class="side" id="downSide" fill="#fff" stroke="#000"/>
<path d="M155.584 249.297L151.89 251.486L138.755 256.979L130.642 259.548L126.586 260.832L124.558 261.475L123.544 261.796L123.036 261.956L122.783 262.037C122.721 262.056 122.728 262.146 122.793 262.155L144.651 265.359C145.498 265.483 146.362 265.394 147.165 265.1L172.475 255.835C174.935 254.934 177.121 253.413 178.819 251.419L179.149 251.032C181.278 248.532 182.447 245.357 182.447 242.073C182.447 240.08 182.016 238.109 181.182 236.298L88.6118 35.1506L80.9481 17.1956C79.7752 14.4478 77.7943 12.1218 75.2682 10.5264C74.431 9.9976 73.5425 9.55461 72.6163 9.20416L64.0036 5.9453L59.0008 4.05236L56.4994 3.10589L55.2487 2.63266L54.6234 2.39604L54.3107 2.27773L54.1544 2.21858C54.0966 2.19673 54.0413 2.25556 54.0666 2.31186L91.2821 85.0344L154.839 223.159L160.127 235.064C161.265 237.627 161.404 240.522 160.517 243.182C159.662 245.747 157.911 247.919 155.584 249.297Z" class="side" id="upSide" fill="#fff" stroke="#000"/>
<path d="M52.2958 107.504L51.8762 108.023C51.3231 108.706 50.9583 109.522 50.8178 110.389L39.1367 182.553C38.9614 183.636 39.215 184.745 39.8437 185.644C40.9667 187.25 43.048 187.872 44.8677 187.144L45.9624 186.706C46.3797 186.539 46.7758 186.323 47.1425 186.063L65.6174 172.97C66.1762 172.574 66.56 171.977 66.6885 171.304L66.8886 170.255L67.289 168.159L68.0897 163.965L69.6911 155.577L70.908 148.547L71.5165 145.031L71.8207 143.273L71.9728 142.395C72.0724 141.819 72.0179 141.227 71.8147 140.679L59.9753 108.764C59.7838 108.248 59.4988 107.772 59.1346 107.359C57.3011 105.281 54.0395 105.35 52.2958 107.504Z" class="side" id="withinSide" fill="#fff" stroke="#000"/>
<path d="M41.0509 234.901L36.0361 237.913C31.7039 240.514 29.0055 245.153 28.8852 250.205L25.6011 280.921L24.5553 289.907C24.3777 291.433 23.83 292.892 22.9598 294.158C21.8852 295.721 20.364 296.923 18.595 297.608L15.1045 298.959C13.6597 299.518 12.1458 299.88 10.6041 300.033L10.5171 300.041C9.03311 300.188 7.57585 300.536 6.18509 301.074L5.13721 301.48L4.61327 301.683L4.3513 301.784C4.29306 301.807 4.30766 301.893 4.37008 301.895L37.2143 303C38.1397 303.031 39.0616 302.872 39.9231 302.533L41.1997 302.03C45.1839 300.46 48.1768 297.079 49.2515 292.934L49.434 292.23L55.6536 251.938L55.7134 251.439C56.1875 247.489 58.4614 243.979 61.8733 241.932L97.6776 224.52C99.9269 223.427 101.355 221.145 101.355 218.644C101.355 217.773 101.18 216.91 100.842 216.108L99.5118 212.947C99.2988 212.441 99.029 211.961 98.7076 211.516C96.894 209.005 93.6851 207.924 90.7218 208.826L90.1965 208.986C89.704 209.136 89.2272 209.333 88.7725 209.574L41.0509 234.901Z" class="shadow" id="downShadow" fill="rgba(169, 169, 169, 0.5)" stroke="#000"/>
<path d="M155.584 249.297L151.89 251.486L138.755 256.979L130.642 259.548L126.586 260.832L124.558 261.475L123.544 261.796L123.036 261.956L122.783 262.037C122.721 262.056 122.728 262.146 122.793 262.155L144.651 265.359C145.498 265.483 146.362 265.394 147.165 265.1L172.475 255.835C174.935 254.934 177.121 253.413 178.819 251.419L179.149 251.032C181.278 248.532 182.447 245.357 182.447 242.073C182.447 240.08 182.016 238.109 181.182 236.298L88.6118 35.1506L80.9481 17.1956C79.7752 14.4478 77.7943 12.1218 75.2682 10.5264C74.431 9.9976 73.5425 9.55461 72.6163 9.20416L64.0036 5.9453L59.0008 4.05236L56.4994 3.10589L55.2487 2.63266L54.6234 2.39604L54.3107 2.27773L54.1544 2.21858C54.0966 2.19673 54.0413 2.25556 54.0666 2.31186L91.2821 85.0344L154.839 223.159L160.127 235.064C161.265 237.627 161.404 240.522 160.517 243.182C159.662 245.747 157.911 247.919 155.584 249.297Z" class="shadow" id="upShadow" fill="rgba(169, 169, 169, 0.5)" stroke="#000"/>
<path d="M52.2958 107.504L51.8762 108.023C51.3231 108.706 50.9583 109.522 50.8178 110.389L39.1367 182.553C38.9614 183.636 39.215 184.745 39.8437 185.644C40.9667 187.25 43.048 187.872 44.8677 187.144L45.9624 186.706C46.3797 186.539 46.7758 186.323 47.1425 186.063L65.6174 172.97C66.1762 172.574 66.56 171.977 66.6885 171.304L66.8886 170.255L67.289 168.159L68.0897 163.965L69.6911 155.577L70.908 148.547L71.5165 145.031L71.8207 143.273L71.9728 142.395C72.0724 141.819 72.0179 141.227 71.8147 140.679L59.9753 108.764C59.7838 108.248 59.4988 107.772 59.1346 107.359C57.3011 105.281 54.0395 105.35 52.2958 107.504Z" class="shadow" id="withinShadow" fill="rgba(169, 169, 169, 0.5)" stroke="#000"/>
<path fill-rule="evenodd" clip-rule="evenodd" d="M53.9616 1.75009L54.1131 1.83426C54.7255 2.17446 55.2119 2.70306 55.5 3.34159L159.731 234.311C160.388 235.767 160.785 237.327 160.903 238.92L160.99 240.093C161.169 242.518 160.494 244.93 159.08 246.909C157.851 248.629 156.127 249.934 154.138 250.65L124.901 261.176C123.801 261.572 122.64 261.775 121.47 261.775H119.751C117.992 261.775 116.316 261.033 115.133 259.732C114.566 259.108 114.131 258.376 113.855 257.579L98.2325 212.534C98.0618 212.042 97.8291 211.573 97.5402 211.14L97.1407 210.541C96.0021 208.833 93.9454 207.981 91.9326 208.383C91.4366 208.483 90.9582 208.656 90.5134 208.896L34.3685 239.308C33.1467 239.97 32.098 240.91 31.3071 242.053C30.4915 243.231 29.9741 244.589 29.7994 246.012L24.4922 289.227C24.4049 289.938 24.2467 290.639 24.0201 291.319C23.5288 292.793 22.7241 294.143 21.6613 295.277L21.5358 295.411C20.0108 297.038 18.0493 298.19 15.8861 298.731L5.4427 301.342C3.93692 301.718 2.36347 301.055 1.5814 299.715C1.20376 299.067 1.04454 298.315 1.12731 297.57L1.54313 293.828L49.6508 3.8306C49.8043 2.90562 50.3914 2.11005 51.23 1.69073C52.0945 1.25847 53.1167 1.28068 53.9616 1.75009ZM42.9445 187.46H43.4224C44.303 187.46 45.1616 187.185 45.8782 186.673L72.4023 167.727C74.2206 166.428 75.5807 164.587 76.2874 162.467C76.6467 161.389 76.8299 160.26 76.8299 159.123V157.766C76.8299 155.487 76.4186 153.227 75.6157 151.094L59.6603 108.713C59.5175 108.334 59.3215 107.976 59.0782 107.652L58.6276 107.051C57.6784 105.785 55.974 105.355 54.5375 106.018C53.8458 106.337 53.2833 106.882 52.9426 107.564L51.402 110.645C50.7916 111.866 50.3746 113.174 50.1659 114.523L39.5025 183.444C39.3988 184.115 39.4931 184.801 39.7738 185.418C40.3389 186.662 41.5787 187.46 42.9445 187.46Z" id="face" fill="#fff" stroke="#000"/>
</svg>
