<svg width="236" height="381" viewBox="0 0 236 381" fill="none" xmlns="http://www.w3.org/2000/svg">
<g filter="url(#filter0_f_84_4436)">
<path fill-rule="evenodd" clip-rule="evenodd" d="M101.538 40C117.512 40 130.462 54.9736 130.462 73.4444C130.462 76.6777 130.064 79.8031 129.324 82.7606C130.531 86.4446 131.194 90.4384 131.194 94.6118C131.194 97.1048 130.957 99.5335 130.51 101.871C141.655 105.624 150.019 116.922 151.19 130.665C155.611 136.538 158.288 144.212 158.288 152.61C158.288 157.291 157.455 161.746 155.954 165.791C159.863 168.79 163.104 172.858 165.367 177.635C171.778 183.769 175.863 193.039 175.863 203.412C175.863 206.386 175.527 209.269 174.896 212.014C181.99 217.776 186.743 227.13 187.179 237.791C192.617 243.872 196 252.396 196 261.834C196 280.305 183.05 295.278 167.075 295.278C151.567 295.278 138.909 281.165 138.185 263.44C132.746 257.359 129.364 248.835 129.364 239.397C129.364 236.423 129.701 233.541 130.331 230.797C126.706 227.852 123.691 223.969 121.552 219.453C115.142 213.318 111.057 204.048 111.057 193.675C111.057 192.269 111.133 190.883 111.279 189.522C109.204 193.713 106.367 197.335 102.987 200.136C107.984 206.147 111.057 214.313 111.057 223.309C111.057 230.378 109.159 236.934 105.922 242.335C105.928 242.625 105.931 242.915 105.931 243.207C105.931 255.303 100.377 265.898 92.0574 271.772C95.7099 277.371 97.8764 284.338 97.8764 291.892C97.8764 298.133 96.3959 303.975 93.8213 308.975C93.1778 326.787 80.4876 341 64.9244 341C48.9499 341 36 326.026 36 307.555C36 301.315 37.4799 295.474 40.0537 290.475C40.4685 278.971 45.9079 268.969 53.9013 263.327C50.2488 257.728 48.0823 250.76 48.0823 243.207C48.0823 236.138 49.9807 229.582 53.2179 224.181C53.2115 223.891 53.2081 223.601 53.2081 223.309C53.2081 212.096 57.9814 202.173 65.3061 196.105C60.3087 190.094 57.2356 181.928 57.2356 172.931C57.2356 166.437 58.838 160.377 61.6081 155.246C61.3815 153.559 61.263 151.831 61.263 150.07C61.263 135.023 69.8573 122.298 81.6793 118.097C76.5268 112.058 73.3454 103.765 73.3454 94.6118C73.3454 91.3785 73.7435 88.2531 74.4839 85.2957C73.2761 81.6117 72.6131 77.6178 72.6131 73.4444C72.6131 54.9736 85.563 40 101.538 40Z" fill="#0000FF"/>
</g>
<defs>
<filter id="filter0_f_84_4436" x="-4" y="0" width="240" height="381" filterUnits="userSpaceOnUse" color-interpolation-filters="sRGB">
<feFlood flood-opacity="0" result="BackgroundImageFix"/>
<feBlend mode="normal" in="SourceGraphic" in2="BackgroundImageFix" result="shape"/>
<feGaussianBlur stdDeviation="20" result="effect1_foregroundBlur_84_4436"/>
</filter>
</defs>
</svg>
