<svg width="180" height="303" viewBox="0 0 180 303" fill="none" xmlns="http://www.w3.org/2000/svg">
<path d="M37.9616 233.742L32.9467 236.753C28.6146 239.355 25.9161 243.993 25.7958 249.045L22.5117 279.761L21.4659 288.747C21.2884 290.273 20.7407 291.732 19.8705 292.998C18.7958 294.561 17.2746 295.764 15.5056 296.449L12.0151 297.8C10.5703 298.359 9.05642 298.72 7.5147 298.873L7.42779 298.882C5.94375 299.029 4.4865 299.377 3.09573 299.915L2.04785 300.321L1.52392 300.523L1.26195 300.625C1.2037 300.647 1.21831 300.734 1.28073 300.736L34.125 301.84C35.0504 301.871 35.9723 301.712 36.8338 301.373L38.1103 300.87C42.0946 299.301 45.0875 295.92 46.1621 291.775L46.3446 291.071L52.5643 250.778L52.6241 250.28C53.0981 246.329 55.372 242.82 58.7839 240.773L94.5882 223.361C96.8376 222.267 98.2652 219.985 98.2652 217.484C98.2652 216.613 98.0911 215.751 97.7531 214.948L96.4224 211.788C96.2094 211.282 95.9396 210.802 95.6182 210.357C93.8047 207.846 90.5958 206.765 87.6325 207.667L87.1071 207.827C86.6147 207.976 86.1378 208.173 85.6832 208.415L37.9616 233.742Z" fill="white" stroke="black"/>
<path d="M152.495 248.138L148.801 250.327L135.665 255.819L127.553 258.388L123.496 259.673L121.468 260.315L120.454 260.636L119.947 260.797L119.694 260.877C119.632 260.897 119.639 260.987 119.703 260.996L141.562 264.2C142.408 264.324 143.272 264.235 144.075 263.941L169.386 254.675C171.846 253.775 174.031 252.254 175.73 250.26L176.06 249.872C178.189 247.373 179.358 244.197 179.358 240.914C179.358 238.92 178.927 236.95 178.093 235.139L85.5224 33.9912L77.8587 16.0362C76.6859 13.2884 74.7049 10.9624 72.1789 9.36699C71.3416 8.83818 70.4531 8.39519 69.5269 8.04473L60.9142 4.78588L55.9115 2.89294L53.4101 1.94647L52.1594 1.47323L51.534 1.23662L51.2214 1.11831L51.065 1.05915C51.0073 1.03731 50.9519 1.09614 50.9773 1.15244L88.1928 83.875L151.75 222L157.037 233.905C158.175 236.467 158.315 239.362 157.428 242.022C156.573 244.588 154.821 246.759 152.495 248.138Z" fill="white" stroke="black"/>
<path d="M52.2958 106.345L51.8762 106.863C51.3231 107.546 50.9583 108.362 50.8178 109.23L39.1367 181.394C38.9614 182.477 39.215 183.586 39.8437 184.485C40.9667 186.091 43.048 186.712 44.8677 185.984L45.9624 185.546C46.3797 185.38 46.7758 185.164 47.1425 184.904L65.6174 171.81C66.1762 171.414 66.56 170.817 66.6885 170.145L66.8886 169.096L67.289 166.999L68.0897 162.806L69.6911 154.418L70.908 147.387L71.5165 143.872L71.8207 142.114L71.9728 141.235C72.0724 140.659 72.0179 140.068 71.8147 139.52L59.9753 107.605C59.7838 107.089 59.4988 106.612 59.1346 106.2C57.3011 104.122 54.0395 104.191 52.2958 106.345Z" fill="white" stroke="black"/>
</svg>
