<svg width="254" height="24" viewBox="0 0 254 24" fill="none" xmlns="http://www.w3.org/2000/svg">
<path fill-rule="evenodd" clip-rule="evenodd" d="M9.93443 2.42305V5.88531H5.01188V8.50004H9.48692V11.9619H5.01188V18.1335H0.936523V2.42305H9.93443ZM12.0071 7.60503H15.7755V13.4929C15.7755 14.1683 15.9641 14.6791 16.3408 15.0242C16.6391 15.2915 17.0784 15.4249 17.6598 15.4249C18.2406 15.4249 18.6883 15.2758 19.0023 14.9774C19.3632 14.6161 19.544 14.1211 19.544 13.4929V7.60503H23.3124V14.1763C23.3124 15.3696 22.975 16.312 22.2997 17.0026C21.3417 17.992 19.8265 18.4868 17.754 18.4868C15.5243 18.4868 13.9385 17.9842 12.9963 16.9794C12.3368 16.2883 12.0071 15.3538 12.0071 14.1763V7.60503ZM32.2154 10.6905H30.0721V18.1335H26.3037V10.6905H25.1025V7.60503H26.3037V4.1424H30.0721V7.60503H32.2154V10.6905ZM33.6293 7.60503H37.3978V13.4929C37.3978 14.1683 37.5863 14.6791 37.963 15.0242C38.2614 15.2915 38.7007 15.4249 39.282 15.4249C39.863 15.4249 40.3104 15.2758 40.6245 14.9774C40.9854 14.6161 41.1662 14.1211 41.1662 13.4929V7.60503H44.9347V14.1763C44.9347 15.3696 44.5972 16.312 43.9219 17.0026C42.9639 17.992 41.4487 18.4868 39.3762 18.4868C37.1467 18.4868 35.5607 17.9842 34.6185 16.9794C33.9589 16.2883 33.6293 15.3538 33.6293 14.1763V7.60503ZM47.5255 18.1335V7.60503H51.2939V9.32439C51.6395 8.66472 52.1339 8.17787 52.7778 7.86375C53.2962 7.5812 53.9479 7.44016 54.7327 7.44016C54.7648 7.44016 54.8044 7.44017 54.8511 7.45479C54.8979 7.45479 54.9794 7.47068 55.0981 7.47799C55.2165 7.47799 55.3451 7.49262 55.4863 7.49262V11.0491C54.9843 10.798 54.4428 10.6723 53.8619 10.6723C53.124 10.6723 52.5504 10.8608 52.1418 11.2375C51.5767 11.7558 51.2947 12.5563 51.2947 13.6399V18.1389L47.5255 18.1335ZM65.3086 8.61744V7.60503H69.0771V18.1335H65.3086V16.9794C64.5864 17.9842 63.495 18.4868 62.0348 18.4868C60.5584 18.4868 59.2945 17.9291 58.242 16.8145C57.2373 15.7468 56.7346 14.4588 56.7346 12.9515C56.7346 11.2241 57.2769 9.81877 58.3605 8.73521C59.3495 7.74622 60.6136 7.25138 62.1525 7.25138C63.44 7.25138 64.4924 7.7068 65.3086 8.61744ZM63.0004 10.4549C62.3723 10.4549 61.8228 10.6826 61.3517 11.138C60.849 11.6248 60.598 12.1977 60.598 12.857C60.598 13.548 60.8407 14.1213 61.3275 14.5767C61.8301 15.0478 62.3957 15.2836 63.024 15.2836C63.6679 15.2836 64.2329 15.0397 64.7198 14.5528C65.1909 14.0817 65.4264 13.5166 65.4264 12.857C65.4264 12.1821 65.1831 11.6091 64.6962 11.138C64.2093 10.6826 63.6443 10.4549 63.0004 10.4549ZM84.1516 12.928H81.5843V18.1335H77.509V2.42305H84.0103C85.6905 2.42305 87.0169 2.89408 87.9907 3.83586C88.9639 4.77807 89.451 6.0504 89.451 7.65213C89.451 9.34771 88.9878 10.6513 88.0614 11.5619C87.1348 12.4727 85.8317 12.928 84.1516 12.928ZM81.5843 5.72044V9.63057H82.9504C83.7356 9.63057 84.3081 9.46587 84.669 9.13596C85.0146 8.83763 85.1879 8.35855 85.1879 7.69888C85.1879 7.07064 85.0303 6.59969 84.7161 6.28571C84.355 5.90903 83.7741 5.72044 82.9732 5.72044H81.5843ZM101.251 5.88531H97.9065V18.1335H93.8318V5.88531H90.4873V2.42305H101.251V5.88531ZM115.1 18.1335H108.552V2.42305H114.629C116.184 2.42305 117.33 2.83114 118.068 3.64779C118.712 4.35423 119.034 5.336 119.034 6.5919C119.034 7.28299 118.885 7.92692 118.587 8.52359C118.272 9.10447 117.848 9.51256 117.315 9.74834C118.194 9.84189 118.909 10.1563 119.458 10.6905C120.164 11.3655 120.518 12.3233 120.518 13.5639C120.518 14.8512 120.133 15.8802 119.364 16.6497C118.406 17.6387 116.984 18.1335 115.1 18.1335ZM112.628 5.55557V8.61744H113.381C114.104 8.61744 114.621 8.45259 114.935 8.12283C115.187 7.87171 115.312 7.52619 115.312 7.08651C115.312 6.66261 115.186 6.30918 114.935 6.02663C114.621 5.71251 114.104 5.55557 113.381 5.55557H112.628ZM112.628 11.6561V14.9539H113.546C114.865 14.9539 115.705 14.7415 116.066 14.3176C116.286 14.0666 116.396 13.7289 116.396 13.3052C116.396 12.8183 116.263 12.441 115.996 12.1743C115.65 11.8287 114.81 11.6561 113.475 11.6561H112.628ZM128.667 10.4549C128.023 10.4549 127.458 10.6826 126.971 11.138C126.485 11.5934 126.241 12.1663 126.241 12.857C126.241 13.4852 126.485 14.043 126.971 14.5299C127.442 15.0006 128.008 15.2361 128.667 15.2361C129.311 15.2361 129.868 15.0006 130.339 14.5299C130.826 14.0745 131.07 13.5166 131.07 12.857C131.07 12.1977 130.826 11.6248 130.339 11.138C129.853 10.6826 129.295 10.4549 128.667 10.4549ZM133.354 8.99465C134.438 10.0466 134.98 11.3339 134.98 12.857C134.98 14.3805 134.438 15.6758 133.354 16.7435C132.177 17.9054 130.606 18.4868 128.644 18.4868C126.697 18.4868 125.134 17.9054 123.957 16.7435C122.873 15.6758 122.331 14.3805 122.331 12.857C122.331 11.3339 122.873 10.0466 123.957 8.99465C125.15 7.83245 126.712 7.25138 128.644 7.25138C130.559 7.25138 132.129 7.83245 133.354 8.99465ZM137.147 0.962769H140.915V18.1335H137.147V0.962769ZM155.401 0.962769V18.1335H151.632V16.9794C150.847 17.9842 149.787 18.4868 148.452 18.4868C146.992 18.4868 145.76 18 144.755 17.0262C143.624 15.927 143.059 14.53 143.059 12.8341C143.059 11.1381 143.632 9.74847 144.778 8.66491C145.767 7.72269 147.008 7.25138 148.5 7.25138C149.741 7.25138 150.784 7.7068 151.632 8.61744V0.962769H155.401ZM149.324 15.2836C149.92 15.2836 150.463 15.0716 150.95 14.6477C151.483 14.1608 151.75 13.5638 151.75 12.857C151.75 12.2293 151.515 11.6636 151.044 11.1615C150.604 10.6904 150.031 10.4549 149.324 10.4549C148.665 10.4549 148.107 10.6826 147.651 11.138C147.165 11.6248 146.921 12.2215 146.921 12.928C146.921 13.5404 147.165 14.0898 147.651 14.5767C148.123 15.0478 148.68 15.2836 149.324 15.2836ZM169.957 18.1335V13.5639L166.824 18.1335H162.208L166.494 12.6453L162.844 7.60503H167.13L169.957 12.0094V7.60503H173.679V12.0094L176.504 7.60503H180.792L177.141 12.6453L181.428 18.1335H176.811L173.679 13.5639V18.1335H169.957ZM182.747 7.60503H186.515V13.0218L190.684 7.60503H193.958V18.1335H190.189V12.5747L186.068 18.1335H182.747V7.60503ZM200.318 17.1207V23.5271H196.549V7.60503H200.318V8.75876C201.119 7.75399 202.194 7.25138 203.545 7.25138C205.02 7.25138 206.269 7.7619 207.289 8.78231C208.357 9.85009 208.891 11.2083 208.891 12.857C208.891 14.5376 208.326 15.927 207.195 17.0262C206.206 18 205.005 18.4868 203.592 18.4868C202.289 18.4868 201.197 18.0314 200.318 17.1207ZM202.626 10.4549C201.966 10.4549 201.401 10.6904 200.93 11.1615C200.443 11.648 200.2 12.2295 200.2 12.9044C200.2 13.5327 200.443 14.0898 200.93 14.5767C201.401 15.0478 201.966 15.2836 202.626 15.2836C203.301 15.2836 203.859 15.0478 204.298 14.5767C204.785 14.0898 205.028 13.5327 205.028 12.9044C205.028 12.2295 204.785 11.648 204.298 11.1615C203.859 10.6904 203.301 10.4549 202.626 10.4549ZM211.059 18.1335V7.60503H214.826V11.1615H218.336V7.60503H222.105V18.1335H218.336V14.1292H214.826V18.1335H211.059ZM235.813 18.1335V7.60503H239.582V18.1335H235.813ZM228.464 11.1144H231.031C232.256 11.1144 233.199 11.4283 233.858 12.0565C234.487 12.6688 234.8 13.5089 234.8 14.5767C234.8 15.6602 234.501 16.5005 233.905 17.0972C233.214 17.788 232.256 18.1335 231.031 18.1335H224.696V7.60503H228.464V11.1144ZM228.464 15.6837H229.878C230.333 15.6837 230.67 15.574 230.89 15.3539C231.063 15.1811 231.149 14.93 231.149 14.6002C231.149 14.2547 231.056 14.0037 230.867 13.8465C230.631 13.6581 230.286 13.5639 229.83 13.5639H228.464V15.6837ZM242.173 7.60503H245.941V13.0218L250.111 7.60503H253.384V18.1335H249.615V12.5747L245.494 18.1335H242.173V7.60503ZM249.592 2.21107L252.113 3.10608C251.861 4.04829 251.327 4.77026 250.51 5.27294C249.82 5.71247 248.909 5.93278 247.778 5.93278C246.647 5.93278 245.737 5.71247 245.046 5.27294C244.229 4.77026 243.696 4.04829 243.445 3.10608L245.965 2.21107C246.09 2.63496 246.271 2.96487 246.506 3.20065C246.805 3.51477 247.228 3.6717 247.778 3.6717C248.328 3.6717 248.752 3.51477 249.051 3.20065C249.286 2.96487 249.466 2.63496 249.592 2.21107Z" fill="black"/>
</svg>
