<svg width="252" height="25" viewBox="0 0 252 25" fill="none" xmlns="http://www.w3.org/2000/svg">
<path fill-rule="evenodd" clip-rule="evenodd" d="M7.56341 4.03608H2.55736V11.8799H7.29719V13.7827H2.55736V24.3964H0.488281V2.134H7.56341V4.03608ZM17.6105 9.47678V20.7586C17.6105 21.9598 17.2602 22.9057 16.5592 23.5956C15.8581 24.2851 14.9177 24.6302 13.7385 24.6302C12.5592 24.6302 11.6191 24.2851 10.9179 23.5956C10.2173 22.9057 9.86731 21.9598 9.86731 20.7586V9.47678H11.7358V19.5899C11.7358 20.0797 11.7522 20.4745 11.7858 20.775C11.8194 21.0754 11.8965 21.409 12.0192 21.776C12.142 22.1435 12.3533 22.4158 12.6537 22.5939C12.9541 22.7721 13.3376 22.8609 13.8049 22.8609C14.2724 22.8609 14.6453 22.7614 14.9233 22.5604C15.2013 22.3603 15.3956 22.0545 15.5071 21.6425C15.6182 21.2312 15.6853 20.8807 15.7077 20.5916C15.7296 20.3023 15.7412 19.9018 15.7412 19.39V9.47678H17.6105ZM25.8875 11.2126H23.3845V24.3964H21.5153V11.2126H19.9137V9.47678H21.5153V5.23763H23.3845V9.47678H25.8875V11.2126ZM35.3336 9.47678V20.7586C35.3336 21.9598 34.9835 22.9057 34.2823 23.5956C33.5813 24.2851 32.6409 24.6302 31.4617 24.6302C30.2824 24.6302 29.3422 24.2851 28.6411 23.5956C27.9405 22.9057 27.5898 21.9598 27.5898 20.7586V9.47678H29.459V19.5899C29.459 20.0797 29.4753 20.4745 29.509 20.775C29.5426 21.0754 29.6197 21.409 29.7423 21.776C29.8651 22.1435 30.0757 22.4158 30.3761 22.5939C30.6765 22.7721 31.0608 22.8609 31.5281 22.8609C31.9955 22.8609 32.3685 22.7614 32.6465 22.5604C32.9245 22.3603 33.1188 22.0545 33.2303 21.6425C33.3414 21.2312 33.4085 20.8807 33.4309 20.5916C33.4528 20.3023 33.4644 19.9018 33.4644 19.39V9.47678H35.3336ZM43.0768 9.24304V11.4128C42.5874 11.4128 42.1754 11.496 41.8414 11.6629C41.508 11.8298 41.2582 12.0191 41.0912 12.2303C40.9243 12.4417 40.796 12.7475 40.7073 13.1482C40.6181 13.5488 40.5682 13.8883 40.5567 14.1663C40.542 14.4443 40.541 14.8393 40.541 15.3514V24.3964H38.6717V9.47678H40.541V11.4128C41.1641 10.011 42.0093 9.28733 43.0775 9.24304H43.0768ZM52.6564 24.3964H50.7536V23.1949C50.0418 24.1516 49.1961 24.6302 48.2171 24.6302C47.572 24.6302 47.0158 24.4466 46.5484 24.0795C46.0811 23.7124 45.7306 23.2894 45.4971 22.8113C45.2633 22.3327 45.0854 21.7094 44.9632 20.942C44.8404 20.1742 44.768 19.5397 44.7455 19.0392C44.7236 18.5388 44.712 17.9322 44.712 17.2203C44.712 16.419 44.7265 15.7461 44.7455 15.2008C44.7674 14.6556 44.8467 13.9716 44.9796 13.1482C45.1126 12.3249 45.302 11.6576 45.547 11.1458C45.7914 10.6338 46.1533 10.1887 46.6319 9.81045C47.11 9.4326 47.6943 9.24304 48.3841 9.24304C49.2965 9.24304 50.0861 9.65512 50.7536 10.4785V9.47678H52.6564V24.3964ZM50.9542 16.8535C50.9542 15.963 50.9317 15.2123 50.8864 14.6002C50.8425 13.9882 50.7598 13.3598 50.6366 12.7146C50.5138 12.0691 50.3026 11.5796 50.0021 11.2457C49.7017 10.9122 49.3183 10.7451 48.8508 10.7451C47.3824 10.7451 46.6476 12.5139 46.6476 16.052C46.6476 17.6543 46.6817 18.856 46.7475 19.657C46.7928 20.1466 46.842 20.5249 46.8974 20.7918C46.9529 21.059 47.0476 21.4037 47.1814 21.8263C47.3145 22.2493 47.5208 22.5661 47.7988 22.7774C48.0768 22.9887 48.4159 23.0946 48.8166 23.0946C49.306 23.0946 49.7069 22.9278 50.0185 22.5939C50.6416 21.9707 50.9528 20.0575 50.9528 16.8535H50.9542ZM63.9375 2.134H66.6075C68.7659 2.134 70.2456 2.61218 71.0469 3.5693C71.8479 4.52599 72.2488 6.10578 72.2488 8.30842C72.2488 10.2665 71.8366 11.6628 71.0134 12.4973C70.19 13.3317 68.7997 13.7491 66.8416 13.7491H66.0073V24.3964H63.9375V2.134ZM66.0073 11.8463H67.3755C67.9983 11.8463 68.5049 11.7472 68.8943 11.5462C69.2839 11.3461 69.5669 11.0403 69.7451 10.6284C69.9232 10.2169 70.0342 9.81601 70.0791 9.42647C70.1229 9.03707 70.1462 8.53129 70.1462 7.90802C70.1462 6.59497 69.9347 5.62185 69.5117 4.98747C69.0891 4.35353 68.2546 4.03608 67.0087 4.03608H66.0073V11.8463ZM81.8612 4.03608H78.5231V24.3964H76.4541V4.03608H73.1167V2.134H81.8612V4.03608ZM99.7849 21.6929V23.7623C98.8278 24.3854 97.8598 24.6969 96.8808 24.6969C95.2789 24.6969 93.9432 23.9737 92.8754 22.5272C91.6071 20.7916 90.9733 17.8992 90.9733 13.8494C90.9733 5.83854 93.0201 1.83353 97.1142 1.83353C98.1381 1.83353 99.0284 2.06703 99.7849 2.53405V4.80368C98.8057 4.15863 97.949 3.83588 97.2148 3.83588C94.4557 3.83588 93.0759 6.9512 93.0759 13.1817C93.0759 17.2092 93.5655 19.9239 94.5441 21.3257C95.1672 22.238 96.002 22.6942 97.0478 22.6942C97.871 22.6942 98.7834 22.3604 99.7849 21.6929ZM109.23 17.0198C109.23 22.0933 107.839 24.6302 105.058 24.6302C104.146 24.6302 103.378 24.3742 102.755 23.8626C102.132 23.3508 101.681 22.6721 101.403 21.8263C101.125 20.981 100.936 20.1687 100.836 19.39C100.735 18.6111 100.686 17.7879 100.686 16.9202C100.686 16.2526 100.714 15.613 100.769 15.001C100.825 14.389 100.941 13.7157 101.12 12.9815C101.297 12.2473 101.542 11.6185 101.853 11.0955C102.165 10.5727 102.594 10.1332 103.139 9.77726C103.684 9.42134 104.324 9.24304 105.058 9.24304C107.839 9.24304 109.23 11.8351 109.23 17.0198H109.23ZM105.024 22.8609C106.538 22.8609 107.295 20.8808 107.295 16.9202C107.295 12.9591 106.538 10.9788 105.024 10.9788C103.445 10.9788 102.655 13.015 102.655 17.0869C102.655 20.9364 103.445 22.8609 105.024 22.8609ZM119.711 24.3964H117.841V13.5489C117.841 13.1483 117.827 12.8255 117.808 12.5811C117.786 12.3361 117.725 12.0525 117.624 11.7296C117.524 11.4073 117.352 11.1678 117.107 11.012C116.862 10.8566 116.551 10.7786 116.173 10.7786C115.394 10.7786 114.804 11.1011 114.403 11.7468C114.07 12.236 113.902 13.1041 113.902 14.3501V24.3964H112.034V9.47678H113.902V10.6783C114.748 9.72165 115.716 9.24304 116.807 9.24304C117.941 9.24304 118.709 9.61612 119.11 10.3614C119.51 11.1069 119.71 12.1026 119.71 13.3484L119.711 24.3964ZM130.424 24.3964H128.556V23.1949C127.844 24.1516 126.987 24.6302 125.986 24.6302C125.429 24.6302 124.945 24.5133 124.533 24.2797C124.122 24.046 123.794 23.6954 123.549 23.2284C123.304 22.7611 123.104 22.2989 122.948 21.8431C122.792 21.3869 122.681 20.8252 122.615 20.1576C122.548 19.4896 122.508 18.9504 122.498 18.5389C122.483 18.127 122.48 17.6321 122.48 17.0537C122.48 16.3637 122.48 15.824 122.498 15.4346C122.512 15.045 122.548 14.4889 122.615 13.7655C122.682 13.0424 122.792 12.4643 122.948 12.0301C123.104 11.5963 123.31 11.14 123.565 10.6619C123.822 10.1834 124.172 9.82756 124.617 9.59383C125.062 9.36011 125.585 9.24304 126.186 9.24304C127.099 9.24304 127.888 9.65512 128.556 10.4785V0.064209H130.424V24.3964ZM128.722 16.9534C128.722 14.9951 128.589 13.471 128.322 12.3806C128.055 11.2904 127.488 10.7451 126.619 10.7451C125.173 10.7451 124.45 12.5139 124.45 16.052C124.45 17.6543 124.484 18.856 124.551 19.657C124.595 20.1019 124.64 20.4745 124.684 20.775C124.728 21.0754 124.817 21.4313 124.951 21.8431C125.084 22.2546 125.29 22.5661 125.569 22.7774C125.847 22.9887 126.186 23.0946 126.587 23.0946C127.098 23.0946 127.51 22.9278 127.821 22.5939C128.422 21.993 128.723 20.1132 128.723 16.9534H128.722ZM141.706 2.134H144.944C146.434 2.134 147.525 2.38958 148.215 2.90161C149.349 3.74692 149.917 5.38263 149.917 7.80774C149.917 9.05414 149.717 10.1055 149.316 10.9624C148.915 11.8188 148.204 12.4921 147.18 12.9815C148.493 13.3374 149.366 13.9551 149.8 14.834C150.234 15.7128 150.451 16.92 150.451 18.4551C150.451 20.8359 149.839 22.5048 148.615 23.4615C147.814 24.0847 146.646 24.3964 145.111 24.3964H141.706V2.134ZM143.775 11.9802H144.877C146.101 11.9802 146.896 11.6352 147.263 10.9453C147.63 10.2559 147.814 9.24314 147.814 7.90802C147.814 7.26253 147.792 6.75074 147.747 6.37245C147.703 5.99416 147.602 5.59391 147.447 5.17089C147.291 4.74817 147.012 4.43674 146.612 4.23663C146.211 4.03609 145.699 3.93615 145.076 3.93615H143.775V11.9802ZM143.775 22.6275H144.877C146.19 22.6275 147.091 22.2711 147.58 21.5594C148.07 20.8471 148.315 19.7901 148.315 18.3883C148.315 15.3401 147.202 13.8159 144.977 13.8159H143.775V22.6275ZM161.231 17.0198C161.231 22.0933 159.841 24.6302 157.06 24.6302C156.147 24.6302 155.379 24.3742 154.757 23.8626C154.133 23.3508 153.683 22.6721 153.405 21.8263C153.127 20.981 152.937 20.1687 152.837 19.39C152.738 18.6111 152.687 17.7879 152.687 16.9202C152.687 16.2526 152.715 15.613 152.77 15.001C152.826 14.389 152.943 13.7157 153.121 12.9815C153.298 12.2473 153.544 11.6185 153.855 11.0955C154.167 10.5727 154.595 10.1332 155.14 9.77726C155.685 9.42134 156.326 9.24304 157.06 9.24304C159.841 9.24304 161.231 11.8351 161.231 17.0198ZM157.026 22.8609C158.539 22.8609 159.296 20.8808 159.296 16.9202C159.296 12.9591 158.539 10.9788 157.026 10.9788C155.447 10.9788 154.657 13.015 154.657 17.0869C154.657 20.9364 155.447 22.8609 157.026 22.8609ZM172.012 17.0198C172.012 22.0933 170.622 24.6302 167.841 24.6302C166.928 24.6302 166.16 24.3742 165.537 23.8626C164.914 23.3508 164.464 22.6721 164.186 21.8263C163.908 20.981 163.718 20.1687 163.618 19.39C163.517 18.6111 163.468 17.7879 163.468 16.9202C163.468 16.2526 163.496 15.613 163.551 15.001C163.607 14.389 163.723 13.7157 163.901 12.9815C164.079 12.2473 164.324 11.6185 164.636 11.0955C164.948 10.5727 165.375 10.1332 165.921 9.77726C166.466 9.42134 167.106 9.24304 167.84 9.24304C170.621 9.24304 172.012 11.8351 172.012 17.0198ZM167.807 22.8609C169.32 22.8609 170.077 20.8808 170.077 16.9202C170.077 12.9591 169.32 10.9788 167.807 10.9788C166.227 10.9788 165.437 13.015 165.437 17.0869C165.437 20.9364 166.227 22.8609 167.807 22.8609ZM183.694 24.3964H181.325L176.685 17.2535V24.3964H174.816V0.064209H176.685V15.5516L180.423 9.47678H182.526L178.254 16.1522L183.694 24.3964ZM198.847 11.2126H195.977V24.3964H194.074V11.2126H191.204V9.47678H198.847V11.2126ZM208.526 17.0198C208.526 22.0933 207.136 24.6302 204.355 24.6302C203.442 24.6302 202.674 24.3742 202.051 23.8626C201.428 23.3508 200.978 22.6721 200.7 21.8263C200.422 20.981 200.232 20.1687 200.132 19.39C200.031 18.6111 199.982 17.7879 199.982 16.9202C199.982 16.2526 200.01 15.613 200.065 15.001C200.121 14.389 200.238 13.7157 200.416 12.9815C200.594 12.2473 200.838 11.6185 201.15 11.0955C201.462 10.5727 201.889 10.1332 202.435 9.77726C202.98 9.42134 203.62 9.24304 204.354 9.24304C207.135 9.24304 208.526 11.8351 208.526 17.0198ZM204.321 22.8609C205.834 22.8609 206.591 20.8808 206.591 16.9202C206.591 12.9591 205.834 10.9788 204.321 10.9788C202.742 10.9788 201.951 13.015 201.951 17.0869C201.951 20.9364 202.742 22.8609 204.321 22.8609ZM219.007 24.3964H217.138V17.4205H213.2V24.3964H211.331V9.47678H213.2V15.6847H217.138V9.47678H219.007V24.3964ZM224.214 9.47678V15.9852L228.186 9.47678H230.355L225.849 16.6529L230.823 24.3964H228.52L224.214 17.554V24.3964H222.345V9.47678H224.214ZM240.435 24.3964H238.566V15.1177C238.566 14.6947 238.589 13.9829 238.634 12.9815C238.478 13.6714 238.244 14.4167 237.932 15.2176L234.428 24.3964H232.559V9.47678H234.428V18.6888C234.428 19.5122 234.406 20.2798 234.361 20.9916C234.561 20.2574 234.795 19.5233 235.062 18.7891L238.567 9.47678H240.435V24.3964ZM251.65 24.3964H249.781V15.1177C249.781 14.6947 249.803 13.9829 249.848 12.9815C249.692 13.6714 249.459 14.4167 249.147 15.2176L245.643 24.3964H243.773V9.47678H245.643V18.6888C245.643 19.5122 245.621 20.2798 245.576 20.9916C245.776 20.2574 246.009 19.5233 246.276 18.7891L249.781 9.47678H251.65V24.3964ZM249.715 4.47038L251.283 5.23763C251.015 6.03893 250.56 6.66184 249.914 7.10722C249.358 7.50744 248.623 7.70782 247.711 7.70782C246.799 7.70782 246.065 7.50744 245.509 7.10722C244.863 6.66184 244.407 6.03893 244.14 5.23763L245.709 4.47038C245.798 4.95975 246.032 5.36029 246.41 5.67193C246.699 5.91633 247.144 6.03914 247.745 6.03914C248.301 6.03914 248.724 5.91618 249.013 5.67193C249.369 5.40473 249.603 5.00448 249.715 4.47038Z" fill="black"/>
</svg>
