<svg width="250" height="24" viewBox="0 0 250 24" fill="none" xmlns="http://www.w3.org/2000/svg">
<path fill-rule="evenodd" clip-rule="evenodd" d="M0.126953 4.60503H4.28367C5.69583 4.60503 6.71999 4.94063 7.35554 5.61156C7.99123 6.28189 8.30836 7.31494 8.30836 8.70911V9.58307C8.30836 10.6068 8.14079 11.4144 7.80518 12.0056C7.47001 12.5973 6.91396 13.0161 6.13721 13.2636C7.79654 13.7222 8.62596 15.0465 8.62596 17.2351V18.7976C8.62596 21.6926 7.21418 23.1399 4.39002 23.1399H0.126953V4.60503ZM2.19247 12.4694H3.7805C4.64524 12.4694 5.27671 12.2928 5.67401 11.9398C6.07144 11.5868 6.26996 10.9425 6.26996 10.0068V8.92127C6.26996 8.09131 6.11053 7.47819 5.7932 7.08075C5.47542 6.6839 4.95469 6.48497 4.23086 6.48497H2.19247V12.4694ZM2.19247 21.2601H4.39002C5.85508 21.2601 6.58757 20.4213 6.58757 18.7444V17.103C6.58757 16.0969 6.38483 15.3863 5.97876 14.9715C5.5727 14.5564 4.91028 14.3493 3.99247 14.3493H2.19247V21.2601ZM12.5714 12.8134H17.0986V14.6671H12.5714V21.2601H18.132V23.1399H10.5059V4.60503H18.132V6.48497H12.5714V12.8134ZM20.0377 4.60503H24.1951C25.6073 4.60503 26.6307 4.94063 27.2663 5.61156C27.902 6.28189 28.2191 7.31494 28.2191 8.70911V9.58307C28.2191 10.6068 28.0522 11.4144 27.7166 12.0056C27.3813 12.5973 26.8248 13.0161 26.0479 13.2636C27.7074 13.7222 28.5374 15.0465 28.5374 17.2351V18.7976C28.5374 21.6926 27.1249 23.1399 24.3007 23.1399H20.0377V4.60503ZM22.1032 12.4694H23.6919C24.5567 12.4694 25.1874 12.2928 25.5847 11.9398C25.9822 11.5868 26.1807 10.9425 26.1807 10.0068V8.92127C26.1807 8.09131 26.022 7.47819 25.7046 7.08075C25.3867 6.6839 24.8654 6.48497 24.1416 6.48497H22.1032V12.4694ZM22.1032 21.2601H24.3007C25.7658 21.2601 26.499 20.4213 26.499 18.7444V17.103C26.499 16.0969 26.2955 15.3863 25.8895 14.9715C25.4834 14.5564 24.8217 14.3493 23.9039 14.3493H22.1032V21.2601ZM37.1956 19.4066H32.5093L31.7941 23.1399H29.8878L33.4357 4.60503H36.4276L39.9762 23.1399H37.9107L37.1956 19.4066ZM34.8124 6.93533L32.7741 17.6324H36.9044L34.8124 6.93533ZM42.4114 5.63761C43.1001 4.82592 44.1236 4.41982 45.4826 4.41982C46.8417 4.41982 47.8701 4.8301 48.5673 5.65099C49.2647 6.47174 49.6136 7.60625 49.6136 9.05348V9.55648H47.6537V8.94732C47.6537 7.18231 46.9483 6.29976 45.5361 6.29976C44.1241 6.29976 43.4178 7.17351 43.4178 8.92127C43.4178 9.57421 43.5719 10.1788 43.881 10.7348C44.1897 11.2909 44.5738 11.7586 45.033 12.1382C45.4916 12.5177 45.9907 12.9413 46.5289 13.4092C47.0676 13.8769 47.5658 14.3271 48.0249 14.7593C48.484 15.1919 48.8678 15.7526 49.1768 16.4409C49.4855 17.1295 49.64 17.8795 49.64 18.6916C49.64 20.1393 49.2869 21.2732 48.5809 22.0941C47.8749 22.9148 46.8331 23.3249 45.4562 23.3249C44.0794 23.3249 43.0423 22.9148 42.3451 22.0941C41.6481 21.2732 41.2995 20.1393 41.2995 18.6916V17.6324H43.2322V18.7976C43.2322 20.5627 43.9561 21.4453 45.4034 21.4453C46.851 21.4453 47.5745 20.5627 47.5745 18.7976C47.5745 18.2325 47.4604 17.712 47.2305 17.2351C47.001 16.7585 46.7051 16.3351 46.3433 15.9643C45.9816 15.5934 45.5799 15.2317 45.1386 14.8787C44.6973 14.5257 44.2559 14.1548 43.8146 13.7666C43.3733 13.3783 42.9721 12.9723 42.6099 12.5484C42.2481 12.1249 41.9529 11.6129 41.7234 11.0128C41.4939 10.4125 41.3787 9.75949 41.3787 9.05348C41.3787 7.58842 41.7233 6.44973 42.4114 5.63761ZM57.3718 8.15312V23.1399H55.5182V4.60503H58.1398L62.4285 18.0032V4.60503H64.2556V23.1399H62.1109L57.3718 8.15312ZM68.4395 12.8134H72.9673V14.6671H68.4395V21.2601H74.0001V23.1399H66.374V4.60503H74.0001V6.48497H68.4395V12.8134ZM77.8656 4.60503V18.771C77.8656 20.5538 78.5894 21.4453 80.0368 21.4453C81.4666 21.4453 82.1808 20.5538 82.1808 18.771V4.60503H84.1143V18.665C84.1143 20.1302 83.7701 21.2775 83.0815 22.1073C82.3932 22.9368 81.3514 23.3517 79.9568 23.3517C78.5799 23.3517 77.5474 22.9322 76.8593 22.0941C76.1707 21.2554 75.8265 20.1127 75.8265 18.665V4.60503H77.8656ZM88.2189 12.8134H92.746V14.6671H88.2189V21.2601H93.7788V23.1399H86.1534V4.60503H93.7788V6.48497H88.2189V12.8134ZM95.6851 4.60503H99.8154C101.245 4.60503 102.291 4.95804 102.953 5.66419C103.615 6.3702 103.946 7.42968 103.946 8.84169V10.3507C103.946 12.3984 103.178 13.6697 101.643 14.1639C103.196 14.6226 103.973 15.9112 103.973 18.0298V20.9157C103.973 21.9395 104.095 22.6809 104.343 23.1399H102.251C102.022 22.6283 101.907 21.8777 101.907 20.8891V17.9768C101.907 16.9704 101.682 16.2602 101.232 15.8451C100.782 15.4303 100.107 15.2231 99.2066 15.2231H97.7506V23.1399H95.6851V4.60503ZM97.7506 13.3431H99.2859C100.168 13.3431 100.826 13.1575 101.259 12.7871C101.691 12.4163 101.907 11.7541 101.907 10.801V9.02708C101.907 7.33238 101.192 6.48497 99.7626 6.48497H97.7506V13.3431ZM108.182 12.8134H112.71V14.6671H108.182V21.2601H113.743V23.1399H106.118V4.60503H113.743V6.48497H108.182V12.8134ZM119.648 4.41982C121.042 4.41982 122.088 4.83468 122.785 5.66419C123.483 6.494 123.831 7.63266 123.831 9.07989V10.6685H121.872V8.9739C121.872 7.19092 121.148 6.29976 119.7 6.29976C118.253 6.29976 117.529 7.19092 117.529 8.9739V18.771C117.529 20.5538 118.253 21.4453 119.7 21.4453C121.148 21.4453 121.872 20.5538 121.872 18.771V15.0639H119.965V13.2106H123.831V18.665C123.831 20.1127 123.483 21.2512 122.785 22.0807C122.088 22.9102 121.042 23.3249 119.648 23.3249C118.271 23.3249 117.234 22.9102 116.537 22.0807C115.839 21.2512 115.49 20.1127 115.49 18.665V9.07989C115.49 7.63266 115.839 6.494 116.537 5.66419C117.234 4.83468 118.271 4.41982 119.648 4.41982ZM127.75 4.60503V18.771C127.75 20.5538 128.474 21.4453 129.921 21.4453C131.351 21.4453 132.065 20.5538 132.065 18.771V4.60503H133.998V18.665C133.998 20.1302 133.654 21.2775 132.966 22.1073C132.278 22.9368 131.236 23.3517 129.841 23.3517C128.464 23.3517 127.432 22.9322 126.743 22.0941C126.055 21.2554 125.711 20.1127 125.711 18.665V4.60503H127.75ZM143.398 23.1399H136.037V4.60503H138.102V21.2601H143.398V23.1399ZM151.739 19.4066H147.052L146.337 23.1399H144.431L147.979 4.60503H150.971L154.519 23.1399H152.454L151.739 19.4066ZM149.356 6.93533L147.317 17.6324H151.448L149.356 6.93533ZM156.134 4.60503H160.265C161.695 4.60503 162.74 4.95804 163.402 5.66419C164.064 6.3702 164.395 7.42968 164.395 8.84169V10.3507C164.395 12.3984 163.628 13.6697 162.092 14.1639C163.646 14.6226 164.422 15.9112 164.422 18.0298V20.9157C164.422 21.9395 164.545 22.6809 164.793 23.1399H162.701C162.472 22.6283 162.357 21.8777 162.357 20.8891V17.9768C162.357 16.9704 162.131 16.2602 161.681 15.8451C161.231 15.4303 160.556 15.2231 159.655 15.2231H158.199V23.1399H156.134V4.60503ZM158.199 13.3431H159.735C160.618 13.3431 161.275 13.1575 161.708 12.7871C162.141 12.4163 162.357 11.7541 162.357 10.801V9.02708C162.357 7.33238 161.641 6.48497 160.211 6.48497H158.199V13.3431ZM170.512 18.665V9.07989C170.512 7.63266 170.869 6.494 171.584 5.66419C172.299 4.83468 173.353 4.41982 174.748 4.41982C176.142 4.41982 177.201 4.83468 177.925 5.66419C178.649 6.494 179.011 7.63266 179.011 9.07989V18.665C179.011 20.1127 178.649 21.2512 177.925 22.0807C177.201 22.9102 176.142 23.3249 174.748 23.3249C173.371 23.3249 172.321 22.9102 171.597 22.0807C170.874 21.2512 170.512 20.1127 170.512 18.665ZM172.55 8.9739V18.771C172.55 20.5538 173.283 21.4453 174.748 21.4453C176.213 21.4453 176.945 20.5538 176.945 18.771V8.9739C176.945 7.19092 176.213 6.29976 174.748 6.29976C173.283 6.29976 172.55 7.19092 172.55 8.9739ZM183.036 12.257H185.207C188.12 12.257 189.576 13.7049 189.576 16.5999V18.6384C189.576 21.6394 188.155 23.1399 185.313 23.1399H180.997V4.60503H188.808V6.48497H183.036V12.257ZM183.036 21.2601H185.313C186.072 21.2601 186.628 21.0616 186.981 20.6641C187.334 20.2669 187.511 19.6357 187.511 18.771V16.4673C187.511 15.6025 187.325 14.9935 186.955 14.6405C186.584 14.2875 186.002 14.1109 185.207 14.1109H183.036V21.2601ZM193.654 11.9134H195.481C198.358 11.9134 199.797 13.4048 199.797 16.3877V18.6118C199.797 21.6304 198.411 23.1399 195.639 23.1399H191.588V4.60503H193.654V11.9134ZM201.518 4.60503H203.556V23.1399H201.518V4.60503ZM193.654 21.2601H195.639C196.381 21.2601 196.919 21.0522 197.255 20.6376C197.59 20.2227 197.758 19.5832 197.758 18.718V16.2557C197.758 15.3731 197.573 14.7375 197.202 14.3493C196.831 13.9609 196.258 13.7666 195.481 13.7666H193.654V21.2601ZM212.109 23.1399V14.9317C211.438 15.9026 210.476 16.3877 209.223 16.3877C208.022 16.3877 207.109 15.982 206.482 15.1699C205.856 14.3578 205.543 13.2989 205.543 11.9924V4.60503H207.608V11.8336C207.608 12.6279 207.81 13.2722 208.216 13.7666C208.622 14.2609 209.179 14.5079 209.885 14.5079C211.156 14.5079 211.897 13.7845 212.109 12.3368V4.60503H214.147V23.1399H212.109ZM222.912 14.7991H218.358V23.1399H216.293V4.60503H218.358V12.9459H222.912V4.60503H224.977V23.1399H222.912V14.7991ZM229.161 11.9134H230.988C233.865 11.9134 235.304 13.4048 235.304 16.3877V18.6118C235.304 21.6304 233.918 23.1399 231.147 23.1399H227.096V4.60503H229.161V11.9134ZM237.025 4.60503H239.064V23.1399H237.025V4.60503ZM229.161 21.2601H231.147C231.888 21.2601 232.426 21.0522 232.762 20.6376C233.097 20.2227 233.265 19.5832 233.265 18.718V16.2557C233.265 15.3731 233.08 14.7375 232.709 14.3493C232.338 13.9609 231.765 13.7666 230.988 13.7666H229.161V21.2601ZM247.246 0.818909H248.517C248.517 1.63103 248.261 2.26629 247.749 2.72526C247.237 3.18438 246.539 3.414 245.657 3.414C244.774 3.414 244.086 3.18438 243.591 2.72526C243.097 2.26629 242.833 1.63103 242.797 0.818909H244.095C244.165 1.71932 244.686 2.16909 245.657 2.16909C246.646 2.16909 247.175 1.71932 247.246 0.818909ZM248.066 8.39133L246.213 14.2166L243.327 23.1399H241.182V4.60503H243.01V18.4266L244.73 13.078L247.617 4.60503H249.92V23.1399H248.066V8.39133Z" fill="black"/>
</svg>
