<svg width="249" height="32" viewBox="0 0 249 32" fill="none" xmlns="http://www.w3.org/2000/svg">
<path fill-rule="evenodd" clip-rule="evenodd" d="M8.65665 2.8687V4.12414H1.56367V11.7196H8.46894V12.975H1.56367V23.8033H0.182617V2.8687H8.65665ZM11.3873 10.9976H12.6428V18.7187C12.6428 20.2041 12.9145 21.2713 13.4586 21.9197C14.0446 22.6105 14.8916 22.9557 16.0009 22.9557C17.1096 22.9557 17.9573 22.6105 18.5431 21.9197C19.0872 21.2713 19.3589 20.2041 19.3589 18.7187V10.9976H20.6144V19.0638C20.6144 20.5704 20.29 21.7423 19.6416 22.5792C18.8253 23.6255 17.6118 24.1483 16.0009 24.1483C14.3895 24.1483 13.1759 23.6255 12.3602 22.5792C11.7117 21.7423 11.3873 20.5704 11.3873 19.0638V10.9976ZM28.7123 12.1903H26.484V23.8033H25.2286V12.1903H23.8161V10.9976H25.2286V6.41555H26.484V10.9976H28.7123V12.1903ZM31.2231 10.9976H32.4786V18.7187C32.4786 20.2041 32.7503 21.2713 33.2944 21.9197C33.8803 22.6105 34.7273 22.9557 35.8366 22.9557C36.9453 22.9557 37.7931 22.6105 38.3789 21.9197C38.923 21.2713 39.1947 20.2041 39.1947 18.7187V10.9976H40.4501V19.0638C40.4501 20.5704 40.1257 21.7423 39.4773 22.5792C38.6611 23.6255 37.4476 24.1483 35.8366 24.1483C34.2253 24.1483 33.0117 23.6255 32.1959 22.5792C31.5475 21.7423 31.2231 20.5704 31.2231 19.0638V10.9976ZM44.9701 23.8033V10.9976H46.2256V12.661C46.7902 11.3642 47.7318 10.7154 49.0498 10.7154C49.5519 10.7154 50.0021 10.8207 50.3994 11.0294L49.7721 12.1589C49.542 11.9918 49.2281 11.908 48.8307 11.908C48.2236 11.908 47.7268 12.0803 47.3397 12.4254C46.9528 12.771 46.6905 13.2522 46.5546 13.8697C46.4187 14.4867 46.3295 15.0046 46.2877 15.4231C46.2453 15.8416 46.2249 16.3435 46.2249 16.9294V23.8033H44.9701ZM63.205 13.2262V10.9976H64.4605V23.8033H63.205V21.5119C62.0544 23.2696 60.3909 24.1483 58.2147 24.1483C56.4782 24.1483 55.0026 23.5313 53.7889 22.2966C52.5754 21.0622 51.9689 19.43 51.9689 17.4001C51.9689 15.4125 52.5443 13.8018 53.6954 12.5671C54.8461 11.3327 56.3526 10.7154 58.2147 10.7154C60.3491 10.7154 62.0126 11.5523 63.205 13.2262ZM58.2775 11.908C56.9172 11.908 55.7457 12.3948 54.7624 13.3676C53.7791 14.3405 53.2872 15.6535 53.2872 17.3062C53.2872 18.834 53.7373 20.1572 54.6368 21.2763C55.5363 22.3958 56.7605 22.9557 58.3089 22.9557C59.8361 22.9557 61.044 22.4062 61.9332 21.3077C62.8228 20.2094 63.2678 18.8758 63.2678 17.3062C63.2678 15.5697 62.7549 14.2355 61.7298 13.3044C60.7048 12.3734 59.5537 11.908 58.2775 11.908ZM80.9375 13.854H78.2382V23.8033H76.8571V2.8687H80.9061C82.6844 2.8687 84.1494 3.34507 85.3005 4.29722C86.4511 5.24893 87.0263 6.59325 87.0263 8.32975C87.0263 10.0455 86.4713 11.395 85.3626 12.3787C84.2537 13.3618 82.7784 13.854 80.9375 13.854ZM78.2382 4.12414V12.5985H81.0003C82.3813 12.5985 83.49 12.2164 84.327 11.4526C85.1639 10.6891 85.5824 9.65878 85.5824 8.36151C85.5824 7.04349 85.1589 6.00754 84.3112 5.25432C83.4639 4.50111 82.2869 4.12414 80.7805 4.12414H78.2382ZM100.71 4.12414H95.2812V23.8033H93.9001V4.12414H88.4701V2.8687H100.71V4.12414ZM111.287 2.8687H112.668V22.5475H118.506V23.8033H111.287V2.8687ZM121.206 10.9976H122.461V23.8033H121.206V10.9976ZM122.633 7.56107C122.414 7.78106 122.147 7.89081 121.833 7.89081C121.519 7.89081 121.253 7.78121 121.033 7.56107C120.813 7.34138 120.703 7.06411 120.703 6.72923C120.703 6.3945 120.813 6.11744 121.033 5.89774C121.253 5.67819 121.519 5.568 121.833 5.568C122.147 5.568 122.414 5.67761 122.633 5.89774C122.853 6.11744 122.963 6.3945 122.963 6.72923C122.963 7.06411 122.853 7.34138 122.633 7.56107ZM137.526 10.9976H138.781V23.4264C138.781 25.8325 138.211 27.6999 137.071 29.0288C135.931 30.3576 134.356 31.0218 132.348 31.0218C130.611 31.0218 129.151 30.5352 127.969 29.5623C126.787 28.5894 126.154 27.2448 126.07 25.529H127.389C127.494 26.8475 128 27.8932 128.91 28.6676C129.821 29.4416 130.967 29.8292 132.348 29.8292C133.289 29.8292 134.11 29.6406 134.811 29.264C135.512 28.8874 136.03 28.4586 136.365 27.9771C136.7 27.4961 136.961 26.9103 137.15 26.2199C137.338 25.5293 137.448 24.9954 137.479 24.6187C137.51 24.242 137.526 23.8449 137.526 23.4264V21.6061C136.312 23.3008 134.628 24.1483 132.473 24.1483C130.778 24.1483 129.303 23.5519 128.047 22.3594C126.792 21.1665 126.164 19.5136 126.164 17.4001C126.164 15.4962 126.75 13.906 127.922 12.6299C129.094 11.3533 130.663 10.7154 132.63 10.7154C134.722 10.7154 136.354 11.5523 137.526 13.2262V10.9976ZM136.192 13.4771C135.262 12.431 134.032 11.908 132.505 11.908C130.977 11.908 129.759 12.4469 128.848 13.5246C127.938 14.6019 127.483 15.9149 127.483 17.4633C127.483 19.0324 127.938 20.3401 128.848 21.3862C129.759 22.4325 130.956 22.9557 132.442 22.9557C133.99 22.9557 135.235 22.4221 136.176 21.3552C137.118 20.2879 137.589 18.9486 137.589 17.3376C137.589 15.8103 137.124 14.5234 136.192 13.4771ZM143.301 23.8033V0.923096H144.557V13.0064C145.414 11.4788 146.721 10.7154 148.479 10.7154C150.069 10.7154 151.252 11.3114 152.026 12.5043C152.445 13.1738 152.654 14.2513 152.654 15.7371V23.8033H151.398V15.7371C151.398 14.5442 151.231 13.6864 150.897 13.1631C150.394 12.3261 149.557 11.908 148.386 11.908C146.963 11.908 145.916 12.5045 145.247 13.6969C144.786 14.5132 144.557 15.6638 144.557 17.1492V23.8033H143.301ZM160.124 12.1903H157.895V23.8033H156.64V12.1903H155.227V10.9976H156.64V6.41555H157.895V10.9976H160.124V12.1903ZM172.395 23.8033V12.1903H167.939V10.9976H178.107V12.1903H173.651V23.8033H172.395ZM181.073 12.6456C182.36 11.3587 183.956 10.7154 185.86 10.7154C187.764 10.7154 189.359 11.3587 190.646 12.6456C191.933 13.9322 192.577 15.5276 192.577 17.4315C192.577 19.3358 191.933 20.9312 190.646 22.2181C189.359 23.5047 187.764 24.1483 185.86 24.1483C183.956 24.1483 182.36 23.5047 181.073 22.2181C179.787 20.9312 179.143 19.3358 179.143 17.4315C179.143 15.5276 179.787 13.9322 181.073 12.6456ZM182.015 21.3552C183.051 22.4221 184.332 22.9557 185.86 22.9557C187.387 22.9557 188.669 22.4221 189.705 21.3552C190.74 20.2879 191.258 18.9799 191.258 17.4315C191.258 15.8831 190.74 14.5758 189.705 13.5089C188.669 12.4415 187.387 11.908 185.86 11.908C184.332 11.908 183.051 12.4415 182.015 13.5089C180.979 14.5758 180.462 15.8831 180.462 17.4315C180.462 18.9799 180.979 20.2879 182.015 21.3552ZM196.28 23.8033V10.9976H197.535V16.6468H204.754V10.9976H206.01V23.8033H204.754V17.8397H197.535V23.8033H196.28ZM210.529 10.9976H211.785V17.0864L218.25 10.9976H219.944L213.417 17.0864L220.447 23.8033H218.627L212.475 17.934L211.785 18.5931V23.8033H210.529V10.9976ZM222.958 10.9976H224.213V21.2606L233.315 10.2761V23.8033H232.06V13.6027L222.958 24.5876V10.9976ZM237.834 10.9976H239.09V21.2606L248.192 10.2761V23.8033H246.937V13.6027L237.834 24.5876V10.9976ZM239.278 5.81888L240.345 5.28573C240.513 5.93414 240.863 6.47812 241.397 6.91765C241.93 7.35689 242.584 7.57642 243.359 7.57642C244.133 7.57642 244.786 7.35689 245.32 6.91765C245.853 6.47812 246.204 5.93414 246.371 5.28573L247.439 5.81888C246.811 7.78574 245.451 8.76941 243.359 8.76941C241.266 8.76941 239.906 7.78574 239.278 5.81888Z" fill="black"/>
</svg>
