<svg width="238" height="19" viewBox="0 0 238 19" fill="none" xmlns="http://www.w3.org/2000/svg">
<path fill-rule="evenodd" clip-rule="evenodd" d="M2.84357 16.9446H4.5772C5.26377 16.9446 5.80823 16.7186 6.2102 16.2662C6.56203 15.8812 6.87139 15.2407 7.13947 14.3445C7.40755 13.4486 7.75045 11.9454 8.16937 9.83558C8.7387 7.02224 9.0237 5.21329 9.0237 4.4095C9.0237 3.92378 8.90658 3.52188 8.67183 3.20367C8.40405 2.88545 8.00179 2.72654 7.46564 2.72654H5.68276L2.84357 16.9446ZM0.432617 18.7785L3.9998 0.892991H7.8175C9.03993 0.892991 9.92803 1.31138 10.4804 2.14879C10.8822 2.71797 11.0828 3.4635 11.0828 4.38452C11.0828 5.20498 10.7985 7.02224 10.2292 9.83558C9.69346 12.5152 9.25794 14.3533 8.92306 15.3494C8.58789 16.3459 8.13546 17.1118 7.56627 17.648C6.76234 18.4016 5.72444 18.7785 4.45159 18.7785H0.432617ZM11.0835 18.7785L14.6507 0.892991H16.7105L13.1433 18.7785H11.0835ZM16.1581 18.7785L19.7253 0.892991H21.5081L23.3167 13.2522L25.6784 0.892991H27.7382L24.171 18.7785H22.4631L20.6795 6.44432L18.2179 18.7785H16.1581ZM31.6066 18.7785L35.1738 0.892991H38.7659C39.9385 0.892991 40.8084 1.17763 41.3782 1.74696C41.9139 2.28267 42.1825 3.06992 42.1825 4.10831C42.1825 4.82835 42.115 5.49833 41.9813 6.1178C41.5794 8.12735 40.993 9.50062 40.2227 10.2378C39.452 10.9745 38.4053 11.3426 37.0823 11.3426H35.1481L33.6664 18.7785H31.6066ZM35.5 9.50905H37.1329C37.8696 9.50905 38.4519 9.26636 38.8787 8.78034C39.3058 8.29476 39.6534 7.40717 39.9215 6.1178C40.0559 5.49833 40.122 4.93752 40.122 4.43484C40.122 3.84855 39.9923 3.41748 39.733 3.14122C39.4736 2.86481 39.0419 2.72654 38.4391 2.72654H36.8567L35.5 9.50905ZM41.7807 18.7785L44.3672 5.76593H46.2015L45.9253 7.14806C46.1934 6.71247 46.5698 6.34405 47.0558 6.0425C47.5915 5.72429 48.2696 5.56502 49.0899 5.56502L48.7388 7.39893H48.1607C47.5077 7.39893 46.93 7.62522 46.4278 8.07732C45.9252 8.52928 45.5987 9.13224 45.4478 9.8859L43.6899 18.7785H41.7807ZM53.964 12.2726C54.3323 10.3968 54.5164 9.18248 54.5164 8.6301C54.5164 8.21118 54.4334 7.88476 54.2651 7.65016C54.0642 7.39904 53.7792 7.27367 53.4108 7.27367C52.9252 7.27367 52.5316 7.44892 52.2303 7.80076C51.9622 8.10245 51.7276 8.57931 51.5266 9.23284C51.3256 9.88578 51.0917 10.899 50.8236 12.2726C50.4552 14.1478 50.2712 15.3624 50.2712 15.9151C50.2712 16.3336 50.3546 16.6598 50.5224 16.8943C50.7234 17.1454 51.0076 17.2711 51.376 17.2711C51.8616 17.2711 52.2555 17.0955 52.5572 16.7437C52.8248 16.4424 53.0592 15.965 53.2602 15.3116C53.4612 14.6585 53.6957 13.6457 53.964 12.2726ZM48.9144 12.2726C49.2661 10.514 49.5801 9.24531 49.8565 8.46666C50.1327 7.68772 50.4886 7.07236 50.9242 6.62026C51.5772 5.91674 52.4644 5.56502 53.5864 5.56502C54.742 5.56502 55.5464 5.9586 55.9988 6.74587C56.2499 7.19798 56.3749 7.80925 56.3749 8.57943C56.3749 9.3667 56.2079 10.5978 55.8732 12.2726C55.5213 14.0141 55.2073 15.2785 54.931 16.0653C54.6546 16.8526 54.2988 17.4722 53.8633 17.9246C53.2102 18.6276 52.3224 18.9794 51.2004 18.9794C50.0448 18.9794 49.2407 18.5858 48.7887 17.7989C48.5372 17.3465 48.4119 16.7353 48.4119 15.965C48.4119 15.1778 48.5791 13.9468 48.9144 12.2726ZM62.0019 15.4376C62.0019 14.5832 62.2869 12.716 62.8562 9.83558C63.4256 7.02224 63.8819 5.11309 64.2251 4.10831C64.5685 3.10354 65.0247 2.33307 65.5941 1.79692C66.3813 1.06022 67.3861 0.692078 68.6088 0.692078C69.8146 0.692078 70.7018 1.05212 71.271 1.7723C71.7066 2.35815 71.9241 3.12833 71.9241 4.08297C71.9241 4.45132 71.8907 4.8449 71.8234 5.26383H69.7886C69.8559 4.87838 69.8892 4.51834 69.8892 4.18361C69.8892 3.07812 69.4122 2.52527 68.4575 2.52527C67.8712 2.52527 67.3857 2.71794 67.0008 3.10339C66.6154 3.48826 66.2968 4.09122 66.0459 4.91196C65.7943 5.73242 65.4174 7.37363 64.9153 9.83558C64.3455 12.6324 64.061 14.4996 64.061 15.4376C64.061 16.5763 64.5556 17.1455 65.5434 17.1455C66.1297 17.1455 66.6154 16.9281 67.0008 16.4925C67.4694 15.9899 67.7956 15.2868 67.98 14.3823H70.0648C69.713 16.0737 69.0858 17.2965 68.1813 18.0502C67.4611 18.6696 66.5144 18.9794 65.3421 18.9794C64.1029 18.9794 63.2069 18.5858 62.6542 17.7989C62.2188 17.1625 62.0012 16.3753 62.0012 15.4376H62.0019ZM77.2998 12.2726C77.6682 10.3968 77.853 9.18248 77.853 8.6301C77.853 8.21118 77.77 7.88476 77.6017 7.65016C77.4007 7.39904 77.1158 7.27367 76.7474 7.27367C76.2618 7.27367 75.8682 7.44892 75.5669 7.80076C75.2988 8.10245 75.0642 8.57931 74.8632 9.23284C74.6622 9.88578 74.4282 10.899 74.1602 12.2726C73.7918 14.1478 73.6077 15.3624 73.6077 15.9151C73.6077 16.3336 73.6912 16.6598 73.859 16.8943C74.06 17.1454 74.3442 17.2711 74.7126 17.2711C75.1982 17.2711 75.5921 17.0955 75.8938 16.7437C76.1614 16.4424 76.3958 15.965 76.5968 15.3116C76.7978 14.6585 77.0318 13.6457 77.2998 12.2726ZM72.251 12.2726C72.6028 10.514 72.9167 9.24531 73.1931 8.46666C73.4693 7.68772 73.8254 7.07236 74.2608 6.62026C74.9139 5.91674 75.801 5.56502 76.923 5.56502C78.0786 5.56502 78.8823 5.9586 79.3346 6.74587C79.5858 7.19798 79.7115 7.80925 79.7115 8.57943C79.7115 9.3667 79.5446 10.5978 79.2097 12.2726C78.8581 14.0141 78.5433 15.2785 78.2669 16.0653C77.9907 16.8526 77.6353 17.4722 77.1999 17.9246C76.5468 18.6276 75.659 18.9794 74.537 18.9794C73.3814 18.9794 72.5773 18.5858 72.1253 17.7989C71.8738 17.3465 71.7485 16.7353 71.7485 15.965C71.7485 15.1778 71.9158 13.9468 72.251 12.2726ZM80.2389 18.7785L82.8262 5.76593H84.6604L84.4592 6.74587C84.7273 6.4107 85.0203 6.14321 85.3385 5.94222C85.7238 5.69066 86.1841 5.56502 86.7203 5.56502C87.5742 5.56502 88.2103 5.90048 88.6287 6.56994C88.8803 6.95539 89.0063 7.45741 89.0063 8.07732C89.0063 8.37858 88.9477 8.81417 88.83 9.38379L86.9715 18.7785H85.0623L86.9215 9.38379C86.9888 9.06558 87.0222 8.76389 87.0222 8.47915C87.0222 8.14442 86.9255 7.85934 86.7331 7.62518C86.5404 7.39072 86.2519 7.27367 85.8666 7.27367C84.8955 7.27367 84.2755 7.97676 84.0074 9.38379L82.1489 18.7785H80.2389ZM90.438 12.2726C90.8233 10.4134 91.1492 9.08618 91.4173 8.29073C91.685 7.49512 92.0204 6.89625 92.4222 6.49429C93.0753 5.87496 93.8209 5.56502 94.6583 5.56502C95.2107 5.56502 95.6462 5.70671 95.9644 5.99218C96.2155 6.22664 96.3996 6.45263 96.5168 6.67058L97.6723 0.892991H99.5815L96.0144 18.7785H94.1808L94.3564 17.8489C94.1218 18.1671 93.8376 18.4183 93.5028 18.6026C93.1175 18.8537 92.6735 18.9794 92.171 18.9794C91.3004 18.9794 90.6636 18.6613 90.2617 18.0248C89.9937 17.5558 89.8599 16.9864 89.8599 16.3169C89.8599 15.5798 90.053 14.232 90.438 12.2726ZM92.3472 12.2726C91.9954 14.1146 91.8198 15.3204 91.8198 15.8897C91.8198 16.3252 91.9025 16.6518 92.0703 16.8693C92.2546 17.1374 92.5398 17.2711 92.9246 17.2711C93.3601 17.2711 93.7199 17.1368 94.0045 16.8693C94.4065 16.501 94.6751 15.9652 94.8089 15.2617L95.9894 9.28316C96.0391 8.99842 96.0657 8.75543 96.0657 8.55445C96.0657 8.13552 95.9647 7.81734 95.7638 7.59984C95.5629 7.38234 95.2863 7.27367 94.9345 7.27367C94.5496 7.27367 94.173 7.43258 93.8047 7.75079C93.3692 8.15276 92.8837 9.65964 92.348 12.2726H92.3472ZM103.299 18.7785L106.867 0.892991H108.801L110.232 10.6396L115.583 0.892991H117.517L113.95 18.7785H111.89L114.377 6.21843L110.157 14.2321H108.876L107.896 6.14313L105.359 18.7785H103.299ZM117.542 17.7736C117.291 17.3045 117.166 16.7189 117.166 16.0153C117.166 15.3118 117.341 14.0642 117.693 12.2726C118.279 9.30839 118.94 7.43251 119.677 6.64524C120.364 5.9252 121.277 5.56502 122.416 5.56502C123.471 5.56502 124.233 5.91674 124.702 6.62026C125.003 7.07236 125.154 7.70026 125.154 8.50449C125.154 9.39203 124.953 10.7986 124.551 12.7244H119.502C119.2 14.3486 119.05 15.4125 119.05 15.9151C119.05 16.3501 119.151 16.6935 119.351 16.9446C119.535 17.1626 119.812 17.2711 120.18 17.2711C120.649 17.2711 121.026 17.1368 121.31 16.8693C121.678 16.5346 121.946 15.9652 122.114 15.1614H124.024C123.739 16.4173 123.295 17.3464 122.692 17.9492C122.005 18.6357 121.109 18.9794 120.004 18.9794C118.831 18.9794 118.011 18.5774 117.542 17.7736ZM119.828 11.2423H122.943C123.178 10.1368 123.295 9.26653 123.295 8.6301C123.295 7.7256 122.918 7.27367 122.164 7.27367C121.696 7.27367 121.31 7.4573 121.009 7.82609C120.59 8.2782 120.197 9.41666 119.828 11.2423ZM126.435 12.2726C126.82 10.4134 127.146 9.08618 127.415 8.29073C127.682 7.49512 128.018 6.89625 128.419 6.49429C129.072 5.87496 129.818 5.56502 130.656 5.56502C131.208 5.56502 131.643 5.70671 131.961 5.99218C132.212 6.22664 132.397 6.45263 132.514 6.67058L133.67 0.892991H135.579L132.012 18.7785H130.178L130.354 17.8489C130.119 18.1671 129.835 18.4183 129.5 18.6026C129.115 18.8537 128.671 18.9794 128.168 18.9794C127.298 18.9794 126.661 18.6613 126.259 18.0248C125.991 17.5558 125.857 16.9864 125.857 16.3169C125.857 15.5798 126.05 14.232 126.435 12.2726ZM128.344 12.2726C127.992 14.1146 127.816 15.3204 127.816 15.8897C127.816 16.3252 127.9 16.6518 128.068 16.8693C128.252 17.1374 128.537 17.2711 128.922 17.2711C129.358 17.2711 129.717 17.1368 130.002 16.8693C130.404 16.501 130.672 15.9652 130.805 15.2617L131.987 9.28316C132.036 8.99842 132.062 8.75543 132.062 8.55445C132.062 8.13552 131.962 7.81734 131.761 7.59984C131.56 7.38234 131.284 7.27367 130.932 7.27367C130.547 7.27367 130.17 7.43258 129.801 7.75079C129.366 8.15276 128.88 9.65964 128.345 12.2726H128.344ZM134.725 18.7785L137.312 5.76593H139.221L136.634 18.7785H134.725ZM137.639 3.48024L138.09 1.29482H140.226L139.774 3.48024H137.639ZM148.541 5.76593L145.954 18.7785H144.12L144.321 17.7989C144.052 18.1337 143.759 18.4016 143.441 18.6026C143.056 18.8537 142.596 18.9794 142.059 18.9794C141.206 18.9794 140.569 18.6446 140.151 17.9745C139.9 17.5892 139.774 17.0873 139.774 16.4675C139.774 16.1662 139.832 15.7307 139.95 15.1614L141.809 5.76593H143.718L141.859 15.1614C141.792 15.4796 141.758 15.7807 141.758 16.0653C141.758 16.4005 141.854 16.6852 142.047 16.9196C142.239 17.1538 142.528 17.2711 142.913 17.2711C143.884 17.2711 144.504 16.568 144.772 15.1614L146.631 5.76593H148.541ZM148.641 18.7785L151.229 5.76593H153.088L152.887 6.74587C153.155 6.4107 153.448 6.14321 153.766 5.94222C154.184 5.69066 154.637 5.56502 155.123 5.56502C156.178 5.56502 156.881 6.03408 157.232 6.97177C157.584 6.55328 157.995 6.20986 158.464 5.94222C158.916 5.69066 159.418 5.56502 159.971 5.56502C160.825 5.56502 161.461 5.90048 161.88 6.56994C162.131 6.95539 162.257 7.45741 162.257 8.07732C162.257 8.31178 162.19 8.74737 162.056 9.38379L160.197 18.7785H158.288L160.147 9.38379C160.23 8.93139 160.272 8.63 160.272 8.47915C160.272 8.14442 160.176 7.85934 159.983 7.62518C159.791 7.39072 159.502 7.27367 159.117 7.27367C158.146 7.27367 157.517 7.97676 157.232 9.38379L155.374 18.7785H153.465L155.324 9.38379C155.391 9.09876 155.425 8.79736 155.425 8.47915C155.425 8.12746 155.333 7.8386 155.148 7.61233C154.965 7.3865 154.679 7.27367 154.294 7.27367C153.323 7.27367 152.695 7.97676 152.411 9.38379L150.551 18.7785H148.641ZM168.763 12.2726C169.131 10.3968 169.316 9.18248 169.316 8.6301C169.316 8.21118 169.232 7.88476 169.064 7.65016C168.863 7.39904 168.579 7.27367 168.21 7.27367C167.725 7.27367 167.331 7.44892 167.03 7.80076C166.762 8.10245 166.527 8.57931 166.326 9.23284C166.125 9.88578 165.89 10.899 165.622 12.2726C165.254 14.1478 165.07 15.3624 165.07 15.9151C165.07 16.3336 165.153 16.6598 165.321 16.8943C165.522 17.1454 165.807 17.2711 166.175 17.2711C166.661 17.2711 167.054 17.0955 167.356 16.7437C167.624 16.4424 167.859 15.965 168.06 15.3116C168.26 14.6585 168.495 13.6457 168.763 12.2726ZM163.714 12.2726C164.065 10.514 164.379 9.24531 164.655 8.46666C164.932 7.68772 165.288 7.07236 165.724 6.62026C166.377 5.91674 167.264 5.56502 168.386 5.56502C169.541 5.56502 170.345 5.9586 170.797 6.74587C171.049 7.19798 171.174 7.80925 171.174 8.57943C171.174 9.3667 171.007 10.5978 170.672 12.2726C170.32 14.0141 170.006 15.2785 169.73 16.0653C169.453 16.8526 169.097 17.4722 168.662 17.9246C168.009 18.6276 167.122 18.9794 166 18.9794C164.844 18.9794 164.04 18.5858 163.588 17.7989C163.337 17.3465 163.211 16.7353 163.211 15.965C163.211 15.1778 163.379 13.9468 163.714 12.2726ZM177.128 12.2726C177.764 9.0067 178.262 6.775 178.622 5.57787C178.982 4.38044 179.413 3.47207 179.916 2.85216C180.485 2.1656 181.222 1.65919 182.126 1.33264C183.03 1.00581 184.262 0.83421 185.819 0.817693L185.493 2.50065C183.55 2.53427 182.219 2.95265 181.498 3.75645C180.996 4.34274 180.544 5.30573 180.142 6.64524C180.762 6.00881 181.465 5.69063 182.252 5.69063C183.14 5.69063 183.793 6.05949 184.212 6.79619C184.463 7.21468 184.588 7.80925 184.588 8.57943C184.588 9.33323 184.412 10.5641 184.061 12.2726C183.709 14.0306 183.395 15.295 183.119 16.0653C182.843 16.8359 182.495 17.4555 182.076 17.9246C181.407 18.6276 180.51 18.9794 179.388 18.9794C178.233 18.9794 177.429 18.5858 176.977 17.7989C176.726 17.3465 176.6 16.7353 176.6 15.965C176.6 15.2615 176.776 14.0306 177.128 12.2726ZM179.037 12.2726C178.668 14.1478 178.484 15.3624 178.484 15.9151C178.484 16.3501 178.568 16.6768 178.736 16.8943C178.936 17.1454 179.221 17.2711 179.589 17.2711C180.042 17.2711 180.436 17.0955 180.77 16.7437C181.038 16.4424 181.268 15.965 181.461 15.3116C181.653 14.6585 181.884 13.6457 182.151 12.2726C182.52 10.4304 182.705 9.2245 182.705 8.65472C182.705 8.21928 182.621 7.88476 182.453 7.65016C182.286 7.39904 182.001 7.27367 181.599 7.27367C181.13 7.27367 180.737 7.4573 180.418 7.82609C179.983 8.31167 179.522 9.79397 179.037 12.2726ZM185.091 18.7785L187.678 5.76593H189.587L188.583 10.7905H189.989C190.927 10.7905 191.63 11.0333 192.099 11.5189C192.501 11.9374 192.702 12.5655 192.702 13.4028C192.702 13.8718 192.66 14.3405 192.577 14.8095C192.275 16.2833 191.819 17.3129 191.208 17.8992C190.596 18.4855 189.738 18.7785 188.633 18.7785H185.091ZM187.327 17.0702H188.633C189.219 17.0702 189.667 16.8905 189.977 16.5303C190.287 16.1703 190.517 15.5968 190.668 14.8095C190.735 14.3741 190.768 14.0392 190.768 13.8046C190.768 12.917 190.366 12.4735 189.562 12.4735H188.256L187.327 17.0702ZM193.129 18.7785L195.716 5.76593H197.626L195.038 18.7785H193.129ZM201.62 18.7785L202.524 14.3574C202.088 14.4582 201.586 14.5076 201.017 14.5076C200.213 14.5076 199.598 14.3198 199.171 13.9427C198.744 13.566 198.53 13.0592 198.53 12.4228C198.53 12.1381 198.579 11.7281 198.68 11.1924L199.761 5.76593H201.67L200.59 11.1417C200.54 11.4098 200.515 11.6362 200.515 11.8201C200.515 12.4901 200.858 12.8246 201.545 12.8246C201.947 12.8246 202.382 12.7751 202.851 12.6744L204.233 5.76593H206.142L203.53 18.7785H201.62ZM206.242 18.7785L208.829 5.76593H210.739L209.633 11.2677H212.497L213.602 5.76593H215.511L212.924 18.7785H211.015L212.146 12.9756H209.281L208.152 18.7785H206.242ZM215.612 18.7785L218.199 5.76593H220.109L219.104 10.7905H220.51C221.448 10.7905 222.152 11.0333 222.621 11.5189C223.023 11.9374 223.223 12.5655 223.223 13.4028C223.223 13.8718 223.181 14.3405 223.098 14.8095C222.796 16.2833 222.34 17.3129 221.729 17.8992C221.117 18.4855 220.259 18.7785 219.154 18.7785H215.612ZM217.848 17.0702H219.154C219.74 17.0702 220.188 16.8905 220.498 16.5303C220.808 16.1703 221.038 15.5968 221.188 14.8095C221.256 14.3741 221.29 14.0392 221.29 13.8046C221.29 12.917 220.888 12.4735 220.084 12.4735H218.777L217.848 17.0702ZM223.651 18.7785L226.238 5.76593H228.147L225.559 18.7785H223.651ZM228.247 18.7785L230.834 5.76593H232.744L231.011 14.307L236.11 5.76593H237.768L235.18 18.7785H233.271L234.954 10.2378L229.905 18.7785H228.247ZM232.242 1.52071H233.623C233.607 1.60403 233.598 1.68825 233.598 1.7723C233.598 2.49204 233.992 2.85216 234.779 2.85216C235.65 2.85216 236.211 2.40826 236.462 1.52071H237.843C237.609 2.45883 237.241 3.14135 236.738 3.56802C236.236 3.99528 235.533 4.20859 234.629 4.20859C233.858 4.20859 233.259 4.01614 232.832 3.63083C232.405 3.24553 232.191 2.73525 232.191 2.09882C232.191 2.08128 232.209 1.88906 232.243 1.52071H232.242Z" fill="black"/>
</svg>
