<svg width="250" height="27" viewBox="0 0 250 27" fill="none" xmlns="http://www.w3.org/2000/svg">
<path fill-rule="evenodd" clip-rule="evenodd" d="M5.14961 4.78388C6.86506 4.78388 8.11624 5.18242 8.90307 5.97919C9.68991 6.7764 10.0836 8.00206 10.0836 9.657V10.4135C10.0836 12.5925 9.36688 14.0153 7.93455 14.6813C9.58906 15.3267 10.4162 16.8404 10.4162 19.2212V20.9465C10.4162 22.5811 9.98777 23.827 9.13004 24.6843C8.27231 25.5418 7.01638 25.9707 5.36158 25.9707H0.125V4.78388H5.14961ZM4.93763 16.4368H3.45452V22.944H5.36158C5.947 22.944 6.38087 22.7877 6.66341 22.4749C6.94567 22.1621 7.08665 21.6224 7.08665 20.8558V19.0094C7.08665 18.0408 6.92044 17.3699 6.58776 16.9966C6.25464 16.6232 5.70415 16.4368 4.93763 16.4368ZM5.05896 7.81078H3.45452V13.4101H4.75635C5.42274 13.4101 5.92162 13.2384 6.25445 12.8953C6.58757 12.5523 6.75406 11.9772 6.75406 11.1701V9.9896C6.75406 8.53696 6.18886 7.81078 5.05896 7.81078ZM15.7434 7.81078V13.7126H20.3141V16.7393H15.7434V22.944H21.4946V25.9707H12.4139V4.78388H21.4946V7.81078H15.7434ZM28.5768 4.78388C30.2923 4.78388 31.5428 5.18242 32.3296 5.97919C33.1164 6.7764 33.5101 8.00206 33.5101 9.657V10.4135C33.5101 12.5925 32.7941 14.0153 31.3618 14.6813C33.0163 15.3267 33.8434 16.8404 33.8434 19.2212V20.9465C33.8434 22.5811 33.415 23.827 32.5573 24.6843C31.6995 25.5418 30.4436 25.9707 28.7888 25.9707H23.5522V4.78388H28.5768ZM28.3649 16.4368H26.8817V22.944H28.7888C29.3742 22.944 29.8081 22.7877 30.0906 22.4749C30.3729 22.1621 30.5139 21.6224 30.5139 20.8558V19.0094C30.5139 18.0408 30.3471 17.3699 30.0143 16.9966C29.6812 16.6232 29.1314 16.4368 28.3649 16.4368ZM28.4862 7.81078H26.8825V13.4101H28.1836C28.8498 13.4101 29.349 13.2384 29.6817 12.8953C30.0148 12.5523 30.1813 11.9772 30.1813 11.1701V9.9896C30.1813 8.53696 29.6162 7.81078 28.4862 7.81078ZM43.2267 4.78388L46.6162 25.9707H43.2567L42.6814 22.127H38.5954L38.0208 25.9707H34.9639L38.3534 4.78388H43.2267ZM40.6238 8.53699L39.0193 19.2514H42.2275L40.6238 8.53699ZM47.736 9.86862C47.736 8.15331 48.1501 6.83698 48.9772 5.91888C49.8046 5.00064 51.0251 4.5414 52.6393 4.5414C54.2536 4.5414 55.4746 5.00064 56.3021 5.91888C57.1296 6.83698 57.5433 8.15331 57.5433 9.86862V10.5343H54.395V9.657C54.395 8.26429 53.8407 7.56811 52.7306 7.56811C51.6211 7.56811 51.0662 8.26429 51.0662 9.657C51.0662 10.242 51.187 10.7968 51.4288 11.3212C51.6712 11.8458 51.9837 12.3203 52.3674 12.7442C52.7506 13.1677 53.1744 13.5865 53.6385 14C54.1026 14.4135 54.5618 14.8473 55.016 15.3015C55.4697 15.7556 55.8882 16.2401 56.2714 16.7546C56.6547 17.2688 56.9676 17.8795 57.21 18.5855C57.452 19.2921 57.5732 20.0587 57.5732 20.886C57.5732 22.601 57.1499 23.9178 56.3021 24.8359C55.4548 25.7537 54.2235 26.2129 52.6093 26.2129C50.995 26.2129 49.7643 25.7537 48.9165 24.8359C48.0692 23.9178 47.6454 22.601 47.6454 20.886V19.5845H50.7936V21.0978C50.7936 22.47 51.3684 23.1558 52.5187 23.1558C53.6689 23.1558 54.2437 22.47 54.2437 21.0978C54.2437 20.311 54.0216 19.5692 53.5778 18.8731C53.1336 18.1771 52.5947 17.5463 51.9591 16.9812C51.3236 16.4164 50.6827 15.826 50.037 15.2107C49.3916 14.5954 48.846 13.8286 48.4019 12.9103C47.9581 11.9927 47.736 10.9782 47.736 9.86862ZM71.2839 25.9707L67.1378 10.6252V25.9707H64.1416V4.78388H68.3183L71.7385 17.4655V4.78388H74.7047V25.9707H71.2839ZM80.4252 7.81078V13.7126H84.9959V16.7393H80.4252V22.944H86.1757V25.9707H77.0957V4.78388H86.1757V7.81078H80.4252ZM88.0827 4.78388H91.4123V21.128C91.4123 22.5002 91.9871 23.1861 93.1373 23.1861C94.2875 23.1861 94.8624 22.5002 94.8624 21.128V4.78388H98.0106V20.9162C98.0106 22.6312 97.5868 23.9478 96.7395 24.8661C95.8918 25.7843 94.661 26.243 93.0467 26.243C91.4324 26.243 90.2011 25.7843 89.3539 24.8661C88.5061 23.9478 88.0827 22.6312 88.0827 20.9162V4.78388ZM103.61 7.81078V13.7126H108.18V16.7393H103.61V22.944H109.361V25.9707H100.28V4.78388H109.361V7.81078H103.61ZM116.443 4.78388C118.159 4.78388 119.409 5.18242 120.196 5.97919C120.983 6.7764 121.376 8.00206 121.376 9.657V10.4135C121.376 12.5925 120.66 14.0153 119.228 14.6813C120.883 15.3267 121.71 16.8404 121.71 19.2212V20.9465C121.71 22.5811 121.281 23.827 120.424 24.6843C119.566 25.5418 118.31 25.9707 116.655 25.9707H111.419V4.78388H116.443ZM116.231 16.4368H114.748V22.944H116.655C117.241 22.944 117.674 22.7877 117.957 22.4749C118.239 22.1621 118.38 21.6224 118.38 20.8558V19.0094C118.38 18.0408 118.213 17.3699 117.881 16.9966C117.548 16.6232 116.998 16.4368 116.231 16.4368ZM116.353 7.81078H114.748V13.4101H116.05C116.716 13.4101 117.215 13.2384 117.548 12.8953C117.881 12.5523 118.048 11.9772 118.048 11.1701V9.9896C118.048 8.53696 117.482 7.81078 116.353 7.81078ZM126.765 9.657V21.0978C126.765 22.4899 127.34 23.1861 128.49 23.1861C129.64 23.1861 130.215 22.4899 130.215 21.0978V9.657C130.215 8.26429 129.64 7.56811 128.49 7.56811C127.34 7.56811 126.765 8.26429 126.765 9.657ZM123.436 20.886V9.86862C123.436 8.17363 123.869 6.86223 124.737 5.93405C125.604 5.00557 126.856 4.5414 128.49 4.5414C130.124 4.5414 131.375 5.00557 132.243 5.93405C133.11 6.86223 133.545 8.17363 133.545 9.86862V20.886C133.545 22.5811 133.11 23.8925 132.243 24.8206C131.375 25.7488 130.124 26.2129 128.49 26.2129C126.856 26.2129 125.604 25.7488 124.737 24.8206C123.869 23.8925 123.436 22.5811 123.436 20.886ZM135.694 25.9707V4.78388H139.023V22.944H144.501V25.9707H135.694ZM145.954 25.9707V4.78388H151.22C154.53 4.78388 156.185 6.52909 156.185 10.0199V20.7349C156.185 24.2257 154.53 25.9707 151.22 25.9707H145.954ZM151.16 7.81078H149.283V22.944H151.16C152.29 22.944 152.855 22.258 152.855 20.886V9.86862C152.855 8.49637 152.29 7.81078 151.16 7.81078ZM162.026 7.81078V4.78388H172.317V7.81078H168.836V25.9707H165.507V7.81078H162.026ZM176.827 9.657V21.0978C176.827 22.4899 177.402 23.1861 178.552 23.1861C179.702 23.1861 180.277 22.4899 180.277 21.0978V9.657C180.277 8.26429 179.702 7.56811 178.552 7.56811C177.402 7.56811 176.827 8.26429 176.827 9.657ZM173.497 20.886V9.86862C173.497 8.17363 173.932 6.86223 174.799 5.93405C175.667 5.00557 176.917 4.5414 178.552 4.5414C180.186 4.5414 181.437 5.00557 182.305 5.93405C183.173 6.86223 183.607 8.17363 183.607 9.86862V20.886C183.607 22.5811 183.173 23.8925 182.305 24.8206C181.437 25.7488 180.186 26.2129 178.552 26.2129C176.917 26.2129 175.667 25.7488 174.799 24.8206C173.932 23.8925 173.497 22.5811 173.497 20.886ZM184.817 26.0011V22.9742C185.624 22.9742 186.164 22.8485 186.437 22.5959C186.709 22.3436 186.855 21.7433 186.876 20.7954L187.42 4.78388H196.833V25.9707H193.443V7.81078H190.538L190.174 20.6134C190.114 22.5504 189.711 23.9328 188.964 24.7601C188.217 25.5876 187.007 26.0011 185.332 26.0011H184.817ZM205.883 18.0709H209.031V20.886C209.031 22.601 208.607 23.9178 207.76 24.8359C206.912 25.7537 205.681 26.2129 204.067 26.2129C202.453 26.2129 201.222 25.7537 200.375 24.8359C199.527 23.9178 199.103 22.601 199.103 20.886V9.86862C199.103 8.15331 199.527 6.83698 200.375 5.91888C201.222 5.00064 202.453 4.5414 204.067 4.5414C205.681 4.5414 206.912 5.00064 207.76 5.91888C208.607 6.83698 209.031 8.15331 209.031 9.86862V11.9266H205.883V9.657C205.883 8.26429 205.308 7.56811 204.158 7.56811C203.007 7.56811 202.433 8.26429 202.433 9.657V21.0978C202.433 22.47 203.007 23.1558 204.158 23.1558C205.308 23.1558 205.883 22.47 205.883 21.0978V18.0709ZM210.09 7.81078V4.78388H220.381V7.81078H216.9V25.9707H213.571V7.81078H210.09ZM226.737 25.9707H221.834V4.78388H225.163V12.7442H226.737C230.046 12.7442 231.701 14.4894 231.701 17.9803V20.7349C231.701 24.2257 230.046 25.9707 226.737 25.9707ZM225.163 22.944H226.737C227.282 22.944 227.69 22.7928 227.962 22.4899C228.235 22.1875 228.371 21.6728 228.371 20.9465V17.7686C228.371 17.0422 228.235 16.5275 227.962 16.2247C227.69 15.9221 227.282 15.7706 226.737 15.7706H225.163V22.944ZM236.937 25.9707H233.608V4.78388H236.937V25.9707ZM242.779 25.9707L245.563 16.255L246.925 11.0491V25.9707H249.921V4.78388H246.259L243.535 13.5311L242.325 18.1921V4.78388H239.358V25.9707H242.779ZM246.199 0.0620728H248.226C248.226 1.11114 247.924 1.9337 247.319 2.52905C246.713 3.12411 245.836 3.42157 244.686 3.42157C243.555 3.42157 242.703 3.12898 242.128 2.54386C241.553 1.95889 241.245 1.13146 241.205 0.0620728H243.262C243.303 0.60685 243.434 0.975254 243.656 1.16674C243.879 1.35851 244.221 1.45419 244.686 1.45419C245.17 1.45419 245.533 1.35332 245.775 1.15175C246.017 0.949887 246.159 0.586532 246.199 0.0620728Z" fill="black"/>
</svg>
