<svg width="301" height="20" viewBox="0 0 301 20" fill="none" xmlns="http://www.w3.org/2000/svg">
<path fill-rule="evenodd" clip-rule="evenodd" d="M14.6406 15.0168H10.2648L9.97285 13.0479H5.77973L4.70415 15.0168H0L7.93089 2.10899H12.3795L14.6406 15.0168ZM9.62669 9.82059L9.24414 6.50249L7.40273 9.82059H9.62669ZM27.676 5.42691L22.0612 15.0168H17.6125L15.9895 5.42691H20.2926L20.6573 10.7325H20.7308L23.1553 5.42691H27.676ZM37.3213 11.1702H30.7936C30.7789 11.2068 30.7764 11.249 30.7764 11.2973C30.7764 11.6494 30.9435 11.9081 31.2775 12.0722C31.6118 12.2362 31.9674 12.3183 32.3445 12.3183C33.0248 12.3183 33.5842 12.1053 34.0217 11.6802L36.7746 13.5762C35.6322 14.7311 34.0642 15.308 32.0711 15.308C30.6246 15.308 29.4239 14.9283 28.4697 14.1688C27.5155 13.4088 27.0387 12.3365 27.0387 10.9509C27.0387 9.29776 27.6011 7.91518 28.7252 6.80297C29.8497 5.69091 31.2863 5.13482 33.0368 5.13482C34.4345 5.13482 35.5407 5.51759 36.3549 6.28338C37.1691 7.04902 37.5768 8.09452 37.5768 9.41912C37.5768 10.039 37.4917 10.6227 37.3213 11.1697V11.1702ZM34.021 9.00034C34.0356 8.95211 34.0389 8.8789 34.0389 8.78141C34.0389 8.47767 33.9259 8.23444 33.7013 8.05216C33.4763 7.86989 33.1637 7.77881 32.7627 7.77881C32.3127 7.77881 31.9269 7.91034 31.6051 8.17082C31.2826 8.43217 31.0849 8.70859 31.012 9.00034H34.021ZM39.4539 7.30472C39.5752 6.69694 39.6664 6.07123 39.7272 5.42691H43.6656C43.6656 5.53654 43.6233 5.94939 43.5385 6.66665H43.612C43.9038 6.25357 44.3072 5.90709 44.8239 5.62747C45.3402 5.3477 45.8841 5.20816 46.4555 5.20816C47.4521 5.20816 48.1907 5.4754 48.6709 6.01038C49.1512 6.54522 49.391 7.21979 49.391 8.03396C49.391 8.45947 49.3542 8.86683 49.2811 9.2555L48.2783 15.0168H44.1766L45.0702 9.92997C45.1067 9.71115 45.1237 9.5048 45.1237 9.3101C45.1237 8.76313 44.844 8.48967 44.2851 8.48967C44.0054 8.48967 43.7596 8.61679 43.5471 8.87259C43.3341 9.1278 43.1852 9.48671 43.1003 9.94817L42.1881 15.0168H38.1049L39.4539 7.30472ZM54.2579 15.0168H50.174L51.8698 5.42691H55.9537L54.2579 15.0168ZM54.148 4.71587C53.5526 4.71587 53.067 4.54288 52.6899 4.19645C52.3132 3.85003 52.1246 3.43346 52.1246 2.94744C52.1246 2.29114 52.3407 1.73513 52.7719 1.27894C53.2037 0.823176 53.7595 0.595367 54.4399 0.595367C55.0237 0.595367 55.5038 0.771787 55.8809 1.12406C56.2575 1.47662 56.4455 1.89012 56.4455 2.36415C56.4455 3.02046 56.2302 3.57654 55.7988 4.0323C55.3672 4.48806 54.8167 4.71587 54.148 4.71587ZM57.631 7.30472C57.7523 6.69694 57.8434 6.07123 57.9043 5.42691H61.8241C61.7875 5.828 61.7335 6.21699 61.6599 6.59367H61.7142C62.3705 5.68215 63.1849 5.22636 64.1572 5.22636C64.4854 5.22636 64.7408 5.25707 64.9231 5.317L64.1572 8.78105C63.9625 8.72112 63.6767 8.69041 63.3001 8.69041C62.7043 8.69041 62.2216 8.85159 61.8512 9.1736C61.4804 9.4959 61.2524 9.89363 61.1675 10.3677L60.3467 15.017H56.2628L57.631 7.30472ZM81.0582 15.0168H76.8108L74.2586 8.61725H74.1851L73.1823 15.0168H69.0798L71.3594 2.10899H75.4976L78.1048 8.83619H78.1776L79.2354 2.10899H83.3378L81.0582 15.0168ZM93.821 11.1702H87.294C87.2794 11.2068 87.2761 11.249 87.2761 11.2973C87.2761 11.6494 87.4439 11.9081 87.7779 12.0722C88.1122 12.2362 88.4678 12.3183 88.8449 12.3183C89.5252 12.3183 90.084 12.1053 90.5214 11.6802L93.275 13.5762C92.1327 14.7311 90.5639 15.308 88.5708 15.308C87.1243 15.308 85.9243 14.9283 84.9701 14.1688C84.0159 13.4088 83.5391 12.3365 83.5391 10.9509C83.5391 9.29776 84.1009 7.91518 85.2249 6.80297C86.3494 5.69091 87.7867 5.13482 89.5372 5.13482C90.9349 5.13482 92.0412 5.51759 92.8553 6.28338C93.6695 7.04902 94.0772 8.09452 94.0772 9.41912C94.0772 10.039 93.9921 10.6227 93.8217 11.1697L93.821 11.1702ZM90.5214 9.00034C90.5361 8.95211 90.5386 8.8789 90.5386 8.78141C90.5386 8.47767 90.4264 8.23444 90.2017 8.05216C89.9767 7.86989 89.6635 7.77881 89.2624 7.77881C88.8125 7.77881 88.4268 7.91034 88.1048 8.17082C87.7825 8.43217 87.5846 8.70859 87.5117 9.00034H90.5214ZM105.179 15.0168H100.713L99.6007 12.7379L97.5766 15.0168H92.8546L97.5952 10.0757L95.0607 5.42691H99.5094L100.512 7.54185L102.317 5.42691H106.911L102.481 10.0757L105.179 15.0168ZM113.001 8.3621H111.214L110.722 11.0607C110.697 11.2551 110.686 11.4191 110.686 11.553C110.686 11.8082 110.753 11.9873 110.886 12.0908C111.019 12.1945 111.22 12.2456 111.488 12.2456C111.78 12.2456 112.047 12.2092 112.29 12.1361L111.798 14.9437C111.421 15.1624 110.752 15.2718 109.792 15.2718C107.629 15.2718 106.547 14.4513 106.547 12.8106C106.547 12.5188 106.577 12.2091 106.637 11.8809L107.275 8.36174H105.854L106.364 5.42673H107.713L108.095 3.2572H112.052L111.669 5.42673H113.511L113.001 8.3621ZM129.719 13.5402C128.346 14.7678 126.608 15.3816 124.505 15.3816C122.585 15.3816 121.077 14.8681 119.983 13.841C118.889 12.8138 118.342 11.4253 118.342 9.67481C118.342 7.45054 119.078 5.57283 120.548 4.0414C122.019 2.50997 123.873 1.74428 126.109 1.74428C127.178 1.74428 128.145 1.9142 129.008 2.25477C129.871 2.59491 130.54 3.02626 131.014 3.54911L128.078 6.57547C127.641 5.95571 126.948 5.64567 126 5.64567C125.1 5.64567 124.365 5.98919 123.794 6.67575C123.222 7.36231 122.937 8.19806 122.937 9.18252C122.937 9.83883 123.143 10.38 123.557 10.8055C123.97 11.2307 124.553 11.4436 125.307 11.4436C126.145 11.4436 126.923 11.1092 127.641 10.4405L129.719 13.5402ZM132.581 15.0896L132.691 14.8893L130.394 5.42691H134.916L135.499 10.6779H135.572L137.814 5.42691H142.19L136.629 15.6003C135.9 16.9493 135.168 17.9188 134.433 18.508C133.697 19.0977 132.673 19.3923 131.36 19.3923C130.57 19.3923 129.872 19.2957 129.264 19.1006L129.957 15.8738C130.285 16.02 130.606 16.0924 130.922 16.0924C131.676 16.0924 132.23 15.7581 132.582 15.0896H132.581ZM142.718 7.30472C142.839 6.69694 142.931 6.07123 142.991 5.42691H146.912C146.875 5.828 146.821 6.21699 146.748 6.59367H146.802C147.458 5.68215 148.273 5.22636 149.245 5.22636C149.573 5.22636 149.828 5.25707 150.01 5.317L149.245 8.78105C149.05 8.72112 148.765 8.69041 148.388 8.69041C147.792 8.69041 147.309 8.85159 146.938 9.1736C146.568 9.4959 146.34 9.89363 146.255 10.3677L145.434 15.017H141.351L142.718 7.30472ZM166.274 15.0168H162.062L162.937 10.0577H159.254L158.379 15.0168H154.168L156.447 2.10899H160.64L159.856 6.53907H163.539L164.323 2.10899H168.553L166.274 15.0168ZM179.036 11.1702H172.509C172.494 11.2068 172.49 11.249 172.49 11.2973C172.49 11.6494 172.657 11.9081 172.991 12.0722C173.326 12.2362 173.681 12.3183 174.058 12.3183C174.739 12.3183 175.298 12.1053 175.736 11.6802L178.488 13.5762C177.346 14.7311 175.778 15.308 173.785 15.308C172.339 15.308 171.138 14.9283 170.184 14.1688C169.229 13.4088 168.753 12.3365 168.753 10.9509C168.753 9.29776 169.315 7.91518 170.439 6.80297C171.564 5.69091 173.001 5.13482 174.751 5.13482C176.149 5.13482 177.255 5.51759 178.07 6.28338C178.884 7.04902 179.291 8.09452 179.291 9.41912C179.291 10.039 179.206 10.6227 179.035 11.1697L179.036 11.1702ZM175.736 9.00034C175.751 8.95211 175.753 8.8789 175.753 8.78141C175.753 8.47767 175.641 8.23444 175.417 8.05216C175.192 7.86989 174.878 7.77881 174.477 7.77881C174.027 7.77881 173.642 7.91034 173.32 8.17082C172.997 8.43217 172.8 8.70859 172.727 9.00034H175.736ZM185.801 11.3888L185.854 11.0789H185.617C184.134 11.0789 183.392 11.4192 183.392 12.1C183.392 12.5375 183.672 12.7563 184.231 12.7563C184.632 12.7563 184.976 12.629 185.262 12.3734C185.547 12.118 185.727 11.7899 185.8 11.3888H185.801ZM189.009 13.5402C188.924 14.0386 188.882 14.5308 188.882 15.0168H185.382C185.382 14.7495 185.396 14.458 185.418 14.1418H185.382C184.713 14.8955 183.813 15.2722 182.683 15.2722C181.917 15.2722 181.249 15.0596 180.677 14.6339C180.106 14.2084 179.82 13.5765 179.82 12.7379C179.82 10.246 181.869 9.00034 185.965 9.00034C185.979 8.94041 185.983 8.87317 185.983 8.79979C185.983 8.557 185.878 8.37123 185.672 8.24362C185.465 8.11645 185.186 8.05216 184.833 8.05216C184.067 8.05216 183.356 8.33183 182.7 8.89079L180.914 6.849C181.485 6.31417 182.181 5.89481 183.001 5.59107C183.822 5.28733 184.615 5.13518 185.381 5.13518C186.815 5.13518 187.906 5.42998 188.653 6.01948C189.401 6.60913 189.775 7.43849 189.775 8.50787C189.775 8.95793 189.726 9.46219 189.628 10.0211L189.009 13.5402ZM202.682 5.42691L197.067 15.0168H192.619L190.996 5.42691H195.299L195.663 10.7325H195.736L198.162 5.42691H202.682ZM204.506 15.0896L204.615 14.8893L202.318 5.42691H206.84L207.424 10.6779H207.496L209.739 5.42691H214.115L208.554 15.6003C207.825 16.9493 207.092 17.9188 206.356 18.508C205.622 19.0977 204.597 19.3923 203.285 19.3923C202.495 19.3923 201.796 19.2957 201.188 19.1006L201.881 15.8738C202.209 16.02 202.531 16.0924 202.847 16.0924C203.601 16.0924 204.154 15.7581 204.507 15.0896H204.506ZM219.547 15.0167L220.695 8.43472H218.198L218.726 5.42673H227.806L227.277 8.43472H224.798L223.649 15.0167H219.547ZM232.71 15.3082C231.191 15.3082 229.942 14.9315 228.964 14.1779C227.985 13.4242 227.496 12.3731 227.496 11.0239C227.496 9.34618 228.03 7.94584 229.1 6.82135C230.17 5.6973 231.616 5.135 233.439 5.135C234.995 5.135 236.266 5.5117 237.25 6.26536C238.234 7.01901 238.727 8.07011 238.727 9.41912C238.727 11.0969 238.189 12.4974 237.113 13.6219C236.037 14.7461 234.57 15.3082 232.71 15.3082ZM232.893 11.9537C233.464 11.9537 233.917 11.7532 234.251 11.3521C234.585 10.951 234.752 10.4526 234.752 9.85681C234.752 9.44373 234.628 9.10924 234.379 8.85403C234.129 8.59882 233.773 8.4713 233.312 8.4713C232.765 8.4713 232.321 8.67495 231.981 9.08189C231.641 9.48912 231.47 9.98441 231.47 10.5682C231.47 10.9813 231.595 11.3158 231.844 11.571C232.094 11.8262 232.443 11.9537 232.893 11.9537ZM240.477 15.1442C239.395 15.1442 238.702 15.0712 238.398 14.9255L239 11.9537C239.133 12.002 239.316 12.0269 239.547 12.0269C239.948 12.0269 240.31 11.8383 240.632 11.4616C240.954 11.0846 241.212 10.3311 241.407 9.20072L242.063 5.42691H251.653L249.976 15.0168H245.873L247.022 8.4349H245.418L245.181 9.80239C244.986 10.9086 244.743 11.8201 244.451 12.5374C244.16 13.2542 243.807 13.7981 243.394 14.1689C242.981 14.5398 242.549 14.795 242.099 14.9346C241.649 15.0749 241.109 15.1444 240.477 15.1444V15.1442ZM256.94 15.3082C255.518 15.3082 254.375 14.9191 253.512 14.1415C252.649 13.3633 252.218 12.3241 252.218 11.0239C252.218 9.40714 252.774 8.02159 253.886 6.86685C254.998 5.7121 256.417 5.135 258.143 5.135C259.809 5.135 260.994 5.56042 261.699 6.41114L259.383 8.94539C259.152 8.6051 258.745 8.43472 258.161 8.43472C257.566 8.43472 257.08 8.63233 256.703 9.02729C256.326 9.42253 256.138 9.90565 256.138 10.477C256.138 10.8657 256.271 11.1972 256.539 11.4707C256.807 11.7442 257.189 11.8809 257.687 11.8809C258.258 11.8809 258.727 11.6986 259.091 11.3339L260.714 14.0869C259.681 14.901 258.423 15.3082 256.94 15.3082ZM263.175 15.0167L264.324 8.43472H261.826L262.355 5.42673H271.434L270.906 8.43472H268.426L267.278 15.0167H263.175ZM271.051 15.0167L272.728 5.42673H276.813L276.321 8.27074H277.341C278.641 8.27074 279.648 8.53842 280.359 9.07296C281.07 9.6078 281.425 10.349 281.425 11.2975C281.425 13.7768 279.827 15.0167 276.63 15.0167H271.051ZM275.5 12.4096H276.302C277.286 12.4096 277.779 12.0933 277.779 11.4614C277.779 10.9386 277.39 10.6776 276.612 10.6776H275.792L275.5 12.4096ZM281.735 15.0167L283.412 5.42673H287.497L285.82 15.0167H281.735ZM287.807 15.0167L289.484 5.42673H293.367L292.492 10.4588H292.546L295.792 5.42673H300.13L298.453 15.0167H294.588L295.408 10.2761H295.355L292.237 15.0167H287.807ZM294.844 4.36935C292.935 4.36935 291.933 3.56083 291.835 1.94448L293.75 1.57995C293.765 2.18729 294.152 2.49137 294.917 2.49137C295.804 2.49137 296.327 2.17526 296.485 1.54337L298.326 1.92628C297.877 3.55462 296.715 4.36935 294.844 4.36935Z" fill="black"/>
</svg>
