<svg width="250" height="22" viewBox="0 0 250 22" fill="none" xmlns="http://www.w3.org/2000/svg">
<path fill-rule="evenodd" clip-rule="evenodd" d="M4.39287 12.5612L1.89342 16.5687H0.126953L9.95134 1.31467H11.4594L14.6269 16.5687H13.0104L12.1917 12.5612H4.39287ZM10.361 3.03831L5.27646 11.1391H11.9555L10.361 3.03831ZM26.5632 6.48524L20.4873 16.5687H18.9357L16.8245 6.48524H18.3112L19.927 15.0174H19.9706L24.9909 6.48524H26.5632ZM36.9479 11.9147H28.6095C28.5802 12.1446 28.5659 12.3026 28.5659 12.3888C28.5659 13.3222 28.8783 14.0909 29.5031 14.6943C30.1279 15.2975 30.8997 15.5991 31.8191 15.5991C33.2552 15.5991 34.4191 15.0105 35.3099 13.8325L36.2149 14.6943C35.0369 16.1162 33.5283 16.8271 31.6899 16.8271C30.3541 16.8271 29.2558 16.4323 28.3939 15.6421C27.5321 14.8521 27.1007 13.7676 27.1007 12.3888C27.1007 10.7372 27.668 9.29693 28.8029 8.06881C29.9378 6.84068 31.3163 6.22669 32.9396 6.22669C34.2755 6.22669 35.3096 6.58606 36.0422 7.30405C36.7746 8.02248 37.1406 8.97745 37.1406 10.1695C37.1406 10.8305 37.0763 11.412 36.9472 11.9147H36.9479ZM28.8036 10.8375H35.6553C35.6831 10.5503 35.6975 10.2989 35.6975 10.0835C35.6975 9.27924 35.4532 8.63647 34.9652 8.15499C34.4767 7.67394 33.7873 7.43324 32.8968 7.43324C31.8767 7.43324 30.9971 7.76015 30.2575 8.41354C29.518 9.06736 29.0328 9.87542 28.8029 10.8375H28.8036ZM41.0411 6.48524H42.4414C42.326 7.376 42.2476 7.9503 42.2045 8.20888H42.2473C42.6351 7.59145 43.1375 7.10676 43.7554 6.75449C44.3727 6.4028 45.0191 6.22669 45.6946 6.22669C46.7718 6.22669 47.6191 6.5034 48.2369 7.05621C48.8543 7.60932 49.1633 8.35974 49.1633 9.30765C49.1633 9.59531 49.1264 9.95411 49.0548 10.385L47.9564 16.5687H46.5125L47.5039 10.9883C47.5901 10.5432 47.6323 10.1194 47.6323 9.71715C47.6323 8.19479 46.8857 7.43324 45.392 7.43324C44.5588 7.43324 43.7901 7.77468 43.0866 8.45672C42.3827 9.13919 41.9155 10.1193 41.6856 11.3976L40.7813 16.5687H39.3374L40.7164 8.70438C40.8596 7.98639 40.9681 7.24678 41.0397 6.48524H41.0411ZM55.0244 6.48524L53.2358 16.5687H51.7926L53.5805 6.48524H55.0244ZM55.8858 2.58581C55.8858 2.87289 55.7848 3.11703 55.5839 3.31845C55.3826 3.51929 55.1457 3.62 54.873 3.62C54.6 3.62 54.3669 3.52936 54.1729 3.35074C53.9791 3.17081 53.8824 2.93766 53.8824 2.65058C53.8824 2.34889 53.9857 2.09734 54.1943 1.89636C54.4027 1.69493 54.6435 1.59463 54.9166 1.59463C55.1892 1.59463 55.4191 1.68383 55.606 1.86406C55.7924 2.04341 55.8858 2.28412 55.8858 2.58581ZM58.5359 8.70438C58.6791 7.98639 58.7876 7.24678 58.8592 6.48524H60.2381C60.1372 7.376 60.0583 7.9503 60.0011 8.20888H60.0433C60.4166 7.60563 60.8979 7.12466 61.4871 6.76537C62.0759 6.40652 62.7154 6.22669 63.4049 6.22669C63.7782 6.22669 64.0941 6.2632 64.3527 6.33482L64.008 7.71391C63.8067 7.62767 63.4767 7.58383 63.0173 7.58383C62.184 7.58383 61.4473 7.89994 60.8084 8.53184C60.169 9.16417 59.7352 10.119 59.5051 11.3973L58.6001 16.5684H57.1562L58.5359 8.70438ZM74.7602 1.31467L81.0295 14.3926H81.0731L83.3784 1.31467H84.9086L82.215 16.5687H80.2973L74.0493 3.31845H74.0072L71.6805 16.5687H70.1503L72.8439 1.31467H74.7602ZM96.0034 11.9147H87.6657C87.638 12.1446 87.6229 12.3026 87.6229 12.3888C87.6229 13.3222 87.9352 14.0909 88.56 14.6943C89.1848 15.2975 89.9567 15.5991 90.8761 15.5991C92.3122 15.5991 93.4761 15.0105 94.3669 13.8325L95.2719 14.6943C94.0939 16.1162 92.5853 16.8271 90.7469 16.8271C89.411 16.8271 88.312 16.4323 87.4502 15.6421C86.5884 14.8521 86.1576 13.7676 86.1576 12.3888C86.1576 10.7372 86.725 9.29693 87.8599 8.06881C88.9947 6.84068 90.3732 6.22669 91.9966 6.22669C93.3325 6.22669 94.3666 6.58606 95.0992 7.30405C95.8318 8.02248 96.1976 8.97745 96.1976 10.1695C96.1976 10.8305 96.1334 11.412 96.0042 11.9147H96.0034ZM87.8592 10.8375H94.7109C94.7387 10.5503 94.7551 10.2989 94.7551 10.0835C94.7551 9.27924 94.5102 8.63647 94.0222 8.15499C93.5337 7.67394 92.8443 7.43324 91.9538 7.43324C90.9337 7.43324 90.0539 7.76015 89.3144 8.41354C88.5748 9.06736 88.0898 9.87542 87.8599 10.8375H87.8592ZM105.958 16.5687H104.277L102.122 12.281L98.0932 16.5687H96.3046L101.476 11.2468L98.9547 6.48524H100.506L102.467 10.4498L106.151 6.48524H107.897L103.114 11.4192L105.958 16.5687ZM114.49 6.48524L114.253 7.69178H111.516L110.461 13.5953C110.418 13.8539 110.396 14.0838 110.396 14.2848C110.396 15.075 110.813 15.4698 111.646 15.4698C112.177 15.4698 112.586 15.3616 112.874 15.1466L112.702 16.3962C112.328 16.5972 111.775 16.6979 111.042 16.6979C110.454 16.6979 109.947 16.5471 109.523 16.2456C109.1 15.9439 108.888 15.4268 108.888 14.6943C108.888 14.4933 108.91 14.2632 108.953 14.0047L110.072 7.69178H107.983L108.22 6.48524H110.266L110.762 3.64176H112.206L111.71 6.48524H114.49ZM132.782 13.3368L133.924 14.1556C132.444 16.0229 130.412 16.9564 127.826 16.9564C125.786 16.9564 124.134 16.3533 122.871 15.1466C121.607 13.9401 120.974 12.3602 120.974 10.4066C120.974 7.76385 121.862 5.52312 123.636 3.68459C125.41 1.84576 127.56 0.926942 130.089 0.926942C131.209 0.926942 132.236 1.14574 133.169 1.5841C134.103 2.02203 134.785 2.61437 135.216 3.36145L133.816 4.28804C133.557 3.72777 133.098 3.25002 132.437 2.85506C131.776 2.45982 130.979 2.26267 130.045 2.26267C128.637 2.26267 127.356 2.64677 126.2 3.41534C125.043 4.18346 124.156 5.17466 123.539 6.38817C122.921 7.60226 122.612 8.89148 122.612 10.2558C122.612 11.8071 123.082 13.0891 124.023 14.1017C124.964 15.1144 126.261 15.6207 127.913 15.6207C129.88 15.6207 131.503 14.8596 132.782 13.3368ZM137.306 6.48524L138.922 14.9743H138.966L143.878 6.48524H145.494L137.867 19.1756C137.335 20.0374 136.819 20.6802 136.316 21.1041C135.813 21.5275 135.217 21.7396 134.527 21.7396C134.111 21.7396 133.701 21.6958 133.299 21.611L133.515 20.2751C133.831 20.3905 134.146 20.4474 134.462 20.4474C134.893 20.4474 135.278 20.3001 135.616 20.0058C135.953 19.7113 136.301 19.2624 136.661 18.6592L137.91 16.5477L135.798 6.48595L137.306 6.48524ZM147.411 8.70438C147.554 7.98639 147.662 7.24678 147.734 6.48524H149.113C149.012 7.376 148.933 7.9503 148.876 8.20888H148.919C149.292 7.60563 149.773 7.12466 150.362 6.76537C150.951 6.40652 151.59 6.22669 152.28 6.22669C152.653 6.22669 152.969 6.2632 153.228 6.33482L152.883 7.71391C152.682 7.62767 152.352 7.58383 151.892 7.58383C151.059 7.58383 150.322 7.89994 149.683 8.53184C149.044 9.16417 148.61 10.119 148.38 11.3973L147.475 16.5684H146.032L147.411 8.70438ZM163.527 16.8271C162.162 16.8271 161.046 16.4215 160.177 15.6098C159.308 14.7981 158.873 13.7461 158.873 12.4534C158.873 10.7297 159.44 9.26131 160.575 8.04722C161.71 6.83371 163.14 6.22669 164.863 6.22669C166.228 6.22669 167.344 6.62901 168.214 7.43324C169.082 8.23791 169.516 9.28624 169.516 10.579C169.516 12.3317 168.953 13.8108 167.825 15.0174C166.698 16.2239 165.265 16.8271 163.527 16.8271ZM163.614 15.5991C164.877 15.5991 165.926 15.1181 166.759 14.1556C167.592 13.1931 168.009 12.0299 168.009 10.6652C168.009 9.73156 167.718 8.95964 167.136 8.34894C166.554 7.73868 165.768 7.43324 164.777 7.43324C163.541 7.43324 162.504 7.91808 161.664 8.88763C160.824 9.85717 160.403 11.0173 160.403 12.3672C160.403 13.3153 160.694 14.0909 161.276 14.6943C161.857 15.2975 162.637 15.5991 163.614 15.5991ZM176.562 16.8271C174.896 16.8271 173.668 16.3171 172.878 15.2974C172.188 14.3924 171.844 13.2145 171.844 11.7639C171.844 11.1607 171.9 10.4711 172.016 9.69556C172.217 8.4173 172.458 7.32233 172.738 6.40994C173.018 5.49798 173.395 4.66836 173.869 3.92172C174.343 3.17465 174.946 2.58924 175.678 2.16579C176.411 1.74189 177.28 1.4726 178.286 1.35785L181.388 0.991534C182.322 0.87606 182.911 0.553125 183.155 0.0219421L184.167 0.34508C183.923 0.933854 183.615 1.37557 183.241 1.67011C182.868 1.96435 182.351 2.14761 181.69 2.21967L178.76 2.58581C177.28 2.77218 176.11 3.33611 175.248 4.27716C174.386 5.21776 173.804 6.69366 173.502 8.70438H173.567C174.601 7.0528 176.087 6.22669 178.027 6.22669C179.42 6.22669 180.519 6.64351 181.323 7.47624C182.128 8.30956 182.529 9.43004 182.529 10.8375C182.529 12.4609 181.959 13.8647 180.817 15.0497C179.675 16.2347 178.257 16.8271 176.562 16.8271ZM176.606 15.5991C177.87 15.5991 178.918 15.1181 179.752 14.1556C180.585 13.1931 181.001 12.0299 181.001 10.6652C181.001 9.73156 180.71 8.95964 180.129 8.34894C179.547 7.73868 178.761 7.43324 177.77 7.43324C176.534 7.43324 175.497 7.91808 174.656 8.88763C173.816 9.85717 173.396 11.0173 173.396 12.3672C173.396 13.3153 173.686 14.0909 174.268 14.6943C174.85 15.2975 175.629 15.5991 176.606 15.5991ZM184.793 16.5687L186.56 6.48524H188.003L187.336 10.2772H189.533C190.668 10.2772 191.555 10.5288 192.194 11.0313C192.833 11.5344 193.153 12.224 193.153 13.0998C193.153 14.2202 192.747 15.0782 191.936 15.6744C191.124 16.2708 190.035 16.5687 188.671 16.5687H184.793ZM186.452 15.2974H188.865C189.756 15.2974 190.441 15.1182 190.923 14.7589C191.404 14.3996 191.644 13.8824 191.644 13.2074C191.644 12.073 190.912 11.5054 189.447 11.5054H187.12L186.452 15.2974ZM194.51 16.5687L196.276 6.48524H197.72L195.953 16.5687H194.51ZM205.842 16.5687L206.576 12.432C205.627 12.6904 204.621 12.8197 203.559 12.8197C201.634 12.8197 200.672 11.9939 200.672 10.342C200.672 10.0403 200.701 9.75324 200.758 9.48019L201.275 6.48524H202.719L202.202 9.41542C202.158 9.674 202.137 9.9039 202.137 10.1049C202.137 10.6796 202.303 11.0713 202.633 11.2793C202.963 11.4876 203.459 11.5916 204.12 11.5916C204.924 11.5916 205.814 11.4702 206.791 11.2252L207.61 6.48524H209.054L207.286 16.5687H205.842ZM211.336 16.5687L213.103 6.48524H214.547L213.814 10.7082H219.502L220.235 6.48524H221.678L219.911 16.5687H218.468L219.287 11.9363H213.599L212.78 16.5687H211.336ZM223.94 16.5687L225.707 6.48524H227.151L226.483 10.2772H228.68C229.815 10.2772 230.702 10.5288 231.341 11.0313C231.98 11.5344 232.3 12.224 232.3 13.0998C232.3 14.2202 231.894 15.0782 231.083 15.6744C230.271 16.2708 229.183 16.5687 227.819 16.5687H223.94ZM225.599 15.2974H228.012C228.903 15.2974 229.588 15.1182 230.07 14.7589C230.551 14.3996 230.792 13.8824 230.792 13.2074C230.792 12.073 230.059 11.5054 228.594 11.5054H226.267L225.599 15.2974ZM233.658 16.5687L235.423 6.48524H236.867L235.101 16.5687H233.658ZM239.13 16.5687L240.896 6.48524H242.362L240.94 14.5433H240.961L247.964 6.48524H249.601L247.834 16.5687H246.413L247.856 8.42442H247.814L240.79 16.5687H239.13ZM247.823 3.41534C247.212 3.91085 246.462 4.15868 245.572 4.15868C244.681 4.15868 243.985 3.91428 243.482 3.42622C242.979 2.93757 242.72 2.26267 242.706 1.40085L243.719 1.2069C243.719 1.75255 243.891 2.18733 244.236 2.51051C244.58 2.8337 245.026 2.99513 245.572 2.99513C246.118 2.99513 246.617 2.8337 247.069 2.51051C247.522 2.18733 247.841 1.75255 248.028 1.2069L248.998 1.40085C248.825 2.2482 248.433 2.91982 247.823 3.41534Z" fill="black"/>
</svg>
