<svg width="271" height="19" viewBox="0 0 271 19" fill="none" xmlns="http://www.w3.org/2000/svg">
<path fill-rule="evenodd" clip-rule="evenodd" d="M0.11496 11.1481C0.0711086 8.96781 0.886488 7.08049 2.5616 5.48577C4.23715 3.89046 6.20881 3.11518 8.47693 3.15903C9.99828 3.15903 11.3298 3.5214 12.4709 4.24567C13.6119 4.9698 14.4535 5.9972 14.9946 7.32896L11.9228 9.15038C11.162 7.46781 9.93982 6.62665 8.25711 6.62665C7.01334 6.62665 5.9892 7.03654 5.18453 7.85568C4.38001 8.67526 3.97763 9.71377 3.97763 10.9722C3.97763 12.0987 4.31428 13.0022 4.98754 13.6825C5.66051 14.3634 6.56031 14.7035 7.68684 14.7035C9.17924 14.7035 10.4738 13.9718 11.5709 12.5088L14.2274 14.5936C13.4517 15.7346 12.4713 16.6164 11.2861 17.2379C10.1009 17.8597 8.80591 18.1711 7.40135 18.1711C5.32383 18.2003 3.58303 17.5381 2.17833 16.1848C0.773781 14.8316 0.0858718 13.1522 0.11496 11.1481ZM26.0566 13.7157H19.1214C19.4433 14.6082 20.2337 15.0543 21.4917 15.0543C22.4574 15.0543 23.4374 14.7763 24.4322 14.2203L25.6398 16.7665C24.4254 17.7029 22.9332 18.1711 21.1626 18.1711C19.4505 18.1711 18.0529 17.6696 16.9702 16.6673C15.8875 15.665 15.3465 14.3597 15.3465 12.75C15.3027 11.0967 15.9019 9.6626 17.1458 8.44807C18.3893 7.23369 19.8526 6.64102 21.5352 6.67055C22.9693 6.67055 24.1546 7.12427 25.091 8.03126C26.0275 8.93825 26.4956 10.0869 26.4956 11.4771C26.4956 12.2527 26.3491 12.9989 26.0566 13.7157ZM19.0993 11.3012H22.9398C22.9398 10.789 22.7825 10.376 22.468 10.0614C22.1532 9.74659 21.7403 9.58967 21.2283 9.58967C20.7306 9.58967 20.292 9.74328 19.9115 10.0504C19.5307 10.3578 19.2601 10.7745 19.0993 11.3012ZM36.482 7.08736L35.8889 10.4019C35.2305 10.3288 34.7993 10.2923 34.5942 10.2923C33.8189 10.2923 33.2262 10.4787 32.8163 10.8515C32.4066 11.2249 32.129 11.8355 31.9827 12.684L31.0605 17.9078H27.2857L29.217 6.93391H32.6629L32.4873 7.98736C33.1895 7.19731 34.0597 6.80258 35.0988 6.80258C35.6254 6.80258 36.0867 6.89734 36.482 7.08736ZM45.3921 6.93391H49.167L47.302 17.9074H43.7684L43.9218 17.0074C43.1756 17.7831 42.2026 18.1711 41.0027 18.1711C39.6569 18.1711 38.5372 17.6772 37.6446 16.6894C36.7521 15.702 36.3064 14.4619 36.3064 12.9695C36.2772 11.2285 36.8365 9.73573 37.9851 8.49197C39.1335 7.24849 40.5274 6.64102 42.1661 6.67055C43.5557 6.67055 44.5803 7.05827 45.2386 7.83356L45.3921 6.93391ZM44.5142 12.355C44.5142 11.6673 44.3243 11.1073 43.944 10.676C43.5635 10.2443 43.0658 10.0286 42.4508 10.0286C41.8074 10.0286 41.2696 10.2699 40.8378 10.7527C40.406 11.2353 40.1912 11.8504 40.1912 12.5966C40.1912 13.2694 40.3735 13.8073 40.7393 14.2096C41.1052 14.612 41.5883 14.8127 42.1882 14.8127C42.8612 14.8127 43.4174 14.5786 43.8562 14.1104C44.2953 13.6421 44.5142 13.0573 44.5142 12.355ZM56.1243 17.9074L58.6702 3.42204H63.7184C65.386 3.42204 66.7106 3.8468 67.6909 4.69532C68.6712 5.54384 69.1612 6.68497 69.1612 8.11905C69.1612 9.69929 68.5727 10.9761 67.3947 11.9489C66.2168 12.9218 64.6694 13.4081 62.7527 13.4081H60.69L59.8992 17.9074H56.1243ZM61.2603 10.1164H63.3893C63.9749 10.1164 64.4393 9.95868 64.7832 9.64427C65.1267 9.32971 65.2985 8.90185 65.2985 8.36028C65.2985 7.84869 65.1565 7.44587 64.8703 7.15338C64.5853 6.86089 64.187 6.71444 63.6748 6.71444H61.8748L61.2603 10.1164ZM78.5545 7.08736L77.9621 10.4019C77.3036 10.3288 76.8719 10.2923 76.6667 10.2923C75.8916 10.2923 75.2993 10.4787 74.8895 10.8515C74.4797 11.2249 74.2014 11.8355 74.0552 12.684L73.1338 17.9078H69.3589L71.2902 6.93391H74.7361L74.5598 7.98736C75.2622 7.19731 76.1329 6.80258 77.172 6.80258C77.6987 6.80258 78.1593 6.89734 78.5545 7.08736ZM78.4011 12.6619C78.3718 11.0232 78.9867 9.60785 80.2446 8.41524C81.503 7.22278 82.9805 6.64102 84.6775 6.67055C86.2724 6.64131 87.6335 7.17165 88.76 8.26179C89.8867 9.35193 90.4354 10.6648 90.4059 12.2012C90.4351 13.8399 89.8214 15.2521 88.563 16.4371C87.3047 17.6221 85.8117 18.2002 84.0851 18.1711C82.4903 18.2003 81.1376 17.677 80.0255 16.6013C78.9134 15.5262 78.3717 14.2132 78.4011 12.6619ZM86.5439 12.289C86.5439 11.616 86.3565 11.0746 85.9837 10.6649C85.6103 10.255 85.124 10.0504 84.5241 10.0504C83.8806 10.0504 83.3427 10.2958 82.9111 10.7859C82.4793 11.2761 82.2637 11.8867 82.2637 12.618C82.2637 13.2768 82.4427 13.8036 82.8012 14.1985C83.1596 14.5938 83.6393 14.7909 84.2393 14.7909C84.9121 14.7909 85.4642 14.557 85.8959 14.0886C86.3276 13.6204 86.5439 13.0206 86.5439 12.289ZM110.027 13.5398C110.027 14.7982 109.529 15.8407 108.534 16.6673C107.54 17.4939 106.281 17.9074 104.76 17.9074H97.6923L100.239 3.42204H105.023C106.354 3.42204 107.448 3.80622 108.304 4.57434C109.16 5.34261 109.588 6.33404 109.588 7.54842C109.588 8.76295 109.149 9.72131 108.271 10.4237C109.442 11.1405 110.027 12.1791 110.027 13.5398ZM104.518 6.58276H103.311L102.85 9.15038H104.298C104.767 9.15038 105.144 9.02926 105.429 8.78852C105.714 8.54734 105.857 8.22165 105.857 7.81179C105.857 7.44592 105.735 7.14956 105.495 6.92285C105.253 6.69614 104.928 6.58276 104.518 6.58276ZM106.318 13.4302C106.318 12.6255 105.879 12.2233 105.001 12.2233H102.324L101.863 14.7249H104.782C105.806 14.7249 106.318 14.2938 106.318 13.4302ZM111.147 17.9074L114.043 1.44681H117.819L114.921 17.9074H111.147ZM126.816 6.93391H130.591L128.726 17.9074H125.193L125.346 17.0074C124.6 17.7831 123.627 18.1711 122.427 18.1711C121.081 18.1711 119.961 17.6772 119.069 16.6894C118.176 15.702 117.73 14.4619 117.73 12.9695C117.701 11.2285 118.261 9.73573 119.409 8.49197C120.558 7.24849 121.952 6.64102 123.59 6.67055C124.98 6.67055 126.005 7.05827 126.663 7.83356L126.816 6.93391ZM125.939 12.355C125.939 11.6673 125.748 11.1073 125.368 10.676C124.987 10.2443 124.49 10.0286 123.875 10.0286C123.232 10.0286 122.694 10.2699 122.262 10.7527C121.831 11.2353 121.616 11.8504 121.616 12.5966C121.616 13.2694 121.798 13.8073 122.164 14.2096C122.53 14.612 123.013 14.8127 123.613 14.8127C124.285 14.8127 124.841 14.5786 125.28 14.1104C125.719 13.6421 125.939 13.0573 125.939 12.355ZM131.558 12.75C131.528 11.0529 132.128 9.60785 133.357 8.41524C134.586 7.22278 136.086 6.64102 137.856 6.67055C138.998 6.67055 140 6.94489 140.863 7.49347C141.726 8.04205 142.348 8.79935 142.728 9.76525L139.941 11.6088C139.327 10.5701 138.581 10.0504 137.703 10.0504C137.03 10.0504 136.474 10.2922 136.035 10.7748C135.596 11.2575 135.376 11.8649 135.376 12.5966C135.376 13.24 135.57 13.7671 135.958 14.1764C136.346 14.5863 136.839 14.7909 137.439 14.7909C138.302 14.7909 139.071 14.3445 139.743 13.452L142.158 15.515C141.617 16.364 140.914 17.0188 140.051 17.4795C139.188 17.9402 138.236 18.1711 137.198 18.1711C135.544 18.1711 134.191 17.6627 133.138 16.6455C132.084 15.6288 131.558 14.3303 131.558 12.75ZM156.863 6.93391L152.231 12.0474L155.195 17.9074H151.134L148.237 12.1134L147.227 17.9074H143.453L146.35 1.44681H150.124L148.369 11.4111L152.473 6.93391H156.863ZM181.268 10.3798C181.268 10.7018 181.224 11.1262 181.136 11.6527L180.039 17.9074H176.265L177.318 11.8936C177.362 11.6305 177.384 11.4257 177.384 11.2794C177.384 10.8552 177.259 10.5185 177.01 10.2698C176.762 10.0209 176.418 9.89657 175.979 9.89657C175.569 9.89657 175.215 10.0281 174.915 10.292C174.615 10.5551 174.42 10.9211 174.333 11.3893L173.192 17.9074H169.416L170.47 11.8722C170.514 11.6086 170.536 11.4113 170.536 11.2794C170.536 10.8552 170.412 10.5185 170.163 10.2698C169.914 10.0209 169.57 9.89657 169.131 9.89657C168.721 9.89657 168.367 10.0281 168.067 10.292C167.767 10.5551 167.572 10.9211 167.485 11.3893L166.344 17.9074H162.569L164.5 6.93391H167.946L167.792 7.81179C168.641 7.05112 169.643 6.67055 170.799 6.67055C172.16 6.67055 173.169 7.12427 173.828 8.03126C174.881 7.12427 176.096 6.67055 177.471 6.67055C178.656 6.67055 179.585 7.00324 180.259 7.66904C180.932 8.33485 181.268 9.23832 181.268 10.3798ZM182.782 12.6619C182.753 11.0232 183.368 9.60785 184.626 8.41524C185.884 7.22278 187.362 6.64102 189.059 6.67055C190.654 6.64131 192.015 7.17165 193.141 8.26179C194.268 9.35193 194.817 10.6648 194.788 12.2012C194.817 13.8399 194.203 15.2521 192.944 16.4371C191.686 17.6221 190.194 18.2002 188.467 18.1711C186.872 18.2003 185.519 17.677 184.407 16.6013C183.295 15.5262 182.753 14.2132 182.782 12.6619ZM190.925 12.289C190.925 11.616 190.738 11.0746 190.365 10.6649C189.992 10.255 189.505 10.0504 188.905 10.0504C188.262 10.0504 187.724 10.2958 187.292 10.7859C186.861 11.2761 186.646 11.8867 186.646 12.618C186.646 13.2768 186.824 13.8036 187.182 14.1985C187.541 14.5938 188.021 14.7909 188.621 14.7909C189.294 14.7909 189.845 14.557 190.277 14.0886C190.709 13.6204 190.925 13.0206 190.925 12.289ZM194.897 17.9074L195.446 14.8127C195.563 14.8419 195.702 14.8566 195.863 14.8566C196.316 14.8566 196.697 14.6117 197.005 14.1215C197.312 13.6313 197.597 12.8155 197.86 11.6745C198.197 10.2698 198.606 9.23811 199.089 8.57975C199.572 7.9214 200.099 7.48263 200.67 7.26294C201.24 7.04339 202.001 6.93355 202.951 6.93355H208.285L206.354 17.9074H202.579L203.939 10.0504H203.193C202.783 10.065 202.491 10.1131 202.315 10.1921C202.14 10.2724 201.964 10.4996 201.789 10.8726C201.613 11.2459 201.408 11.8714 201.174 12.749C200.72 14.7389 200.128 16.14 199.396 16.9521C198.665 17.7642 197.641 18.17 196.324 18.17C195.768 18.17 195.292 18.0825 194.897 17.9067V17.9074ZM209.273 12.75C209.244 11.0529 209.843 9.60785 211.072 8.41524C212.302 7.22278 213.801 6.64102 215.571 6.67055C216.713 6.67055 217.715 6.94489 218.578 7.49347C219.441 8.04205 220.063 8.79935 220.443 9.76525L217.656 11.6088C217.042 10.5701 216.295 10.0504 215.417 10.0504C214.744 10.0504 214.189 10.2922 213.75 10.7748C213.311 11.2575 213.091 11.8649 213.091 12.5966C213.091 13.24 213.285 13.7671 213.673 14.1764C214.061 14.5863 214.555 14.7909 215.155 14.7909C216.018 14.7909 216.786 14.3445 217.458 13.452L219.873 15.515C219.331 16.364 218.629 17.0188 217.766 17.4795C216.903 17.9402 215.951 18.1711 214.913 18.1711C213.259 18.1711 211.906 17.6627 210.853 16.6455C209.799 15.6288 209.273 14.3303 209.273 12.75ZM239.867 10.3798C239.867 10.7018 239.823 11.1262 239.735 11.6527L238.638 17.9074H234.863L235.917 11.8936C235.961 11.6305 235.982 11.4257 235.982 11.2794C235.982 10.8552 235.858 10.5185 235.609 10.2698C235.361 10.0209 235.017 9.89657 234.578 9.89657C234.168 9.89657 233.814 10.0281 233.514 10.292C233.214 10.5551 233.02 10.9211 232.932 11.3893L231.791 17.9074H228.016L229.069 11.8722C229.112 11.6086 229.134 11.4113 229.134 11.2794C229.134 10.8552 229.01 10.5185 228.762 10.2698C228.513 10.0209 228.169 9.89657 227.73 9.89657C227.32 9.89657 226.966 10.0281 226.666 10.292C226.366 10.5551 226.171 10.9211 226.084 11.3893L224.943 17.9074H221.168L223.099 6.93391H226.545L226.391 7.81179C227.24 7.05112 228.242 6.67055 229.398 6.67055C230.759 6.67055 231.768 7.12427 232.427 8.03126C233.48 7.12427 234.695 6.67055 236.07 6.67055C237.255 6.67055 238.184 7.00324 238.857 7.66904C239.53 8.33485 239.867 9.23832 239.867 10.3798H239.867ZM251.784 13.6497C251.784 14.981 251.301 16.0674 250.335 16.9089C249.37 17.75 248.134 18.1711 246.626 18.1711C245.119 18.1711 243.895 17.7902 242.951 17.0295C242.007 16.2687 241.535 15.2809 241.535 14.0665C241.535 13.7595 241.557 13.4815 241.601 13.2329L242.721 6.93391H246.496L245.99 9.74312H247.066C248.543 9.74312 249.7 10.0907 250.534 10.7859C251.368 11.4808 251.784 12.4353 251.784 13.6497ZM253.957 6.93391H257.732L255.8 17.9074H252.026L253.957 6.93391ZM247.56 14.6921C247.801 14.48 247.922 14.2133 247.922 13.8913C247.922 13.5694 247.787 13.3172 247.516 13.134C247.244 12.9513 246.882 12.8596 246.429 12.8596H245.419L245.332 13.3424C245.288 13.5915 245.266 13.774 245.266 13.8913C245.266 14.6375 245.727 15.0104 246.649 15.0104C247.015 15.0104 247.318 14.905 247.56 14.6921ZM267.147 6.93391H270.922L268.991 17.9074H265.545L265.699 17.0074C264.836 17.7831 263.84 18.1711 262.714 18.1711C261.631 18.1711 260.731 17.8272 260.014 17.1394C259.312 16.4516 258.961 15.5518 258.961 14.4398C258.961 14.1179 259.005 13.7012 259.093 13.189L260.19 6.93391H263.965L262.933 12.8157C262.875 13.1083 262.846 13.3496 262.846 13.5398C262.846 13.979 262.985 14.3227 263.263 14.5718C263.541 14.8203 263.899 14.9447 264.338 14.9447C264.762 14.9447 265.124 14.8159 265.424 14.5604C265.724 14.3043 265.918 13.9352 266.006 13.452L267.147 6.93391ZM262.384 1.79832C262.384 1.59324 262.429 1.25694 262.517 0.788757H265.457C265.399 1.09615 265.37 1.35915 265.37 1.57885C265.37 2.39843 265.713 2.80752 266.401 2.80752C267.075 2.80752 267.483 2.31762 267.63 1.33725L267.717 0.788757H270.681L270.593 1.33725C270.403 2.59563 269.909 3.59075 269.111 4.32204C268.314 5.05377 267.345 5.41975 266.204 5.41975C265.062 5.41975 264.14 5.08676 263.438 4.42125C262.736 3.75544 262.384 2.881 262.384 1.79832Z" fill="black"/>
</svg>
