<svg width="266" height="20" viewBox="0 0 266 20" fill="none" xmlns="http://www.w3.org/2000/svg">
<path fill-rule="evenodd" clip-rule="evenodd" d="M0.28125 18.7717L10.7152 0.325512H13.6607L16.6997 18.7717H14.3088L13.4452 13.4648H5.9532L3.00339 18.7717H0.28125ZM7.04377 11.5579H13.1411L12.4281 6.92941C12.132 5.09175 11.9515 3.55877 11.8785 2.33518C11.4533 3.3914 10.8393 4.64092 10.0236 6.09239L7.04377 11.5579ZM18.873 18.7717L21.6551 5.40097H23.6864L23.1111 8.13596C23.8067 7.11013 24.4809 6.3498 25.1424 5.85633C25.7989 5.36242 26.473 5.11745 27.16 5.11745C27.6108 5.11745 28.1692 5.28084 28.8302 5.60724L27.903 7.7195C27.5081 7.42745 27.0737 7.28163 26.6055 7.28163C25.8071 7.28163 24.9875 7.72829 24.146 8.61701C23.3041 9.50572 22.6386 11.1031 22.1533 13.413L21.037 18.7717H18.873ZM30.7237 2.90205L31.2647 0.325512H33.5272L32.9869 2.90205H30.7237ZM27.4006 18.7717L30.1998 5.40097H32.4623L29.6631 18.7717H27.4006ZM42.1668 17.1101C41.3767 17.7884 40.6166 18.2823 39.8907 18.5915C39.161 18.9005 38.3795 19.0552 37.5461 19.0552C36.3139 19.0552 35.3225 18.6943 34.5671 17.9687C33.8114 17.2474 33.4337 16.32 33.4337 15.1906C33.4337 14.4435 33.6046 13.7867 33.944 13.2112C34.2832 12.6403 34.734 12.1808 35.2922 11.8332C35.8544 11.4852 36.5418 11.2361 37.3577 11.0861C37.8731 10.9823 38.8475 10.9053 40.2818 10.8452C41.7159 10.7853 42.7463 10.6348 43.3687 10.3945C43.5447 9.77214 43.6349 9.25667 43.6349 8.84433C43.6349 8.31651 43.4418 7.90429 43.0554 7.59924C42.5229 7.1828 41.7501 6.97241 40.7279 6.97241C39.7705 6.97241 38.9853 7.18295 38.3712 7.60816C37.7617 8.03322 37.319 8.63852 37.0401 9.41994L34.7469 9.21368C35.2148 7.89157 35.9582 6.87797 36.9759 6.17358C37.9935 5.46962 39.277 5.11745 40.8271 5.11745C42.4758 5.11745 43.7814 5.51278 44.7476 6.2983C45.4818 6.88678 45.851 7.65074 45.851 8.58667C45.851 9.29984 45.7466 10.1239 45.5413 11.0644L44.8076 14.3833C44.5756 15.4394 44.46 16.2984 44.46 16.9597C44.46 17.3802 44.5491 17.9815 44.7348 18.7717H42.433C42.3088 18.3336 42.2182 17.7843 42.1668 17.1101ZM43.0211 11.9959C42.6992 12.1202 42.3555 12.2193 41.9905 12.2839C41.6213 12.3526 41.0077 12.4258 40.1534 12.4986C38.8266 12.6141 37.8944 12.7645 37.3492 12.9452C36.8038 13.1254 36.3919 13.413 36.1173 13.8083C35.8379 14.2032 35.7005 14.637 35.7005 15.1135C35.7005 15.7531 35.9193 16.2768 36.3614 16.6849C36.7993 17.0968 37.4261 17.3034 38.242 17.3034C38.9977 17.3034 39.7231 17.1056 40.4189 16.7062C41.1145 16.3071 41.6645 15.7531 42.0726 15.0405C42.4761 14.3273 42.7937 13.3144 43.0211 11.9959ZM47.3363 18.7717L51.1875 0.325512H53.4507L49.5995 18.7717H47.3363ZM60.7721 13.6923C60.7721 11.0902 61.5405 8.93477 63.0731 7.2256C64.3399 5.82193 65.9975 5.11745 68.0542 5.11745C69.6602 5.11745 70.9562 5.62005 71.944 6.62483C72.9271 7.62916 73.4214 8.98627 73.4214 10.6909C73.4214 12.2239 73.1117 13.6493 72.4893 14.9677C71.8711 16.2857 70.9865 17.299 69.8442 17.9989C68.6977 18.7028 67.4958 19.0552 66.2292 19.0552C65.1899 19.0552 64.2452 18.8318 63.395 18.3897C62.5405 17.9472 61.8921 17.3162 61.4459 16.5044C60.9951 15.6931 60.7721 14.7571 60.7721 13.6923ZM63.0389 13.4689C63.0389 14.7268 63.3436 15.6802 63.9489 16.3288C64.5543 16.9768 65.3274 17.3034 66.2635 17.3034C66.7529 17.3034 67.238 17.2039 67.7145 17.007C68.1955 16.8094 68.6425 16.5131 69.0549 16.1095C69.4713 15.7059 69.8229 15.2464 70.1105 14.7315C70.4026 14.2161 70.6388 13.662 70.8149 13.0653C71.0767 12.2366 71.2053 11.4424 71.2053 10.6779C71.2053 9.47124 70.9008 8.53543 70.291 7.86992C69.677 7.20455 68.908 6.86928 67.9807 6.86928C67.2636 6.86928 66.6113 7.04133 66.023 7.3803C65.4304 7.71956 64.8979 8.21346 64.4214 8.8702C63.9449 9.52285 63.5972 10.283 63.3743 11.1502C63.151 12.0174 63.0389 12.7907 63.0389 13.4689ZM87.0021 0.0164701H89.2182C88.9646 1.29181 88.4885 2.07736 87.7886 2.37818C87.0888 2.67447 86.2553 2.82443 85.2849 2.82443L82.9617 2.7734C82.1331 2.7734 81.4976 2.90196 81.0468 3.15542C80.596 3.41312 80.2266 3.7526 79.9391 4.18176C79.6512 4.60697 79.1919 5.56865 78.5609 7.06734C79.4584 6.24279 80.2961 5.75744 81.0775 5.6158C81.8544 5.47402 82.4295 5.40115 82.8033 5.40115C84.0438 5.40115 85.208 5.8606 86.2984 6.78381C87.3849 7.70688 87.93 9.09382 87.93 10.9446C87.93 13.1084 87.2645 15.0019 85.9372 16.6207C84.6106 18.2436 82.8677 19.0554 80.7164 19.0554C79.0205 19.0554 77.6977 18.5399 76.7488 17.5054C75.8041 16.4708 75.332 15.1224 75.332 13.465C75.332 11.6358 75.787 9.40744 76.6974 6.77096C77.6031 4.13858 78.5992 2.44264 79.6815 1.68694C80.7633 0.935768 82.1419 0.557829 83.8075 0.557829L85.8259 0.595834C86.4913 0.595834 86.8867 0.402734 87.0021 0.0161133V0.0164701ZM85.6625 10.8452C85.6625 9.75876 85.3919 8.87898 84.8467 8.20893C84.3013 7.53933 83.5375 7.20455 82.5585 7.20455C81.0598 7.20455 79.8489 7.85695 78.9299 9.15801C78.0067 10.4591 77.5474 11.9532 77.5474 13.645C77.5474 14.5938 77.8353 15.4226 78.4103 16.1311C78.9859 16.8438 79.7633 17.2001 80.7421 17.2001C82.215 17.2001 83.4003 16.5003 84.3064 15.096C85.2122 13.6964 85.6625 12.2793 85.6625 10.8452ZM105.092 5.40097H107.355L104.555 18.7717H102.293L105.092 5.40097ZM91.9275 5.40097H94.2157L93.1087 10.5794H95.5432C97.0975 10.5794 98.2095 10.6903 98.8749 10.9182C99.5363 11.1461 100.06 11.5579 100.438 12.1592C100.816 12.7604 101.005 13.4258 101.005 14.1646C101.005 15.0535 100.747 15.9079 100.232 16.7195C99.7163 17.5353 99.0812 18.0804 98.3296 18.3552C97.5739 18.6341 96.4015 18.7717 94.8088 18.7717H89.1276L91.9275 5.40097ZM91.7691 16.9685H94.6625C95.8003 16.9685 96.5991 16.891 97.0628 16.7406C97.5263 16.5906 97.9176 16.3155 98.2354 15.9164C98.5532 15.5169 98.7115 15.0317 98.7115 14.4608C98.7115 13.9583 98.57 13.5291 98.2911 13.1768C98.0077 12.8247 97.6854 12.6059 97.3204 12.5284C96.9553 12.448 96.2858 12.4085 95.3113 12.4085H92.7176L91.7691 16.9685ZM110.155 5.40097H112.413L111.95 7.64652C111.657 9.07198 111.511 10.0685 111.511 10.6349C111.511 11.2232 111.731 11.6656 112.169 11.9619C112.611 12.2582 113.272 12.4081 114.148 12.4081C115.221 12.4081 116.209 12.2192 117.115 11.8412L118.459 5.40097H120.721L117.922 18.7717H115.66L116.732 13.6491C115.599 14.0229 114.547 14.2117 113.563 14.2117C112.198 14.2117 111.129 13.9239 110.356 13.3443C109.579 12.7646 109.192 11.9445 109.192 10.8797C109.192 10.4289 109.395 9.19242 109.794 7.16547L110.155 5.40097ZM124.217 5.40097H126.48L125.295 10.9916H131.482L132.641 5.40097H134.874L132.104 18.7717H129.841L131.099 12.7948H124.938L123.68 18.7717H121.417L124.217 5.40097ZM151.56 5.40097H153.822L151.022 18.7717H148.76L151.56 5.40097ZM138.394 5.40097H140.683L139.576 10.5794H142.01C143.564 10.5794 144.676 10.6903 145.342 10.9182C146.003 11.1461 146.527 11.5579 146.905 12.1592C147.283 12.7604 147.472 13.4258 147.472 14.1646C147.472 15.0535 147.214 15.9079 146.699 16.7195C146.183 17.5353 145.548 18.0804 144.797 18.3552C144.041 18.6341 142.868 18.7717 141.276 18.7717H135.595L138.394 5.40097ZM138.236 16.9685H141.129C142.267 16.9685 143.067 16.891 143.53 16.7406C143.994 16.5906 144.385 16.3155 144.702 15.9164C145.02 15.5169 145.179 15.0317 145.179 14.4608C145.179 13.9583 145.037 13.5291 144.758 13.1768C144.475 12.8247 144.153 12.6059 143.788 12.5284C143.423 12.448 142.753 12.4085 141.778 12.4085H139.185L138.236 16.9685ZM163.737 16.3543C162.135 18.1534 160.49 19.0552 158.811 19.0552C157.781 19.0552 156.948 18.7629 156.312 18.175C155.677 17.5867 155.36 16.8652 155.36 16.0151C155.36 15.4528 155.518 14.4906 155.827 13.1213L157.584 5.40097H159.872L157.927 14.0574C157.764 14.7787 157.682 15.341 157.682 15.7403C157.682 16.1999 157.837 16.5603 158.15 16.8139C158.459 17.0712 158.918 17.2001 159.524 17.2001C160.172 17.2001 160.804 17.0456 161.422 16.7365C162.04 16.4273 162.573 16.0108 163.019 15.4868C163.466 14.963 163.831 14.3407 164.115 13.6234C164.299 13.1685 164.518 12.3655 164.762 11.2146L166.034 5.40097H168.297L165.338 18.7717H163.234L163.737 16.3543ZM159.576 0.506262H161.07C161.161 1.11579 161.366 1.55784 161.684 1.83718C162.002 2.11636 162.452 2.25809 163.028 2.25809C163.633 2.25809 164.153 2.10315 164.595 1.794C165.033 1.48485 165.368 1.05572 165.604 0.506262H167.125C166.841 1.5106 166.321 2.30946 165.57 2.89795C164.814 3.48584 163.942 3.77779 162.955 3.77779C161.98 3.77779 161.186 3.48178 160.572 2.8892C159.958 2.30087 159.627 1.50227 159.576 0.506262ZM176.09 18.7717L178.889 5.40097H181.152L180.688 7.61226C181.534 6.66756 182.294 6.01499 182.959 5.65863C183.629 5.29773 184.351 5.11745 185.133 5.11745C185.965 5.11745 186.661 5.33654 187.219 5.77871C187.777 6.21664 188.142 6.83081 188.319 7.62101C189.001 6.7836 189.718 6.15661 190.47 5.74017C191.221 5.32373 192.011 5.11745 192.844 5.11745C193.961 5.11745 194.798 5.37928 195.356 5.90754C195.914 6.43594 196.193 7.17425 196.193 8.12757C196.193 8.53948 196.094 9.21809 195.897 10.167L194.068 18.7717H191.805L193.655 9.95238C193.814 9.23103 193.896 8.71561 193.896 8.40646C193.896 7.96853 193.755 7.62509 193.48 7.37602C193.201 7.12285 192.809 6.9981 192.303 6.9981C191.62 6.9981 190.929 7.20459 190.221 7.61226C189.512 8.01993 188.963 8.55691 188.572 9.22242C188.181 9.88779 187.838 10.9099 187.541 12.288L186.185 18.7717H183.921L185.811 9.7636C185.944 9.14954 186.013 8.71568 186.013 8.45374C186.013 8.01991 185.875 7.66818 185.604 7.40171C185.33 7.13115 184.973 6.9981 184.539 6.9981C183.891 6.9981 183.213 7.20459 182.505 7.61226C181.792 8.02461 181.216 8.5954 180.77 9.32538C180.323 10.0551 179.959 11.0989 179.675 12.4554L178.353 18.7717H176.09ZM197.675 13.6923C197.675 11.0902 198.443 8.93477 199.976 7.2256C201.243 5.82193 202.9 5.11745 204.957 5.11745C206.563 5.11745 207.859 5.62005 208.847 6.62483C209.83 7.62916 210.324 8.98627 210.324 10.6909C210.324 12.2239 210.014 13.6493 209.392 14.9677C208.774 16.2857 207.889 17.299 206.747 17.9989C205.601 18.7028 204.398 19.0552 203.132 19.0552C202.093 19.0552 201.148 18.8318 200.298 18.3897C199.443 17.9472 198.795 17.3162 198.349 16.5044C197.898 15.6931 197.675 14.7571 197.675 13.6923ZM199.942 13.4689C199.942 14.7268 200.246 15.6802 200.852 16.3288C201.457 16.9768 202.23 17.3034 203.166 17.3034C203.656 17.3034 204.141 17.2039 204.617 17.007C205.098 16.8094 205.545 16.5131 205.957 16.1095C206.373 15.7059 206.726 15.2464 207.013 14.7315C207.305 14.2161 207.541 13.662 207.718 13.0653C207.979 12.2366 208.108 11.4424 208.108 10.6779C208.108 9.47124 207.804 8.53543 207.194 7.86992C206.58 7.20455 205.811 6.86928 204.883 6.86928C204.166 6.86928 203.514 7.04133 202.926 7.3803C202.333 7.71956 201.801 8.21346 201.324 8.8702C200.848 9.52285 200.499 10.283 200.276 11.1502C200.053 12.0174 199.942 12.7907 199.942 13.4689ZM214.338 5.40097H216.601L215.416 10.9916H221.604L222.763 5.40097H224.995L222.226 18.7717H219.963L221.221 12.7948H215.06L213.802 18.7717H211.539L214.338 5.40097ZM228.516 5.40097H230.779L229.581 11.12L229.985 11.1347C230.616 11.1347 231.131 10.9714 231.526 10.6495C231.925 10.3271 232.488 9.56301 233.222 8.36471C233.978 7.1284 234.618 6.32533 235.142 5.95625C235.665 5.58702 236.37 5.40222 237.259 5.40222H238.315L237.898 7.23149H237.357C236.795 7.23149 236.408 7.30902 236.194 7.45899C235.979 7.6094 235.662 8.04732 235.245 8.76867C234.674 9.76015 234.176 10.4687 233.751 10.8938C233.325 11.3188 232.776 11.6539 232.106 11.8987C232.677 12.1133 233.132 12.4269 233.476 12.8346C233.819 13.2428 234.145 13.865 234.459 14.7065L235.996 18.7731H233.626L232.385 15.4281C231.926 14.1871 231.488 13.3928 231.08 13.041C230.672 12.6889 230.075 12.5127 229.289 12.5127L227.979 18.7731H225.717L228.516 5.40097ZM247.066 16.3543C245.464 18.1534 243.819 19.0552 242.14 19.0552C241.11 19.0552 240.277 18.7629 239.642 18.175C239.006 17.5867 238.688 16.8652 238.688 16.0151C238.688 15.4528 238.847 14.4906 239.156 13.1213L240.913 5.40097H243.201L241.256 14.0574C241.093 14.7787 241.011 15.341 241.011 15.7403C241.011 16.1999 241.166 16.5603 241.48 16.8139C241.789 17.0712 242.248 17.2001 242.853 17.2001C243.501 17.2001 244.133 17.0456 244.751 16.7365C245.37 16.4273 245.902 16.0108 246.349 15.4868C246.795 14.963 247.16 14.3407 247.443 13.6234C247.628 13.1685 247.847 12.3655 248.091 11.2146L249.363 5.40097H251.625L248.667 18.7717H246.563L247.066 16.3543ZM261.394 16.3543C259.792 18.1534 258.147 19.0552 256.468 19.0552C255.438 19.0552 254.605 18.7629 253.97 18.175C253.335 17.5867 253.017 16.8652 253.017 16.0151C253.017 15.4528 253.175 14.4906 253.484 13.1213L255.241 5.40097H257.53L255.584 14.0574C255.421 14.7787 255.339 15.341 255.339 15.7403C255.339 16.1999 255.494 16.5603 255.808 16.8139C256.117 17.0712 256.576 17.2001 257.182 17.2001C257.83 17.2001 258.461 17.0456 259.079 16.7365C259.698 16.4273 260.23 16.0108 260.677 15.4868C261.123 14.963 261.489 14.3407 261.772 13.6234C261.956 13.1685 262.176 12.3655 262.42 11.2146L263.691 5.40097H265.954L262.995 18.7717H260.891L261.394 16.3543ZM257.233 0.506262H258.727C258.818 1.11579 259.023 1.55784 259.341 1.83718C259.659 2.11636 260.11 2.25809 260.685 2.25809C261.291 2.25809 261.81 2.10315 262.252 1.794C262.69 1.48485 263.026 1.05572 263.262 0.506262H264.782C264.498 1.5106 263.979 2.30946 263.227 2.89795C262.472 3.48584 261.6 3.77779 260.612 3.77779C259.637 3.77779 258.843 3.48178 258.229 2.8892C257.615 2.30087 257.284 1.50227 257.233 0.506262Z" fill="black"/>
</svg>
