<svg width="250" height="15" viewBox="0 0 250 15" fill="none" xmlns="http://www.w3.org/2000/svg">
<path fill-rule="evenodd" clip-rule="evenodd" d="M4.53419 12.3204L3.82618 14.2286H0.108398L5.73396 0.459595H7.74023L13.2873 14.2286H9.56951L8.86149 12.3204H4.53419ZM6.69749 6.4786L5.69471 9.15363H7.70098L6.69749 6.4786ZM19.5424 4.27551C21.116 4.27551 22.4074 4.87834 23.4172 6.08498L21.5879 8.0718C20.9456 7.52103 20.2638 7.24549 19.5424 7.24549C19.0179 7.24549 18.5592 7.43236 18.1656 7.80612C17.7724 8.17988 17.5753 8.68159 17.5753 9.311C17.5753 9.94041 17.7724 10.4418 18.1656 10.8155C18.5592 11.1893 19.0179 11.3762 19.5424 11.3762C20.2638 11.3762 20.9456 11.101 21.5879 10.5504L23.4172 12.5367C22.4074 13.7432 21.116 14.3467 19.5424 14.3467C18.1394 14.3467 16.9493 13.8548 15.9723 12.8711C14.9953 11.8879 14.507 10.7011 14.507 9.311C14.507 7.92092 14.9953 6.73418 15.9723 5.7506C16.9493 4.76702 18.1394 4.27551 19.5424 4.27551ZM32.4072 7.22604H31.1675C30.4987 7.22604 29.971 7.43906 29.5844 7.865C29.1974 8.29138 29.0042 8.8913 29.0042 9.66483V14.2286H25.9352V4.39328H27.9614L28.3154 6.24253C29.1284 4.91779 30.3218 4.25571 31.8955 4.25571H32.4072V7.22604ZM39.0355 4.25571C40.4389 4.25571 41.6323 4.75074 42.6156 5.74061C43.5992 6.73091 44.0908 7.92092 44.0908 9.311C44.0908 10.7011 43.5992 11.8879 42.6156 12.8711C41.6323 13.8548 40.4389 14.3467 39.0355 14.3467C37.6326 14.3467 36.4425 13.8548 35.4655 12.8711C34.4885 11.8879 34.0002 10.7011 34.0002 9.311C34.0002 7.90762 34.4918 6.71429 35.4755 5.73115C36.4588 4.74742 37.6455 4.25571 39.0355 4.25571ZM40.4123 7.79631C40.0191 7.41626 39.5602 7.22604 39.0355 7.22604C38.5111 7.22604 38.0524 7.41626 37.6588 7.79631C37.2656 8.17664 37.0685 8.68159 37.0685 9.311C37.0685 9.94041 37.2656 10.4418 37.6588 10.8155C38.0524 11.1893 38.5111 11.3762 39.0355 11.3762C39.5602 11.3762 40.0191 11.1893 40.4123 10.8155C40.806 10.4418 41.0026 9.94041 41.0026 9.311C41.0026 8.68159 40.806 8.17664 40.4123 7.79631ZM58.6072 4.25571C60.0102 4.25571 61.0791 4.69485 61.8133 5.57377C62.5475 6.45211 62.9153 7.62603 62.9153 9.09475V14.2286H59.8463V9.27175C59.8463 8.5371 59.6994 8.01284 59.4045 7.69799C59.1094 7.38314 58.6729 7.22604 58.0962 7.22604C56.9157 7.22604 56.3255 7.92751 56.3255 9.33045V14.2286H53.2572V9.27175C53.2572 7.90769 52.6804 7.22604 51.5264 7.22604C50.3461 7.22604 49.7557 7.92751 49.7557 9.33045V14.2286H46.6874V4.39328H48.7129L48.9299 5.57377C49.6119 4.69485 50.6407 4.25571 52.0174 4.25571C53.4863 4.25571 54.6011 4.76066 55.3619 5.7704C56.0174 4.76066 57.0989 4.25571 58.6072 4.25571ZM69.7406 5.7506H75.2877V8.91739H69.7406V11.0618H75.818V14.2286H66.3968V0.459595H75.818V3.60693H69.7406V5.7506ZM82.821 11.6715L80.9717 14.2286H77.431L81.1295 9.09475L77.6672 4.39328H81.188L82.8995 6.61617L84.5125 4.39328H88.0526L84.591 9.21251L88.2688 14.2286H84.7488L82.821 11.6715ZM94.1699 7.36361V14.2286H91.0823V7.36361H89.8819V4.39328H91.0823V1.08874H94.1699V4.39328H95.3704V7.36361H94.1699ZM104.261 7.22622H103.021C102.353 7.22622 101.825 7.43924 101.438 7.86518C101.051 8.29156 100.858 8.89148 100.858 9.66501V14.2286H97.7892V4.39346H99.8154L100.17 6.24253C100.983 4.91779 102.176 4.25589 103.749 4.25589H104.261V7.22622ZM115.669 14.2286H113.663L113.466 13.2648C112.679 13.9859 111.716 14.3467 110.576 14.3467C109.199 14.3467 108.067 13.8615 107.182 12.891C106.296 11.9208 105.854 10.7274 105.854 9.31118C105.854 7.89494 106.296 6.69834 107.182 5.72134C108.067 4.74433 109.199 4.25589 110.576 4.25589C111.716 4.25589 112.687 4.62286 113.487 5.35752L113.663 4.39346H115.669V14.2286ZM109.513 10.8157C109.906 11.1895 110.365 11.3763 110.89 11.3763C111.414 11.3763 111.873 11.1895 112.266 10.8157C112.66 10.442 112.857 9.94059 112.857 9.31118C112.857 8.68177 112.66 8.17682 112.266 7.79648C111.873 7.41644 111.414 7.22622 110.89 7.22622C110.365 7.22622 109.906 7.41644 109.513 7.79648C109.12 8.17682 108.923 8.68177 108.923 9.31118C108.923 9.94059 109.12 10.442 109.513 10.8157ZM119.269 0.459595H124.737C125.511 0.459595 126.193 0.551826 126.783 0.73527C127.373 0.918714 127.836 1.14147 128.17 1.40385C128.505 1.66608 128.773 1.9774 128.977 2.33829C129.18 2.69875 129.314 3.0265 129.38 3.32162C129.446 3.61659 129.478 3.90817 129.478 4.197C129.478 5.56063 128.914 6.52437 127.786 7.08829C128.415 7.24572 128.924 7.60946 129.311 8.18011C129.697 8.75061 129.891 9.42266 129.891 10.1962C129.891 11.4027 129.484 12.3765 128.671 13.1173C127.858 13.8582 126.514 14.2286 124.639 14.2286H119.269V0.459595ZM122.613 3.60693V5.73133H125.111C125.544 5.73133 125.852 5.6203 126.035 5.39695C126.22 5.17404 126.311 4.93118 126.311 4.66895C126.311 4.40658 126.222 4.16422 126.045 3.94131C125.869 3.7184 125.557 3.60693 125.111 3.60693H122.613ZM122.613 8.60317V11.0618H125.347C125.833 11.0618 126.187 10.9404 126.409 10.6979C126.633 10.4552 126.744 10.1634 126.744 9.82239C126.744 9.49467 126.628 9.20934 126.399 8.96699C126.17 8.72405 125.819 8.60317 125.347 8.60317H122.613ZM136.933 4.25589C138.336 4.25589 139.529 4.75092 140.513 5.74079C141.496 6.73109 141.988 7.9211 141.988 9.31118C141.988 10.7013 141.496 11.8881 140.513 12.8712C139.529 13.855 138.336 14.3467 136.933 14.3467C135.53 14.3467 134.34 13.855 133.363 12.8712C132.386 11.8881 131.897 10.7013 131.897 9.31118C131.897 7.9078 132.389 6.71447 133.373 5.73133C134.356 4.7476 135.542 4.25589 136.933 4.25589ZM138.309 7.79648C137.916 7.41644 137.457 7.22622 136.933 7.22622C136.408 7.22622 135.949 7.41644 135.556 7.79648C135.163 8.17682 134.966 8.68177 134.966 9.31118C134.966 9.94059 135.163 10.442 135.556 10.8157C135.949 11.1895 136.408 11.3763 136.933 11.3763C137.457 11.3763 137.916 11.1895 138.309 10.8157C138.703 10.442 138.9 9.94059 138.9 9.31118C138.9 8.68177 138.703 8.17682 138.309 7.79648ZM144.683 14.2286V0.459595H147.771V14.2286H144.683ZM160.104 14.2286H158.097L157.901 13.2648C157.114 13.9859 156.15 14.3467 155.01 14.3467C153.633 14.3467 152.502 13.8615 151.617 12.891C150.731 11.9208 150.288 10.7274 150.288 9.31118C150.288 7.89494 150.731 6.69834 151.617 5.72134C152.502 4.74433 153.633 4.25589 155.01 4.25589C155.757 4.25589 156.432 4.43934 157.035 4.80652V0.459595H160.104V14.2286ZM153.947 10.8157C154.341 11.1895 154.799 11.3763 155.324 11.3763C155.848 11.3763 156.308 11.1895 156.701 10.8157C157.095 10.442 157.292 9.94059 157.292 9.31118C157.292 8.68177 157.095 8.17682 156.701 7.79648C156.308 7.41644 155.848 7.22622 155.324 7.22622C154.799 7.22622 154.341 7.41644 153.947 7.79648C153.554 8.17682 153.357 8.68177 153.357 9.31118C153.357 9.94059 153.554 10.442 153.947 10.8157ZM174.994 7.36379V14.2286H171.926V7.36379H169.152V4.39346H177.748V7.36379H174.994ZM184.337 4.25589C185.741 4.25589 186.934 4.75092 187.917 5.74079C188.901 6.73109 189.393 7.9211 189.393 9.31118C189.393 10.7013 188.901 11.8881 187.917 12.8712C186.934 13.855 185.741 14.3467 184.337 14.3467C182.934 14.3467 181.744 13.855 180.767 12.8712C179.79 11.8881 179.302 10.7013 179.302 9.31118C179.302 7.9078 179.794 6.71447 180.777 5.73133C181.761 4.7476 182.947 4.25589 184.337 4.25589ZM185.714 7.79648C185.321 7.41644 184.862 7.22622 184.337 7.22622C183.813 7.22622 183.354 7.41644 182.961 7.79648C182.567 8.17682 182.37 8.68177 182.37 9.31118C182.37 9.94059 182.567 10.442 182.961 10.8157C183.354 11.1895 183.813 11.3763 184.337 11.3763C184.862 11.3763 185.321 11.1895 185.714 10.8157C186.108 10.442 186.305 9.94059 186.305 9.31118C186.305 8.68177 186.108 8.17682 185.714 7.79648ZM196.002 8.83888L193.681 14.2286H190.435L194.998 4.39346H197.005L201.549 14.2286H198.303L196.002 8.83888ZM207.627 4.27569C209.2 4.27569 210.492 4.87852 211.502 6.08516L209.672 8.07198C209.03 7.52121 208.348 7.24567 207.627 7.24567C207.102 7.24567 206.644 7.43254 206.25 7.8063C205.857 8.18006 205.66 8.68177 205.66 9.31118C205.66 9.94059 205.857 10.442 206.25 10.8157C206.644 11.1895 207.102 11.3763 207.627 11.3763C208.348 11.3763 209.03 11.1012 209.672 10.5506L211.502 12.5369C210.492 13.7433 209.2 14.3467 207.627 14.3467C206.224 14.3467 205.034 13.855 204.057 12.8712C203.08 11.8881 202.592 10.7013 202.592 9.31118C202.592 7.9211 203.08 6.73436 204.057 5.75078C205.034 4.7672 206.224 4.27569 207.627 4.27569ZM218.878 7.36379V14.2286H215.81V7.36379H213.036V4.39346H221.632V7.36379H218.878ZM226.884 7.02941H228.576C229.428 7.02941 230.156 7.14776 230.759 7.38324C231.363 7.6193 231.801 7.93447 232.077 8.32767C232.352 8.72131 232.543 9.10109 232.648 9.46856C232.753 9.83574 232.805 10.2224 232.805 10.6287C232.805 11.0357 232.752 11.4224 232.648 11.7894C232.543 12.1569 232.352 12.5368 232.077 12.9305C231.801 13.3237 231.363 13.6386 230.759 13.8744C230.156 14.1106 229.428 14.2286 228.576 14.2286H223.815V4.39346H226.884V7.02941ZM236.7 14.2286H233.631V4.39346H236.7V14.2286ZM226.884 11.3569H228.91C229.474 11.3569 229.756 11.114 229.756 10.6287C229.756 10.1569 229.474 9.9207 228.91 9.9207H226.884V11.3569ZM246.879 2.77081C246.256 3.38078 245.492 3.68526 244.587 3.68526C243.682 3.68526 242.915 3.38078 242.286 2.77081C241.656 2.16098 241.341 1.39714 241.341 0.479044H243.426C243.426 0.793895 243.537 1.05958 243.76 1.27591C243.984 1.49225 244.259 1.6003 244.587 1.6003C244.902 1.6003 245.171 1.4921 245.393 1.27591C245.616 1.05958 245.728 0.793895 245.728 0.479044H247.813C247.813 1.39714 247.501 2.16098 246.879 2.77081ZM249.19 14.2286H246.121V9.2912L241.893 14.2286H239.886V4.39346H242.955V9.33063L247.183 4.39346H249.19V14.2286Z" fill="black"/>
</svg>
