<svg width="240" height="19" viewBox="0 0 240 19" fill="none" xmlns="http://www.w3.org/2000/svg">
<path fill-rule="evenodd" clip-rule="evenodd" d="M4.61756 15.7852H5.83874C6.48671 15.7852 6.99354 15.5279 7.35897 15.0129C7.72439 14.4646 8.19766 12.7533 8.77927 9.87946C9.24424 7.58692 9.47729 6.07496 9.47729 5.34411C9.47729 4.92899 9.36916 4.60514 9.15326 4.37273C8.95403 4.13988 8.66319 4.02372 8.2811 4.02372H6.96L4.61756 15.7852ZM0.680664 18.7753L4.2193 1.03358H8.80425C9.68478 1.03358 10.3826 1.17369 10.8976 1.45682C11.4127 1.73937 11.8526 2.17958 12.218 2.77756C12.6166 3.40902 12.8161 4.26435 12.8161 5.34411C12.8161 5.94209 12.5836 7.45391 12.1188 9.87946C11.6534 12.2052 11.255 13.8746 10.9226 14.888C10.5903 15.9016 10.1413 16.6906 9.5765 17.2554C8.5631 18.2688 7.22619 18.7753 5.56467 18.7753H0.680664ZM12.4928 18.7753L16.0307 1.03358H19.3702L15.8316 18.7753H12.4928ZM18.4231 18.7753L21.9617 1.03358H24.6782L26.4717 10.0293L28.1419 1.03358H31.4806L27.9427 18.7753H25.3505L23.5319 9.80452L21.7626 18.7753H18.4231ZM34.5461 18.7753L38.0847 1.03358H42.5947C44.0234 1.03358 45.0781 1.37385 45.7594 2.05456C46.3577 2.65284 46.6565 3.4921 46.6565 4.57186C46.6565 5.31938 46.591 6.0252 46.4574 6.68983C46.0256 8.84936 45.3693 10.3319 44.489 11.1378C43.6084 11.9433 42.3788 12.3464 40.8004 12.3464H39.156L37.8856 18.7753H34.5461ZM39.7541 9.3563H40.9753C41.6233 9.3563 42.0923 9.15294 42.3828 8.74571C42.6736 8.33877 42.9185 7.65324 43.1179 6.68983C43.2348 6.10808 43.2928 5.64342 43.2928 5.29451C43.2928 4.86228 43.1931 4.54247 42.9937 4.33491C42.7945 4.12734 42.4536 4.02372 41.9717 4.02372H40.8254L39.7541 9.3563ZM45.8593 18.7753L48.5258 5.36909H51.5655L51.2914 6.81402C51.6573 6.33268 52.122 5.94229 52.6868 5.64352C53.3017 5.32779 54.0412 5.16961 54.905 5.16961L54.2819 8.30963H53.1107C52.5626 8.30963 52.0559 8.51723 51.5905 8.93235C51.1257 9.34791 50.818 9.90429 50.6684 10.6021L49.0489 18.7753H45.8593ZM57.5958 12.0724C57.2468 13.7504 57.0726 14.8133 57.0726 15.2616C57.0726 15.5609 57.1472 15.785 57.2967 15.9347C57.4297 16.0677 57.6127 16.1342 57.8456 16.1342C58.2442 16.1342 58.5512 15.9596 58.767 15.6107C59.0161 15.2286 59.3405 14.0492 59.7391 12.0724C60.0878 10.3948 60.2622 9.33149 60.2622 8.88275C60.2622 8.58354 60.1878 8.35924 60.0381 8.20971C59.9051 8.07669 59.7224 8.01058 59.49 8.01058C59.0914 8.01058 58.7837 8.18483 58.5678 8.53374C58.3183 8.91583 57.9944 10.0956 57.5958 12.0724ZM54.4061 12.0724C54.7384 10.4278 55.0377 9.23165 55.3033 8.48413C55.5693 7.73662 55.9185 7.10523 56.3503 6.59027C57.1313 5.64352 58.2938 5.16961 59.839 5.16961C61.384 5.16961 62.4301 5.69321 62.9787 6.73979C63.2608 7.28793 63.4019 7.95253 63.4019 8.73322C63.4019 9.3315 63.2444 10.4445 62.9287 12.0724C62.5963 13.7169 62.2976 14.9127 62.0315 15.6603C61.766 16.4082 61.4167 17.0395 60.9845 17.5545C60.1874 18.5014 59.0246 18.9748 57.4966 18.9748C55.9514 18.9748 54.905 18.4515 54.3569 17.405C54.0742 16.8568 53.9329 16.1921 53.9329 15.4115C53.9329 14.8135 54.0904 13.7003 54.4061 12.0724ZM68.2366 14.6889C68.2366 13.6423 68.4607 12.0474 68.909 9.90444C69.4239 7.37949 69.8601 5.6144 70.2172 4.60933C70.5743 3.60412 71.0441 2.81083 71.6254 2.22907C72.5561 1.29899 73.7851 0.83374 75.3132 0.83374C76.8087 0.83374 77.9049 1.26599 78.6028 2.12986C79.1674 2.82768 79.4499 3.7411 79.4499 4.87056C79.4499 5.33582 79.4336 5.70948 79.4 5.99217H76.0619C76.0955 5.74266 76.1112 5.43591 76.1112 5.07004C76.1112 4.23965 75.7542 3.82388 75.0399 3.82388C74.6241 3.82388 74.2589 3.98171 73.9436 4.29744C73.661 4.57998 73.403 5.1117 73.1706 5.89225C72.9381 6.67338 72.6306 8.01051 72.2485 9.90444C71.7997 12.1468 71.5762 13.7253 71.5762 14.6393C71.5762 15.5363 71.9331 15.9846 72.6475 15.9846C73.1791 15.9846 73.6026 15.7603 73.9179 15.3116C74.1839 14.9297 74.392 14.4227 74.5417 13.7917H77.9304C77.5485 15.619 76.867 16.9647 75.887 17.8285C75.0232 18.5926 73.8433 18.9748 72.3484 18.9748C70.637 18.9748 69.4577 18.4018 68.8098 17.2554C68.4277 16.5746 68.2366 15.7189 68.2366 14.6889ZM82.7887 12.0724C82.4398 13.7504 82.2656 14.8133 82.2656 15.2616C82.2656 15.5609 82.3402 15.785 82.4897 15.9347C82.6227 16.0677 82.805 16.1342 83.0378 16.1342C83.4364 16.1342 83.7441 15.9596 83.96 15.6107C84.2089 15.2286 84.5334 14.0492 84.9321 12.0724C85.281 10.3948 85.4552 9.33149 85.4552 8.88275C85.4552 8.58354 85.3808 8.35924 85.2311 8.20971C85.0981 8.07669 84.9154 8.01058 84.683 8.01058C84.2844 8.01058 83.9767 8.18483 83.7608 8.53374C83.5115 8.91583 83.1873 10.0956 82.7887 12.0724ZM79.5991 12.0724C79.9314 10.4278 80.2307 9.23165 80.4963 8.48413C80.7623 7.73662 81.1108 7.10523 81.5426 6.59027C82.3236 5.64352 83.4862 5.16961 85.0313 5.16961C86.5763 5.16961 87.6231 5.69321 88.1716 6.73979C88.4537 7.28793 88.5949 7.95253 88.5949 8.73322C88.5949 9.3315 88.4374 10.4445 88.1217 12.0724C87.7893 13.7169 87.4906 14.9127 87.2245 15.6603C86.9589 16.4082 86.6096 17.0395 86.1775 17.5545C85.3803 18.5014 84.2176 18.9748 82.6895 18.9748C81.1444 18.9748 80.0973 18.4515 79.5492 17.405C79.2665 16.8568 79.1259 16.1921 79.1259 15.4115C79.1259 14.8135 79.2834 13.7003 79.5991 12.0724ZM88.6199 18.7753L91.2863 5.36909H94.3261L94.1269 6.3162C94.5255 5.91716 94.8825 5.63521 95.1982 5.46901C95.5968 5.26978 96.0204 5.16961 96.4687 5.16961C97.4987 5.16961 98.2382 5.54349 98.6869 6.29086C98.936 6.72309 99.0609 7.27136 99.0609 7.93599C99.0609 8.18492 98.9863 8.69148 98.8368 9.45551L96.9925 18.7753H93.8029L95.6465 9.48049C95.7137 9.14868 95.7464 8.92422 95.7464 8.80816C95.7464 8.55865 95.6712 8.3634 95.5216 8.2222C95.372 8.08041 95.1816 8.01058 94.9491 8.01058C94.2845 8.01058 93.8524 8.50056 93.653 9.48049L91.8088 18.7753H88.6199ZM99.4849 16.1092C99.4849 15.3282 99.676 13.983 100.058 12.0724C100.457 10.1121 100.788 8.74117 101.054 7.96062C101.32 7.17963 101.636 6.60669 102.001 6.24126C102.716 5.52693 103.588 5.16961 104.618 5.16961C105.099 5.16961 105.507 5.28664 105.839 5.51862C106.105 5.71785 106.329 5.93383 106.511 6.16668L107.534 1.03358H110.723L107.184 18.7753H104.144L104.319 17.8039C104.003 18.1859 103.671 18.468 103.322 18.6508C102.923 18.8669 102.5 18.9748 102.051 18.9748C101.005 18.9748 100.282 18.6094 99.8831 17.8785C99.6171 17.3635 99.4849 16.7738 99.4849 16.1092ZM103.247 12.0724C102.931 13.6506 102.774 14.689 102.774 15.1874C102.774 15.5363 102.848 15.785 102.999 15.9347C103.132 16.0677 103.314 16.1342 103.547 16.1342C103.845 16.1342 104.095 16.0348 104.294 15.8351C104.526 15.6026 104.692 15.2454 104.792 14.7635L105.864 9.38093C105.914 9.13156 105.938 8.94074 105.938 8.80816C105.938 8.54213 105.864 8.3344 105.714 8.18473C105.597 8.06779 105.415 8.01058 105.166 8.01058C104.867 8.01058 104.601 8.12726 104.368 8.35923C104.053 8.67496 103.679 9.91285 103.247 12.0724ZM113.589 18.7753L117.127 1.03358H121.687C123.266 1.03358 124.354 1.43185 124.952 2.22907C125.401 2.82749 125.625 3.56658 125.625 4.44696C125.625 4.91222 125.559 5.46868 125.425 6.11636C125.159 7.44549 124.728 8.37575 124.13 8.90737C123.814 9.1734 123.498 9.37281 123.183 9.50583C123.465 9.63884 123.697 9.846 123.88 10.1285C124.179 10.5437 124.329 11.0669 124.329 11.6984C124.329 12.2797 124.262 12.9031 124.13 13.5676C123.731 15.5943 123.116 16.9815 122.285 17.729C121.837 18.1276 121.33 18.4017 120.765 18.5512C120.201 18.7009 119.437 18.7753 118.473 18.7753H113.589ZM117.526 15.7852H118.623C119.32 15.7852 119.814 15.6147 120.105 15.2741C120.395 14.9336 120.632 14.3233 120.815 13.4427C120.915 12.9775 120.965 12.5791 120.965 12.2469C120.965 11.7815 120.857 11.4453 120.641 11.2373C120.425 11.0298 120.076 10.9261 119.594 10.9261H118.498L117.526 15.7852ZM119.046 8.08552H119.993C120.624 8.08552 121.094 7.93164 121.401 7.6241C121.709 7.3167 121.937 6.81403 122.086 6.11636C122.17 5.73427 122.21 5.41853 122.21 5.16961C122.21 4.78752 122.115 4.50097 121.924 4.30993C121.733 4.11888 121.396 4.02372 120.914 4.02372H119.867L119.046 8.08552ZM126.895 17.9031C126.28 17.3383 125.973 16.566 125.973 15.586C125.973 15.1709 126.014 14.755 126.097 14.3399L128.764 1.03358H131.954L129.338 14.1158C129.288 14.3647 129.263 14.6137 129.263 14.863C129.263 15.5774 129.679 15.9347 130.509 15.9347L129.961 18.7753C128.582 18.7753 127.561 18.4844 126.896 17.9031H126.895ZM131.904 17.704C131.655 17.2553 131.53 16.6823 131.53 15.9846C131.53 15.5529 131.58 15.0874 131.68 14.589C131.929 13.3595 132.519 12.3881 133.449 11.6738C134.196 11.1091 135.285 10.8262 136.713 10.8262H137.81L138.084 9.45551C138.133 9.20658 138.159 8.99088 138.159 8.80816C138.159 8.27654 137.901 8.01058 137.386 8.01058C137.087 8.01058 136.838 8.10981 136.638 8.30963C136.439 8.50886 136.289 8.84116 136.189 9.30598H133C133.282 7.92745 133.831 6.88101 134.645 6.16668C135.392 5.50204 136.431 5.16961 137.76 5.16961C139.155 5.16961 140.144 5.54349 140.725 6.29086C141.14 6.82248 141.348 7.53677 141.348 8.43382C141.348 8.88256 141.298 9.3564 141.198 9.85484L139.429 18.7753H136.439L136.663 17.654C136.331 18.0693 135.999 18.3768 135.666 18.5762C135.251 18.8418 134.778 18.9748 134.246 18.9748C133.183 18.9748 132.402 18.5512 131.904 17.704H131.904ZM134.845 15.1371C134.845 15.8017 135.152 16.1342 135.766 16.1342C136.431 16.1342 136.863 15.6273 137.062 14.6139L137.386 13.0441H136.838C136.257 13.0441 135.824 13.1523 135.542 13.3678C135.077 13.7502 134.845 14.3399 134.845 15.1371ZM142.494 12.0724C142.827 10.4278 143.126 9.23165 143.392 8.48413C143.658 7.73662 144.006 7.10523 144.438 6.59027C145.219 5.64352 146.381 5.16961 147.927 5.16961C149.472 5.16961 150.518 5.69321 151.067 6.73979C151.349 7.28793 151.49 7.93575 151.49 8.68326C151.49 8.98233 151.474 9.24808 151.44 9.48049H148.276C148.309 9.28126 148.326 9.08212 148.326 8.88275C148.326 8.58354 148.251 8.35924 148.102 8.20971C147.968 8.07669 147.794 8.01058 147.578 8.01058C147.18 8.01058 146.872 8.18483 146.656 8.53374C146.407 8.91583 146.083 10.0956 145.684 12.0724C145.335 13.7504 145.161 14.8133 145.161 15.2616C145.161 15.5609 145.236 15.785 145.385 15.9347C145.518 16.0677 145.7 16.1342 145.933 16.1342C146.232 16.1342 146.473 16.0434 146.656 15.8601C146.889 15.6272 147.08 15.2286 147.229 14.6639H150.419C150.12 15.8767 149.68 16.8401 149.098 17.5545C148.317 18.5014 147.146 18.9748 145.585 18.9748C144.04 18.9748 142.993 18.4515 142.445 17.405C142.162 16.8568 142.021 16.1921 142.021 15.4115C142.021 14.8135 142.179 13.7003 142.494 12.0724ZM151.241 18.7753L154.78 1.03358H157.969L156.15 10.1782L159.764 5.36909H163.302L158.892 11.0007L160.561 18.7753H157.396L156.299 13.7421L155.129 15.237L154.431 18.7753H151.241ZM167.463 18.7753L169.557 8.20971H167.339L167.912 5.36909H175.537L174.964 8.20971H172.746L170.653 18.7753H167.463ZM178.428 12.0724C178.079 13.7504 177.904 14.8133 177.904 15.2616C177.904 15.5609 177.979 15.785 178.129 15.9347C178.262 16.0677 178.445 16.1342 178.677 16.1342C179.076 16.1342 179.384 15.9596 179.6 15.6107C179.849 15.2286 180.172 14.0492 180.571 12.0724C180.92 10.3948 181.094 9.33149 181.094 8.88275C181.094 8.58354 181.019 8.35924 180.87 8.20971C180.737 8.07669 180.554 8.01058 180.322 8.01058C179.923 8.01058 179.615 8.18483 179.4 8.53374C179.15 8.91583 178.826 10.0956 178.428 12.0724ZM175.238 12.0724C175.57 10.4278 175.87 9.23165 176.135 8.48413C176.401 7.73662 176.75 7.10523 177.182 6.59027C177.963 5.64352 179.126 5.16961 180.671 5.16961C182.216 5.16961 183.262 5.69321 183.81 6.73979C184.093 7.28793 184.234 7.95253 184.234 8.73322C184.234 9.3315 184.076 10.4445 183.76 12.0724C183.428 13.7169 183.129 14.9127 182.863 15.6603C182.598 16.4082 182.249 17.0395 181.817 17.5545C181.02 18.5014 179.856 18.9748 178.328 18.9748C176.783 18.9748 175.737 18.4515 175.189 17.405C174.906 16.8568 174.765 16.1921 174.765 15.4115C174.765 14.8135 174.922 13.7003 175.238 12.0724ZM183.087 18.7753L183.636 15.9347H184.11C184.442 15.9347 184.712 15.8807 184.92 15.7727C185.127 15.6645 185.355 15.3615 185.604 14.863C185.853 14.3646 186.078 13.6255 186.277 12.6451L187.722 5.36909H195.796L193.13 18.7753H189.941L192.033 8.20971H190.215L189.243 13.0691C188.994 14.3482 188.711 15.3824 188.395 16.1713C188.08 16.9606 187.694 17.5377 187.237 17.9031C186.78 18.2686 186.331 18.5055 185.891 18.6136C185.451 18.7218 184.865 18.7753 184.134 18.7753H183.087ZM196.27 12.0724C196.602 10.4278 196.901 9.23165 197.167 8.48413C197.433 7.73662 197.782 7.10523 198.213 6.59027C198.994 5.64352 200.157 5.16961 201.702 5.16961C203.247 5.16961 204.293 5.69321 204.842 6.73979C205.124 7.28793 205.266 7.93575 205.266 8.68326C205.266 8.98233 205.249 9.24808 205.216 9.48049H202.051C202.085 9.28126 202.101 9.08212 202.101 8.88275C202.101 8.58354 202.026 8.35924 201.877 8.20971C201.744 8.07669 201.569 8.01058 201.353 8.01058C200.955 8.01058 200.648 8.18483 200.432 8.53374C200.182 8.91583 199.858 10.0956 199.46 12.0724C199.111 13.7504 198.936 14.8133 198.936 15.2616C198.936 15.5609 199.011 15.785 199.16 15.9347C199.294 16.0677 199.476 16.1342 199.709 16.1342C200.007 16.1342 200.249 16.0434 200.432 15.8601C200.664 15.6272 200.855 15.2286 201.005 14.6639H204.194C203.895 15.8767 203.455 16.8401 202.873 17.5545C202.093 18.5014 200.921 18.9748 199.36 18.9748C197.815 18.9748 196.768 18.4515 196.22 17.405C195.937 16.8568 195.796 16.1921 195.796 15.4115C195.796 14.8135 195.954 13.7003 196.27 12.0724ZM206.462 18.7753L208.555 8.20971H206.337L206.91 5.36909H214.536L213.962 8.20971H211.745L209.652 18.7753H206.462ZM223.107 18.7753L225.774 5.36909H228.963L226.297 18.7753H223.107ZM213.414 18.7753L216.08 5.36909H219.27L218.397 9.70531H219.544C220.69 9.70531 221.538 9.97902 222.086 10.5272C222.551 10.9924 222.783 11.6655 222.783 12.5459C222.783 13.1769 222.734 13.7419 222.634 14.2399C222.285 15.9677 221.758 17.1558 221.052 17.8039C220.346 18.4515 219.361 18.7753 218.098 18.7753H213.414ZM217.152 15.9347H218.073C218.489 15.9347 218.788 15.8061 218.971 15.5486C219.153 15.2909 219.311 14.8549 219.444 14.2399C219.51 13.9077 219.544 13.6092 219.544 13.3432C219.544 12.8115 219.27 12.5459 218.721 12.5459H217.849L217.152 15.9347ZM228.49 18.7753L231.156 5.36909H234.346L233.124 11.4496L236.838 5.36909H239.529L236.862 18.7753H233.673L234.869 12.6955L231.181 18.7753H228.49ZM232.925 1.18239H234.994V1.30694C234.994 1.85508 235.325 2.12915 235.99 2.12915C236.737 2.12915 237.195 1.81349 237.361 1.18204H239.454C239.254 2.19558 238.868 2.94299 238.295 3.42491C237.722 3.90683 236.887 4.14755 235.791 4.14755C234.894 4.14755 234.179 3.94426 233.648 3.53732C233.116 3.13009 232.85 2.57773 232.85 1.88006C232.85 1.66416 232.875 1.4314 232.925 1.18204L232.925 1.18239Z" fill="black"/>
</svg>
