<svg width="263" height="25" viewBox="0 0 263 25" fill="none" xmlns="http://www.w3.org/2000/svg">
<path fill-rule="evenodd" clip-rule="evenodd" d="M0.381915 11.8269C0.346834 10.1687 0.765869 8.60108 1.63807 7.12432C2.51027 5.64771 3.68496 4.47305 5.16172 3.60085C6.63833 2.72865 8.20628 2.30973 9.86443 2.34452C11.3324 2.34452 12.6538 2.67687 13.8285 3.34195C15.0031 4.00702 15.9354 4.96122 16.6262 6.20469L15.5385 6.90432C14.2603 4.69349 12.3427 3.588 9.78664 3.588C7.62756 3.55292 5.74057 4.35659 4.12539 5.99735C2.51035 7.63812 1.72907 9.56411 1.78081 11.7749C1.78081 13.7788 2.42005 15.437 3.69787 16.7496C4.97613 18.0622 6.5911 18.7184 8.54262 18.7184C10.9264 18.7184 12.9385 17.8032 14.5793 15.9722L15.5121 16.7753C14.6143 17.7771 13.5476 18.5586 12.3125 19.12C11.0778 19.6815 9.78653 19.9619 8.43913 19.9619C6.17641 19.997 4.25958 19.2236 2.68795 17.6433C1.11589 16.063 0.347127 14.1239 0.381915 11.8269ZM29.8658 13.7439H19.4504V13.7703C19.4504 15.2559 19.8907 16.4648 20.7715 17.3975C21.6869 18.3128 22.8616 18.7707 24.2952 18.7707C25.8668 18.7707 27.2661 18.1835 28.4926 17.0088L29.2177 17.8637C27.8529 19.2628 26.1782 19.9622 24.1917 19.9622C22.4475 19.9622 20.9961 19.3793 19.8387 18.2138C18.6815 17.0478 18.1036 15.5926 18.1036 13.8478C18.0686 11.9825 18.7247 10.3544 20.0721 8.9643C21.4192 7.57378 22.9914 6.89602 24.7877 6.93037C26.3422 6.93037 27.6157 7.42718 28.6089 8.42026C29.602 9.41349 30.0985 10.6786 30.0985 12.2158C30.0985 12.8203 30.0212 13.3299 29.8658 13.7443V13.7439ZM19.5539 12.5784H28.7517V12.1898C28.7517 10.9633 28.3842 9.97871 27.6504 9.23587C26.9162 8.49332 25.9447 8.12211 24.7356 8.12211C23.4229 8.12211 22.2915 8.5451 21.3418 9.39128C20.3917 10.2204 19.796 11.2828 19.5539 12.5784ZM41.032 7.26707L40.825 8.38119C40.4793 8.31249 40.1252 8.27734 39.7623 8.27734C38.6397 8.27734 37.6644 8.61435 36.8353 9.28761C36.0232 9.96131 35.5225 10.8422 35.3322 11.9302L33.959 19.703H32.6379L34.8654 7.18891H36.1094L35.8247 8.82138C36.8439 7.66414 38.1732 7.08542 39.8144 7.08542C40.246 7.08542 40.6521 7.14527 41.032 7.26689V7.26707ZM53.8569 7.18963H55.1523L52.9497 19.7035H51.7064L52.069 17.5791C51.5507 18.3217 50.8599 18.9046 49.9963 19.3277C49.1325 19.7512 48.1911 19.9624 47.1721 19.9624C45.5657 19.9624 44.2189 19.3928 43.1303 18.2525C42.0424 17.1127 41.4988 15.6876 41.4988 13.9777C41.4637 12.0779 42.1246 10.4198 43.4808 9.00355C44.8365 7.58687 46.4378 6.8962 48.2863 6.93055C49.4261 6.93055 50.4585 7.20704 51.3824 7.75971C52.3063 8.31253 52.9753 9.03782 53.3901 9.93603L53.8569 7.18963ZM52.8205 12.7081C52.8205 11.3438 52.4098 10.2383 51.5894 9.39182C50.7691 8.54564 49.6853 8.12264 48.3384 8.12264C46.8699 8.08756 45.5787 8.658 44.465 9.83219C43.3507 11.0068 42.8108 12.3625 42.8456 13.9002C42.8456 15.3163 43.2864 16.4823 44.1674 17.3976C45.0482 18.313 46.1533 18.7708 47.4833 18.7708C48.917 18.8059 50.1732 18.2093 51.2525 16.9828C52.3323 15.7569 52.8553 14.3319 52.8205 12.7081ZM65.1787 19.7035L68.1841 2.60414H73.4436C74.9808 2.60414 76.194 2.99264 77.0835 3.76983C77.9731 4.54716 78.4182 5.60923 78.4182 6.95678C78.4182 8.47651 77.874 9.70291 76.7859 10.6355C75.6975 11.5682 74.2725 12.0344 72.5107 12.0344H67.873L66.5262 19.7035H65.1787ZM68.0807 10.8428H72.5885C73.9356 10.8428 75.0063 10.4973 75.801 9.80649C76.5953 9.1154 76.9929 8.17446 76.9929 6.98229C76.9929 5.96348 76.6774 5.1775 76.0472 4.62469C75.4166 4.07202 74.506 3.7957 73.3144 3.7957H69.2983L68.0807 10.8428ZM88.0813 7.26742L87.8743 8.38154C87.5288 8.31284 87.1752 8.27788 86.8123 8.27788C85.6899 8.27788 84.7137 8.61471 83.8846 9.28797C83.0725 9.96167 82.5717 10.8426 82.3815 11.9305L81.009 19.7033H79.6872L81.9155 7.18945H83.1595L82.874 8.82191C83.8932 7.66468 85.2232 7.08578 86.8644 7.08578C87.2962 7.08578 87.7014 7.14563 88.0813 7.26724V7.26742ZM88.5745 13.7962C88.5394 11.9483 89.2174 10.333 90.6079 8.95127C91.9984 7.56982 93.6174 6.8962 95.4655 6.93055C97.2102 6.93055 98.6695 7.52226 99.8442 8.70522C101.018 9.88861 101.606 11.3524 101.606 13.0968C101.64 14.9452 100.963 16.5598 99.5722 17.9417C98.1817 19.3234 96.5454 19.9972 94.6625 19.9624C92.9351 19.9624 91.4884 19.3711 90.3224 18.1877C89.1564 17.0049 88.5745 15.541 88.5745 13.7962ZM100.233 13.0968C100.233 11.6979 99.7753 10.5232 98.8599 9.5731C97.9442 8.62314 96.7953 8.14834 95.4134 8.14834C93.8936 8.14834 92.6031 8.69693 91.5407 9.79364C90.4783 10.8905 89.9477 12.2246 89.9477 13.7962C89.9477 15.2298 90.3963 16.4132 91.2945 17.3457C92.1928 18.2784 93.3322 18.7446 94.7139 18.7446C96.2512 18.7446 97.5556 18.1966 98.6265 17.0998C99.6973 16.003 100.233 14.6688 100.233 13.0968ZM111.555 19.7035L114.975 0.272049H116.296L112.876 19.7035H111.555ZM117.695 19.7035L119.897 7.18963H121.219L119.016 19.7035H117.695ZM120.623 3.17369C120.398 2.94961 120.286 2.68151 120.286 2.37075C120.286 2.05999 120.398 1.7923 120.623 1.56763C120.847 1.34312 121.115 1.23094 121.426 1.23094C121.754 1.23094 122.026 1.34341 122.242 1.56763C122.458 1.7923 122.566 2.05999 122.566 2.37075C122.566 2.68151 122.458 2.94961 122.242 3.17369C122.026 3.39835 121.754 3.51057 121.426 3.51057C121.115 3.51057 120.847 3.39806 120.623 3.17369ZM136.219 7.18963H137.514L135.442 19.0815C135.148 20.8088 134.419 22.1646 133.253 23.1492C132.087 24.1336 130.631 24.6262 128.887 24.6262C127.695 24.6262 126.586 24.3715 125.558 23.8618C124.531 23.3521 123.697 22.64 123.058 21.7242L123.99 20.9468C125.165 22.6051 126.806 23.4341 128.913 23.4341C130.295 23.4341 131.452 23.0415 132.385 22.2554C133.318 21.4695 133.905 20.3858 134.147 19.0041L134.405 17.5274C133.231 18.9436 131.607 19.6516 129.534 19.6516C127.911 19.6516 126.564 19.1118 125.493 18.0323C124.422 16.953 123.887 15.6015 123.887 13.9777C123.887 12.0086 124.552 10.3418 125.882 8.97732C127.212 7.61297 128.835 6.93055 130.753 6.93055C131.876 6.93055 132.89 7.20264 133.797 7.74669C134.704 8.29073 135.356 9.0118 135.753 9.91016L136.219 7.18963ZM135.261 12.6564C135.261 11.3264 134.842 10.2383 134.004 9.39182C133.167 8.54564 132.083 8.12264 130.753 8.12264C129.25 8.12264 127.955 8.68827 126.866 9.81934C125.778 10.951 125.234 12.3024 125.234 13.874C125.234 15.204 125.67 16.2963 126.542 17.1516C127.414 18.0064 128.525 18.4338 129.872 18.4338C131.34 18.4689 132.614 17.9114 133.693 16.7628C134.773 15.6142 135.295 14.2454 135.261 12.6564ZM151.48 10.9463C151.48 11.1884 151.428 11.6545 151.324 12.3456L150.028 19.7035H148.733L150.028 12.2676C150.132 11.5421 150.184 11.1452 150.184 11.076C150.184 10.1777 149.895 9.46086 149.316 8.92558C148.737 8.39016 147.973 8.12264 147.023 8.12264C145.987 8.12264 145.093 8.43757 144.342 9.06815C143.591 9.69829 143.12 10.5491 142.929 11.6201L141.531 19.7035H140.209L143.603 0.272049H144.924L143.473 8.5887C144.441 7.48322 145.702 6.93055 147.256 6.93055C148.517 6.93055 149.536 7.29761 150.314 8.03182C151.091 8.76574 151.48 9.73733 151.48 10.9463ZM158.449 8.38154L157.101 15.9466C157.05 16.1712 157.024 16.4218 157.024 16.6982C157.024 18.0799 157.982 18.7708 159.9 18.7708C159.951 18.7708 160.029 18.7708 160.132 18.7562C160.236 18.7416 160.384 18.7386 160.573 18.7298C160.764 18.7152 160.944 18.7152 161.117 18.7152L160.91 19.8295C160.512 19.9157 160.064 19.9581 159.563 19.9581C156.989 19.9581 155.702 18.9219 155.702 16.8493C155.702 16.4864 155.738 16.1757 155.806 15.9167L157.128 8.37726H154.951L155.133 7.18535H157.335L157.957 3.636H159.278L158.656 7.18535H162.672L162.49 8.37726L158.449 8.38154ZM190.6 10.9463C190.6 11.2575 190.55 11.7236 190.446 12.3456L189.149 19.7035H187.828L189.176 12.2676C189.262 11.5769 189.306 11.2054 189.306 11.1536C189.306 10.2383 189.034 9.50394 188.49 8.95127C187.946 8.3989 187.216 8.12264 186.3 8.12264C185.316 8.12264 184.452 8.44208 183.709 9.08099C182.967 9.7199 182.509 10.5665 182.336 11.6201L180.886 19.7035H179.59L180.912 12.2676C180.998 11.7841 181.042 11.4129 181.042 11.1536C181.042 10.2209 180.769 9.48247 180.225 8.93843C179.681 8.39438 178.951 8.12264 178.036 8.12264C177.069 8.12264 176.218 8.43757 175.484 9.06815C174.75 9.69829 174.279 10.5491 174.072 11.6201L172.621 19.7035H171.326L173.528 7.18963H174.771L174.539 8.64062C175.541 7.50064 176.792 6.93055 178.295 6.93055C179.21 6.93055 179.997 7.14646 180.653 7.57825C181.31 8.01033 181.776 8.60618 182.052 9.36612C182.518 8.58879 183.141 7.98842 183.918 7.5654C184.695 7.14224 185.55 6.93055 186.482 6.93055C187.726 6.93055 188.724 7.30183 189.475 8.04467C190.226 8.78721 190.602 9.75473 190.602 10.9463H190.6ZM193.762 13.7962C193.726 11.9483 194.405 10.333 195.796 8.95127C197.186 7.56982 198.805 6.8962 200.653 6.93055C202.398 6.93055 203.857 7.52226 205.032 8.70522C206.206 9.88861 206.793 11.3524 206.793 13.0968C206.828 14.9452 206.15 16.5598 204.76 17.9417C203.369 19.3234 201.733 19.9972 199.85 19.9624C198.123 19.9624 196.676 19.3711 195.51 18.1877C194.344 17.0049 193.762 15.541 193.762 13.7962ZM205.42 13.0968C205.42 11.6979 204.963 10.5232 204.048 9.5731C203.132 8.62314 201.983 8.14834 200.601 8.14834C199.081 8.14834 197.79 8.69693 196.728 9.79364C195.665 10.8905 195.135 12.2246 195.135 13.7962C195.135 15.2298 195.584 16.4132 196.482 17.3457C197.381 18.2784 198.52 18.7446 199.902 18.7446C201.439 18.7446 202.743 18.1966 203.814 17.0998C204.885 16.003 205.42 14.6688 205.42 13.0968ZM209.41 19.7035L211.612 7.18963H212.934L212.001 12.3713H218.997L219.903 7.18963H221.198L218.997 19.7035H217.7L218.789 13.5371H211.819L210.732 19.7035H209.41ZM226.043 7.18963H227.339L225.137 19.7035H223.815L226.043 7.18963ZM235.111 7.18963L228.324 13.0968L233.427 19.7035H231.873L226.717 12.967L233.272 7.18963H235.111ZM246.77 7.18963H248.065L245.889 19.7035H244.619L244.878 18.2268C243.876 19.384 242.59 19.9624 241.019 19.9624C239.74 19.9624 238.717 19.591 237.948 18.8486C237.18 18.1057 236.795 17.1387 236.795 15.9466C236.795 15.6359 236.846 15.1693 236.95 14.5478L238.246 7.18963H239.568L238.246 14.6252C238.159 15.178 238.117 15.5496 238.117 15.7395C238.117 16.6721 238.398 17.4105 238.959 17.9545C239.521 18.4984 240.284 18.7708 241.252 18.7708C242.253 18.7708 243.134 18.4555 243.895 17.8252C244.655 17.1946 245.138 16.344 245.345 15.2734L246.77 7.18963ZM261.2 7.18963H262.497L260.32 19.7035H259.051L259.31 18.2268C258.308 19.384 257.021 19.9624 255.449 19.9624C254.171 19.9624 253.147 19.591 252.379 18.8486C251.61 18.1057 251.226 17.1387 251.226 15.9466C251.226 15.6359 251.278 15.1693 251.382 14.5478L252.677 7.18963H253.998L252.677 14.6252C252.591 15.178 252.548 15.5496 252.548 15.7395C252.548 16.6721 252.829 17.4105 253.39 17.9545C253.952 18.4984 254.716 18.7708 255.683 18.7708C256.685 18.7708 257.565 18.4555 258.326 17.8252C259.086 17.1946 259.569 16.344 259.777 15.2734L261.2 7.18963ZM254.957 1.54176C254.957 1.17911 255.017 0.695503 255.138 0.0909424H256.33C256.209 0.695503 256.149 1.13599 256.149 1.4124C256.149 2.13755 256.356 2.71635 256.77 3.14799C257.185 3.57978 257.738 3.7957 258.429 3.7957C259.137 3.7957 259.728 3.55831 260.203 3.0834C260.678 2.6082 260.985 1.95635 261.123 1.12727L261.305 0.0909424H262.497L262.315 1.12727C262.125 2.2671 261.676 3.16952 260.968 3.8346C260.26 4.49953 259.387 4.83184 258.351 4.83184C257.367 4.83184 256.555 4.52114 255.915 3.89919C255.276 3.27767 254.957 2.49172 254.957 1.54176Z" fill="black"/>
</svg>
