<svg width="250" height="28" viewBox="0 0 250 28" fill="none" xmlns="http://www.w3.org/2000/svg">
<path fill-rule="evenodd" clip-rule="evenodd" d="M0.857422 4.48457H5.72358C7.42237 4.48457 8.63549 4.89266 9.36357 5.70931C10.0919 6.52553 10.4556 7.76109 10.4556 9.41603V10.7398C10.4556 12.0641 10.2299 13.0953 9.77753 13.8345C9.32498 14.5737 8.53619 15.0647 7.41082 15.3075C9.72777 15.7708 10.8859 17.4256 10.8859 20.2721V22.2907C10.8859 25.8653 9.19817 27.6529 5.82208 27.6529H0.857422V4.48457ZM2.38051 14.7117H4.96133C6.37392 14.7117 7.38907 14.4524 8.00678 13.9341C8.62464 13.4153 8.93319 12.4498 8.93319 11.0376V9.54861C8.93319 8.29066 8.69034 7.36409 8.2052 6.7683C7.71962 6.17251 6.88118 5.87454 5.69004 5.87454H2.38051V14.7117ZM2.38051 26.2626H5.82208C8.18302 26.2626 9.36357 24.9276 9.36357 22.258V20.1727C9.36357 18.6944 9.03293 17.6465 8.37078 17.0286C7.70863 16.4104 6.67167 16.1017 5.25966 16.1017H2.38051V26.2626ZM14.8913 15.2081H21.2128V16.598H14.8913V26.2626H22.5039V27.6529H13.3683V4.48457H22.5039V5.87454H14.8913V15.2081ZM24.9855 4.48457H29.8517C31.5506 4.48457 32.7636 4.89266 33.4917 5.70931C34.22 6.52553 34.5844 7.76109 34.5844 9.41603V10.7398C34.5844 12.0641 34.3582 13.0953 33.9056 13.8345C33.4532 14.5737 32.6643 15.0647 31.5389 15.3075C33.8559 15.7708 35.0148 17.4256 35.0148 20.2721V22.2907C35.0148 25.8653 33.327 27.6529 29.9509 27.6529H24.9855V4.48457ZM26.5086 14.7117H29.0901C30.5027 14.7117 31.5172 14.4524 32.1349 13.9341C32.7528 13.4153 33.062 12.4498 33.062 11.0376V9.54861C33.062 8.29066 32.8192 7.36409 32.334 6.7683C31.8484 6.17251 31.0093 5.87454 29.8181 5.87454H26.5086V14.7117ZM26.5086 26.2626H29.9509C32.3118 26.2626 33.4917 24.9276 33.4917 22.258V20.1727C33.4917 18.6944 33.161 17.6465 32.4989 17.0286C31.8367 16.4104 30.7999 16.1017 29.3878 16.1017H26.5086V26.2626ZM46.9296 22.5228H39.7146L38.5563 27.6529H37.1659L42.2298 4.45138H44.4473L49.6104 27.6529H48.0887L46.9296 22.5228ZM43.2889 6.20571L39.9459 21.1985H46.6984L43.2889 6.20571ZM56.7605 4.28597C58.4373 4.28597 59.6777 4.80976 60.4832 5.85795C61.2888 6.90628 61.6916 8.31256 61.6916 10.078V10.5744H60.2349V9.97862C60.2349 7.11018 59.0879 5.67613 56.7933 5.67613C54.4983 5.67613 53.351 7.09935 53.351 9.94544C53.351 10.6959 53.5055 11.3907 53.8142 12.0309C54.1232 12.6707 54.5261 13.2278 55.0225 13.7023C55.5189 14.1768 56.0594 14.6288 56.6441 15.0593C57.2288 15.4894 57.8191 15.9306 58.4149 16.383C59.0108 16.8356 59.5572 17.3153 60.0536 17.823C60.55 18.33 60.9525 18.9483 61.2612 19.6763C61.5702 20.4043 61.7251 21.1986 61.7251 22.0593C61.7251 23.8247 61.316 25.231 60.4997 26.2793C59.6834 27.3275 58.4257 27.8511 56.7269 27.8511C55.0277 27.8511 53.7701 27.3275 52.9535 26.2793C52.1372 25.231 51.7294 23.8247 51.7294 22.0593V20.8679H53.1854V22.1587C53.1854 25.0052 54.3552 26.428 56.6941 26.428C59.0331 26.428 60.202 25.0052 60.202 22.1587C60.202 21.4084 60.0475 20.7187 59.7388 20.0898C59.4297 19.4612 59.0269 18.9152 58.5305 18.4516C58.0341 17.9884 57.4936 17.5357 56.9089 17.0944C56.3244 16.6532 55.7335 16.2066 55.1382 15.7541C54.5424 15.3017 53.9963 14.8218 53.4995 14.3143C53.0031 13.8071 52.6006 13.189 52.2918 12.461C51.9827 11.733 51.8286 10.9274 51.8286 10.045C51.8286 8.25748 52.2365 6.85651 53.0527 5.84135C53.869 4.8262 55.1055 4.3079 56.7605 4.28597ZM70.6937 6.9999V27.6529H69.3041V4.48457H71.2897L78.2407 24.045V4.48457H79.6303V27.6529H77.9423L70.6937 6.9999ZM83.7677 15.2081H90.0892V16.598H83.7677V26.2626H91.3803V27.6529H82.2446V4.48457H91.3803V5.87454H83.7677V15.2081ZM95.3186 4.48457V22.0593C95.3186 24.9941 96.4772 26.4612 98.7937 26.4612C101.111 26.4612 102.27 24.9941 102.27 22.0593V4.48457H103.693V21.9933C103.693 23.7584 103.29 25.1759 102.484 26.2461C101.679 27.3164 100.438 27.8511 98.7609 27.8511C97.0842 27.8511 95.8372 27.3164 95.021 26.2461C94.2048 25.1759 93.7962 23.7584 93.7962 21.9933V4.48457H95.3186ZM107.829 15.2081H114.152V16.598H107.829V26.2626H115.442V27.6529H106.307V4.48457H115.442V5.87454H107.829V15.2081ZM117.924 4.48457H122.79C124.489 4.48457 125.703 4.89266 126.43 5.70931C127.159 6.52553 127.522 7.76109 127.522 9.41603V10.7398C127.522 12.0641 127.297 13.0953 126.844 13.8345C126.392 14.5737 125.603 15.0647 124.478 15.3075C126.795 15.7708 127.953 17.4256 127.953 20.2721V22.2907C127.953 25.8653 126.265 27.6529 122.889 27.6529H117.924V4.48457ZM119.447 14.7117H122.028C123.441 14.7117 124.456 14.4524 125.074 13.9341C125.691 13.4153 126 12.4498 126 11.0376V9.54861C126 8.29066 125.757 7.36409 125.272 6.7683C124.787 6.17251 123.948 5.87454 122.757 5.87454H119.447V14.7117ZM119.447 26.2626H122.889C125.25 26.2626 126.43 24.9276 126.43 22.258V20.1727C126.43 18.6944 126.1 17.6465 125.438 17.0286C124.776 16.4104 123.739 16.1017 122.327 16.1017H119.447V26.2626ZM130.336 21.9933V10.144C130.336 8.37888 130.761 6.96139 131.611 5.89114C132.46 4.82088 133.723 4.28597 135.4 4.28597C137.121 4.28597 138.407 4.81539 139.256 5.87454C140.105 6.93355 140.53 8.35695 140.53 10.144V21.9933C140.53 23.7803 140.105 25.2036 139.256 26.2626C138.407 27.3217 137.121 27.8511 135.4 27.8511C133.723 27.8511 132.46 27.3164 131.611 26.2461C130.761 25.1759 130.336 23.7584 130.336 21.9933ZM131.858 10.045V22.0925C131.858 23.4385 132.145 24.5031 132.719 25.2865C133.293 26.0696 134.186 26.4612 135.4 26.4612C136.635 26.4612 137.546 26.0696 138.131 25.2865C138.716 24.5031 139.008 23.4385 139.008 22.0925V10.045C139.008 8.69877 138.716 7.63435 138.131 6.85074C137.546 6.0677 136.635 5.67613 135.4 5.67613C134.186 5.67613 133.293 6.0677 132.719 6.85074C132.145 7.63435 131.858 8.69877 131.858 10.045ZM142.947 21.9933V10.144C142.947 8.37888 143.371 6.96139 144.221 5.89114C145.07 4.82088 146.333 4.28597 148.01 4.28597C149.731 4.28597 151.017 4.81539 151.866 5.87454C152.716 6.93355 153.14 8.35695 153.14 10.144V21.9933C153.14 23.7803 152.716 25.2036 151.866 26.2626C151.017 27.3217 149.731 27.8511 148.01 27.8511C146.333 27.8511 145.07 27.3164 144.221 26.2461C143.371 25.1759 142.947 23.7584 142.947 21.9933ZM144.468 10.045V22.0925C144.468 23.4385 144.755 24.5031 145.329 25.2865C145.903 26.0696 146.796 26.4612 148.01 26.4612C149.245 26.4612 150.156 26.0696 150.741 25.2865C151.326 24.5031 151.618 23.4385 151.618 22.0925V10.045C151.618 8.69877 151.326 7.63435 150.741 6.85074C150.156 6.0677 149.245 5.67613 148.01 5.67613C146.796 5.67613 145.903 6.0677 145.329 6.85074C144.755 7.63435 144.468 8.69877 144.468 10.045ZM165.155 27.6529L158.766 16.7635L157.178 19.279V27.6529H155.655V4.48457H157.178V16.7306L164.724 4.48457H166.313L159.694 15.2744L166.743 27.6529H165.155ZM180.015 27.6529H178.493V5.87454H173.76V4.48457H184.749V5.87454H180.015V27.6529ZM186.9 21.9933V10.144C186.9 8.37888 187.325 6.96139 188.174 5.89114C189.023 4.82088 190.286 4.28597 191.963 4.28597C193.684 4.28597 194.97 4.81539 195.819 5.87454C196.669 6.93355 197.094 8.35695 197.094 10.144V21.9933C197.094 23.7803 196.669 25.2036 195.819 26.2626C194.97 27.3217 193.684 27.8511 191.963 27.8511C190.286 27.8511 189.023 27.3164 188.174 26.2461C187.325 25.1759 186.9 23.7584 186.9 21.9933ZM188.422 10.045V22.0925C188.422 23.4385 188.708 24.5031 189.282 25.2865C189.856 26.0696 190.75 26.4612 191.963 26.4612C193.199 26.4612 194.109 26.0696 194.694 25.2865C195.279 24.5031 195.571 23.4385 195.571 22.0925V10.045C195.571 8.69877 195.279 7.63435 194.694 6.85074C194.109 6.0677 193.199 5.67613 191.963 5.67613C190.75 5.67613 189.856 6.0677 189.282 6.85074C188.708 7.63435 188.422 8.69877 188.422 10.045ZM208.347 16.7635H201.132V27.6529H199.608V4.48457H201.132V15.3738H208.347V4.48457H209.902V27.6529H208.347V16.7635ZM222.049 27.6529L215.662 16.7635L214.073 19.279V27.6529H212.55V4.48457H214.073V16.7306L221.619 4.48457H223.208L216.588 15.2744L223.638 27.6529H222.049ZM234.858 7.16531L231.35 16.896L227.576 27.6529H225.921V4.48457H227.312V24.31L229.992 16.6644L234.427 4.48457H236.248V27.6529H234.858V7.16531ZM246.508 0.182068H247.534C247.512 1.0645 247.192 1.75386 246.574 2.25026C245.957 2.74665 245.162 2.99485 244.191 2.99485C243.22 2.99485 242.432 2.74665 241.825 2.25026C241.219 1.75386 240.904 1.0645 240.882 0.182068H241.941C241.963 0.799784 242.184 1.26289 242.603 1.57204C243.022 1.88075 243.551 2.03525 244.191 2.03525C245.67 2.03525 246.442 1.41765 246.508 0.182068ZM247.799 7.16531L240.518 27.6529H238.863V4.48457H240.253V24.31L243.166 16.0686L247.369 4.48457H249.189V27.6529H247.799V7.16531Z" fill="black"/>
</svg>
