<svg width="250" height="21" viewBox="0 0 250 21" fill="none" xmlns="http://www.w3.org/2000/svg">
<path fill-rule="evenodd" clip-rule="evenodd" d="M7.47027 5.58827H3.88025V9.39277H7.12269V12.7954H3.88025V20.1636H0.34375V2.29266H7.47027V5.58827ZM17.4374 8.18729V16.2788C17.4374 17.2072 17.2504 17.9667 16.875 18.5559C16.5001 19.1454 15.9773 19.6009 15.3077 19.9223C14.6378 20.2439 13.9369 20.4048 13.2043 20.4048C12.4721 20.4048 11.7661 20.2393 11.0874 19.9091C10.4086 19.5785 9.89074 19.1188 9.53364 18.5291C9.21207 17.9934 9.05117 17.306 9.05117 16.4661V8.18729H12.4007V15.5554C12.4007 16.7164 12.6772 17.2969 13.2307 17.2969C13.374 17.2969 13.4944 17.2703 13.5926 17.2162C13.6905 17.1636 13.7713 17.0776 13.8338 16.9622C13.8967 16.8452 13.9452 16.7296 13.9816 16.6135C14.0166 16.498 14.0399 16.3544 14.0487 16.1846C14.0633 16.0151 14.0663 15.8768 14.0751 15.7695C14.0897 15.6628 14.0897 15.5285 14.0751 15.3677C14.0604 15.2069 14.0601 15.1001 14.0601 15.0462V8.18729H17.4374ZM24.6182 10.9737H23.2521V20.1636H19.9026V10.9737H18.7507V8.18729H19.9026V4.78462H23.2521V8.18729H24.6182V10.9737ZM34.1292 8.18729V16.2788C34.1292 17.2072 33.9422 17.9667 33.5668 18.5559C33.1917 19.1454 32.6691 19.6009 31.9995 19.9223C31.3294 20.2439 30.6288 20.4048 29.8961 20.4048C29.1641 20.4048 28.4586 20.2393 27.78 19.9091C27.1013 19.5785 26.5834 19.1188 26.2262 18.5291C25.9046 17.9934 25.7437 17.306 25.7437 16.4661V8.18729H29.0925V15.5554C29.0925 16.7164 29.3697 17.2969 29.9233 17.2969C30.0665 17.2969 30.187 17.2703 30.2851 17.2162C30.3831 17.1636 30.4631 17.0776 30.5257 16.9622C30.5885 16.8452 30.6385 16.7296 30.6734 16.6135C30.7085 16.498 30.7317 16.3544 30.7405 16.1846C30.7551 16.0151 30.7581 15.8768 30.7669 15.7695C30.7815 15.6628 30.7815 15.5285 30.7669 15.3677C30.7523 15.2069 30.7526 15.1001 30.7526 15.0462V8.18729H34.1292ZM42.382 7.7587V11.0004C42.1677 10.9654 42.0068 10.9465 41.8995 10.9465C40.9706 10.9465 40.3592 11.1784 40.0646 11.6428C39.7696 12.1073 39.6228 12.8308 39.6228 13.8132V20.1628H36.2733V8.18658H39.6228V9.66042C40.0334 9.07077 40.4348 8.63293 40.8275 8.34717C41.2207 8.06126 41.7389 7.86484 42.382 7.75799V7.7587ZM52.1878 20.1636H48.8391V18.7971C48.2498 19.869 47.5085 20.4048 46.6151 20.4048C45.9721 20.4048 45.4188 20.1813 44.9543 19.7346C44.4897 19.2884 44.1549 18.7122 43.9493 18.007C43.7438 17.3013 43.597 16.6315 43.5076 15.9976C43.4184 15.3632 43.3727 14.7425 43.3727 14.1355C43.3727 13.4925 43.4136 12.8669 43.4926 12.2594C43.573 11.6521 43.716 11.0003 43.9215 10.3038C44.1266 9.6069 44.4576 9.04431 44.9129 8.61589C45.3682 8.18702 45.9264 7.97282 46.5873 7.97282C47.5697 7.97282 48.3196 8.53577 48.8376 9.66113V8.18729H52.1871L52.1878 20.1636ZM47.9548 17.404C48.7051 17.404 49.0803 16.3323 49.0803 14.189C49.0803 12.0455 48.6966 10.9737 47.9283 10.9737C47.1424 10.9737 46.7493 12.0455 46.7493 14.189C46.7493 16.3323 47.1513 17.404 47.9548 17.404ZM60.8967 2.29266H65.1833C66.4873 2.29266 67.4873 2.489 68.1838 2.88219C68.9698 3.32845 69.5726 3.9805 69.9924 4.83779C70.412 5.69508 70.6226 6.61535 70.6226 7.59776C70.6226 9.41963 70.0507 10.7818 68.9075 11.6838C67.7643 12.5858 66.272 12.9652 64.4325 12.8222V20.1636H60.8967V2.29266ZM64.4325 9.84813H64.6473C65.4872 9.84813 66.1074 9.67415 66.5094 9.32568C66.9114 8.97765 67.1125 8.39262 67.1125 7.571C67.1125 5.96327 66.4247 5.15933 65.0491 5.15933H64.4325V9.84813ZM80.2136 5.56151H77.4543V20.1636H73.9178V5.56151H71.1579V2.29266H80.2136V5.56151ZM96.5307 16.0911V19.7885C95.8521 20.1634 95.0394 20.3513 94.0926 20.3513C92.3425 20.3513 90.9314 19.815 89.8596 18.7436C88.2518 17.1359 87.4479 14.7245 87.4479 11.5097C87.4479 8.16924 88.3057 5.63317 90.0201 3.90032C91.2173 2.70377 92.6461 2.10495 94.3075 2.10495C95.0575 2.10495 95.7981 2.27478 96.5307 2.61419V6.2581C95.9589 5.74007 95.3076 5.48122 94.5751 5.48122C93.8068 5.48122 93.1545 5.74915 92.6188 6.28487C91.6364 7.26728 91.145 8.97291 91.145 11.4023C91.145 13.5991 91.5652 15.1621 92.4047 16.0911C92.9047 16.6629 93.5744 16.9482 94.4138 16.9482C95.1998 16.9482 95.9055 16.6629 96.5307 16.0911ZM106.98 11.9515C107.124 12.6393 107.194 13.3851 107.194 14.189C107.194 14.9928 107.123 15.7384 106.98 16.4258C106.837 17.1135 106.605 17.77 106.284 18.3953C105.962 19.0205 105.493 19.5119 104.877 19.8692C104.261 20.2262 103.533 20.4048 102.694 20.4048C101.872 20.4048 101.153 20.2215 100.536 19.8552C99.9199 19.4894 99.4472 18.9934 99.1165 18.3685C98.7863 17.7434 98.5408 17.0828 98.38 16.3858C98.2192 15.6893 98.1387 14.9571 98.1387 14.189C98.1387 13.4207 98.2192 12.6884 98.38 11.9914C98.5408 11.2949 98.7863 10.6342 99.1165 10.0091C99.4472 9.38419 99.9199 8.88833 100.536 8.52203C101.153 8.15617 101.872 7.97282 102.694 7.97282C103.551 7.97282 104.284 8.15138 104.891 8.50847C105.498 8.86571 105.962 9.35714 106.284 9.98231C106.605 10.6076 106.837 11.2642 106.98 11.9515ZM102.694 17.404C103.444 17.404 103.819 16.3323 103.819 14.189C103.819 12.0455 103.444 10.9737 102.694 10.9737C101.908 10.9737 101.515 12.0455 101.515 14.189C101.515 16.3323 101.908 17.404 102.694 17.404ZM117.403 20.1636H114.053V12.8222C114.053 11.822 113.785 11.322 113.25 11.322C113.018 11.322 112.835 11.3806 112.701 11.4961C112.566 11.6116 112.477 11.7999 112.432 12.0589C112.387 12.3178 112.361 12.5052 112.352 12.6213C112.337 12.7368 112.338 12.9385 112.338 13.2244V20.1636H108.989V8.18729H112.338V10.063C113.052 8.66952 113.999 7.97282 115.177 7.97282C115.66 7.97282 116.061 8.0752 116.383 8.28115C116.704 8.48623 116.932 8.7814 117.067 9.16509C117.201 9.54908 117.29 9.91069 117.334 10.25C117.38 10.5894 117.401 11.0092 117.401 11.5097L117.403 20.1636ZM128.012 20.1636H124.664V18.7971C124.074 19.869 123.333 20.4048 122.44 20.4048C121.797 20.4048 121.243 20.1813 120.779 19.7346C120.314 19.2884 119.979 18.7122 119.774 18.007C119.568 17.3013 119.421 16.6315 119.332 15.9976C119.243 15.3632 119.197 14.7425 119.197 14.1355C119.197 13.4925 119.238 12.8669 119.317 12.2594C119.397 11.6521 119.54 11.0003 119.746 10.3038C119.951 9.6069 120.282 9.04431 120.737 8.61589C121.193 8.18702 121.751 7.97282 122.412 7.97282C123.394 7.97282 124.144 8.53577 124.662 9.66113V0.63147H128.011L128.012 20.1636ZM123.779 17.404C124.53 17.404 124.905 16.3323 124.905 14.189C124.905 12.0455 124.521 10.9737 123.753 10.9737C122.967 10.9737 122.574 12.0455 122.574 14.189C122.574 16.3323 122.976 17.404 123.779 17.404ZM136.721 2.29266H140.498C142.141 2.29266 143.392 2.71257 144.249 3.55202C145.232 4.49877 145.723 5.78449 145.723 7.41005C145.723 8.44581 145.446 9.29471 144.893 9.95554C144.482 10.4379 144.008 10.7861 143.472 11.0004C144.294 11.3042 144.937 11.831 145.401 12.5813C145.812 13.2778 146.018 14.1172 146.018 15.1001C146.018 16.5644 145.571 17.7436 144.678 18.6366C143.661 19.6545 142.257 20.1636 140.471 20.1636H136.721V2.29266ZM140.257 5.21286V9.63401C140.918 9.59893 141.436 9.39278 141.811 9.01771C142.186 8.64235 142.374 8.08905 142.374 7.35688C142.374 6.65994 142.186 6.12415 141.811 5.74922C141.454 5.39198 140.936 5.21286 140.257 5.21286ZM140.257 12.3669V17.1092C140.936 17.1092 141.472 16.9218 141.865 16.5464C142.312 16.1358 142.535 15.5552 142.535 14.8049C142.535 13.9833 142.302 13.3581 141.838 12.9296C141.409 12.5543 140.882 12.3669 140.257 12.3669ZM156.548 11.9515C156.691 12.6393 156.762 13.3851 156.762 14.189C156.762 14.9928 156.69 15.7384 156.548 16.4258C156.404 17.1135 156.172 17.77 155.851 18.3953C155.529 19.0205 155.06 19.5119 154.444 19.8692C153.828 20.2262 153.1 20.4048 152.261 20.4048C151.439 20.4048 150.72 20.2215 150.103 19.8552C149.487 19.4894 149.014 18.9934 148.684 18.3685C148.354 17.7434 148.108 17.0828 147.947 16.3858C147.787 15.6893 147.706 14.9571 147.706 14.189C147.706 13.4207 147.787 12.6884 147.947 11.9914C148.108 11.2949 148.354 10.6342 148.684 10.0091C149.014 9.38419 149.487 8.88833 150.103 8.52203C150.72 8.15617 151.439 7.97282 152.261 7.97282C153.118 7.97282 153.851 8.15138 154.458 8.50847C155.065 8.86571 155.529 9.35714 155.851 9.98231C156.172 10.6076 156.405 11.2642 156.548 11.9515ZM152.261 17.404C153.011 17.404 153.386 16.3323 153.386 14.189C153.386 12.0455 153.011 10.9737 152.261 10.9737C151.475 10.9737 151.082 12.0455 151.082 14.189C151.082 16.3323 151.475 17.404 152.261 17.404ZM161.906 20.1636H158.557V0.63147H161.906V20.1636ZM172.516 20.1636H169.167V18.7971C168.578 19.869 167.836 20.4048 166.943 20.4048C166.3 20.4048 165.746 20.1813 165.281 19.7346C164.817 19.2884 164.483 18.7122 164.277 18.007C164.072 17.3013 163.924 16.6315 163.835 15.9976C163.746 15.3632 163.702 14.7425 163.702 14.1355C163.702 13.4925 163.743 12.8669 163.822 12.2594C163.902 11.6521 164.045 11.0003 164.251 10.3038C164.456 9.6069 164.786 9.04431 165.242 8.61589C165.697 8.18702 166.256 7.97282 166.917 7.97282C167.899 7.97282 168.649 8.53577 169.167 9.66113V0.63147H172.516V20.1636ZM168.283 17.404C169.033 17.404 169.408 16.3323 169.408 14.189C169.408 12.0455 169.024 10.9737 168.256 10.9737C167.47 10.9737 167.077 12.0455 167.077 14.189C167.077 16.3323 167.479 17.404 168.283 17.404ZM187.681 10.9737H185.538V20.1636H182.188V10.9737H180.045V8.18729H187.681V10.9737ZM196.04 9.01771C197.13 10.0715 197.674 11.7953 197.674 14.189C197.674 16.5825 197.13 18.3062 196.04 19.3599C195.307 20.0564 194.343 20.4048 193.147 20.4048C191.95 20.4048 190.986 20.0564 190.253 19.3599C189.164 18.3062 188.619 16.5825 188.619 14.189C188.619 11.7953 189.164 10.0715 190.253 9.01771C190.986 8.32121 191.95 7.97282 193.147 7.97282C194.343 7.97282 195.307 8.32121 196.04 9.01771ZM193.763 11.322C193.602 11.0894 193.397 10.9737 193.147 10.9737C192.897 10.9737 192.691 11.089 192.531 11.322C192.173 11.8398 191.995 12.7955 191.995 14.189C191.995 15.582 192.173 16.5378 192.531 17.0557C192.691 17.2878 192.897 17.404 193.147 17.404C193.397 17.404 193.602 17.2872 193.763 17.0557C194.12 16.5378 194.299 15.582 194.299 14.189C194.299 12.7955 194.12 11.8398 193.763 11.322ZM208.526 8.18729V20.1636H205.176V10.9737H203.516V14.5637C203.516 17.1003 203.114 18.7702 202.31 19.574C201.757 20.128 200.943 20.4048 199.872 20.4048C199.39 20.4048 198.934 20.333 198.505 20.1903V17.3504C198.684 17.4761 198.907 17.5378 199.175 17.5378C199.478 17.5378 199.729 17.44 199.926 17.2434C200.283 16.8857 200.461 16.0375 200.461 14.6979V8.18729H208.526ZM216.59 16.9218V19.9759C215.947 20.2618 215.314 20.4048 214.688 20.4048C213.92 20.4048 213.241 20.2171 212.652 19.842C212.062 19.4671 211.607 18.9756 211.286 18.3685C210.964 17.7612 210.723 17.1135 210.562 16.4258C210.401 15.7384 210.321 15.0372 210.321 14.3225C210.321 13.251 210.45 12.2597 210.71 11.3491C210.969 10.438 211.46 9.64329 212.183 8.96418C212.906 8.28551 213.813 7.94606 214.902 7.94606C215.456 7.94606 216.019 8.06136 216.59 8.29435V11.2417C216.323 10.9736 216.01 10.8398 215.653 10.8398C215.153 10.8398 214.746 11.0362 214.434 11.4294C214.121 11.8221 213.92 12.2372 213.831 12.6748C213.742 13.1128 213.698 13.5815 213.698 14.0816C213.698 16.2072 214.332 17.2698 215.6 17.2698C215.94 17.2698 216.269 17.1544 216.591 16.9218H216.59ZM225.272 10.9737H223.128V20.1636H219.779V10.9737H217.635V8.18729H225.272V10.9737ZM239.07 20.1636H235.721V8.18729H239.07V20.1636ZM226.558 8.18729H229.907V12.5813H230.657C232.05 12.5813 233.113 12.9476 233.845 13.6797C234.542 14.3406 234.89 15.2602 234.89 16.4394C234.89 17.6182 234.542 18.5381 233.845 19.199C233.167 19.842 232.148 20.1636 230.791 20.1636H226.558V8.18729ZM229.907 17.8061H230.068C230.586 17.8061 230.969 17.708 231.219 17.511C231.523 17.2789 231.675 16.9041 231.675 16.3858C231.675 15.9396 231.551 15.5908 231.3 15.3406C231.032 15.0729 230.586 14.9391 229.96 14.9391H229.908L229.907 17.8061ZM241.214 8.18729H244.375V12.4475C244.375 13.376 244.294 14.4208 244.134 15.5818C244.366 14.7424 244.652 13.9029 244.991 13.0634L246.947 8.18729H249.921V20.1636H246.759V15.716C246.759 14.93 246.831 13.9121 246.973 12.6616C246.723 13.7157 246.411 14.7068 246.036 15.6357L244.187 20.1636H241.214V8.18729ZM247.108 2.96284L249.492 3.73973C249.296 4.61471 248.84 5.31148 248.126 5.82951C247.501 6.27577 246.679 6.49898 245.661 6.49898C244.643 6.49898 243.822 6.27577 243.196 5.82951C242.482 5.31148 242.026 4.61471 241.83 3.73973L244.214 2.96284C244.249 3.44506 244.402 3.80217 244.67 4.03414C244.884 4.24872 245.214 4.35567 245.661 4.35567C246.108 4.35567 246.438 4.24901 246.652 4.03414C246.92 3.80217 247.072 3.44506 247.108 2.96284Z" fill="black"/>
</svg>
