<svg width="242" height="19" viewBox="0 0 242 19" fill="none" xmlns="http://www.w3.org/2000/svg">
<path fill-rule="evenodd" clip-rule="evenodd" d="M15.1202 6.1406C15.1202 6.68933 14.9347 7.9324 14.5635 9.86945C14.128 12.0646 13.7529 13.5782 13.4379 14.4094C13.1231 15.241 12.6108 16.0117 11.9006 16.7219C10.7221 17.9003 9.08374 18.4894 6.98517 18.4894H0.641602L4.10387 1.24946H9.89073C11.505 1.24946 12.7799 1.67764 13.7163 2.53273C14.6528 3.38842 15.1202 4.59105 15.1202 6.1406ZM11.0527 6.52815C11.0527 5.36595 10.4391 4.78453 9.2127 4.78453H7.42054L5.38643 14.954H7.15432C7.9777 14.954 8.64745 14.696 9.16416 14.1793C9.43838 13.905 9.66446 13.4975 9.8422 12.9567C10.0199 12.416 10.2536 11.3868 10.5445 9.86945C10.8835 8.12636 11.0527 7.01212 11.0527 6.52815ZM23.0868 1.24946L19.6245 18.4894H15.6055L19.0678 1.24946H23.0868ZM39.2376 1.24946L35.7753 18.4894H32.4337L28.7773 9.53043L26.9615 18.4894H22.9419L26.4041 1.24946H29.7458L33.4264 10.2327L35.2179 1.24946H39.2376ZM58.7051 6.04389C58.7051 7.6582 58.1231 9.07053 56.9607 10.2813C55.7985 11.4916 54.201 12.0966 52.1674 12.0966H49.5038L48.2205 18.4894H44.2008L47.6631 1.24946H53.9346C55.3549 1.24946 56.505 1.67764 57.3847 2.53273C58.2643 3.38842 58.7051 4.55895 58.7051 6.04389ZM54.6611 6.40682C54.6611 5.34153 54.1848 4.80915 53.2323 4.80915H50.9805L50.2303 8.53764H52.3365C53.1275 8.53764 53.7126 8.29569 54.0916 7.81143C54.4712 7.32702 54.6611 6.85893 54.6611 6.40682ZM70.2545 6.55135L66.9614 9.48118L66.8165 9.31167C66.7201 9.19912 66.6349 9.11006 66.5624 9.04545C66.4894 8.98114 66.3768 8.91658 66.2234 8.85168C66.0701 8.78736 65.9125 8.75533 65.7509 8.75533C65.2988 8.75533 64.8793 8.92891 64.4919 9.27563C64.1046 9.62293 63.8548 10.0948 63.7418 10.6924L62.1916 18.4891H58.4146L61.0054 5.46221H64.6375L64.4191 6.57633C65.1617 5.73687 66.1954 5.31697 67.5188 5.31697C68.665 5.31697 69.5767 5.72848 70.2545 6.55171V6.55135ZM80.6899 9.62678C80.6899 10.3046 80.6012 11.0873 80.4244 11.9753C80.1496 13.3152 79.8511 14.3563 79.5279 15.0989C79.2052 15.8414 78.7527 16.5031 78.1719 17.0845C77.1389 18.1175 75.759 18.634 74.0316 18.634C72.8047 18.634 71.7438 18.2584 70.8476 17.5077C69.9518 16.7573 69.5037 15.6961 69.5037 14.3241C69.5037 13.6459 69.5926 12.8631 69.7699 11.9753C70.0441 10.6356 70.3429 9.59422 70.6656 8.85168C70.9884 8.10928 71.4404 7.44734 72.0217 6.86646C73.0547 5.83303 74.4354 5.31661 76.1627 5.31661C77.3892 5.31661 78.4508 5.69207 79.3466 6.44251C80.2424 7.19324 80.6899 8.25453 80.6899 9.62678ZM76.9371 10.0864C76.9371 9.18235 76.55 8.73035 75.7752 8.73035C75.2908 8.73035 74.9037 8.87672 74.6132 9.16643C74.1774 9.58609 73.8138 10.5225 73.5234 11.9753C73.3456 12.8631 73.2565 13.4925 73.2565 13.8638C73.2565 14.7679 73.6444 15.2199 74.4191 15.2199C74.9035 15.2199 75.2906 15.0739 75.581 14.7841C76.0171 14.3643 76.3805 13.4279 76.6709 11.9753C76.8482 11.0873 76.9371 10.4577 76.9371 10.0864ZM101.441 5.29234C101.441 7.2617 100.577 8.75491 98.8498 9.77167C99.3342 10.1592 99.6973 10.5627 99.9397 10.9825C100.182 11.4022 100.303 11.9671 100.303 12.6772C100.303 14.4205 99.734 15.825 98.5957 16.8903C97.458 17.9556 96.0332 18.4884 94.322 18.4884H86.8893L90.3515 1.24875H96.865C98.2853 1.24875 99.4027 1.61573 100.218 2.35038C101.033 3.08503 101.441 4.06539 101.441 5.29234ZM96.2355 12.871C96.2355 12.4997 96.1303 12.1853 95.9207 11.9268C95.7105 11.6686 95.3799 11.5392 94.9279 11.5392H92.3128L91.6341 14.9294H94.2014C94.8468 14.9294 95.3471 14.7315 95.7023 14.3363C96.0574 13.9405 96.2355 13.4523 96.2355 12.871ZM97.3489 6.09136C97.3489 5.23567 96.9375 4.80844 96.1141 4.80844H93.6682L93.0144 7.98022H95.3876C96.082 7.98022 96.5819 7.77397 96.8885 7.3625C97.1956 6.95073 97.3489 6.52724 97.3489 6.09136ZM108.753 1.24875L106.138 14.3727C106.106 14.5662 106.091 14.6872 106.091 14.7356C106.091 15.1069 106.325 15.2923 106.793 15.2923H108.172L107.519 18.4884H105.654C104.605 18.4884 103.778 18.2018 103.173 17.6287C102.568 17.0557 102.265 16.3336 102.265 15.4618C102.265 15.0745 102.297 14.7195 102.361 14.3966L104.976 1.24875H108.753ZM121.175 9.06972C121.175 9.39246 121.127 9.79614 121.029 10.2806L119.382 18.4884H115.751L115.968 17.4235C115.177 18.2144 114.233 18.6097 113.136 18.6097C112.005 18.6097 111.117 18.2543 110.471 17.5441C109.826 16.834 109.504 16.0027 109.504 15.0504C109.504 13.7104 109.891 12.6693 110.666 11.9268C111.553 11.0554 112.821 10.6196 114.468 10.6196H117.179L117.275 10.1592C117.324 9.96569 117.349 9.7799 117.349 9.60216C117.349 8.84353 116.832 8.46448 115.799 8.46448C114.781 8.46448 113.975 8.81135 113.378 9.50581L111.489 6.98743C112.668 5.87376 114.306 5.31661 116.405 5.31661C117.728 5.31661 118.854 5.62341 119.782 6.2366C120.71 6.85022 121.174 7.79438 121.174 9.06972H121.175ZM116.671 13.1372H114.831C114.315 13.1372 113.915 13.2821 113.632 13.5733C113.35 13.8638 113.209 14.2108 113.209 14.6143C113.209 14.8886 113.31 15.1188 113.511 15.3044C113.713 15.4901 113.992 15.5828 114.347 15.5828C114.977 15.5828 115.517 15.3571 115.969 14.9051C116.276 14.5985 116.486 14.1303 116.599 13.5009L116.671 13.1372ZM133.258 7.05988L130.4 9.57825C129.964 9.01315 129.505 8.73035 129.02 8.73035C128.52 8.73035 128.084 8.92417 127.713 9.31167C127.164 9.89299 126.777 10.7806 126.551 11.9753C126.438 12.5727 126.381 13.0811 126.381 13.5009C126.381 14.647 126.817 15.2199 127.689 15.2199C128.302 15.2199 128.899 14.9294 129.481 14.3481L131.563 17.0845C130.4 18.1175 128.971 18.634 127.277 18.634C126.502 18.634 125.776 18.4879 125.098 18.1982C124.42 17.9074 123.83 17.399 123.33 16.6727C122.83 15.9463 122.58 15.0581 122.58 14.009C122.58 13.3473 122.644 12.6693 122.773 11.9753C123.58 7.53638 125.784 5.31661 129.384 5.31661C131.014 5.31661 132.305 5.89768 133.258 7.05988ZM147.107 5.46185L141.49 11.0792L144.904 18.4884H140.594L138.633 13.4277L137.543 14.3966L136.744 18.4884H132.966L136.404 1.24875H140.182L138.439 10.014L142.7 5.46185H147.107ZM162.967 5.46185L162.313 8.87594H159.069L157.132 18.4884H153.354L155.291 8.87594H152.046L152.7 5.46185H162.967ZM174.08 9.62678C174.08 10.3046 173.991 11.0873 173.814 11.9753C173.539 13.3152 173.242 14.3563 172.919 15.0989C172.596 15.8414 172.143 16.5031 171.562 17.0845C170.53 18.1175 169.149 18.634 167.422 18.634C166.195 18.634 165.134 18.2584 164.238 17.5077C163.342 16.7573 162.894 15.6961 162.894 14.3241C162.894 13.6459 162.983 12.8631 163.161 11.9753C163.435 10.6356 163.734 9.59422 164.056 8.85168C164.379 8.10928 164.831 7.44734 165.412 6.86646C166.445 5.83303 167.825 5.31661 169.553 5.31661C170.779 5.31661 171.841 5.69207 172.737 6.44251C173.632 7.19324 174.08 8.25453 174.08 9.62678ZM170.328 10.0864C170.328 9.18235 169.941 8.73035 169.166 8.73035C168.681 8.73035 168.294 8.87672 168.003 9.16643C167.567 9.58609 167.204 10.5225 166.914 11.9753C166.736 12.8631 166.647 13.4925 166.647 13.8638C166.647 14.7679 167.035 15.2199 167.81 15.2199C168.294 15.2199 168.681 15.0739 168.972 14.7841C169.408 14.3643 169.771 13.4279 170.062 11.9753C170.239 11.0873 170.328 10.4577 170.328 10.0864ZM187.81 5.46185L185.219 18.4884H181.441L183.33 8.87594H181.223L180.715 11.3697C180.15 14.0978 179.452 15.9664 178.62 16.9753C177.789 17.9843 176.647 18.4884 175.194 18.4884H173.427L174.032 15.3894H174.419C174.678 15.3894 174.875 15.3745 175.013 15.3526C175.15 15.3278 175.328 15.2475 175.546 15.1107C175.764 14.9733 175.949 14.7636 176.102 14.4815C176.256 14.1988 176.421 13.7869 176.599 13.2461C176.777 12.7054 176.946 12.0316 177.107 11.2244L178.269 5.4615L187.81 5.46185ZM199.311 7.05988L196.454 9.57825C196.018 9.01315 195.557 8.73035 195.073 8.73035C194.573 8.73035 194.138 8.92417 193.766 9.31167C193.217 9.89299 192.83 10.7806 192.604 11.9753C192.491 12.5727 192.434 13.0811 192.434 13.5009C192.434 14.647 192.87 15.2199 193.742 15.2199C194.356 15.2199 194.952 14.9294 195.534 14.3481L197.616 17.0845C196.454 18.1175 195.025 18.634 193.33 18.634C192.556 18.634 191.829 18.4879 191.151 18.1982C190.473 17.9074 189.884 17.399 189.383 16.6727C188.883 15.9463 188.633 15.0581 188.633 14.009C188.633 13.3473 188.697 12.6693 188.827 11.9753C189.634 7.53638 191.837 5.31661 195.437 5.31661C197.068 5.31661 198.359 5.89768 199.311 7.05988ZM210.909 5.46185L210.256 8.87594H207.011L205.074 18.4884H201.296L203.233 8.87594H199.989L200.642 5.46185H210.909ZM221.442 13.6943C221.442 14.9696 220.981 16.0874 220.061 17.0477C219.141 18.0082 217.882 18.4884 216.284 18.4884H209.989L212.604 5.46185H216.381L215.486 9.91727H217.665C218.778 9.91727 219.686 10.2562 220.388 10.934C221.091 11.6123 221.442 12.5321 221.442 13.6943ZM217.737 14.0329C217.737 13.3066 217.414 12.9438 216.769 12.9438H214.88L214.372 15.4618H216.164C216.712 15.4618 217.112 15.3007 217.362 14.9776C217.612 14.6547 217.737 14.3401 217.737 14.0329ZM228.052 5.46185L225.437 18.4884H221.66L224.275 5.46185H228.052ZM241.587 5.46185L238.996 18.4884H235.219L236.478 12.193L232.095 18.4884H228.318L230.909 5.46185H234.686L233.451 11.7572L237.834 5.46185H241.587ZM240.909 0.909729C240.683 2.23345 240.191 3.15334 239.432 3.67005C238.674 4.18676 237.705 4.4448 236.527 4.4448C235.332 4.4448 234.437 4.18252 233.839 3.65792C233.242 3.13331 232.943 2.49163 232.943 1.73301C232.943 1.44257 232.968 1.16787 233.016 0.909729H235.703C235.687 1.05444 235.68 1.16806 235.68 1.24875C235.68 1.55541 235.781 1.78953 235.982 1.95105C236.184 2.11228 236.439 2.193 236.745 2.193C237.472 2.193 237.932 1.76526 238.126 0.909729H240.909Z" fill="black"/>
</svg>
