<svg width="252" height="24" viewBox="0 0 252 24" fill="none" xmlns="http://www.w3.org/2000/svg">
<path fill-rule="evenodd" clip-rule="evenodd" d="M0.548828 22.6784L10.698 0.824962H13.5057L16.4363 22.6784H14.1117L13.2667 16.3909H6.00738L3.14892 22.6784H0.548828ZM7.06083 14.1323H12.9619L12.2803 8.64843C12.0159 6.48146 11.8471 4.67042 11.7764 3.21076C11.3794 4.46198 10.79 5.94734 10.0064 7.66689L7.06083 14.1323ZM18.5418 22.6784L21.2639 6.83736H23.2424L22.6828 10.078C23.9752 7.69223 25.2775 6.50173 26.5797 6.50173C27.0223 6.50173 27.5659 6.69537 28.207 7.08199L27.297 9.57467C26.9154 9.23365 26.5088 9.06578 26.0865 9.06578C25.2778 9.06578 24.4688 9.59988 23.6649 10.6681C22.8611 11.7362 22.2249 13.6235 21.7621 16.3251L20.648 22.6784H18.5418ZM30.0027 3.87702L30.5273 0.824962H32.7548L32.2317 3.87702H30.0027ZM26.7731 22.6784L29.4946 6.83736H31.7228L29.0007 22.6784H26.7731ZM41.1539 20.71C40.3452 21.5594 39.5815 22.1545 38.8693 22.4955C38.1521 22.8414 37.4301 23.0141 36.6975 23.0141C35.5477 23.0141 34.5962 22.6024 33.8383 21.7832C33.0805 20.9591 32.6992 19.8399 32.6992 18.4209C32.6992 17.4087 32.9229 16.5286 33.3708 15.7757C33.8132 15.0229 34.4391 14.4476 35.2479 14.0458C36.0517 13.6438 37.2061 13.4102 38.7066 13.339C39.9731 13.2674 40.8432 13.186 41.311 13.1047C41.7841 13.0185 42.1865 12.8964 42.5221 12.7286C42.736 11.9808 42.8426 11.3753 42.8426 10.9022C42.8426 10.2459 42.5931 9.72204 42.0946 9.32504C41.5962 8.92819 40.8792 8.73015 39.9328 8.73015C38.0355 8.73015 36.8048 9.67613 36.24 11.5684L33.981 11.355C34.9474 8.11957 36.9775 6.50173 40.0705 6.50173C41.5965 6.50173 42.8019 6.89884 43.6969 7.69722C44.5924 8.49604 45.0402 9.50322 45.0402 10.7139C45.0402 11.543 44.9234 12.5199 44.684 13.634L43.819 17.5507C43.5443 18.7969 43.4072 19.8041 43.4072 20.5724C43.4072 21.1065 43.4939 21.8089 43.662 22.6784H41.388C41.2755 22.18 41.1995 21.5237 41.1539 20.71ZM42.1303 14.6512C41.5759 14.9159 40.6293 15.1193 39.3018 15.2618C37.9486 15.3992 37.0124 15.5772 36.509 15.796C36.0002 16.0148 35.604 16.3453 35.3242 16.7927C35.0392 17.2407 34.8967 17.7545 34.8967 18.3392C34.8967 19.143 35.1205 19.774 35.5733 20.2418C36.0257 20.7046 36.6263 20.9387 37.3791 20.9387C38.0963 20.9387 38.7833 20.72 39.4446 20.2825C40.1058 19.8453 40.6447 19.2143 41.0619 18.3902C41.4792 17.5661 41.8353 16.3197 42.1303 14.6512ZM46.1593 22.6784L49.9135 0.824962H52.1417L48.3875 22.6784H46.1593ZM59.2582 22.6784L62.9767 0.824962H65.3477L68.3132 9.0301C69.1983 11.4412 69.8899 13.4606 70.3937 15.0885C70.7447 16.2132 71.1268 17.6422 71.5435 19.3668C71.7678 17.4898 72.0414 15.5924 72.3572 13.6745L74.5804 0.824962H76.92L73.1658 22.6784H70.7955L66.3498 10.0677C65.5919 7.81942 65.0017 5.851 64.569 4.16215C64.4565 5.58629 64.2286 7.33091 63.8674 9.40141L61.5828 22.6784H59.2582ZM85.6553 20.71C84.8463 21.5594 84.0829 22.1545 83.3706 22.4955C82.6534 22.8414 81.9314 23.0141 81.1988 23.0141C80.049 23.0141 79.0973 22.6024 78.3396 21.7832C77.5817 20.9591 77.2005 19.8399 77.2005 18.4209C77.2005 17.4087 77.4241 16.5286 77.8721 15.7757C78.3146 15.0229 78.9403 14.4476 79.7492 14.0458C80.553 13.6438 81.7076 13.4102 83.2079 13.339C84.4746 13.2674 85.3444 13.186 85.8123 13.1047C86.2854 13.0185 86.687 12.8964 87.0227 12.7286C87.2365 11.9808 87.3439 11.3753 87.3439 10.9022C87.3439 10.2459 87.0944 9.72204 86.5959 9.32504C86.0975 8.92819 85.3804 8.73015 84.4341 8.73015C82.5368 8.73015 81.3052 9.67613 80.7406 11.5684L78.4823 11.355C79.4485 8.11957 81.478 6.50173 84.5711 6.50173C86.0971 6.50173 87.3032 6.89884 88.1982 7.69722C89.0935 8.49604 89.5415 9.50322 89.5415 10.7139C89.5415 11.543 89.4248 12.5199 89.1853 13.634L88.3203 17.5507C88.0455 18.7969 87.9085 19.8041 87.9085 20.5724C87.9085 21.1065 87.995 21.8089 88.1633 22.6784H85.8886C85.7761 22.18 85.7007 21.5237 85.6553 20.71ZM86.6316 14.6512C86.0772 14.9159 85.1307 15.1193 83.8031 15.2618C82.4499 15.3992 81.5138 15.5772 81.0103 15.796C80.5015 16.0148 80.1045 16.3453 79.8249 16.7927C79.5398 17.2407 79.398 17.7545 79.398 18.3392C79.398 19.143 79.6217 19.774 80.0747 20.2418C80.5271 20.7046 81.1274 20.9387 81.8804 20.9387C82.5976 20.9387 83.2846 20.72 83.9459 20.2825C84.6072 19.8453 85.146 19.2143 85.5632 18.3902C85.9805 17.5661 86.3367 16.3197 86.6316 14.6512ZM90.8533 22.6784L93.5754 6.83736H95.5546L94.9943 10.078C96.2868 7.69223 97.589 6.50173 98.8912 6.50173C99.3338 6.50173 99.8781 6.69537 100.519 7.08199L99.6085 9.57467C99.2269 9.23365 98.8203 9.06578 98.3981 9.06578C97.5893 9.06578 96.7803 9.59988 95.9764 10.6681C95.1726 11.7362 94.5364 13.6235 94.0736 16.3251L92.9595 22.6784H90.8533ZM99.186 22.6784L101.907 6.83736H103.887L103.327 10.078C104.619 7.69223 105.922 6.50173 107.224 6.50173C107.666 6.50173 108.21 6.69537 108.851 7.08199L107.941 9.57467C107.56 9.23365 107.152 9.06578 106.73 9.06578C105.921 9.06578 105.113 9.59988 104.309 10.6681C103.505 11.7362 102.869 13.6235 102.406 16.3251L101.292 22.6784H99.186ZM107.906 16.6607C107.906 13.8171 108.547 11.411 109.828 9.44744C111.11 7.48379 112.829 6.50173 114.986 6.50173C116.497 6.50173 117.744 7.08205 118.731 8.23679C119.712 9.39154 120.206 11.0343 120.206 13.1658C120.206 15.1193 119.87 16.8642 119.198 18.4006C118.527 19.9419 117.657 21.0913 116.589 21.8594C115.52 22.6277 114.401 23.0141 113.226 23.0141C111.685 23.0141 110.413 22.4445 109.411 21.31C108.409 20.1759 107.906 18.6242 107.906 16.6607ZM110.164 16.3959C110.164 17.8966 110.459 19.0262 111.054 19.7943C111.644 20.5571 112.387 20.9387 113.277 20.9387C113.979 20.9387 114.681 20.654 115.383 20.0844C116.085 19.5092 116.7 18.5683 117.225 17.2458C117.748 15.9231 118.008 14.5699 118.008 13.1811C118.008 11.6704 117.713 10.5255 117.118 9.74739C116.528 8.96932 115.795 8.57724 114.925 8.57724C114.162 8.57724 113.425 8.8623 112.707 9.4271C111.99 9.99147 111.385 10.9274 110.897 12.2351C110.408 13.5373 110.164 14.9257 110.164 16.3959ZM123.879 22.6784L122.535 6.83736H124.652L125.247 13.9493C125.389 15.6688 125.486 17.6018 125.547 19.7484C125.944 18.1664 126.422 16.6201 126.987 15.0991L130.064 6.83736H132.48L132.908 14.7531C132.964 15.8723 133.005 17.4798 133.025 19.5652C133.432 18.2223 134.099 16.3755 135.014 14.0204L137.812 6.83736H140.034L133.681 22.6784H131.372L130.899 13.3843C130.864 12.7384 130.837 11.6144 130.827 10.0116C130.491 11.0853 130.095 12.2351 129.642 13.4607L126.233 22.6784H123.879ZM146.846 16.6607C146.846 13.8171 147.488 11.411 148.769 9.44744C150.051 7.48379 151.771 6.50173 153.928 6.50173C155.439 6.50173 156.684 7.08205 157.671 8.23679C158.653 9.39154 159.147 11.0343 159.147 13.1658C159.147 15.1193 158.811 16.8642 158.139 18.4006C157.468 19.9419 156.598 21.0913 155.53 21.8594C154.462 22.6277 153.343 23.0141 152.168 23.0141C150.626 23.0141 149.354 22.4445 148.352 21.31C147.35 20.1759 146.846 18.6242 146.846 16.6607ZM149.105 16.3959C149.105 17.8966 149.4 19.0262 149.995 19.7943C150.585 20.5571 151.328 20.9387 152.218 20.9387C152.92 20.9387 153.622 20.654 154.324 20.0844C155.026 19.5092 155.642 18.5683 156.166 17.2458C156.69 15.9231 156.949 14.5699 156.949 13.1811C156.949 11.6704 156.654 10.5255 156.059 9.74739C155.469 8.96932 154.737 8.57724 153.866 8.57724C153.104 8.57724 152.365 8.8623 151.648 9.4271C150.931 9.99147 150.326 10.9274 149.837 12.2351C149.349 13.5373 149.105 14.9257 149.105 16.3959ZM174.011 0.458644C173.833 1.73018 173.451 2.60532 172.876 3.07818C172.296 3.55134 171.355 3.78531 170.058 3.78531L168.13 3.72392C167.189 3.72392 166.441 3.93224 165.892 4.34415C165.342 4.75635 164.636 6.25194 163.766 8.82615C164.89 7.51895 166.218 6.86752 167.744 6.86752C169.158 6.86752 170.354 7.46783 171.331 8.67359C172.302 9.87891 172.79 11.4559 172.79 13.4095C172.79 16.0952 172.119 18.3692 170.77 20.2259C169.422 22.083 167.754 23.0135 165.77 23.0135C164.168 23.0135 162.901 22.4185 161.96 21.2232C161.019 20.0278 160.55 18.4048 160.55 16.365C160.55 14.3708 160.958 11.8478 161.772 8.79546C162.591 5.74839 163.511 3.70376 164.539 2.66084C165.572 1.61791 167.011 1.09903 168.863 1.09903L170.648 1.12972C171.335 1.12972 171.737 0.905893 171.844 0.458466L174.011 0.458644ZM165.811 20.8165C167.123 20.8165 168.237 20.0384 169.158 18.4767C170.074 16.9152 170.531 15.1907 170.531 13.2983C170.531 11.9704 170.262 10.9125 169.727 10.1241C169.188 9.33546 168.472 8.94356 167.571 8.94356C166.223 8.94356 165.089 9.6865 164.178 11.1666C163.268 12.647 162.809 14.4531 162.809 16.5791C162.809 17.8001 163.089 18.8122 163.644 19.6112C164.203 20.415 164.925 20.8165 165.811 20.8165ZM173.95 22.6784L176.753 6.83736H178.935L177.847 12.9727H180.502C181.677 12.9727 182.598 13.0853 183.264 13.3083C183.93 13.5321 184.475 14.0101 184.892 14.7376C185.309 15.4702 185.518 16.2943 185.518 17.2051C185.518 18.2682 185.263 19.2856 184.76 20.2468C184.251 21.2134 183.61 21.8594 182.837 22.1851C182.059 22.5157 181.031 22.6784 179.749 22.6784H173.95ZM177.465 15.1396L176.514 20.5116H179.576C182.033 20.5116 183.259 19.5246 183.259 17.5507C183.259 16.7472 183.056 16.1419 182.654 15.74C182.247 15.3382 181.509 15.1396 180.441 15.1396H177.465ZM188.295 22.6784L191.017 6.83736H193.245L190.523 22.6784H188.295ZM194.318 8.9184L194.695 6.83736H196.878L196.404 9.47778C196.119 11.1364 195.972 12.3213 195.972 13.0385C195.972 14.4174 196.872 15.1089 198.673 15.1089C199.604 15.1089 200.525 14.8955 201.435 14.463L202.768 6.83736H204.996L202.223 22.6784H199.996L201.058 16.5893C199.919 17.0676 198.891 17.3066 197.981 17.3066C196.633 17.3066 195.585 16.9507 194.848 16.2435C194.11 15.5312 193.739 14.5239 193.739 13.2116C193.739 12.5603 193.932 11.126 194.318 8.9184ZM205.606 22.6784L208.378 6.83736H210.607L209.432 13.3997H215.419L216.574 6.83736H218.772L216.02 22.6784H213.786L215.037 15.5669H209.081L207.835 22.6784H205.606ZM219.377 22.6784L222.18 6.83736H224.362L223.274 12.9727H225.93C227.105 12.9727 228.025 13.0853 228.691 13.3083C229.357 13.5321 229.902 14.0101 230.319 14.7376C230.736 15.4702 230.945 16.2943 230.945 17.2051C230.945 18.2682 230.69 19.2856 230.187 20.2468C229.678 21.2134 229.037 21.8594 228.264 22.1851C227.486 22.5157 226.458 22.6784 225.176 22.6784H219.377ZM222.892 15.1396L221.941 20.5116H225.003C227.46 20.5116 228.686 19.5246 228.686 17.5507C228.686 16.7472 228.483 16.1419 228.081 15.74C227.674 15.3382 226.936 15.1396 225.868 15.1396H222.892ZM233.722 22.6784L236.444 6.83736H238.672L235.95 22.6784H233.722ZM247.412 19.7741C245.861 21.9361 244.268 23.0141 242.645 23.0141C241.704 23.0141 240.916 22.6785 240.28 22.0068C239.639 21.3356 239.318 20.4656 239.318 19.4078C239.318 18.7361 239.46 17.5966 239.74 15.9841L241.307 6.83736H243.536L241.801 16.971C241.653 17.8154 241.577 18.4662 241.577 18.9143C241.577 19.5295 241.729 19.9927 242.04 20.313C242.345 20.6284 242.778 20.7864 243.332 20.7864C244.115 20.7864 244.894 20.4708 245.672 19.8398C246.451 19.2142 247.02 18.4259 247.381 17.4799C247.743 16.5286 248.068 15.2564 248.353 13.6647L249.609 6.83736H251.837L248.964 22.6784H246.888L247.412 19.7741ZM243.409 1.49622H244.843C245 2.88016 245.641 3.57172 246.755 3.57172C247.325 3.57172 247.829 3.39402 248.266 3.03268C248.704 2.67135 249.04 2.15749 249.268 1.49622H250.734C250.444 2.70695 249.935 3.6583 249.197 4.34486C248.459 5.03186 247.626 5.3728 246.69 5.3728C245.764 5.3728 245 5.03181 244.395 4.35022C243.784 3.66862 243.46 2.71733 243.409 1.49622Z" fill="black"/>
</svg>
