<svg width="237" height="21" viewBox="0 0 237 21" fill="none" xmlns="http://www.w3.org/2000/svg">
<path fill-rule="evenodd" clip-rule="evenodd" d="M1.84271 19.1137H3.97032C4.75248 19.1137 5.36113 18.8955 5.79745 18.4592C6.27031 18.0046 6.65281 17.3088 6.94369 16.3723C7.23501 15.4355 7.66161 13.5668 8.22554 10.7663C8.89851 7.42006 9.23545 5.30148 9.23545 4.41028C9.23545 3.84635 9.0907 3.37384 8.79866 2.99176C8.50778 2.61025 8.01663 2.41899 7.32553 2.41899H5.1708L1.84271 19.1137ZM0.0419922 20.4776L3.91608 1.05507H7.59889C8.7627 1.05507 9.59908 1.428 10.1083 2.17347C10.5447 2.77379 10.7628 3.51908 10.7628 4.41028C10.7628 5.28336 10.4264 7.40179 9.75362 10.7663C9.11675 13.9124 8.62125 16.0086 8.26693 17.0539C7.91218 18.0997 7.4164 18.9045 6.77953 19.4684C6.03421 20.1412 5.08918 20.4776 3.9432 20.4776H0.0419922ZM10.9263 20.4776L14.8003 1.05507H16.3277L12.4543 20.4776H10.9263ZM15.9459 20.4776L19.82 1.05507H21.2103L23.1745 16.2492L26.1485 1.05507H27.6759L23.8018 20.4776H22.4657L20.5009 5.28352L17.4732 20.4776H15.9459ZM32.2858 20.4776L36.1592 1.05507H39.5415C40.6875 1.05507 41.5332 1.32755 42.0788 1.87335C42.6246 2.43728 42.8975 3.26466 42.8975 4.35568C42.8975 4.99254 42.8239 5.70134 42.6791 6.48364C42.2606 8.55649 41.6607 9.97547 40.8783 10.7392C40.0965 11.5032 39.0598 11.8847 37.7687 11.8847H35.5319L33.8132 20.4776H32.2858ZM35.8045 10.5208H37.7687C38.6053 10.5208 39.3012 10.2389 39.8556 9.67541C40.4103 9.11149 40.8427 8.04737 41.1517 6.48364C41.2789 5.84678 41.3423 5.18316 41.3423 4.49236C41.3423 3.78314 41.1879 3.26008 40.8783 2.92359C40.5693 2.58726 40.0511 2.41899 39.3239 2.41899H37.4139L35.8045 10.5208ZM42.6248 20.4776L45.3791 6.61996H46.7708L46.4711 8.06561C46.7254 7.62944 47.0978 7.24736 47.5888 6.92008C48.1163 6.57454 48.8166 6.40157 49.6893 6.40157L49.4166 7.71089H49.0897C48.326 7.71089 47.6667 7.96132 47.112 8.46137C46.5571 8.96156 46.1883 9.63904 46.0064 10.4937L44.043 20.4776H42.6248ZM51.0539 13.5488C50.6354 15.6769 50.4258 17.0584 50.4258 17.6952C50.4258 18.2405 50.5272 18.65 50.7263 18.9228C50.9812 19.2683 51.3359 19.4409 51.7905 19.4409C52.3361 19.4409 52.8083 19.241 53.2086 18.841C53.5542 18.4955 53.8454 17.9454 54.0815 17.1909C54.3182 16.4359 54.6 15.222 54.9273 13.5488C55.3458 11.4211 55.5546 10.0388 55.5546 9.40241C55.5546 8.85676 55.4537 8.44777 55.2542 8.17517C54.9998 7.82962 54.6451 7.65665 54.1907 7.65665C53.6449 7.65665 53.172 7.85632 52.7718 8.25653C52.4263 8.60208 52.1356 9.15248 51.8989 9.90701C51.6629 10.6618 51.3812 11.8757 51.0539 13.5488ZM56.3461 13.5488C55.9641 15.5132 55.6183 16.9221 55.3091 17.7769C55.0001 18.6317 54.618 19.2865 54.1636 19.741C53.5272 20.3779 52.6998 20.696 51.6813 20.696C50.6263 20.696 49.8812 20.3324 49.4444 19.6047C49.1901 19.1867 49.0619 18.5588 49.0619 17.7223C49.0619 16.9404 49.2529 15.5493 49.635 13.5488C50.017 11.5848 50.3629 10.1753 50.6721 9.32069C50.9812 8.46589 51.363 7.8112 51.8176 7.35617C52.454 6.71974 53.2815 6.40157 54.2999 6.40157C55.3548 6.40157 56.1001 6.76557 56.5367 7.4932C56.7912 7.91125 56.9186 8.5384 56.9186 9.37493C56.9186 10.1572 56.7281 11.5484 56.3461 13.5488ZM63.4106 17.2862C63.4106 16.3589 63.747 14.1854 64.4198 10.7663C65.0566 7.5655 65.5619 5.42415 65.9343 4.34176C66.3072 3.25995 66.8028 2.43728 67.421 1.87335C68.1486 1.18211 69.1031 0.83667 70.2851 0.83667C71.413 0.83667 72.2582 1.19147 72.8217 1.90083C73.2221 2.42821 73.4227 3.1735 73.4227 4.13764C73.4227 4.55568 73.377 4.99252 73.2849 5.44696H71.7847C71.8753 4.93785 71.9224 4.5193 71.9224 4.19188C71.9224 2.86436 71.3399 2.20059 70.1759 2.20059C69.4849 2.20059 68.9033 2.41912 68.4302 2.85543C67.9575 3.31032 67.5715 4.0012 67.2711 4.9288C66.9712 5.8561 66.5299 7.80215 65.9479 10.7663C65.2568 14.1671 64.9108 16.3406 64.9108 17.2862C64.9108 18.6501 65.5208 19.3321 66.7394 19.3321C67.4122 19.3321 67.9757 19.1047 68.4302 18.6501C69.0488 18.0681 69.4665 17.2042 69.6849 16.0582H71.2401C70.8946 17.786 70.2401 19.0413 69.2759 19.8231C68.5487 20.4049 67.648 20.696 66.5752 20.696C65.5022 20.696 64.6928 20.3686 64.1471 19.7139C63.6561 19.0771 63.4106 18.2682 63.4106 17.2862ZM75.3048 13.5488C74.8863 15.6769 74.6774 17.0584 74.6774 17.6952C74.6774 18.2405 74.7781 18.65 74.9772 18.9228C75.2321 19.2683 75.5867 19.4409 76.0413 19.4409C76.587 19.4409 77.0598 19.241 77.4602 18.841C77.8057 18.4955 78.0963 17.9454 78.3324 17.1909C78.569 16.4359 78.8507 15.222 79.1781 13.5488C79.5966 11.4211 79.8055 10.0388 79.8055 9.40241C79.8055 8.85676 79.7045 8.44777 79.505 8.17517C79.2507 7.82962 78.896 7.65665 78.4416 7.65665C77.8958 7.65665 77.4236 7.85632 77.0234 8.25653C76.6779 8.60208 76.3865 9.15248 76.1498 9.90701C75.9137 10.6618 75.632 11.8757 75.3048 13.5488ZM80.597 13.5488C80.2149 15.5132 79.8691 16.9221 79.56 17.7769C79.251 18.6317 78.8689 19.2865 78.4145 19.741C77.778 20.3779 76.9506 20.696 75.9321 20.696C74.8772 20.696 74.1321 20.3324 73.6953 19.6047C73.441 19.1867 73.3128 18.5588 73.3128 17.7223C73.3128 16.9404 73.5038 15.5493 73.8859 13.5488C74.2678 11.5848 74.6138 10.1753 74.9229 9.32069C75.2321 8.46589 75.6139 7.8112 76.0684 7.35617C76.7049 6.71974 77.5324 6.40157 78.5508 6.40157C79.6057 6.40157 80.351 6.76557 80.7876 7.4932C81.0421 7.91125 81.1694 8.5384 81.1694 9.37493C81.1694 10.1572 80.979 11.5484 80.597 13.5488ZM81.9609 20.4776L84.7159 6.61996H86.107L85.8886 7.68377C86.1251 7.37462 86.4159 7.09285 86.7614 6.83836C87.1618 6.54705 87.6624 6.40157 88.2624 6.40157C89.1353 6.40157 89.7712 6.72895 90.1716 7.38365C90.4442 7.80213 90.5806 8.32955 90.5806 8.96597C90.5806 9.25685 90.5266 9.6931 90.4171 10.2753L88.3987 20.4776H86.9798L88.999 10.2753C89.0896 9.87493 89.1346 9.5028 89.1346 9.15725C89.1346 8.73876 89.0161 8.38397 88.7798 8.09309C88.5432 7.80236 88.18 7.65665 87.6886 7.65665C86.5069 7.65665 85.7431 8.52914 85.3975 10.2753L83.3784 20.4776H81.9609ZM92.3813 13.5488C92.7815 11.5484 93.1267 10.1209 93.4176 9.26609C93.7085 8.41129 94.0814 7.76572 94.536 7.3294C95.1724 6.71081 95.9092 6.40157 96.7457 6.40157C97.4004 6.40157 97.8915 6.56519 98.2188 6.89261C98.4736 7.14738 98.6464 7.40173 98.737 7.65665L100.074 1.05507H101.493L97.6186 20.4776H96.2275L96.4181 19.4959C96.1815 19.8232 95.9003 20.0866 95.5731 20.2867C95.1367 20.5597 94.6456 20.696 94.0999 20.696C93.2451 20.696 92.6085 20.3686 92.19 19.7139C91.8991 19.2954 91.7539 18.6955 91.7539 17.9132C91.7539 17.0407 91.9632 15.5857 92.3813 13.5488ZM93.7995 13.5488C93.381 15.6039 93.1721 16.9951 93.1721 17.7223C93.1721 18.2314 93.2623 18.6137 93.4447 18.8685C93.7356 19.2502 94.0997 19.4409 94.536 19.4409C95.027 19.4409 95.473 19.2683 95.8728 18.9228C96.3821 18.4682 96.7272 17.8045 96.9091 16.9315L98.2459 10.1665C98.3 9.83918 98.328 9.5477 98.328 9.29321C98.328 8.7841 98.2004 8.38397 97.9455 8.09309C97.7088 7.80236 97.3636 7.65665 96.9091 7.65665C96.3999 7.65665 95.9454 7.84747 95.5452 8.22941C95.1997 8.55668 94.9041 9.11159 94.6588 9.89345C94.4131 10.6758 94.1267 11.894 93.7995 13.5488ZM108.148 13.5488C107.73 15.6769 107.521 17.0584 107.521 17.6952C107.521 18.2405 107.621 18.65 107.821 18.9228C108.075 19.2683 108.43 19.4409 108.885 19.4409C109.43 19.4409 109.903 19.241 110.304 18.841C110.649 18.4955 110.94 17.9454 111.176 17.1909C111.412 16.4359 111.694 15.222 112.022 13.5488C112.44 11.4211 112.65 10.0388 112.65 9.40241C112.65 8.85676 112.549 8.44777 112.349 8.17517C112.095 7.82962 111.74 7.65665 111.286 7.65665C110.74 7.65665 110.267 7.85632 109.867 8.25653C109.521 8.60208 109.231 9.15248 108.994 9.90701C108.758 10.6618 108.476 11.8757 108.148 13.5488ZM113.44 13.5488C113.058 15.5132 112.713 16.9221 112.403 17.7769C112.094 18.6317 111.712 19.2865 111.258 19.741C110.621 20.3779 109.794 20.696 108.775 20.696C107.721 20.696 106.975 20.3324 106.539 19.6047C106.284 19.1867 106.157 18.5588 106.157 17.7223C106.157 16.9404 106.348 15.5493 106.73 13.5488C107.112 11.5848 107.457 10.1753 107.766 9.32069C108.075 8.46589 108.457 7.8112 108.912 7.35617C109.548 6.71974 110.376 6.40157 111.394 6.40157C112.449 6.40157 113.195 6.76557 113.632 7.4932C113.886 7.91125 114.013 8.5384 114.013 9.37493C114.013 10.1572 113.822 11.5484 113.44 13.5488ZM115.868 13.5488C116.614 9.821 117.169 7.31578 117.532 6.03328C117.896 4.75137 118.342 3.76493 118.869 3.07383C119.415 2.38259 120.128 1.87353 121.01 1.54611C121.892 1.21883 123.088 1.04586 124.597 1.02759L124.352 2.28267C123.26 2.31921 122.374 2.44657 121.692 2.66451C121.011 2.88289 120.451 3.27403 120.014 3.83752C119.414 4.61982 118.887 5.90166 118.432 7.68377C119.105 6.86536 119.914 6.45652 120.86 6.45652C121.697 6.45652 122.333 6.81104 122.769 7.51997C123.042 7.975 123.179 8.59307 123.179 9.37493C123.179 10.2115 122.979 11.6031 122.579 13.5488C122.197 15.5314 121.851 16.9452 121.542 17.7908C121.233 18.6365 120.851 19.2772 120.396 19.7139C119.742 20.3686 118.914 20.696 117.914 20.696C116.859 20.696 116.114 20.3324 115.677 19.6047C115.405 19.2049 115.268 18.5771 115.268 17.7223C115.268 16.8857 115.468 15.495 115.868 13.5488ZM117.287 13.5488C116.868 15.6769 116.659 17.0584 116.659 17.6952C116.659 18.2405 116.758 18.65 116.959 18.9228C117.177 19.2683 117.532 19.4409 118.023 19.4409C118.569 19.4409 119.042 19.241 119.442 18.841C119.788 18.4955 120.078 17.9454 120.315 17.1909C120.551 16.4359 120.833 15.222 121.161 13.5488C121.579 11.4211 121.787 10.0388 121.787 9.40241C121.787 8.85676 121.688 8.44777 121.488 8.17517C121.269 7.82962 120.914 7.65665 120.423 7.65665C119.878 7.65665 119.405 7.85632 119.005 8.25653C118.66 8.60208 118.369 9.15248 118.132 9.90701C117.896 10.6618 117.614 11.8757 117.287 13.5488ZM123.943 20.4776L126.698 6.61996H128.117L126.97 12.3758H128.635C129.562 12.3758 130.244 12.6214 130.68 13.1123C131.099 13.5487 131.308 14.2123 131.308 15.1036C131.308 15.5402 131.263 16.004 131.172 16.495C130.881 17.9316 130.431 18.9546 129.822 19.5637C129.212 20.1732 128.344 20.4776 127.217 20.4776H123.943ZM125.607 19.2225H127.243C127.934 19.2225 128.475 19.0048 128.866 18.568C129.257 18.1317 129.553 17.4406 129.753 16.495C129.844 16.0406 129.889 15.6585 129.889 15.3495C129.889 14.2034 129.38 13.6309 128.361 13.6309H126.725L125.607 19.2225ZM131.827 20.4776L134.609 6.61996H136.027L133.245 20.4776H131.827ZM140.283 20.4776L141.265 15.6221C140.628 15.7493 140.028 15.8131 139.464 15.8131C138.718 15.8131 138.15 15.622 137.759 15.24C137.368 14.8584 137.172 14.34 137.172 13.6855C137.172 13.3759 137.218 13.0123 137.309 12.5938L138.481 6.61996H139.9L138.7 12.5938C138.646 12.903 138.618 13.1578 138.618 13.3579C138.618 14.158 139.009 14.558 139.791 14.558C140.355 14.558 140.927 14.495 141.509 14.3674L143.064 6.61996H144.483L141.7 20.4776H140.283ZM144.893 20.4776L147.648 6.61996H149.067L147.838 12.7305H151.385L152.612 6.61996H154.031L151.276 20.4776H149.857L151.139 13.9852H147.593L146.311 20.4776H144.893ZM154.44 20.4776L157.195 6.61996H158.614L157.469 12.3758H159.132C160.06 12.3758 160.741 12.6214 161.178 13.1123C161.596 13.5487 161.806 14.2123 161.806 15.1036C161.806 15.5402 161.76 16.004 161.669 16.495C161.378 17.9316 160.928 18.9546 160.319 19.5637C159.71 20.1732 158.841 20.4776 157.714 20.4776H154.44ZM156.104 19.2225H157.741C158.432 19.2225 158.973 19.0048 159.364 18.568C159.755 18.1317 160.05 17.4406 160.251 16.495C160.341 16.0406 160.386 15.6585 160.386 15.3495C160.386 14.2034 159.877 13.6309 158.859 13.6309H157.222L156.104 19.2225ZM162.324 20.4776L165.106 6.61996H166.524L163.742 20.4776H162.324ZM166.907 20.4776L169.662 6.61996H171.081L168.98 17.0949L175.172 6.61996H176.455L173.672 20.4776H172.253L174.354 10.0027L168.189 20.4776H166.907ZM171.054 1.98291H172.199C172.181 2.09107 172.171 2.20081 172.171 2.31015C172.171 3.18279 172.617 3.61947 173.508 3.61947C174.508 3.61947 175.172 3.07392 175.499 1.98291H176.646C176.391 2.96488 176.004 3.66905 175.486 4.0966C174.968 4.52385 174.263 4.73788 173.372 4.73788C172.608 4.73788 172.025 4.53741 171.625 4.13764C171.225 3.73742 171.026 3.2008 171.026 2.52784C171.026 2.38167 171.04 2.20085 171.054 1.98291ZM183.247 20.4776L185.757 7.87469H183.193L183.438 6.61996H189.985L189.739 7.87469H187.175L184.666 20.4776H183.247ZM191.322 13.5488C190.903 15.6769 190.694 17.0584 190.694 17.6952C190.694 18.2405 190.795 18.65 190.994 18.9228C191.249 19.2683 191.604 19.4409 192.058 19.4409C192.604 19.4409 193.077 19.241 193.477 18.841C193.823 18.4955 194.113 17.9454 194.349 17.1909C194.586 16.4359 194.868 15.222 195.195 13.5488C195.614 11.4211 195.823 10.0388 195.823 9.40241C195.823 8.85676 195.722 8.44777 195.523 8.17517C195.268 7.82962 194.914 7.65665 194.459 7.65665C193.914 7.65665 193.441 7.85632 193.04 8.25653C192.695 8.60208 192.404 9.15248 192.168 9.90701C191.932 10.6618 191.649 11.8757 191.322 13.5488ZM196.614 13.5488C196.232 15.5132 195.887 16.9221 195.578 17.7769C195.269 18.6317 194.886 19.2865 194.432 19.741C193.795 20.3779 192.968 20.696 191.949 20.696C190.894 20.696 190.149 20.3324 189.712 19.6047C189.458 19.1867 189.331 18.5588 189.331 17.7223C189.331 16.9404 189.522 15.5493 189.904 13.5488C190.286 11.5848 190.631 10.1753 190.94 9.32069C191.249 8.46589 191.631 7.8112 192.085 7.35617C192.722 6.71974 193.549 6.40157 194.568 6.40157C195.623 6.40157 196.369 6.76557 196.805 7.4932C197.06 7.91125 197.186 8.5384 197.186 9.37493C197.186 10.1572 196.996 11.5484 196.614 13.5488ZM197.978 20.4776L200.733 6.61996H202.152L200.924 12.7305H204.471L205.698 6.61996H207.116L204.362 20.4776H202.943L204.224 13.9852H200.679L199.396 20.4776H197.978ZM213.227 20.4776L210.445 13.3033L215.655 6.61996H217.237L211.917 13.3579L214.728 20.4776H213.227ZM207.525 20.4776L210.28 6.61996H211.699L208.944 20.4776H207.525ZM216.637 20.4776L219.392 6.61996H220.811L218.71 17.0949L224.902 6.61996H226.185L223.402 20.4776H221.983L224.084 10.0027L217.919 20.4776H216.637ZM226.594 20.4776L229.349 6.61996H230.768L228.667 17.0949L234.86 6.61996H236.141L233.359 20.4776H231.94L234.041 10.0027L227.876 20.4776H226.594ZM230.741 1.98291H231.886C231.869 2.09107 231.858 2.20081 231.858 2.31015C231.858 3.18279 232.304 3.61947 233.195 3.61947C234.195 3.61947 234.859 3.07392 235.186 1.98291H236.333C236.078 2.96488 235.691 3.66905 235.173 4.0966C234.655 4.52385 233.95 4.73788 233.059 4.73788C232.295 4.73788 231.713 4.53741 231.312 4.13764C230.913 3.73742 230.713 3.2008 230.713 2.52784C230.713 2.38167 230.728 2.20085 230.741 1.98291Z" fill="black"/>
</svg>
