<svg width="273" height="22" viewBox="0 0 273 22" fill="none" xmlns="http://www.w3.org/2000/svg">
<path fill-rule="evenodd" clip-rule="evenodd" d="M12.4609 16.4247H5.78192L3.74567 20.9567H0.188477L9.7074 0.418407H13.5558L16.2715 20.9567H13.0105L12.4609 16.4247ZM12.0498 13.011L11.0463 4.72091L7.31714 13.011H12.0498ZM20.6702 6.06913H23.8106L23.3131 8.95667C24.4559 6.81995 25.704 5.75384 27.0523 5.75384C27.5205 5.75384 28.0276 5.89273 28.5825 6.1744L27.3199 9.47787C27.0188 9.34924 26.7034 9.28195 26.3735 9.28195C25.8573 9.28195 25.3743 9.45392 24.9197 9.79815C24.236 10.329 23.7103 11.0271 23.3424 11.8828C22.974 12.7383 22.6156 14.2109 22.2568 16.3005L21.4296 20.9567H18.1122L20.6702 6.06913ZM31.0727 0.418407H34.3908L33.7598 4.06125H30.456L31.0727 0.418407ZM30.1027 6.06913H33.4108L30.8628 20.9567H27.5448L30.1027 6.06913ZM38.7031 10.2858L35.4906 9.91306C35.878 8.56025 36.5428 7.52728 37.494 6.81996C38.4405 6.10724 39.6453 5.75384 41.1033 5.75384C42.5903 5.75384 43.7283 6.12186 44.5314 6.85315C45.3297 7.58941 45.7261 8.56014 45.7261 9.77906C45.7261 10.2046 45.6885 10.6587 45.6169 11.1414C45.5395 11.6246 45.2631 12.9438 44.7754 15.0954C44.3739 16.8693 44.1681 18.1124 44.1681 18.8151C44.1681 19.4748 44.2777 20.1869 44.4978 20.9567H41.2183C41.0794 20.4069 40.9982 19.8332 40.9692 19.2452C40.5055 19.9003 39.9653 20.4025 39.3583 20.7513C38.751 21.1002 38.1494 21.2725 37.5469 21.2725C36.5906 21.2725 35.7918 20.8802 35.1416 20.0963C34.4961 19.3169 34.1717 18.2748 34.1717 16.9696C34.1717 15.4685 34.5539 14.3111 35.3186 13.5033C36.0786 12.6907 37.3459 12.203 39.1342 12.0357C40.702 11.8778 41.7541 11.6869 42.2846 11.4622C42.4614 10.893 42.5472 10.4387 42.5472 10.0993C42.5472 9.65981 42.3948 9.30101 42.084 9.0284C41.7778 8.75609 41.3572 8.62229 40.8264 8.62229C39.6695 8.62229 38.9619 9.17666 38.7038 10.2858H38.7031ZM41.7443 14.015C41.5433 14.0822 41.2802 14.1392 40.9649 14.1968C39.4587 14.4164 38.4639 14.7175 37.9858 15.0954C37.5077 15.4684 37.2685 15.9752 37.2685 16.6014C37.2685 17.094 37.4033 17.4954 37.6753 17.8017C37.9479 18.1073 38.2926 18.2602 38.7131 18.2602C39.1481 18.2602 39.5641 18.1316 39.9657 17.8778C40.3672 17.6247 40.6876 17.2658 40.9263 16.8071C41.1653 16.3481 41.3951 15.5927 41.6201 14.5457L41.7443 14.015ZM47.1943 20.9567L50.7222 0.418407H54.0403L50.5123 20.9567H47.1943ZM73.6898 20.9567H70.463L65.9209 7.15934L63.5642 20.9567H60.3325L63.8461 0.418407H67.0828L71.6243 14.1633L73.9817 0.418407H77.2134L73.6898 20.9567ZM81.8412 10.2858L78.628 9.91306C79.0155 8.56025 79.6802 7.52728 80.6314 6.81996C81.5778 6.10724 82.7833 5.75384 84.2415 5.75384C85.7284 5.75384 86.8657 6.12186 87.6687 6.85315C88.4671 7.58941 88.8642 8.56014 88.8642 9.77906C88.8642 10.2046 88.8267 10.6587 88.755 11.1414C88.679 11.6246 88.4013 12.9438 87.9136 15.0954C87.512 16.8693 87.3062 18.1124 87.3062 18.8151C87.3062 19.4748 87.4156 20.1869 87.6359 20.9567H84.3564C84.2175 20.4069 84.1362 19.8332 84.1073 19.2452C83.6436 19.9003 83.1034 20.4025 82.4964 20.7513C81.8889 21.1002 81.2875 21.2725 80.685 21.2725C79.7287 21.2725 78.9297 20.8802 78.2797 20.0963C77.6341 19.3169 77.3098 18.2748 77.3098 16.9696C77.3098 15.4685 77.6918 14.3111 78.4567 13.5033C79.2167 12.6907 80.4833 12.203 82.2716 12.0357C83.8395 11.8778 84.8916 11.6869 85.422 11.4622C85.599 10.893 85.6853 10.4387 85.6853 10.0993C85.6853 9.65981 85.5322 9.30101 85.2214 9.0284C84.9153 8.75609 84.4946 8.62229 83.9638 8.62229C82.807 8.62229 82.0993 9.17666 81.8412 10.2858ZM84.8824 14.015C84.6814 14.0822 84.4183 14.1392 84.103 14.1968C82.5969 14.4164 81.602 14.7175 81.1239 15.0954C80.6456 15.4684 80.4066 15.9752 80.4066 16.6014C80.4066 17.094 80.5414 17.4954 80.8134 17.8017C81.0861 18.1073 81.4299 18.2602 81.8505 18.2602C82.2856 18.2602 82.7015 18.1316 83.1031 17.8778C83.5044 17.6247 83.8258 17.2658 84.0645 16.8071C84.3036 16.3481 84.5325 15.5927 84.7575 14.5457L84.8824 14.015ZM92.5742 6.06913H95.7153L95.2178 8.95667C96.3606 6.81995 97.6087 5.75384 98.957 5.75384C99.4252 5.75384 99.9318 5.89273 100.486 6.1744L99.2246 9.47787C98.9234 9.34924 98.6073 9.28195 98.2775 9.28195C97.7613 9.28195 97.279 9.45392 96.8244 9.79815C96.1407 10.329 95.6151 11.0271 95.2471 11.8828C94.8787 12.7383 94.5202 14.2109 94.1615 16.3005L93.3343 20.9567H90.0169L92.5742 6.06913ZM101.72 6.06913H104.861L104.363 8.95667C105.506 6.81995 106.754 5.75384 108.103 5.75384C108.571 5.75384 109.077 5.89273 109.632 6.1744L108.37 9.47787C108.069 9.34924 107.753 9.28195 107.423 9.28195C106.907 9.28195 106.425 9.45392 105.97 9.79815C105.286 10.329 104.761 11.0271 104.393 11.8828C104.024 12.7383 103.666 14.2109 103.307 16.3005L102.48 20.9567H99.1625L101.72 6.06913ZM109.054 14.7703C109.054 12.3369 109.603 10.2713 110.703 8.56466C111.927 6.69061 113.696 5.75384 116.01 5.75384C117.746 5.75384 119.127 6.34173 120.16 7.51299C121.188 8.68893 121.704 10.324 121.704 12.423C121.704 14.885 121.063 16.9742 119.782 18.6908C118.496 20.4119 116.818 21.2725 114.748 21.2725C113.061 21.2725 111.688 20.6892 110.636 19.5224C109.58 18.361 109.054 16.7737 109.054 14.7703ZM118.434 11.9068C118.434 10.9314 118.204 10.1615 117.746 9.60223C117.287 9.04284 116.703 8.76575 116 8.76575C115.407 8.76575 114.848 8.97124 114.327 9.37759C113.81 9.78862 113.356 10.5009 112.965 11.5145C112.577 12.5283 112.381 13.5799 112.381 14.67C112.381 15.7793 112.62 16.6397 113.098 17.2517C113.576 17.8683 114.165 18.1746 114.872 18.1746C115.762 18.1746 116.517 17.7009 117.138 16.7495C118.004 15.4493 118.434 13.8335 118.434 11.9068ZM135.702 20.9567H132.58L131.973 11.4622L128.292 20.9567H125.189L123.688 6.06913H126.614L127.469 16.0803L131.227 6.06913H134.244L134.67 16.0803L138.452 6.06913H141.755L135.702 20.9567ZM156.624 6.06913H159.798L159.469 7.905C160.697 6.47048 161.983 5.75384 163.327 5.75384C165.124 5.75384 166.166 6.62842 166.448 8.3832C166.893 7.61332 167.515 6.98228 168.318 6.48969C169.121 5.99739 169.934 5.75384 170.751 5.75384C171.717 5.75384 172.477 6.05949 173.046 6.67151C173.61 7.28353 173.897 8.1392 173.897 9.23431C173.897 9.74547 173.788 10.63 173.572 11.8778L172.014 20.9567H168.696L170.254 11.8681C170.45 10.7258 170.551 10.0849 170.551 9.93697C170.551 9.51147 170.441 9.18615 170.221 8.96149C170.006 8.73697 169.704 8.62229 169.326 8.62229C168.518 8.62229 167.792 9.11445 167.142 10.0993C166.63 10.8738 166.205 12.2365 165.861 14.1918L164.699 20.9567H161.381L162.925 11.9639C163.102 10.9264 163.193 10.2618 163.193 9.9657C163.193 9.5497 163.078 9.22472 162.844 8.98076C162.61 8.74162 162.313 8.62229 161.954 8.62229C161.472 8.62229 160.97 8.84689 160.453 9.30104C159.937 9.75066 159.526 10.41 159.224 11.2802C159.043 11.7919 158.828 12.7433 158.584 14.1347L157.384 20.9567H154.066L156.624 6.06913ZM175.724 14.7703C175.724 12.3369 176.273 10.2713 177.372 8.56466C178.596 6.69061 180.365 5.75384 182.68 5.75384C184.415 5.75384 185.797 6.34173 186.829 7.51299C187.857 8.68893 188.374 10.324 188.374 12.423C188.374 14.885 187.733 16.9742 186.452 18.6908C185.165 20.4119 183.488 21.2725 181.418 21.2725C179.73 21.2725 178.358 20.6892 177.306 19.5224C176.249 18.361 175.724 16.7737 175.724 14.7703ZM185.103 11.9068C185.103 10.9314 184.874 10.1615 184.415 9.60223C183.956 9.04284 183.373 8.76575 182.67 8.76575C182.077 8.76575 181.517 8.97124 180.997 9.37759C180.48 9.78862 180.026 10.5009 179.634 11.5145C179.247 12.5283 179.051 13.5799 179.051 14.67C179.051 15.7793 179.289 16.6397 179.768 17.2517C180.246 17.8683 180.834 18.1746 181.542 18.1746C182.431 18.1746 183.186 17.7009 183.808 16.7495C184.673 15.4493 185.103 13.8335 185.103 11.9068ZM191.118 14.3833L192.562 6.06913H202.96L200.373 20.9567H197.122L199.169 9.19577H195.028L193.642 17.0508C193.399 18.533 192.958 19.6084 192.318 20.2876C191.677 20.9617 190.788 21.3012 189.64 21.3012C189.062 21.3012 188.354 21.1857 187.513 20.9519L188.03 17.5911C188.498 17.711 188.885 17.7726 189.205 17.7726C189.788 17.7726 190.2 17.5385 190.434 17.0699C190.668 16.5966 190.893 15.7025 191.118 14.3833ZM212.55 15.3347L215.734 15.9656C215.203 17.7394 214.415 19.0682 213.368 19.9478C212.326 20.8324 211.135 21.2725 209.797 21.2725C208.281 21.2725 207.057 20.7227 206.12 19.6231C205.187 18.5233 204.719 16.9601 204.719 14.9377C204.719 13.1209 205.035 11.5003 205.666 10.0804C206.297 8.66053 207.153 7.58488 208.233 6.85315C209.309 6.12186 210.461 5.75384 211.69 5.75384C213.072 5.75384 214.205 6.1934 215.094 7.06852C215.983 7.9432 216.485 9.15759 216.595 10.7164L213.468 11.1178C213.32 9.51141 212.665 8.70812 211.503 8.70812C210.967 8.70812 210.442 8.92813 209.931 9.36314C209.414 9.80326 208.96 10.5871 208.573 11.7152C208.185 12.8435 207.99 14.0726 207.99 15.4062C207.99 16.2906 208.171 16.9698 208.53 17.4384C208.893 17.9115 209.328 18.1455 209.835 18.1455C210.371 18.1455 210.882 17.9163 211.374 17.4617C211.867 17.0076 212.259 16.3006 212.55 15.3347ZM219.612 6.06913H222.786L222.456 7.905C223.685 6.47048 224.971 5.75384 226.314 5.75384C228.112 5.75384 229.154 6.62842 229.436 8.3832C229.881 7.61332 230.502 6.98228 231.305 6.48969C232.108 5.99739 232.922 5.75384 233.739 5.75384C234.705 5.75384 235.465 6.05949 236.034 6.67151C236.598 7.28353 236.885 8.1392 236.885 9.23431C236.885 9.74547 236.775 10.63 236.56 11.8778L235.001 20.9567H231.683L233.242 11.8681C233.438 10.7258 233.538 10.0849 233.538 9.93697C233.538 9.51147 233.428 9.18615 233.208 8.96149C232.993 8.73697 232.692 8.62229 232.314 8.62229C231.506 8.62229 230.78 9.11445 230.129 10.0993C229.618 10.8738 229.192 12.2365 228.848 14.1918L227.686 20.9567H224.368L225.913 11.9639C226.089 10.9264 226.181 10.2618 226.181 9.9657C226.181 9.5497 226.065 9.22472 225.831 8.98076C225.597 8.74162 225.301 8.62229 224.943 8.62229C224.46 8.62229 223.957 8.84689 223.441 9.30104C222.925 9.75066 222.514 10.41 222.213 11.2802C222.031 11.7919 221.816 12.7433 221.572 14.1347L220.372 20.9567H217.054L219.612 6.06913ZM237.478 20.9567L240.098 6.06913H243.363L242.282 12.208H246.322C247.527 12.208 248.45 12.5284 249.1 13.1689C249.745 13.8095 250.071 14.7322 250.071 15.9272C250.071 17.4574 249.635 18.6763 248.77 19.5895C247.9 20.5028 246.777 20.9567 245.404 20.9567H237.478ZM241.857 14.6459L241.188 18.4328H243.793C245.758 18.4328 246.743 17.7491 246.743 16.3767C246.743 15.7933 246.547 15.3633 246.155 15.0765C245.768 14.7894 244.998 14.6459 243.851 14.6459H241.857ZM254.78 6.06913H258.097L255.54 20.9567H252.222L254.78 6.06913ZM261.028 6.06913H264.346L262.831 14.8609C262.654 15.9129 262.563 16.5727 262.563 16.8308C262.563 17.2804 262.698 17.6578 262.96 17.9544C263.223 18.2557 263.543 18.4037 263.92 18.4037C264.366 18.4037 264.805 18.2462 265.24 17.9305C265.847 17.491 266.335 16.9171 266.694 16.2143C267.057 15.5116 267.363 14.4881 267.621 13.1448L268.945 6.06913H272.263L269.5 20.9567H266.388L266.756 18.9108C265.417 20.4836 263.968 21.2725 262.414 21.2725C261.434 21.2725 260.65 20.9328 260.072 20.2492C259.498 19.5656 259.207 18.6237 259.207 17.4237C259.207 16.9221 259.341 15.9034 259.604 14.3687L261.028 6.06913ZM263.261 0.131134H264.868C265.044 0.886543 265.284 1.41268 265.58 1.704C265.877 1.99561 266.245 2.13901 266.68 2.13901C267.593 2.13901 268.348 1.46991 268.941 0.131134H270.461C270.136 1.44141 269.567 2.49789 268.764 3.30577C268.166 3.90332 267.44 4.20453 266.579 4.20453C265.694 4.20453 264.958 3.86969 264.375 3.20549C263.792 2.541 263.419 1.51756 263.261 0.131134Z" fill="black"/>
</svg>
