<svg width="251" height="23" viewBox="0 0 251 23" fill="none" xmlns="http://www.w3.org/2000/svg">
<path fill-rule="evenodd" clip-rule="evenodd" d="M4.20219 12.8561L2.30155 17.5085H0.150391L7.40395 0H8.50451L15.7331 17.5085H13.5819L11.6813 12.8561H4.20219ZM7.95423 3.60198L4.90236 11.0302H11.0054L7.95423 3.60198ZM24.2621 4.82708C26.2629 4.82708 27.9055 5.60268 29.1896 7.15311L28.0891 8.32914C27.0217 7.16197 25.7459 6.57802 24.2621 6.57802C22.9946 6.57802 21.9153 7.02435 21.0232 7.91643C20.1311 8.80851 19.685 9.92139 19.685 11.255C19.685 12.5893 20.1311 13.698 21.0232 14.5819C21.9153 15.4656 22.9946 15.9078 24.2621 15.9078C25.7628 15.9078 27.0382 15.3323 28.0891 14.1817L29.1896 15.3575C27.9055 16.8914 26.2629 17.6584 24.2621 17.6584C22.4779 17.6584 20.9647 17.033 19.7221 15.7825C18.4798 14.5318 17.8586 13.0227 17.8586 11.255C17.8586 9.47089 18.484 7.95377 19.7349 6.70328C20.9854 5.4528 22.4944 4.82708 24.2621 4.82708ZM40.445 6.57802H39.7442C38.0433 6.57802 36.7933 7.08641 35.9928 8.10361C35.1927 9.12081 34.7923 10.4716 34.7923 12.1559V17.5085H32.9659V5.00248H34.267L34.4419 8.37875C34.9085 7.21158 35.6345 6.32783 36.618 5.7278C37.6021 5.12748 38.769 4.82708 40.1196 4.82708H40.445V6.57802ZM49.3245 4.82708C51.1086 4.82708 52.6261 5.45678 53.8766 6.71559C55.1274 7.97441 55.7522 9.48785 55.7522 11.255C55.7522 13.0227 55.1274 14.5318 53.8766 15.7825C52.6261 17.033 51.1086 17.6584 49.3245 17.6584C47.5403 17.6584 46.0271 17.033 44.7845 15.7825C43.5423 14.5318 42.9209 13.0227 42.9209 11.255C42.9209 9.47089 43.5464 7.95377 44.7973 6.70328C46.0478 5.4528 47.557 4.82708 49.3245 4.82708ZM49.2995 6.57802C48.049 6.57802 46.9739 7.02435 46.0734 7.91643C45.173 8.80851 44.7224 9.92139 44.7224 11.255C44.7224 12.5893 45.1685 13.698 46.0606 14.5819C46.9527 15.4656 48.0325 15.9078 49.2995 15.9078C50.5669 15.9078 51.6508 15.4656 52.5512 14.5819C53.4515 13.698 53.9023 12.5893 53.9023 11.255C53.9023 9.92139 53.4515 8.80851 52.5512 7.91643C51.6508 7.02435 50.5669 6.57802 49.2995 6.57802ZM76.0134 4.82708C77.7142 4.82708 79.0437 5.35243 80.0024 6.40281C80.9613 7.45348 81.4405 8.91251 81.4405 10.7804V17.5085H79.6398V10.8554C79.6398 9.42129 79.294 8.34993 78.6021 7.64129C77.9102 6.93237 76.9637 6.57802 75.7629 6.57802C74.4292 6.57802 73.3742 7.01155 72.5989 7.87878C71.8234 8.74601 71.4356 9.97162 71.4356 11.5555V17.5085H69.6349V10.8554C69.6349 9.42129 69.2884 8.34993 68.5964 7.64129C67.9044 6.93237 66.9583 6.57802 65.7579 6.57802C64.4403 6.57802 63.3941 7.01155 62.619 7.87878C61.8432 8.74601 61.4556 9.97162 61.4556 11.5555V17.5085H59.6299V5.00248H60.9303L61.0316 7.8538C61.4981 6.8366 62.1815 6.07787 63.0822 5.57739C63.9826 5.07734 64.9581 4.82708 66.0084 4.82708C67.2259 4.82708 68.2597 5.11512 69.1103 5.69015C69.9605 6.26533 70.5525 7.10337 70.886 8.20388C71.3027 7.08641 71.9868 6.24451 72.9372 5.67766C73.8878 5.11081 74.9129 4.82708 76.0134 4.82708ZM105.327 17.5085H94.421V0H96.3723V15.6823H105.327V17.5085ZM110.879 3.15144C110.663 3.35155 110.396 3.45156 110.079 3.45156C109.762 3.45156 109.495 3.35213 109.279 3.15144C109.062 2.95133 108.954 2.70937 108.954 2.42594C108.954 2.14252 109.062 1.90091 109.279 1.7008C109.495 1.50069 109.762 1.4005 110.079 1.4005C110.396 1.4005 110.663 1.50128 110.879 1.7008C111.096 1.90091 111.205 2.14252 111.205 2.42594C111.205 2.70937 111.097 2.95133 110.879 3.15144ZM109.154 17.5085V5.00248H110.979V17.5085H109.154ZM121.209 4.82708C122.293 4.82708 123.285 5.09801 124.185 5.64001C125.086 6.18201 125.778 6.89497 126.262 7.77886L126.361 5.00248H127.662V15.9328C127.662 17.8503 127.133 19.384 126.074 20.5347C125.015 21.6853 123.518 22.2693 121.584 22.2858C119.549 22.2858 117.757 21.6523 116.207 20.3848L117.257 19.2341C118.625 20.168 120.067 20.635 121.584 20.635C122.951 20.635 123.998 20.2597 124.723 19.5093C125.448 18.759 125.811 17.6919 125.811 16.3077V14.8069C125.361 15.6073 124.727 16.2537 123.91 16.7455C123.093 17.2374 122.193 17.4835 121.209 17.4835C119.442 17.4835 117.957 16.8666 116.757 15.6327C115.556 14.3984 114.956 12.9063 114.956 11.1553C114.956 9.42129 115.556 7.93295 116.757 6.69079C117.957 5.44864 119.442 4.82708 121.209 4.82708ZM121.335 6.57802C120.084 6.57802 119.009 7.02013 118.108 7.90359C117.208 8.78733 116.758 9.87135 116.758 11.1553C116.758 12.4559 117.208 13.5439 118.108 14.4193C119.009 15.2949 120.084 15.7324 121.335 15.7324C122.602 15.7324 123.686 15.2949 124.587 14.4193C125.487 13.5439 125.937 12.4559 125.937 11.1553C125.937 9.87135 125.487 8.78733 124.587 7.90359C123.686 7.02013 122.602 6.57802 121.335 6.57802ZM138.793 4.82708C140.494 4.82708 141.824 5.35243 142.783 6.40281C143.742 7.45348 144.221 8.91251 144.221 10.7804V17.5085H142.42V10.8554C142.42 9.42129 142.074 8.34993 141.382 7.64129C140.69 6.93237 139.744 6.57802 138.543 6.57802C137.226 6.57802 136.18 7.01155 135.404 7.87878C134.629 8.74601 134.241 9.97162 134.241 11.5555V17.5085H132.415V0H134.241V7.52852C134.674 6.6116 135.312 5.93212 136.155 5.48995C136.996 5.04823 137.876 4.82708 138.793 4.82708ZM151.649 6.72808V17.5085H149.824V6.72808H147.998V5.00248H149.824V0.80044H151.649V5.00248H153.475V6.72808H151.649ZM170.033 6.72808V17.5085H168.207V6.72808H163.63V5.00248H174.611V6.72808H170.033ZM183.04 4.82708C184.824 4.82708 186.341 5.45678 187.592 6.71559C188.843 7.97441 189.467 9.48785 189.467 11.255C189.467 13.0227 188.843 14.5318 187.592 15.7825C186.341 17.033 184.824 17.6584 183.04 17.6584C181.256 17.6584 179.742 17.033 178.5 15.7825C177.257 14.5318 176.636 13.0227 176.636 11.255C176.636 9.47089 177.262 7.95377 178.513 6.70328C179.763 5.4528 181.272 4.82708 183.04 4.82708ZM183.015 6.57802C181.764 6.57802 180.689 7.02435 179.789 7.91643C178.888 8.80851 178.438 9.92139 178.438 11.255C178.438 12.5893 178.884 13.698 179.776 14.5819C180.668 15.4656 181.748 15.9078 183.015 15.9078C184.282 15.9078 185.366 15.4656 186.266 14.5819C187.167 13.698 187.617 12.5893 187.617 11.255C187.617 9.92139 187.167 8.80851 186.266 7.91643C185.366 7.02435 184.282 6.57802 183.015 6.57802ZM204.675 17.5085H202.85V12.081H195.171V17.5085H193.345V5.00248H195.171V10.3299H202.85V5.00248H204.675V17.5085ZM218.632 17.5085L216.581 14.3569C215.948 13.3729 215.435 12.7228 215.043 12.4057C214.651 12.0891 214.03 11.9306 213.179 11.9306H211.279V17.5085H209.453V5.00248H211.279V10.1798H212.905C213.755 10.1798 214.376 10.0213 214.768 9.70466C215.16 9.38777 215.673 8.73755 216.306 7.75353L218.107 5.00248H220.158L217.807 8.55397C217.324 9.28774 216.919 9.83821 216.594 10.2048C216.269 10.5715 215.923 10.8383 215.555 11.0052C216.006 11.1383 216.41 11.3973 216.769 11.7805C217.127 12.1641 217.565 12.7559 218.082 13.5564L220.659 17.5085H218.632ZM235.04 17.5085H233.239V8.054L224.91 17.5085H223.81V5.00248H225.636V14.4568L233.965 5.00248H235.04V17.5085ZM247.834 2.61365C247.142 3.23882 246.296 3.55184 245.295 3.55184C244.294 3.55184 243.449 3.23882 242.757 2.61365C242.065 1.98834 241.718 1.21731 241.718 0.299942H243.044C243.044 0.850273 243.261 1.30905 243.695 1.67564C244.128 2.04282 244.661 2.22592 245.295 2.22592C245.928 2.22592 246.467 2.04282 246.909 1.67564C247.35 1.30905 247.571 0.850273 247.571 0.299942H248.872C248.872 1.21731 248.526 1.98834 247.834 2.61365ZM250.923 17.5085H249.122V8.054L240.793 17.5085H239.692V5.00248H241.519V14.4568L249.848 5.00248H250.923V17.5085Z" fill="black"/>
</svg>
