<svg width="254" height="21" viewBox="0 0 254 21" fill="none" xmlns="http://www.w3.org/2000/svg">
<path fill-rule="evenodd" clip-rule="evenodd" d="M7.06588 4.35852H3.11043V9.92163H6.69617V11.9254H3.11043V19.9409H0.737305V2.35403H7.06588V4.35852ZM15.6084 8.15481V16.1178C15.6084 17.4889 15.3446 18.504 14.8176 19.1633C14.2901 19.8225 13.3495 20.1518 11.9963 20.1518C10.7658 20.1518 9.85155 19.7566 9.25416 18.9656C8.81448 18.3856 8.59468 17.4363 8.59468 16.1178V8.15481H10.7573V15.221C10.7573 15.3087 10.7569 15.4452 10.7715 15.63C10.7861 15.8145 10.7865 15.9507 10.7865 16.0386C10.8041 16.4783 10.8259 16.8125 10.8522 17.0407C10.8785 17.2694 10.9964 17.4974 11.2076 17.7262C11.4185 17.9545 11.7176 18.0688 12.1041 18.0688C12.368 18.0688 12.5878 18.0207 12.7635 17.9242C12.9392 17.8278 13.0756 17.7174 13.1725 17.5945C13.269 17.4717 13.339 17.2868 13.383 17.0407C13.4269 16.7947 13.4487 16.6017 13.4487 16.4608C13.4487 16.3204 13.449 16.1008 13.4344 15.8016C13.4198 15.5029 13.4194 15.3092 13.4194 15.2214V8.15517L15.6084 8.15481ZM21.6729 9.84276H20.486V19.9409H18.3241V9.84276H17.1115V8.15481H18.3241V4.80674H20.486V8.15481H21.6729V9.84276ZM30.2419 8.15481V16.1178C30.2419 17.4889 29.978 18.504 29.4511 19.1633C28.9235 19.8225 27.983 20.1518 26.6297 20.1518C25.3991 20.1518 24.485 19.7566 23.8876 18.9656C23.4479 18.3856 23.2281 17.4363 23.2281 16.1178V8.15481H25.39V15.221C25.39 15.3087 25.3904 15.4452 25.405 15.63C25.4196 15.8145 25.4193 15.9507 25.4193 16.0386C25.4368 16.4783 25.4586 16.8125 25.4849 17.0407C25.5112 17.2694 25.6299 17.4974 25.8411 17.7262C26.052 17.9545 26.3509 18.0688 26.7375 18.0688C27.0013 18.0688 27.2213 18.0207 27.397 17.9242C27.5725 17.8278 27.7083 17.7174 27.8052 17.5945C27.9017 17.4717 27.9726 17.2868 28.0165 17.0407C28.0603 16.7947 28.0822 16.6017 28.0822 16.4608C28.0822 16.3204 28.0825 16.1008 28.0679 15.8016C28.0533 15.5029 28.0529 15.3092 28.0529 15.2214V8.15517L30.2419 8.15481ZM37.4134 7.89145V10.1589C37.3257 10.1414 37.1937 10.1325 37.018 10.1325C36.1743 10.1325 35.6031 10.3566 35.3043 10.8045C35.0055 11.2528 34.8561 11.9167 34.8561 12.7954V19.9409H32.6935V8.15481H34.8561V9.6315C35.2073 9.03366 35.5632 8.60321 35.9238 8.33966C36.2843 8.07568 36.7803 7.92667 37.4134 7.89145ZM45.6397 19.9409H43.4515V18.4381C43.2055 19.0003 42.924 19.4226 42.6078 19.7036C42.2912 19.9848 41.8524 20.1254 41.2896 20.1254C40.8501 20.1254 40.4583 20.0244 40.1155 19.8224C39.7729 19.6202 39.5054 19.3216 39.3119 18.926C39.1188 18.5307 38.9603 18.1436 38.8372 17.7658C38.7145 17.3879 38.6265 16.922 38.5739 16.368C38.5213 15.8144 38.4906 15.3795 38.4818 15.0633C38.4672 14.7468 38.4668 14.3602 38.4668 13.9031C38.4668 13.4462 38.4815 13.0637 38.4932 12.7558C38.5108 12.4484 38.5415 12.0311 38.5853 11.5036C38.6292 10.9762 38.7171 10.5326 38.8494 10.1721C38.9809 9.81198 39.1433 9.45131 39.3368 9.09086C39.5304 8.73084 39.7986 8.45389 40.1412 8.2608C40.4838 8.06741 40.8749 7.97067 41.3146 7.97067C42.2107 7.97067 42.9226 8.48049 43.45 9.50018V8.15481H45.639L45.6397 19.9409ZM43.5307 14.6943V13.4285C43.5307 11.1082 43.0651 9.94804 42.1332 9.94804C41.1838 9.94804 40.7093 11.0466 40.7093 13.244V14.852C40.7093 17.0671 41.1838 18.174 42.1332 18.174C43.0651 18.174 43.5307 17.0146 43.5307 14.6943ZM54.3671 2.35403H57.4783C58.5858 2.35403 59.4474 2.53915 60.0626 2.90823C61.2224 3.61146 61.8027 5.0615 61.8027 7.25873C61.8027 9.19213 61.2931 10.5546 60.2739 11.3455C59.5882 11.873 58.4101 12.1363 56.7403 12.1363V19.9409H54.3671V2.35403ZM56.7403 10.1061H56.9515C57.8655 10.1061 58.4896 9.87803 58.8236 9.42095C59.1575 8.96403 59.3247 8.26078 59.3247 7.31155C59.3247 5.34263 58.5683 4.35852 57.0564 4.35852H56.7403V10.1061ZM70.4773 4.43739H67.788V19.9409H65.4677V4.43739H62.7784V2.35403H70.4773V4.43739ZM84.821 17.5153V19.6775C84.2582 20.0115 83.617 20.1782 82.8961 20.1782C79.3456 20.1782 77.5695 17.2693 77.5695 11.4511C77.5695 5.22852 79.3276 2.11707 82.8432 2.11707C83.5289 2.11707 84.1882 2.29276 84.821 2.64416V4.78033C84.276 4.48156 83.7659 4.33175 83.2915 4.33175C82.7818 4.33175 82.3333 4.44573 81.9468 4.67434C81.5597 4.9031 81.2564 5.23717 81.0368 5.67641C80.8171 6.11594 80.637 6.54632 80.4965 6.9686C80.3562 7.39045 80.2594 7.91336 80.2067 8.53736C80.1541 9.16137 80.1194 9.64902 80.1018 10.0009C80.0843 10.3522 80.0754 10.792 80.0754 11.3191C80.0754 15.6783 81.191 17.8579 83.4235 17.8579C83.8984 17.8579 84.3646 17.7439 84.8217 17.5153H84.821ZM92.9281 11.9914C93.0071 12.598 93.0466 13.2878 93.0466 14.0609C93.0466 14.8345 93.0071 15.5203 92.9281 16.1178C92.8492 16.7152 92.6912 17.3485 92.4542 18.0163C92.2167 18.6842 91.8337 19.2028 91.3066 19.5719C90.7792 19.9411 90.1205 20.1254 89.3296 20.1254C88.6968 20.1254 88.1473 19.9937 87.6816 19.73C87.2159 19.4664 86.855 19.1367 86.6003 18.7415C86.3454 18.3458 86.1431 17.858 85.9936 17.278C85.8444 16.6978 85.7478 16.1663 85.7038 15.6828C85.66 15.1993 85.6382 14.6588 85.6382 14.0609C85.6382 13.4635 85.6552 12.9227 85.6903 12.4396C85.7254 11.956 85.8177 11.42 85.9672 10.8313C86.1169 10.2425 86.3191 9.75484 86.5739 9.36778C86.8286 8.98131 87.1937 8.65188 87.668 8.37928C88.1425 8.10667 88.6968 7.97067 89.3296 7.97067C90.1205 7.97067 90.7792 8.15493 91.3066 8.52416C91.8337 8.89339 92.2167 9.41179 92.4542 10.0801C92.6912 10.7481 92.8491 11.385 92.9281 11.9914ZM90.7798 14.7468V13.3232C90.7798 11.0729 90.3135 9.94804 89.3817 9.94804C88.4501 9.94804 87.9849 11.0639 87.9849 13.2965V14.7203C87.9849 16.9703 88.4501 18.0955 89.3817 18.0955C90.3135 18.0955 90.7798 16.9792 90.7798 14.7468ZM102.038 19.9409H99.8762V12.2948C99.8587 11.9083 99.841 11.6133 99.8234 11.4112C99.8059 11.209 99.7623 10.9674 99.6921 10.686C99.6219 10.4048 99.4943 10.1986 99.3095 10.0669C99.1251 9.93532 98.892 9.86881 98.6108 9.86881C98.2942 9.86881 98.035 9.93902 97.8328 10.0801C97.6307 10.2204 97.4898 10.4402 97.411 10.7388C97.3321 11.0381 97.2844 11.2882 97.2669 11.4904C97.2493 11.6927 97.2405 11.9694 97.2405 12.3208V19.9409H95.0786V8.15481H97.2405V9.52587C97.5743 8.99849 97.9218 8.60808 98.2818 8.35287C98.6422 8.09795 99.1034 7.97067 99.6657 7.97067C100.158 7.97067 100.567 8.05819 100.892 8.23403C101.217 8.40973 101.459 8.66479 101.617 8.99879C101.775 9.33308 101.885 9.67566 101.947 10.0269C102.008 10.3787 102.039 10.7829 102.039 11.2399L102.038 19.9409ZM111.24 19.9409H109.052V18.4381C108.806 19.0003 108.524 19.4226 108.208 19.7036C107.891 19.9848 107.452 20.1254 106.889 20.1254C106.45 20.1254 106.059 20.0244 105.716 19.8224C105.373 19.6202 105.105 19.3216 104.912 18.926C104.718 18.5307 104.561 18.1436 104.438 17.7658C104.315 17.3879 104.226 16.922 104.174 16.368C104.121 15.8144 104.09 15.3795 104.081 15.0633C104.067 14.7468 104.067 14.3602 104.067 13.9031C104.067 13.5162 104.067 13.191 104.081 12.9275C104.096 12.6639 104.113 12.308 104.148 11.8597C104.183 11.4114 104.235 11.029 104.306 10.7128C104.376 10.3962 104.481 10.0535 104.622 9.68432C104.762 9.31509 104.934 9.01664 105.136 8.78788C105.339 8.55956 105.593 8.36593 105.901 8.20763C106.208 8.04976 106.555 7.97067 106.942 7.97067C107.469 7.97067 107.887 8.09358 108.195 8.34002C108.502 8.58603 108.788 8.97265 109.052 9.50018V0.719604H111.24V19.9409ZM109.13 14.6943V13.4285C109.13 11.1082 108.665 9.94804 107.733 9.94804C106.784 9.94804 106.31 11.0466 106.31 13.244V14.852C106.31 17.0671 106.784 18.174 107.733 18.174C108.665 18.174 109.13 17.0146 109.13 14.6943ZM131.331 19.9409H129.038C128.774 15.9329 128.625 13.4987 128.589 12.6373C128.589 12.3738 128.572 11.9827 128.536 11.464C128.501 10.9457 128.484 10.5545 128.484 10.291C128.467 9.99177 128.462 9.71956 128.469 9.47341C128.484 9.22741 128.484 8.95447 128.469 8.65584C128.455 8.35707 128.439 8.0847 128.404 7.83899C128.245 8.87607 127.498 12.9099 126.163 19.9409H124.581C124.476 19.4133 124.268 18.4424 123.961 17.0275C123.653 15.6124 123.425 14.5399 123.276 13.8107C123.126 13.0812 122.95 12.1409 122.748 10.9894C122.546 9.83797 122.384 8.78778 122.261 7.83899L121.575 19.9409H119.36L120.81 2.35403H122.84L124.369 9.52587C124.387 9.66619 124.435 9.878 124.514 10.1589C124.593 10.4403 124.641 10.6511 124.659 10.792C124.887 12.0574 125.107 13.481 125.318 15.0633C125.318 15.0282 125.45 14.202 125.714 12.5849C125.749 12.374 125.797 12.053 125.859 11.6221C125.92 11.1916 125.968 10.871 126.003 10.6596C126.038 10.5193 126.086 10.3127 126.148 10.0401C126.209 9.7675 126.249 9.56142 126.266 9.42095L127.637 2.35403H129.694L131.331 19.9409ZM139.795 14.4834H134.838C134.838 16.9968 135.339 18.2533 136.341 18.2533C137.237 18.2533 137.686 17.4891 137.686 15.9597H139.716C139.681 16.9968 139.532 17.7876 139.268 18.3325C138.706 19.5279 137.721 20.1254 136.315 20.1254C135.682 20.1254 135.132 19.9937 134.667 19.73C134.201 19.4664 133.845 19.1412 133.599 18.7543C133.353 18.3677 133.16 17.8799 133.019 17.2912C132.879 16.7024 132.791 16.1749 132.755 15.7092C132.72 15.2431 132.702 14.7029 132.702 14.0876C132.702 13.3319 132.738 12.6594 132.808 12.0706C132.878 11.4819 133.023 10.8446 133.243 10.1589C133.462 9.47355 133.827 8.9374 134.337 8.55093C134.847 8.16387 135.488 7.97067 136.262 7.97067C136.894 7.97067 137.439 8.12434 137.896 8.43173C138.353 8.73957 138.701 9.10896 138.938 9.53943C139.175 9.9699 139.364 10.5104 139.505 11.161C139.645 11.811 139.729 12.3739 139.755 12.8482C139.781 13.3232 139.795 13.8682 139.795 14.4834H139.795ZM134.838 12.9007H137.581C137.511 11.6002 137.352 10.7568 137.105 10.3698C136.895 10.0011 136.596 9.816 136.21 9.816C135.401 9.816 134.944 10.7829 134.838 12.7166C134.838 12.7516 134.838 12.7868 134.838 12.8218C134.838 12.8569 134.838 12.8832 134.838 12.9007ZM148.47 19.9409H146.281V18.4381C146.035 19.0003 145.754 19.4226 145.437 19.7036C145.121 19.9848 144.682 20.1254 144.119 20.1254C143.68 20.1254 143.289 20.0244 142.946 19.8224C142.603 19.6202 142.335 19.3216 142.141 18.926C141.948 18.5307 141.791 18.1436 141.668 17.7658C141.545 17.3879 141.456 16.922 141.403 16.368C141.351 15.8144 141.32 15.3795 141.311 15.0633C141.297 14.7468 141.297 14.3602 141.297 13.9031C141.297 13.5162 141.297 13.191 141.311 12.9275C141.326 12.6639 141.343 12.308 141.378 11.8597C141.413 11.4114 141.465 11.029 141.536 10.7128C141.606 10.3962 141.711 10.0535 141.852 9.68432C141.992 9.31509 142.164 9.01664 142.366 8.78788C142.568 8.55956 142.823 8.36593 143.131 8.20763C143.439 8.04976 143.785 7.97067 144.172 7.97067C144.7 7.97067 145.117 8.09358 145.425 8.34002C145.732 8.58603 146.018 8.97265 146.282 9.50018V0.719604H148.47V19.9409ZM146.36 14.6943V13.4285C146.36 11.1082 145.895 9.94804 144.963 9.94804C144.014 9.94804 143.54 11.0466 143.54 13.244V14.852C143.54 17.0671 144.014 18.174 144.963 18.174C145.895 18.174 146.36 17.0146 146.36 14.6943ZM152.966 3.5802C153.256 3.87021 153.4 4.21758 153.4 4.62188C153.4 5.02634 153.256 5.37341 152.966 5.66356C152.676 5.95356 152.337 6.09858 151.95 6.09858C151.546 6.09858 151.199 5.95386 150.909 5.66356C150.619 5.37341 150.473 5.02634 150.473 4.62188C150.473 4.21758 150.618 3.87021 150.909 3.5802C151.199 3.2902 151.546 3.14555 151.95 3.14555C152.337 3.14555 152.676 3.29035 152.966 3.5802ZM153.11 19.9409H150.948V8.15481H153.11V19.9409ZM162.602 8.15481V16.1178C162.602 17.4889 162.339 18.504 161.812 19.1633C161.284 19.8225 160.344 20.1518 158.99 20.1518C157.76 20.1518 156.846 19.7566 156.248 18.9656C155.809 18.3856 155.589 17.4363 155.589 16.1178V8.15481H157.751V15.221C157.751 15.3087 157.751 15.4452 157.766 15.63C157.78 15.8145 157.78 15.9507 157.78 16.0386C157.797 16.4783 157.82 16.8125 157.846 17.0407C157.873 17.2694 157.99 17.4974 158.202 17.7262C158.413 17.9545 158.712 18.0688 159.098 18.0688C159.362 18.0688 159.581 18.0207 159.757 17.9242C159.933 17.8278 160.07 17.7174 160.167 17.5945C160.263 17.4717 160.333 17.2868 160.377 17.0407C160.421 16.7947 160.443 16.6017 160.443 16.4608C160.443 16.3204 160.443 16.1008 160.428 15.8016C160.414 15.5029 160.413 15.3092 160.413 15.2214V8.15517L162.602 8.15481ZM176.603 19.9409H174.441V12.1891C174.441 11.2224 174.335 10.607 174.124 10.3434C173.931 10.0799 173.632 9.94804 173.228 9.94804C172.965 9.94804 172.745 10.0004 172.569 10.1061C172.393 10.2114 172.261 10.3171 172.173 10.4227C172.086 10.5279 172.02 10.7126 171.976 10.9762C171.932 11.2396 171.91 11.429 171.91 11.5429C171.91 11.6569 171.91 11.873 171.91 12.1891V19.9409H169.748V12.1891C169.748 11.8199 169.748 11.5563 169.733 11.398C169.719 11.2397 169.685 11.0202 169.615 10.7388C169.545 10.4579 169.417 10.2556 169.232 10.1325C169.048 10.0098 168.806 9.94804 168.507 9.94804C168.244 9.94804 168.024 10.0004 167.848 10.1061C167.673 10.2114 167.545 10.3171 167.466 10.4227C167.387 10.5279 167.325 10.7126 167.281 10.9762C167.237 11.2396 167.215 11.429 167.215 11.5429C167.215 11.6569 167.215 11.873 167.215 12.1891V19.9409H165.053V8.15481H167.215V9.60509C167.532 9.06017 167.857 8.65188 168.191 8.37928C168.525 8.10667 168.964 7.97067 169.509 7.97067C170.089 7.97067 170.533 8.09795 170.841 8.35287C171.148 8.60808 171.408 9.02494 171.619 9.60509C171.918 9.04278 172.251 8.6297 172.62 8.36571C172.989 8.10217 173.473 7.97067 174.071 7.97067C174.897 7.97067 175.526 8.19477 175.956 8.64264C176.387 9.09094 176.602 9.72819 176.602 10.5543L176.603 19.9409ZM190.129 14.8784V13.3232C190.129 11.7234 189.909 10.7041 189.47 10.2646C189.259 10.0536 189.013 9.94804 188.732 9.94804C188.45 9.94804 188.204 10.0532 187.993 10.2646C187.554 10.7041 187.334 11.7234 187.334 13.3232V14.8784C187.334 16.3726 187.554 17.3393 187.993 17.779C188.204 17.9899 188.45 18.0955 188.732 18.0955C189.013 18.0955 189.259 17.9902 189.47 17.779C189.909 17.3393 190.129 16.3726 190.129 14.8784ZM192.397 14.0609C192.397 16.6273 191.913 18.3677 190.947 19.2817C190.367 19.8444 189.619 20.1254 188.705 20.1254C187.773 20.1254 187.018 19.8444 186.438 19.2817C185.471 18.3677 184.988 16.6273 184.988 14.0609C184.988 11.4772 185.471 9.72844 186.438 8.81429C187.018 8.25168 187.773 7.97067 188.705 7.97067C189.619 7.97067 190.367 8.25168 190.947 8.81429C191.913 9.72844 192.397 11.4772 192.397 14.0609ZM199.384 14.8784V13.4285C199.384 11.8291 199.164 10.8094 198.725 10.3698C198.514 10.1589 198.268 10.0537 197.987 10.0537C197.705 10.0537 197.459 10.1589 197.248 10.3698C196.808 10.8094 196.589 11.8291 196.589 13.4285V14.8784C196.589 16.3726 196.808 17.3393 197.248 17.779C197.459 17.9899 197.705 18.0955 197.987 18.0955C198.268 18.0955 198.514 17.9902 198.725 17.779C199.164 17.3393 199.384 16.3726 199.384 14.8784ZM198.962 5.04369L198.329 5.36023C197.556 5.72931 196.994 6.29177 196.642 7.04747C196.326 7.7333 196.185 8.60344 196.22 9.65791C196.361 9.20083 196.589 8.83172 196.905 8.55093C197.309 8.16387 197.829 7.97067 198.461 7.97067C199.217 7.97067 199.859 8.24296 200.385 8.78788C201.229 9.70189 201.652 11.4421 201.652 14.0084C201.652 16.5396 201.16 18.2886 200.175 19.2553C199.578 19.8353 198.83 20.1254 197.934 20.1254C197.002 20.1254 196.246 19.8444 195.666 19.2817C195.245 18.8599 194.919 18.2665 194.691 17.5021C194.462 16.7372 194.331 16.0473 194.295 15.4319C194.26 14.8171 194.242 14.0262 194.242 13.0592C194.242 11.319 194.322 9.71079 194.48 8.23403C194.674 6.47633 195.192 5.18467 196.036 4.35852C196.423 3.97146 197.038 3.58484 197.882 3.19836C197.987 3.14574 198.141 3.08003 198.343 3.00066C198.545 2.92173 198.69 2.86024 198.778 2.81581C198.866 2.77196 198.971 2.71919 199.094 2.65736C199.217 2.59597 199.318 2.53905 199.398 2.48642C199.477 2.4338 199.542 2.37246 199.595 2.30157C199.806 2.0734 199.912 1.80052 199.912 1.48436H201.837C201.766 2.52114 201.432 3.33015 200.834 3.9103C200.694 4.05063 200.536 4.17819 200.36 4.2925C200.184 4.40651 200.035 4.49876 199.912 4.56907C199.789 4.63923 199.621 4.72297 199.411 4.81958C199.2 4.91606 199.05 4.99107 198.962 5.04369ZM213.385 19.9409H211.223V8.15481H213.385V19.9409ZM205.896 8.15481V12.6638H206.266C207.707 12.6638 208.771 13.0152 209.456 13.7183C210.071 14.3337 210.379 15.2304 210.379 16.4079C210.379 17.6033 210.063 18.4993 209.43 19.0972C208.832 19.6594 207.909 19.9409 206.661 19.9409H203.734V8.15481H205.896ZM205.896 18.0955H206.424C207.039 18.0955 207.478 17.9725 207.742 17.7262C208.023 17.4448 208.164 17.0053 208.164 16.4079C208.164 15.7752 208.005 15.3002 207.689 14.9841C207.372 14.6675 206.863 14.5094 206.16 14.5094H205.896V18.0955ZM219.897 19.9409V14.7996C219.352 14.9931 218.772 15.0893 218.156 15.0893C217.207 15.0893 216.487 14.8519 215.995 14.3774C215.467 13.8852 215.204 13.0416 215.204 11.8462V8.15481H217.314V11.6089C217.314 12.189 217.428 12.5934 217.656 12.8222C217.867 13.0331 218.21 13.1384 218.685 13.1384C219.159 13.1384 219.563 13.0593 219.897 12.9007V8.15481H222.059V19.9409H219.897ZM226.7 8.15481V12.6638H229.336V8.15481H231.498V19.9409H229.336V14.6151H226.7V19.9409H224.538V8.15481H226.7ZM243.627 19.9409H241.465V8.15481H243.627V19.9409ZM236.139 8.15481V12.6638H236.508C237.949 12.6638 239.012 13.0152 239.698 13.7183C240.313 14.3337 240.621 15.2304 240.621 16.4079C240.621 17.6033 240.304 18.4993 239.672 19.0972C239.074 19.6594 238.151 19.9409 236.903 19.9409H233.977V8.15481H236.139ZM236.139 18.0955H236.666C237.281 18.0955 237.721 17.9725 237.984 17.7262C238.266 17.4448 238.406 17.0053 238.406 16.4079C238.406 15.7752 238.248 15.3002 237.932 14.9841C237.615 14.6675 237.105 14.5094 236.402 14.5094H236.139V18.0955ZM246.105 8.15481H248.268V14.0348C248.268 14.4567 248.241 15.1686 248.189 16.1706C248.294 15.7314 248.514 15.072 248.848 14.1933L251.273 8.15481H253.383V19.9409H251.22V14.0876C251.22 13.3845 251.247 12.69 251.3 12.0046C251.141 12.6552 250.904 13.3756 250.588 14.1665L248.215 19.9409H246.105V8.15481ZM251.247 3.67263L253.066 4.30535C252.82 5.04365 252.433 5.61525 251.906 6.01971C251.361 6.42358 250.64 6.62566 249.744 6.62566C248.847 6.62566 248.127 6.42358 247.582 6.01971C247.055 5.61525 246.667 5.04365 246.421 4.30535L248.241 3.67263C248.328 4.04186 248.496 4.33174 248.742 4.54266C248.988 4.75358 249.322 4.85955 249.744 4.85955C250.166 4.85955 250.5 4.75402 250.746 4.54266C250.992 4.33174 251.159 4.04186 251.247 3.67263Z" fill="black"/>
</svg>
