<svg width="254" height="21" viewBox="0 0 254 21" fill="none" xmlns="http://www.w3.org/2000/svg">
<path fill-rule="evenodd" clip-rule="evenodd" d="M15.6788 3.04433L13.5833 4.98691C13.1316 4.46727 12.5771 4.0654 11.926 3.78446C11.2715 3.50352 10.5629 3.36461 9.79843 3.36461C8.72744 3.36461 7.69989 3.63859 6.72157 4.18629C5.74004 4.73413 4.97822 5.45952 4.43052 6.35993C3.88648 7.26326 3.6126 8.22359 3.6126 9.24123C3.6126 10.6284 4.0924 11.7811 5.05289 12.7022C6.00958 13.6201 7.24116 14.079 8.74569 14.079C10.3499 14.079 11.7407 13.6168 12.9145 12.6915L14.6146 14.9219C12.8716 16.153 10.8516 16.7681 8.5537 16.7681C6.94232 16.7681 5.56917 16.4623 4.43766 15.8505C3.31025 15.2421 2.399 14.3422 1.71624 13.1576C1.02967 11.9767 0.688477 10.6924 0.688477 9.30885C0.688477 7.83253 1.09341 6.41301 1.90466 5.05435C2.71225 3.69906 3.81184 2.62841 5.19563 1.84581C6.57958 1.06672 8.08726 0.675307 9.72349 0.675307C12.0181 0.675307 14.0031 1.46481 15.6788 3.04433ZM25.4118 13.0545L27.862 14.3245C27.3143 15.043 26.585 15.6123 25.678 16.0319C24.7744 16.4517 23.7675 16.6618 22.6611 16.6618C20.9325 16.6618 19.5706 16.1778 18.5708 15.2065C17.5746 14.2354 17.0763 12.9479 17.0763 11.3399C17.0763 9.50432 17.6992 7.94975 18.9476 6.67968C20.1927 5.40975 21.7008 4.77297 23.4655 4.77297C24.5254 4.77297 25.4723 5.00472 26.3047 5.46706C27.1335 5.93276 27.7878 6.60524 28.2681 7.49118C28.7483 8.37653 28.9862 9.337 28.9862 10.3757C28.9862 10.7031 28.9514 11.08 28.8827 11.5176H19.8291C19.8583 12.304 20.1176 12.9336 20.6049 13.3997C21.0959 13.8659 21.7719 14.1003 22.6362 14.1003C23.6786 14.1003 24.6035 13.7518 25.4111 13.0545H25.4118ZM26.1263 9.49032C25.9167 8.80375 25.5683 8.28418 25.0807 7.92869C24.5933 7.57642 24.0066 7.3984 23.3163 7.3984C22.6368 7.3984 22.0176 7.57979 21.4699 7.94653C20.9189 8.30904 20.5025 8.8248 20.2145 9.49032H26.1263ZM32.1165 5.0506H34.8951L34.738 6.21415C35.8017 5.25337 36.9122 4.77297 38.0611 4.77297C39.0433 4.77297 39.8468 5.08249 40.4728 5.70152C41.1022 6.32421 41.4156 7.10327 41.4156 8.04592C41.4156 8.49057 41.3557 9.15218 41.2379 10.031L40.3693 16.3842H37.5915L38.438 10.1839C38.5198 9.54701 38.5622 9.07047 38.5622 8.75358C38.5622 8.29855 38.4304 7.94655 38.1703 7.70084C37.9072 7.45556 37.5373 7.33452 37.0534 7.33452C36.5877 7.33452 36.118 7.49436 35.6523 7.81842C35.1824 8.14204 34.8228 8.58663 34.5739 9.15933C34.3214 9.73188 34.0909 10.8062 33.8809 12.3786L33.347 16.3842H30.5685L32.1165 5.0506ZM45.481 0.824832H48.2595L47.6835 5.0506H49.4443L49.1096 7.46245H47.3524L46.1362 16.3842H43.3577L44.5746 7.46245H43.2085L43.5318 5.0506H44.905L45.481 0.824832ZM51.3442 5.0506H54.122L53.3319 10.8382C53.2472 11.475 53.2078 11.9553 53.2078 12.2719C53.2078 12.7699 53.3822 13.1894 53.7273 13.5277C54.0758 13.8658 54.5311 14.0364 55.0863 14.0364C55.8047 14.0364 56.356 13.8194 56.7435 13.3819C57.128 12.9481 57.4122 12.062 57.5936 10.7245L58.3694 5.0506H61.1479L60.315 11.1444C60.1266 12.5175 59.8104 13.5774 59.3658 14.3281C58.9212 15.0822 58.3341 15.6585 57.5979 16.0605C56.8648 16.4623 56.0001 16.6618 55.0078 16.6618C53.6061 16.6618 52.4961 16.2598 51.6711 15.4594C50.8457 14.6588 50.4328 13.6237 50.4328 12.3538C50.4328 11.5782 50.5221 10.5787 50.7069 9.35846L51.3442 5.0506ZM63.4954 5.0506H65.9748L65.7757 6.58743C66.519 5.37801 67.4122 4.77297 68.4543 4.77297C68.7034 4.77297 68.9626 4.84014 69.2365 4.97227L68.2266 7.51223C68.0132 7.43769 67.8565 7.39822 67.757 7.39822C67.2127 7.39822 66.7258 7.71143 66.2953 8.33748C65.8648 8.96352 65.5266 10.2298 65.2811 12.1366L64.7265 16.384H61.948L63.4954 5.0506ZM69.4043 5.0506H72.1428L74.3554 11.7915L78.2402 5.0506H81.2285L72.3205 20.5246H69.3829L72.616 14.8331L69.4043 5.0506ZM103.358 3.9231L100.957 5.47741C100.26 4.68765 99.5906 4.13655 98.9431 3.82711C98.2992 3.51752 97.5672 3.36461 96.7455 3.36461C94.9738 3.36461 93.5331 4.07603 92.4197 5.499C91.5375 6.63007 91.0964 7.88592 91.0964 9.26942C91.0964 10.6284 91.5479 11.7705 92.4554 12.6953C93.3624 13.6167 94.4795 14.079 95.8063 14.079C96.7953 14.079 97.6913 13.8371 98.5027 13.3569C99.3102 12.8766 99.9721 12.1582 100.488 11.1977H95.6921L96.0482 8.48718H103.817C103.707 11.0234 102.91 13.0405 101.433 14.5308C99.957 16.0212 98.072 16.7681 95.7849 16.7681C93.2981 16.7681 91.338 15.9076 89.9152 14.1855C88.7662 12.802 88.1937 11.1583 88.1937 9.24819C88.1937 6.92174 89.0335 4.91183 90.7124 3.21509C92.3914 1.5217 94.3936 0.675307 96.7127 0.675307C97.5775 0.675307 98.417 0.799424 99.2386 1.05215C100.06 1.30123 100.8 1.65341 101.458 2.10507C102.12 2.55718 102.753 3.16155 103.358 3.9231ZM112.355 4.77297C113.361 4.77297 114.275 5.00457 115.097 5.47027C115.922 5.93261 116.563 6.59112 117.022 7.44461C117.48 8.29488 117.708 9.25167 117.708 10.312C117.708 12.0729 117.078 13.5702 115.823 14.8083C114.563 16.0427 113.008 16.6618 111.155 16.6618C109.544 16.6618 108.26 16.174 107.299 15.2033C106.342 14.2284 105.862 12.9549 105.862 11.3826C105.862 9.4828 106.513 7.90712 107.812 6.65487C109.11 5.39898 110.622 4.77297 112.355 4.77297ZM112.151 7.41981C111.009 7.41981 110.135 7.82549 109.526 8.64009C108.918 9.4547 108.615 10.3369 108.615 11.2832C108.615 12.1297 108.865 12.8091 109.363 13.325C109.857 13.8405 110.519 14.1003 111.348 14.1003C112.521 14.1003 113.418 13.7055 114.033 12.9194C114.649 12.1334 114.954 11.2367 114.954 10.2265C114.954 9.39408 114.695 8.71847 114.172 8.19884C113.652 7.67964 112.977 7.41981 112.151 7.41981ZM121.457 0.824832H124.235L123.659 5.0506H125.42L125.085 7.46245H123.328L122.112 16.3842H119.333L120.55 7.46245H119.184L119.508 5.0506H120.881L121.457 0.824832ZM127.9 0.675307H130.677L129.923 6.21415C130.987 5.25337 132.097 4.77297 133.246 4.77297C134.228 4.77297 135.032 5.08249 135.658 5.70152C136.287 6.32421 136.601 7.10327 136.601 8.04592C136.601 8.49057 136.541 9.15218 136.423 10.031L135.555 16.3842H132.776L133.623 10.1839C133.705 9.54701 133.747 9.07047 133.747 8.75358C133.747 8.29855 133.616 7.94655 133.356 7.70084C133.096 7.45556 132.726 7.33452 132.243 7.33452C131.776 7.33452 131.31 7.49436 130.844 7.81842C130.378 8.13824 130.019 8.58663 129.77 9.15933C129.518 9.72866 129.29 10.8029 129.08 12.375L128.532 16.3842H125.753L127.9 0.675307ZM141.648 0.41908C142.121 0.41908 142.524 0.586564 142.861 0.924217C143.199 1.26231 143.366 1.66421 143.366 2.13737C143.366 2.61052 143.199 3.01251 142.861 3.35016C142.524 3.68825 142.121 3.8553 141.648 3.8553C141.175 3.8553 140.773 3.68825 140.435 3.35016C140.098 3.01251 139.93 2.61052 139.93 2.13737C139.93 1.66421 140.098 1.26231 140.435 0.924217C140.773 0.586564 141.175 0.41908 141.648 0.41908ZM139.749 5.0506H142.527L140.979 16.3842H138.201L139.749 5.0506ZM155.578 7.40571L153.224 8.68274C152.555 7.83948 151.659 7.41981 150.535 7.41981C149.777 7.41981 149.105 7.5797 148.521 7.89996C147.938 8.22359 147.472 8.68618 147.127 9.2944C146.778 9.90305 146.603 10.5431 146.603 11.2225C146.603 12.0906 146.877 12.7876 147.428 13.3143C147.976 13.8371 148.731 14.1003 149.688 14.1003C151.019 14.1003 152.035 13.6555 152.744 12.7627L154.931 14.3067C154.315 15.043 153.544 15.6192 152.626 16.0357C151.705 16.4517 150.68 16.6618 149.549 16.6618C147.785 16.6618 146.393 16.1778 145.376 15.2065C144.359 14.2354 143.85 12.9551 143.85 11.3615C143.85 9.54009 144.48 7.98541 145.735 6.70145C146.991 5.4169 148.61 4.77297 150.592 4.77297C152.818 4.77297 154.483 5.65181 155.578 7.40571ZM163.775 5.0506H174.35L173.984 7.76132H170.21L169.032 16.3842H166.176L167.353 7.76132H163.401L163.775 5.0506ZM181.422 4.77297C182.429 4.77297 183.343 5.00457 184.164 5.47027C184.99 5.93261 185.63 6.59112 186.089 7.44461C186.548 8.29488 186.776 9.25167 186.776 10.312C186.776 12.0729 186.146 13.5702 184.89 14.8083C183.631 16.0427 182.077 16.6618 180.223 16.6618C178.612 16.6618 177.327 16.174 176.367 15.2033C175.41 14.2284 174.93 12.9549 174.93 11.3826C174.93 9.4828 175.581 7.90712 176.879 6.65487C178.178 5.39898 179.69 4.77297 181.422 4.77297ZM181.219 7.41981C180.077 7.41981 179.202 7.82549 178.594 8.64009C177.986 9.4547 177.683 10.3369 177.683 11.2832C177.683 12.1297 177.932 12.8091 178.43 13.325C178.925 13.8405 179.587 14.1003 180.415 14.1003C181.589 14.1003 182.486 13.7055 183.101 12.9194C183.716 12.1334 184.022 11.2367 184.022 10.2265C184.022 9.39408 183.763 8.71847 183.24 8.19884C182.721 7.67964 182.044 7.41981 181.219 7.41981ZM198.582 16.3842H195.601L193.769 9.51137L190.059 16.3842H187.078L193.435 5.0506H195.27L198.582 16.3842ZM212.015 7.40571L209.659 8.68274C208.991 7.83948 208.094 7.41981 206.97 7.41981C206.213 7.41981 205.54 7.5797 204.957 7.89996C204.373 8.22359 203.907 8.68618 203.562 9.2944C203.214 9.90305 203.039 10.5431 203.039 11.2225C203.039 12.0906 203.313 12.7876 203.865 13.3143C204.412 13.8371 205.166 14.1003 206.124 14.1003C207.454 14.1003 208.471 13.6555 209.179 12.7627L211.367 14.3067C210.752 15.043 209.98 15.6192 209.062 16.0357C208.141 16.4517 207.116 16.6618 205.985 16.6618C204.221 16.6618 202.83 16.1778 201.812 15.2065C200.795 14.2354 200.286 12.9551 200.286 11.3615C200.286 9.54009 200.916 7.98541 202.172 6.70145C203.427 5.4169 205.046 4.77297 207.027 4.77297C209.254 4.77297 210.919 5.65181 212.015 7.40571ZM214.238 5.0506H224.813L224.447 7.76132H220.673L219.495 16.3842H216.639L217.816 7.76132H213.864L214.238 5.0506ZM237.655 5.0506H240.511L238.964 16.3842H236.108L237.655 5.0506ZM229.612 5.0506L229.053 9.14844H229.9C231.643 9.14844 232.835 9.47258 233.468 10.1198C234.105 10.7674 234.421 11.5782 234.421 12.5493C234.421 13.2395 234.275 13.8799 233.987 14.4596C233.699 15.043 233.347 15.4699 232.931 15.7402C232.518 16.0108 232.074 16.1848 231.604 16.2632C231.135 16.345 230.345 16.3845 229.235 16.3845H225.222L226.769 5.05078L229.612 5.0506ZM228.363 14.1855H229.235C230.071 14.1855 230.647 14.057 230.964 13.7978C231.277 13.5384 231.433 13.1542 231.433 12.6418C231.433 11.8488 230.928 11.4538 229.921 11.4538H228.737L228.363 14.1855ZM243.503 16.3842H241.981L243.528 5.0506H246.32L245.442 11.6493L251.795 5.0506H253.275L251.77 16.3842H248.938L249.825 9.89553L243.503 16.3842ZM244.862 0.0561523H247.168C247.285 0.33373 247.462 0.532952 247.701 0.650326C248.05 0.824708 248.48 0.910121 248.996 0.910121C249.469 0.910121 249.878 0.838504 250.222 0.696718C250.568 0.553471 250.841 0.340746 251.052 0.0561523H253.357C253.087 0.952761 252.553 1.66761 251.756 2.1909C250.959 2.71711 249.945 2.98027 248.714 2.98027C247.426 2.98027 246.459 2.71014 245.815 2.16931C245.175 1.63242 244.855 0.927913 244.862 0.0561523Z" fill="black"/>
</svg>
