<svg width="252" height="20" viewBox="0 0 252 20" fill="none" xmlns="http://www.w3.org/2000/svg">
<path fill-rule="evenodd" clip-rule="evenodd" d="M8.72991 2.47205V4.77381H3.16787V8.82526H8.53792V11.1267H3.16787V18.4627H0.722656V2.47205H8.72991ZM11.0795 8.36954H13.4283V14.1471C13.4283 14.9945 13.5732 15.6016 13.8601 15.9696C14.212 16.4328 14.7234 16.6648 15.3947 16.6648C16.0659 16.6648 16.5773 16.4328 16.9292 15.9696C17.2167 15.6016 17.3602 14.9945 17.3602 14.1471V8.36954H19.7098V14.2192C19.7098 15.7055 19.35 16.8085 18.6307 17.5273C17.7995 18.3584 16.7055 18.7742 15.3468 18.7742C14.0363 18.7742 12.9728 18.3584 12.1579 17.5273C11.4386 16.8085 11.0795 15.7055 11.0795 14.2192V8.36954ZM26.902 10.5275H25.1041V18.4627H22.7546V10.5275H21.7718V8.36954H22.7546V4.67781H25.1041V8.36954H26.902V10.5275ZM28.4843 8.36954H30.8332V14.1471C30.8332 14.9945 30.9781 15.6016 31.265 15.9696C31.6168 16.4328 32.1283 16.6648 32.7995 16.6648C33.4707 16.6648 33.9822 16.4328 34.334 15.9696C34.6215 15.6016 34.7651 14.9945 34.7651 14.1471V8.36954H37.1147V14.2192C37.1147 15.7055 36.7554 16.8085 36.0362 17.5273C35.205 18.3584 34.1096 18.7742 32.751 18.7742C31.4404 18.7742 30.3777 18.3584 29.5628 17.5273C28.8435 16.8085 28.4843 15.7055 28.4843 14.2192V8.36954ZM40.0873 18.4627V8.36954H42.4369V9.28061C42.7406 8.92878 43.0679 8.64919 43.4197 8.44163C43.8029 8.21784 44.2827 8.10618 44.8578 8.10618C45.5453 8.10618 46.1604 8.26606 46.7035 8.58545L45.745 10.7191C45.3613 10.4793 44.9622 10.3594 44.5466 10.3594C43.9235 10.3594 43.4355 10.5433 43.0842 10.9108C42.6524 11.3744 42.4369 12.1496 42.4369 13.2364V18.4627H40.0873ZM54.927 9.54433V8.36954H57.2759V18.4627H54.927V17.4078C54.1439 18.3189 53.1372 18.7742 51.9066 18.7742C50.4199 18.7742 49.2332 18.2468 48.3465 17.1919C47.4594 16.1374 47.0154 14.8743 47.0154 13.4041C47.0154 11.8056 47.4912 10.5232 48.4422 9.55611C49.393 8.58948 50.5557 8.10618 51.9301 8.10618C53.193 8.10618 54.1915 8.58545 54.927 9.54433ZM52.2177 10.2159C51.3865 10.2159 50.7114 10.5273 50.1922 11.1506C49.6726 11.7737 49.4128 12.5413 49.4128 13.452C49.4128 14.3474 49.6726 15.1063 50.1922 15.7295C50.7114 16.3527 51.3865 16.6648 52.2177 16.6648C53.0166 16.6648 53.6918 16.3848 54.2433 15.8254C54.7948 15.2656 55.0705 14.4827 55.0705 13.4759C55.0705 12.437 54.7948 11.6341 54.2433 11.0663C53.6918 10.4992 53.0166 10.2159 52.2177 10.2159ZM66.2659 2.47205H69.7903C71.2608 2.47205 72.4267 2.75968 73.2897 3.3353C73.929 3.7665 74.421 4.33021 74.765 5.0254C75.1085 5.72073 75.2803 6.45207 75.2803 7.21902C75.2803 8.65763 74.7602 9.82368 73.7215 10.7191C72.7465 11.5498 71.444 11.9656 69.8139 11.9656H68.7112V18.4627H66.2659V2.47205ZM68.7112 4.72599V9.71206H69.8139C70.8369 9.71206 71.6118 9.48457 72.1392 9.02867C72.6667 8.57335 72.9307 7.96215 72.9307 7.19476C72.9307 6.92346 72.8945 6.66744 72.8229 6.42786C72.7513 6.188 72.6152 5.92825 72.4154 5.64848C72.2153 5.36885 71.8914 5.14502 71.444 4.97722C70.9964 4.80942 70.4454 4.72599 69.7903 4.72599H68.7112ZM85.8762 4.77417H82.2084V18.4627H79.7632V4.77417H76.0953V2.47241H85.8762V4.77417ZM95.6335 18.4627H93.1405L96.4964 1.27371L102.058 13.6921L107.668 1.27371L110.689 18.4627H108.196L106.566 8.82561L101.914 19.206L97.3114 8.8017L95.6335 18.4627ZM120.686 15.0586L122.651 16.1616C122.204 16.9604 121.637 17.5757 120.949 18.0073C120.166 18.5186 119.175 18.7742 117.977 18.7742C116.57 18.7742 115.436 18.3428 114.573 17.4799C113.582 16.4887 113.086 15.2025 113.086 13.62C113.086 11.9582 113.621 10.5752 114.692 9.4726C115.603 8.56152 116.73 8.10618 118.072 8.10618C119.383 8.10618 120.462 8.54586 121.309 9.42478C122.252 10.3996 122.724 11.8222 122.724 13.6921V13.9798H115.484C115.548 14.8271 115.835 15.5061 116.346 16.0174C116.778 16.4491 117.377 16.6648 118.144 16.6648C118.767 16.6648 119.303 16.4972 119.751 16.1616C120.118 15.8737 120.43 15.5061 120.686 15.0586ZM115.651 12.062H120.326C120.23 11.5026 119.99 11.047 119.607 10.6956C119.191 10.3119 118.664 10.1199 118.024 10.1199C117.353 10.1199 116.802 10.3359 116.371 10.7673C116.019 11.0871 115.779 11.5184 115.651 12.062ZM132.552 9.54469V0.986084H134.902V18.4627H132.552V17.4078C131.769 18.3189 130.762 18.7742 129.532 18.7742C128.045 18.7742 126.858 18.2468 125.972 17.1919C125.085 16.1374 124.641 14.8747 124.641 13.4045C124.641 11.806 125.116 10.5235 126.067 9.55647C127.018 8.58984 128.181 8.10618 129.555 8.10618C130.818 8.10618 131.817 8.58581 132.552 9.54469ZM129.844 10.2163C129.013 10.2163 128.337 10.5277 127.817 11.1509C127.298 11.774 127.038 12.5413 127.038 13.452C127.038 14.3474 127.298 15.1067 127.817 15.7298C128.337 16.3531 129.013 16.6648 129.844 16.6648C130.642 16.6648 131.318 16.3852 131.869 15.8258C132.421 15.266 132.696 14.4831 132.696 13.4762C132.696 12.4374 132.421 11.6344 131.869 11.0667C131.318 10.4996 130.642 10.2163 129.844 10.2163ZM137.874 8.3699H140.223V18.4627H137.874V8.3699ZM137.971 5.2777C137.683 4.9896 137.539 4.6299 137.539 4.19855C137.539 3.76676 137.682 3.40771 137.971 3.11976C138.258 2.83209 138.618 2.68831 139.049 2.68831C139.481 2.68831 139.841 2.83166 140.128 3.11976C140.416 3.40771 140.559 3.76676 140.559 4.19855C140.559 4.6299 140.416 4.9896 140.128 5.2777C139.841 5.56522 139.481 5.70879 139.049 5.70879C138.618 5.70879 138.258 5.56565 137.971 5.2777ZM143.197 8.3699H145.546V14.1475C145.546 14.9948 145.691 15.6016 145.978 15.9696C146.33 16.4328 146.841 16.6648 147.512 16.6648C148.183 16.6648 148.695 16.4328 149.046 15.9696C149.334 15.6016 149.478 14.9948 149.478 14.1475V8.3699H151.827V14.2196C151.827 15.7058 151.468 16.8088 150.749 17.5277C149.917 18.3588 148.823 18.7742 147.464 18.7742C146.153 18.7742 145.091 18.3588 144.276 17.5277C143.557 16.8088 143.197 15.7058 143.197 14.2196V8.3699ZM154.8 18.4627V8.3699H157.149V9.30488C157.805 8.50562 158.636 8.10618 159.643 8.10618C160.81 8.10618 161.681 8.60177 162.256 9.59251C162.943 8.60177 163.942 8.10618 165.253 8.10618C166.563 8.10618 167.522 8.63359 168.129 9.6885C168.481 10.3116 168.657 11.1586 168.657 12.2297V18.4627H166.308V12.901C166.308 12.0218 166.236 11.4226 166.091 11.1027C165.868 10.5115 165.42 10.2163 164.749 10.2163C164.173 10.2163 163.71 10.4634 163.359 10.9589C163.055 11.3907 162.903 12.1577 162.903 13.2607V18.4627H160.554V12.901C160.554 12.0218 160.482 11.4226 160.338 11.1027C160.115 10.5115 159.667 10.2163 158.996 10.2163C158.42 10.2163 157.957 10.4634 157.605 10.9589C157.302 11.3907 157.149 12.1577 157.149 13.2607V18.4627H154.8ZM184.167 10.5278H181.219V18.4627H178.869V10.5278H175.921V8.3699H184.167V10.5278ZM186.601 9.60464C187.632 8.60557 188.914 8.10618 190.449 8.10618C191.983 8.10618 193.266 8.60557 194.296 9.60464C195.327 10.6036 195.842 11.8778 195.842 13.4284C195.842 14.9626 195.327 16.2375 194.296 17.2522C193.266 18.2669 191.983 18.7742 190.449 18.7742C188.914 18.7742 187.632 18.2669 186.601 17.2522C185.57 16.2375 185.054 14.9626 185.054 13.4284C185.054 11.8778 185.57 10.6036 186.601 9.60464ZM188.267 15.7898C188.81 16.3733 189.538 16.6648 190.449 16.6648C191.359 16.6648 192.086 16.3733 192.63 15.7898C193.173 15.2064 193.445 14.4269 193.445 13.452C193.445 12.3814 193.153 11.5743 192.57 11.031C191.986 10.4874 191.279 10.2163 190.449 10.2163C189.618 10.2163 188.91 10.4874 188.327 11.031C187.743 11.5743 187.452 12.3814 187.452 13.452C187.452 14.4269 187.724 15.2064 188.267 15.7898ZM206.582 8.3699V18.4627H204.233V10.5278H201.26V14.5311C201.26 15.7778 200.941 16.7446 200.302 17.432C199.487 18.3431 198.383 18.6863 196.993 18.4627V16.3054C197.68 16.4649 198.232 16.3201 198.647 15.8497C198.887 15.5621 199.007 15.1224 199.007 14.5311V8.3699H206.582ZM217.37 8.82561V11.4625C216.523 10.6313 215.572 10.2163 214.518 10.2163C213.623 10.2163 212.879 10.5115 212.288 11.1027C211.713 11.6782 211.425 12.4535 211.425 13.4284C211.425 14.4352 211.729 15.2427 212.336 15.8497C212.912 16.3933 213.623 16.6648 214.47 16.6648C215.636 16.6648 216.603 16.2331 217.37 15.3701V17.9834C216.523 18.5108 215.501 18.7742 214.302 18.7742C212.688 18.7742 211.41 18.279 210.466 17.2882C209.508 16.2972 209.028 15.0345 209.028 13.5001C209.028 11.9178 209.539 10.6154 210.562 9.59251C211.553 8.60177 212.904 8.10618 214.614 8.10618C215.588 8.10618 216.507 8.34617 217.37 8.82561ZM226.816 10.5278H223.867V18.4627H221.518V10.5278H218.569V8.3699H226.816V10.5278ZM228.494 18.4627V8.3699H230.843V11.9417H232.186C232.617 11.9417 232.969 11.9566 233.241 11.9785C233.512 12.0019 233.84 12.094 234.223 12.2543C234.607 12.414 234.943 12.6539 235.23 12.9734C235.758 13.5647 236.022 14.3 236.022 15.1788C236.022 16.1858 235.718 16.9926 235.111 17.6001C234.839 17.872 234.516 18.0759 234.14 18.2114C233.765 18.3474 233.452 18.4235 233.205 18.4391C232.957 18.4552 232.61 18.4641 232.162 18.4641L228.494 18.4627ZM230.843 16.4489H231.922C232.498 16.4489 232.905 16.3773 233.145 16.233C233.497 15.9773 233.672 15.6342 233.672 15.2024C233.672 14.7548 233.504 14.4193 233.169 14.1957C232.913 14.0356 232.505 13.9559 231.946 13.9559H230.843V16.4489ZM237.077 18.4627V8.3699H239.426V18.4627H237.077ZM242.398 8.3699H244.747V14.0997L251.653 7.45919V18.4627H249.303V12.5894L242.398 19.2299V8.3699ZM243.166 4.00691L245.083 3.45521C245.387 4.49389 246.042 5.01362 247.049 5.01362C248.04 5.01362 248.695 4.49389 249.015 3.45521L250.933 4.00691C250.677 4.91799 250.162 5.61692 249.386 6.10455C248.611 6.59188 247.832 6.8354 247.049 6.8354C246.266 6.8354 245.487 6.59188 244.712 6.10455C243.937 5.61692 243.421 4.91799 243.166 4.00691Z" fill="black"/>
</svg>
