<svg width="240" height="17" viewBox="0 0 240 17" fill="none" xmlns="http://www.w3.org/2000/svg">
<path fill-rule="evenodd" clip-rule="evenodd" d="M13.2503 5.20521C13.2503 5.84734 13.1001 6.94642 12.8006 8.50225C12.4298 10.3858 12.0796 11.7557 11.7514 12.6119C11.4229 13.4683 10.9311 14.2032 10.2748 14.8173C9.26121 15.7731 7.89823 16.2511 6.18584 16.2511H0.941406L4.00256 1.00959H8.86159C10.1315 1.00959 11.1812 1.3485 12.0091 2.02629C12.8366 2.70423 13.2503 3.76412 13.2503 5.20521ZM11.0456 5.37686C11.0456 4.59178 10.8275 3.98855 10.3925 3.56758C9.95708 3.14661 9.31812 2.93629 8.47618 2.93629H5.82256L3.55292 14.3244H6.16443C7.23469 14.3244 8.12005 14.0034 8.81948 13.3613C9.20478 13.0045 9.52901 12.4725 9.79299 11.7661C10.057 11.0597 10.3245 9.97185 10.5959 8.50225C10.8954 6.94642 11.0456 5.90483 11.0456 5.37686ZM19.7366 1.00959L16.6754 16.2511H14.47L17.5312 1.00959H19.7366ZM34.4214 1.00959L31.3603 16.2511H29.4332L24.8525 5.33368L22.6479 16.2511H20.4424L23.5036 1.00959H25.4521L30.0327 11.9271L32.216 1.00959H34.4214ZM52.3601 4.86298C52.3601 6.33273 51.8636 7.57444 50.872 8.58754C49.8801 9.60094 48.5357 10.1071 46.8373 10.1071H43.455L42.2131 16.2511H40.0084L43.0696 1.00959H48.3569C49.6554 1.00959 50.6474 1.37374 51.3324 2.10123C52.0176 2.82931 52.3601 3.74975 52.3601 4.86298ZM50.1547 5.03392C50.1547 4.4203 49.9843 3.92112 49.6416 3.53582C49.2989 3.15051 48.7638 2.95806 48.0357 2.95806H44.8889L43.8404 8.18108H46.923C47.9074 8.18108 48.6924 7.87415 49.2776 7.26038C49.8625 6.64675 50.1547 5.90451 50.1547 5.03392ZM61.7356 6.29685L60.002 7.83849C59.6311 7.36739 59.1748 7.13191 58.6323 7.13191C57.9902 7.13191 57.4261 7.36739 56.9408 7.83849C56.4557 8.3096 56.1345 8.91566 55.978 9.65777L54.6505 16.2511H52.5742L54.7361 5.39792H56.7695L56.5126 6.59697C57.212 5.71191 58.1826 5.26945 59.4238 5.26945C60.3802 5.26945 61.1505 5.6119 61.7356 6.29685ZM70.3838 8.84448C70.3838 9.44408 70.3195 10.1002 70.1911 10.8136C69.7772 12.8833 69.1141 14.3314 68.2005 15.1591C67.3159 15.9726 66.2384 16.3796 64.968 16.3796C63.9836 16.3796 63.1412 16.0799 62.4422 15.4803C61.7427 14.8812 61.393 13.9891 61.393 12.8046C61.393 12.191 61.4574 11.5272 61.5857 10.8136C61.9995 8.75893 62.6639 7.31747 63.577 6.48956C64.4476 5.67626 65.5243 5.26945 66.8087 5.26945C67.7936 5.26945 68.6359 5.56923 69.3353 6.16838C70.0343 6.76797 70.3838 7.66036 70.3838 8.84448ZM68.329 9.03683C68.329 8.39471 68.1721 7.91339 67.8586 7.59226C67.5445 7.27112 67.1305 7.11014 66.6167 7.11014C65.9604 7.11014 65.4037 7.33903 64.9466 7.79567C64.3903 8.35214 63.9621 9.35808 63.6626 10.8136C63.5194 11.5417 63.4485 12.134 63.4485 12.5905C63.4485 13.2472 63.6084 13.7357 63.9296 14.0568C64.2507 14.3779 64.6614 14.5386 65.1607 14.5386C65.817 14.5386 66.3742 14.3104 66.8308 13.8537C67.4018 13.2968 67.8294 12.2838 68.1148 10.8136C68.2581 10.0862 68.329 9.49347 68.329 9.03683ZM92.861 1.00959L89.7999 16.2511H87.5945L89.6714 5.97603L84.8973 13.1686H83.2707L81.3223 5.89039L79.2461 16.2511H77.02L80.0811 1.00959H82.1787L84.5333 10.3429L90.6984 1.00959H92.861ZM102.815 9.0586C102.815 9.70087 102.708 10.4854 102.493 11.4132H95.7723C95.7007 11.7985 95.6652 12.1483 95.6652 12.462C95.6652 13.1187 95.8402 13.6433 96.1898 14.0357C96.5396 14.4281 97.0568 14.6246 97.7422 14.6246C98.7411 14.6246 99.6758 14.2244 100.546 13.4252L101.702 14.7955C100.589 15.8517 99.2047 16.3796 97.5495 16.3796C96.4506 16.3796 95.5295 16.0657 94.7874 15.4379C94.0453 14.8098 93.6747 13.8608 93.6747 12.5905C93.6747 11.3777 93.8568 10.2323 94.2207 9.1546C94.5845 8.07732 95.191 7.16041 96.0399 6.40427C96.8893 5.64769 97.9132 5.26945 99.1118 5.26945C100.254 5.26945 101.156 5.61919 101.82 6.31862C102.483 7.01805 102.815 7.93119 102.815 9.0586H102.815ZM100.823 9.0586C100.823 8.38783 100.657 7.87412 100.321 7.51732C99.9857 7.16052 99.5463 6.98203 99.004 6.98203C97.5625 6.98203 96.5705 7.98094 96.0285 9.97895H100.738C100.795 9.55081 100.823 9.24424 100.823 9.0586ZM115.337 1.00959L112.298 16.2511H110.286L110.521 15.0953C109.793 15.9517 108.844 16.3796 107.674 16.3796C106.603 16.3796 105.833 16.0762 105.362 15.4696C104.891 14.863 104.655 14.0962 104.655 13.1686C104.655 12.5979 104.755 11.8127 104.955 10.8136C105.398 8.58747 105.989 7.10319 106.732 6.36109C107.459 5.6336 108.409 5.26945 109.579 5.26945C110.778 5.26945 111.634 5.71191 112.148 6.59697L113.261 1.00959H115.337ZM111.548 8.97295C111.548 7.73153 111.006 7.11014 109.921 7.11014C109.065 7.11014 108.426 7.42452 108.006 8.05261C107.585 8.68041 107.26 9.60087 107.032 10.8136C106.875 11.6987 106.796 12.3193 106.796 12.6761C106.796 13.918 107.331 14.5386 108.402 14.5386C109.258 14.5386 109.9 14.2177 110.328 13.5754C110.756 12.9333 111.085 12.0128 111.313 10.8136C111.47 9.92902 111.548 9.31558 111.548 8.97295ZM119.854 5.39792L117.67 16.2511H115.594L117.778 5.39792H119.854ZM120.753 1.09524L120.368 2.97876H118.163L118.526 1.09524H120.753ZM131.371 5.39792L129.209 16.2511H127.197L127.411 15.1377C126.654 15.9655 125.648 16.3796 124.392 16.3796C123.607 16.3796 122.933 16.1189 122.369 15.5981C121.805 15.0773 121.523 14.3243 121.523 13.3399C121.523 12.9686 121.559 12.5903 121.63 12.2054L123 5.39792H125.076L123.75 12.0555C123.678 12.4122 123.642 12.6979 123.642 12.9116C123.642 13.4399 123.796 13.8429 124.103 14.121C124.409 14.3993 124.798 14.5386 125.269 14.5386C125.497 14.5386 125.73 14.5065 125.965 14.4422C126.201 14.3779 126.458 14.264 126.736 14.1C127.014 13.9358 127.264 13.6751 127.485 13.3185C127.706 12.9617 127.867 12.5264 127.967 12.0131L129.294 5.39792H131.371ZM148.646 8.30955C148.646 8.6377 148.603 9.01602 148.517 9.44401L147.147 16.2511H145.071L146.419 9.59354C146.491 9.23688 146.527 8.95157 146.527 8.73743C146.527 8.2096 146.373 7.80648 146.066 7.52802C145.76 7.24957 145.363 7.11014 144.878 7.11014C144.65 7.11014 144.422 7.14253 144.193 7.20685C143.965 7.27116 143.711 7.38499 143.433 7.54943C143.155 7.71358 142.905 7.97359 142.684 8.33025C142.463 8.68705 142.302 9.12257 142.202 9.63636L140.875 16.2508H138.798L140.126 9.59318C140.198 9.23652 140.233 8.95157 140.233 8.73743C140.233 8.2096 140.08 7.80648 139.773 7.52802C139.466 7.24957 139.076 7.11014 138.606 7.11014C138.377 7.11014 138.146 7.14218 137.91 7.20649C137.674 7.27081 137.418 7.38464 137.14 7.54908C136.861 7.71323 136.611 7.97359 136.39 8.33025C136.169 8.68705 136.008 9.12257 135.908 9.63636L134.582 16.2508H132.505L134.667 5.39756H136.679L136.465 6.51097C137.222 5.68321 138.228 5.26909 139.484 5.26909C140.64 5.26909 141.482 5.79733 142.009 6.85356C142.923 5.79733 144.122 5.26909 145.606 5.26909C146.448 5.26909 147.165 5.53661 147.757 6.07203C148.349 6.60687 148.646 7.3528 148.646 8.30919L148.646 8.30955ZM164.594 8.84448C164.594 9.44408 164.529 10.1002 164.401 10.8136C163.987 12.8833 163.323 14.3314 162.41 15.1591C161.525 15.9726 160.448 16.3796 159.178 16.3796C158.194 16.3796 157.351 16.0799 156.652 15.4803C155.953 14.8812 155.603 13.9891 155.603 12.8046C155.603 12.191 155.667 11.5272 155.796 10.8136C156.21 8.75893 156.873 7.31747 157.786 6.48956C158.657 5.67626 159.734 5.26945 161.019 5.26945C162.004 5.26945 162.846 5.56923 163.545 6.16838C164.244 6.76797 164.594 7.66036 164.594 8.84448ZM162.538 9.03683C162.538 8.39471 162.381 7.91339 162.068 7.59226C161.754 7.27112 161.34 7.11014 160.826 7.11014C160.17 7.11014 159.614 7.33903 159.157 7.79567C158.6 8.35214 158.171 9.35808 157.872 10.8136C157.729 11.5417 157.658 12.134 157.658 12.5905C157.658 13.2472 157.818 13.7357 158.14 14.0568C158.461 14.3779 158.871 14.5386 159.371 14.5386C160.027 14.5386 160.583 14.3104 161.04 13.8537C161.611 13.2968 162.039 12.2838 162.325 10.8136C162.468 10.0862 162.538 9.49347 162.538 9.03683ZM176.367 0.902893L175.982 2.74358C173.841 2.7582 172.321 3.02905 171.423 3.55687C170.909 3.87099 170.498 4.28496 170.191 4.79875C169.884 5.31254 169.617 6.01913 169.389 6.91779C170.073 6.00466 171.037 5.5478 172.278 5.5478C173.149 5.5478 173.877 5.81879 174.462 6.36109C175.047 6.90352 175.34 7.7813 175.34 8.99437C175.34 9.60814 175.275 10.2501 175.147 10.9211C174.919 12.0339 174.651 12.9191 174.345 13.5754C174.038 14.2317 173.641 14.7885 173.156 15.2451C172.329 16.0013 171.279 16.3796 170.009 16.3796C169.082 16.3796 168.265 16.0978 167.559 15.5338C166.852 14.9704 166.499 14.0674 166.499 12.826C166.499 12.1979 166.649 11.1492 166.948 9.67918C167.405 7.36721 167.84 5.70111 168.254 4.68098C168.668 3.66042 169.196 2.89373 169.838 2.37994C170.466 1.88033 171.276 1.51626 172.268 1.28795C173.26 1.05963 174.626 0.931396 176.367 0.902893ZM173.263 9.14425C173.263 8.53048 173.11 8.07745 172.803 7.78496C172.496 7.49248 172.101 7.34602 171.615 7.34602C170.987 7.34602 170.452 7.56726 170.009 8.00943C169.453 8.56619 169.039 9.53668 168.768 10.9211C168.639 11.5914 168.575 12.1841 168.575 12.6979C168.575 13.3115 168.732 13.7643 169.046 14.0568C169.36 14.3497 169.753 14.4961 170.224 14.4961C170.852 14.4961 171.393 14.2672 171.85 13.8106C172.406 13.2541 172.814 12.2908 173.071 10.9211C173.199 10.2501 173.263 9.6576 173.263 9.14425ZM185.571 12.3767C185.571 13.4896 185.201 14.4139 184.459 15.1484C183.717 15.8835 182.696 16.2511 181.398 16.2511H176.86L179.022 5.39792H181.098L180.264 9.50825H182.554C183.524 9.50825 184.27 9.77599 184.791 10.3108C185.312 10.8461 185.571 11.5348 185.571 12.3767ZM183.538 12.5694C183.538 11.6557 183.046 11.1991 182.061 11.1991H179.942L179.256 14.5603H181.355C182.125 14.5603 182.682 14.3423 183.024 13.9073C183.367 13.4718 183.538 13.026 183.538 12.5694ZM190.495 5.39792L188.311 16.2511H186.235L188.418 5.39792H190.495ZM201.37 5.39792L199.208 16.2511H197.132L197.923 12.2054C196.967 12.4619 196.054 12.5905 195.183 12.5905C194.356 12.5905 193.699 12.3798 193.214 11.9588C192.729 11.5378 192.486 10.9496 192.486 10.1931C192.486 9.92206 192.521 9.60811 192.593 9.25131L193.364 5.39792H195.44L194.755 8.80166C194.698 9.07266 194.67 9.32969 194.67 9.57248C194.67 10.3431 195.148 10.7284 196.105 10.7284C196.818 10.7284 197.539 10.6288 198.266 10.4282L199.293 5.39792H201.37ZM212.844 5.39792L210.682 16.2511H208.605L209.526 11.6276H205.48L204.56 16.2511H202.483L204.624 5.39792H206.701L205.844 9.76519H209.89L210.767 5.39792H212.844ZM222.691 12.3767C222.691 13.4896 222.32 14.4139 221.578 15.1484C220.836 15.8835 219.815 16.2511 218.517 16.2511H213.978L216.14 5.39792H218.217L217.382 9.50825H219.673C220.643 9.50825 221.388 9.77599 221.909 10.3108C222.43 10.8461 222.691 11.5348 222.691 12.3767ZM220.657 12.5694C220.657 11.6557 220.165 11.1991 219.18 11.1991H217.062L216.376 14.5603H218.474C219.245 14.5603 219.801 14.3423 220.143 13.9073C220.486 13.4718 220.657 13.026 220.657 12.5694ZM227.615 5.39792L225.431 16.2511H223.354L225.538 5.39792H227.615ZM239.324 5.39792L237.161 16.2511H235.085L236.52 9.03683L230.825 16.2511H228.749L230.911 5.39792H232.988L231.553 12.6119L237.248 5.39792H239.324ZM238.96 1.07383C238.575 2.95797 237.397 3.89981 235.428 3.89981C234.515 3.89981 233.815 3.69239 233.33 3.27888C232.845 2.86507 232.602 2.31557 232.602 1.63018C232.602 1.41648 232.616 1.23096 232.624 1.07383H234.251C234.236 1.20246 234.229 1.33076 234.229 1.45924C234.229 1.80186 234.347 2.07286 234.582 2.27253C234.818 2.47263 235.142 2.57229 235.556 2.57229C236.484 2.57229 237.062 2.0729 237.29 1.07383H238.96Z" fill="black"/>
</svg>
