<svg width="251" height="17" viewBox="0 0 251 17" fill="none" xmlns="http://www.w3.org/2000/svg">
<path fill-rule="evenodd" clip-rule="evenodd" d="M0.149952 9.84386C0.110486 7.89658 0.842422 6.19076 2.34608 4.72701C3.84973 3.26311 5.59476 2.55125 7.58195 2.59101C8.81416 2.59101 9.90703 2.87898 10.8608 3.45533C11.8147 4.03168 12.5569 4.84958 13.0869 5.90947L11.3575 6.96221C10.4833 5.33314 9.1784 4.51842 7.44277 4.51842C6.02536 4.51842 4.82 5.02798 3.82634 6.04811C2.83282 7.06823 2.33608 8.30729 2.33608 9.76446C2.33608 11.0626 2.74337 12.1291 3.55798 12.9635C4.37288 13.798 5.41611 14.2158 6.68765 14.2158C8.304 14.2158 9.68186 13.5267 10.8208 12.149L12.2918 13.3411C11.6032 14.2286 10.7549 14.9176 9.74809 15.4077C8.74127 15.8978 7.6686 16.1434 6.5292 16.1434C4.72765 16.1697 3.20702 15.5701 1.96852 14.3444C0.729577 13.1192 0.123787 11.619 0.149952 9.84386ZM23.1611 11.7317H15.9282C16.0349 12.5528 16.3485 13.1889 16.8718 13.6394C17.395 14.0898 18.0941 14.3146 18.9687 14.3146C19.9359 14.3146 20.8894 13.9637 21.83 13.2615L22.7243 14.6727C21.6644 15.6531 20.3461 16.1434 18.7695 16.1434C17.3521 16.1434 16.1762 15.6923 15.2423 14.7916C14.3083 13.8907 13.842 12.7453 13.842 11.3539C13.8157 9.8966 14.3383 8.62502 15.4115 7.53854C16.4847 6.45264 17.7432 5.92265 19.1871 5.94926C20.4459 5.94926 21.4723 6.34986 22.2675 7.15117C23.0622 7.95247 23.4594 8.99592 23.4594 10.2812C23.4594 10.7846 23.3596 11.268 23.1611 11.7317ZM16.0474 10.1219H21.3932C21.3786 9.36703 21.1679 8.7775 20.7573 8.35361C20.3467 7.92942 19.7767 7.7175 19.0479 7.7175C18.3195 7.7175 17.6833 7.93593 17.1401 8.37341C16.5974 8.81061 16.2326 9.39305 16.0474 10.1219ZM32.1233 6.24706L31.7857 8.05527C31.4678 8.00265 31.1497 7.97623 30.8315 7.97623C30.05 7.97623 29.3945 8.20177 28.8644 8.65212C28.3346 9.10262 28.0035 9.72521 27.8709 10.5199L26.9174 15.9251H24.8305L26.5591 6.16819H28.4869L28.3077 7.1815C29.0367 6.42653 29.9441 6.04882 31.0306 6.04882C31.4412 6.04882 31.8051 6.11461 32.1233 6.24777V6.24706ZM41.1647 6.16819H43.2716L41.5623 15.9251H39.5953L39.7937 14.7723C38.9587 15.6863 37.88 16.1439 36.5548 16.1439C35.3097 16.1439 34.2797 15.7063 33.4651 14.8321C32.6502 13.9578 32.2425 12.8647 32.2425 11.5532C32.2162 10.0032 32.7227 8.67527 33.7627 7.56905C34.8026 6.46312 36.051 5.92319 37.5083 5.94979C39.045 5.94979 40.1847 6.48602 40.9263 7.55906L41.1647 6.16819ZM40.3704 10.5995C40.3704 9.77833 40.1214 9.11574 39.6245 8.61233C39.1277 8.10892 38.4687 7.85739 37.6475 7.85739C36.7468 7.85739 35.9789 8.1984 35.3429 8.88087C34.7069 9.5629 34.3887 10.3874 34.3887 11.3545C34.3887 12.2025 34.6472 12.8979 35.1638 13.441C35.6805 13.9842 36.3496 14.2556 37.1707 14.2556C38.0716 14.2556 38.8303 13.9047 39.4461 13.2028C40.0622 12.5005 40.3704 11.6329 40.3704 10.5995ZM50.2861 15.9251L52.5914 2.80995H56.8838C58.2217 2.80995 59.2744 3.14427 60.0427 3.81344C60.8113 4.48261 61.1954 5.39981 61.1954 6.56538C61.1954 7.85065 60.7248 8.88745 59.7843 9.6756C58.8437 10.4636 57.6115 10.8575 56.088 10.8575H53.2866L52.3923 15.9251H50.2861ZM53.6242 8.98989H56.3863C57.2075 8.98989 57.8537 8.78454 58.3241 8.37395C58.7943 7.96292 59.0292 7.39375 59.0292 6.66494C59.0292 6.02895 58.8378 5.53869 58.4532 5.19432C58.0693 4.85008 57.519 4.67776 56.8038 4.67776H54.3793L53.6242 8.98989ZM69.1041 6.24777L68.7665 8.05581C68.4488 8.00319 68.1305 7.97694 67.8123 7.97694C67.0309 7.97694 66.3753 8.20231 65.8453 8.65266C65.3154 9.10316 64.9843 9.72574 64.8518 10.5205L63.8975 15.9257H61.8113L63.5399 6.16873H65.4677L65.2886 7.18221C66.0174 6.42724 66.9249 6.04936 68.0114 6.04936C68.422 6.04936 68.7859 6.11514 69.1041 6.24831V6.24777ZM69.2633 11.295C69.237 9.85117 69.7731 8.59245 70.8727 7.51927C71.9724 6.44652 73.2504 5.92319 74.7076 5.94979C76.1118 5.94979 77.2883 6.41662 78.2355 7.35065C79.1827 8.28453 79.6558 9.44018 79.6558 10.8183C79.6821 12.2623 79.1426 13.5174 78.0364 14.5839C76.93 15.6503 75.6353 16.1699 74.1516 16.1439C72.7606 16.1439 71.5975 15.6802 70.6636 14.7525C69.7297 13.8252 69.2633 12.6728 69.2633 11.295ZM77.5096 10.8377C77.5096 9.98993 77.2384 9.28149 76.6953 8.71172C76.1654 8.14209 75.4761 7.85739 74.6283 7.85739C73.7408 7.85739 72.9824 8.19172 72.353 8.86089C71.7236 9.52962 71.4094 10.3348 71.4094 11.2752C71.4094 12.1496 71.6705 12.8613 72.1938 13.4112C72.7173 13.9611 73.3963 14.2358 74.2308 14.2358C75.1448 14.2358 75.9201 13.908 76.5561 13.2524C77.1921 12.5966 77.5096 11.7919 77.5096 10.8377ZM100.938 2.59155H101.654L99.3089 15.9251H97.2027L98.6137 7.87738L94.1822 12.6265H93.467L90.4466 7.45967L88.9556 15.9251H86.8494L89.194 2.59155H89.9298L94.1222 9.9238L100.938 2.59155ZM111.868 11.7324H104.635C104.741 12.5536 105.055 13.1895 105.578 13.64C106.102 14.0903 106.8 14.3153 107.675 14.3153C108.642 14.3153 109.596 13.9643 110.536 13.2621L111.431 14.6733C110.371 15.6536 109.053 16.1439 107.476 16.1439C106.059 16.1439 104.883 15.693 103.949 14.7923C103.015 13.8914 102.548 12.7459 102.548 11.3545C102.521 9.89714 103.045 8.62556 104.118 7.53907C105.191 6.45317 106.45 5.92319 107.894 5.94979C109.152 5.94979 110.178 6.35039 110.973 7.1517C111.768 7.95301 112.166 8.99645 112.166 10.2817C112.166 10.7851 112.066 11.2687 111.868 11.7324ZM104.754 10.1226H110.099C110.084 9.36775 109.874 8.77804 109.463 8.35414C109.052 7.92996 108.483 7.71822 107.754 7.71822C107.026 7.71822 106.39 7.93646 105.847 8.37395C105.304 8.81115 104.939 9.39376 104.754 10.1226ZM123.552 1.02154H125.639L123.016 15.9251H121.088L121.307 14.7325C120.486 15.6734 119.393 16.1439 118.028 16.1439C116.783 16.1439 115.753 15.7029 114.938 14.8221C114.123 13.9413 113.715 12.8315 113.715 11.4936C113.689 9.95694 114.19 8.64213 115.216 7.54907C116.243 6.45659 117.478 5.92319 118.922 5.94979C120.472 5.94979 121.625 6.50589 122.38 7.61883L123.552 1.02154ZM121.843 10.6789C121.843 9.84443 121.588 9.16542 121.078 8.64213C120.568 8.11884 119.909 7.85739 119.101 7.85739C118.2 7.85739 117.435 8.19172 116.806 8.86089C116.176 9.52962 115.862 10.348 115.862 11.3152C115.862 12.1894 116.12 12.8979 116.637 13.441C117.153 13.9842 117.822 14.2556 118.644 14.2556C119.531 14.2556 120.287 13.9112 120.909 13.2226C121.532 12.5336 121.843 11.6859 121.843 10.6789ZM126.036 15.9251L127.765 6.16819H129.851L128.123 15.9251H126.036ZM128.46 3.50547C128.182 3.24032 128.043 2.91594 128.043 2.53195C128.043 2.14738 128.181 1.81952 128.46 1.54809C128.738 1.27635 129.069 1.14091 129.454 1.14091C129.851 1.14091 130.189 1.27679 130.467 1.54809C130.746 1.81952 130.885 2.14738 130.885 2.53195C130.885 2.91594 130.746 3.24032 130.467 3.50547C130.189 3.77018 129.851 3.90301 129.454 3.90301C129.069 3.90301 128.738 3.76989 128.46 3.50547ZM131.719 12.4475C131.719 12.2888 131.752 11.997 131.818 11.5732L132.752 6.16819H134.839L133.845 11.8314C133.819 11.9904 133.806 12.1628 133.806 12.348C133.806 12.9044 133.994 13.3582 134.372 13.7096C134.749 14.0605 135.23 14.2358 135.813 14.2358C136.409 14.2358 136.916 14.0571 137.333 13.6996C137.75 13.3416 138.011 12.8647 138.118 12.2689L139.171 6.16819H141.257L140.184 12.3082C139.972 13.4875 139.466 14.4214 138.664 15.1104C137.863 15.799 136.879 16.1439 135.713 16.1439C134.548 16.1439 133.591 15.799 132.842 15.1104C132.093 14.4214 131.719 13.5339 131.719 12.4475ZM158.207 9.18866C158.207 9.44022 158.168 9.80478 158.087 10.2817L157.094 15.9251H155.008L156.001 10.3015C156.067 9.86434 156.101 9.61914 156.101 9.56622C156.101 9.00975 155.936 8.57595 155.604 8.26475C155.273 7.95312 154.829 7.79762 154.273 7.79762C153.69 7.79762 153.177 7.98287 152.733 8.35414C152.289 8.72498 152.008 9.22839 151.888 9.86438L150.835 15.9251H148.729L149.743 10.3015C149.795 9.93026 149.822 9.6855 149.822 9.56622C149.822 9.00975 149.659 8.57595 149.334 8.26475C149.01 7.95312 148.57 7.79762 148.013 7.79762C147.417 7.79762 146.897 7.98287 146.453 8.35414C146.009 8.72498 145.735 9.22839 145.629 9.86438L144.555 15.9251H142.469L144.178 6.16819H146.106L145.946 7.06231C146.728 6.32064 147.656 5.94979 148.729 5.94979C150.041 5.94979 150.974 6.44656 151.531 7.44022C152.391 6.44656 153.505 5.94979 154.869 5.94979C155.889 5.94979 156.7 6.24768 157.303 6.84391C157.906 7.44014 158.207 8.2216 158.207 9.18866ZM165.759 11.295C165.733 9.85117 166.269 8.59245 167.369 7.51927C168.469 6.44652 169.746 5.92319 171.204 5.94979C172.608 5.94979 173.784 6.41662 174.731 7.35065C175.678 8.28453 176.152 9.44018 176.152 10.8183C176.178 12.2623 175.639 13.5174 174.532 14.5839C173.426 15.6503 172.131 16.1699 170.648 16.1439C169.257 16.1439 168.094 15.6802 167.16 14.7525C166.226 13.8252 165.759 12.6728 165.759 11.295ZM174.006 10.8377C174.006 9.98993 173.734 9.28149 173.191 8.71172C172.661 8.14209 171.972 7.85739 171.124 7.85739C170.237 7.85739 169.478 8.19172 168.849 8.86089C168.22 9.52962 167.905 10.3348 167.905 11.2752C167.905 12.1496 168.167 12.8613 168.69 13.4112C169.213 13.9611 169.892 14.2358 170.727 14.2358C171.641 14.2358 172.416 13.908 173.052 13.2524C173.688 12.5966 174.006 11.7919 174.006 10.8377ZM180.643 7.75801C181.464 6.72473 182.59 6.20798 184.021 6.20798C185.306 6.20798 186.359 6.63183 187.18 7.47948C188.001 8.3277 188.412 9.42034 188.412 10.7587C188.438 12.2556 187.922 13.5306 186.863 14.5839C185.803 15.6372 184.518 16.1505 183.008 16.1239C181.603 16.1239 180.457 15.693 179.57 14.8321C178.682 13.9711 178.238 12.8713 178.238 11.5334C178.238 10.8184 178.39 9.65886 178.695 8.05581C179.119 5.89673 179.842 4.35337 180.862 3.42607C181.882 2.49876 183.557 1.86267 185.889 1.51829C187.068 1.34595 187.79 1.2334 188.055 1.18034C188.505 1.08825 188.949 0.961814 189.386 0.802781L189.048 2.75035C188.584 2.90938 188.168 3.02202 187.797 3.08794C187.386 3.16687 186.697 3.26686 185.73 3.38628C184.087 3.58478 182.908 3.99574 182.193 4.61799C181.478 5.24082 180.961 6.28753 180.643 7.75801ZM180.305 11.3743C180.305 12.2092 180.563 12.8944 181.08 13.431C181.596 13.9676 182.259 14.2358 183.067 14.2358C183.968 14.2358 184.723 13.9245 185.332 13.3018C185.942 12.6795 186.247 11.9042 186.247 10.9769C186.247 10.1426 185.985 9.4533 185.462 8.91013C184.939 8.3674 184.272 8.0956 183.465 8.0956C182.577 8.0956 181.829 8.4135 181.219 9.04949C180.61 9.68548 180.305 10.4603 180.305 11.3743ZM198.567 12.4475C198.567 13.5472 198.186 14.4379 197.424 15.1204C196.663 15.8024 195.659 16.1439 194.414 16.1439C193.209 16.1439 192.261 15.8487 191.572 15.2592C190.883 14.67 190.539 13.8583 190.539 12.8249C190.539 12.5866 190.572 12.2689 190.638 11.8712L191.652 6.16819H193.738L193.221 9.10908H194.632C195.877 9.10908 196.844 9.40047 197.534 9.98339C198.222 10.5663 198.567 11.3876 198.567 12.4475ZM200.872 6.16819H202.979L201.249 15.9251H199.163L200.872 6.16819ZM196.421 12.5667C196.421 12.0368 196.239 11.6295 195.874 11.3445C195.51 11.0597 194.99 10.9173 194.315 10.9173H192.904L192.705 11.9904C192.653 12.2158 192.626 12.4475 192.626 12.6861C192.626 13.7854 193.235 14.3351 194.454 14.3351C195.063 14.3351 195.544 14.1766 195.895 13.8584C196.246 13.5405 196.422 13.1099 196.422 12.5667H196.421ZM211.345 6.16819H213.451L211.722 15.9251H209.635L210.271 12.3282C209.635 12.5668 208.96 12.6861 208.244 12.6861C207.171 12.6861 206.33 12.3811 205.721 11.772C205.112 11.1625 204.806 10.3279 204.806 9.26807C204.806 9.01621 204.84 8.672 204.906 8.23495L205.264 6.16819H207.35L207.012 8.17518C206.947 8.57247 206.913 8.85096 206.913 9.0097C206.913 9.57932 207.072 10.0197 207.39 10.3313C207.708 10.6425 208.158 10.7985 208.741 10.7985C209.364 10.7985 209.98 10.6859 210.589 10.4603L211.345 6.16819ZM214.703 15.9251L216.411 6.16819H218.498L217.842 9.90381H222.075L222.731 6.16819H224.817L223.108 15.9251H221.021L221.757 11.6926H217.524L216.789 15.9251H214.703ZM234.793 12.4475C234.793 13.5472 234.411 14.4379 233.649 15.1204C232.888 15.8024 231.884 16.1439 230.639 16.1439C229.434 16.1439 228.487 15.8487 227.797 15.2592C227.109 14.67 226.764 13.8583 226.764 12.8249C226.764 12.5866 226.797 12.2689 226.863 11.8712L227.877 6.16819H229.964L229.447 9.10908H230.858C232.103 9.10908 233.07 9.40047 233.759 9.98339C234.448 10.5663 234.793 11.3876 234.793 12.4475ZM237.097 6.16819H239.204L237.475 15.9251H235.389L237.097 6.16819ZM232.647 12.5667C232.647 12.0368 232.464 11.6295 232.1 11.3445C231.736 11.0597 231.216 10.9173 230.54 10.9173H229.129L228.93 11.9904C228.878 12.2158 228.85 12.4475 228.85 12.6861C228.85 13.7854 229.459 14.3351 230.678 14.3351C231.287 14.3351 231.768 14.1766 232.119 13.8584C232.47 13.5405 232.646 13.1099 232.646 12.5667H232.647ZM248.444 6.16819H250.531L248.822 15.9251H246.894L247.053 15.0308C246.272 15.7725 245.331 16.1439 244.232 16.1439C243.238 16.1439 242.436 15.8455 241.827 15.2492C241.218 14.6533 240.913 13.8715 240.913 12.9045C240.913 12.6398 240.952 12.2822 241.031 11.8314L242.025 6.16819H244.112L243.118 11.7522C243.052 12.1761 243.018 12.4343 243.018 12.5271C243.018 13.0836 243.191 13.5174 243.535 13.8286C243.879 14.1401 244.337 14.2954 244.906 14.2954C245.529 14.2954 246.069 14.1102 246.526 13.7394C246.983 13.3681 247.271 12.8647 247.391 12.2291L248.444 6.16819ZM243.755 1.6969C243.755 1.4851 243.801 1.14706 243.893 0.683411H245.583C245.517 1.14706 245.484 1.4388 245.484 1.55808C245.484 2.03503 245.609 2.40588 245.86 2.67059C246.112 2.93589 246.451 3.06849 246.875 3.06849C247.775 3.06849 248.318 2.4922 248.504 1.3395L248.624 0.683411H250.313L250.213 1.3395C250.041 2.33302 249.647 3.11772 249.031 3.69407C248.415 4.27042 247.657 4.55839 246.756 4.55839C245.868 4.55839 245.146 4.29367 244.59 3.76366C244.034 3.23379 243.755 2.54498 243.755 1.6969Z" fill="black"/>
</svg>
