<svg width="250" height="22" viewBox="0 0 250 22" fill="none" xmlns="http://www.w3.org/2000/svg">
<path fill-rule="evenodd" clip-rule="evenodd" d="M13.7841 16.0957H13.0047L12.246 12.0339H4.28589L1.7222 16.0957H0.819336L10.1534 1.57161H11.0563L13.7841 16.0957ZM12.1226 11.3567L10.4817 2.2898L4.71698 11.3567H12.1226ZM24.3486 6.61799L18.7074 16.0957H17.8459L16.0202 6.61799H16.7789L18.3791 15.3365H18.4197L23.5278 6.61799H24.3486ZM34.1545 11.3978H25.846C25.8182 11.6986 25.8053 11.9108 25.8053 12.0339C25.8053 13.1829 26.134 14.0851 26.7903 14.7416C27.4466 15.3982 28.3355 15.7263 29.4567 15.7263C30.8382 15.7263 32.0002 15.1725 32.944 14.065L33.4165 14.4545C32.3769 15.7265 31.043 16.3624 29.4153 16.3624C28.075 16.3624 27.0151 15.9758 26.2357 15.203C25.4563 14.4303 25.0666 13.3945 25.0666 12.0955C25.0666 10.5364 25.5829 9.18568 26.6154 8.04365C27.648 6.90177 28.9439 6.33089 30.5031 6.33089C31.7477 6.33089 32.6912 6.67632 33.3344 7.36668C33.977 8.05734 34.2979 8.95684 34.2979 10.0644C34.2979 10.5156 34.2502 10.9603 34.1552 11.3978H34.1545ZM33.5185 10.8027C33.5595 10.5292 33.5799 10.2629 33.5799 10.003C33.5799 9.08651 33.3065 8.35158 32.7591 7.79759C32.2122 7.24361 31.4531 6.96682 30.4824 6.96682C29.2649 6.96682 28.2526 7.36003 27.4455 8.14642C26.6388 8.93297 26.1396 9.81826 25.9481 10.8027H33.5185ZM42.298 6.33089C43.2829 6.33089 44.0352 6.62164 44.5548 7.20253C45.0748 7.78385 45.3342 8.56711 45.3342 9.55157C45.3342 9.87972 45.2994 10.263 45.2322 10.7005L44.2679 16.0957H43.5299L44.5142 10.5774C44.5682 10.3039 44.5962 9.97569 44.5962 9.59243C44.5962 8.82679 44.4015 8.19794 44.0117 7.70534C43.6221 7.21304 43.0031 6.96682 42.1553 6.96682C41.2115 6.96682 40.3599 7.37707 39.6009 8.19781C38.8418 9.01827 38.3326 10.1875 38.0728 11.7056L37.2934 16.0957H36.5547L37.8266 8.91582C37.977 8.0404 38.0795 7.27473 38.1342 6.61799H38.8522C38.8113 7.09699 38.7092 7.83533 38.5446 8.83338H38.5853C38.9818 8.04041 39.5084 7.42501 40.1647 6.98752C40.8215 6.54959 41.5324 6.33089 42.298 6.33089ZM48.9656 16.0957H48.2269L49.9085 6.61799H50.6479L48.9656 16.0957ZM50.832 3.31524C50.4355 3.31524 50.2375 3.11016 50.2375 2.70001C50.2375 2.50852 50.302 2.34453 50.4323 2.20772C50.5624 2.07032 50.7157 2.00252 50.8934 2.00252C51.0574 2.00252 51.1945 2.05661 51.3038 2.16668C51.4134 2.27631 51.468 2.41949 51.468 2.59723C51.468 2.78901 51.4069 2.95644 51.2838 3.09969C51.161 3.24294 51.0098 3.31524 50.832 3.31524ZM55.0373 8.83338C55.8577 7.16529 57.0209 6.33089 58.5252 6.33089C58.7167 6.33089 58.8942 6.34544 59.0584 6.37175L58.9149 7.04872C58.7508 7.02095 58.5866 7.00768 58.4225 7.00768C57.4107 7.00768 56.5699 7.4283 55.8995 8.26936C55.2296 9.11057 54.7786 10.2147 54.5462 11.5825L53.7454 16.0955H53.0075L54.2793 8.91564C54.4297 8.04022 54.5323 7.27455 54.5869 6.61781H55.3049C55.264 7.09681 55.1619 7.83515 54.9973 8.8332L55.0373 8.83338ZM75.9415 16.0957H74.9566L68.0021 2.51515H67.9614L65.5611 16.0957H64.8024L67.3661 1.57161H68.3511L75.3256 15.0904H75.367L77.7465 1.57161H78.5052L75.9415 16.0957ZM89.1111 11.3978H80.8027C80.7749 11.6986 80.762 11.9108 80.762 12.0339C80.762 13.1829 81.0906 14.0851 81.7469 14.7416C82.4032 15.3982 83.2921 15.7263 84.4134 15.7263C85.7948 15.7263 86.9575 15.1725 87.9014 14.065L88.3731 14.4545C87.3336 15.7265 86.0003 16.3624 84.3727 16.3624C83.0323 16.3624 81.9725 15.9758 81.1931 15.203C80.4137 14.4303 80.024 13.3945 80.024 12.0955C80.024 10.5364 80.5402 9.18568 81.5728 8.04365C82.6053 6.90177 83.9007 6.33089 85.4597 6.33089C86.7045 6.33089 87.6479 6.67632 88.291 7.36668C88.9336 8.05734 89.2553 8.95684 89.2553 10.0644C89.2553 10.5156 89.2068 10.9603 89.1118 11.3978H89.1111ZM88.4752 10.8027C88.5161 10.5292 88.5366 10.2629 88.5366 10.003C88.5366 9.08651 88.263 8.35158 87.7158 7.79759C87.1688 7.24361 86.4097 6.96682 85.439 6.96682C84.2216 6.96682 83.21 7.36003 82.4028 8.14642C81.5961 8.93297 81.0968 9.81826 80.9054 10.8027H88.4752ZM97.1319 16.0957L94.6296 11.603L90.5064 16.0957H89.5622L94.2806 11.0697L91.8397 6.61799H92.6605L94.7938 10.6387L98.4452 6.61799H99.3887L95.1628 11.1517L97.9941 16.0957H97.1319ZM102.938 16.3007C102.363 16.3007 101.909 16.1604 101.573 15.8801C101.239 15.6001 101.071 15.1795 101.071 14.6185C101.071 14.3723 101.098 14.0989 101.152 13.798L102.322 7.23375H100.209L100.312 6.61799H102.404L102.897 3.84892H103.635L103.143 6.61799H105.748L105.646 7.23375H103.04L101.892 13.7161C101.851 13.9348 101.83 14.188 101.83 14.4752C101.83 15.2682 102.281 15.6648 103.184 15.6648C103.554 15.6648 103.91 15.596 104.251 15.4596L104.21 16.0545C103.813 16.2186 103.39 16.3007 102.939 16.3007H102.938ZM123.513 13.8801L123.985 14.3724C122.549 15.7812 120.819 16.4856 118.795 16.4856C116.73 16.4856 115.133 15.9075 114.004 14.7519C112.876 13.5964 112.312 12.082 112.312 10.2084C112.312 8.6081 112.681 7.12062 113.42 5.74618C114.159 4.37188 115.191 3.26759 116.517 2.43325C117.844 1.59906 119.301 1.18192 120.887 1.18192C121.858 1.18192 122.758 1.35958 123.585 1.71507C124.412 2.07099 125.052 2.56981 125.503 3.21282L124.908 3.68441C123.964 2.46754 122.61 1.85889 120.846 1.85889C118.672 1.85889 116.839 2.68627 115.348 4.34121C113.858 5.99615 113.112 7.91742 113.112 10.1056C113.112 11.7741 113.598 13.1418 114.569 14.2082C115.54 15.2753 116.955 15.8086 118.815 15.8086C120.648 15.8086 122.214 15.1658 123.513 13.8801ZM124.867 21.0395C124.498 21.0395 124.19 20.9986 123.944 20.9167L124.066 20.2397C124.286 20.3348 124.546 20.3828 124.846 20.3828C125.366 20.3828 125.789 20.2288 126.118 19.9212C126.446 19.6134 126.767 19.1721 127.082 18.5978L128.375 16.28L126.385 6.61763H127.144L128.888 15.4594L133.77 6.61763H134.611L127.595 19.0082C127.212 19.6923 126.812 20.2013 126.395 20.5366C125.978 20.8718 125.469 21.0393 124.866 21.0393L124.867 21.0395ZM137.401 8.83338C138.221 7.16529 139.384 6.33089 140.889 6.33089C141.08 6.33089 141.258 6.34544 141.422 6.37175L141.279 7.04872C141.114 7.02095 140.95 7.00768 140.786 7.00768C139.774 7.00768 138.933 7.4283 138.263 8.26936C137.593 9.11057 137.142 10.2147 136.909 11.5825L136.109 16.0955H135.371L136.642 8.91564C136.793 8.04022 136.896 7.27455 136.951 6.61781H137.669C137.628 7.09681 137.525 7.83515 137.36 8.8332L137.401 8.83338ZM152.971 2.24876H148.11L145.669 16.0957H144.909L147.33 2.24876H142.366L142.488 1.57161H153.094L152.971 2.24876ZM154.407 8.71027H154.449C154.845 7.94462 155.365 7.35678 156.008 6.94648C156.651 6.53589 157.348 6.33089 158.1 6.33089C159.085 6.33089 159.837 6.62164 160.356 7.20253C160.876 7.78385 161.136 8.56711 161.136 9.55157C161.136 9.87972 161.101 10.263 161.034 10.7005L160.069 16.0957H159.331L160.316 10.5774C160.37 10.3039 160.398 9.98253 160.398 9.6133C160.398 8.84722 160.203 8.21483 159.813 7.71551C159.424 7.21634 158.804 6.96682 157.957 6.96682C157.013 6.96682 156.162 7.37707 155.403 8.19781C154.644 9.01827 154.134 10.1875 153.874 11.7056L153.095 16.0957H152.357L155.085 0.586853H155.823L154.407 8.71027ZM164.767 16.0957H164.028L165.711 6.61799H166.449L164.767 16.0957ZM166.634 3.31524C166.237 3.31524 166.039 3.11016 166.039 2.70001C166.039 2.50852 166.103 2.34453 166.234 2.20772C166.364 2.07032 166.518 2.00252 166.696 2.00252C166.86 2.00252 166.996 2.05661 167.105 2.16668C167.215 2.27631 167.269 2.41949 167.269 2.59723C167.269 2.78901 167.208 2.95644 167.085 3.09969C166.963 3.24294 166.811 3.31524 166.634 3.31524ZM174.552 6.33089C175.537 6.33089 176.289 6.62164 176.808 7.20253C177.328 7.78385 177.588 8.56711 177.588 9.55157C177.588 9.87972 177.554 10.263 177.486 10.7005L176.522 16.0957H175.783L176.768 10.5774C176.822 10.3039 176.85 9.97569 176.85 9.59243C176.85 8.82679 176.655 8.19794 176.265 7.70534C175.876 7.21304 175.257 6.96682 174.409 6.96682C173.465 6.96682 172.614 7.37707 171.855 8.19781C171.096 9.01827 170.586 10.1875 170.326 11.7056L169.547 16.0957H168.809L170.08 8.91582C170.23 8.0404 170.334 7.27473 170.388 6.61799H171.106C171.066 7.09699 170.963 7.83533 170.799 8.83338H170.839C171.236 8.04041 171.763 7.42501 172.419 6.98752C173.076 6.54959 173.786 6.33089 174.552 6.33089ZM187.496 16.0957L189.035 7.25409H185.548L185.65 6.61799H193.384L193.281 7.25409H189.773L188.235 16.0957H187.496ZM198.431 16.3624C197.049 16.3624 195.972 15.9726 195.2 15.1932C194.427 14.4134 194.04 13.4015 194.04 12.1568C194.04 10.5703 194.557 9.20304 195.589 8.054C196.622 6.90554 197.944 6.33089 199.558 6.33089C200.926 6.33089 202 6.7241 202.779 7.5105C203.559 8.29689 203.948 9.30546 203.948 10.5365C203.948 12.1504 203.436 13.5246 202.41 14.6595C201.385 15.7948 200.058 16.3624 198.431 16.3624ZM198.451 15.7467C199.832 15.7467 200.967 15.2376 201.856 14.2186C202.745 13.1998 203.189 11.9857 203.189 10.5774C203.189 9.5378 202.871 8.67643 202.235 7.9928C201.599 7.30872 200.694 6.96682 199.518 6.96682C198.137 6.96682 197.005 7.47268 196.122 8.48491C195.24 9.49685 194.799 10.7071 194.799 12.1158C194.799 13.1691 195.114 14.0372 195.743 14.7212C196.372 15.4049 197.274 15.7467 198.451 15.7467ZM206.349 16.0957L208.01 6.61799H208.748L207.989 10.8438H214.185L214.923 6.61799H215.662L214 16.0957H213.262L214.082 11.4799H207.887L207.087 16.0957H206.349ZM218.226 16.0957L219.887 6.61799H220.626L219.867 10.9878H219.908L225.488 6.61799H226.554L220.79 11.0697L225.509 16.0957H224.524L219.887 11.1314H219.847L218.964 16.0957H218.226ZM227.683 16.0957L229.344 6.61799H230.083L228.605 15.0083L236.299 6.61799H237.119L235.458 16.0957H234.719L236.216 7.62309H236.176L228.503 16.0957H227.683ZM245.591 4.34121C244.88 4.34121 244.312 4.12234 243.888 3.68441C243.464 3.24692 243.246 2.63152 243.232 1.83854L243.766 1.7363C243.78 2.36527 243.951 2.85076 244.279 3.19265C244.607 3.5344 245.051 3.70564 245.612 3.70564C246.843 3.70564 247.677 3.04935 248.114 1.7363L248.607 1.83854C248.402 2.64526 248.036 3.26385 247.51 3.69476C246.983 4.12567 246.344 4.34121 245.591 4.34121ZM239.684 16.0957L241.345 6.61799H242.083L240.606 15.0083L248.299 6.61799H249.12L247.458 16.0957H246.72L248.217 7.62309H248.176L240.504 16.0957H239.684Z" fill="black"/>
</svg>
