<svg width="241" height="23" viewBox="0 0 241 23" fill="none" xmlns="http://www.w3.org/2000/svg">
<path fill-rule="evenodd" clip-rule="evenodd" d="M13.7065 4.96455C13.7065 5.66807 13.5393 6.89975 13.2033 8.6595C12.8035 10.7395 12.403 12.2873 12.0028 13.3033C11.603 14.3189 11.0273 15.1628 10.2756 15.8349C9.10769 16.8745 7.62829 17.3944 5.83624 17.3944H0.172852L3.60443 0.308941H8.93165C10.2757 0.308941 11.407 0.673301 12.3268 1.40094C13.2467 2.12887 13.7065 3.31663 13.7065 4.96455ZM11.9793 5.03628C11.9793 4.02858 11.6993 3.24052 11.1392 2.67279C10.5794 2.10477 9.73195 1.82096 8.59621 1.82096H5.04401L2.21267 15.8824H5.73989C7.13172 15.8824 8.27601 15.4748 9.17218 14.659C9.68392 14.195 10.1115 13.5112 10.4555 12.6071C10.7992 11.7033 11.1313 10.3874 11.4511 8.6595C11.8034 6.83602 11.9793 5.62842 11.9793 5.03628ZM20.666 0.308941L17.2344 17.3944H15.5065L18.938 0.308941H20.666ZM37.3906 0.308941L33.9598 17.3944H32.3525L26.4728 3.54889L23.6893 17.3944H21.9621L25.393 0.308941H27.001L32.8799 14.1552L35.6399 0.308941H37.3906ZM57.8837 4.43604C57.8837 6.10005 57.3398 7.48424 56.2522 8.58812C55.1645 9.69186 53.6926 10.2436 51.8371 10.2436H47.4691L46.0302 17.3944H44.3023L47.7332 0.308941H53.5407C55.0125 0.308941 56.1042 0.705128 56.816 1.49693C57.5279 2.28874 57.8837 3.26843 57.8837 4.43604ZM56.1323 4.50777C56.1323 3.73994 55.9043 3.10384 55.4485 2.59999C54.9923 2.09614 54.2768 1.84452 53.3009 1.84452H49.1492L47.7817 8.73123H51.9092C53.1569 8.73123 54.1729 8.33504 54.9568 7.54323C55.7404 6.75143 56.1323 5.73955 56.1323 4.50777ZM67.9622 6.52332L66.5947 7.74736C66.1629 7.18709 65.6029 6.90766 64.9146 6.90766C64.0831 6.90766 63.3473 7.21555 62.7071 7.83122C62.0674 8.44748 61.6595 9.21915 61.4838 10.1469L60.0442 17.3937H58.3641L60.7158 5.56337H62.3709L62.0833 7.0033C62.8516 5.94751 63.955 5.41991 65.395 5.41991C66.4664 5.41991 67.3224 5.7875 67.9622 6.52332ZM77.4169 9.3072C77.4169 9.88326 77.3366 10.6112 77.1771 11.4908C76.7453 13.6984 76.0011 15.2903 74.9453 16.266C74.0015 17.1138 72.8814 17.5375 71.5858 17.5375C70.53 17.5375 69.6302 17.2175 68.8865 16.5779C68.1423 15.9381 67.7702 14.9621 67.7702 13.6502C67.7702 13.0905 67.8513 12.3709 68.0108 11.4908C68.4268 9.25136 69.17 7.65914 70.2419 6.71532C71.2015 5.8513 72.3213 5.41991 73.6013 5.41991C74.657 5.41991 75.5569 5.73972 76.3006 6.37951C77.0444 7.01959 77.4169 7.99547 77.4169 9.3072ZM75.7611 9.42675C75.7611 8.56288 75.5452 7.92283 75.113 7.50683C74.6814 7.09127 74.1293 6.8834 73.4572 6.8834C72.6094 6.8834 71.8818 7.1869 71.2739 7.79482C70.5381 8.53064 70.0019 9.76274 69.6659 11.4905C69.506 12.2906 69.4261 12.9705 69.4261 13.5303C69.4261 14.3942 69.6418 15.0339 70.0734 15.4499C70.5056 15.8659 71.0498 16.074 71.7057 16.074C72.5691 16.074 73.3055 15.7696 73.9132 15.1619C74.6491 14.4421 75.1854 13.2182 75.5213 11.4905C75.6813 10.6747 75.7611 9.98658 75.7611 9.42675ZM99.0134 4.24369C99.0134 5.53935 98.6138 6.68724 97.8137 7.68705C97.014 8.68685 95.9099 9.3231 94.502 9.59483L96.9979 17.3933H95.078L92.727 9.71509H88.743L87.1835 17.3933H85.4556L88.8871 0.308228H94.7661C96.2539 0.308228 97.3337 0.684301 98.0057 1.43591C98.6773 2.18796 99.0134 3.12374 99.0134 4.24369ZM97.2613 4.34005C97.2613 3.55613 97.034 2.94411 96.5782 2.504C96.1225 2.06446 95.4457 1.84452 94.5498 1.84452H90.3267L89.0313 8.22734H93.3022C94.5342 8.22734 95.5017 7.83539 96.2057 7.05148C96.9096 6.26742 97.2613 5.36382 97.2613 4.34005ZM109.692 9.47492C109.692 10.051 109.595 10.8587 109.404 11.8987H101.773C101.676 12.5385 101.63 13.0346 101.63 13.3865C101.63 14.2023 101.842 14.8579 102.266 15.3539C102.69 15.8498 103.326 16.0983 104.174 16.0983C105.374 16.0983 106.485 15.6341 107.509 14.7065L108.517 15.8103C107.269 16.9621 105.781 17.5375 104.053 17.5375C102.854 17.5375 101.882 17.1899 101.138 16.4937C100.394 15.798 100.022 14.7865 100.022 13.4586C100.022 12.5308 100.134 11.6109 100.358 10.699C100.582 9.787 100.914 8.92724 101.354 8.11921C101.794 7.31132 102.402 6.65956 103.177 6.16361C103.953 5.66765 104.845 5.41991 105.853 5.41991C107.069 5.41991 108.013 5.79978 108.685 6.55972C109.357 7.31966 109.693 8.29124 109.693 9.47492H109.692ZM108.061 9.47492C108.061 8.59527 107.844 7.93539 107.412 7.49541C106.98 7.05573 106.436 6.83558 105.78 6.83558C103.924 6.83558 102.669 8.1156 102.013 10.675H107.964C108.029 10.339 108.061 9.93901 108.061 9.47492ZM122.506 5.56337L120.082 17.6578C119.89 18.6655 119.586 19.5257 119.17 20.2375C118.754 20.9494 118.278 21.4812 117.742 21.833C117.206 22.1847 116.683 22.4329 116.171 22.5767C115.659 22.7214 115.122 22.793 114.563 22.793C113.027 22.793 111.82 22.2653 110.94 21.2092L112.14 20.1533C112.795 20.9534 113.603 21.3531 114.563 21.3531C115.475 21.3531 116.279 21.0534 116.974 20.4534C117.67 19.8535 118.154 18.9215 118.426 17.6578L118.811 15.8342C118.011 16.8417 116.922 17.3455 115.547 17.3455C114.491 17.3455 113.663 17.0257 113.063 16.3859C112.464 15.7458 112.163 14.8502 112.163 13.6984C112.163 13.0744 112.251 12.2987 112.427 11.3709C112.843 9.13101 113.507 7.55525 114.419 6.64359C115.235 5.82737 116.291 5.41991 117.587 5.41991C119.043 5.41991 120.034 5.97166 120.562 7.07539L120.85 5.56337H122.506ZM119.938 9.3072C119.938 7.70751 119.226 6.90766 117.802 6.90766C116.731 6.90766 115.919 7.31132 115.367 8.11921C114.815 8.92724 114.403 10.0188 114.131 11.3948C113.955 12.3064 113.867 12.9945 113.867 13.4586C113.867 15.0583 114.579 15.8581 116.003 15.8581C117.874 15.8581 119.098 14.3625 119.674 11.3709C119.85 10.459 119.938 9.77129 119.938 9.3072ZM135.32 5.56337L132.968 17.3937H131.337L131.576 16.074C130.728 17.0497 129.585 17.5375 128.145 17.5375C127.201 17.5375 126.413 17.2417 125.781 16.65C125.149 16.0578 124.834 15.2423 124.834 14.2023C124.834 13.8985 124.882 13.5066 124.977 13.0268L126.465 5.56337H128.144L126.681 12.8583C126.584 13.3062 126.537 13.6741 126.537 13.9621C126.537 14.6498 126.737 15.1741 127.137 15.5341C127.537 15.8938 128.058 16.074 128.697 16.074C128.969 16.074 129.249 16.033 129.536 15.9541C129.824 15.8737 130.156 15.7307 130.532 15.5227C130.908 15.3147 131.249 14.9786 131.553 14.5145C131.856 14.0509 132.072 13.4826 132.2 12.8105L133.64 5.56372L135.32 5.56337ZM142.134 0.308584L139.351 14.1784C139.287 14.4821 139.255 14.7462 139.255 14.9702C139.255 15.6262 139.687 15.9541 140.551 15.9541H141.534L141.247 17.3937H139.998C139.358 17.3937 138.795 17.2176 138.307 16.8659C137.819 16.5136 137.575 15.9381 137.575 15.138C137.575 14.77 137.607 14.4502 137.672 14.1784L140.455 0.308584H142.134ZM152.79 8.49141C152.79 8.66755 152.75 8.9788 152.67 9.4271L151.086 17.3937H149.43L149.694 16.2178C148.814 17.0979 147.686 17.5375 146.31 17.5375C145.271 17.5375 144.419 17.3061 143.755 16.842C143.091 16.378 142.759 15.6502 142.759 14.6583C142.759 13.5065 143.111 12.5866 143.815 11.8987C144.663 11.0667 145.823 10.6508 147.295 10.6508H150.75L151.014 9.40319C151.078 9.11524 151.11 8.85127 151.11 8.61096C151.11 8.05128 150.902 7.61938 150.486 7.3152C150.07 7.01146 149.486 6.85949 148.734 6.85949C147.455 6.85949 146.391 7.33169 145.543 8.27551L144.559 7.12356C145.599 5.98782 147.023 5.41991 148.831 5.41991C149.31 5.41991 149.758 5.46353 150.174 5.55123C150.59 5.63894 151.006 5.78753 151.422 5.99553C151.838 6.20353 152.17 6.5191 152.418 6.94299C152.666 7.36718 152.79 7.88328 152.79 8.49106L152.79 8.49141ZM150.509 11.8987H147.462C146.534 11.8987 145.795 12.1307 145.243 12.5942C144.691 13.0583 144.415 13.7143 144.415 14.562C144.415 15.602 145.198 16.1222 146.766 16.1222C147.822 16.1222 148.662 15.8101 149.285 15.1861C149.781 14.722 150.102 14.0825 150.246 13.2666L150.509 11.8987ZM164.667 6.52332L163.299 7.74736C162.867 7.18709 162.308 6.90766 161.62 6.90766C160.788 6.90766 160.052 7.21555 159.412 7.83122C158.773 8.44748 158.364 9.21915 158.188 10.1469L156.749 17.3937H155.069L157.42 5.56337H159.076L158.788 7.0033C159.557 5.94751 160.66 5.41991 162.1 5.41991C163.172 5.41991 164.028 5.7875 164.667 6.52332ZM180.049 5.56337L179.785 7.02721H175.993L173.906 17.3937H172.226L174.314 7.02721H170.523L170.81 5.56337H180.049ZM189.96 9.3072C189.96 9.88326 189.879 10.6112 189.719 11.4908C189.287 13.6984 188.544 15.2903 187.488 16.266C186.544 17.1138 185.424 17.5375 184.128 17.5375C183.073 17.5375 182.173 17.2175 181.429 16.5779C180.685 15.9381 180.313 14.9621 180.313 13.6502C180.313 13.0905 180.393 12.3709 180.553 11.4908C180.969 9.25136 181.713 7.65914 182.784 6.71532C183.744 5.8513 184.864 5.41991 186.144 5.41991C187.2 5.41991 188.1 5.73972 188.843 6.37951C189.587 7.01959 189.96 7.99547 189.96 9.3072ZM188.304 9.42675C188.304 8.56288 188.088 7.92283 187.656 7.50683C187.224 7.09127 186.672 6.8834 186 6.8834C185.152 6.8834 184.424 7.1869 183.817 7.79482C183.081 8.53064 182.545 9.76274 182.209 11.4905C182.049 12.2906 181.969 12.9705 181.969 13.5303C181.969 14.3942 182.184 15.0339 182.616 15.4499C183.048 15.8659 183.592 16.074 184.248 16.074C185.112 16.074 185.848 15.7696 186.456 15.1619C187.192 14.4421 187.728 13.2182 188.064 11.4905C188.224 10.6747 188.304 9.98658 188.304 9.42675ZM203.133 5.56301L200.782 17.3933H199.102L200.158 12.0665H194.783L193.703 17.3933H192.023L194.399 5.56301H196.078L195.047 10.6022H200.446L201.453 5.56301H203.133ZM215.684 5.56301L209.613 11.2985L213.596 17.3933H211.628L207.788 11.2985L213.62 5.56301H215.684ZM208.916 5.56301L206.565 17.3933H204.885L207.237 5.56301H208.916ZM227.105 5.56301L224.754 17.3933H223.074L224.851 8.44288L217.531 17.3933H215.851L218.203 5.56301H219.882L218.083 14.5138L225.426 5.56301H227.105ZM240.111 5.56301L237.76 17.3933H236.08L237.856 8.44288L230.537 17.3933H228.857L231.208 5.56301H232.889L231.089 14.5138L238.432 5.56301H240.111ZM239.799 0.571948C239.352 2.57156 238.104 3.57172 236.056 3.57172C235.096 3.57172 234.352 3.35566 233.824 2.92402C233.296 2.4918 233.033 1.89214 233.033 1.12401C233.033 0.932237 233.047 0.748083 233.058 0.571948H234.497C234.481 0.748083 234.474 0.908013 234.474 1.05228C234.474 1.46785 234.622 1.80017 234.918 2.04793C235.213 2.29569 235.625 2.42013 236.153 2.42013C237.337 2.42013 238.073 1.80387 238.361 0.571948H239.799Z" fill="black"/>
</svg>
