<svg width="255" height="28" viewBox="0 0 255 28" fill="none" xmlns="http://www.w3.org/2000/svg">
<path fill-rule="evenodd" clip-rule="evenodd" d="M18.7539 21.6141H8.80748L5.77201 27.1482H0.424805L14.5801 2.07098H20.4119L24.463 27.1482H19.5711L18.7539 21.6141ZM18.1351 17.4116L16.6463 7.3247L11.1128 17.4116H18.1351ZM31.0878 8.97054H35.6998L35.0054 12.3914C36.6979 9.80551 38.5308 8.51554 40.5096 8.51554C41.2099 8.51554 41.9631 8.69037 42.7628 9.04673L40.8715 13.0625C40.4277 12.9051 39.9494 12.8234 39.4476 12.8234C38.6011 12.8234 37.7429 13.1443 36.8675 13.7864C35.9915 14.4287 35.3086 15.281 34.8184 16.3549C34.322 17.4231 33.8374 19.1219 33.3588 21.4452L32.1855 27.1482H27.2822L31.0878 8.97054ZM46.4464 2.07098H51.3439L50.4154 6.5189H45.5121L46.4464 2.07098ZM44.9989 8.97054H49.9022L46.0959 27.1482H41.1926L44.9989 8.97054ZM57.8581 14.049L53.0597 13.6463C53.6087 12.0354 54.5658 10.7803 55.9317 9.87536C57.2974 8.97042 59.1014 8.51554 61.3546 8.51554C63.6952 8.51554 65.4291 8.98827 66.5441 9.928C67.6649 10.8736 68.2249 12.0238 68.2249 13.3837C68.2249 13.9322 68.1787 14.5162 68.0793 15.1289C67.9799 15.7479 67.641 17.3704 67.0572 19.9974C66.573 22.1689 66.3335 23.6925 66.3335 24.5622C66.3335 25.3386 66.4741 26.1969 66.7482 27.1482H61.9555C61.7687 26.4885 61.6523 25.7998 61.6058 25.0934C60.8878 25.8931 60.0581 26.5116 59.1242 26.9496C58.1903 27.3875 57.2452 27.6035 56.2993 27.6035C54.7936 27.6035 53.5502 27.107 52.5694 26.1147C51.5887 25.1223 51.0984 23.85 51.0984 22.2916C51.0984 20.5518 51.6352 19.1567 52.715 18.118C53.7952 17.073 55.7219 16.4423 58.4947 16.2264C60.8353 16.0281 62.3993 15.7948 63.1874 15.52C63.3916 14.8314 63.4965 14.2827 63.4965 13.8742C63.4965 13.3426 63.2869 12.9052 62.8605 12.5488C62.4405 12.1929 61.8098 12.0176 60.9749 12.0176C60.0993 12.0176 59.4047 12.1929 58.8972 12.5488C58.3893 12.8993 58.039 13.4011 57.8581 14.049ZM62.5344 18.637C62.2365 18.7189 61.8448 18.7949 61.3546 18.8649C58.8913 19.1625 57.2805 19.6005 56.5277 20.1785C55.9907 20.5987 55.7219 21.1591 55.7219 21.8593C55.7219 22.4431 55.9264 22.9276 56.3407 23.3303C56.7492 23.7273 57.2918 23.9257 57.963 23.9257C58.7046 23.9257 59.4046 23.7451 60.0585 23.3772C60.7181 23.0154 61.2088 22.5485 61.5295 21.9764C61.8564 21.4041 62.1431 20.5112 62.3938 19.2967L62.5344 18.637ZM70.3675 27.1482L75.6212 2.07098H80.5188L75.2708 27.1482H70.3675ZM90.5994 19.6063C90.5994 16.2264 91.5453 13.5352 93.4421 11.5275C95.3394 9.51951 97.8321 8.51554 100.92 8.51554C103.594 8.51554 105.683 9.25686 107.189 10.7393C108.689 12.2222 109.442 14.2128 109.442 16.7228C109.442 19.6705 108.503 22.2273 106.623 24.3752C104.744 26.5294 102.228 27.6035 99.0755 27.6035C97.3651 27.6035 95.8477 27.2593 94.5284 26.5759C93.2092 25.8873 92.2224 24.9124 91.5743 23.6573C90.9263 22.3965 90.5994 21.0481 90.5994 19.6063ZM104.574 16.0748C104.574 14.9013 104.235 13.9616 103.558 13.2552C102.881 12.5488 102.012 12.1928 100.943 12.1928C99.8868 12.1928 98.947 12.5256 98.1299 13.1853C97.3128 13.8449 96.676 14.8082 96.2206 16.0633C95.7653 17.3241 95.5383 18.4855 95.5383 19.542C95.5383 20.8555 95.8882 21.8946 96.5946 22.6649C97.3006 23.4355 98.1879 23.821 99.2561 23.821C100.599 23.821 101.72 23.2371 102.631 22.0752C103.927 20.4353 104.574 18.4328 104.574 16.0748ZM129.435 0.985413H132.798C132.739 2.4037 132.529 3.46606 132.167 4.16665C131.799 4.86111 131.262 5.35154 130.55 5.63175C129.832 5.90596 128.502 6.06391 126.552 6.0987C124.795 6.12209 123.527 6.23313 122.74 6.43718C121.952 6.64723 121.21 7.08515 120.521 7.76221C119.833 8.43927 119.203 9.41427 118.631 10.6867C120.277 9.54276 121.916 8.97054 123.563 8.97054C125.775 8.97054 127.561 9.69441 128.91 11.1479C130.264 12.6014 130.941 14.5455 130.941 16.9856C130.941 19.612 130.048 22.0405 128.262 24.2644C126.476 26.4885 123.925 27.6035 120.604 27.6035C117.983 27.6035 115.904 26.8328 114.381 25.2861C112.857 23.7393 112.098 21.7778 112.098 19.402C112.098 16.9678 112.641 14.4403 113.727 11.8076C114.807 9.17521 116.038 7.11434 117.41 5.62604C118.788 4.13729 120.096 3.20331 121.333 2.82414C122.571 2.45038 124.415 2.23458 126.866 2.17626C128.022 2.15287 128.723 2.08275 128.98 1.97196C129.237 1.86087 129.388 1.52814 129.435 0.985413ZM117.072 19.542C117.072 21.0072 117.463 22.0873 118.24 22.7818C119.016 23.4767 119.885 23.821 120.843 23.821C122.319 23.821 123.557 23.0796 124.567 21.6025C125.571 20.1258 126.073 18.4796 126.073 16.6702C126.073 15.4795 125.746 14.5045 125.098 13.7457C124.444 12.9925 123.527 12.6128 122.354 12.6128C120.784 12.6128 119.517 13.3311 118.537 14.7729C117.562 16.2091 117.072 17.7969 117.072 19.542ZM156.993 8.97054H161.85L158.038 27.1482H153.187L156.993 8.97054ZM136.749 8.97054H141.653L140.077 16.5008H145.692C147.689 16.5008 149.183 16.8804 150.182 17.6332C151.18 18.3864 151.681 19.513 151.681 21.0187C151.681 22.8343 151.057 24.3111 149.813 25.4434C148.564 26.5817 146.744 27.1482 144.35 27.1482H132.944L136.749 8.97054ZM138.489 24.0658H141.962C143.778 24.0658 145.021 23.8614 145.698 23.4529C146.369 23.0445 146.708 22.4257 146.708 21.5909C146.708 20.8202 146.393 20.2716 145.762 19.9563C145.132 19.6356 143.906 19.4778 142.073 19.4778H139.452L138.489 24.0658ZM166.071 8.97054H170.991L170.197 12.6073C169.946 13.8102 169.823 14.6214 169.823 15.0415C169.823 15.7948 170.08 16.3607 170.6 16.7401C171.119 17.1197 171.896 17.3063 172.935 17.3063C173.869 17.3063 174.797 17.1078 175.725 16.705L177.342 8.97054H182.199L178.387 27.1482H173.537L175.054 19.9042C173.531 20.3885 171.955 20.6338 170.32 20.6338C168.674 20.6338 167.361 20.1843 166.386 19.2794C165.411 18.3807 164.92 17.1898 164.92 15.7184C164.92 14.8839 165.037 13.9617 165.265 12.9458L165.329 12.6014L166.071 8.97054ZM186.939 8.97054H191.778L190.371 15.6952H197.16L198.566 8.97054H203.47L199.664 27.1482H194.761L196.36 19.5131H189.571L187.972 27.1482H183.133L186.939 8.97054ZM228.477 8.97054H233.334L229.522 27.1482H224.671L228.477 8.97054ZM208.234 8.97054H213.137L211.56 16.5008H217.176C219.172 16.5008 220.667 16.8804 221.665 17.6332C222.663 18.3864 223.165 19.513 223.165 21.0187C223.165 22.8343 222.54 24.3111 221.297 25.4434C220.048 26.5817 218.227 27.1482 215.833 27.1482H204.427L208.234 8.97054ZM209.973 24.0658H213.446C215.262 24.0658 216.505 23.8614 217.182 23.4529C217.853 23.0445 218.192 22.4257 218.192 21.5909C218.192 20.8202 217.876 20.2716 217.246 19.9563C216.615 19.6356 215.39 19.4778 213.557 19.4778H210.936L209.973 24.0658ZM238.313 8.97054H243.222L240.794 19.7579C240.496 21.054 240.351 21.8593 240.351 22.1805C240.351 22.706 240.526 23.1554 240.876 23.5346C241.226 23.914 241.675 24.1011 242.224 24.1011C242.615 24.1011 243.001 24.0134 243.386 23.8442C243.765 23.6752 244.156 23.4124 244.559 23.0619C244.962 22.7117 245.324 22.3148 245.645 21.8652C245.966 21.4157 246.263 20.8265 246.543 20.0905C246.736 19.5478 246.964 18.7308 247.215 17.6448L249.17 8.97054H254.073L249.947 27.1482H245.371L245.855 24.8134C244.01 26.6755 242.003 27.6035 239.825 27.6035C238.453 27.6035 237.367 27.1713 236.585 26.3131C235.797 25.4549 235.4 24.2996 235.4 22.8576C235.4 22.2275 235.611 20.9781 236.031 19.1045L238.313 8.97054ZM241.622 1.65078H243.97C244.232 2.57896 244.582 3.22124 245.02 3.58872C245.458 3.95663 246.012 4.13721 246.684 4.13721C248.044 4.13721 249.17 3.30865 250.064 1.65078H252.305C251.838 3.22694 251.085 4.45246 250.04 5.32217C248.995 6.19188 247.828 6.62418 246.543 6.62418C245.218 6.62418 244.121 6.20977 243.258 5.38069C242.394 4.55191 241.85 3.30865 241.622 1.65078Z" fill="black"/>
</svg>
