<svg width="253" height="21" viewBox="0 0 253 21" fill="none" xmlns="http://www.w3.org/2000/svg">
<path fill-rule="evenodd" clip-rule="evenodd" d="M15.9615 3.06505L15.05 4.32245C13.4577 2.82757 11.6411 2.08012 9.60506 2.08012C8.27417 2.08012 7.03463 2.40495 5.87871 3.05131C4.72265 3.7006 3.82223 4.57399 3.16871 5.67407C2.51942 6.77034 2.19447 7.95094 2.19447 9.21502C2.19447 10.3401 2.44614 11.3424 2.94531 12.2153C3.44843 13.0884 4.17042 13.7728 5.11717 14.2687C6.06362 14.7609 7.14983 15.0092 8.36889 15.0092C10.2301 15.0092 11.9626 14.4225 13.5726 13.2492L14.4106 14.447C13.2159 15.2189 12.1893 15.7393 11.3266 16.0082C10.4677 16.277 9.47211 16.4129 8.34748 16.4129C6.2625 16.4129 4.56561 15.8927 3.25578 14.8484C1.51314 13.4518 0.643555 11.5867 0.643555 9.25356C0.643555 6.84745 1.51314 4.80768 3.25578 3.12804C4.99521 1.45161 7.16065 0.613237 9.74495 0.613237C10.9286 0.613237 12.0008 0.79841 12.9717 1.16851C13.9392 1.54227 14.9384 2.17137 15.9615 3.06505ZM28.7785 10.7556H18.8528C18.8323 12.079 19.1777 13.116 19.8834 13.8742C20.5923 14.6321 21.535 15.0092 22.7119 15.0092C23.4978 15.0092 24.2213 14.8484 24.888 14.5306C25.555 14.2129 26.1071 13.7625 26.5438 13.1862L27.6123 14.0455C27.0745 14.7332 26.3689 15.2814 25.4997 15.6903C24.6299 16.1022 23.6903 16.3082 22.6776 16.3082C20.9316 16.3082 19.6217 15.7703 18.745 14.6914C17.8687 13.6121 17.4282 12.4004 17.4282 11.0521C17.4282 9.95207 17.7252 8.89067 18.3153 7.87055C18.9057 6.85086 19.6951 6.05804 20.687 5.48885C21.6753 4.91952 22.7471 4.63667 23.9031 4.63667C25.3276 4.63667 26.5086 5.11844 27.4446 6.07892C28.3806 7.04306 28.8484 8.26869 28.8484 9.75656C28.8484 10.0289 28.8238 10.3606 28.7785 10.7556ZM27.4653 9.49801C27.4229 8.45713 27.0674 7.61227 26.3932 6.9659C25.7157 6.31998 24.8673 5.99899 23.8438 5.99899C22.7334 5.99899 21.7518 6.30959 20.9033 6.93111C20.0546 7.55263 19.4539 8.40817 19.0976 9.49801H27.4653ZM32.4035 4.90913H33.776L33.5462 6.65526C34.6774 5.31078 35.9939 4.63667 37.4959 4.63667C38.6482 4.63667 39.5773 4.98964 40.283 5.69155C40.9881 6.39346 41.3443 7.33968 41.3443 8.52717C41.3443 9.00193 41.2681 9.80207 41.1138 10.9299L40.4222 16.0359H39.029L39.7206 10.9299C39.8673 9.84022 39.9404 9.03356 39.9404 8.52021C39.9404 7.74493 39.7032 7.12332 39.2317 6.64812C38.7565 6.17321 38.1348 5.936 37.3667 5.936C36.6122 5.936 35.9132 6.1279 35.2641 6.51233C34.6144 6.89647 34.1117 7.42019 33.7553 8.08395C33.3994 8.74727 33.1269 9.79506 32.9345 11.2266L32.295 16.0359H30.8983L32.4035 4.90913ZM46.9178 0.739209H48.3295L47.7699 4.90913H50.0053L49.8412 6.16636H47.6022L46.2825 16.0359H44.8508L46.1848 6.16636H44.2848L44.4597 4.90913H46.3553L46.9178 0.739209ZM52.953 4.90913H54.3883L53.7317 9.561C53.5361 10.9334 53.4383 11.8031 53.4383 12.1697C53.4383 13.0009 53.7002 13.6788 54.2206 14.2025C54.7411 14.7262 55.429 14.9881 56.2847 14.9881C56.9936 14.9881 57.6123 14.7822 58.1361 14.3736C58.6598 13.9651 59.0335 13.4306 59.2573 12.7706C59.3684 12.4353 59.5048 11.6705 59.6584 10.4689L60.4128 4.90913H61.8239L61.2793 9.12099C61.0173 11.1359 60.7445 12.5678 60.4549 13.4131C60.1648 14.2584 59.6515 14.9499 58.9112 15.4947C58.1707 16.0358 57.2657 16.3082 56.2004 16.3082C54.989 16.3082 53.9974 15.9171 53.2221 15.1314C52.4501 14.3455 52.0623 13.3642 52.0623 12.187C52.0623 11.7159 52.1045 11.1712 52.1907 10.5422L52.3035 9.561L52.3592 9.14169L52.953 4.90913ZM64.4325 4.90913H65.8471L65.6587 6.30268C66.0428 5.77895 66.5072 5.36987 67.0483 5.0765C67.5932 4.78314 68.1486 4.63667 68.7213 4.63667C69.1265 4.63667 69.549 4.73168 69.9896 4.92287L69.3151 6.23255C68.9587 6.08931 68.6587 6.01969 68.4179 6.01969C67.9182 6.01969 67.4216 6.19061 66.9327 6.5366C66.4405 6.88215 66.0456 7.38527 65.7386 8.04523C65.4344 8.70534 65.1769 9.79838 64.9707 11.321L64.3212 16.0359H62.9273L64.4325 4.90913ZM69.8804 4.90913H71.3442L74.2362 13.1198L79.0139 4.90913H80.6097L71.7703 20.1011H70.1744L73.3241 14.6875L69.8804 4.90913ZM102.779 4.18613L101.571 5.0765C100.817 4.09161 99.926 3.33395 98.906 2.80686C97.8862 2.27933 96.8422 2.01749 95.7699 2.01749C94.5687 2.01749 93.416 2.3424 92.3127 2.98833C91.2056 3.6344 90.3393 4.49371 89.7076 5.56558C89.0752 6.63789 88.7612 7.78678 88.7612 9.01286C88.7612 10.6753 89.3545 12.0892 90.5383 13.2593C91.722 14.4258 93.1646 15.0092 94.8621 15.0092C95.8785 15.0092 96.8567 14.7995 97.7926 14.3806C98.7249 13.965 99.4827 13.4097 100.062 12.7182C100.646 12.0266 101.068 11.1674 101.333 10.1477H95.8227V8.65975H103.136C102.985 10.9647 102.158 12.8335 100.653 14.2655C99.1505 15.6971 97.2754 16.4129 95.0298 16.4129C92.7247 16.4129 90.8524 15.7148 89.41 14.3176C87.9713 12.9205 87.2516 11.1641 87.2516 9.05087C87.2516 7.54224 87.6294 6.13855 88.3872 4.83223C89.1451 3.5262 90.1889 2.49558 91.5161 1.74484C92.8432 0.990751 94.2754 0.613237 95.8085 0.613237C98.585 0.613237 100.911 1.80458 102.779 4.18613ZM111.664 4.63667C112.614 4.63667 113.487 4.86364 114.277 5.31399C115.069 5.76814 115.687 6.39668 116.131 7.20339C116.574 8.01055 116.798 8.92179 116.798 9.94177C116.798 11.1044 116.515 12.1839 115.949 13.1828C115.38 14.1781 114.619 14.9462 113.662 15.4911C112.708 16.0359 111.626 16.3082 110.418 16.3082C108.919 16.3082 107.69 15.8193 106.722 14.8452C105.755 13.8673 105.273 12.6238 105.273 11.1151C105.273 9.931 105.556 8.84161 106.122 7.83932C106.691 6.84039 107.467 6.05804 108.455 5.48885C109.44 4.91952 110.512 4.63667 111.664 4.63667ZM111.64 5.99899C110.752 5.99899 109.917 6.21888 109.132 6.66221C108.349 7.10233 107.749 7.71018 107.329 8.48167C106.907 9.2574 106.697 10.1058 106.697 11.038C106.697 12.2081 107.061 13.1616 107.784 13.8917C108.51 14.6214 109.446 14.9881 110.595 14.9881C111.49 14.9881 112.303 14.7751 113.029 14.3492C113.759 13.9265 114.339 13.312 114.769 12.5087C115.198 11.7053 115.414 10.8462 115.414 9.92767C115.414 9.15955 115.254 8.475 114.933 7.88125C114.611 7.28751 114.157 6.82308 113.567 6.49449C112.981 6.16298 112.338 5.99899 111.64 5.99899ZM122.088 0.739209H123.499L122.941 4.90913H125.176L125.012 6.16636H122.773L121.453 16.0359H120.022L121.355 6.16636H119.456L119.63 4.90913H121.526L122.088 0.739209ZM128.033 0.613594H129.426L128.613 6.64848C129.769 5.30765 131.089 4.63685 132.566 4.63685C133.698 4.63685 134.619 4.98607 135.335 5.68798C136.051 6.38653 136.408 7.29482 136.408 8.41565C136.408 9.03381 136.337 9.86884 136.194 10.9233L135.503 16.0361H134.11L134.798 10.9233C134.937 9.89325 135 9.07557 134.983 8.47525C134.983 7.71735 134.742 7.10266 134.264 6.63813C133.785 6.17038 133.152 5.93618 132.374 5.93618C131.647 5.93618 130.963 6.12808 130.313 6.51251C129.667 6.89986 129.168 7.41712 128.815 8.07342C128.462 8.73017 128.19 9.77805 127.995 11.2167L127.341 16.0361H125.948L128.033 0.613594ZM141.084 0.341309C141.399 0.341309 141.664 0.452501 141.891 0.67658C142.114 0.903729 142.226 1.16885 142.226 1.48326C142.226 1.80104 142.115 2.07371 141.891 2.2937C141.664 2.51368 141.399 2.62522 141.084 2.62522C140.766 2.62522 140.493 2.51398 140.273 2.2937C140.053 2.07371 139.942 1.80104 139.942 1.48326C139.942 1.16885 140.053 0.903729 140.273 0.67658C140.493 0.453231 140.766 0.341309 141.084 0.341309ZM139.959 4.90949H141.311L139.852 16.0361H138.454L139.959 4.90949ZM154.76 7.32598L153.584 8.01079C152.759 6.66953 151.495 5.99917 149.794 5.99917C148.813 5.99917 147.915 6.21561 147.104 6.65222C146.291 7.08854 145.656 7.693 145.198 8.46829C144.741 9.24343 144.514 10.0748 144.514 10.9581C144.514 11.7409 144.684 12.4428 145.023 13.0609C145.365 13.6791 145.844 14.1539 146.462 14.4891C147.08 14.8209 147.806 14.9883 148.648 14.9883C149.507 14.9883 150.328 14.8173 151.107 14.4787C151.889 14.1398 152.497 13.7033 152.933 13.1651L154.11 13.993C153.374 14.7964 152.574 15.3831 151.712 15.7531C150.849 16.1236 149.847 16.3085 148.708 16.3085C146.948 16.3085 145.575 15.8303 144.587 14.8768C143.602 13.9197 143.11 12.6453 143.11 11.0525C143.11 9.28545 143.755 7.77296 145.051 6.51911C146.343 5.26541 147.929 4.63685 149.804 4.63685C150.932 4.63685 151.925 4.87421 152.784 5.34575C153.643 5.82095 154.302 6.48111 154.76 7.32598ZM168.817 4.63685C169.767 4.63685 170.64 4.86382 171.43 5.31417C172.222 5.76832 172.84 6.39686 173.284 7.20357C173.727 8.01073 173.951 8.92197 173.951 9.94195C173.951 11.1046 173.668 12.184 173.102 13.183C172.534 14.1782 171.772 14.9464 170.815 15.4913C169.861 16.0361 168.779 16.3085 167.57 16.3085C166.072 16.3085 164.843 15.8195 163.875 14.8454C162.908 13.8675 162.426 12.6241 162.426 11.1155C162.426 9.93136 162.709 8.84197 163.275 7.83968C163.844 6.84075 164.62 6.0584 165.608 5.48921C166.593 4.91988 167.665 4.63685 168.817 4.63685ZM168.792 5.99917C167.905 5.99917 167.07 6.21924 166.284 6.66257C165.502 7.10269 164.902 7.71036 164.483 8.48185C164.06 9.25758 163.851 10.1061 163.851 11.0384C163.851 12.2085 164.214 13.1619 164.937 13.892C165.663 14.6217 166.599 14.9883 167.748 14.9883C168.642 14.9883 169.456 14.7755 170.182 14.3495C170.912 13.9268 171.492 13.3122 171.921 12.5089C172.351 11.7055 172.568 10.8466 172.568 9.92803C172.568 9.15991 172.407 8.47535 172.086 7.88161C171.765 7.28787 171.31 6.82326 170.72 6.49467C170.133 6.16315 169.491 5.99917 168.792 5.99917ZM188.929 0.362185L188.741 1.7245C188.022 1.85021 187.075 1.92708 185.898 1.95486C184.019 2.00309 182.653 2.14009 181.805 2.36007C180.96 2.58342 180.219 3.05826 179.591 3.78502C178.962 4.51134 178.505 5.50329 178.215 6.76035L177.869 8.33197C179.001 5.87002 180.813 4.63685 183.3 4.63685C184.757 4.63685 185.957 5.11874 186.904 6.08624C187.85 7.05038 188.322 8.25541 188.322 9.69768C188.322 11.4263 187.665 12.9592 186.352 14.3005C185.042 15.6379 183.481 16.3085 181.669 16.3085C180.118 16.3085 178.861 15.7952 177.901 14.7683C176.941 13.7454 176.461 12.3341 176.461 10.5392C176.461 9.04091 176.664 7.57412 177.066 6.13888C177.471 4.70319 178.047 3.57866 178.794 2.76493C179.542 1.94784 180.475 1.3855 181.592 1.07109C182.71 0.75697 184.518 0.571676 187.012 0.508677C187.77 0.488213 188.409 0.438632 188.929 0.362185ZM186.835 9.93142C186.835 8.81395 186.471 7.88478 185.741 7.14808C185.015 6.41109 184.12 6.0411 183.059 6.0411C181.746 6.0411 180.582 6.56473 179.573 7.60897C178.56 8.65672 178.054 9.83358 178.054 11.1471C178.054 12.2607 178.407 13.1722 179.116 13.8812C179.825 14.5902 180.736 14.9464 181.851 14.9464C183.209 14.9464 184.382 14.4402 185.364 13.4238C186.345 12.4075 186.835 11.2449 186.835 9.93142ZM201.453 4.90949H202.895L201.39 16.0361H199.948L201.453 4.90949ZM192.499 9.33082H194.343C195.642 9.33082 196.616 9.66609 197.262 10.3331C197.908 11.0002 198.23 11.793 198.23 12.7149C198.23 13.6965 197.912 14.496 197.276 15.1105C196.644 15.7287 195.499 16.0361 193.847 16.0361H190.141L191.646 4.90949H193.075L192.499 9.33082ZM192.345 10.6717L191.779 14.821H193.428C194.346 14.821 194.999 14.7683 195.38 14.6673C195.764 14.565 196.089 14.3494 196.358 14.0175C196.627 13.6893 196.763 13.2772 196.763 12.7883C196.763 12.1074 196.501 11.5832 195.98 11.2202C195.456 10.8536 194.748 10.6717 193.847 10.6717H192.345ZM210.355 11.007H208.211C207.489 11.007 206.908 10.9441 206.468 10.8184C206.032 10.6927 205.654 10.424 205.336 10.0155C205.019 9.60692 204.862 9.10384 204.862 8.50308C204.862 8.32856 204.887 8.0489 204.935 7.66856L205.312 4.90949H206.705L206.437 6.92112C206.333 7.67901 206.28 8.12928 206.28 8.27969C206.28 8.85224 206.409 9.24677 206.664 9.4634C206.915 9.68353 207.47 9.79153 208.323 9.79153H210.519L211.18 4.90949H212.573L211.068 16.0361H209.674L210.355 11.007ZM216.837 9.33082H223.295L223.895 4.90949H225.334L223.833 16.0361H222.39L223.117 10.6717H216.66L215.933 16.0361H214.491L215.996 4.90949H217.435L216.837 9.33082ZM238.581 4.90949H240.024L238.518 16.0361H237.076L238.581 4.90949ZM229.626 9.33082H231.471C232.77 9.33082 233.745 9.66609 234.391 10.3331C235.037 11.0002 235.358 11.793 235.358 12.7149C235.358 13.6965 235.04 14.496 234.404 15.1105C233.772 15.7287 232.627 16.0361 230.975 16.0361H227.269L228.774 4.90949H230.203L229.626 9.33082ZM229.473 10.6717L228.907 14.821H230.556C231.474 14.821 232.127 14.7683 232.508 14.6673C232.892 14.565 233.217 14.3494 233.486 14.0175C233.755 13.6893 233.891 13.2772 233.891 12.7883C233.891 12.1074 233.628 11.5832 233.108 11.2202C232.584 10.8536 231.876 10.6717 230.975 10.6717H229.473ZM244.819 4.90949L243.736 12.9175L252.688 4.90949H252.798L251.293 16.0361H249.861L250.933 8.11196L242.094 16.0361H241.92L243.425 4.90949H244.819ZM245.147 0.424993H246.488C246.848 1.13772 247.56 1.49361 248.626 1.49361C249.184 1.49361 249.642 1.41762 250.005 1.26326C250.364 1.10949 250.724 0.830323 251.077 0.424993H252.397C252.16 1.03993 251.699 1.5533 251.021 1.96521C250.344 2.37741 249.499 2.58329 248.489 2.58329C247.491 2.58329 246.701 2.37732 246.128 1.96877C245.556 1.55994 245.227 1.04651 245.147 0.424993Z" fill="black"/>
</svg>
