<svg width="251" height="15" viewBox="0 0 251 15" fill="none" xmlns="http://www.w3.org/2000/svg">
<path fill-rule="evenodd" clip-rule="evenodd" d="M3.88331 11.2859L2.59289 14.4513H0.193359L6.02019 0.337219H7.29062L13.0575 14.4513H10.658L9.38753 11.2859H3.88331ZM6.64541 4.30962L4.64913 9.22895H8.64169L6.64541 4.30962ZM19.7922 4.24967C21.4052 4.24967 22.729 4.86789 23.764 6.10463L22.5543 7.41503C21.7745 6.59516 20.8541 6.18493 19.7922 6.18493C18.932 6.18493 18.1921 6.48757 17.5739 7.09243C16.9558 7.69742 16.6461 8.47009 16.6461 9.41113C16.6461 10.352 16.9558 11.1253 17.5739 11.7298C18.1921 12.3347 18.932 12.637 19.7922 12.637C20.8272 12.637 21.7474 12.2273 22.5543 11.4072L23.764 12.7178C22.729 13.9547 21.4052 14.573 19.7922 14.573C18.354 14.573 17.1333 14.0687 16.1322 13.0606C15.1308 12.0526 14.6298 10.836 14.6298 9.41113C14.6298 7.98626 15.1308 6.76965 16.1322 5.76151C17.1333 4.75352 18.354 4.24967 19.7922 4.24967ZM32.8776 6.16512H32.0711C30.9287 6.16512 30.0749 6.51441 29.5102 7.2134C28.9459 7.91239 28.6638 8.84665 28.6638 10.016V14.452H26.6475V4.37047H28.0185L28.2398 6.83013C29.0465 5.09611 30.4782 4.22933 32.535 4.22933H32.8776V6.16512ZM39.9149 4.22933C41.353 4.22933 42.5756 4.7368 43.5841 5.75152C44.5923 6.76623 45.0965 7.98626 45.0965 9.41113C45.0965 10.836 44.5923 12.0526 43.5841 13.0606C42.5756 14.0687 41.353 14.573 39.9149 14.573C38.4766 14.573 37.2559 14.0687 36.2549 13.0606C35.2535 12.0526 34.7525 10.836 34.7525 9.41113C34.7525 7.97296 35.2568 6.74966 36.2649 5.74153C37.273 4.7331 38.4899 4.22933 39.9149 4.22933ZM42.1424 7.08243C41.5177 6.47086 40.7749 6.16512 39.9149 6.16512C39.0547 6.16512 38.3148 6.47086 37.6966 7.08243C37.0783 7.69401 36.7688 8.47009 36.7688 9.41113C36.7688 10.352 37.0783 11.1253 37.6966 11.7298C38.3148 12.3347 39.0547 12.637 39.9149 12.637C40.7749 12.637 41.5177 12.3314 42.1424 11.7198C42.7677 11.1083 43.0802 10.3389 43.0802 9.41113C43.0802 8.47009 42.7677 7.69401 42.1424 7.08243ZM60.9647 4.22933C62.3627 4.22933 63.4446 4.66268 64.2107 5.52991C64.9774 6.3967 65.3598 7.58286 65.3598 9.08871V14.452H63.3435V9.18934C63.3435 7.17321 62.4499 6.16512 60.6621 6.16512C59.7479 6.16512 59.0285 6.45722 58.5045 7.04175C57.9803 7.62687 57.718 8.47005 57.718 9.57261V14.452H55.7024V9.18934C55.7024 7.17321 54.8082 6.16512 53.0203 6.16512C52.12 6.16512 51.4068 6.45722 50.8827 7.04175C50.3585 7.62687 50.0961 8.47005 50.0961 9.57261V14.452H48.0806V4.37047H49.4516L49.593 6.3059C49.9559 5.62066 50.4702 5.1032 51.1353 4.75356C51.8007 4.40421 52.5298 4.22933 53.3229 4.22933C54.2369 4.22933 55.0202 4.43063 55.6724 4.83421C56.3242 5.23749 56.7981 5.81542 57.0935 6.5682C57.4295 5.80212 57.9436 5.22045 58.6358 4.82404C59.3282 4.42748 60.1048 4.22933 60.9654 4.22933H60.9647ZM82.9017 14.452H80.7248V4.41079L75.9864 10.3789L71.2273 4.41079V14.452H69.0498V0.337755H70.3202L75.9864 7.4955L81.6519 0.337755H82.9017V14.452ZM91.3907 4.22933C92.4658 4.22933 93.3863 4.47804 94.1528 4.97517C94.9189 5.47288 95.4902 6.17182 95.8664 7.07208C96.0546 7.48896 96.1622 7.97633 96.189 8.53397C96.2168 9.09204 96.1691 9.55894 96.0477 9.93518H88.3652C88.3652 10.7957 88.6577 11.4779 89.2424 11.9821C89.8269 12.486 90.5829 12.7381 91.5106 12.7381C92.68 12.7381 93.7625 12.4423 94.7573 11.8506L95.8457 13.0204C94.4884 14.0553 93.0429 14.573 91.5106 14.573C89.9647 14.573 88.7087 14.089 87.7407 13.1211C86.7728 12.1533 86.2883 10.9168 86.2883 9.41113C86.2883 7.94607 86.7557 6.7162 87.69 5.72136C88.6244 4.72653 89.8572 4.22933 91.39 4.22933H91.3907ZM91.4114 6.06413C90.5778 6.06413 89.8848 6.31585 89.3337 6.82014C88.7827 7.32443 88.4868 7.93266 88.4466 8.64495H94.2335C94.2335 8.2956 94.153 7.96631 93.9915 7.65716C93.7763 7.17319 93.4436 6.78666 92.9937 6.49754C92.5434 6.2087 92.016 6.06413 91.4114 6.06413ZM108.671 14.452H107.3L107.178 12.597C106.802 13.2019 106.284 13.6824 105.626 14.0384C104.967 14.3947 104.248 14.573 103.468 14.573C102.043 14.573 100.857 14.0725 99.9097 13.0709C98.9621 12.0695 98.488 10.8497 98.488 9.41113C98.488 7.95966 98.9621 6.73274 99.9097 5.73118C100.857 4.72976 102.043 4.22933 103.468 4.22933C104.127 4.22933 104.742 4.38065 105.313 4.68308C105.884 4.9855 106.332 5.38536 106.654 5.88249V0.337755H108.671V14.452ZM101.432 11.7298C102.05 12.3347 102.789 12.637 103.65 12.637C104.51 12.637 105.253 12.3314 105.878 11.7198C106.503 11.1083 106.816 10.3389 106.816 9.41113C106.816 8.47009 106.503 7.69401 105.878 7.08243C105.253 6.47086 104.51 6.16512 103.65 6.16512C102.789 6.16512 102.05 6.47086 101.432 7.08243C100.814 7.69401 100.504 8.47009 100.504 9.41113C100.504 10.352 100.814 11.1253 101.432 11.7298ZM114.417 2.98923C114.188 3.19767 113.906 3.30167 113.57 3.30167C113.234 3.30167 112.948 3.19782 112.713 2.98923C112.478 2.7808 112.361 2.52221 112.361 2.21306C112.361 1.90362 112.479 1.64838 112.713 1.44652C112.948 1.24525 113.234 1.14408 113.57 1.14408C113.906 1.14408 114.188 1.24785 114.417 1.45687C114.645 1.66531 114.759 1.91736 114.759 2.21306C114.759 2.52221 114.646 2.7808 114.417 2.98923ZM112.542 14.452V4.37047H114.558V14.452H112.542ZM127.886 14.452H126.515L126.373 12.5162C126.023 13.2019 125.513 13.7195 124.841 14.0687C124.169 14.4185 123.436 14.5933 122.642 14.5933C121.244 14.5933 120.163 14.1595 119.396 13.2927C118.63 12.4255 118.247 11.239 118.247 9.73373V4.37047H120.264V9.6331C120.264 11.6494 121.157 12.6573 122.945 12.6573C123.846 12.6573 124.561 12.3648 125.093 11.7802C125.623 11.1956 125.889 10.352 125.889 9.24983V4.37047H127.885L127.886 14.452ZM144.258 4.22933C145.656 4.22933 146.738 4.66268 147.504 5.52991C148.271 6.3967 148.653 7.58286 148.653 9.08871V14.452H146.638V9.18934C146.638 7.17321 145.744 6.16512 143.956 6.16512C143.042 6.16512 142.322 6.45722 141.798 7.04175C141.274 7.62687 141.012 8.47005 141.012 9.57261V14.452H138.996V9.18934C138.996 7.17321 138.102 6.16512 136.314 6.16512C135.413 6.16512 134.701 6.45722 134.177 7.04175C133.653 7.62687 133.39 8.47005 133.39 9.57261V14.452H131.374V4.37047H132.745L132.887 6.3059C133.249 5.62066 133.764 5.1032 134.429 4.75356C135.094 4.40421 135.823 4.22933 136.616 4.22933C137.53 4.22933 138.314 4.43063 138.966 4.83421C139.618 5.23749 140.092 5.81542 140.387 6.5682C140.723 5.80212 141.238 5.22045 141.93 4.82404C142.622 4.42748 143.398 4.22933 144.259 4.22933H144.258ZM163.312 4.22933C164.75 4.22933 165.973 4.7368 166.982 5.75152C167.99 6.76623 168.494 7.98626 168.494 9.41113C168.494 10.836 167.99 12.0526 166.982 13.0606C165.973 14.0687 164.75 14.573 163.312 14.573C161.874 14.573 160.654 14.0687 159.653 13.0606C158.651 12.0526 158.15 10.836 158.15 9.41113C158.15 7.97296 158.654 6.74966 159.663 5.74153C160.671 4.7331 161.887 4.22933 163.312 4.22933ZM165.54 7.08243C164.915 6.47086 164.172 6.16512 163.312 6.16512C162.452 6.16512 161.713 6.47086 161.094 7.08243C160.476 7.69401 160.166 8.47009 160.166 9.41113C160.166 10.352 160.476 11.1253 161.094 11.7298C161.713 12.3347 162.452 12.637 163.312 12.637C164.172 12.637 164.915 12.3314 165.54 11.7198C166.165 11.1083 166.478 10.3389 166.478 9.41113C166.478 8.47009 166.165 7.69401 165.54 7.08243ZM178.757 0.337755H180.753C180.753 1.22486 180.474 1.88366 179.916 2.3137C179.358 2.74388 178.434 2.9589 177.144 2.9589H176.62C175.451 2.9589 174.537 3.21784 173.878 3.73543C173.219 4.25287 172.889 5.01567 172.889 6.0238V6.588C173.199 5.98359 173.669 5.49626 174.301 5.1263C174.933 4.75663 175.632 4.57191 176.398 4.57191C177.809 4.57191 178.965 5.03216 179.866 5.95332C180.766 6.87391 181.217 8.02675 181.217 9.41113C181.217 10.8899 180.736 12.1267 179.775 13.1211C178.814 14.1159 177.567 14.6131 176.035 14.6131C174.556 14.6131 173.327 14.1159 172.345 13.1211C171.364 12.1267 170.873 10.8359 170.873 9.24983V6.70916C170.873 4.94868 171.387 3.59736 172.415 2.65646C173.444 1.71542 174.893 1.24525 176.761 1.24525C177.541 1.24525 178.068 1.18087 178.344 1.05326C178.619 0.926093 178.757 0.686956 178.757 0.337755ZM176.055 6.42706C175.195 6.42706 174.452 6.72614 173.827 7.32456C173.202 7.9224 172.889 8.66534 172.889 9.55245C172.889 10.4532 173.195 11.1989 173.807 11.7901C174.419 12.3818 175.168 12.6777 176.055 12.6777C176.929 12.6777 177.672 12.3818 178.284 11.7901C178.895 11.1989 179.201 10.4532 179.201 9.55245C179.201 8.66534 178.888 7.9224 178.263 7.32456C177.638 6.72614 176.902 6.42706 176.055 6.42706ZM186.217 7.45535H189.121C189.914 7.45535 190.592 7.55905 191.157 7.76779C191.721 7.97622 192.148 8.26167 192.437 8.62461C192.726 8.98755 192.932 9.35705 193.053 9.73373C193.174 10.11 193.234 10.5132 193.234 10.9437C193.234 11.3739 193.174 11.7802 193.053 12.1634C192.931 12.5464 192.726 12.9198 192.437 13.2827C192.148 13.6452 191.721 13.9311 191.157 14.1395C190.592 14.348 189.914 14.452 189.121 14.452H184.201V4.37047H186.217V7.45535ZM196.359 14.452H194.342V4.37047H196.359V14.452ZM186.217 12.5767H189.342C190.592 12.5767 191.218 12.0322 191.218 10.9437C191.218 9.86815 190.592 9.33066 189.342 9.33066H186.217V12.5767ZM209.445 14.452H207.428V10.863C206.783 11.777 205.762 12.2339 204.364 12.2339C201.353 12.2339 199.847 10.5538 199.847 7.19306V4.37047H201.864V7.07208C201.864 8.17465 202.079 8.9877 202.509 9.5123C202.939 10.0363 203.658 10.2981 204.666 10.2981C206.508 10.2981 207.428 9.31031 207.428 7.33438V4.37047H209.445V14.452ZM222.369 14.452H220.353V10.3185H215.05V14.452H213.034V4.37047H215.05V8.38266H220.353V4.37047H222.369V14.452ZM227.974 7.45535H230.878C231.672 7.45535 232.35 7.55905 232.915 7.76779C233.479 7.97622 233.906 8.26167 234.195 8.62461C234.484 8.98755 234.689 9.35705 234.81 9.73373C234.932 10.11 234.992 10.5132 234.992 10.9437C234.992 11.3739 234.932 11.7802 234.81 12.1634C234.689 12.5464 234.484 12.9198 234.195 13.2827C233.906 13.6452 233.479 13.9311 232.915 14.1395C232.35 14.348 231.672 14.452 230.878 14.452H225.959V4.37047H227.974V7.45535ZM238.117 14.452H236.1V4.37047H238.117V14.452ZM227.974 12.5767H231.1C232.351 12.5767 232.975 12.0322 232.975 10.9437C232.975 9.86815 232.351 9.33066 231.1 9.33066H227.974V12.5767ZM248.47 2.53548C247.886 3.07325 247.17 3.34217 246.323 3.34217C245.477 3.34217 244.761 3.07325 244.176 2.53548C243.591 1.99758 243.299 1.31893 243.299 0.499056H244.71C244.71 0.902194 244.865 1.24183 245.174 1.51736C245.483 1.79289 245.867 1.93043 246.323 1.93043C246.781 1.93043 247.163 1.79304 247.473 1.51736C247.782 1.24183 247.936 0.902194 247.936 0.499056H249.348C249.348 1.31893 249.055 1.99758 248.47 2.53548ZM250.921 14.452H248.904V7.67696L242.976 14.452H241.706V4.37047H243.722V11.1451L249.65 4.37047H250.921V14.452Z" fill="black"/>
</svg>
