<svg width="302" height="21" viewBox="0 0 302 21" fill="none" xmlns="http://www.w3.org/2000/svg">
<path fill-rule="evenodd" clip-rule="evenodd" d="M5.875 15.4629H0.889648V1.72092H10.0574V5.63569H5.875V7.03637H9.54282V10.6624H5.875V15.4629ZM11.6647 11.5278V5.84124H16.341V11.0539C16.341 11.4112 16.4173 11.6649 16.568 11.8162C16.6922 11.9536 16.8767 12.0221 17.124 12.0221C17.3709 12.0221 17.5631 11.9534 17.7007 11.8162C17.8656 11.6513 17.9483 11.3974 17.9483 11.0539V5.84124H22.6254V11.3837C22.6254 12.4411 22.2543 13.3546 21.5127 14.1236C20.4826 15.1952 19.0191 15.7306 17.124 15.7306C15.2694 15.7306 13.8275 15.2154 12.7974 14.1854C12.0417 13.4301 11.6647 12.5442 11.6647 11.5278ZM29.6298 15.4629H24.9528V9.44697L23.7787 9.52869V5.84124L24.9528 5.92296V2.42073H29.6298V5.92296L31.2164 5.84124V9.52869L29.6298 9.44697V15.4629ZM32.1643 11.5278V5.84124H36.8413V11.0539C36.8413 11.4112 36.9168 11.6649 37.0675 11.8162C37.1903 11.9536 37.3768 12.0221 37.6242 12.0221C37.8711 12.0221 38.0632 11.9534 38.2009 11.8162C38.3658 11.6513 38.4486 11.3974 38.4486 11.0539V5.84124H43.1249V11.3837C43.1249 12.4411 42.7539 13.3546 42.0122 14.1236C40.9823 15.1952 39.5193 15.7306 37.6242 15.7306C35.7696 15.7306 34.3277 15.2154 33.2977 14.1854C32.542 13.4301 32.1643 12.5442 32.1643 11.5278ZM49.7797 15.4629H45.1033V5.84124H49.821V6.43899C49.821 6.65853 49.7802 6.87146 49.6969 7.07741H49.7789C50.0673 6.56947 50.4587 6.17799 50.953 5.90334C51.4751 5.61494 52.1891 5.47046 53.0956 5.47046V10.3534C52.5326 9.9966 52.0454 9.81775 51.6332 9.81775C51.1251 9.81775 50.699 9.96875 50.3556 10.2713C49.9711 10.6006 49.7789 11.0745 49.7789 11.6927L49.7797 15.4629ZM61.0493 6.99498L61.1528 6.9336C61.0432 6.6452 60.988 6.37052 60.988 6.1096V5.8416H65.6236V15.4633H61.0086L61.0293 15.1332C61.0571 14.8448 61.1186 14.5499 61.2149 14.2475H61.07C60.2733 15.2365 59.3121 15.7309 58.1859 15.7309C57.1144 15.7309 56.2075 15.3533 55.4659 14.5979C54.5042 13.6089 54.0242 12.311 54.0242 10.7042C54.0242 9.05597 54.5252 7.73042 55.528 6.72769C56.297 5.95868 57.2453 5.5736 58.3714 5.5736C59.4566 5.5736 60.3492 6.04771 61.0493 6.99533V6.99498ZM58.6805 10.6421C58.6805 11.0403 58.8172 11.3765 59.0916 11.6513C59.3117 11.8709 59.5798 11.981 59.896 11.981C60.2117 11.981 60.4789 11.8772 60.6989 11.672C61.0009 11.3694 61.1528 11.013 61.1528 10.6007C61.1528 10.1752 61.0151 9.83802 60.7403 9.59114C60.507 9.38475 60.2388 9.2821 59.9366 9.2821C59.5931 9.2821 59.3117 9.39164 59.0916 9.61148C58.8169 9.88614 58.6805 10.2298 58.6805 10.6421ZM77.6555 15.4629H72.7936V1.72092H79.3863C81.0618 1.72092 82.4004 2.20134 83.4031 3.163C84.3374 4.08329 84.8049 5.28489 84.8049 6.76837C84.8049 8.23797 84.3518 9.38476 83.4452 10.2089C82.6211 10.9505 81.4944 11.3216 80.0658 11.3216H77.6555V15.4629ZM77.6555 5.49116V7.86072H78.4998C78.9942 7.86072 79.3652 7.73764 79.6125 7.48959C79.8325 7.29723 79.9423 7.01573 79.9423 6.6449C79.9423 6.27406 79.8185 5.99286 79.5719 5.8002C79.3245 5.59425 78.9879 5.49116 78.5619 5.49116H77.6555ZM93.5194 15.4629H88.6162V6.06821L85.8141 6.19097V1.72021H96.3215V6.19097L93.5194 6.06821V15.4629ZM112.041 15.4629H102.647V1.72092H111.918V5.49116H107.633V6.76837H111.527V10.3741H107.633V11.6927H112.041V15.4629ZM116.821 10.4565L113.154 5.84124H118.552L119.252 7.20124C119.348 7.37972 119.417 7.58568 119.458 7.81897H119.581C119.622 7.66812 119.698 7.4623 119.808 7.20124L120.508 5.84124H125.885L122.239 10.4565L126.153 15.4629H120.632L119.767 13.897C119.67 13.7457 119.602 13.5607 119.56 13.3407H119.458C119.417 13.5469 119.355 13.732 119.273 13.897L118.428 15.4629H112.762L116.821 10.4565ZM132.335 15.4629H127.658V9.44697L126.484 9.52869V5.84124L127.658 5.92296V2.42073H132.335V5.92296L133.921 5.84124V9.52869L132.335 9.44697V15.4629ZM139.752 15.4629H135.075V5.84124H139.793V6.43899C139.793 6.65853 139.752 6.87146 139.669 7.07741H139.751C140.039 6.56947 140.431 6.17799 140.925 5.90334C141.447 5.61494 142.162 5.47046 143.068 5.47046V10.3534C142.505 9.9966 142.017 9.81775 141.605 9.81775C141.097 9.81775 140.671 9.96875 140.327 10.2713C139.943 10.6006 139.751 11.0745 139.751 11.6927L139.752 15.4629ZM151.021 6.99498L151.125 6.9336C151.016 6.6452 150.961 6.37052 150.961 6.1096V5.8416H155.596V15.4633H150.981L151.001 15.1332C151.029 14.8448 151.091 14.5499 151.188 14.2475H151.043C150.246 15.2365 149.285 15.7309 148.158 15.7309C147.087 15.7309 146.18 15.3533 145.438 14.5979C144.477 13.6089 143.996 12.311 143.996 10.7042C143.996 9.05597 144.498 7.73042 145.501 6.72769C146.27 5.95868 147.217 5.5736 148.343 5.5736C149.428 5.5736 150.322 6.04771 151.022 6.99533L151.021 6.99498ZM148.652 10.6421C148.652 11.0403 148.79 11.3765 149.064 11.6513C149.284 11.8709 149.552 11.981 149.868 11.981C150.184 11.981 150.452 11.8772 150.671 11.672C150.974 11.3694 151.125 11.013 151.125 10.6007C151.125 10.1752 150.987 9.83802 150.712 9.59114C150.479 9.38475 150.211 9.2821 149.909 9.2821C149.566 9.2821 149.284 9.39164 149.064 9.61148C148.789 9.88614 148.652 10.2298 148.652 10.6421ZM162.766 15.4629V1.72092H168.761C170.684 1.72092 172.05 2.10521 172.86 2.87466C173.561 3.53388 173.912 4.4268 173.912 5.5529C173.912 6.33564 173.719 6.96758 173.334 7.44819C173.032 7.8332 172.634 8.11462 172.14 8.29324L172.12 8.416C172.642 8.5534 173.122 8.82808 173.561 9.23999C174.234 9.89966 174.57 10.696 174.57 11.6299C174.57 12.7839 174.138 13.7107 173.273 14.4113C172.407 15.1119 171.233 15.4622 169.75 15.4622L162.766 15.4629ZM167.38 5.01725V6.99498H168.163C168.589 6.99498 168.905 6.89268 169.111 6.68629C169.289 6.50782 169.379 6.2675 169.379 5.96507C169.379 5.66309 169.275 5.42248 169.07 5.24386C168.877 5.09257 168.576 5.01725 168.163 5.01725H167.38ZM167.38 9.87949V12.1456H168.39C168.843 12.1456 169.193 12.0696 169.441 11.9189C169.757 11.713 169.915 11.4041 169.915 10.9922C169.915 10.6487 169.79 10.3741 169.544 10.1682C169.31 9.97583 168.947 9.87949 168.452 9.87949H167.38ZM186.273 7.20124C187.193 8.13512 187.653 9.28213 187.653 10.6421C187.653 12.0015 187.193 13.1555 186.273 14.1029C185.215 15.1881 183.719 15.7306 181.782 15.7306C179.845 15.7306 178.348 15.1881 177.29 14.1029C176.37 13.1555 175.909 12.0015 175.909 10.6421C175.909 9.28213 176.37 8.13512 177.29 7.20124C178.348 6.11607 179.845 5.57324 181.782 5.57324C183.719 5.57324 185.215 6.11607 186.273 7.20124ZM182.688 9.61148C182.468 9.39179 182.166 9.2821 181.782 9.2821C181.397 9.2821 181.094 9.39164 180.875 9.61148C180.6 9.8588 180.463 10.2024 180.463 10.6421C180.463 11.0954 180.6 11.4454 180.875 11.6927C181.094 11.9124 181.397 12.0221 181.782 12.0221C182.166 12.0221 182.468 11.9125 182.688 11.6927C182.962 11.4454 183.1 11.0954 183.1 10.6421C183.1 10.2024 182.962 9.8588 182.688 9.61148ZM193.896 15.4629H189.219V0.443359H193.896V15.4629ZM202.343 5.71813V0.443359H207.02V15.4629H202.487V15.0304C202.487 14.7831 202.535 14.4191 202.632 13.9381L202.487 13.9177C202.212 14.4536 201.856 14.8721 201.416 15.1742C200.867 15.5451 200.2 15.7306 199.417 15.7306C198.415 15.7306 197.571 15.3736 196.884 14.6593C195.936 13.7114 195.462 12.3861 195.462 10.6828C195.462 8.99349 195.956 7.65458 196.945 6.66559C197.673 5.93752 198.539 5.57324 199.542 5.57324C200.214 5.57324 200.819 5.75165 201.354 6.10889C201.684 6.32888 202.027 6.66553 202.384 7.11881H202.529C202.405 6.55561 202.344 6.0886 202.344 5.71777L202.343 5.71813ZM202.528 10.5796C202.528 10.0854 202.37 9.68026 202.055 9.36454C201.849 9.15829 201.588 9.05549 201.272 9.05549C200.929 9.05549 200.66 9.15192 200.468 9.34384C200.166 9.61849 200.015 10.0033 200.015 10.4979C200.015 10.9785 200.172 11.3765 200.489 11.6927C200.708 11.9124 200.977 12.0221 201.292 12.0221C201.608 12.0221 201.869 11.9257 202.075 11.7337C202.377 11.4727 202.528 11.0882 202.528 10.5796ZM219.958 15.4629V11.6513H219.897L217.94 15.4629H212.85L216.188 10.5597L213.119 5.84124H218.146L219.897 9.79705H219.958V5.84124H224.409V9.79705H224.47L226.221 5.84124H231.248L228.178 10.5597L231.516 15.4629H226.427L224.47 11.6513H224.409V15.4629H219.958ZM232.547 5.84124H237.079V9.05549C237.079 9.481 237.011 10.0239 236.873 10.6831L236.996 10.7035C237.175 10.2638 237.319 9.94795 237.429 9.7553L239.592 5.84124H244.021V15.4626H239.489V12.187C239.489 11.761 239.558 11.2184 239.695 10.5593L239.572 10.539C239.462 10.841 239.318 11.157 239.14 11.4864L236.976 15.4629H232.547V5.84124ZM250.698 20.181H246.001V5.84124H250.471V6.37725C250.471 6.72031 250.43 7.00189 250.347 7.22158L250.326 7.28439L250.471 7.32543C250.746 6.87216 251.076 6.49438 251.461 6.19239C252.037 5.78049 252.689 5.57395 253.418 5.57395C254.516 5.57395 255.429 5.93823 256.158 6.66631C257.091 7.60019 257.559 8.91213 257.559 10.6014C257.559 12.1809 257.057 13.5061 256.055 14.5776C255.327 15.3466 254.475 15.7313 253.5 15.7313C252.786 15.7313 252.154 15.5461 251.605 15.1753C251.165 14.8732 250.835 14.5295 250.615 14.145H250.471C250.622 14.7492 250.698 15.3744 250.698 16.02L250.698 20.181ZM250.471 10.7038C250.471 11.1982 250.609 11.5824 250.883 11.8572C251.075 12.0635 251.343 12.1663 251.687 12.1663C252.016 12.1663 252.291 12.0639 252.511 11.8572C252.827 11.5688 252.984 11.1844 252.984 10.7038C252.984 10.2506 252.834 9.87258 252.531 9.57044C252.298 9.33672 252.01 9.22036 251.666 9.22036C251.378 9.22036 251.123 9.31678 250.904 9.50871C250.615 9.78336 250.471 10.1817 250.471 10.7038ZM259.125 15.4629V5.84124H263.801V8.91132H265.49V5.84124H270.167V15.4629H265.49V12.1663H263.801V15.4629H259.125ZM283.374 15.4629V5.84124H288.051V15.4629H283.374ZM276.822 8.97306H278.8C280.215 8.97306 281.244 9.28224 281.89 9.90054C282.467 10.4494 282.756 11.2253 282.756 12.228C282.756 13.1896 282.481 13.945 281.932 14.4944C281.286 15.1401 280.318 15.4629 279.027 15.4629H272.146V5.84124H276.822V8.97306ZM276.822 13.1965H277.358C277.756 13.1965 278.051 13.1073 278.244 12.9289C278.422 12.7502 278.511 12.5027 278.511 12.187C278.511 11.9123 278.435 11.6995 278.285 11.5482C278.107 11.3695 277.818 11.2805 277.419 11.2805H276.822V13.1965ZM290.029 5.84124H294.561V9.05549C294.561 9.481 294.493 10.0239 294.355 10.6831L294.479 10.7035C294.658 10.2638 294.802 9.94795 294.912 9.7553L297.075 5.84124H301.505V15.4626H296.973V12.187C296.973 11.761 297.041 11.2184 297.178 10.5593L297.055 10.539C296.946 10.841 296.801 11.157 296.623 11.4864L294.459 15.4629H290.03L290.029 5.84124ZM297.198 1.43258L299.938 2.38005C299.622 3.24552 299.093 3.86346 298.351 4.2343C297.747 4.55046 296.903 4.70821 295.818 4.70821C294.733 4.70821 293.888 4.55046 293.283 4.2343C292.542 3.86346 292.013 3.24552 291.697 2.38005L294.437 1.43258C294.506 1.84449 294.657 2.14679 294.891 2.33901C295.097 2.51763 295.406 2.60665 295.818 2.60665C296.23 2.60665 296.539 2.51748 296.745 2.33901C296.978 2.14679 297.129 1.84449 297.198 1.43258Z" fill="black"/>
</svg>
