<svg width="302" height="21" viewBox="0 0 302 21" fill="none" xmlns="http://www.w3.org/2000/svg">
<path fill-rule="evenodd" clip-rule="evenodd" d="M7.68946 5.00366H4.644V7.14376H7.4682V10.4751H4.644V16.2555H0.672852V1.53961H7.68946V5.00366ZM18.2126 5.9522V12.284C18.2126 13.0195 18.106 13.6446 17.8928 14.1593C17.6794 14.6743 17.2934 15.1301 16.7345 15.5275C15.8374 16.1597 14.7932 16.476 13.6019 16.476C12.4108 16.476 11.3657 16.1597 10.4687 15.5275C9.90974 15.1301 9.52004 14.6743 9.29962 14.1593C9.07875 13.6446 8.96845 13.0195 8.96845 12.284V5.9522H12.7854V11.9974C12.7854 12.2621 12.8 12.4717 12.819 12.6262C12.8409 12.7804 12.9188 12.9276 13.0509 13.0677C13.1825 13.208 13.3666 13.2771 13.6019 13.2771C13.8519 13.2771 14.0399 13.1923 14.1651 13.0231C14.2908 12.8541 14.3593 12.6921 14.3742 12.5381C14.3888 12.3834 14.3963 12.1665 14.3963 11.8872C14.3963 11.8287 14.3963 11.7833 14.3963 11.7541V5.95149L18.2126 5.9522ZM25.5818 9.04084H24.3242V16.2555H20.5072V9.04084H19.4045V5.9522H20.5072V2.92959H24.3242V5.9522H25.5818V9.04084ZM35.8637 5.9522V12.284C35.8637 13.0195 35.757 13.6446 35.5439 14.1593C35.3305 14.6743 34.9438 15.1301 34.3848 15.5275C33.4878 16.1597 32.4436 16.476 31.2523 16.476C30.0612 16.476 29.0168 16.1597 28.1198 15.5275C27.5608 15.1301 27.1704 14.6743 26.95 14.1593C26.7291 13.6446 26.6188 13.0195 26.6188 12.284V5.9522H30.4358V11.9974C30.4358 12.2621 30.4503 12.4717 30.4693 12.6262C30.4913 12.7804 30.5692 12.9276 30.7013 13.0677C30.8329 13.208 31.017 13.2771 31.2523 13.2771C31.5022 13.2771 31.6903 13.1923 31.8154 13.0231C31.9411 12.8541 32.0103 12.6921 32.0253 12.5381C32.0399 12.3834 32.0467 12.1665 32.0467 11.8872C32.0467 11.8287 32.0467 11.7833 32.0467 11.7541V5.95149L35.8637 5.9522ZM44.115 5.70918V9.98973C43.7471 9.76887 43.3939 9.65892 43.0558 9.65892C42.5556 9.65892 42.1517 9.85723 41.8425 10.2545C41.5778 10.5926 41.4457 11.1224 41.4457 11.8429V16.2555H37.6287V5.9522H41.4457L41.2473 7.9599C41.8356 6.50346 42.7911 5.75347 44.115 5.70918ZM54.4183 16.2555H50.5792C50.5938 16.0645 50.6156 15.7734 50.6449 15.384C50.6741 14.9941 50.6959 14.7036 50.7105 14.5122C50.0484 15.8215 49.1663 16.476 48.0633 16.476C47.4456 16.476 46.9198 16.2922 46.486 15.9243C46.0517 15.5569 45.7276 15.0751 45.5146 14.4798C45.3012 13.884 45.1503 13.3065 45.0621 12.7476C44.9744 12.1886 44.9308 11.6224 44.9308 11.0485C44.9308 10.4606 44.9792 9.88671 45.0742 9.32775C45.1693 8.7688 45.328 8.20613 45.5489 7.64016C45.7693 7.07375 46.1041 6.61425 46.5524 6.26124C47.0011 5.90824 47.534 5.73166 48.1518 5.73166C49.2253 5.73166 50.0489 6.34926 50.6227 7.58484C50.6081 7.46791 50.5938 7.2171 50.5792 6.83472C50.5646 6.45219 50.5428 6.15816 50.5135 5.9522H54.4183V16.2555ZM50.5357 10.6517C50.5357 9.47489 50.2709 8.88632 49.7413 8.88632C49.094 8.88632 48.7699 9.74713 48.7699 11.4679C48.7699 12.7034 49.0568 13.321 49.6307 13.321C49.733 13.321 49.833 13.2992 49.9283 13.2554C50.0247 13.2115 50.1013 13.1458 50.1602 13.057C50.2187 12.9693 50.271 12.8803 50.3144 12.7922C50.3582 12.7045 50.3951 12.5823 50.4243 12.4278C50.4535 12.2736 50.4754 12.1487 50.49 12.0531C50.5046 11.9581 50.5148 11.8214 50.5235 11.6449C50.5381 11.4684 50.5378 11.3432 50.5378 11.2698C50.5378 11.1952 50.5378 11.0784 50.5378 10.9169C50.5378 10.7549 50.5378 10.667 50.5378 10.6521L50.5357 10.6517ZM61.4785 1.53961H65.3176C66.6559 1.53961 67.7441 1.72341 68.5828 2.09132C69.4504 2.4737 70.1083 3.06576 70.557 3.86706C71.0057 4.66881 71.23 5.56218 71.23 6.5478C71.23 8.28358 70.7043 9.57055 69.6527 10.4087C68.601 11.2474 67.2001 11.5856 65.4496 11.424V16.2555H61.4785V1.53961ZM65.4496 8.13655H65.6487C66.119 8.13655 66.4976 7.98206 66.7843 7.67334C67.0711 7.36419 67.2146 6.96736 67.2146 6.48178C67.2146 5.9965 67.0833 5.58811 66.8178 5.25704C66.5531 4.92596 66.1852 4.76064 65.7144 4.76064H65.4496V8.13655ZM80.6291 5.06968H78.4444V16.2555H74.4732V5.06968H72.2892V1.53961H80.6291V5.06968ZM95.0805 11.7326L94.8378 15.9907C94.0291 16.3437 93.2418 16.5203 92.4769 16.5203C91.4621 16.5203 90.5576 16.3032 89.7633 15.8694C88.969 15.4355 88.3362 14.8548 87.8655 14.1268C87.3948 13.3983 87.0384 12.5967 86.7956 11.7216C86.5528 10.8462 86.4316 9.92341 86.4316 8.95269C86.4316 7.55545 86.6596 6.29065 87.1154 5.15783C87.5716 4.02545 88.3035 3.09518 89.3108 2.36682C90.3183 1.63874 91.528 1.27518 92.9401 1.27518C93.6607 1.27518 94.3152 1.3992 94.9035 1.64988V5.84193C94.3447 5.2536 93.7342 4.95941 93.0721 4.95941C92.425 4.95941 91.896 5.18018 91.4841 5.62103C91.0723 6.06232 90.8037 6.55547 90.679 7.09951C90.5533 7.644 90.4913 8.23907 90.4913 8.88632C90.4913 9.51894 90.5542 10.0964 90.679 10.6185C90.8032 11.1405 91.0649 11.6149 91.4619 12.0417C91.8589 12.4681 92.3741 12.6815 93.0064 12.6815C93.6831 12.6815 94.3745 12.3654 95.0805 11.7326ZM105.759 11.2031C105.759 12.7623 105.336 14.0311 104.49 15.009C103.644 15.9872 102.449 16.476 100.904 16.476C99.3891 16.476 98.2243 15.9724 97.408 14.9647C96.5917 13.957 96.1832 12.6814 96.1832 11.1367C96.1832 9.59239 96.5987 8.30542 97.4294 7.2758C98.2606 6.24618 99.4263 5.73166 100.927 5.73166C102.486 5.73166 103.681 6.24257 104.512 7.26474C105.342 8.28735 105.759 9.60001 105.759 11.2031ZM102.052 11.1153C102.052 10.5563 101.97 10.0009 101.809 9.44944C101.647 8.89809 101.361 8.62224 100.949 8.62224C100.552 8.62224 100.275 8.89809 100.121 9.44944C99.9668 10.0009 99.8896 10.5563 99.8896 11.1153C99.8896 11.6742 99.9668 12.2257 100.121 12.77C100.275 13.3141 100.559 13.5865 100.971 13.5865C101.368 13.5865 101.647 13.3105 101.809 12.759C101.971 12.2075 102.052 11.6596 102.052 11.1153ZM116.282 16.2559H112.444V10.8066C112.444 9.96801 112.245 9.54901 111.848 9.54901C111.304 9.54901 111.031 10.0562 111.031 11.0714V16.2559H107.215V5.95256H111.031C111.002 6.80576 110.973 7.46025 110.944 7.91601C111.562 6.46001 112.466 5.73202 113.657 5.73202C114.569 5.73202 115.235 6.07392 115.654 6.758C116.073 7.44163 116.283 8.26925 116.283 9.23997L116.282 16.2559ZM127.248 16.2559H123.342V15.8148C123.342 15.8002 123.364 15.4836 123.408 14.8659C123.07 15.3955 122.728 15.7964 122.383 16.0682C122.037 16.3403 121.6 16.4764 121.07 16.4764C120.423 16.4764 119.871 16.3074 119.415 15.9693C118.959 15.6308 118.617 15.1825 118.389 14.6236C118.161 14.0646 118 13.5056 117.904 12.9467C117.807 12.3877 117.76 11.8068 117.76 11.2034C117.76 10.5857 117.804 9.99365 117.892 9.42767C117.979 8.86126 118.131 8.28395 118.344 7.69547C118.557 7.10713 118.896 6.63291 119.359 6.27231C119.823 5.91229 120.378 5.73202 121.025 5.73202C122.055 5.73202 122.871 6.30551 123.474 7.4528L123.408 5.79804V0.172119H127.247L127.248 16.2559ZM123.542 11.005C123.542 9.60776 123.247 8.9088 122.659 8.9088C122.026 8.9088 121.71 9.63729 121.71 11.0931C121.71 12.4904 122.026 13.1894 122.659 13.1894C123.247 13.1894 123.542 12.461 123.542 11.005ZM141.677 16.2559H134.308V1.54033H141.677V5.00402H138.279V7.14412H141.324V10.4754H138.279V12.7258H141.677V16.2559ZM152.973 16.2559H148.538C148.082 15.0941 147.803 14.285 147.7 13.8292C147.45 14.5497 147.09 15.3588 146.619 16.2559H142.339L145.471 10.9608L142.515 5.95256H146.862C147.038 6.43814 147.288 7.18056 147.612 8.1808C147.73 7.81318 148.009 7.07047 148.451 5.95256H152.686L149.642 10.8726L152.973 16.2559ZM159.46 9.04155H158.202V16.2559H154.385V9.04155H153.282V5.95256H154.385V2.92994H158.202V5.95256H159.46V9.04155ZM166.983 5.70989V9.99045C166.615 9.76958 166.263 9.65928 165.925 9.65928C165.424 9.65928 165.02 9.85759 164.711 10.2549C164.446 10.593 164.314 11.1228 164.314 11.8433V16.2559H160.497V5.95256H164.314L164.115 7.96062C164.704 6.50418 165.659 5.75418 166.983 5.70989ZM177.286 16.2559H173.447C173.462 16.0648 173.484 15.7742 173.514 15.3848C173.543 14.9948 173.565 14.7043 173.579 14.5129C172.917 15.8222 172.034 16.4764 170.931 16.4764C170.314 16.4764 169.788 16.2926 169.354 15.9247C168.92 15.5572 168.596 15.0755 168.383 14.4801C168.17 13.8843 168.019 13.3072 167.931 12.7483C167.843 12.1893 167.799 11.6228 167.799 11.0489C167.799 10.461 167.847 9.88707 167.942 9.32811C168.039 8.76915 168.196 8.20648 168.417 7.64051C168.637 7.0741 168.972 6.6146 169.42 6.2616C169.869 5.9086 170.402 5.73202 171.02 5.73202C172.093 5.73202 172.918 6.34998 173.492 7.58556C173.477 7.46862 173.462 7.21746 173.447 6.83508C173.433 6.45255 173.411 6.15851 173.382 5.95256H177.287L177.286 16.2559ZM173.404 10.6521C173.404 9.47525 173.139 8.88703 172.609 8.88703C171.962 8.88703 171.639 9.74749 171.639 11.4682C171.639 12.7038 171.926 13.3214 172.499 13.3214C172.602 13.3214 172.701 13.2996 172.796 13.2557C172.891 13.2119 172.969 13.1462 173.028 13.0573C173.087 12.9696 173.139 12.8807 173.182 12.7925C173.226 12.7048 173.263 12.5827 173.292 12.4282C173.322 12.274 173.343 12.1491 173.358 12.0535C173.373 11.9584 173.383 11.8218 173.392 11.6452C173.406 11.4688 173.407 11.3435 173.407 11.2701C173.407 11.1956 173.407 11.0787 173.407 10.9172C173.407 10.7553 173.407 10.6673 173.407 10.6524L173.404 10.6521ZM184.347 1.54033H188.958C190.296 1.54033 191.348 1.76066 192.113 2.20195C192.73 2.55495 193.209 3.04383 193.547 3.669C193.886 4.29432 194.055 4.9748 194.055 5.70989C194.055 7.54872 193.143 8.54887 191.319 8.71038C193.334 8.96077 194.341 10.0709 194.341 12.042C194.341 13.3215 193.926 14.3436 193.095 15.1086C192.264 15.8735 191.201 16.2559 189.906 16.2559H184.347V1.54033ZM188.318 4.73923V7.25439C188.376 7.26901 188.458 7.27616 188.56 7.27616C189.002 7.27616 189.373 7.16967 189.674 6.95641C189.976 6.74315 190.127 6.42319 190.127 5.99681C190.127 5.57014 189.998 5.2499 189.741 5.0365C189.484 4.82353 189.142 4.71675 188.715 4.71675C188.539 4.71675 188.406 4.73156 188.318 4.73887V4.73923ZM188.318 10.2549V13.057C188.392 13.0716 188.502 13.0787 188.649 13.0787C189.119 13.0787 189.509 12.9576 189.818 12.7151C190.127 12.4723 190.281 12.1157 190.281 11.6449C190.281 11.1742 190.127 10.821 189.818 10.5857C189.509 10.3504 189.112 10.2328 188.627 10.2328C188.583 10.2328 188.532 10.2328 188.473 10.2474C188.414 10.262 188.363 10.262 188.318 10.262V10.2549ZM205.174 11.2034C205.174 12.7626 204.751 14.0315 203.905 15.0093C203.059 15.9875 201.865 16.4764 200.32 16.4764C198.805 16.4764 197.639 15.9728 196.823 14.9651C196.007 13.9574 195.598 12.6818 195.598 11.137C195.598 9.59275 196.015 8.30614 196.845 7.27651C197.676 6.24689 198.841 5.73202 200.342 5.73202C201.901 5.73202 203.096 6.24293 203.927 7.26509C204.758 8.2877 205.174 9.60037 205.174 11.2034ZM201.467 11.1156C201.467 10.5567 201.387 10.0013 201.225 9.4498C201.063 8.89845 200.776 8.6226 200.364 8.6226C199.967 8.6226 199.691 8.89845 199.537 9.4498C199.382 10.0013 199.305 10.5567 199.305 11.1156C199.305 11.6746 199.382 12.2261 199.537 12.7704C199.691 13.3144 199.975 13.5869 200.387 13.5869C200.784 13.5869 201.063 13.3108 201.225 12.7593C201.386 12.2078 201.467 11.66 201.467 11.1156ZM210.447 16.2562H206.63V0.172476H210.447V16.2562ZM221.412 16.2562H217.507V15.8151C217.507 15.8005 217.529 15.484 217.572 14.8662C217.234 15.3958 216.892 15.7971 216.547 16.0689C216.201 16.341 215.764 16.4768 215.234 16.4768C214.587 16.4768 214.035 16.3077 213.579 15.9697C213.123 15.6311 212.781 15.1829 212.554 14.6239C212.326 14.065 212.164 13.506 212.068 12.947C211.973 12.3881 211.925 11.8072 211.925 11.2038C211.925 10.5861 211.969 9.994 212.057 9.42803C212.144 8.86162 212.295 8.28467 212.509 7.69618C212.722 7.10785 213.06 6.63327 213.523 6.27266C213.987 5.91265 214.542 5.73238 215.189 5.73238C216.219 5.73238 217.036 6.30587 217.639 7.45316L217.572 5.79839V0.172476H221.412L221.412 16.2562ZM217.706 11.0054C217.706 9.60812 217.411 8.90915 216.823 8.90915C216.19 8.90915 215.874 9.63765 215.874 11.0935C215.874 12.4907 216.19 13.1897 216.823 13.1897C217.411 13.1897 217.706 12.4614 217.706 11.0054ZM243.1 16.2562H238.863L238.026 14.1382C237.702 13.3589 237.407 12.4765 237.143 11.4907V16.2562H233.436V11.4907C233.172 12.4765 232.878 13.3589 232.554 14.1382L231.716 16.2562H227.48L230.039 10.9836L227.634 5.95292H231.606L232.532 8.24753C232.9 9.13011 233.201 9.99779 233.436 10.8508V5.95292H237.143V10.8508C237.378 9.99779 237.68 9.13011 238.048 8.24753L238.974 5.95292H242.945L240.541 10.9836L243.1 16.2562ZM244.027 5.95292H247.689V8.84349C247.689 9.62273 247.638 10.5274 247.535 11.5571C247.77 10.8364 248.027 10.1743 248.307 9.57149L249.94 5.95292H253.426V16.2562H249.763V13.4987C249.763 12.7194 249.807 11.7702 249.896 10.6524C249.705 11.2995 249.448 11.9906 249.124 12.7261L247.513 16.2562H244.027L244.027 5.95292ZM259.008 5.95292L258.92 7.40927C259.214 6.86478 259.541 6.44954 259.901 6.16275C260.262 5.87611 260.721 5.73238 261.28 5.73238C261.898 5.73238 262.438 5.91265 262.902 6.27266C263.365 6.63327 263.714 7.09659 263.949 7.663C264.185 8.22941 264.358 8.8029 264.468 9.38378C264.578 9.96466 264.634 10.5422 264.634 11.1156C264.634 11.704 264.585 12.2778 264.49 12.8368C264.395 13.3957 264.233 13.9655 264.005 14.5465C263.777 15.1274 263.435 15.5945 262.979 15.9475C262.523 16.3002 261.986 16.4768 261.369 16.4768C260.825 16.4768 260.365 16.341 259.99 16.0689C259.615 15.7971 259.258 15.3958 258.92 14.8662C258.978 15.6312 259.008 16.1978 259.008 16.5653V20.9996H255.191V5.95292H259.008ZM260.684 10.9611C260.684 9.57892 260.383 8.88739 259.78 8.88739C259.192 8.88739 258.897 9.60816 258.897 11.0493C258.897 12.5202 259.184 13.2557 259.757 13.2557C260.375 13.2557 260.684 12.4909 260.684 10.9611ZM269.928 5.95292V9.46122H271.341V5.95292H275.158V16.2562H271.341V12.5495H269.928V16.2562H266.111V5.95292H269.928ZM290.668 16.2562H286.829V5.95292H290.668V16.2562ZM280.762 9.61538H282.174C283.541 9.61538 284.541 9.91714 285.174 10.5204C285.762 11.0789 286.057 11.8438 286.057 12.8146C286.057 13.8737 285.748 14.6971 285.13 15.2856C284.468 15.9326 283.49 16.2562 282.196 16.2562H276.923V5.95292H280.762V9.61538ZM280.762 13.8296H280.895C281.468 13.8296 281.865 13.7187 282.086 13.4987C282.233 13.3516 282.306 13.153 282.306 12.9028C282.306 12.6235 282.233 12.4176 282.086 12.2851C281.88 12.094 281.483 11.9981 280.895 11.9981H280.762V13.8296ZM292.102 5.95292H295.764V8.84349C295.764 9.62273 295.714 10.5274 295.61 11.5571C295.845 10.8364 296.103 10.1743 296.382 9.57149L298.015 5.95292H301.501V16.2562H297.838V13.4987C297.838 12.7194 297.882 11.7702 297.971 10.6524C297.78 11.2995 297.523 11.9906 297.199 12.7261L295.588 16.2562H292.102V5.95292ZM297.993 1.31979L300.531 1.95964C300.339 2.91588 299.854 3.64394 299.074 4.14399C298.486 4.51146 297.735 4.69534 296.823 4.69534C295.912 4.69534 295.161 4.51146 294.573 4.14399C293.793 3.64394 293.308 2.91588 293.116 1.95964L295.654 1.31979C295.698 1.73169 295.823 2.0406 296.029 2.24655C296.206 2.4376 296.47 2.53347 296.823 2.53347C297.176 2.53347 297.441 2.43833 297.618 2.24655C297.824 2.0406 297.949 1.73169 297.993 1.31979Z" fill="black"/>
</svg>
