<svg width="249" height="24" viewBox="0 0 249 24" fill="none" xmlns="http://www.w3.org/2000/svg">
<path fill-rule="evenodd" clip-rule="evenodd" d="M8.92955 1.37993V4.14739H3.39535V7.82878H8.58411V10.5955H3.39535V17.8594H0.183594V1.37993H8.92955ZM10.7331 7.1618H13.7472V13.2145C13.7472 14.0709 13.9618 14.697 14.3902 15.0927C14.8016 15.4548 15.3125 15.6358 15.9219 15.6358C16.531 15.6358 17.0416 15.4548 17.4535 15.0927C17.8815 14.697 18.0959 14.0709 18.0959 13.2145V7.1618H21.1107V13.7088C21.1107 15.142 20.6733 16.2369 19.8003 16.9948C18.8781 17.8018 17.5855 18.2052 15.9219 18.2052C14.2583 18.2052 12.9651 17.8018 12.0428 16.9948C11.1699 16.2369 10.7331 15.142 10.7331 13.7088V7.1618ZM29.0658 9.73085H26.9903V17.8594H23.9762V9.73085H22.79V7.1618H23.9762V3.50504H26.9903V7.1618H29.0658V9.73085ZM30.6467 7.1618H33.6615V13.2145C33.6615 14.0709 33.8754 14.697 34.3038 15.0927C34.7151 15.4548 35.2259 15.6358 35.8355 15.6358C36.4446 15.6358 36.9559 15.4548 37.3678 15.0927C37.7958 14.697 38.0095 14.0709 38.0095 13.2145V7.1618H41.0242V13.7088C41.0242 15.142 40.5876 16.2369 39.7145 16.9948C38.7922 17.8018 37.499 18.2052 35.8355 18.2052C34.1719 18.2052 32.8787 17.8018 31.9564 16.9948C31.0835 16.2369 30.6467 15.142 30.6467 13.7088V7.1618ZM43.8898 17.8594V7.1618H46.9039V8.76768C47.2664 8.07571 47.7114 7.58121 48.2385 7.28492C48.7327 6.97168 49.3256 6.81565 50.0171 6.81565C50.4128 6.81565 50.8407 6.89757 51.3018 7.06259L50.9064 9.8793C50.5277 9.61576 50.0584 9.4839 49.4983 9.4839C48.6252 9.4839 47.958 9.77178 47.497 10.3486C47.1016 10.8425 46.9039 11.6331 46.9039 12.7203V17.8594H43.8898ZM60.7394 8.545V7.1618H63.7542V17.8594H60.7394V16.4759C59.9322 17.6286 58.8376 18.2052 57.4541 18.2052C55.8398 18.2052 54.5259 17.6535 53.5129 16.5501C52.4998 15.4462 51.9934 14.0959 51.9934 12.4983C51.9934 10.884 52.4877 9.53336 53.4758 8.44615C54.4645 7.35937 55.7408 6.81565 57.3057 6.81565C58.8541 6.81565 59.998 7.39186 60.7394 8.545ZM60.1962 10.3486C59.6364 9.77178 58.9283 9.4839 58.0715 9.4839C57.2149 9.4839 56.507 9.77178 55.9467 10.3486C55.3871 10.9249 55.1067 11.6415 55.1067 12.4983C55.1067 13.3547 55.3871 14.0753 55.9467 14.6598C56.507 15.2445 57.2149 15.537 58.0715 15.537C58.9283 15.537 59.6364 15.2445 60.1962 14.6598C60.7564 14.0753 61.0363 13.3547 61.0363 12.4983C61.0363 11.6415 60.7564 10.9249 60.1962 10.3486ZM72.822 1.37993H77.6146C78.6356 1.37993 79.4722 1.46623 80.1227 1.63973C80.7733 1.8125 81.3866 2.14602 81.9634 2.64037C83.0833 3.62863 83.6435 4.95438 83.6435 6.61795C83.6435 8.16633 83.1902 9.39322 82.2845 10.2993C81.3124 11.2711 79.9205 11.7571 78.1085 11.7571H76.0338V17.8594H72.822V1.37993ZM76.0338 4.14739V8.98965H77.3434C78.2823 8.98965 78.982 8.81675 79.4432 8.47077C80.0361 8.0096 80.3325 7.36753 80.3325 6.54372C80.3325 5.73657 80.0278 5.11042 79.4182 4.66591C78.924 4.31993 78.1672 4.14739 77.1457 4.14739H76.0338ZM95.7004 4.14739H91.994V17.8594H88.7823V4.14739H85.0766V1.37993H95.7004V4.14739ZM103.483 1.37993H107.782C109.083 1.37993 110.22 1.49113 111.192 1.7136C112.163 1.93607 113.069 2.3602 113.909 2.98581C114.914 3.7437 115.692 4.69906 116.244 5.85176C116.796 7.0049 117.072 8.26493 117.072 9.63235C117.072 12.5144 115.968 14.7298 113.761 16.2782C112.872 16.9039 111.966 17.324 111.043 17.5383C110.121 17.7524 109.017 17.8594 107.732 17.8594H103.483V1.37993ZM106.695 4.14739V15.0927H107.683C109.363 15.0927 110.705 14.7299 111.71 14.0053C112.353 13.5442 112.855 12.9223 113.218 12.14C113.58 11.3577 113.761 10.5215 113.761 9.63235C113.761 8.75928 113.584 7.93147 113.229 7.14931C112.876 6.36701 112.377 5.7283 111.735 5.23439C110.763 4.50924 109.413 4.14739 107.683 4.14739H106.695ZM127.325 14.4254L130.092 14.87C129.976 15.1663 129.824 15.4588 129.635 15.7472C129.446 16.0351 129.153 16.3895 128.758 16.8095C128.363 17.2293 127.827 17.567 127.152 17.8227C126.477 18.0779 125.702 18.2052 124.83 18.2052C123.149 18.2052 121.782 17.703 120.728 16.6982C119.608 15.6442 119.048 14.2521 119.048 12.5226C119.048 10.8097 119.591 9.40989 120.679 8.32267C121.7 7.3179 123.042 6.81565 124.706 6.81565C126.518 6.81565 127.91 7.40026 128.881 8.56962C129.738 9.59091 130.166 10.991 130.166 12.7699V13.0172H122.161C122.161 13.7419 122.334 14.3431 122.68 14.8208C123.174 15.4958 123.891 15.8332 124.83 15.8332C125.949 15.8332 126.782 15.3638 127.325 14.4254ZM122.259 11.0901H127.325C127.209 10.3982 126.909 9.86678 126.423 9.49639C125.937 9.12555 125.389 8.9404 124.78 8.9404C124.187 8.9404 123.648 9.12979 123.162 9.50852C122.676 9.88769 122.375 10.4147 122.259 11.0901ZM132.488 17.8594V7.1618H135.503V8.37192C136.326 7.3344 137.389 6.81565 138.69 6.81565C140.288 6.81565 141.416 7.46618 142.075 8.76768C142.882 7.46618 144.026 6.81565 145.509 6.81565C146.761 6.81565 147.724 7.25204 148.4 8.12497C148.712 8.53688 148.914 8.96517 149.005 9.40967C149.095 9.85432 149.14 10.4313 149.14 11.1394V17.8594H146.127V12.0287C146.127 11.0239 145.962 10.3239 145.632 9.92855C145.336 9.56648 144.924 9.38505 144.397 9.38505C143.639 9.38505 143.087 9.69819 142.742 10.3239C142.462 10.7851 142.321 11.4769 142.321 12.3991V17.8594H139.307V12.0287C139.307 11.0239 139.143 10.3239 138.814 9.92855C138.517 9.56648 138.105 9.38505 137.578 9.38505C136.82 9.38505 136.269 9.69819 135.923 10.3239C135.643 10.7851 135.503 11.4769 135.503 12.3991V17.8594H132.488ZM152.007 7.1618H155.021V17.8594H152.007V7.1618ZM152.241 3.91222C151.887 3.55849 151.71 3.13428 151.71 2.64037C151.71 2.14602 151.887 1.72168 152.241 1.3678C152.596 1.01348 153.02 0.836792 153.514 0.836792C154.008 0.836792 154.432 1.01348 154.787 1.3678C155.14 1.72168 155.318 2.14602 155.318 2.64037C155.318 3.13428 155.14 3.55849 154.787 3.91222C154.432 4.26654 154.008 4.44359 153.514 4.44359C153.02 4.44359 152.596 4.26654 152.241 3.91222ZM169.104 7.1618H171.822V11.3121L175.033 7.1618H178.542L174.465 12.0287L178.764 17.8594H175.108L172.217 13.6592L171.822 14.1038V17.8594H169.104V14.1038L168.708 13.6592L165.818 17.8594H162.162L166.46 12.0287L162.383 7.1618H165.892L169.104 11.3121V7.1618ZM180.148 7.1618H183.162V13.7584L188.104 7.1618H191.118V17.8594H188.104V11.2629L183.162 17.8594H180.148V7.1618ZM196.998 16.4759V23.5171H193.984V7.1618H196.998V8.545C197.805 7.39186 198.967 6.81565 200.482 6.81565C201.964 6.81565 203.183 7.29337 204.138 8.24844C205.209 9.31914 205.744 10.7356 205.744 12.4983C205.744 14.3098 205.184 15.7515 204.064 16.822C203.076 17.7444 201.865 18.2052 200.432 18.2052C198.999 18.2052 197.854 17.6286 196.998 16.4759ZM199.666 9.4839C198.892 9.4839 198.242 9.72279 197.714 10.2005C197.039 10.7768 196.701 11.5428 196.701 12.4983C196.701 13.4699 197.031 14.244 197.69 14.8208C198.234 15.2982 198.892 15.537 199.666 15.537C200.473 15.537 201.149 15.2817 201.692 14.7708C202.318 14.1944 202.631 13.4367 202.631 12.4983C202.631 11.5755 202.326 10.8265 201.717 10.2497C201.157 9.7393 200.473 9.4839 199.666 9.4839ZM208.067 17.8594V7.1618H211.081V10.9417H215.281V7.1618H218.296V17.8594H215.281V13.5111H211.081V17.8594H208.067ZM221.161 7.1618H224.175V10.9663H226.522C227.774 10.9663 228.73 11.3286 229.388 12.0533C229.932 12.6299 230.204 13.3958 230.204 14.3511C230.204 15.5205 229.825 16.4267 229.067 17.069C228.458 17.5961 227.659 17.8594 226.671 17.8594H221.161V7.1618ZM224.175 15.4877H225.584C226.094 15.4877 226.465 15.3971 226.696 15.2158C226.959 15.0182 227.091 14.7299 227.091 14.3511C227.091 14.0053 226.959 13.7498 226.696 13.5849C226.465 13.4205 226.119 13.3384 225.658 13.3384H224.175V15.4877ZM231.34 7.1618H234.355V17.8594H231.34V7.1618ZM237.22 7.1618H240.235V13.7584L245.176 7.1618H248.191V17.8594H245.176V11.2629L240.235 17.8594H237.22V7.1618ZM244.781 1.79996L246.758 2.73886C246.428 3.6612 245.876 4.31589 245.102 4.70338C244.328 5.0903 243.529 5.28364 242.705 5.28364C241.881 5.28364 241.083 5.0903 240.309 4.70338C239.535 4.31589 238.983 3.6612 238.653 2.73886L240.63 1.79996C240.73 2.24461 240.972 2.6153 241.359 2.91158C241.746 3.20816 242.195 3.35659 242.705 3.35659C243.183 3.35659 243.619 3.22524 244.015 2.96154C244.41 2.698 244.665 2.31053 244.781 1.79996Z" fill="black"/>
</svg>
