<svg width="252" height="18" viewBox="0 0 252 18" fill="none" xmlns="http://www.w3.org/2000/svg">
<path fill-rule="evenodd" clip-rule="evenodd" d="M12.6899 14.085H6.93375L6.10654 16.7952H0.919922L7.10932 0.351194H12.6714L18.8336 16.7952H13.5128L12.6899 14.085ZM11.6143 10.5255L9.81933 4.61515L8.01647 10.5255H11.6143ZM20.1854 4.87548H24.4649V6.82002C24.8784 5.97428 25.3026 5.39256 25.7389 5.07479C26.1793 4.75701 26.7189 4.59981 27.3619 4.59981C28.0394 4.59981 28.778 4.8103 29.578 5.23127L28.162 8.47371C27.622 8.24788 27.1936 8.13666 26.8794 8.13666C26.2825 8.13666 25.8157 8.38582 25.4863 8.87929C25.0156 9.57623 24.7782 10.8814 24.7782 12.7914V16.7952H20.1854V4.87548ZM30.493 0.351194H35.0637V3.45178H30.493V0.351194ZM30.493 4.87548H35.0637V16.7952H30.493V4.87548ZM42.1602 8.73387L37.7965 8.27476C37.9614 7.50912 38.1984 6.90822 38.5088 6.4719C38.8187 6.03149 39.2631 5.65262 39.8485 5.33119C40.2657 5.09747 40.8397 4.9177 41.5707 4.79126C42.302 4.66556 43.0946 4.59981 43.9481 4.59981C45.3147 4.59981 46.4091 4.67728 47.2398 4.82945C48.0664 4.98278 48.7588 5.30428 49.3103 5.7903C49.7006 6.12722 50.0068 6.60574 50.2289 7.22184C50.4547 7.83839 50.5658 8.42766 50.5658 8.99027V14.2574C50.5658 14.8201 50.5997 15.26 50.6728 15.5778C50.7415 15.8957 50.8984 16.3013 51.1353 16.7952H46.8601C46.6881 16.489 46.577 16.2594 46.5232 16.0988C46.4735 15.938 46.4191 15.6889 46.3662 15.3483C45.7688 15.9226 45.1756 16.3318 44.5826 16.5768C43.7747 16.9061 42.8369 17.0709 41.7691 17.0709C40.3488 17.0709 39.2696 16.7417 38.5345 16.0791C37.7958 15.4208 37.4283 14.6058 37.4283 13.6412C37.4283 12.7338 37.6927 11.9876 38.2248 11.4018C38.7567 10.8163 39.7368 10.38 41.1646 10.0965C42.8755 9.75216 43.9856 9.51122 44.4948 9.36944C45.0039 9.23204 45.5431 9.05159 46.11 8.82576C46.11 8.26315 45.9947 7.8727 45.7617 7.64687C45.5321 7.42118 45.1258 7.31017 44.5441 7.31017C43.7977 7.31017 43.239 7.42852 42.864 7.66971C42.5731 7.86119 42.3395 8.21335 42.1595 8.73387H42.1602ZM46.1107 11.1223C45.4829 11.3482 44.8284 11.5472 44.143 11.7233C43.217 11.9722 42.627 12.2172 42.3822 12.4582C42.1257 12.7073 41.9997 12.9903 41.9997 13.3081C41.9997 13.6719 42.125 13.9702 42.3744 14.2001C42.6271 14.4297 42.9946 14.5445 43.4806 14.5445C43.9899 14.5445 44.4648 14.4173 44.9052 14.1694C45.3415 13.9205 45.6509 13.6181 45.8345 13.2583C46.0185 12.8988 46.1107 12.4313 46.1107 11.8575V11.1223ZM53.4599 0.351194H58.0299V16.7952H53.4599V0.351194ZM68.9277 0.351194H78.4473C80.0321 0.351194 81.2496 0.745296 82.0994 1.53009C82.9491 2.31473 83.3742 3.28718 83.3742 4.44689C83.3742 5.41907 83.0715 6.25365 82.4627 6.94635C82.0609 7.41336 81.4675 7.77714 80.6906 8.04887C81.8731 8.33186 82.7381 8.81826 83.2971 9.51111C83.8519 10.2038 84.1314 11.0727 84.1314 12.1176C84.1314 12.9713 83.9324 13.737 83.5383 14.4181C83.1401 15.0993 82.5967 15.6353 81.9117 16.0336C81.4829 16.2785 80.8396 16.4584 79.9783 16.5695C78.8339 16.7186 78.0764 16.7952 77.7015 16.7952H68.9277V0.351194ZM74.0494 6.80467H76.2655C77.058 6.80467 77.6129 6.6672 77.9227 6.39517C78.2331 6.11964 78.3902 5.72518 78.3902 5.20861C78.3902 4.73005 78.2331 4.35489 77.9227 4.08682C77.6129 3.81509 77.0692 3.68125 76.2997 3.68125H74.0494V6.80467ZM74.0494 13.2583H76.6409C77.5172 13.2583 78.134 13.1014 78.4937 12.7914C78.8533 12.4815 79.0333 12.068 79.0333 11.5434C79.0333 11.0574 78.8571 10.667 78.5009 10.372C78.1449 10.0774 77.5213 9.92828 76.6295 9.92828H74.0494V13.2583ZM86.6316 0.351194H91.2015V16.7952H86.6316V0.351194ZM98.2988 8.73387L93.9344 8.27476C94.0993 7.50912 94.3364 6.90822 94.6467 6.4719C94.9566 6.03149 95.4009 5.65262 95.9863 5.33119C96.4037 5.09747 96.9784 4.9177 97.7093 4.79126C98.4406 4.66556 99.2325 4.59981 100.086 4.59981C101.453 4.59981 102.548 4.67728 103.378 4.82945C104.205 4.98278 104.897 5.30428 105.449 5.7903C105.839 6.12722 106.145 6.60574 106.367 7.22184C106.593 7.83839 106.704 8.42766 106.704 8.99027V14.2574C106.704 14.8201 106.738 15.26 106.811 15.5778C106.879 15.8957 107.037 16.3013 107.274 16.7952H102.998C102.826 16.489 102.715 16.2594 102.661 16.0988C102.611 15.938 102.558 15.6889 102.505 15.3483C101.907 15.9226 101.314 16.3318 100.721 16.5768C99.9132 16.9061 98.9753 17.0709 97.9077 17.0709C96.4872 17.0709 95.4082 16.7417 94.6731 16.0791C93.9343 15.4208 93.5668 14.6058 93.5668 13.6412C93.5668 12.7338 93.8306 11.9876 94.3626 11.4018C94.8947 10.8163 95.8747 10.38 97.3025 10.0965C99.0132 9.75216 100.123 9.51122 100.633 9.36944C101.142 9.23204 101.682 9.05159 102.249 8.82576C102.249 8.26315 102.133 7.8727 101.9 7.64687C101.67 7.42118 101.264 7.31017 100.683 7.31017C99.9364 7.31017 99.3775 7.42852 99.0025 7.66971C98.7117 7.86119 98.4779 8.21335 98.2981 8.73387H98.2988ZM102.249 11.1223C101.621 11.3482 100.967 11.5472 100.282 11.7233C99.3554 11.9722 98.7656 12.2172 98.5208 12.4582C98.2642 12.7073 98.1375 12.9903 98.1375 13.3081C98.1375 13.6719 98.2637 13.9702 98.5129 14.2001C98.7657 14.4297 99.1332 14.5445 99.6192 14.5445C100.128 14.5445 100.603 14.4173 101.043 14.1694C101.479 13.9205 101.79 13.6181 101.973 13.2583C102.157 12.8988 102.249 12.4313 102.249 11.8575V11.1223ZM118.325 12.133L122.666 12.6154C122.425 13.5224 122.035 14.3072 121.487 14.9734C120.944 15.6354 120.243 16.1521 119.393 16.5197C118.547 16.8872 117.468 17.0709 116.159 17.0709C114.892 17.0709 113.84 16.9523 112.997 16.7185C112.159 16.4811 111.435 16.0987 110.827 15.5703C110.222 15.0458 109.747 14.426 109.403 13.7137C109.058 13.0018 108.886 12.0601 108.886 10.885C108.886 9.66026 109.097 8.63802 109.514 7.82298C109.82 7.22178 110.241 6.68612 110.773 6.21121C111.305 5.73689 111.848 5.3809 112.411 5.15098C113.303 4.7838 114.444 4.59981 115.834 4.59981C117.782 4.59981 119.263 4.94828 120.285 5.64113C121.307 6.33763 122.023 7.3519 122.436 8.68819L118.142 9.26202C118.007 8.7532 117.763 8.37043 117.407 8.11025C117.05 7.85372 116.572 7.72359 115.971 7.72359C115.217 7.72359 114.605 7.99511 114.134 8.53492C113.667 9.07852 113.433 9.89763 113.433 10.9998C113.433 11.9797 113.667 12.7226 114.13 13.2314C114.593 13.7406 115.182 13.9935 115.902 13.9935C116.499 13.9935 117.005 13.8402 117.411 13.5378C117.82 13.2315 118.122 12.7644 118.325 12.133ZM124.362 0.351194H129.024V8.81826L132.435 4.87548H138.05L133.778 9.04773L138.302 16.7952H133.162L130.742 12.0182L129.024 13.6983V16.7952H124.362V0.351194ZM157.376 8.20589H154.069V16.7952H149.498V8.20589H146.192V4.87548H157.376V8.20589ZM158.452 10.8697C158.452 9.04781 159.064 7.54757 160.289 6.36841C161.514 5.18955 163.168 4.59981 165.25 4.59981C167.634 4.59981 169.434 5.29271 170.651 6.6787C171.627 7.79617 172.117 9.17045 172.117 10.801C172.117 12.6382 171.512 14.139 170.299 15.314C169.085 16.4853 167.406 17.0709 165.262 17.0709C163.352 17.0709 161.805 16.5847 160.626 15.6084C159.175 14.4027 158.452 12.8221 158.452 10.8697ZM163.023 10.8697C163.023 11.9375 163.236 12.726 163.665 13.2351C164.094 13.7444 164.63 14.001 165.28 14.001C165.935 14.001 166.471 13.7481 166.893 13.2467C167.314 12.7454 167.524 11.9374 167.524 10.8274C167.524 9.79031 167.313 9.0208 166.888 8.51154C166.464 8.00652 165.939 7.75392 165.311 7.75392C164.649 7.75392 164.102 8.01026 163.669 8.52332C163.237 9.04003 163.023 9.82105 163.023 10.8697ZM188.009 16.8027H183.439V8.21338H179.972V13.2123C179.972 14.5481 179.699 15.5355 179.16 16.1823C178.616 16.8254 177.786 17.1469 176.664 17.1469C175.393 17.1469 174.253 17.0315 173.243 16.7989V13.4266C173.782 13.5948 174.195 13.6792 174.479 13.6792C175.095 13.6792 175.402 13.2197 175.402 12.305V4.88298H188.009V16.8027ZM199.65 12.1405L203.99 12.6228C203.749 13.5297 203.359 14.3147 202.811 14.9809C202.268 15.6429 201.568 16.1596 200.718 16.5272C199.872 16.8947 198.792 17.0782 197.483 17.0782C196.216 17.0782 195.164 16.9598 194.322 16.726C193.483 16.4886 192.76 16.1062 192.151 15.5778C191.547 15.0533 191.072 14.4335 190.728 13.7212C190.383 13.0093 190.211 12.0676 190.211 10.8925C190.211 9.66776 190.421 8.64552 190.839 7.83047C191.145 7.22927 191.566 6.69361 192.098 6.21871C192.63 5.74438 193.174 5.3884 193.736 5.15847C194.628 4.79129 195.768 4.6073 197.158 4.6073C199.106 4.6073 200.588 4.95577 201.61 5.64862C202.632 6.34512 203.348 7.35939 203.761 8.69568L199.466 9.26952C199.332 8.7607 199.088 8.37793 198.732 8.11774C198.375 7.86122 197.897 7.73109 197.296 7.73109C196.542 7.73109 195.929 8.0026 195.459 8.54241C194.992 9.08602 194.758 9.90513 194.758 11.0073C194.758 11.9872 194.992 12.7301 195.455 13.2389C195.918 13.7481 196.507 14.001 197.227 14.001C197.824 14.001 198.33 13.8475 198.735 13.5451C199.145 13.2388 199.447 12.7719 199.65 12.1405ZM216.117 8.21338H212.81V16.8027H208.239V8.21338H204.933V4.88298H216.117V8.21338ZM222.475 9.13194H224.561C228.087 9.13194 229.847 10.4182 229.847 12.9903C229.847 15.5319 228.132 16.8027 224.698 16.8027H217.905V4.88298H222.475V9.13194ZM222.475 14.001H223.964C224.339 14.001 224.642 13.9132 224.879 13.7403C225.112 13.5682 225.232 13.3194 225.232 12.9903C225.232 12.2706 224.81 11.911 223.964 11.911H222.475V14.001ZM231.133 4.88298H235.703V16.8027H231.133V4.88298ZM251.922 16.8027H247.604V10.9386L243.133 16.8027H238.785V4.88298H243.102V10.8274L247.635 4.88298H251.922V16.8027ZM249.028 0.0831909C249.004 1.16631 248.626 2.00071 247.895 2.58247C247.164 3.16832 246.291 3.45928 245.284 3.45928C244.102 3.45928 243.179 3.16043 242.514 2.56712C241.847 1.97367 241.468 1.14351 241.38 0.0831909H243.309C243.535 0.879089 244.163 1.27725 245.192 1.27725C245.763 1.27725 246.211 1.19683 246.536 1.03619C246.862 0.879056 247.08 0.55766 247.191 0.0831909H249.028Z" fill="black"/>
</svg>
