<svg width="252" height="22" viewBox="0 0 252 22" fill="none" xmlns="http://www.w3.org/2000/svg">
<path fill-rule="evenodd" clip-rule="evenodd" d="M8.87453 2.53822V4.41495H2.70654V9.69828H8.66042V11.5754H2.70654V20.4252H0.72168V2.53822H8.87453ZM13.2461 9.2961V15.7856C13.2461 16.9119 13.4253 17.7073 13.7828 18.1723C14.2295 18.7444 14.8818 19.0306 15.7398 19.0306C16.5983 19.0306 17.2509 18.7444 17.6976 18.1723C18.0551 17.7073 18.2343 16.9119 18.2343 15.7856V9.2961H20.1649V16.0005C20.1649 17.5021 19.8253 18.6194 19.1457 19.3525C18.2697 20.2822 17.1346 20.7471 15.7398 20.7471C14.3457 20.7471 13.2107 20.2822 12.3347 19.3525C11.6551 18.6194 11.3155 17.5021 11.3155 16.0005V9.2961H13.2461ZM27.7275 11.0661H25.7969V20.4252H23.8656V11.0661H22.6858V9.2961H23.8656V5.27356H25.7969V9.2961H27.7275V11.0661ZM31.4817 9.2961V15.7856C31.4817 16.9119 31.6607 17.7073 32.0184 18.1723C32.465 18.7444 33.118 19.0306 33.9762 19.0306C34.8346 19.0306 35.4872 18.7444 35.9339 18.1723C36.2916 17.7073 36.4699 16.9119 36.4699 15.7856V9.2961H38.4012V16.0005C38.4012 17.5021 38.0616 18.6194 37.382 19.3525C36.5062 20.2822 35.3708 20.7471 33.9762 20.7471C32.5818 20.7471 31.4461 20.2822 30.5703 19.3525C29.8907 18.6194 29.5511 17.5021 29.5511 16.0005V9.2961H31.4817ZM42.0484 20.4252V9.2961H43.979V10.5026C44.6046 9.51936 45.4449 9.02774 46.4998 9.02774C47.0363 9.02774 47.6084 9.17978 48.2164 9.48381L47.3042 11.2267C46.9467 10.9763 46.5712 10.8513 46.178 10.8513C45.4984 10.8513 44.9803 11.0838 44.6228 11.5486C44.1935 12.1204 43.979 13.122 43.979 14.5523V20.4252H42.0484ZM57.9508 10.8784V9.2961H59.8814V20.4252H57.9508V18.8696C56.9854 20.121 55.7158 20.7471 54.1424 20.7471C52.6409 20.7471 51.3632 20.2285 50.3083 19.1919C49.2534 18.1548 48.7252 16.7066 48.7252 14.8474C48.7252 13.0235 49.2486 11.5978 50.2947 10.5697C51.3406 9.54172 52.6231 9.02774 54.1424 9.02774C55.7517 9.02774 57.021 9.64445 57.9508 10.8784ZM54.3572 10.7439C53.3383 10.7439 52.4757 11.106 51.7693 11.8298C51.0631 12.5541 50.7101 13.5596 50.7101 14.8471C50.7101 16.0805 51.0367 17.0862 51.6893 17.864C52.3418 18.6416 53.231 19.0302 54.3572 19.0302C55.4838 19.0302 56.3819 18.6287 57.0522 17.824C57.7227 17.0193 58.0586 16.036 58.0586 14.8738C58.0586 13.5509 57.6832 12.5318 56.9323 11.8166C56.1812 11.1014 55.3225 10.7439 54.3572 10.7439ZM70.2597 2.53786H73.505C75.5432 2.53786 77.0447 2.95796 78.01 3.7983C79.1006 4.72765 79.6458 6.0064 79.6458 7.63313C79.6458 9.02774 79.1765 10.2117 78.2377 11.1864C77.2991 12.1609 75.8823 12.6477 73.9874 12.6477H72.2445V20.4252H70.2597V2.53786ZM72.2445 4.41495V10.771H73.8804C75.0604 10.771 75.9856 10.4846 76.6561 9.91276C77.3264 9.3405 77.6617 8.5451 77.6617 7.52571C77.6617 5.45199 76.3472 4.41495 73.7191 4.41495H72.2445ZM91.231 4.41495H86.8866V20.4252H84.9024V4.41495H80.558V2.53786H91.231V4.41495ZM100.161 2.53786H103.379C105.167 2.53786 106.535 2.91324 107.482 3.66412C108.555 4.48647 109.091 5.72012 109.091 7.36512C109.091 8.90269 108.501 10.0738 107.321 10.8784C108.466 11.1642 109.32 11.741 109.883 12.6078C110.446 13.475 110.727 14.4002 110.727 15.3834C110.727 16.1881 110.552 16.9298 110.204 17.6092C109.856 18.2887 109.422 18.834 108.903 19.245C107.902 20.0319 106.472 20.4252 104.613 20.4252H100.161V2.53786ZM102.146 4.41495V10.3956H103.648C103.916 10.3956 104.175 10.3809 104.425 10.3546C104.675 10.3282 104.975 10.2567 105.323 10.1401C105.672 10.0231 105.976 9.86734 106.236 9.67045C106.495 9.4737 106.713 9.17878 106.892 8.78543C107.071 8.39223 107.161 7.93634 107.161 7.41758C107.161 6.8636 107.054 6.38562 106.839 5.98336C106.624 5.58095 106.383 5.28131 106.115 5.08442C105.846 4.88812 105.525 4.736 105.149 4.62871C104.774 4.52201 104.488 4.45884 104.291 4.441C104.095 4.42346 103.897 4.41459 103.701 4.41459L102.146 4.41495ZM102.146 12.1653V18.5477H104.425C105.873 18.5477 106.919 18.2975 107.563 17.7969C108.349 17.2248 108.743 16.4027 108.743 15.3299C108.743 14.132 108.233 13.2556 107.214 12.7016C106.571 12.3441 105.56 12.1653 104.184 12.1653H102.146ZM123.318 19.0844C122.201 20.1927 120.793 20.7471 119.094 20.7471C117.396 20.7471 115.988 20.1927 114.871 19.0844C113.753 17.976 113.194 16.5813 113.194 14.9006C113.194 13.2023 113.753 11.7988 114.871 10.6904C115.988 9.58166 117.396 9.02774 119.094 9.02774C120.793 9.02774 122.201 9.58166 123.318 10.6904C124.435 11.7988 124.994 13.2023 124.994 14.9006C124.994 16.5813 124.435 17.976 123.318 19.0844ZM121.87 11.8437C121.11 11.1108 120.185 10.7439 119.094 10.7439C118.003 10.7439 117.078 11.1148 116.318 11.8569C115.559 12.599 115.179 13.6133 115.179 14.9006C115.179 16.1881 115.563 17.198 116.332 17.9311C117.1 18.664 118.022 19.0302 119.094 19.0302C120.167 19.0302 121.088 18.664 121.856 17.9311C122.625 17.198 123.009 16.1881 123.009 14.9006C123.009 13.5955 122.63 12.5768 121.87 11.8437ZM137.37 19.0844C136.253 20.1927 134.845 20.7471 133.146 20.7471C131.448 20.7471 130.04 20.1927 128.923 19.0844C127.805 17.976 127.247 16.5813 127.247 14.9006C127.247 13.2023 127.805 11.7988 128.923 10.6904C130.04 9.58166 131.448 9.02774 133.146 9.02774C134.845 9.02774 136.253 9.58166 137.37 10.6904C138.488 11.7988 139.046 13.2023 139.046 14.9006C139.046 16.5813 138.488 17.976 137.37 19.0844ZM135.922 11.8437C135.162 11.1108 134.237 10.7439 133.146 10.7439C132.056 10.7439 131.13 11.1148 130.371 11.8569C129.611 12.599 129.231 13.6133 129.231 14.9006C129.231 16.1881 129.616 17.198 130.384 17.9311C131.153 18.664 132.074 19.0302 133.146 19.0302C134.219 19.0302 135.14 18.664 135.909 17.9311C136.677 17.198 137.062 16.1881 137.062 14.9006C137.062 13.5955 136.682 12.5768 135.922 11.8437ZM141.996 0.875244H143.927V13.4257L148.003 9.29574H150.524L145.751 14.0695L151.382 20.4252H148.861L144.41 15.3563L143.927 15.8392V20.4252H141.996V0.875244ZM168.987 19.0844C167.87 20.1927 166.462 20.7471 164.764 20.7471C163.065 20.7471 161.658 20.1927 160.541 19.0844C159.423 17.976 158.864 16.5813 158.864 14.9006C158.864 13.2023 159.423 11.7988 160.541 10.6904C161.658 9.58166 163.065 9.02774 164.764 9.02774C166.462 9.02774 167.87 9.58166 168.987 10.6904C170.105 11.7988 170.663 13.2023 170.663 14.9006C170.663 16.5813 170.105 17.976 168.987 19.0844ZM167.539 11.8437C166.779 11.1108 165.854 10.7439 164.764 10.7439C163.673 10.7439 162.748 11.1148 161.989 11.8569C161.229 12.599 160.849 13.6133 160.849 14.9006C160.849 16.1881 161.233 17.198 162.002 17.9311C162.77 18.664 163.691 19.0302 164.764 19.0302C165.836 19.0302 166.758 18.664 167.527 17.9311C168.295 17.198 168.679 16.1881 168.679 14.9006C168.679 13.5955 168.299 12.5768 167.539 11.8437ZM182.196 1.65284H184.34C184.144 2.31412 183.809 2.87326 183.335 3.32902C182.862 3.78478 182.432 4.09322 182.048 4.25401C181.663 4.41479 181.212 4.55819 180.694 4.68331C180.605 4.70085 180.39 4.7508 180.05 4.83105C179.71 4.91145 179.451 4.97847 179.272 5.03196C179.093 5.08459 178.861 5.15757 178.575 5.24644C178.289 5.3356 178.03 5.44285 177.798 5.56797C177.565 5.69368 177.35 5.8272 177.154 5.97015C176.475 6.48891 175.925 7.20835 175.505 8.12952C175.084 9.0501 174.856 10.0291 174.821 11.0661H174.875C175.68 9.70704 177.029 9.02774 178.924 9.02774C180.587 9.02774 181.968 9.59088 183.068 10.7171C184.167 11.8437 184.717 13.2379 184.717 14.9006C184.717 16.5813 184.153 17.976 183.027 19.0844C181.901 20.1927 180.435 20.7471 178.629 20.7471C177.074 20.7471 175.795 20.2822 174.794 19.3525C173.543 18.2084 172.917 16.2955 172.917 13.6134C172.917 8.9475 173.972 5.88983 176.082 4.44172C176.243 4.33501 176.412 4.23161 176.591 4.13339C176.77 4.03545 176.962 3.94578 177.167 3.86539C177.373 3.78499 177.548 3.71347 177.691 3.65091C177.834 3.58806 178.035 3.52518 178.294 3.4632C178.553 3.40035 178.732 3.35644 178.83 3.32867C178.928 3.30235 179.126 3.25698 179.421 3.19413C179.716 3.13128 179.898 3.09176 179.97 3.07422C180.685 2.91344 181.204 2.72124 181.525 2.49789C181.847 2.27411 182.071 1.99305 182.196 1.6532L182.196 1.65284ZM181.592 11.8437C180.832 11.1108 179.907 10.7439 178.816 10.7439C177.726 10.7439 176.801 11.1148 176.041 11.8569C175.281 12.599 174.901 13.6133 174.901 14.9006C174.901 16.1881 175.285 17.198 176.054 17.9311C176.823 18.664 177.744 19.0302 178.816 19.0302C179.889 19.0302 180.81 18.664 181.579 17.9311C182.348 17.198 182.732 16.1881 182.732 14.9006C182.732 13.5955 182.352 12.5768 181.592 11.8437ZM187.666 20.4252V9.29574H189.597V13.5599H191.582C193.119 13.5599 194.245 13.9262 194.961 14.6597C195.533 15.2314 195.819 16.0089 195.819 16.9922C195.819 18.0292 195.488 18.8606 194.826 19.4866C194.165 20.1122 193.075 20.4252 191.555 20.4252H187.666ZM189.597 18.709H191.394C192.198 18.709 192.771 18.6096 193.111 18.4139C193.593 18.092 193.834 17.6182 193.834 16.9922C193.834 16.3486 193.602 15.8838 193.137 15.5979C192.815 15.3833 192.243 15.276 191.421 15.276H189.597V18.709ZM197.16 20.4252V9.29574H199.09V20.4252H197.16ZM208.691 20.4252V16.0536C207.636 16.2144 206.761 16.2952 206.063 16.2952C204.848 16.2952 203.945 16.027 203.355 15.4909C202.729 14.9364 202.415 14.0246 202.415 12.7552V9.29574H204.347V12.4872C204.347 13.0949 204.427 13.533 204.588 13.8011C204.838 14.2839 205.401 14.5252 206.277 14.5252C207.064 14.5252 207.869 14.4447 208.691 14.2836V9.29574H210.622V20.4252H208.691ZM214.269 20.4252V9.29574H216.2V13.855H221.456V9.29574H223.387V20.4252H221.456V15.625H216.2V20.4252H214.269ZM227.034 20.4252V9.29574H228.965V13.5599H230.949C232.487 13.5599 233.614 13.9262 234.329 14.6597C234.901 15.2314 235.187 16.0089 235.187 16.9922C235.187 18.0292 234.856 18.8606 234.195 19.4866C233.533 20.1122 232.442 20.4252 230.922 20.4252H227.034ZM228.965 18.709H230.762C231.566 18.709 232.138 18.6096 232.478 18.4139C232.961 18.092 233.202 17.6182 233.202 16.9922C233.202 16.3486 232.97 15.8838 232.505 15.5979C232.183 15.3833 231.611 15.276 230.788 15.276H228.965V18.709ZM236.528 20.4252V9.29574H238.458V20.4252H236.528ZM242.106 9.29574H244.036V16.6439L251.652 8.43785V20.4252H249.721V12.9968L242.106 21.2028V9.29574ZM243.07 4.4956L244.68 3.87859C245.001 4.95133 245.762 5.48768 246.96 5.48768C248.157 5.48768 248.917 4.95133 249.238 3.87859L250.848 4.4956C250.562 5.29983 250.075 5.93449 249.386 6.39946C248.698 6.86428 247.889 7.09712 246.96 7.09712C246.03 7.09712 245.22 6.86428 244.532 6.39946C243.844 5.93449 243.357 5.29983 243.07 4.4956Z" fill="black"/>
</svg>
